<?xml version="1.0" encoding="UTF-8" standalone="no"?>
<!DOCTYPE svg PUBLIC "-//W3C//DTD SVG 1.1//EN"
 "http://www.w3.org/Graphics/SVG/1.1/DTD/svg11.dtd">
<!-- Generated by graphviz version 2.47.0 (20210316.0004)
 -->
<!-- Title: dbml Pages: 1 -->
<svg width="2870pt" height="1345pt"
 viewBox="0.00 0.00 2870.12 1345.05" xmlns="http://www.w3.org/2000/svg" xmlns:xlink="http://www.w3.org/1999/xlink">
<g id="graph0" class="graph" transform="scale(1 1) rotate(0) translate(4 1341.05)">
<title>dbml</title>
<!-- roles -->
<g id="roles" class="node">
<title>roles</title>
<ellipse fill="none" stroke="black" stroke-width="0" cx="1489.04" cy="-402.37" rx="260.43" ry="214.92"/>
<polygon fill="#1d71b8" stroke="transparent" points="1307.04,-492.37 1307.04,-552.37 1671.04,-552.37 1671.04,-492.37 1307.04,-492.37"/>
<polygon fill="none" stroke="#29235c" points="1307.04,-492.37 1307.04,-552.37 1671.04,-552.37 1671.04,-492.37 1307.04,-492.37"/>
<text text-anchor="start" x="1392.13" y="-513.57" font-family="Helvetica,sans-Serif" font-weight="bold" font-size="32.00" fill="#ffffff"> &#160;&#160;&#160;&#160;&#160;&#160;roles &#160;&#160;&#160;&#160;&#160;&#160;</text>
<polygon fill="#e7e2dd" stroke="transparent" points="1307.04,-432.37 1307.04,-492.37 1671.04,-492.37 1671.04,-432.37 1307.04,-432.37"/>
<polygon fill="none" stroke="#29235c" points="1307.04,-432.37 1307.04,-492.37 1671.04,-492.37 1671.04,-432.37 1307.04,-432.37"/>
<text text-anchor="start" x="1318.04" y="-453.57" font-family="Helvetica,sans-Serif" font-weight="bold" font-size="32.00" fill="#29235c">id</text>
<text text-anchor="start" x="1342.93" y="-453.57" font-family="Helvetica,sans-Serif" font-size="32.00" fill="#29235c"> &#160;&#160;&#160;</text>
<text text-anchor="start" x="1626.26" y="-453.57" font-family="Helvetica,sans-Serif" font-style="italic" font-size="32.00" fill="#29235c">int</text>
<polygon fill="#e7e2dd" stroke="transparent" points="1307.04,-372.37 1307.04,-432.37 1671.04,-432.37 1671.04,-372.37 1307.04,-372.37"/>
<polygon fill="none" stroke="#29235c" points="1307.04,-372.37 1307.04,-432.37 1671.04,-432.37 1671.04,-372.37 1307.04,-372.37"/>
<text text-anchor="start" x="1318.04" y="-392.57" font-family="Helvetica,sans-Serif" font-size="32.00" fill="#29235c">name &#160;&#160;&#160;</text>
<text text-anchor="start" x="1553.37" y="-393.57" font-family="Helvetica,sans-Serif" font-style="italic" font-size="32.00" fill="#29235c">varchar</text>
<polygon fill="#e7e2dd" stroke="transparent" points="1307.04,-312.37 1307.04,-372.37 1671.04,-372.37 1671.04,-312.37 1307.04,-312.37"/>
<polygon fill="none" stroke="#29235c" points="1307.04,-312.37 1307.04,-372.37 1671.04,-372.37 1671.04,-312.37 1307.04,-312.37"/>
<text text-anchor="start" x="1318.04" y="-332.57" font-family="Helvetica,sans-Serif" font-size="32.00" fill="#29235c">created_at &#160;&#160;&#160;</text>
<text text-anchor="start" x="1512.48" y="-333.57" font-family="Helvetica,sans-Serif" font-style="italic" font-size="32.00" fill="#29235c">timestamp</text>
<polygon fill="#e7e2dd" stroke="transparent" points="1307.04,-252.37 1307.04,-312.37 1671.04,-312.37 1671.04,-252.37 1307.04,-252.37"/>
<polygon fill="none" stroke="#29235c" points="1307.04,-252.37 1307.04,-312.37 1671.04,-312.37 1671.04,-252.37 1307.04,-252.37"/>
<text text-anchor="start" x="1317.71" y="-272.57" font-family="Helvetica,sans-Serif" font-size="32.00" fill="#29235c">updated_at &#160;&#160;&#160;</text>
<text text-anchor="start" x="1512.76" y="-273.57" font-family="Helvetica,sans-Serif" font-style="italic" font-size="32.00" fill="#29235c">timestamp</text>
<polygon fill="none" stroke="#29235c" stroke-width="2" points="1306.04,-251.37 1306.04,-553.37 1672.04,-553.37 1672.04,-251.37 1306.04,-251.37"/>
</g>
<!-- levels -->
<g id="levels" class="node">
<title>levels</title>
<ellipse fill="none" stroke="black" stroke-width="0" cx="2045.47" cy="-547.37" rx="260.43" ry="214.92"/>
<polygon fill="#1d71b8" stroke="transparent" points="1863.47,-637.37 1863.47,-697.37 2227.47,-697.37 2227.47,-637.37 1863.47,-637.37"/>
<polygon fill="none" stroke="#29235c" points="1863.47,-637.37 1863.47,-697.37 2227.47,-697.37 2227.47,-637.37 1863.47,-637.37"/>
<text text-anchor="start" x="1942.33" y="-658.57" font-family="Helvetica,sans-Serif" font-weight="bold" font-size="32.00" fill="#ffffff"> &#160;&#160;&#160;&#160;&#160;&#160;levels &#160;&#160;&#160;&#160;&#160;&#160;</text>
<polygon fill="#e7e2dd" stroke="transparent" points="1863.47,-577.37 1863.47,-637.37 2227.47,-637.37 2227.47,-577.37 1863.47,-577.37"/>
<polygon fill="none" stroke="#29235c" points="1863.47,-577.37 1863.47,-637.37 2227.47,-637.37 2227.47,-577.37 1863.47,-577.37"/>
<text text-anchor="start" x="1874.47" y="-598.57" font-family="Helvetica,sans-Serif" font-weight="bold" font-size="32.00" fill="#29235c">id</text>
<text text-anchor="start" x="1899.36" y="-598.57" font-family="Helvetica,sans-Serif" font-size="32.00" fill="#29235c"> &#160;&#160;&#160;</text>
<text text-anchor="start" x="2182.69" y="-598.57" font-family="Helvetica,sans-Serif" font-style="italic" font-size="32.00" fill="#29235c">int</text>
<polygon fill="#e7e2dd" stroke="transparent" points="1863.47,-517.37 1863.47,-577.37 2227.47,-577.37 2227.47,-517.37 1863.47,-517.37"/>
<polygon fill="none" stroke="#29235c" points="1863.47,-517.37 1863.47,-577.37 2227.47,-577.37 2227.47,-517.37 1863.47,-517.37"/>
<text text-anchor="start" x="1874.47" y="-537.57" font-family="Helvetica,sans-Serif" font-size="32.00" fill="#29235c">name &#160;&#160;&#160;</text>
<text text-anchor="start" x="2070.71" y="-538.57" font-family="Helvetica,sans-Serif" font-style="italic" font-size="32.00" fill="#29235c">varchar</text>
<text text-anchor="start" x="2177.38" y="-538.57" font-family="Helvetica,sans-Serif" font-size="32.00" fill="#29235c"> </text>
<text text-anchor="start" x="2186.27" y="-538.57" font-family="Helvetica,sans-Serif" font-weight="bold" font-size="32.00" fill="#29235c">(!)</text>
<polygon fill="#e7e2dd" stroke="transparent" points="1863.47,-457.37 1863.47,-517.37 2227.47,-517.37 2227.47,-457.37 1863.47,-457.37"/>
<polygon fill="none" stroke="#29235c" points="1863.47,-457.37 1863.47,-517.37 2227.47,-517.37 2227.47,-457.37 1863.47,-457.37"/>
<text text-anchor="start" x="1874.47" y="-477.57" font-family="Helvetica,sans-Serif" font-size="32.00" fill="#29235c">created_at &#160;&#160;&#160;</text>
<text text-anchor="start" x="2068.91" y="-478.57" font-family="Helvetica,sans-Serif" font-style="italic" font-size="32.00" fill="#29235c">timestamp</text>
<polygon fill="#e7e2dd" stroke="transparent" points="1863.47,-397.37 1863.47,-457.37 2227.47,-457.37 2227.47,-397.37 1863.47,-397.37"/>
<polygon fill="none" stroke="#29235c" points="1863.47,-397.37 1863.47,-457.37 2227.47,-457.37 2227.47,-397.37 1863.47,-397.37"/>
<text text-anchor="start" x="1874.14" y="-417.57" font-family="Helvetica,sans-Serif" font-size="32.00" fill="#29235c">updated_at &#160;&#160;&#160;</text>
<text text-anchor="start" x="2069.19" y="-418.57" font-family="Helvetica,sans-Serif" font-style="italic" font-size="32.00" fill="#29235c">timestamp</text>
<polygon fill="none" stroke="#29235c" stroke-width="2" points="1862.47,-396.37 1862.47,-698.37 2228.47,-698.37 2228.47,-396.37 1862.47,-396.37"/>
</g>
<!-- positions -->
<g id="positions" class="node">
<title>positions</title>
<ellipse fill="none" stroke="black" stroke-width="0" cx="2045.47" cy="-1037.37" rx="260.43" ry="257.27"/>
<polygon fill="#1d71b8" stroke="transparent" points="1863.47,-1157.37 1863.47,-1217.37 2227.47,-1217.37 2227.47,-1157.37 1863.47,-1157.37"/>
<polygon fill="none" stroke="#29235c" points="1863.47,-1157.37 1863.47,-1217.37 2227.47,-1217.37 2227.47,-1157.37 1863.47,-1157.37"/>
<text text-anchor="start" x="1920.1" y="-1178.57" font-family="Helvetica,sans-Serif" font-weight="bold" font-size="32.00" fill="#ffffff"> &#160;&#160;&#160;&#160;&#160;&#160;positions &#160;&#160;&#160;&#160;&#160;&#160;</text>
<polygon fill="#e7e2dd" stroke="transparent" points="1863.47,-1097.37 1863.47,-1157.37 2227.47,-1157.37 2227.47,-1097.37 1863.47,-1097.37"/>
<polygon fill="none" stroke="#29235c" points="1863.47,-1097.37 1863.47,-1157.37 2227.47,-1157.37 2227.47,-1097.37 1863.47,-1097.37"/>
<text text-anchor="start" x="1874.47" y="-1118.57" font-family="Helvetica,sans-Serif" font-weight="bold" font-size="32.00" fill="#29235c">id</text>
<text text-anchor="start" x="1899.36" y="-1118.57" font-family="Helvetica,sans-Serif" font-size="32.00" fill="#29235c"> &#160;&#160;&#160;</text>
<text text-anchor="start" x="2182.69" y="-1118.57" font-family="Helvetica,sans-Serif" font-style="italic" font-size="32.00" fill="#29235c">int</text>
<polygon fill="#e7e2dd" stroke="transparent" points="1863.47,-1037.37 1863.47,-1097.37 2227.47,-1097.37 2227.47,-1037.37 1863.47,-1037.37"/>
<polygon fill="none" stroke="#29235c" points="1863.47,-1037.37 1863.47,-1097.37 2227.47,-1097.37 2227.47,-1037.37 1863.47,-1037.37"/>
<text text-anchor="start" x="1874.47" y="-1057.57" font-family="Helvetica,sans-Serif" font-size="32.00" fill="#29235c">name &#160;&#160;&#160;</text>
<text text-anchor="start" x="2070.71" y="-1058.57" font-family="Helvetica,sans-Serif" font-style="italic" font-size="32.00" fill="#29235c">varchar</text>
<text text-anchor="start" x="2177.38" y="-1058.57" font-family="Helvetica,sans-Serif" font-size="32.00" fill="#29235c"> </text>
<text text-anchor="start" x="2186.27" y="-1058.57" font-family="Helvetica,sans-Serif" font-weight="bold" font-size="32.00" fill="#29235c">(!)</text>
<polygon fill="#e7e2dd" stroke="transparent" points="1863.47,-977.37 1863.47,-1037.37 2227.47,-1037.37 2227.47,-977.37 1863.47,-977.37"/>
<polygon fill="none" stroke="#29235c" points="1863.47,-977.37 1863.47,-1037.37 2227.47,-1037.37 2227.47,-977.37 1863.47,-977.37"/>
<text text-anchor="start" x="1874.47" y="-997.57" font-family="Helvetica,sans-Serif" font-size="32.00" fill="#29235c">department_id &#160;&#160;&#160;</text>
<text text-anchor="start" x="2182.69" y="-998.57" font-family="Helvetica,sans-Serif" font-style="italic" font-size="32.00" fill="#29235c">int</text>
<polygon fill="#e7e2dd" stroke="transparent" points="1863.47,-917.37 1863.47,-977.37 2227.47,-977.37 2227.47,-917.37 1863.47,-917.37"/>
<polygon fill="none" stroke="#29235c" points="1863.47,-917.37 1863.47,-977.37 2227.47,-977.37 2227.47,-917.37 1863.47,-917.37"/>
<text text-anchor="start" x="1874.47" y="-937.57" font-family="Helvetica,sans-Serif" font-size="32.00" fill="#29235c">created_at &#160;&#160;&#160;</text>
<text text-anchor="start" x="2068.91" y="-938.57" font-family="Helvetica,sans-Serif" font-style="italic" font-size="32.00" fill="#29235c">timestamp</text>
<polygon fill="#e7e2dd" stroke="transparent" points="1863.47,-857.37 1863.47,-917.37 2227.47,-917.37 2227.47,-857.37 1863.47,-857.37"/>
<polygon fill="none" stroke="#29235c" points="1863.47,-857.37 1863.47,-917.37 2227.47,-917.37 2227.47,-857.37 1863.47,-857.37"/>
<text text-anchor="start" x="1874.14" y="-877.57" font-family="Helvetica,sans-Serif" font-size="32.00" fill="#29235c">updated_at &#160;&#160;&#160;</text>
<text text-anchor="start" x="2069.19" y="-878.57" font-family="Helvetica,sans-Serif" font-style="italic" font-size="32.00" fill="#29235c">timestamp</text>
<polygon fill="none" stroke="#29235c" stroke-width="2" points="1862.47,-856.37 1862.47,-1218.37 2228.47,-1218.37 2228.47,-856.37 1862.47,-856.37"/>
</g>
<!-- departments -->
<g id="departments" class="node">
<title>departments</title>
<ellipse fill="none" stroke="black" stroke-width="0" cx="2601.9" cy="-1067.37" rx="260.43" ry="214.92"/>
<polygon fill="#1d71b8" stroke="transparent" points="2419.9,-1157.37 2419.9,-1217.37 2783.9,-1217.37 2783.9,-1157.37 2419.9,-1157.37"/>
<polygon fill="none" stroke="#29235c" points="2419.9,-1157.37 2419.9,-1217.37 2783.9,-1217.37 2783.9,-1157.37 2419.9,-1157.37"/>
<text text-anchor="start" x="2450.74" y="-1178.57" font-family="Helvetica,sans-Serif" font-weight="bold" font-size="32.00" fill="#ffffff"> &#160;&#160;&#160;&#160;&#160;&#160;departments &#160;&#160;&#160;&#160;&#160;&#160;</text>
<polygon fill="#e7e2dd" stroke="transparent" points="2419.9,-1097.37 2419.9,-1157.37 2783.9,-1157.37 2783.9,-1097.37 2419.9,-1097.37"/>
<polygon fill="none" stroke="#29235c" points="2419.9,-1097.37 2419.9,-1157.37 2783.9,-1157.37 2783.9,-1097.37 2419.9,-1097.37"/>
<text text-anchor="start" x="2430.9" y="-1118.57" font-family="Helvetica,sans-Serif" font-weight="bold" font-size="32.00" fill="#29235c">id</text>
<text text-anchor="start" x="2455.79" y="-1118.57" font-family="Helvetica,sans-Serif" font-size="32.00" fill="#29235c"> &#160;&#160;&#160;</text>
<text text-anchor="start" x="2739.12" y="-1118.57" font-family="Helvetica,sans-Serif" font-style="italic" font-size="32.00" fill="#29235c">int</text>
<polygon fill="#e7e2dd" stroke="transparent" points="2419.9,-1037.37 2419.9,-1097.37 2783.9,-1097.37 2783.9,-1037.37 2419.9,-1037.37"/>
<polygon fill="none" stroke="#29235c" points="2419.9,-1037.37 2419.9,-1097.37 2783.9,-1097.37 2783.9,-1037.37 2419.9,-1037.37"/>
<text text-anchor="start" x="2430.9" y="-1057.57" font-family="Helvetica,sans-Serif" font-size="32.00" fill="#29235c">name &#160;&#160;&#160;</text>
<text text-anchor="start" x="2627.14" y="-1058.57" font-family="Helvetica,sans-Serif" font-style="italic" font-size="32.00" fill="#29235c">varchar</text>
<text text-anchor="start" x="2733.81" y="-1058.57" font-family="Helvetica,sans-Serif" font-size="32.00" fill="#29235c"> </text>
<text text-anchor="start" x="2742.7" y="-1058.57" font-family="Helvetica,sans-Serif" font-weight="bold" font-size="32.00" fill="#29235c">(!)</text>
<polygon fill="#e7e2dd" stroke="transparent" points="2419.9,-977.37 2419.9,-1037.37 2783.9,-1037.37 2783.9,-977.37 2419.9,-977.37"/>
<polygon fill="none" stroke="#29235c" points="2419.9,-977.37 2419.9,-1037.37 2783.9,-1037.37 2783.9,-977.37 2419.9,-977.37"/>
<text text-anchor="start" x="2430.9" y="-997.57" font-family="Helvetica,sans-Serif" font-size="32.00" fill="#29235c">created_at &#160;&#160;&#160;</text>
<text text-anchor="start" x="2625.34" y="-998.57" font-family="Helvetica,sans-Serif" font-style="italic" font-size="32.00" fill="#29235c">timestamp</text>
<polygon fill="#e7e2dd" stroke="transparent" points="2419.9,-917.37 2419.9,-977.37 2783.9,-977.37 2783.9,-917.37 2419.9,-917.37"/>
<polygon fill="none" stroke="#29235c" points="2419.9,-917.37 2419.9,-977.37 2783.9,-977.37 2783.9,-917.37 2419.9,-917.37"/>
<text text-anchor="start" x="2430.57" y="-937.57" font-family="Helvetica,sans-Serif" font-size="32.00" fill="#29235c">updated_at &#160;&#160;&#160;</text>
<text text-anchor="start" x="2625.62" y="-938.57" font-family="Helvetica,sans-Serif" font-style="italic" font-size="32.00" fill="#29235c">timestamp</text>
<polygon fill="none" stroke="#29235c" stroke-width="2" points="2418.9,-916.37 2418.9,-1218.37 2784.9,-1218.37 2784.9,-916.37 2418.9,-916.37"/>
</g>
<!-- positions&#45;&gt;departments -->
<!-- positions&#45;&gt;departments -->
<g id="edge2" class="edge">
<title>positions:e&#45;&gt;departments:w</title>
<path fill="none" stroke="#29235c" stroke-width="3" d="M2228.47,-1007.37C2324.99,-1007.37 2319.41,-1119.08 2408.75,-1126.94"/>
<polygon fill="#29235c" stroke="#29235c" stroke-width="3" points="2408.76,-1130.44 2418.9,-1127.37 2409.06,-1123.45 2408.76,-1130.44"/>
<text text-anchor="middle" x="2410.01" y="-1136.97" font-family="Helvetica,sans-Serif" font-size="32.00" fill="#29235c">1</text>
<text text-anchor="middle" x="2234.69" y="-1016.97" font-family="Helvetica,sans-Serif" font-size="32.00" fill="#29235c">*</text>
</g>
<!-- titles -->
<g id="titles" class="node">
<title>titles</title>
<ellipse fill="none" stroke="black" stroke-width="0" cx="1489.04" cy="-977.37" rx="260.43" ry="342.48"/>
<polygon fill="#1d71b8" stroke="transparent" points="1307.04,-1157.37 1307.04,-1217.37 1671.04,-1217.37 1671.04,-1157.37 1307.04,-1157.37"/>
<polygon fill="none" stroke="#29235c" points="1307.04,-1157.37 1307.04,-1217.37 1671.04,-1217.37 1671.04,-1157.37 1307.04,-1157.37"/>
<text text-anchor="start" x="1393.9" y="-1178.57" font-family="Helvetica,sans-Serif" font-weight="bold" font-size="32.00" fill="#ffffff"> &#160;&#160;&#160;&#160;&#160;&#160;titles &#160;&#160;&#160;&#160;&#160;&#160;</text>
<polygon fill="#e7e2dd" stroke="transparent" points="1307.04,-1097.37 1307.04,-1157.37 1671.04,-1157.37 1671.04,-1097.37 1307.04,-1097.37"/>
<polygon fill="none" stroke="#29235c" points="1307.04,-1097.37 1307.04,-1157.37 1671.04,-1157.37 1671.04,-1097.37 1307.04,-1097.37"/>
<text text-anchor="start" x="1318.04" y="-1118.57" font-family="Helvetica,sans-Serif" font-weight="bold" font-size="32.00" fill="#29235c">id</text>
<text text-anchor="start" x="1342.93" y="-1118.57" font-family="Helvetica,sans-Serif" font-size="32.00" fill="#29235c"> &#160;&#160;&#160;</text>
<text text-anchor="start" x="1626.26" y="-1118.57" font-family="Helvetica,sans-Serif" font-style="italic" font-size="32.00" fill="#29235c">int</text>
<polygon fill="#e7e2dd" stroke="transparent" points="1307.04,-1037.37 1307.04,-1097.37 1671.04,-1097.37 1671.04,-1037.37 1307.04,-1037.37"/>
<polygon fill="none" stroke="#29235c" points="1307.04,-1037.37 1307.04,-1097.37 1671.04,-1097.37 1671.04,-1037.37 1307.04,-1037.37"/>
<text text-anchor="start" x="1318.04" y="-1057.57" font-family="Helvetica,sans-Serif" font-size="32.00" fill="#29235c">name &#160;&#160;&#160;</text>
<text text-anchor="start" x="1514.28" y="-1058.57" font-family="Helvetica,sans-Serif" font-style="italic" font-size="32.00" fill="#29235c">varchar</text>
<text text-anchor="start" x="1620.95" y="-1058.57" font-family="Helvetica,sans-Serif" font-size="32.00" fill="#29235c"> </text>
<text text-anchor="start" x="1629.84" y="-1058.57" font-family="Helvetica,sans-Serif" font-weight="bold" font-size="32.00" fill="#29235c">(!)</text>
<polygon fill="#e7e2dd" stroke="transparent" points="1307.04,-977.37 1307.04,-1037.37 1671.04,-1037.37 1671.04,-977.37 1307.04,-977.37"/>
<polygon fill="none" stroke="#29235c" points="1307.04,-977.37 1307.04,-1037.37 1671.04,-1037.37 1671.04,-977.37 1307.04,-977.37"/>
<text text-anchor="start" x="1318.04" y="-997.57" font-family="Helvetica,sans-Serif" font-size="32.00" fill="#29235c">department_id &#160;&#160;&#160;</text>
<text text-anchor="start" x="1626.26" y="-998.57" font-family="Helvetica,sans-Serif" font-style="italic" font-size="32.00" fill="#29235c">int</text>
<polygon fill="#e7e2dd" stroke="transparent" points="1307.04,-917.37 1307.04,-977.37 1671.04,-977.37 1671.04,-917.37 1307.04,-917.37"/>
<polygon fill="none" stroke="#29235c" points="1307.04,-917.37 1307.04,-977.37 1671.04,-977.37 1671.04,-917.37 1307.04,-917.37"/>
<text text-anchor="start" x="1318.04" y="-937.57" font-family="Helvetica,sans-Serif" font-size="32.00" fill="#29235c">position_id &#160;&#160;&#160;</text>
<text text-anchor="start" x="1626.26" y="-938.57" font-family="Helvetica,sans-Serif" font-style="italic" font-size="32.00" fill="#29235c">int</text>
<polygon fill="#e7e2dd" stroke="transparent" points="1307.04,-857.37 1307.04,-917.37 1671.04,-917.37 1671.04,-857.37 1307.04,-857.37"/>
<polygon fill="none" stroke="#29235c" points="1307.04,-857.37 1307.04,-917.37 1671.04,-917.37 1671.04,-857.37 1307.04,-857.37"/>
<text text-anchor="start" x="1318.04" y="-877.57" font-family="Helvetica,sans-Serif" font-size="32.00" fill="#29235c">level_id &#160;&#160;&#160;</text>
<text text-anchor="start" x="1626.26" y="-878.57" font-family="Helvetica,sans-Serif" font-style="italic" font-size="32.00" fill="#29235c">int</text>
<polygon fill="#e7e2dd" stroke="transparent" points="1307.04,-797.37 1307.04,-857.37 1671.04,-857.37 1671.04,-797.37 1307.04,-797.37"/>
<polygon fill="none" stroke="#29235c" points="1307.04,-797.37 1307.04,-857.37 1671.04,-857.37 1671.04,-797.37 1307.04,-797.37"/>
<text text-anchor="start" x="1318.04" y="-817.57" font-family="Helvetica,sans-Serif" font-size="32.00" fill="#29235c">created_at &#160;&#160;&#160;</text>
<text text-anchor="start" x="1512.48" y="-818.57" font-family="Helvetica,sans-Serif" font-style="italic" font-size="32.00" fill="#29235c">timestamp</text>
<polygon fill="#e7e2dd" stroke="transparent" points="1307.04,-737.37 1307.04,-797.37 1671.04,-797.37 1671.04,-737.37 1307.04,-737.37"/>
<polygon fill="none" stroke="#29235c" points="1307.04,-737.37 1307.04,-797.37 1671.04,-797.37 1671.04,-737.37 1307.04,-737.37"/>
<text text-anchor="start" x="1317.71" y="-757.57" font-family="Helvetica,sans-Serif" font-size="32.00" fill="#29235c">updated_at &#160;&#160;&#160;</text>
<text text-anchor="start" x="1512.76" y="-758.57" font-family="Helvetica,sans-Serif" font-style="italic" font-size="32.00" fill="#29235c">timestamp</text>
<polygon fill="none" stroke="#29235c" stroke-width="2" points="1306.04,-736.37 1306.04,-1218.37 1672.04,-1218.37 1672.04,-736.37 1306.04,-736.37"/>
</g>
<!-- titles&#45;&gt;levels -->
<!-- titles&#45;&gt;levels -->
<g id="edge8" class="edge">
<title>titles:e&#45;&gt;levels:w</title>
<path fill="none" stroke="#29235c" stroke-width="3" d="M1672.04,-887.37C1819.01,-887.37 1717.01,-620.34 1852.31,-607.83"/>
<polygon fill="#29235c" stroke="#29235c" stroke-width="3" points="1852.64,-611.32 1862.47,-607.37 1852.33,-604.32 1852.64,-611.32"/>
<text text-anchor="middle" x="1853.58" y="-616.97" font-family="Helvetica,sans-Serif" font-size="32.00" fill="#29235c">1</text>
<text text-anchor="middle" x="1665.82" y="-896.97" font-family="Helvetica,sans-Serif" font-size="32.00" fill="#29235c">*</text>
</g>
<!-- titles&#45;&gt;positions -->
<!-- titles&#45;&gt;positions -->
<g id="edge6" class="edge">
<title>titles:e&#45;&gt;positions:w</title>
<path fill="none" stroke="#29235c" stroke-width="3" d="M1672.04,-947.37C1784.98,-947.37 1748.44,-1116.64 1852.32,-1126.89"/>
<polygon fill="#29235c" stroke="#29235c" stroke-width="3" points="1852.32,-1130.39 1862.47,-1127.37 1852.65,-1123.4 1852.32,-1130.39"/>
<text text-anchor="middle" x="1853.58" y="-1136.97" font-family="Helvetica,sans-Serif" font-size="32.00" fill="#29235c">1</text>
<text text-anchor="middle" x="1665.82" y="-956.97" font-family="Helvetica,sans-Serif" font-size="32.00" fill="#29235c">*</text>
</g>
<!-- titles&#45;&gt;departments -->
<!-- titles&#45;&gt;departments -->
<g id="edge4" class="edge">
<title>titles:e&#45;&gt;departments:w</title>
<path fill="none" stroke="#29235c" stroke-width="3" d="M1672.04,-1007.37C1844.82,-1007.37 1721.88,-796.97 1749.26,-626.37 1760,-559.42 1734.56,-368.4 1785.26,-323.37 1958.19,-169.77 2131.1,-171.65 2305.69,-323.37 2439.22,-439.41 2246.29,-1100.81 2408.77,-1126.6"/>
<polygon fill="#29235c" stroke="#29235c" stroke-width="3" points="2408.67,-1130.1 2418.9,-1127.37 2409.2,-1123.12 2408.67,-1130.1"/>
<text text-anchor="middle" x="2427.8" y="-1136.97" font-family="Helvetica,sans-Serif" font-size="32.00" fill="#29235c">1</text>
<text text-anchor="middle" x="1665.82" y="-1016.97" font-family="Helvetica,sans-Serif" font-size="32.00" fill="#29235c">*</text>
</g>
<!-- users -->
<g id="users" class="node">
<title>users</title>
<ellipse fill="none" stroke="black" stroke-width="0" cx="874.63" cy="-554.37" rx="318.4" ry="554.24"/>
<polygon fill="#1d71b8" stroke="transparent" points="651.63,-884.37 651.63,-944.37 1097.63,-944.37 1097.63,-884.37 651.63,-884.37"/>
<polygon fill="none" stroke="#29235c" points="651.63,-884.37 651.63,-944.37 1097.63,-944.37 1097.63,-884.37 651.63,-884.37"/>
<text text-anchor="start" x="773.26" y="-905.57" font-family="Helvetica,sans-Serif" font-weight="bold" font-size="32.00" fill="#ffffff"> &#160;&#160;&#160;&#160;&#160;&#160;users &#160;&#160;&#160;&#160;&#160;&#160;</text>
<polygon fill="#e7e2dd" stroke="transparent" points="651.63,-824.37 651.63,-884.37 1097.63,-884.37 1097.63,-824.37 651.63,-824.37"/>
<polygon fill="none" stroke="#29235c" points="651.63,-824.37 651.63,-884.37 1097.63,-884.37 1097.63,-824.37 651.63,-824.37"/>
<text text-anchor="start" x="662.63" y="-845.57" font-family="Helvetica,sans-Serif" font-weight="bold" font-size="32.00" fill="#29235c">id</text>
<text text-anchor="start" x="687.52" y="-845.57" font-family="Helvetica,sans-Serif" font-size="32.00" fill="#29235c"> &#160;&#160;&#160;</text>
<text text-anchor="start" x="1052.85" y="-845.57" font-family="Helvetica,sans-Serif" font-style="italic" font-size="32.00" fill="#29235c">int</text>
<polygon fill="#e7e2dd" stroke="transparent" points="651.63,-764.37 651.63,-824.37 1097.63,-824.37 1097.63,-764.37 651.63,-764.37"/>
<polygon fill="none" stroke="#29235c" points="651.63,-764.37 651.63,-824.37 1097.63,-824.37 1097.63,-764.37 651.63,-764.37"/>
<text text-anchor="start" x="662.63" y="-784.57" font-family="Helvetica,sans-Serif" font-size="32.00" fill="#29235c">title_id &#160;&#160;&#160;</text>
<text text-anchor="start" x="1052.85" y="-785.57" font-family="Helvetica,sans-Serif" font-style="italic" font-size="32.00" fill="#29235c">int</text>
<polygon fill="#e7e2dd" stroke="transparent" points="651.63,-704.37 651.63,-764.37 1097.63,-764.37 1097.63,-704.37 651.63,-704.37"/>
<polygon fill="none" stroke="#29235c" points="651.63,-704.37 651.63,-764.37 1097.63,-764.37 1097.63,-704.37 651.63,-704.37"/>
<text text-anchor="start" x="662.63" y="-724.57" font-family="Helvetica,sans-Serif" font-size="32.00" fill="#29235c">role_id &#160;&#160;&#160;</text>
<text text-anchor="start" x="1052.85" y="-725.57" font-family="Helvetica,sans-Serif" font-style="italic" font-size="32.00" fill="#29235c">int</text>
<polygon fill="#e7e2dd" stroke="transparent" points="651.63,-644.37 651.63,-704.37 1097.63,-704.37 1097.63,-644.37 651.63,-644.37"/>
<polygon fill="none" stroke="#29235c" points="651.63,-644.37 651.63,-704.37 1097.63,-704.37 1097.63,-644.37 651.63,-644.37"/>
<text text-anchor="start" x="662.63" y="-664.57" font-family="Helvetica,sans-Serif" font-size="32.00" fill="#29235c">name &#160;&#160;&#160;</text>
<text text-anchor="start" x="940.87" y="-665.57" font-family="Helvetica,sans-Serif" font-style="italic" font-size="32.00" fill="#29235c">varchar</text>
<text text-anchor="start" x="1047.54" y="-665.57" font-family="Helvetica,sans-Serif" font-size="32.00" fill="#29235c"> </text>
<text text-anchor="start" x="1056.43" y="-665.57" font-family="Helvetica,sans-Serif" font-weight="bold" font-size="32.00" fill="#29235c">(!)</text>
<polygon fill="#e7e2dd" stroke="transparent" points="651.63,-584.37 651.63,-644.37 1097.63,-644.37 1097.63,-584.37 651.63,-584.37"/>
<polygon fill="none" stroke="#29235c" points="651.63,-584.37 651.63,-644.37 1097.63,-644.37 1097.63,-584.37 651.63,-584.37"/>
<text text-anchor="start" x="662.63" y="-604.57" font-family="Helvetica,sans-Serif" font-size="32.00" fill="#29235c">email &#160;&#160;&#160;</text>
<text text-anchor="start" x="940.87" y="-605.57" font-family="Helvetica,sans-Serif" font-style="italic" font-size="32.00" fill="#29235c">varchar</text>
<text text-anchor="start" x="1047.54" y="-605.57" font-family="Helvetica,sans-Serif" font-size="32.00" fill="#29235c"> </text>
<text text-anchor="start" x="1056.43" y="-605.57" font-family="Helvetica,sans-Serif" font-weight="bold" font-size="32.00" fill="#29235c">(!)</text>
<polygon fill="#e7e2dd" stroke="transparent" points="651.63,-524.37 651.63,-584.37 1097.63,-584.37 1097.63,-524.37 651.63,-524.37"/>
<polygon fill="none" stroke="#29235c" points="651.63,-524.37 651.63,-584.37 1097.63,-584.37 1097.63,-524.37 651.63,-524.37"/>
<text text-anchor="start" x="662.44" y="-544.57" font-family="Helvetica,sans-Serif" font-size="32.00" fill="#29235c">email_verified_at &#160;&#160;&#160;</text>
<text text-anchor="start" x="939.35" y="-545.57" font-family="Helvetica,sans-Serif" font-style="italic" font-size="32.00" fill="#29235c">timestamp</text>
<polygon fill="#e7e2dd" stroke="transparent" points="651.63,-464.37 651.63,-524.37 1097.63,-524.37 1097.63,-464.37 651.63,-464.37"/>
<polygon fill="none" stroke="#29235c" points="651.63,-464.37 651.63,-524.37 1097.63,-524.37 1097.63,-464.37 651.63,-464.37"/>
<text text-anchor="start" x="662.63" y="-484.57" font-family="Helvetica,sans-Serif" font-size="32.00" fill="#29235c">password &#160;&#160;&#160;</text>
<text text-anchor="start" x="940.87" y="-485.57" font-family="Helvetica,sans-Serif" font-style="italic" font-size="32.00" fill="#29235c">varchar</text>
<text text-anchor="start" x="1047.54" y="-485.57" font-family="Helvetica,sans-Serif" font-size="32.00" fill="#29235c"> </text>
<text text-anchor="start" x="1056.43" y="-485.57" font-family="Helvetica,sans-Serif" font-weight="bold" font-size="32.00" fill="#29235c">(!)</text>
<polygon fill="#e7e2dd" stroke="transparent" points="651.63,-404.37 651.63,-464.37 1097.63,-464.37 1097.63,-404.37 651.63,-404.37"/>
<polygon fill="none" stroke="#29235c" points="651.63,-404.37 651.63,-464.37 1097.63,-464.37 1097.63,-404.37 651.63,-404.37"/>
<text text-anchor="start" x="662.63" y="-424.57" font-family="Helvetica,sans-Serif" font-size="32.00" fill="#29235c">remember_token &#160;&#160;&#160;</text>
<text text-anchor="start" x="979.96" y="-425.57" font-family="Helvetica,sans-Serif" font-style="italic" font-size="32.00" fill="#29235c">varchar</text>
<polygon fill="#e7e2dd" stroke="transparent" points="651.63,-344.37 651.63,-404.37 1097.63,-404.37 1097.63,-344.37 651.63,-344.37"/>
<polygon fill="none" stroke="#29235c" points="651.63,-344.37 651.63,-404.37 1097.63,-404.37 1097.63,-344.37 651.63,-344.37"/>
<text text-anchor="start" x="662.63" y="-364.57" font-family="Helvetica,sans-Serif" font-size="32.00" fill="#29235c">custom_fields &#160;&#160;&#160;</text>
<text text-anchor="start" x="1027.95" y="-365.57" font-family="Helvetica,sans-Serif" font-style="italic" font-size="32.00" fill="#29235c">json</text>
<polygon fill="#e7e2dd" stroke="transparent" points="651.63,-284.37 651.63,-344.37 1097.63,-344.37 1097.63,-284.37 651.63,-284.37"/>
<polygon fill="none" stroke="#29235c" points="651.63,-284.37 651.63,-344.37 1097.63,-344.37 1097.63,-284.37 651.63,-284.37"/>
<text text-anchor="start" x="662.63" y="-304.57" font-family="Helvetica,sans-Serif" font-size="32.00" fill="#29235c">avatar_url &#160;&#160;&#160;</text>
<text text-anchor="start" x="979.96" y="-305.57" font-family="Helvetica,sans-Serif" font-style="italic" font-size="32.00" fill="#29235c">varchar</text>
<polygon fill="#e7e2dd" stroke="transparent" points="651.63,-224.37 651.63,-284.37 1097.63,-284.37 1097.63,-224.37 651.63,-224.37"/>
<polygon fill="none" stroke="#29235c" points="651.63,-224.37 651.63,-284.37 1097.63,-284.37 1097.63,-224.37 651.63,-224.37"/>
<text text-anchor="start" x="662.63" y="-244.57" font-family="Helvetica,sans-Serif" font-size="32.00" fill="#29235c">created_at &#160;&#160;&#160;</text>
<text text-anchor="start" x="939.07" y="-245.57" font-family="Helvetica,sans-Serif" font-style="italic" font-size="32.00" fill="#29235c">timestamp</text>
<polygon fill="#e7e2dd" stroke="transparent" points="651.63,-164.37 651.63,-224.37 1097.63,-224.37 1097.63,-164.37 651.63,-164.37"/>
<polygon fill="none" stroke="#29235c" points="651.63,-164.37 651.63,-224.37 1097.63,-224.37 1097.63,-164.37 651.63,-164.37"/>
<text text-anchor="start" x="662.63" y="-184.57" font-family="Helvetica,sans-Serif" font-size="32.00" fill="#29235c">updated_at &#160;&#160;&#160;</text>
<text text-anchor="start" x="939.07" y="-185.57" font-family="Helvetica,sans-Serif" font-style="italic" font-size="32.00" fill="#29235c">timestamp</text>
<polygon fill="none" stroke="#29235c" stroke-width="2" points="650.63,-163.37 650.63,-945.37 1098.63,-945.37 1098.63,-163.37 650.63,-163.37"/>
</g>
<!-- users&#45;&gt;roles -->
<!-- users&#45;&gt;roles -->
<g id="edge12" class="edge">
<title>users:e&#45;&gt;roles:w</title>
<path fill="none" stroke="#29235c" stroke-width="3" d="M1098.63,-734.37C1247.09,-734.37 1158.41,-474.97 1295.76,-462.81"/>
<polygon fill="#29235c" stroke="#29235c" stroke-width="3" points="1296.2,-466.3 1306.04,-462.37 1295.9,-459.3 1296.2,-466.3"/>
<text text-anchor="middle" x="1297.15" y="-433.57" font-family="Helvetica,sans-Serif" font-size="32.00" fill="#29235c">1</text>
<text text-anchor="middle" x="1092.41" y="-743.97" font-family="Helvetica,sans-Serif" font-size="32.00" fill="#29235c">*</text>
</g>
<!-- users&#45;&gt;titles -->
<!-- users&#45;&gt;titles -->
<g id="edge10" class="edge">
<title>users:e&#45;&gt;titles:w</title>
<path fill="none" stroke="#29235c" stroke-width="3" d="M1098.63,-794.37C1269.41,-794.37 1137.34,-1113.85 1295.71,-1126.96"/>
<polygon fill="#29235c" stroke="#29235c" stroke-width="3" points="1295.91,-1130.47 1306.04,-1127.37 1296.19,-1123.47 1295.91,-1130.47"/>
<text text-anchor="middle" x="1297.15" y="-1136.97" font-family="Helvetica,sans-Serif" font-size="32.00" fill="#29235c">1</text>
<text text-anchor="middle" x="1089.73" y="-803.97" font-family="Helvetica,sans-Serif" font-size="32.00" fill="#29235c">1</text>
</g>
<!-- activity_logs -->
<g id="activity_logs" class="node">
<title>activity_logs</title>
<ellipse fill="none" stroke="black" stroke-width="0" cx="260.22" cy="-644.37" rx="260.43" ry="427.19"/>
<polygon fill="#1d71b8" stroke="transparent" points="78.22,-884.37 78.22,-944.37 442.22,-944.37 442.22,-884.37 78.22,-884.37"/>
<polygon fill="none" stroke="#29235c" points="78.22,-884.37 78.22,-944.37 442.22,-944.37 442.22,-884.37 78.22,-884.37"/>
<text text-anchor="start" x="110.84" y="-905.57" font-family="Helvetica,sans-Serif" font-weight="bold" font-size="32.00" fill="#ffffff"> &#160;&#160;&#160;&#160;&#160;&#160;activity_logs &#160;&#160;&#160;&#160;&#160;&#160;</text>
<polygon fill="#e7e2dd" stroke="transparent" points="78.22,-824.37 78.22,-884.37 442.22,-884.37 442.22,-824.37 78.22,-824.37"/>
<polygon fill="none" stroke="#29235c" points="78.22,-824.37 78.22,-884.37 442.22,-884.37 442.22,-824.37 78.22,-824.37"/>
<text text-anchor="start" x="89.22" y="-845.57" font-family="Helvetica,sans-Serif" font-weight="bold" font-size="32.00" fill="#29235c">id</text>
<text text-anchor="start" x="114.1" y="-845.57" font-family="Helvetica,sans-Serif" font-size="32.00" fill="#29235c"> &#160;&#160;&#160;</text>
<text text-anchor="start" x="397.43" y="-845.57" font-family="Helvetica,sans-Serif" font-style="italic" font-size="32.00" fill="#29235c">int</text>
<polygon fill="#e7e2dd" stroke="transparent" points="78.22,-764.37 78.22,-824.37 442.22,-824.37 442.22,-764.37 78.22,-764.37"/>
<polygon fill="none" stroke="#29235c" points="78.22,-764.37 78.22,-824.37 442.22,-824.37 442.22,-764.37 78.22,-764.37"/>
<text text-anchor="start" x="89.22" y="-784.57" font-family="Helvetica,sans-Serif" font-size="32.00" fill="#29235c">user_id &#160;&#160;&#160;</text>
<text text-anchor="start" x="397.43" y="-785.57" font-family="Helvetica,sans-Serif" font-style="italic" font-size="32.00" fill="#29235c">int</text>
<polygon fill="#e7e2dd" stroke="transparent" points="78.22,-704.37 78.22,-764.37 442.22,-764.37 442.22,-704.37 78.22,-704.37"/>
<polygon fill="none" stroke="#29235c" points="78.22,-704.37 78.22,-764.37 442.22,-764.37 442.22,-704.37 78.22,-704.37"/>
<text text-anchor="start" x="89.22" y="-724.57" font-family="Helvetica,sans-Serif" font-size="32.00" fill="#29235c">table_ref &#160;&#160;&#160;</text>
<text text-anchor="start" x="324.54" y="-725.57" font-family="Helvetica,sans-Serif" font-style="italic" font-size="32.00" fill="#29235c">varchar</text>
<polygon fill="#e7e2dd" stroke="transparent" points="78.22,-644.37 78.22,-704.37 442.22,-704.37 442.22,-644.37 78.22,-644.37"/>
<polygon fill="none" stroke="#29235c" points="78.22,-644.37 78.22,-704.37 442.22,-704.37 442.22,-644.37 78.22,-644.37"/>
<text text-anchor="start" x="89.22" y="-664.57" font-family="Helvetica,sans-Serif" font-size="32.00" fill="#29235c">action &#160;&#160;&#160;</text>
<text text-anchor="start" x="345.86" y="-665.57" font-family="Helvetica,sans-Serif" font-style="italic" font-size="32.00" fill="#29235c">action</text>
<polygon fill="#e7e2dd" stroke="transparent" points="78.22,-584.37 78.22,-644.37 442.22,-644.37 442.22,-584.37 78.22,-584.37"/>
<polygon fill="none" stroke="#29235c" points="78.22,-584.37 78.22,-644.37 442.22,-644.37 442.22,-584.37 78.22,-584.37"/>
<text text-anchor="start" x="89.22" y="-604.57" font-family="Helvetica,sans-Serif" font-size="32.00" fill="#29235c">message &#160;&#160;&#160;</text>
<text text-anchor="start" x="324.54" y="-605.57" font-family="Helvetica,sans-Serif" font-style="italic" font-size="32.00" fill="#29235c">varchar</text>
<polygon fill="#e7e2dd" stroke="transparent" points="78.22,-524.37 78.22,-584.37 442.22,-584.37 442.22,-524.37 78.22,-524.37"/>
<polygon fill="none" stroke="#29235c" points="78.22,-524.37 78.22,-584.37 442.22,-584.37 442.22,-524.37 78.22,-524.37"/>
<text text-anchor="start" x="89.22" y="-544.57" font-family="Helvetica,sans-Serif" font-size="32.00" fill="#29235c">device &#160;&#160;&#160;</text>
<text text-anchor="start" x="324.54" y="-545.57" font-family="Helvetica,sans-Serif" font-style="italic" font-size="32.00" fill="#29235c">varchar</text>
<polygon fill="#e7e2dd" stroke="transparent" points="78.22,-464.37 78.22,-524.37 442.22,-524.37 442.22,-464.37 78.22,-464.37"/>
<polygon fill="none" stroke="#29235c" points="78.22,-464.37 78.22,-524.37 442.22,-524.37 442.22,-464.37 78.22,-464.37"/>
<text text-anchor="start" x="89.22" y="-484.57" font-family="Helvetica,sans-Serif" font-size="32.00" fill="#29235c">origins &#160;&#160;&#160;</text>
<text text-anchor="start" x="324.54" y="-485.57" font-family="Helvetica,sans-Serif" font-style="italic" font-size="32.00" fill="#29235c">varchar</text>
<polygon fill="#e7e2dd" stroke="transparent" points="78.22,-404.37 78.22,-464.37 442.22,-464.37 442.22,-404.37 78.22,-404.37"/>
<polygon fill="none" stroke="#29235c" points="78.22,-404.37 78.22,-464.37 442.22,-464.37 442.22,-404.37 78.22,-404.37"/>
<text text-anchor="start" x="89.22" y="-424.57" font-family="Helvetica,sans-Serif" font-size="32.00" fill="#29235c">created_at &#160;&#160;&#160;</text>
<text text-anchor="start" x="283.66" y="-425.57" font-family="Helvetica,sans-Serif" font-style="italic" font-size="32.00" fill="#29235c">timestamp</text>
<polygon fill="#e7e2dd" stroke="transparent" points="78.22,-344.37 78.22,-404.37 442.22,-404.37 442.22,-344.37 78.22,-344.37"/>
<polygon fill="none" stroke="#29235c" points="78.22,-344.37 78.22,-404.37 442.22,-404.37 442.22,-344.37 78.22,-344.37"/>
<text text-anchor="start" x="88.88" y="-364.57" font-family="Helvetica,sans-Serif" font-size="32.00" fill="#29235c">updated_at &#160;&#160;&#160;</text>
<text text-anchor="start" x="283.94" y="-365.57" font-family="Helvetica,sans-Serif" font-style="italic" font-size="32.00" fill="#29235c">timestamp</text>
<polygon fill="none" stroke="#29235c" stroke-width="2" points="77.22,-343.37 77.22,-945.37 443.22,-945.37 443.22,-343.37 77.22,-343.37"/>
</g>
<!-- activity_logs&#45;&gt;users -->
<!-- activity_logs&#45;&gt;users -->
<g id="edge14" class="edge">
<title>activity_logs:e&#45;&gt;users:w</title>
<path fill="none" stroke="#29235c" stroke-width="3" d="M443.22,-794.37C535.71,-794.37 553.44,-850.11 640.53,-854.14"/>
<polygon fill="#29235c" stroke="#29235c" stroke-width="3" points="640.55,-857.64 650.63,-854.37 640.71,-850.65 640.55,-857.64"/>
<text text-anchor="middle" x="641.73" y="-863.97" font-family="Helvetica,sans-Serif" font-size="32.00" fill="#29235c">1</text>
<text text-anchor="middle" x="449.44" y="-803.97" font-family="Helvetica,sans-Serif" font-size="32.00" fill="#29235c">*</text>
</g>
</g>
</svg>
