<?xml version="1.0" encoding="UTF-8" standalone="no"?>
<!DOCTYPE svg PUBLIC "-//W3C//DTD SVG 1.1//EN"
 "http://www.w3.org/Graphics/SVG/1.1/DTD/svg11.dtd">
<!-- Generated by graphviz version 2.47.0 (20210316.0004)
 -->
<!-- Title: dbml Pages: 1 -->
<svg width="1228pt" height="1394pt"
 viewBox="0.00 0.00 1227.70 1394.48" xmlns="http://www.w3.org/2000/svg" xmlns:xlink="http://www.w3.org/1999/xlink">
<g id="graph0" class="graph" transform="scale(1 1) rotate(0) translate(4 1390.48)">
<title>dbml</title>
<!-- squads -->
<g id="squads" class="node">
<title>squads</title>
<ellipse fill="none" stroke="black" stroke-width="0" cx="901.5" cy="-214.96" rx="260.43" ry="214.92"/>
<polygon fill="#1d71b8" stroke="transparent" points="719.5,-304.96 719.5,-364.96 1083.5,-364.96 1083.5,-304.96 719.5,-304.96"/>
<polygon fill="none" stroke="#29235c" points="719.5,-304.96 719.5,-364.96 1083.5,-364.96 1083.5,-304.96 719.5,-304.96"/>
<text text-anchor="start" x="787.67" y="-326.16" font-family="Helvetica,sans-Serif" font-weight="bold" font-size="32.00" fill="#ffffff"> &#160;&#160;&#160;&#160;&#160;&#160;squads &#160;&#160;&#160;&#160;&#160;&#160;</text>
<polygon fill="#e7e2dd" stroke="transparent" points="719.5,-244.96 719.5,-304.96 1083.5,-304.96 1083.5,-244.96 719.5,-244.96"/>
<polygon fill="none" stroke="#29235c" points="719.5,-244.96 719.5,-304.96 1083.5,-304.96 1083.5,-244.96 719.5,-244.96"/>
<text text-anchor="start" x="730.5" y="-266.16" font-family="Helvetica,sans-Serif" font-weight="bold" font-size="32.00" fill="#29235c">id</text>
<text text-anchor="start" x="755.39" y="-266.16" font-family="Helvetica,sans-Serif" font-size="32.00" fill="#29235c"> &#160;&#160;&#160;</text>
<text text-anchor="start" x="1038.72" y="-266.16" font-family="Helvetica,sans-Serif" font-style="italic" font-size="32.00" fill="#29235c">int</text>
<polygon fill="#e7e2dd" stroke="transparent" points="719.5,-184.96 719.5,-244.96 1083.5,-244.96 1083.5,-184.96 719.5,-184.96"/>
<polygon fill="none" stroke="#29235c" points="719.5,-184.96 719.5,-244.96 1083.5,-244.96 1083.5,-184.96 719.5,-184.96"/>
<text text-anchor="start" x="730.5" y="-205.16" font-family="Helvetica,sans-Serif" font-size="32.00" fill="#29235c">nama &#160;&#160;&#160;</text>
<text text-anchor="start" x="926.74" y="-206.16" font-family="Helvetica,sans-Serif" font-style="italic" font-size="32.00" fill="#29235c">varchar</text>
<text text-anchor="start" x="1033.41" y="-206.16" font-family="Helvetica,sans-Serif" font-size="32.00" fill="#29235c"> </text>
<text text-anchor="start" x="1042.3" y="-206.16" font-family="Helvetica,sans-Serif" font-weight="bold" font-size="32.00" fill="#29235c">(!)</text>
<polygon fill="#e7e2dd" stroke="transparent" points="719.5,-124.96 719.5,-184.96 1083.5,-184.96 1083.5,-124.96 719.5,-124.96"/>
<polygon fill="none" stroke="#29235c" points="719.5,-124.96 719.5,-184.96 1083.5,-184.96 1083.5,-124.96 719.5,-124.96"/>
<text text-anchor="start" x="730.5" y="-145.16" font-family="Helvetica,sans-Serif" font-size="32.00" fill="#29235c">created_at &#160;&#160;&#160;</text>
<text text-anchor="start" x="924.94" y="-146.16" font-family="Helvetica,sans-Serif" font-style="italic" font-size="32.00" fill="#29235c">timestamp</text>
<polygon fill="#e7e2dd" stroke="transparent" points="719.5,-64.96 719.5,-124.96 1083.5,-124.96 1083.5,-64.96 719.5,-64.96"/>
<polygon fill="none" stroke="#29235c" points="719.5,-64.96 719.5,-124.96 1083.5,-124.96 1083.5,-64.96 719.5,-64.96"/>
<text text-anchor="start" x="730.17" y="-85.16" font-family="Helvetica,sans-Serif" font-size="32.00" fill="#29235c">updated_at &#160;&#160;&#160;</text>
<text text-anchor="start" x="925.22" y="-86.16" font-family="Helvetica,sans-Serif" font-style="italic" font-size="32.00" fill="#29235c">timestamp</text>
<polygon fill="none" stroke="#29235c" stroke-width="2" points="718.5,-63.96 718.5,-365.96 1084.5,-365.96 1084.5,-63.96 718.5,-63.96"/>
</g>
<!-- users -->
<g id="users" class="node">
<title>users</title>
<ellipse fill="none" stroke="black" stroke-width="0" cx="901.5" cy="-916.96" rx="318.4" ry="469.54"/>
<polygon fill="#1d71b8" stroke="transparent" points="678.5,-1186.96 678.5,-1246.96 1124.5,-1246.96 1124.5,-1186.96 678.5,-1186.96"/>
<polygon fill="none" stroke="#29235c" points="678.5,-1186.96 678.5,-1246.96 1124.5,-1246.96 1124.5,-1186.96 678.5,-1186.96"/>
<text text-anchor="start" x="800.13" y="-1208.16" font-family="Helvetica,sans-Serif" font-weight="bold" font-size="32.00" fill="#ffffff"> &#160;&#160;&#160;&#160;&#160;&#160;users &#160;&#160;&#160;&#160;&#160;&#160;</text>
<polygon fill="#e7e2dd" stroke="transparent" points="678.5,-1126.96 678.5,-1186.96 1124.5,-1186.96 1124.5,-1126.96 678.5,-1126.96"/>
<polygon fill="none" stroke="#29235c" points="678.5,-1126.96 678.5,-1186.96 1124.5,-1186.96 1124.5,-1126.96 678.5,-1126.96"/>
<text text-anchor="start" x="689.5" y="-1148.16" font-family="Helvetica,sans-Serif" font-weight="bold" font-size="32.00" fill="#29235c">id</text>
<text text-anchor="start" x="714.39" y="-1148.16" font-family="Helvetica,sans-Serif" font-size="32.00" fill="#29235c"> &#160;&#160;&#160;</text>
<text text-anchor="start" x="1079.72" y="-1148.16" font-family="Helvetica,sans-Serif" font-style="italic" font-size="32.00" fill="#29235c">int</text>
<polygon fill="#e7e2dd" stroke="transparent" points="678.5,-1066.96 678.5,-1126.96 1124.5,-1126.96 1124.5,-1066.96 678.5,-1066.96"/>
<polygon fill="none" stroke="#29235c" points="678.5,-1066.96 678.5,-1126.96 1124.5,-1126.96 1124.5,-1066.96 678.5,-1066.96"/>
<text text-anchor="start" x="689.5" y="-1087.16" font-family="Helvetica,sans-Serif" font-size="32.00" fill="#29235c">name &#160;&#160;&#160;</text>
<text text-anchor="start" x="967.74" y="-1088.16" font-family="Helvetica,sans-Serif" font-style="italic" font-size="32.00" fill="#29235c">varchar</text>
<text text-anchor="start" x="1074.41" y="-1088.16" font-family="Helvetica,sans-Serif" font-size="32.00" fill="#29235c"> </text>
<text text-anchor="start" x="1083.3" y="-1088.16" font-family="Helvetica,sans-Serif" font-weight="bold" font-size="32.00" fill="#29235c">(!)</text>
<polygon fill="#e7e2dd" stroke="transparent" points="678.5,-1006.96 678.5,-1066.96 1124.5,-1066.96 1124.5,-1006.96 678.5,-1006.96"/>
<polygon fill="none" stroke="#29235c" points="678.5,-1006.96 678.5,-1066.96 1124.5,-1066.96 1124.5,-1006.96 678.5,-1006.96"/>
<text text-anchor="start" x="689.5" y="-1027.16" font-family="Helvetica,sans-Serif" font-size="32.00" fill="#29235c">email &#160;&#160;&#160;</text>
<text text-anchor="start" x="967.74" y="-1028.16" font-family="Helvetica,sans-Serif" font-style="italic" font-size="32.00" fill="#29235c">varchar</text>
<text text-anchor="start" x="1074.41" y="-1028.16" font-family="Helvetica,sans-Serif" font-size="32.00" fill="#29235c"> </text>
<text text-anchor="start" x="1083.3" y="-1028.16" font-family="Helvetica,sans-Serif" font-weight="bold" font-size="32.00" fill="#29235c">(!)</text>
<polygon fill="#e7e2dd" stroke="transparent" points="678.5,-946.96 678.5,-1006.96 1124.5,-1006.96 1124.5,-946.96 678.5,-946.96"/>
<polygon fill="none" stroke="#29235c" points="678.5,-946.96 678.5,-1006.96 1124.5,-1006.96 1124.5,-946.96 678.5,-946.96"/>
<text text-anchor="start" x="689.31" y="-967.16" font-family="Helvetica,sans-Serif" font-size="32.00" fill="#29235c">email_verified_at &#160;&#160;&#160;</text>
<text text-anchor="start" x="966.22" y="-968.16" font-family="Helvetica,sans-Serif" font-style="italic" font-size="32.00" fill="#29235c">timestamp</text>
<polygon fill="#e7e2dd" stroke="transparent" points="678.5,-886.96 678.5,-946.96 1124.5,-946.96 1124.5,-886.96 678.5,-886.96"/>
<polygon fill="none" stroke="#29235c" points="678.5,-886.96 678.5,-946.96 1124.5,-946.96 1124.5,-886.96 678.5,-886.96"/>
<text text-anchor="start" x="689.5" y="-907.16" font-family="Helvetica,sans-Serif" font-size="32.00" fill="#29235c">password &#160;&#160;&#160;</text>
<text text-anchor="start" x="967.74" y="-908.16" font-family="Helvetica,sans-Serif" font-style="italic" font-size="32.00" fill="#29235c">varchar</text>
<text text-anchor="start" x="1074.41" y="-908.16" font-family="Helvetica,sans-Serif" font-size="32.00" fill="#29235c"> </text>
<text text-anchor="start" x="1083.3" y="-908.16" font-family="Helvetica,sans-Serif" font-weight="bold" font-size="32.00" fill="#29235c">(!)</text>
<polygon fill="#e7e2dd" stroke="transparent" points="678.5,-826.96 678.5,-886.96 1124.5,-886.96 1124.5,-826.96 678.5,-826.96"/>
<polygon fill="none" stroke="#29235c" points="678.5,-826.96 678.5,-886.96 1124.5,-886.96 1124.5,-826.96 678.5,-826.96"/>
<text text-anchor="start" x="689.5" y="-847.16" font-family="Helvetica,sans-Serif" font-size="32.00" fill="#29235c">remember_token &#160;&#160;&#160;</text>
<text text-anchor="start" x="1006.83" y="-848.16" font-family="Helvetica,sans-Serif" font-style="italic" font-size="32.00" fill="#29235c">varchar</text>
<polygon fill="#e7e2dd" stroke="transparent" points="678.5,-766.96 678.5,-826.96 1124.5,-826.96 1124.5,-766.96 678.5,-766.96"/>
<polygon fill="none" stroke="#29235c" points="678.5,-766.96 678.5,-826.96 1124.5,-826.96 1124.5,-766.96 678.5,-766.96"/>
<text text-anchor="start" x="689.5" y="-787.16" font-family="Helvetica,sans-Serif" font-size="32.00" fill="#29235c">custom_fields &#160;&#160;&#160;</text>
<text text-anchor="start" x="1054.82" y="-788.16" font-family="Helvetica,sans-Serif" font-style="italic" font-size="32.00" fill="#29235c">json</text>
<polygon fill="#e7e2dd" stroke="transparent" points="678.5,-706.96 678.5,-766.96 1124.5,-766.96 1124.5,-706.96 678.5,-706.96"/>
<polygon fill="none" stroke="#29235c" points="678.5,-706.96 678.5,-766.96 1124.5,-766.96 1124.5,-706.96 678.5,-706.96"/>
<text text-anchor="start" x="689.5" y="-727.16" font-family="Helvetica,sans-Serif" font-size="32.00" fill="#29235c">avatar_url &#160;&#160;&#160;</text>
<text text-anchor="start" x="1006.83" y="-728.16" font-family="Helvetica,sans-Serif" font-style="italic" font-size="32.00" fill="#29235c">varchar</text>
<polygon fill="#e7e2dd" stroke="transparent" points="678.5,-646.96 678.5,-706.96 1124.5,-706.96 1124.5,-646.96 678.5,-646.96"/>
<polygon fill="none" stroke="#29235c" points="678.5,-646.96 678.5,-706.96 1124.5,-706.96 1124.5,-646.96 678.5,-646.96"/>
<text text-anchor="start" x="689.5" y="-667.16" font-family="Helvetica,sans-Serif" font-size="32.00" fill="#29235c">created_at &#160;&#160;&#160;</text>
<text text-anchor="start" x="965.94" y="-668.16" font-family="Helvetica,sans-Serif" font-style="italic" font-size="32.00" fill="#29235c">timestamp</text>
<polygon fill="#e7e2dd" stroke="transparent" points="678.5,-586.96 678.5,-646.96 1124.5,-646.96 1124.5,-586.96 678.5,-586.96"/>
<polygon fill="none" stroke="#29235c" points="678.5,-586.96 678.5,-646.96 1124.5,-646.96 1124.5,-586.96 678.5,-586.96"/>
<text text-anchor="start" x="689.5" y="-607.16" font-family="Helvetica,sans-Serif" font-size="32.00" fill="#29235c">updated_at &#160;&#160;&#160;</text>
<text text-anchor="start" x="965.94" y="-608.16" font-family="Helvetica,sans-Serif" font-style="italic" font-size="32.00" fill="#29235c">timestamp</text>
<polygon fill="none" stroke="#29235c" stroke-width="2" points="677.5,-585.96 677.5,-1247.96 1125.5,-1247.96 1125.5,-585.96 677.5,-585.96"/>
</g>
<!-- anggota_squads -->
<g id="anggota_squads" class="node">
<title>anggota_squads</title>
<ellipse fill="none" stroke="black" stroke-width="0" cx="273.65" cy="-745.96" rx="273.8" ry="172.57"/>
<polygon fill="#1d71b8" stroke="transparent" points="82.65,-805.96 82.65,-865.96 465.65,-865.96 465.65,-805.96 82.65,-805.96"/>
<polygon fill="none" stroke="#29235c" points="82.65,-805.96 82.65,-865.96 465.65,-865.96 465.65,-805.96 82.65,-805.96"/>
<text text-anchor="start" x="93.62" y="-827.16" font-family="Helvetica,sans-Serif" font-weight="bold" font-size="32.00" fill="#ffffff"> &#160;&#160;&#160;&#160;&#160;&#160;anggota_squads &#160;&#160;&#160;&#160;&#160;&#160;</text>
<polygon fill="#e7e2dd" stroke="transparent" points="82.65,-745.96 82.65,-805.96 465.65,-805.96 465.65,-745.96 82.65,-745.96"/>
<polygon fill="none" stroke="#29235c" points="82.65,-745.96 82.65,-805.96 465.65,-805.96 465.65,-745.96 82.65,-745.96"/>
<text text-anchor="start" x="93.65" y="-767.16" font-family="Helvetica,sans-Serif" font-weight="bold" font-size="32.00" fill="#29235c">id</text>
<text text-anchor="start" x="118.54" y="-767.16" font-family="Helvetica,sans-Serif" font-size="32.00" fill="#29235c"> &#160;&#160;&#160;</text>
<text text-anchor="start" x="420.87" y="-767.16" font-family="Helvetica,sans-Serif" font-style="italic" font-size="32.00" fill="#29235c">int</text>
<polygon fill="#e7e2dd" stroke="transparent" points="82.65,-685.96 82.65,-745.96 465.65,-745.96 465.65,-685.96 82.65,-685.96"/>
<polygon fill="none" stroke="#29235c" points="82.65,-685.96 82.65,-745.96 465.65,-745.96 465.65,-685.96 82.65,-685.96"/>
<text text-anchor="start" x="93.65" y="-706.16" font-family="Helvetica,sans-Serif" font-size="32.00" fill="#29235c">user_id &#160;&#160;&#160;</text>
<text text-anchor="start" x="420.87" y="-707.16" font-family="Helvetica,sans-Serif" font-style="italic" font-size="32.00" fill="#29235c">int</text>
<polygon fill="#e7e2dd" stroke="transparent" points="82.65,-625.96 82.65,-685.96 465.65,-685.96 465.65,-625.96 82.65,-625.96"/>
<polygon fill="none" stroke="#29235c" points="82.65,-625.96 82.65,-685.96 465.65,-685.96 465.65,-625.96 82.65,-625.96"/>
<text text-anchor="start" x="93.65" y="-646.16" font-family="Helvetica,sans-Serif" font-size="32.00" fill="#29235c">squad_id &#160;&#160;&#160;</text>
<text text-anchor="start" x="420.87" y="-647.16" font-family="Helvetica,sans-Serif" font-style="italic" font-size="32.00" fill="#29235c">int</text>
<polygon fill="none" stroke="#29235c" stroke-width="2" points="81.15,-624.96 81.15,-866.96 466.15,-866.96 466.15,-624.96 81.15,-624.96"/>
</g>
<!-- anggota_squads&#45;&gt;squads -->
<!-- anggota_squads&#45;&gt;squads -->
<g id="edge4" class="edge">
<title>anggota_squads:e&#45;&gt;squads:w</title>
<path fill="none" stroke="#29235c" stroke-width="3" d="M466.65,-655.96C576.54,-655.96 521.99,-529.16 583.3,-437.96 633.86,-362.75 625.14,-281.25 708.45,-275.31"/>
<polygon fill="#29235c" stroke="#29235c" stroke-width="3" points="708.63,-278.8 718.5,-274.96 708.38,-271.81 708.63,-278.8"/>
<text text-anchor="middle" x="709.6" y="-246.16" font-family="Helvetica,sans-Serif" font-size="32.00" fill="#29235c">1</text>
<text text-anchor="middle" x="460.43" y="-627.16" font-family="Helvetica,sans-Serif" font-size="32.00" fill="#29235c">*</text>
</g>
<!-- anggota_squads&#45;&gt;users -->
<!-- anggota_squads&#45;&gt;users -->
<g id="edge2" class="edge">
<title>anggota_squads:e&#45;&gt;users:w</title>
<path fill="none" stroke="#29235c" stroke-width="3" d="M466.65,-715.96C680.4,-715.96 467.34,-1142.86 667.34,-1156.62"/>
<polygon fill="#29235c" stroke="#29235c" stroke-width="3" points="667.39,-1160.12 677.5,-1156.96 667.62,-1153.13 667.39,-1160.12"/>
<text text-anchor="middle" x="668.6" y="-1166.56" font-family="Helvetica,sans-Serif" font-size="32.00" fill="#29235c">1</text>
<text text-anchor="middle" x="460.43" y="-687.16" font-family="Helvetica,sans-Serif" font-size="32.00" fill="#29235c">*</text>
</g>
</g>
</svg>
