<?xml version="1.0" encoding="UTF-8" standalone="no"?>
<!DOCTYPE svg PUBLIC "-//W3C//DTD SVG 1.1//EN"
 "http://www.w3.org/Graphics/SVG/1.1/DTD/svg11.dtd">
<!-- Generated by graphviz version 2.47.0 (20210316.0004)
 -->
<!-- Title: dbml Pages: 1 -->
<svg width="1139pt" height="1480pt"
 viewBox="0.00 0.00 1138.60 1479.91" xmlns="http://www.w3.org/2000/svg" xmlns:xlink="http://www.w3.org/1999/xlink">
<g id="graph0" class="graph" transform="scale(1 1) rotate(0) translate(4 1475.91)">
<title>dbml</title>
<!-- users -->
<g id="users" class="node">
<title>users</title>
<ellipse fill="none" stroke="black" stroke-width="0" cx="812.4" cy="-469.52" rx="318.4" ry="469.54"/>
<polygon fill="#1d71b8" stroke="transparent" points="589.4,-739.52 589.4,-799.52 1035.4,-799.52 1035.4,-739.52 589.4,-739.52"/>
<polygon fill="none" stroke="#29235c" points="589.4,-739.52 589.4,-799.52 1035.4,-799.52 1035.4,-739.52 589.4,-739.52"/>
<text text-anchor="start" x="711.04" y="-760.72" font-family="Helvetica,sans-Serif" font-weight="bold" font-size="32.00" fill="#ffffff"> &#160;&#160;&#160;&#160;&#160;&#160;users &#160;&#160;&#160;&#160;&#160;&#160;</text>
<polygon fill="#e7e2dd" stroke="transparent" points="589.4,-679.52 589.4,-739.52 1035.4,-739.52 1035.4,-679.52 589.4,-679.52"/>
<polygon fill="none" stroke="#29235c" points="589.4,-679.52 589.4,-739.52 1035.4,-739.52 1035.4,-679.52 589.4,-679.52"/>
<text text-anchor="start" x="600.4" y="-700.72" font-family="Helvetica,sans-Serif" font-weight="bold" font-size="32.00" fill="#29235c">id</text>
<text text-anchor="start" x="625.29" y="-700.72" font-family="Helvetica,sans-Serif" font-size="32.00" fill="#29235c"> &#160;&#160;&#160;</text>
<text text-anchor="start" x="990.62" y="-700.72" font-family="Helvetica,sans-Serif" font-style="italic" font-size="32.00" fill="#29235c">int</text>
<polygon fill="#e7e2dd" stroke="transparent" points="589.4,-619.52 589.4,-679.52 1035.4,-679.52 1035.4,-619.52 589.4,-619.52"/>
<polygon fill="none" stroke="#29235c" points="589.4,-619.52 589.4,-679.52 1035.4,-679.52 1035.4,-619.52 589.4,-619.52"/>
<text text-anchor="start" x="600.4" y="-639.72" font-family="Helvetica,sans-Serif" font-size="32.00" fill="#29235c">name &#160;&#160;&#160;</text>
<text text-anchor="start" x="878.64" y="-640.72" font-family="Helvetica,sans-Serif" font-style="italic" font-size="32.00" fill="#29235c">varchar</text>
<text text-anchor="start" x="985.31" y="-640.72" font-family="Helvetica,sans-Serif" font-size="32.00" fill="#29235c"> </text>
<text text-anchor="start" x="994.2" y="-640.72" font-family="Helvetica,sans-Serif" font-weight="bold" font-size="32.00" fill="#29235c">(!)</text>
<polygon fill="#e7e2dd" stroke="transparent" points="589.4,-559.52 589.4,-619.52 1035.4,-619.52 1035.4,-559.52 589.4,-559.52"/>
<polygon fill="none" stroke="#29235c" points="589.4,-559.52 589.4,-619.52 1035.4,-619.52 1035.4,-559.52 589.4,-559.52"/>
<text text-anchor="start" x="600.4" y="-579.72" font-family="Helvetica,sans-Serif" font-size="32.00" fill="#29235c">email &#160;&#160;&#160;</text>
<text text-anchor="start" x="878.64" y="-580.72" font-family="Helvetica,sans-Serif" font-style="italic" font-size="32.00" fill="#29235c">varchar</text>
<text text-anchor="start" x="985.31" y="-580.72" font-family="Helvetica,sans-Serif" font-size="32.00" fill="#29235c"> </text>
<text text-anchor="start" x="994.2" y="-580.72" font-family="Helvetica,sans-Serif" font-weight="bold" font-size="32.00" fill="#29235c">(!)</text>
<polygon fill="#e7e2dd" stroke="transparent" points="589.4,-499.52 589.4,-559.52 1035.4,-559.52 1035.4,-499.52 589.4,-499.52"/>
<polygon fill="none" stroke="#29235c" points="589.4,-499.52 589.4,-559.52 1035.4,-559.52 1035.4,-499.52 589.4,-499.52"/>
<text text-anchor="start" x="600.22" y="-519.72" font-family="Helvetica,sans-Serif" font-size="32.00" fill="#29235c">email_verified_at &#160;&#160;&#160;</text>
<text text-anchor="start" x="877.12" y="-520.72" font-family="Helvetica,sans-Serif" font-style="italic" font-size="32.00" fill="#29235c">timestamp</text>
<polygon fill="#e7e2dd" stroke="transparent" points="589.4,-439.52 589.4,-499.52 1035.4,-499.52 1035.4,-439.52 589.4,-439.52"/>
<polygon fill="none" stroke="#29235c" points="589.4,-439.52 589.4,-499.52 1035.4,-499.52 1035.4,-439.52 589.4,-439.52"/>
<text text-anchor="start" x="600.4" y="-459.72" font-family="Helvetica,sans-Serif" font-size="32.00" fill="#29235c">password &#160;&#160;&#160;</text>
<text text-anchor="start" x="878.64" y="-460.72" font-family="Helvetica,sans-Serif" font-style="italic" font-size="32.00" fill="#29235c">varchar</text>
<text text-anchor="start" x="985.31" y="-460.72" font-family="Helvetica,sans-Serif" font-size="32.00" fill="#29235c"> </text>
<text text-anchor="start" x="994.2" y="-460.72" font-family="Helvetica,sans-Serif" font-weight="bold" font-size="32.00" fill="#29235c">(!)</text>
<polygon fill="#e7e2dd" stroke="transparent" points="589.4,-379.52 589.4,-439.52 1035.4,-439.52 1035.4,-379.52 589.4,-379.52"/>
<polygon fill="none" stroke="#29235c" points="589.4,-379.52 589.4,-439.52 1035.4,-439.52 1035.4,-379.52 589.4,-379.52"/>
<text text-anchor="start" x="600.4" y="-399.72" font-family="Helvetica,sans-Serif" font-size="32.00" fill="#29235c">remember_token &#160;&#160;&#160;</text>
<text text-anchor="start" x="917.73" y="-400.72" font-family="Helvetica,sans-Serif" font-style="italic" font-size="32.00" fill="#29235c">varchar</text>
<polygon fill="#e7e2dd" stroke="transparent" points="589.4,-319.52 589.4,-379.52 1035.4,-379.52 1035.4,-319.52 589.4,-319.52"/>
<polygon fill="none" stroke="#29235c" points="589.4,-319.52 589.4,-379.52 1035.4,-379.52 1035.4,-319.52 589.4,-319.52"/>
<text text-anchor="start" x="600.4" y="-339.72" font-family="Helvetica,sans-Serif" font-size="32.00" fill="#29235c">custom_fields &#160;&#160;&#160;</text>
<text text-anchor="start" x="965.72" y="-340.72" font-family="Helvetica,sans-Serif" font-style="italic" font-size="32.00" fill="#29235c">json</text>
<polygon fill="#e7e2dd" stroke="transparent" points="589.4,-259.52 589.4,-319.52 1035.4,-319.52 1035.4,-259.52 589.4,-259.52"/>
<polygon fill="none" stroke="#29235c" points="589.4,-259.52 589.4,-319.52 1035.4,-319.52 1035.4,-259.52 589.4,-259.52"/>
<text text-anchor="start" x="600.4" y="-279.72" font-family="Helvetica,sans-Serif" font-size="32.00" fill="#29235c">avatar_url &#160;&#160;&#160;</text>
<text text-anchor="start" x="917.73" y="-280.72" font-family="Helvetica,sans-Serif" font-style="italic" font-size="32.00" fill="#29235c">varchar</text>
<polygon fill="#e7e2dd" stroke="transparent" points="589.4,-199.52 589.4,-259.52 1035.4,-259.52 1035.4,-199.52 589.4,-199.52"/>
<polygon fill="none" stroke="#29235c" points="589.4,-199.52 589.4,-259.52 1035.4,-259.52 1035.4,-199.52 589.4,-199.52"/>
<text text-anchor="start" x="600.4" y="-219.72" font-family="Helvetica,sans-Serif" font-size="32.00" fill="#29235c">created_at &#160;&#160;&#160;</text>
<text text-anchor="start" x="876.84" y="-220.72" font-family="Helvetica,sans-Serif" font-style="italic" font-size="32.00" fill="#29235c">timestamp</text>
<polygon fill="#e7e2dd" stroke="transparent" points="589.4,-139.52 589.4,-199.52 1035.4,-199.52 1035.4,-139.52 589.4,-139.52"/>
<polygon fill="none" stroke="#29235c" points="589.4,-139.52 589.4,-199.52 1035.4,-199.52 1035.4,-139.52 589.4,-139.52"/>
<text text-anchor="start" x="600.4" y="-159.72" font-family="Helvetica,sans-Serif" font-size="32.00" fill="#29235c">updated_at &#160;&#160;&#160;</text>
<text text-anchor="start" x="876.84" y="-160.72" font-family="Helvetica,sans-Serif" font-style="italic" font-size="32.00" fill="#29235c">timestamp</text>
<polygon fill="none" stroke="#29235c" stroke-width="2" points="588.4,-138.52 588.4,-800.52 1036.4,-800.52 1036.4,-138.52 588.4,-138.52"/>
</g>
<!-- projects -->
<g id="projects" class="node">
<title>projects</title>
<ellipse fill="none" stroke="black" stroke-width="0" cx="812.4" cy="-1214.52" rx="243.9" ry="257.27"/>
<polygon fill="#1d71b8" stroke="transparent" points="642.4,-1334.52 642.4,-1394.52 983.4,-1394.52 983.4,-1334.52 642.4,-1334.52"/>
<polygon fill="none" stroke="#29235c" points="642.4,-1334.52 642.4,-1394.52 983.4,-1394.52 983.4,-1334.52 642.4,-1334.52"/>
<text text-anchor="start" x="694.65" y="-1355.72" font-family="Helvetica,sans-Serif" font-weight="bold" font-size="32.00" fill="#ffffff"> &#160;&#160;&#160;&#160;&#160;&#160;projects &#160;&#160;&#160;&#160;&#160;&#160;</text>
<polygon fill="#e7e2dd" stroke="transparent" points="642.4,-1274.52 642.4,-1334.52 983.4,-1334.52 983.4,-1274.52 642.4,-1274.52"/>
<polygon fill="none" stroke="#29235c" points="642.4,-1274.52 642.4,-1334.52 983.4,-1334.52 983.4,-1274.52 642.4,-1274.52"/>
<text text-anchor="start" x="653.4" y="-1295.72" font-family="Helvetica,sans-Serif" font-weight="bold" font-size="32.00" fill="#29235c">id</text>
<text text-anchor="start" x="678.29" y="-1295.72" font-family="Helvetica,sans-Serif" font-size="32.00" fill="#29235c"> &#160;&#160;&#160;</text>
<text text-anchor="start" x="938.62" y="-1295.72" font-family="Helvetica,sans-Serif" font-style="italic" font-size="32.00" fill="#29235c">int</text>
<polygon fill="#e7e2dd" stroke="transparent" points="642.4,-1214.52 642.4,-1274.52 983.4,-1274.52 983.4,-1214.52 642.4,-1214.52"/>
<polygon fill="none" stroke="#29235c" points="642.4,-1214.52 642.4,-1274.52 983.4,-1274.52 983.4,-1214.52 642.4,-1214.52"/>
<text text-anchor="start" x="653.4" y="-1234.72" font-family="Helvetica,sans-Serif" font-size="32.00" fill="#29235c">nama &#160;&#160;&#160;</text>
<text text-anchor="start" x="826.64" y="-1235.72" font-family="Helvetica,sans-Serif" font-style="italic" font-size="32.00" fill="#29235c">varchar</text>
<text text-anchor="start" x="933.31" y="-1235.72" font-family="Helvetica,sans-Serif" font-size="32.00" fill="#29235c"> </text>
<text text-anchor="start" x="942.2" y="-1235.72" font-family="Helvetica,sans-Serif" font-weight="bold" font-size="32.00" fill="#29235c">(!)</text>
<polygon fill="#e7e2dd" stroke="transparent" points="642.4,-1154.52 642.4,-1214.52 983.4,-1214.52 983.4,-1154.52 642.4,-1154.52"/>
<polygon fill="none" stroke="#29235c" points="642.4,-1154.52 642.4,-1214.52 983.4,-1214.52 983.4,-1154.52 642.4,-1154.52"/>
<text text-anchor="start" x="653.4" y="-1174.72" font-family="Helvetica,sans-Serif" font-size="32.00" fill="#29235c">deskripsi &#160;&#160;&#160;</text>
<text text-anchor="start" x="920.83" y="-1175.72" font-family="Helvetica,sans-Serif" font-style="italic" font-size="32.00" fill="#29235c">text</text>
<polygon fill="#e7e2dd" stroke="transparent" points="642.4,-1094.52 642.4,-1154.52 983.4,-1154.52 983.4,-1094.52 642.4,-1094.52"/>
<polygon fill="none" stroke="#29235c" points="642.4,-1094.52 642.4,-1154.52 983.4,-1154.52 983.4,-1094.52 642.4,-1094.52"/>
<text text-anchor="start" x="653.4" y="-1114.72" font-family="Helvetica,sans-Serif" font-size="32.00" fill="#29235c">tanggal_mulai &#160;&#160;&#160;</text>
<text text-anchor="start" x="910.14" y="-1115.72" font-family="Helvetica,sans-Serif" font-style="italic" font-size="32.00" fill="#29235c">date</text>
<polygon fill="#e7e2dd" stroke="transparent" points="642.4,-1034.52 642.4,-1094.52 983.4,-1094.52 983.4,-1034.52 642.4,-1034.52"/>
<polygon fill="none" stroke="#29235c" points="642.4,-1034.52 642.4,-1094.52 983.4,-1094.52 983.4,-1034.52 642.4,-1034.52"/>
<text text-anchor="start" x="652.97" y="-1054.72" font-family="Helvetica,sans-Serif" font-size="32.00" fill="#29235c">tanggal_selesai &#160;&#160;&#160;</text>
<text text-anchor="start" x="910.27" y="-1055.72" font-family="Helvetica,sans-Serif" font-style="italic" font-size="32.00" fill="#29235c">date</text>
<polygon fill="none" stroke="#29235c" stroke-width="2" points="640.9,-1033.52 640.9,-1395.52 983.9,-1395.52 983.9,-1033.52 640.9,-1033.52"/>
</g>
<!-- attachments -->
<g id="attachments" class="node">
<title>attachments</title>
<ellipse fill="none" stroke="black" stroke-width="0" cx="229.1" cy="-1006.52" rx="229.21" ry="214.92"/>
<polygon fill="#1d71b8" stroke="transparent" points="69.1,-1096.52 69.1,-1156.52 389.1,-1156.52 389.1,-1096.52 69.1,-1096.52"/>
<polygon fill="none" stroke="#29235c" points="69.1,-1096.52 69.1,-1156.52 389.1,-1156.52 389.1,-1096.52 69.1,-1096.52"/>
<text text-anchor="start" x="79.72" y="-1117.72" font-family="Helvetica,sans-Serif" font-weight="bold" font-size="32.00" fill="#ffffff"> &#160;&#160;&#160;&#160;&#160;&#160;attachments &#160;&#160;&#160;&#160;&#160;&#160;</text>
<polygon fill="#e7e2dd" stroke="transparent" points="69.1,-1036.52 69.1,-1096.52 389.1,-1096.52 389.1,-1036.52 69.1,-1036.52"/>
<polygon fill="none" stroke="#29235c" points="69.1,-1036.52 69.1,-1096.52 389.1,-1096.52 389.1,-1036.52 69.1,-1036.52"/>
<text text-anchor="start" x="80.1" y="-1057.72" font-family="Helvetica,sans-Serif" font-weight="bold" font-size="32.00" fill="#29235c">id</text>
<text text-anchor="start" x="104.99" y="-1057.72" font-family="Helvetica,sans-Serif" font-size="32.00" fill="#29235c"> &#160;&#160;&#160;</text>
<text text-anchor="start" x="344.32" y="-1057.72" font-family="Helvetica,sans-Serif" font-style="italic" font-size="32.00" fill="#29235c">int</text>
<polygon fill="#e7e2dd" stroke="transparent" points="69.1,-976.52 69.1,-1036.52 389.1,-1036.52 389.1,-976.52 69.1,-976.52"/>
<polygon fill="none" stroke="#29235c" points="69.1,-976.52 69.1,-1036.52 389.1,-1036.52 389.1,-976.52 69.1,-976.52"/>
<text text-anchor="start" x="80.1" y="-996.72" font-family="Helvetica,sans-Serif" font-size="32.00" fill="#29235c">project_id &#160;&#160;&#160;</text>
<text text-anchor="start" x="344.32" y="-997.72" font-family="Helvetica,sans-Serif" font-style="italic" font-size="32.00" fill="#29235c">int</text>
<polygon fill="#e7e2dd" stroke="transparent" points="69.1,-916.52 69.1,-976.52 389.1,-976.52 389.1,-916.52 69.1,-916.52"/>
<polygon fill="none" stroke="#29235c" points="69.1,-916.52 69.1,-976.52 389.1,-976.52 389.1,-916.52 69.1,-916.52"/>
<text text-anchor="start" x="80.1" y="-936.72" font-family="Helvetica,sans-Serif" font-size="32.00" fill="#29235c">user_id &#160;&#160;&#160;</text>
<text text-anchor="start" x="344.32" y="-937.72" font-family="Helvetica,sans-Serif" font-style="italic" font-size="32.00" fill="#29235c">int</text>
<polygon fill="#e7e2dd" stroke="transparent" points="69.1,-856.52 69.1,-916.52 389.1,-916.52 389.1,-856.52 69.1,-856.52"/>
<polygon fill="none" stroke="#29235c" points="69.1,-856.52 69.1,-916.52 389.1,-916.52 389.1,-856.52 69.1,-856.52"/>
<text text-anchor="start" x="80.1" y="-876.72" font-family="Helvetica,sans-Serif" font-size="32.00" fill="#29235c">file_path &#160;&#160;&#160;</text>
<text text-anchor="start" x="271.43" y="-877.72" font-family="Helvetica,sans-Serif" font-style="italic" font-size="32.00" fill="#29235c">varchar</text>
<polygon fill="none" stroke="#29235c" stroke-width="2" points="68.1,-855.52 68.1,-1157.52 390.1,-1157.52 390.1,-855.52 68.1,-855.52"/>
</g>
<!-- attachments&#45;&gt;users -->
<!-- attachments&#45;&gt;users -->
<g id="edge4" class="edge">
<title>attachments:e&#45;&gt;users:w</title>
<path fill="none" stroke="#29235c" stroke-width="3" d="M390.1,-946.52C523.96,-946.52 454.8,-721.4 578.35,-709.97"/>
<polygon fill="#29235c" stroke="#29235c" stroke-width="3" points="578.57,-713.46 588.4,-709.52 578.26,-706.47 578.57,-713.46"/>
<text text-anchor="middle" x="579.51" y="-680.72" font-family="Helvetica,sans-Serif" font-size="32.00" fill="#29235c">1</text>
<text text-anchor="middle" x="383.88" y="-917.72" font-family="Helvetica,sans-Serif" font-size="32.00" fill="#29235c">*</text>
</g>
<!-- attachments&#45;&gt;projects -->
<!-- attachments&#45;&gt;projects -->
<g id="edge2" class="edge">
<title>attachments:e&#45;&gt;projects:w</title>
<path fill="none" stroke="#29235c" stroke-width="3" d="M390.1,-1006.52C559.8,-1006.52 471.94,-1292.42 631.08,-1304.15"/>
<polygon fill="#29235c" stroke="#29235c" stroke-width="3" points="631.28,-1307.66 641.4,-1304.52 631.54,-1300.66 631.28,-1307.66"/>
<text text-anchor="middle" x="632.51" y="-1314.12" font-family="Helvetica,sans-Serif" font-size="32.00" fill="#29235c">1</text>
<text text-anchor="middle" x="383.88" y="-977.72" font-family="Helvetica,sans-Serif" font-size="32.00" fill="#29235c">*</text>
</g>
</g>
</svg>
