<?xml version="1.0" encoding="UTF-8" standalone="no"?>
<!DOCTYPE svg PUBLIC "-//W3C//DTD SVG 1.1//EN"
 "http://www.w3.org/Graphics/SVG/1.1/DTD/svg11.dtd">
<!-- Generated by graphviz version 2.47.0 (20210316.0004)
 -->
<!-- Title: dbml Pages: 1 -->
<svg width="3407pt" height="1566pt"
 viewBox="0.00 0.00 3406.75 1565.75" xmlns="http://www.w3.org/2000/svg" xmlns:xlink="http://www.w3.org/1999/xlink">
<g id="graph0" class="graph" transform="scale(1 1) rotate(0) translate(4 1561.75)">
<title>dbml</title>
<!-- projects -->
<g id="projects" class="node">
<title>projects</title>
<ellipse fill="none" stroke="black" stroke-width="0" cx="1411.26" cy="-257.39" rx="260.43" ry="257.27"/>
<polygon fill="#1d71b8" stroke="transparent" points="1229.26,-377.39 1229.26,-437.39 1593.26,-437.39 1593.26,-377.39 1229.26,-377.39"/>
<polygon fill="none" stroke="#29235c" points="1229.26,-377.39 1229.26,-437.39 1593.26,-437.39 1593.26,-377.39 1229.26,-377.39"/>
<text text-anchor="start" x="1293" y="-398.59" font-family="Helvetica,sans-Serif" font-weight="bold" font-size="32.00" fill="#ffffff"> &#160;&#160;&#160;&#160;&#160;&#160;projects &#160;&#160;&#160;&#160;&#160;&#160;</text>
<polygon fill="#e7e2dd" stroke="transparent" points="1229.26,-317.39 1229.26,-377.39 1593.26,-377.39 1593.26,-317.39 1229.26,-317.39"/>
<polygon fill="none" stroke="#29235c" points="1229.26,-317.39 1229.26,-377.39 1593.26,-377.39 1593.26,-317.39 1229.26,-317.39"/>
<text text-anchor="start" x="1240.26" y="-338.59" font-family="Helvetica,sans-Serif" font-weight="bold" font-size="32.00" fill="#29235c">id</text>
<text text-anchor="start" x="1265.15" y="-338.59" font-family="Helvetica,sans-Serif" font-size="32.00" fill="#29235c"> &#160;&#160;&#160;</text>
<text text-anchor="start" x="1548.48" y="-338.59" font-family="Helvetica,sans-Serif" font-style="italic" font-size="32.00" fill="#29235c">int</text>
<polygon fill="#e7e2dd" stroke="transparent" points="1229.26,-257.39 1229.26,-317.39 1593.26,-317.39 1593.26,-257.39 1229.26,-257.39"/>
<polygon fill="none" stroke="#29235c" points="1229.26,-257.39 1229.26,-317.39 1593.26,-317.39 1593.26,-257.39 1229.26,-257.39"/>
<text text-anchor="start" x="1240.26" y="-277.59" font-family="Helvetica,sans-Serif" font-size="32.00" fill="#29235c">name &#160;&#160;&#160;</text>
<text text-anchor="start" x="1436.5" y="-278.59" font-family="Helvetica,sans-Serif" font-style="italic" font-size="32.00" fill="#29235c">varchar</text>
<text text-anchor="start" x="1543.17" y="-278.59" font-family="Helvetica,sans-Serif" font-size="32.00" fill="#29235c"> </text>
<text text-anchor="start" x="1552.06" y="-278.59" font-family="Helvetica,sans-Serif" font-weight="bold" font-size="32.00" fill="#29235c">(!)</text>
<polygon fill="#e7e2dd" stroke="transparent" points="1229.26,-197.39 1229.26,-257.39 1593.26,-257.39 1593.26,-197.39 1229.26,-197.39"/>
<polygon fill="none" stroke="#29235c" points="1229.26,-197.39 1229.26,-257.39 1593.26,-257.39 1593.26,-197.39 1229.26,-197.39"/>
<text text-anchor="start" x="1240.26" y="-217.59" font-family="Helvetica,sans-Serif" font-size="32.00" fill="#29235c">code &#160;&#160;&#160;</text>
<text text-anchor="start" x="1475.59" y="-218.59" font-family="Helvetica,sans-Serif" font-style="italic" font-size="32.00" fill="#29235c">varchar</text>
<polygon fill="#e7e2dd" stroke="transparent" points="1229.26,-137.39 1229.26,-197.39 1593.26,-197.39 1593.26,-137.39 1229.26,-137.39"/>
<polygon fill="none" stroke="#29235c" points="1229.26,-137.39 1229.26,-197.39 1593.26,-197.39 1593.26,-137.39 1229.26,-137.39"/>
<text text-anchor="start" x="1240.26" y="-157.59" font-family="Helvetica,sans-Serif" font-size="32.00" fill="#29235c">created_at &#160;&#160;&#160;</text>
<text text-anchor="start" x="1434.7" y="-158.59" font-family="Helvetica,sans-Serif" font-style="italic" font-size="32.00" fill="#29235c">timestamp</text>
<polygon fill="#e7e2dd" stroke="transparent" points="1229.26,-77.39 1229.26,-137.39 1593.26,-137.39 1593.26,-77.39 1229.26,-77.39"/>
<polygon fill="none" stroke="#29235c" points="1229.26,-77.39 1229.26,-137.39 1593.26,-137.39 1593.26,-77.39 1229.26,-77.39"/>
<text text-anchor="start" x="1239.93" y="-97.59" font-family="Helvetica,sans-Serif" font-size="32.00" fill="#29235c">updated_at &#160;&#160;&#160;</text>
<text text-anchor="start" x="1434.98" y="-98.59" font-family="Helvetica,sans-Serif" font-style="italic" font-size="32.00" fill="#29235c">timestamp</text>
<polygon fill="none" stroke="#29235c" stroke-width="2" points="1228.26,-76.39 1228.26,-438.39 1594.26,-438.39 1594.26,-76.39 1228.26,-76.39"/>
</g>
<!-- levels -->
<g id="levels" class="node">
<title>levels</title>
<ellipse fill="none" stroke="black" stroke-width="0" cx="2582.1" cy="-734.39" rx="260.43" ry="214.92"/>
<polygon fill="#1d71b8" stroke="transparent" points="2400.1,-824.39 2400.1,-884.39 2764.1,-884.39 2764.1,-824.39 2400.1,-824.39"/>
<polygon fill="none" stroke="#29235c" points="2400.1,-824.39 2400.1,-884.39 2764.1,-884.39 2764.1,-824.39 2400.1,-824.39"/>
<text text-anchor="start" x="2478.96" y="-845.59" font-family="Helvetica,sans-Serif" font-weight="bold" font-size="32.00" fill="#ffffff"> &#160;&#160;&#160;&#160;&#160;&#160;levels &#160;&#160;&#160;&#160;&#160;&#160;</text>
<polygon fill="#e7e2dd" stroke="transparent" points="2400.1,-764.39 2400.1,-824.39 2764.1,-824.39 2764.1,-764.39 2400.1,-764.39"/>
<polygon fill="none" stroke="#29235c" points="2400.1,-764.39 2400.1,-824.39 2764.1,-824.39 2764.1,-764.39 2400.1,-764.39"/>
<text text-anchor="start" x="2411.1" y="-785.59" font-family="Helvetica,sans-Serif" font-weight="bold" font-size="32.00" fill="#29235c">id</text>
<text text-anchor="start" x="2435.99" y="-785.59" font-family="Helvetica,sans-Serif" font-size="32.00" fill="#29235c"> &#160;&#160;&#160;</text>
<text text-anchor="start" x="2719.32" y="-785.59" font-family="Helvetica,sans-Serif" font-style="italic" font-size="32.00" fill="#29235c">int</text>
<polygon fill="#e7e2dd" stroke="transparent" points="2400.1,-704.39 2400.1,-764.39 2764.1,-764.39 2764.1,-704.39 2400.1,-704.39"/>
<polygon fill="none" stroke="#29235c" points="2400.1,-704.39 2400.1,-764.39 2764.1,-764.39 2764.1,-704.39 2400.1,-704.39"/>
<text text-anchor="start" x="2411.1" y="-724.59" font-family="Helvetica,sans-Serif" font-size="32.00" fill="#29235c">name &#160;&#160;&#160;</text>
<text text-anchor="start" x="2607.34" y="-725.59" font-family="Helvetica,sans-Serif" font-style="italic" font-size="32.00" fill="#29235c">varchar</text>
<text text-anchor="start" x="2714.01" y="-725.59" font-family="Helvetica,sans-Serif" font-size="32.00" fill="#29235c"> </text>
<text text-anchor="start" x="2722.91" y="-725.59" font-family="Helvetica,sans-Serif" font-weight="bold" font-size="32.00" fill="#29235c">(!)</text>
<polygon fill="#e7e2dd" stroke="transparent" points="2400.1,-644.39 2400.1,-704.39 2764.1,-704.39 2764.1,-644.39 2400.1,-644.39"/>
<polygon fill="none" stroke="#29235c" points="2400.1,-644.39 2400.1,-704.39 2764.1,-704.39 2764.1,-644.39 2400.1,-644.39"/>
<text text-anchor="start" x="2411.1" y="-664.59" font-family="Helvetica,sans-Serif" font-size="32.00" fill="#29235c">created_at &#160;&#160;&#160;</text>
<text text-anchor="start" x="2605.55" y="-665.59" font-family="Helvetica,sans-Serif" font-style="italic" font-size="32.00" fill="#29235c">timestamp</text>
<polygon fill="#e7e2dd" stroke="transparent" points="2400.1,-584.39 2400.1,-644.39 2764.1,-644.39 2764.1,-584.39 2400.1,-584.39"/>
<polygon fill="none" stroke="#29235c" points="2400.1,-584.39 2400.1,-644.39 2764.1,-644.39 2764.1,-584.39 2400.1,-584.39"/>
<text text-anchor="start" x="2410.77" y="-604.59" font-family="Helvetica,sans-Serif" font-size="32.00" fill="#29235c">updated_at &#160;&#160;&#160;</text>
<text text-anchor="start" x="2605.82" y="-605.59" font-family="Helvetica,sans-Serif" font-style="italic" font-size="32.00" fill="#29235c">timestamp</text>
<polygon fill="none" stroke="#29235c" stroke-width="2" points="2399.1,-583.39 2399.1,-885.39 2765.1,-885.39 2765.1,-583.39 2399.1,-583.39"/>
</g>
<!-- positions -->
<g id="positions" class="node">
<title>positions</title>
<ellipse fill="none" stroke="black" stroke-width="0" cx="2582.1" cy="-1224.39" rx="260.43" ry="257.27"/>
<polygon fill="#1d71b8" stroke="transparent" points="2400.1,-1344.39 2400.1,-1404.39 2764.1,-1404.39 2764.1,-1344.39 2400.1,-1344.39"/>
<polygon fill="none" stroke="#29235c" points="2400.1,-1344.39 2400.1,-1404.39 2764.1,-1404.39 2764.1,-1344.39 2400.1,-1344.39"/>
<text text-anchor="start" x="2456.73" y="-1365.59" font-family="Helvetica,sans-Serif" font-weight="bold" font-size="32.00" fill="#ffffff"> &#160;&#160;&#160;&#160;&#160;&#160;positions &#160;&#160;&#160;&#160;&#160;&#160;</text>
<polygon fill="#e7e2dd" stroke="transparent" points="2400.1,-1284.39 2400.1,-1344.39 2764.1,-1344.39 2764.1,-1284.39 2400.1,-1284.39"/>
<polygon fill="none" stroke="#29235c" points="2400.1,-1284.39 2400.1,-1344.39 2764.1,-1344.39 2764.1,-1284.39 2400.1,-1284.39"/>
<text text-anchor="start" x="2411.1" y="-1305.59" font-family="Helvetica,sans-Serif" font-weight="bold" font-size="32.00" fill="#29235c">id</text>
<text text-anchor="start" x="2435.99" y="-1305.59" font-family="Helvetica,sans-Serif" font-size="32.00" fill="#29235c"> &#160;&#160;&#160;</text>
<text text-anchor="start" x="2719.32" y="-1305.59" font-family="Helvetica,sans-Serif" font-style="italic" font-size="32.00" fill="#29235c">int</text>
<polygon fill="#e7e2dd" stroke="transparent" points="2400.1,-1224.39 2400.1,-1284.39 2764.1,-1284.39 2764.1,-1224.39 2400.1,-1224.39"/>
<polygon fill="none" stroke="#29235c" points="2400.1,-1224.39 2400.1,-1284.39 2764.1,-1284.39 2764.1,-1224.39 2400.1,-1224.39"/>
<text text-anchor="start" x="2411.1" y="-1244.59" font-family="Helvetica,sans-Serif" font-size="32.00" fill="#29235c">name &#160;&#160;&#160;</text>
<text text-anchor="start" x="2607.34" y="-1245.59" font-family="Helvetica,sans-Serif" font-style="italic" font-size="32.00" fill="#29235c">varchar</text>
<text text-anchor="start" x="2714.01" y="-1245.59" font-family="Helvetica,sans-Serif" font-size="32.00" fill="#29235c"> </text>
<text text-anchor="start" x="2722.91" y="-1245.59" font-family="Helvetica,sans-Serif" font-weight="bold" font-size="32.00" fill="#29235c">(!)</text>
<polygon fill="#e7e2dd" stroke="transparent" points="2400.1,-1164.39 2400.1,-1224.39 2764.1,-1224.39 2764.1,-1164.39 2400.1,-1164.39"/>
<polygon fill="none" stroke="#29235c" points="2400.1,-1164.39 2400.1,-1224.39 2764.1,-1224.39 2764.1,-1164.39 2400.1,-1164.39"/>
<text text-anchor="start" x="2411.1" y="-1184.59" font-family="Helvetica,sans-Serif" font-size="32.00" fill="#29235c">department_id &#160;&#160;&#160;</text>
<text text-anchor="start" x="2719.32" y="-1185.59" font-family="Helvetica,sans-Serif" font-style="italic" font-size="32.00" fill="#29235c">int</text>
<polygon fill="#e7e2dd" stroke="transparent" points="2400.1,-1104.39 2400.1,-1164.39 2764.1,-1164.39 2764.1,-1104.39 2400.1,-1104.39"/>
<polygon fill="none" stroke="#29235c" points="2400.1,-1104.39 2400.1,-1164.39 2764.1,-1164.39 2764.1,-1104.39 2400.1,-1104.39"/>
<text text-anchor="start" x="2411.1" y="-1124.59" font-family="Helvetica,sans-Serif" font-size="32.00" fill="#29235c">created_at &#160;&#160;&#160;</text>
<text text-anchor="start" x="2605.55" y="-1125.59" font-family="Helvetica,sans-Serif" font-style="italic" font-size="32.00" fill="#29235c">timestamp</text>
<polygon fill="#e7e2dd" stroke="transparent" points="2400.1,-1044.39 2400.1,-1104.39 2764.1,-1104.39 2764.1,-1044.39 2400.1,-1044.39"/>
<polygon fill="none" stroke="#29235c" points="2400.1,-1044.39 2400.1,-1104.39 2764.1,-1104.39 2764.1,-1044.39 2400.1,-1044.39"/>
<text text-anchor="start" x="2410.77" y="-1064.59" font-family="Helvetica,sans-Serif" font-size="32.00" fill="#29235c">updated_at &#160;&#160;&#160;</text>
<text text-anchor="start" x="2605.82" y="-1065.59" font-family="Helvetica,sans-Serif" font-style="italic" font-size="32.00" fill="#29235c">timestamp</text>
<polygon fill="none" stroke="#29235c" stroke-width="2" points="2399.1,-1043.39 2399.1,-1405.39 2765.1,-1405.39 2765.1,-1043.39 2399.1,-1043.39"/>
</g>
<!-- departments -->
<g id="departments" class="node">
<title>departments</title>
<ellipse fill="none" stroke="black" stroke-width="0" cx="3138.53" cy="-1254.39" rx="260.43" ry="214.92"/>
<polygon fill="#1d71b8" stroke="transparent" points="2956.53,-1344.39 2956.53,-1404.39 3320.53,-1404.39 3320.53,-1344.39 2956.53,-1344.39"/>
<polygon fill="none" stroke="#29235c" points="2956.53,-1344.39 2956.53,-1404.39 3320.53,-1404.39 3320.53,-1344.39 2956.53,-1344.39"/>
<text text-anchor="start" x="2987.37" y="-1365.59" font-family="Helvetica,sans-Serif" font-weight="bold" font-size="32.00" fill="#ffffff"> &#160;&#160;&#160;&#160;&#160;&#160;departments &#160;&#160;&#160;&#160;&#160;&#160;</text>
<polygon fill="#e7e2dd" stroke="transparent" points="2956.53,-1284.39 2956.53,-1344.39 3320.53,-1344.39 3320.53,-1284.39 2956.53,-1284.39"/>
<polygon fill="none" stroke="#29235c" points="2956.53,-1284.39 2956.53,-1344.39 3320.53,-1344.39 3320.53,-1284.39 2956.53,-1284.39"/>
<text text-anchor="start" x="2967.53" y="-1305.59" font-family="Helvetica,sans-Serif" font-weight="bold" font-size="32.00" fill="#29235c">id</text>
<text text-anchor="start" x="2992.42" y="-1305.59" font-family="Helvetica,sans-Serif" font-size="32.00" fill="#29235c"> &#160;&#160;&#160;</text>
<text text-anchor="start" x="3275.75" y="-1305.59" font-family="Helvetica,sans-Serif" font-style="italic" font-size="32.00" fill="#29235c">int</text>
<polygon fill="#e7e2dd" stroke="transparent" points="2956.53,-1224.39 2956.53,-1284.39 3320.53,-1284.39 3320.53,-1224.39 2956.53,-1224.39"/>
<polygon fill="none" stroke="#29235c" points="2956.53,-1224.39 2956.53,-1284.39 3320.53,-1284.39 3320.53,-1224.39 2956.53,-1224.39"/>
<text text-anchor="start" x="2967.53" y="-1244.59" font-family="Helvetica,sans-Serif" font-size="32.00" fill="#29235c">name &#160;&#160;&#160;</text>
<text text-anchor="start" x="3163.77" y="-1245.59" font-family="Helvetica,sans-Serif" font-style="italic" font-size="32.00" fill="#29235c">varchar</text>
<text text-anchor="start" x="3270.44" y="-1245.59" font-family="Helvetica,sans-Serif" font-size="32.00" fill="#29235c"> </text>
<text text-anchor="start" x="3279.34" y="-1245.59" font-family="Helvetica,sans-Serif" font-weight="bold" font-size="32.00" fill="#29235c">(!)</text>
<polygon fill="#e7e2dd" stroke="transparent" points="2956.53,-1164.39 2956.53,-1224.39 3320.53,-1224.39 3320.53,-1164.39 2956.53,-1164.39"/>
<polygon fill="none" stroke="#29235c" points="2956.53,-1164.39 2956.53,-1224.39 3320.53,-1224.39 3320.53,-1164.39 2956.53,-1164.39"/>
<text text-anchor="start" x="2967.53" y="-1184.59" font-family="Helvetica,sans-Serif" font-size="32.00" fill="#29235c">created_at &#160;&#160;&#160;</text>
<text text-anchor="start" x="3161.98" y="-1185.59" font-family="Helvetica,sans-Serif" font-style="italic" font-size="32.00" fill="#29235c">timestamp</text>
<polygon fill="#e7e2dd" stroke="transparent" points="2956.53,-1104.39 2956.53,-1164.39 3320.53,-1164.39 3320.53,-1104.39 2956.53,-1104.39"/>
<polygon fill="none" stroke="#29235c" points="2956.53,-1104.39 2956.53,-1164.39 3320.53,-1164.39 3320.53,-1104.39 2956.53,-1104.39"/>
<text text-anchor="start" x="2967.2" y="-1124.59" font-family="Helvetica,sans-Serif" font-size="32.00" fill="#29235c">updated_at &#160;&#160;&#160;</text>
<text text-anchor="start" x="3162.26" y="-1125.59" font-family="Helvetica,sans-Serif" font-style="italic" font-size="32.00" fill="#29235c">timestamp</text>
<polygon fill="none" stroke="#29235c" stroke-width="2" points="2955.53,-1103.39 2955.53,-1405.39 3321.53,-1405.39 3321.53,-1103.39 2955.53,-1103.39"/>
</g>
<!-- positions&#45;&gt;departments -->
<!-- positions&#45;&gt;departments -->
<g id="edge2" class="edge">
<title>positions:e&#45;&gt;departments:w</title>
<path fill="none" stroke="#29235c" stroke-width="3" d="M2765.1,-1194.39C2861.63,-1194.39 2856.04,-1306.1 2945.38,-1313.95"/>
<polygon fill="#29235c" stroke="#29235c" stroke-width="3" points="2945.39,-1317.46 2955.53,-1314.39 2945.69,-1310.46 2945.39,-1317.46"/>
<text text-anchor="middle" x="2946.64" y="-1285.59" font-family="Helvetica,sans-Serif" font-size="32.00" fill="#29235c">1</text>
<text text-anchor="middle" x="2771.33" y="-1165.59" font-family="Helvetica,sans-Serif" font-size="32.00" fill="#29235c">*</text>
</g>
<!-- titles -->
<g id="titles" class="node">
<title>titles</title>
<ellipse fill="none" stroke="black" stroke-width="0" cx="2025.67" cy="-1164.39" rx="260.43" ry="342.48"/>
<polygon fill="#1d71b8" stroke="transparent" points="1843.67,-1344.39 1843.67,-1404.39 2207.67,-1404.39 2207.67,-1344.39 1843.67,-1344.39"/>
<polygon fill="none" stroke="#29235c" points="1843.67,-1344.39 1843.67,-1404.39 2207.67,-1404.39 2207.67,-1344.39 1843.67,-1344.39"/>
<text text-anchor="start" x="1930.54" y="-1365.59" font-family="Helvetica,sans-Serif" font-weight="bold" font-size="32.00" fill="#ffffff"> &#160;&#160;&#160;&#160;&#160;&#160;titles &#160;&#160;&#160;&#160;&#160;&#160;</text>
<polygon fill="#e7e2dd" stroke="transparent" points="1843.67,-1284.39 1843.67,-1344.39 2207.67,-1344.39 2207.67,-1284.39 1843.67,-1284.39"/>
<polygon fill="none" stroke="#29235c" points="1843.67,-1284.39 1843.67,-1344.39 2207.67,-1344.39 2207.67,-1284.39 1843.67,-1284.39"/>
<text text-anchor="start" x="1854.67" y="-1305.59" font-family="Helvetica,sans-Serif" font-weight="bold" font-size="32.00" fill="#29235c">id</text>
<text text-anchor="start" x="1879.56" y="-1305.59" font-family="Helvetica,sans-Serif" font-size="32.00" fill="#29235c"> &#160;&#160;&#160;</text>
<text text-anchor="start" x="2162.89" y="-1305.59" font-family="Helvetica,sans-Serif" font-style="italic" font-size="32.00" fill="#29235c">int</text>
<polygon fill="#e7e2dd" stroke="transparent" points="1843.67,-1224.39 1843.67,-1284.39 2207.67,-1284.39 2207.67,-1224.39 1843.67,-1224.39"/>
<polygon fill="none" stroke="#29235c" points="1843.67,-1224.39 1843.67,-1284.39 2207.67,-1284.39 2207.67,-1224.39 1843.67,-1224.39"/>
<text text-anchor="start" x="1854.67" y="-1244.59" font-family="Helvetica,sans-Serif" font-size="32.00" fill="#29235c">name &#160;&#160;&#160;</text>
<text text-anchor="start" x="2050.91" y="-1245.59" font-family="Helvetica,sans-Serif" font-style="italic" font-size="32.00" fill="#29235c">varchar</text>
<text text-anchor="start" x="2157.58" y="-1245.59" font-family="Helvetica,sans-Serif" font-size="32.00" fill="#29235c"> </text>
<text text-anchor="start" x="2166.48" y="-1245.59" font-family="Helvetica,sans-Serif" font-weight="bold" font-size="32.00" fill="#29235c">(!)</text>
<polygon fill="#e7e2dd" stroke="transparent" points="1843.67,-1164.39 1843.67,-1224.39 2207.67,-1224.39 2207.67,-1164.39 1843.67,-1164.39"/>
<polygon fill="none" stroke="#29235c" points="1843.67,-1164.39 1843.67,-1224.39 2207.67,-1224.39 2207.67,-1164.39 1843.67,-1164.39"/>
<text text-anchor="start" x="1854.67" y="-1184.59" font-family="Helvetica,sans-Serif" font-size="32.00" fill="#29235c">department_id &#160;&#160;&#160;</text>
<text text-anchor="start" x="2162.89" y="-1185.59" font-family="Helvetica,sans-Serif" font-style="italic" font-size="32.00" fill="#29235c">int</text>
<polygon fill="#e7e2dd" stroke="transparent" points="1843.67,-1104.39 1843.67,-1164.39 2207.67,-1164.39 2207.67,-1104.39 1843.67,-1104.39"/>
<polygon fill="none" stroke="#29235c" points="1843.67,-1104.39 1843.67,-1164.39 2207.67,-1164.39 2207.67,-1104.39 1843.67,-1104.39"/>
<text text-anchor="start" x="1854.67" y="-1124.59" font-family="Helvetica,sans-Serif" font-size="32.00" fill="#29235c">position_id &#160;&#160;&#160;</text>
<text text-anchor="start" x="2162.89" y="-1125.59" font-family="Helvetica,sans-Serif" font-style="italic" font-size="32.00" fill="#29235c">int</text>
<polygon fill="#e7e2dd" stroke="transparent" points="1843.67,-1044.39 1843.67,-1104.39 2207.67,-1104.39 2207.67,-1044.39 1843.67,-1044.39"/>
<polygon fill="none" stroke="#29235c" points="1843.67,-1044.39 1843.67,-1104.39 2207.67,-1104.39 2207.67,-1044.39 1843.67,-1044.39"/>
<text text-anchor="start" x="1854.67" y="-1064.59" font-family="Helvetica,sans-Serif" font-size="32.00" fill="#29235c">level_id &#160;&#160;&#160;</text>
<text text-anchor="start" x="2162.89" y="-1065.59" font-family="Helvetica,sans-Serif" font-style="italic" font-size="32.00" fill="#29235c">int</text>
<polygon fill="#e7e2dd" stroke="transparent" points="1843.67,-984.39 1843.67,-1044.39 2207.67,-1044.39 2207.67,-984.39 1843.67,-984.39"/>
<polygon fill="none" stroke="#29235c" points="1843.67,-984.39 1843.67,-1044.39 2207.67,-1044.39 2207.67,-984.39 1843.67,-984.39"/>
<text text-anchor="start" x="1854.67" y="-1004.59" font-family="Helvetica,sans-Serif" font-size="32.00" fill="#29235c">created_at &#160;&#160;&#160;</text>
<text text-anchor="start" x="2049.12" y="-1005.59" font-family="Helvetica,sans-Serif" font-style="italic" font-size="32.00" fill="#29235c">timestamp</text>
<polygon fill="#e7e2dd" stroke="transparent" points="1843.67,-924.39 1843.67,-984.39 2207.67,-984.39 2207.67,-924.39 1843.67,-924.39"/>
<polygon fill="none" stroke="#29235c" points="1843.67,-924.39 1843.67,-984.39 2207.67,-984.39 2207.67,-924.39 1843.67,-924.39"/>
<text text-anchor="start" x="1854.34" y="-944.59" font-family="Helvetica,sans-Serif" font-size="32.00" fill="#29235c">updated_at &#160;&#160;&#160;</text>
<text text-anchor="start" x="2049.39" y="-945.59" font-family="Helvetica,sans-Serif" font-style="italic" font-size="32.00" fill="#29235c">timestamp</text>
<polygon fill="none" stroke="#29235c" stroke-width="2" points="1842.67,-923.39 1842.67,-1405.39 2208.67,-1405.39 2208.67,-923.39 1842.67,-923.39"/>
</g>
<!-- titles&#45;&gt;levels -->
<!-- titles&#45;&gt;levels -->
<g id="edge8" class="edge">
<title>titles:e&#45;&gt;levels:w</title>
<path fill="none" stroke="#29235c" stroke-width="3" d="M2208.67,-1074.39C2355.64,-1074.39 2253.65,-807.36 2388.95,-794.84"/>
<polygon fill="#29235c" stroke="#29235c" stroke-width="3" points="2389.27,-798.33 2399.1,-794.39 2388.96,-791.34 2389.27,-798.33"/>
<text text-anchor="middle" x="2390.21" y="-765.59" font-family="Helvetica,sans-Serif" font-size="32.00" fill="#29235c">1</text>
<text text-anchor="middle" x="2202.45" y="-1045.59" font-family="Helvetica,sans-Serif" font-size="32.00" fill="#29235c">*</text>
</g>
<!-- titles&#45;&gt;positions -->
<!-- titles&#45;&gt;positions -->
<g id="edge6" class="edge">
<title>titles:e&#45;&gt;positions:w</title>
<path fill="none" stroke="#29235c" stroke-width="3" d="M2208.67,-1134.39C2321.61,-1134.39 2285.07,-1303.65 2388.96,-1313.9"/>
<polygon fill="#29235c" stroke="#29235c" stroke-width="3" points="2388.95,-1317.41 2399.1,-1314.39 2389.28,-1310.41 2388.95,-1317.41"/>
<text text-anchor="middle" x="2390.21" y="-1285.59" font-family="Helvetica,sans-Serif" font-size="32.00" fill="#29235c">1</text>
<text text-anchor="middle" x="2202.45" y="-1105.59" font-family="Helvetica,sans-Serif" font-size="32.00" fill="#29235c">*</text>
</g>
<!-- titles&#45;&gt;departments -->
<!-- titles&#45;&gt;departments -->
<g id="edge4" class="edge">
<title>titles:e&#45;&gt;departments:w</title>
<path fill="none" stroke="#29235c" stroke-width="3" d="M2208.67,-1194.39C2362.74,-1194.39 2204.39,-610.04 2321.89,-510.39 2498.29,-360.78 2667.73,-358.66 2842.32,-510.39 2975.85,-626.43 2782.92,-1287.82 2945.4,-1313.61"/>
<polygon fill="#29235c" stroke="#29235c" stroke-width="3" points="2945.3,-1317.11 2955.53,-1314.39 2945.83,-1310.13 2945.3,-1317.11"/>
<text text-anchor="middle" x="2964.43" y="-1285.59" font-family="Helvetica,sans-Serif" font-size="32.00" fill="#29235c">1</text>
<text text-anchor="middle" x="2202.45" y="-1165.59" font-family="Helvetica,sans-Serif" font-size="32.00" fill="#29235c">*</text>
</g>
<!-- users -->
<g id="users" class="node">
<title>users</title>
<ellipse fill="none" stroke="black" stroke-width="0" cx="1411.26" cy="-1044.39" rx="318.4" ry="511.89"/>
<polygon fill="#1d71b8" stroke="transparent" points="1188.26,-1344.39 1188.26,-1404.39 1634.26,-1404.39 1634.26,-1344.39 1188.26,-1344.39"/>
<polygon fill="none" stroke="#29235c" points="1188.26,-1344.39 1188.26,-1404.39 1634.26,-1404.39 1634.26,-1344.39 1188.26,-1344.39"/>
<text text-anchor="start" x="1309.9" y="-1365.59" font-family="Helvetica,sans-Serif" font-weight="bold" font-size="32.00" fill="#ffffff"> &#160;&#160;&#160;&#160;&#160;&#160;users &#160;&#160;&#160;&#160;&#160;&#160;</text>
<polygon fill="#e7e2dd" stroke="transparent" points="1188.26,-1284.39 1188.26,-1344.39 1634.26,-1344.39 1634.26,-1284.39 1188.26,-1284.39"/>
<polygon fill="none" stroke="#29235c" points="1188.26,-1284.39 1188.26,-1344.39 1634.26,-1344.39 1634.26,-1284.39 1188.26,-1284.39"/>
<text text-anchor="start" x="1199.26" y="-1305.59" font-family="Helvetica,sans-Serif" font-weight="bold" font-size="32.00" fill="#29235c">id</text>
<text text-anchor="start" x="1224.15" y="-1305.59" font-family="Helvetica,sans-Serif" font-size="32.00" fill="#29235c"> &#160;&#160;&#160;</text>
<text text-anchor="start" x="1589.48" y="-1305.59" font-family="Helvetica,sans-Serif" font-style="italic" font-size="32.00" fill="#29235c">int</text>
<polygon fill="#e7e2dd" stroke="transparent" points="1188.26,-1224.39 1188.26,-1284.39 1634.26,-1284.39 1634.26,-1224.39 1188.26,-1224.39"/>
<polygon fill="none" stroke="#29235c" points="1188.26,-1224.39 1188.26,-1284.39 1634.26,-1284.39 1634.26,-1224.39 1188.26,-1224.39"/>
<text text-anchor="start" x="1199.26" y="-1244.59" font-family="Helvetica,sans-Serif" font-size="32.00" fill="#29235c">title_id &#160;&#160;&#160;</text>
<text text-anchor="start" x="1589.48" y="-1245.59" font-family="Helvetica,sans-Serif" font-style="italic" font-size="32.00" fill="#29235c">int</text>
<polygon fill="#e7e2dd" stroke="transparent" points="1188.26,-1164.39 1188.26,-1224.39 1634.26,-1224.39 1634.26,-1164.39 1188.26,-1164.39"/>
<polygon fill="none" stroke="#29235c" points="1188.26,-1164.39 1188.26,-1224.39 1634.26,-1224.39 1634.26,-1164.39 1188.26,-1164.39"/>
<text text-anchor="start" x="1199.26" y="-1184.59" font-family="Helvetica,sans-Serif" font-size="32.00" fill="#29235c">name &#160;&#160;&#160;</text>
<text text-anchor="start" x="1477.5" y="-1185.59" font-family="Helvetica,sans-Serif" font-style="italic" font-size="32.00" fill="#29235c">varchar</text>
<text text-anchor="start" x="1584.17" y="-1185.59" font-family="Helvetica,sans-Serif" font-size="32.00" fill="#29235c"> </text>
<text text-anchor="start" x="1593.06" y="-1185.59" font-family="Helvetica,sans-Serif" font-weight="bold" font-size="32.00" fill="#29235c">(!)</text>
<polygon fill="#e7e2dd" stroke="transparent" points="1188.26,-1104.39 1188.26,-1164.39 1634.26,-1164.39 1634.26,-1104.39 1188.26,-1104.39"/>
<polygon fill="none" stroke="#29235c" points="1188.26,-1104.39 1188.26,-1164.39 1634.26,-1164.39 1634.26,-1104.39 1188.26,-1104.39"/>
<text text-anchor="start" x="1199.26" y="-1124.59" font-family="Helvetica,sans-Serif" font-size="32.00" fill="#29235c">email &#160;&#160;&#160;</text>
<text text-anchor="start" x="1477.5" y="-1125.59" font-family="Helvetica,sans-Serif" font-style="italic" font-size="32.00" fill="#29235c">varchar</text>
<text text-anchor="start" x="1584.17" y="-1125.59" font-family="Helvetica,sans-Serif" font-size="32.00" fill="#29235c"> </text>
<text text-anchor="start" x="1593.06" y="-1125.59" font-family="Helvetica,sans-Serif" font-weight="bold" font-size="32.00" fill="#29235c">(!)</text>
<polygon fill="#e7e2dd" stroke="transparent" points="1188.26,-1044.39 1188.26,-1104.39 1634.26,-1104.39 1634.26,-1044.39 1188.26,-1044.39"/>
<polygon fill="none" stroke="#29235c" points="1188.26,-1044.39 1188.26,-1104.39 1634.26,-1104.39 1634.26,-1044.39 1188.26,-1044.39"/>
<text text-anchor="start" x="1199.07" y="-1064.59" font-family="Helvetica,sans-Serif" font-size="32.00" fill="#29235c">email_verified_at &#160;&#160;&#160;</text>
<text text-anchor="start" x="1475.98" y="-1065.59" font-family="Helvetica,sans-Serif" font-style="italic" font-size="32.00" fill="#29235c">timestamp</text>
<polygon fill="#e7e2dd" stroke="transparent" points="1188.26,-984.39 1188.26,-1044.39 1634.26,-1044.39 1634.26,-984.39 1188.26,-984.39"/>
<polygon fill="none" stroke="#29235c" points="1188.26,-984.39 1188.26,-1044.39 1634.26,-1044.39 1634.26,-984.39 1188.26,-984.39"/>
<text text-anchor="start" x="1199.26" y="-1004.59" font-family="Helvetica,sans-Serif" font-size="32.00" fill="#29235c">password &#160;&#160;&#160;</text>
<text text-anchor="start" x="1477.5" y="-1005.59" font-family="Helvetica,sans-Serif" font-style="italic" font-size="32.00" fill="#29235c">varchar</text>
<text text-anchor="start" x="1584.17" y="-1005.59" font-family="Helvetica,sans-Serif" font-size="32.00" fill="#29235c"> </text>
<text text-anchor="start" x="1593.06" y="-1005.59" font-family="Helvetica,sans-Serif" font-weight="bold" font-size="32.00" fill="#29235c">(!)</text>
<polygon fill="#e7e2dd" stroke="transparent" points="1188.26,-924.39 1188.26,-984.39 1634.26,-984.39 1634.26,-924.39 1188.26,-924.39"/>
<polygon fill="none" stroke="#29235c" points="1188.26,-924.39 1188.26,-984.39 1634.26,-984.39 1634.26,-924.39 1188.26,-924.39"/>
<text text-anchor="start" x="1199.26" y="-944.59" font-family="Helvetica,sans-Serif" font-size="32.00" fill="#29235c">remember_token &#160;&#160;&#160;</text>
<text text-anchor="start" x="1516.59" y="-945.59" font-family="Helvetica,sans-Serif" font-style="italic" font-size="32.00" fill="#29235c">varchar</text>
<polygon fill="#e7e2dd" stroke="transparent" points="1188.26,-864.39 1188.26,-924.39 1634.26,-924.39 1634.26,-864.39 1188.26,-864.39"/>
<polygon fill="none" stroke="#29235c" points="1188.26,-864.39 1188.26,-924.39 1634.26,-924.39 1634.26,-864.39 1188.26,-864.39"/>
<text text-anchor="start" x="1199.26" y="-884.59" font-family="Helvetica,sans-Serif" font-size="32.00" fill="#29235c">custom_fields &#160;&#160;&#160;</text>
<text text-anchor="start" x="1564.58" y="-885.59" font-family="Helvetica,sans-Serif" font-style="italic" font-size="32.00" fill="#29235c">json</text>
<polygon fill="#e7e2dd" stroke="transparent" points="1188.26,-804.39 1188.26,-864.39 1634.26,-864.39 1634.26,-804.39 1188.26,-804.39"/>
<polygon fill="none" stroke="#29235c" points="1188.26,-804.39 1188.26,-864.39 1634.26,-864.39 1634.26,-804.39 1188.26,-804.39"/>
<text text-anchor="start" x="1199.26" y="-824.59" font-family="Helvetica,sans-Serif" font-size="32.00" fill="#29235c">avatar_url &#160;&#160;&#160;</text>
<text text-anchor="start" x="1516.59" y="-825.59" font-family="Helvetica,sans-Serif" font-style="italic" font-size="32.00" fill="#29235c">varchar</text>
<polygon fill="#e7e2dd" stroke="transparent" points="1188.26,-744.39 1188.26,-804.39 1634.26,-804.39 1634.26,-744.39 1188.26,-744.39"/>
<polygon fill="none" stroke="#29235c" points="1188.26,-744.39 1188.26,-804.39 1634.26,-804.39 1634.26,-744.39 1188.26,-744.39"/>
<text text-anchor="start" x="1199.26" y="-764.59" font-family="Helvetica,sans-Serif" font-size="32.00" fill="#29235c">created_at &#160;&#160;&#160;</text>
<text text-anchor="start" x="1475.7" y="-765.59" font-family="Helvetica,sans-Serif" font-style="italic" font-size="32.00" fill="#29235c">timestamp</text>
<polygon fill="#e7e2dd" stroke="transparent" points="1188.26,-684.39 1188.26,-744.39 1634.26,-744.39 1634.26,-684.39 1188.26,-684.39"/>
<polygon fill="none" stroke="#29235c" points="1188.26,-684.39 1188.26,-744.39 1634.26,-744.39 1634.26,-684.39 1188.26,-684.39"/>
<text text-anchor="start" x="1199.26" y="-704.59" font-family="Helvetica,sans-Serif" font-size="32.00" fill="#29235c">updated_at &#160;&#160;&#160;</text>
<text text-anchor="start" x="1475.7" y="-705.59" font-family="Helvetica,sans-Serif" font-style="italic" font-size="32.00" fill="#29235c">timestamp</text>
<polygon fill="none" stroke="#29235c" stroke-width="2" points="1187.26,-683.39 1187.26,-1405.39 1635.26,-1405.39 1635.26,-683.39 1187.26,-683.39"/>
</g>
<!-- users&#45;&gt;titles -->
<!-- users&#45;&gt;titles -->
<g id="edge10" class="edge">
<title>users:e&#45;&gt;titles:w</title>
<path fill="none" stroke="#29235c" stroke-width="3" d="M1635.26,-1254.39C1727.76,-1254.39 1745.49,-1310.13 1832.58,-1314.16"/>
<polygon fill="#29235c" stroke="#29235c" stroke-width="3" points="1832.6,-1317.66 1842.67,-1314.39 1832.76,-1310.66 1832.6,-1317.66"/>
<text text-anchor="middle" x="1833.78" y="-1285.59" font-family="Helvetica,sans-Serif" font-size="32.00" fill="#29235c">1</text>
<text text-anchor="middle" x="1626.37" y="-1225.59" font-family="Helvetica,sans-Serif" font-size="32.00" fill="#29235c">1</text>
</g>
<!-- backlogs -->
<g id="backlogs" class="node">
<title>backlogs</title>
<ellipse fill="none" stroke="black" stroke-width="0" cx="796.85" cy="-650.39" rx="260.43" ry="469.54"/>
<polygon fill="#1d71b8" stroke="transparent" points="614.85,-920.39 614.85,-980.39 978.85,-980.39 978.85,-920.39 614.85,-920.39"/>
<polygon fill="none" stroke="#29235c" points="614.85,-920.39 614.85,-980.39 978.85,-980.39 978.85,-920.39 614.85,-920.39"/>
<text text-anchor="start" x="671.47" y="-941.59" font-family="Helvetica,sans-Serif" font-weight="bold" font-size="32.00" fill="#ffffff"> &#160;&#160;&#160;&#160;&#160;&#160;backlogs &#160;&#160;&#160;&#160;&#160;&#160;</text>
<polygon fill="#e7e2dd" stroke="transparent" points="614.85,-860.39 614.85,-920.39 978.85,-920.39 978.85,-860.39 614.85,-860.39"/>
<polygon fill="none" stroke="#29235c" points="614.85,-860.39 614.85,-920.39 978.85,-920.39 978.85,-860.39 614.85,-860.39"/>
<text text-anchor="start" x="625.85" y="-881.59" font-family="Helvetica,sans-Serif" font-weight="bold" font-size="32.00" fill="#29235c">id</text>
<text text-anchor="start" x="650.74" y="-881.59" font-family="Helvetica,sans-Serif" font-size="32.00" fill="#29235c"> &#160;&#160;&#160;</text>
<text text-anchor="start" x="934.06" y="-881.59" font-family="Helvetica,sans-Serif" font-style="italic" font-size="32.00" fill="#29235c">int</text>
<polygon fill="#e7e2dd" stroke="transparent" points="614.85,-800.39 614.85,-860.39 978.85,-860.39 978.85,-800.39 614.85,-800.39"/>
<polygon fill="none" stroke="#29235c" points="614.85,-800.39 614.85,-860.39 978.85,-860.39 978.85,-800.39 614.85,-800.39"/>
<text text-anchor="start" x="625.85" y="-820.59" font-family="Helvetica,sans-Serif" font-size="32.00" fill="#29235c">pic &#160;&#160;&#160;</text>
<text text-anchor="start" x="934.06" y="-821.59" font-family="Helvetica,sans-Serif" font-style="italic" font-size="32.00" fill="#29235c">int</text>
<polygon fill="#e7e2dd" stroke="transparent" points="614.85,-740.39 614.85,-800.39 978.85,-800.39 978.85,-740.39 614.85,-740.39"/>
<polygon fill="none" stroke="#29235c" points="614.85,-740.39 614.85,-800.39 978.85,-800.39 978.85,-740.39 614.85,-740.39"/>
<text text-anchor="start" x="625.85" y="-760.59" font-family="Helvetica,sans-Serif" font-size="32.00" fill="#29235c">project_id &#160;&#160;&#160;</text>
<text text-anchor="start" x="934.06" y="-761.59" font-family="Helvetica,sans-Serif" font-style="italic" font-size="32.00" fill="#29235c">int</text>
<polygon fill="#e7e2dd" stroke="transparent" points="614.85,-680.39 614.85,-740.39 978.85,-740.39 978.85,-680.39 614.85,-680.39"/>
<polygon fill="none" stroke="#29235c" points="614.85,-680.39 614.85,-740.39 978.85,-740.39 978.85,-680.39 614.85,-680.39"/>
<text text-anchor="start" x="625.85" y="-700.59" font-family="Helvetica,sans-Serif" font-size="32.00" fill="#29235c">code &#160;&#160;&#160;</text>
<text text-anchor="start" x="861.17" y="-701.59" font-family="Helvetica,sans-Serif" font-style="italic" font-size="32.00" fill="#29235c">varchar</text>
<polygon fill="#e7e2dd" stroke="transparent" points="614.85,-620.39 614.85,-680.39 978.85,-680.39 978.85,-620.39 614.85,-620.39"/>
<polygon fill="none" stroke="#29235c" points="614.85,-620.39 614.85,-680.39 978.85,-680.39 978.85,-620.39 614.85,-620.39"/>
<text text-anchor="start" x="625.85" y="-640.59" font-family="Helvetica,sans-Serif" font-size="32.00" fill="#29235c">priority &#160;&#160;&#160;</text>
<text text-anchor="start" x="854.08" y="-641.59" font-family="Helvetica,sans-Serif" font-style="italic" font-size="32.00" fill="#29235c">prioritas</text>
<polygon fill="#e7e2dd" stroke="transparent" points="614.85,-560.39 614.85,-620.39 978.85,-620.39 978.85,-560.39 614.85,-560.39"/>
<polygon fill="none" stroke="#29235c" points="614.85,-560.39 614.85,-620.39 978.85,-620.39 978.85,-560.39 614.85,-560.39"/>
<text text-anchor="start" x="625.85" y="-580.59" font-family="Helvetica,sans-Serif" font-size="32.00" fill="#29235c">description &#160;&#160;&#160;</text>
<text text-anchor="start" x="916.27" y="-581.59" font-family="Helvetica,sans-Serif" font-style="italic" font-size="32.00" fill="#29235c">text</text>
<polygon fill="#e7e2dd" stroke="transparent" points="614.85,-500.39 614.85,-560.39 978.85,-560.39 978.85,-500.39 614.85,-500.39"/>
<polygon fill="none" stroke="#29235c" points="614.85,-500.39 614.85,-560.39 978.85,-560.39 978.85,-500.39 614.85,-500.39"/>
<text text-anchor="start" x="625.85" y="-520.59" font-family="Helvetica,sans-Serif" font-size="32.00" fill="#29235c">start_date &#160;&#160;&#160;</text>
<text text-anchor="start" x="905.59" y="-521.59" font-family="Helvetica,sans-Serif" font-style="italic" font-size="32.00" fill="#29235c">date</text>
<polygon fill="#e7e2dd" stroke="transparent" points="614.85,-440.39 614.85,-500.39 978.85,-500.39 978.85,-440.39 614.85,-440.39"/>
<polygon fill="none" stroke="#29235c" points="614.85,-440.39 614.85,-500.39 978.85,-500.39 978.85,-440.39 614.85,-440.39"/>
<text text-anchor="start" x="625.85" y="-460.59" font-family="Helvetica,sans-Serif" font-size="32.00" fill="#29235c">end_date &#160;&#160;&#160;</text>
<text text-anchor="start" x="905.59" y="-461.59" font-family="Helvetica,sans-Serif" font-style="italic" font-size="32.00" fill="#29235c">date</text>
<polygon fill="#e7e2dd" stroke="transparent" points="614.85,-380.39 614.85,-440.39 978.85,-440.39 978.85,-380.39 614.85,-380.39"/>
<polygon fill="none" stroke="#29235c" points="614.85,-380.39 614.85,-440.39 978.85,-440.39 978.85,-380.39 614.85,-380.39"/>
<text text-anchor="start" x="625.85" y="-400.59" font-family="Helvetica,sans-Serif" font-size="32.00" fill="#29235c">created_at &#160;&#160;&#160;</text>
<text text-anchor="start" x="820.29" y="-401.59" font-family="Helvetica,sans-Serif" font-style="italic" font-size="32.00" fill="#29235c">timestamp</text>
<polygon fill="#e7e2dd" stroke="transparent" points="614.85,-320.39 614.85,-380.39 978.85,-380.39 978.85,-320.39 614.85,-320.39"/>
<polygon fill="none" stroke="#29235c" points="614.85,-320.39 614.85,-380.39 978.85,-380.39 978.85,-320.39 614.85,-320.39"/>
<text text-anchor="start" x="625.51" y="-340.59" font-family="Helvetica,sans-Serif" font-size="32.00" fill="#29235c">updated_at &#160;&#160;&#160;</text>
<text text-anchor="start" x="820.57" y="-341.59" font-family="Helvetica,sans-Serif" font-style="italic" font-size="32.00" fill="#29235c">timestamp</text>
<polygon fill="none" stroke="#29235c" stroke-width="2" points="613.85,-319.39 613.85,-981.39 979.85,-981.39 979.85,-319.39 613.85,-319.39"/>
</g>
<!-- backlogs&#45;&gt;projects -->
<!-- backlogs&#45;&gt;projects -->
<g id="edge14" class="edge">
<title>backlogs:e&#45;&gt;projects:w</title>
<path fill="none" stroke="#29235c" stroke-width="3" d="M979.85,-770.39C1100.61,-770.39 1030.73,-626.81 1093.06,-523.39 1142.14,-441.96 1130.58,-353.99 1218,-347.74"/>
<polygon fill="#29235c" stroke="#29235c" stroke-width="3" points="1218.39,-351.23 1228.26,-347.39 1218.15,-344.23 1218.39,-351.23"/>
<text text-anchor="middle" x="1219.37" y="-318.59" font-family="Helvetica,sans-Serif" font-size="32.00" fill="#29235c">1</text>
<text text-anchor="middle" x="986.07" y="-741.59" font-family="Helvetica,sans-Serif" font-size="32.00" fill="#29235c">*</text>
</g>
<!-- backlogs&#45;&gt;users -->
<!-- backlogs&#45;&gt;users -->
<g id="edge12" class="edge">
<title>backlogs:e&#45;&gt;users:w</title>
<path fill="none" stroke="#29235c" stroke-width="3" d="M979.85,-830.39C1210.34,-830.39 961.01,-1299.85 1176.97,-1314.06"/>
<polygon fill="#29235c" stroke="#29235c" stroke-width="3" points="1177.15,-1317.57 1187.26,-1314.39 1177.38,-1310.57 1177.15,-1317.57"/>
<text text-anchor="middle" x="1178.37" y="-1285.59" font-family="Helvetica,sans-Serif" font-size="32.00" fill="#29235c">1</text>
<text text-anchor="middle" x="986.07" y="-801.59" font-family="Helvetica,sans-Serif" font-size="32.00" fill="#29235c">*</text>
</g>
<!-- backlog_items -->
<g id="backlog_items" class="node">
<title>backlog_items</title>
<ellipse fill="none" stroke="black" stroke-width="0" cx="250.32" cy="-920.39" rx="250.13" ry="87.86"/>
<polygon fill="#1d71b8" stroke="transparent" points="75.32,-920.39 75.32,-980.39 425.32,-980.39 425.32,-920.39 75.32,-920.39"/>
<polygon fill="none" stroke="#29235c" points="75.32,-920.39 75.32,-980.39 425.32,-980.39 425.32,-920.39 75.32,-920.39"/>
<text text-anchor="start" x="85.83" y="-941.59" font-family="Helvetica,sans-Serif" font-weight="bold" font-size="32.00" fill="#ffffff"> &#160;&#160;&#160;&#160;&#160;&#160;backlog_items &#160;&#160;&#160;&#160;&#160;&#160;</text>
<polygon fill="#e7e2dd" stroke="transparent" points="75.32,-860.39 75.32,-920.39 425.32,-920.39 425.32,-860.39 75.32,-860.39"/>
<polygon fill="none" stroke="#29235c" points="75.32,-860.39 75.32,-920.39 425.32,-920.39 425.32,-860.39 75.32,-860.39"/>
<text text-anchor="start" x="86.32" y="-880.59" font-family="Helvetica,sans-Serif" font-size="32.00" fill="#29235c">backlog_id &#160;&#160;&#160;</text>
<text text-anchor="start" x="380.53" y="-881.59" font-family="Helvetica,sans-Serif" font-style="italic" font-size="32.00" fill="#29235c">int</text>
<polygon fill="none" stroke="#29235c" stroke-width="2" points="74.32,-859.39 74.32,-981.39 426.32,-981.39 426.32,-859.39 74.32,-859.39"/>
</g>
<!-- backlog_items&#45;&gt;backlogs -->
<!-- backlog_items&#45;&gt;backlogs -->
<g id="edge16" class="edge">
<title>backlog_items:e&#45;&gt;backlogs:w</title>
<path fill="none" stroke="#29235c" stroke-width="3" d="M426.32,-890.39C506.08,-890.39 528.59,-890.39 603.44,-890.39"/>
<polygon fill="#29235c" stroke="#29235c" stroke-width="3" points="603.85,-893.89 613.85,-890.39 603.85,-886.89 603.85,-893.89"/>
<text text-anchor="middle" x="622.74" y="-861.59" font-family="Helvetica,sans-Serif" font-size="32.00" fill="#29235c">1</text>
<text text-anchor="middle" x="420.09" y="-861.59" font-family="Helvetica,sans-Serif" font-size="32.00" fill="#29235c">*</text>
</g>
</g>
</svg>
