<?xml version="1.0" encoding="UTF-8" standalone="no"?>
<!DOCTYPE svg PUBLIC "-//W3C//DTD SVG 1.1//EN"
 "http://www.w3.org/Graphics/SVG/1.1/DTD/svg11.dtd">
<!-- Generated by graphviz version 2.47.0 (20210316.0004)
 -->
<!-- Title: dbml Pages: 1 -->
<svg width="3407pt" height="1877pt"
 viewBox="0.00 0.00 3406.75 1877.07" xmlns="http://www.w3.org/2000/svg" xmlns:xlink="http://www.w3.org/1999/xlink">
<g id="graph0" class="graph" transform="scale(1 1) rotate(0) translate(4 1873.07)">
<title>dbml</title>
<!-- projects -->
<g id="projects" class="node">
<title>projects</title>
<ellipse fill="none" stroke="black" stroke-width="0" cx="1411.26" cy="-257.39" rx="260.43" ry="257.27"/>
<polygon fill="#1d71b8" stroke="transparent" points="1229.26,-377.39 1229.26,-437.39 1593.26,-437.39 1593.26,-377.39 1229.26,-377.39"/>
<polygon fill="none" stroke="#29235c" points="1229.26,-377.39 1229.26,-437.39 1593.26,-437.39 1593.26,-377.39 1229.26,-377.39"/>
<text text-anchor="start" x="1293" y="-398.59" font-family="Helvetica,sans-Serif" font-weight="bold" font-size="32.00" fill="#ffffff"> &#160;&#160;&#160;&#160;&#160;&#160;projects &#160;&#160;&#160;&#160;&#160;&#160;</text>
<polygon fill="#e7e2dd" stroke="transparent" points="1229.26,-317.39 1229.26,-377.39 1593.26,-377.39 1593.26,-317.39 1229.26,-317.39"/>
<polygon fill="none" stroke="#29235c" points="1229.26,-317.39 1229.26,-377.39 1593.26,-377.39 1593.26,-317.39 1229.26,-317.39"/>
<text text-anchor="start" x="1240.26" y="-338.59" font-family="Helvetica,sans-Serif" font-weight="bold" font-size="32.00" fill="#29235c">id</text>
<text text-anchor="start" x="1265.15" y="-338.59" font-family="Helvetica,sans-Serif" font-size="32.00" fill="#29235c"> &#160;&#160;&#160;</text>
<text text-anchor="start" x="1548.48" y="-338.59" font-family="Helvetica,sans-Serif" font-style="italic" font-size="32.00" fill="#29235c">int</text>
<polygon fill="#e7e2dd" stroke="transparent" points="1229.26,-257.39 1229.26,-317.39 1593.26,-317.39 1593.26,-257.39 1229.26,-257.39"/>
<polygon fill="none" stroke="#29235c" points="1229.26,-257.39 1229.26,-317.39 1593.26,-317.39 1593.26,-257.39 1229.26,-257.39"/>
<text text-anchor="start" x="1240.26" y="-277.59" font-family="Helvetica,sans-Serif" font-size="32.00" fill="#29235c">name &#160;&#160;&#160;</text>
<text text-anchor="start" x="1436.5" y="-278.59" font-family="Helvetica,sans-Serif" font-style="italic" font-size="32.00" fill="#29235c">varchar</text>
<text text-anchor="start" x="1543.17" y="-278.59" font-family="Helvetica,sans-Serif" font-size="32.00" fill="#29235c"> </text>
<text text-anchor="start" x="1552.06" y="-278.59" font-family="Helvetica,sans-Serif" font-weight="bold" font-size="32.00" fill="#29235c">(!)</text>
<polygon fill="#e7e2dd" stroke="transparent" points="1229.26,-197.39 1229.26,-257.39 1593.26,-257.39 1593.26,-197.39 1229.26,-197.39"/>
<polygon fill="none" stroke="#29235c" points="1229.26,-197.39 1229.26,-257.39 1593.26,-257.39 1593.26,-197.39 1229.26,-197.39"/>
<text text-anchor="start" x="1240.26" y="-217.59" font-family="Helvetica,sans-Serif" font-size="32.00" fill="#29235c">code &#160;&#160;&#160;</text>
<text text-anchor="start" x="1475.59" y="-218.59" font-family="Helvetica,sans-Serif" font-style="italic" font-size="32.00" fill="#29235c">varchar</text>
<polygon fill="#e7e2dd" stroke="transparent" points="1229.26,-137.39 1229.26,-197.39 1593.26,-197.39 1593.26,-137.39 1229.26,-137.39"/>
<polygon fill="none" stroke="#29235c" points="1229.26,-137.39 1229.26,-197.39 1593.26,-197.39 1593.26,-137.39 1229.26,-137.39"/>
<text text-anchor="start" x="1240.26" y="-157.59" font-family="Helvetica,sans-Serif" font-size="32.00" fill="#29235c">created_at &#160;&#160;&#160;</text>
<text text-anchor="start" x="1434.7" y="-158.59" font-family="Helvetica,sans-Serif" font-style="italic" font-size="32.00" fill="#29235c">timestamp</text>
<polygon fill="#e7e2dd" stroke="transparent" points="1229.26,-77.39 1229.26,-137.39 1593.26,-137.39 1593.26,-77.39 1229.26,-77.39"/>
<polygon fill="none" stroke="#29235c" points="1229.26,-77.39 1229.26,-137.39 1593.26,-137.39 1593.26,-77.39 1229.26,-77.39"/>
<text text-anchor="start" x="1239.93" y="-97.59" font-family="Helvetica,sans-Serif" font-size="32.00" fill="#29235c">updated_at &#160;&#160;&#160;</text>
<text text-anchor="start" x="1434.98" y="-98.59" font-family="Helvetica,sans-Serif" font-style="italic" font-size="32.00" fill="#29235c">timestamp</text>
<polygon fill="none" stroke="#29235c" stroke-width="2" points="1228.26,-76.39 1228.26,-438.39 1594.26,-438.39 1594.26,-76.39 1228.26,-76.39"/>
</g>
<!-- roles -->
<g id="roles" class="node">
<title>roles</title>
<ellipse fill="none" stroke="black" stroke-width="0" cx="2025.67" cy="-934.39" rx="260.43" ry="214.92"/>
<polygon fill="#1d71b8" stroke="transparent" points="1843.67,-1024.39 1843.67,-1084.39 2207.67,-1084.39 2207.67,-1024.39 1843.67,-1024.39"/>
<polygon fill="none" stroke="#29235c" points="1843.67,-1024.39 1843.67,-1084.39 2207.67,-1084.39 2207.67,-1024.39 1843.67,-1024.39"/>
<text text-anchor="start" x="1928.76" y="-1045.59" font-family="Helvetica,sans-Serif" font-weight="bold" font-size="32.00" fill="#ffffff"> &#160;&#160;&#160;&#160;&#160;&#160;roles &#160;&#160;&#160;&#160;&#160;&#160;</text>
<polygon fill="#e7e2dd" stroke="transparent" points="1843.67,-964.39 1843.67,-1024.39 2207.67,-1024.39 2207.67,-964.39 1843.67,-964.39"/>
<polygon fill="none" stroke="#29235c" points="1843.67,-964.39 1843.67,-1024.39 2207.67,-1024.39 2207.67,-964.39 1843.67,-964.39"/>
<text text-anchor="start" x="1854.67" y="-985.59" font-family="Helvetica,sans-Serif" font-weight="bold" font-size="32.00" fill="#29235c">id</text>
<text text-anchor="start" x="1879.56" y="-985.59" font-family="Helvetica,sans-Serif" font-size="32.00" fill="#29235c"> &#160;&#160;&#160;</text>
<text text-anchor="start" x="2162.89" y="-985.59" font-family="Helvetica,sans-Serif" font-style="italic" font-size="32.00" fill="#29235c">int</text>
<polygon fill="#e7e2dd" stroke="transparent" points="1843.67,-904.39 1843.67,-964.39 2207.67,-964.39 2207.67,-904.39 1843.67,-904.39"/>
<polygon fill="none" stroke="#29235c" points="1843.67,-904.39 1843.67,-964.39 2207.67,-964.39 2207.67,-904.39 1843.67,-904.39"/>
<text text-anchor="start" x="1854.67" y="-924.59" font-family="Helvetica,sans-Serif" font-size="32.00" fill="#29235c">name &#160;&#160;&#160;</text>
<text text-anchor="start" x="2090" y="-925.59" font-family="Helvetica,sans-Serif" font-style="italic" font-size="32.00" fill="#29235c">varchar</text>
<polygon fill="#e7e2dd" stroke="transparent" points="1843.67,-844.39 1843.67,-904.39 2207.67,-904.39 2207.67,-844.39 1843.67,-844.39"/>
<polygon fill="none" stroke="#29235c" points="1843.67,-844.39 1843.67,-904.39 2207.67,-904.39 2207.67,-844.39 1843.67,-844.39"/>
<text text-anchor="start" x="1854.67" y="-864.59" font-family="Helvetica,sans-Serif" font-size="32.00" fill="#29235c">created_at &#160;&#160;&#160;</text>
<text text-anchor="start" x="2049.12" y="-865.59" font-family="Helvetica,sans-Serif" font-style="italic" font-size="32.00" fill="#29235c">timestamp</text>
<polygon fill="#e7e2dd" stroke="transparent" points="1843.67,-784.39 1843.67,-844.39 2207.67,-844.39 2207.67,-784.39 1843.67,-784.39"/>
<polygon fill="none" stroke="#29235c" points="1843.67,-784.39 1843.67,-844.39 2207.67,-844.39 2207.67,-784.39 1843.67,-784.39"/>
<text text-anchor="start" x="1854.34" y="-804.59" font-family="Helvetica,sans-Serif" font-size="32.00" fill="#29235c">updated_at &#160;&#160;&#160;</text>
<text text-anchor="start" x="2049.39" y="-805.59" font-family="Helvetica,sans-Serif" font-style="italic" font-size="32.00" fill="#29235c">timestamp</text>
<polygon fill="none" stroke="#29235c" stroke-width="2" points="1842.67,-783.39 1842.67,-1085.39 2208.67,-1085.39 2208.67,-783.39 1842.67,-783.39"/>
</g>
<!-- levels -->
<g id="levels" class="node">
<title>levels</title>
<ellipse fill="none" stroke="black" stroke-width="0" cx="2582.1" cy="-1079.39" rx="260.43" ry="214.92"/>
<polygon fill="#1d71b8" stroke="transparent" points="2400.1,-1169.39 2400.1,-1229.39 2764.1,-1229.39 2764.1,-1169.39 2400.1,-1169.39"/>
<polygon fill="none" stroke="#29235c" points="2400.1,-1169.39 2400.1,-1229.39 2764.1,-1229.39 2764.1,-1169.39 2400.1,-1169.39"/>
<text text-anchor="start" x="2478.96" y="-1190.59" font-family="Helvetica,sans-Serif" font-weight="bold" font-size="32.00" fill="#ffffff"> &#160;&#160;&#160;&#160;&#160;&#160;levels &#160;&#160;&#160;&#160;&#160;&#160;</text>
<polygon fill="#e7e2dd" stroke="transparent" points="2400.1,-1109.39 2400.1,-1169.39 2764.1,-1169.39 2764.1,-1109.39 2400.1,-1109.39"/>
<polygon fill="none" stroke="#29235c" points="2400.1,-1109.39 2400.1,-1169.39 2764.1,-1169.39 2764.1,-1109.39 2400.1,-1109.39"/>
<text text-anchor="start" x="2411.1" y="-1130.59" font-family="Helvetica,sans-Serif" font-weight="bold" font-size="32.00" fill="#29235c">id</text>
<text text-anchor="start" x="2435.99" y="-1130.59" font-family="Helvetica,sans-Serif" font-size="32.00" fill="#29235c"> &#160;&#160;&#160;</text>
<text text-anchor="start" x="2719.32" y="-1130.59" font-family="Helvetica,sans-Serif" font-style="italic" font-size="32.00" fill="#29235c">int</text>
<polygon fill="#e7e2dd" stroke="transparent" points="2400.1,-1049.39 2400.1,-1109.39 2764.1,-1109.39 2764.1,-1049.39 2400.1,-1049.39"/>
<polygon fill="none" stroke="#29235c" points="2400.1,-1049.39 2400.1,-1109.39 2764.1,-1109.39 2764.1,-1049.39 2400.1,-1049.39"/>
<text text-anchor="start" x="2411.1" y="-1069.59" font-family="Helvetica,sans-Serif" font-size="32.00" fill="#29235c">name &#160;&#160;&#160;</text>
<text text-anchor="start" x="2607.34" y="-1070.59" font-family="Helvetica,sans-Serif" font-style="italic" font-size="32.00" fill="#29235c">varchar</text>
<text text-anchor="start" x="2714.01" y="-1070.59" font-family="Helvetica,sans-Serif" font-size="32.00" fill="#29235c"> </text>
<text text-anchor="start" x="2722.91" y="-1070.59" font-family="Helvetica,sans-Serif" font-weight="bold" font-size="32.00" fill="#29235c">(!)</text>
<polygon fill="#e7e2dd" stroke="transparent" points="2400.1,-989.39 2400.1,-1049.39 2764.1,-1049.39 2764.1,-989.39 2400.1,-989.39"/>
<polygon fill="none" stroke="#29235c" points="2400.1,-989.39 2400.1,-1049.39 2764.1,-1049.39 2764.1,-989.39 2400.1,-989.39"/>
<text text-anchor="start" x="2411.1" y="-1009.59" font-family="Helvetica,sans-Serif" font-size="32.00" fill="#29235c">created_at &#160;&#160;&#160;</text>
<text text-anchor="start" x="2605.55" y="-1010.59" font-family="Helvetica,sans-Serif" font-style="italic" font-size="32.00" fill="#29235c">timestamp</text>
<polygon fill="#e7e2dd" stroke="transparent" points="2400.1,-929.39 2400.1,-989.39 2764.1,-989.39 2764.1,-929.39 2400.1,-929.39"/>
<polygon fill="none" stroke="#29235c" points="2400.1,-929.39 2400.1,-989.39 2764.1,-989.39 2764.1,-929.39 2400.1,-929.39"/>
<text text-anchor="start" x="2410.77" y="-949.59" font-family="Helvetica,sans-Serif" font-size="32.00" fill="#29235c">updated_at &#160;&#160;&#160;</text>
<text text-anchor="start" x="2605.82" y="-950.59" font-family="Helvetica,sans-Serif" font-style="italic" font-size="32.00" fill="#29235c">timestamp</text>
<polygon fill="none" stroke="#29235c" stroke-width="2" points="2399.1,-928.39 2399.1,-1230.39 2765.1,-1230.39 2765.1,-928.39 2399.1,-928.39"/>
</g>
<!-- positions -->
<g id="positions" class="node">
<title>positions</title>
<ellipse fill="none" stroke="black" stroke-width="0" cx="2582.1" cy="-1569.39" rx="260.43" ry="257.27"/>
<polygon fill="#1d71b8" stroke="transparent" points="2400.1,-1689.39 2400.1,-1749.39 2764.1,-1749.39 2764.1,-1689.39 2400.1,-1689.39"/>
<polygon fill="none" stroke="#29235c" points="2400.1,-1689.39 2400.1,-1749.39 2764.1,-1749.39 2764.1,-1689.39 2400.1,-1689.39"/>
<text text-anchor="start" x="2456.73" y="-1710.59" font-family="Helvetica,sans-Serif" font-weight="bold" font-size="32.00" fill="#ffffff"> &#160;&#160;&#160;&#160;&#160;&#160;positions &#160;&#160;&#160;&#160;&#160;&#160;</text>
<polygon fill="#e7e2dd" stroke="transparent" points="2400.1,-1629.39 2400.1,-1689.39 2764.1,-1689.39 2764.1,-1629.39 2400.1,-1629.39"/>
<polygon fill="none" stroke="#29235c" points="2400.1,-1629.39 2400.1,-1689.39 2764.1,-1689.39 2764.1,-1629.39 2400.1,-1629.39"/>
<text text-anchor="start" x="2411.1" y="-1650.59" font-family="Helvetica,sans-Serif" font-weight="bold" font-size="32.00" fill="#29235c">id</text>
<text text-anchor="start" x="2435.99" y="-1650.59" font-family="Helvetica,sans-Serif" font-size="32.00" fill="#29235c"> &#160;&#160;&#160;</text>
<text text-anchor="start" x="2719.32" y="-1650.59" font-family="Helvetica,sans-Serif" font-style="italic" font-size="32.00" fill="#29235c">int</text>
<polygon fill="#e7e2dd" stroke="transparent" points="2400.1,-1569.39 2400.1,-1629.39 2764.1,-1629.39 2764.1,-1569.39 2400.1,-1569.39"/>
<polygon fill="none" stroke="#29235c" points="2400.1,-1569.39 2400.1,-1629.39 2764.1,-1629.39 2764.1,-1569.39 2400.1,-1569.39"/>
<text text-anchor="start" x="2411.1" y="-1589.59" font-family="Helvetica,sans-Serif" font-size="32.00" fill="#29235c">name &#160;&#160;&#160;</text>
<text text-anchor="start" x="2607.34" y="-1590.59" font-family="Helvetica,sans-Serif" font-style="italic" font-size="32.00" fill="#29235c">varchar</text>
<text text-anchor="start" x="2714.01" y="-1590.59" font-family="Helvetica,sans-Serif" font-size="32.00" fill="#29235c"> </text>
<text text-anchor="start" x="2722.91" y="-1590.59" font-family="Helvetica,sans-Serif" font-weight="bold" font-size="32.00" fill="#29235c">(!)</text>
<polygon fill="#e7e2dd" stroke="transparent" points="2400.1,-1509.39 2400.1,-1569.39 2764.1,-1569.39 2764.1,-1509.39 2400.1,-1509.39"/>
<polygon fill="none" stroke="#29235c" points="2400.1,-1509.39 2400.1,-1569.39 2764.1,-1569.39 2764.1,-1509.39 2400.1,-1509.39"/>
<text text-anchor="start" x="2411.1" y="-1529.59" font-family="Helvetica,sans-Serif" font-size="32.00" fill="#29235c">department_id &#160;&#160;&#160;</text>
<text text-anchor="start" x="2719.32" y="-1530.59" font-family="Helvetica,sans-Serif" font-style="italic" font-size="32.00" fill="#29235c">int</text>
<polygon fill="#e7e2dd" stroke="transparent" points="2400.1,-1449.39 2400.1,-1509.39 2764.1,-1509.39 2764.1,-1449.39 2400.1,-1449.39"/>
<polygon fill="none" stroke="#29235c" points="2400.1,-1449.39 2400.1,-1509.39 2764.1,-1509.39 2764.1,-1449.39 2400.1,-1449.39"/>
<text text-anchor="start" x="2411.1" y="-1469.59" font-family="Helvetica,sans-Serif" font-size="32.00" fill="#29235c">created_at &#160;&#160;&#160;</text>
<text text-anchor="start" x="2605.55" y="-1470.59" font-family="Helvetica,sans-Serif" font-style="italic" font-size="32.00" fill="#29235c">timestamp</text>
<polygon fill="#e7e2dd" stroke="transparent" points="2400.1,-1389.39 2400.1,-1449.39 2764.1,-1449.39 2764.1,-1389.39 2400.1,-1389.39"/>
<polygon fill="none" stroke="#29235c" points="2400.1,-1389.39 2400.1,-1449.39 2764.1,-1449.39 2764.1,-1389.39 2400.1,-1389.39"/>
<text text-anchor="start" x="2410.77" y="-1409.59" font-family="Helvetica,sans-Serif" font-size="32.00" fill="#29235c">updated_at &#160;&#160;&#160;</text>
<text text-anchor="start" x="2605.82" y="-1410.59" font-family="Helvetica,sans-Serif" font-style="italic" font-size="32.00" fill="#29235c">timestamp</text>
<polygon fill="none" stroke="#29235c" stroke-width="2" points="2399.1,-1388.39 2399.1,-1750.39 2765.1,-1750.39 2765.1,-1388.39 2399.1,-1388.39"/>
</g>
<!-- departments -->
<g id="departments" class="node">
<title>departments</title>
<ellipse fill="none" stroke="black" stroke-width="0" cx="3138.53" cy="-1599.39" rx="260.43" ry="214.92"/>
<polygon fill="#1d71b8" stroke="transparent" points="2956.53,-1689.39 2956.53,-1749.39 3320.53,-1749.39 3320.53,-1689.39 2956.53,-1689.39"/>
<polygon fill="none" stroke="#29235c" points="2956.53,-1689.39 2956.53,-1749.39 3320.53,-1749.39 3320.53,-1689.39 2956.53,-1689.39"/>
<text text-anchor="start" x="2987.37" y="-1710.59" font-family="Helvetica,sans-Serif" font-weight="bold" font-size="32.00" fill="#ffffff"> &#160;&#160;&#160;&#160;&#160;&#160;departments &#160;&#160;&#160;&#160;&#160;&#160;</text>
<polygon fill="#e7e2dd" stroke="transparent" points="2956.53,-1629.39 2956.53,-1689.39 3320.53,-1689.39 3320.53,-1629.39 2956.53,-1629.39"/>
<polygon fill="none" stroke="#29235c" points="2956.53,-1629.39 2956.53,-1689.39 3320.53,-1689.39 3320.53,-1629.39 2956.53,-1629.39"/>
<text text-anchor="start" x="2967.53" y="-1650.59" font-family="Helvetica,sans-Serif" font-weight="bold" font-size="32.00" fill="#29235c">id</text>
<text text-anchor="start" x="2992.42" y="-1650.59" font-family="Helvetica,sans-Serif" font-size="32.00" fill="#29235c"> &#160;&#160;&#160;</text>
<text text-anchor="start" x="3275.75" y="-1650.59" font-family="Helvetica,sans-Serif" font-style="italic" font-size="32.00" fill="#29235c">int</text>
<polygon fill="#e7e2dd" stroke="transparent" points="2956.53,-1569.39 2956.53,-1629.39 3320.53,-1629.39 3320.53,-1569.39 2956.53,-1569.39"/>
<polygon fill="none" stroke="#29235c" points="2956.53,-1569.39 2956.53,-1629.39 3320.53,-1629.39 3320.53,-1569.39 2956.53,-1569.39"/>
<text text-anchor="start" x="2967.53" y="-1589.59" font-family="Helvetica,sans-Serif" font-size="32.00" fill="#29235c">name &#160;&#160;&#160;</text>
<text text-anchor="start" x="3163.77" y="-1590.59" font-family="Helvetica,sans-Serif" font-style="italic" font-size="32.00" fill="#29235c">varchar</text>
<text text-anchor="start" x="3270.44" y="-1590.59" font-family="Helvetica,sans-Serif" font-size="32.00" fill="#29235c"> </text>
<text text-anchor="start" x="3279.34" y="-1590.59" font-family="Helvetica,sans-Serif" font-weight="bold" font-size="32.00" fill="#29235c">(!)</text>
<polygon fill="#e7e2dd" stroke="transparent" points="2956.53,-1509.39 2956.53,-1569.39 3320.53,-1569.39 3320.53,-1509.39 2956.53,-1509.39"/>
<polygon fill="none" stroke="#29235c" points="2956.53,-1509.39 2956.53,-1569.39 3320.53,-1569.39 3320.53,-1509.39 2956.53,-1509.39"/>
<text text-anchor="start" x="2967.53" y="-1529.59" font-family="Helvetica,sans-Serif" font-size="32.00" fill="#29235c">created_at &#160;&#160;&#160;</text>
<text text-anchor="start" x="3161.98" y="-1530.59" font-family="Helvetica,sans-Serif" font-style="italic" font-size="32.00" fill="#29235c">timestamp</text>
<polygon fill="#e7e2dd" stroke="transparent" points="2956.53,-1449.39 2956.53,-1509.39 3320.53,-1509.39 3320.53,-1449.39 2956.53,-1449.39"/>
<polygon fill="none" stroke="#29235c" points="2956.53,-1449.39 2956.53,-1509.39 3320.53,-1509.39 3320.53,-1449.39 2956.53,-1449.39"/>
<text text-anchor="start" x="2967.2" y="-1469.59" font-family="Helvetica,sans-Serif" font-size="32.00" fill="#29235c">updated_at &#160;&#160;&#160;</text>
<text text-anchor="start" x="3162.26" y="-1470.59" font-family="Helvetica,sans-Serif" font-style="italic" font-size="32.00" fill="#29235c">timestamp</text>
<polygon fill="none" stroke="#29235c" stroke-width="2" points="2955.53,-1448.39 2955.53,-1750.39 3321.53,-1750.39 3321.53,-1448.39 2955.53,-1448.39"/>
</g>
<!-- positions&#45;&gt;departments -->
<!-- positions&#45;&gt;departments -->
<g id="edge2" class="edge">
<title>positions:e&#45;&gt;departments:w</title>
<path fill="none" stroke="#29235c" stroke-width="3" d="M2765.1,-1539.39C2861.63,-1539.39 2856.04,-1651.1 2945.38,-1658.95"/>
<polygon fill="#29235c" stroke="#29235c" stroke-width="3" points="2945.39,-1662.46 2955.53,-1659.39 2945.69,-1655.46 2945.39,-1662.46"/>
<text text-anchor="middle" x="2946.64" y="-1668.99" font-family="Helvetica,sans-Serif" font-size="32.00" fill="#29235c">1</text>
<text text-anchor="middle" x="2771.33" y="-1539.39" font-family="Helvetica,sans-Serif" font-size="32.00" fill="#29235c">*</text>
</g>
<!-- titles -->
<g id="titles" class="node">
<title>titles</title>
<ellipse fill="none" stroke="black" stroke-width="0" cx="2025.67" cy="-1509.39" rx="260.43" ry="342.48"/>
<polygon fill="#1d71b8" stroke="transparent" points="1843.67,-1689.39 1843.67,-1749.39 2207.67,-1749.39 2207.67,-1689.39 1843.67,-1689.39"/>
<polygon fill="none" stroke="#29235c" points="1843.67,-1689.39 1843.67,-1749.39 2207.67,-1749.39 2207.67,-1689.39 1843.67,-1689.39"/>
<text text-anchor="start" x="1930.54" y="-1710.59" font-family="Helvetica,sans-Serif" font-weight="bold" font-size="32.00" fill="#ffffff"> &#160;&#160;&#160;&#160;&#160;&#160;titles &#160;&#160;&#160;&#160;&#160;&#160;</text>
<polygon fill="#e7e2dd" stroke="transparent" points="1843.67,-1629.39 1843.67,-1689.39 2207.67,-1689.39 2207.67,-1629.39 1843.67,-1629.39"/>
<polygon fill="none" stroke="#29235c" points="1843.67,-1629.39 1843.67,-1689.39 2207.67,-1689.39 2207.67,-1629.39 1843.67,-1629.39"/>
<text text-anchor="start" x="1854.67" y="-1650.59" font-family="Helvetica,sans-Serif" font-weight="bold" font-size="32.00" fill="#29235c">id</text>
<text text-anchor="start" x="1879.56" y="-1650.59" font-family="Helvetica,sans-Serif" font-size="32.00" fill="#29235c"> &#160;&#160;&#160;</text>
<text text-anchor="start" x="2162.89" y="-1650.59" font-family="Helvetica,sans-Serif" font-style="italic" font-size="32.00" fill="#29235c">int</text>
<polygon fill="#e7e2dd" stroke="transparent" points="1843.67,-1569.39 1843.67,-1629.39 2207.67,-1629.39 2207.67,-1569.39 1843.67,-1569.39"/>
<polygon fill="none" stroke="#29235c" points="1843.67,-1569.39 1843.67,-1629.39 2207.67,-1629.39 2207.67,-1569.39 1843.67,-1569.39"/>
<text text-anchor="start" x="1854.67" y="-1589.59" font-family="Helvetica,sans-Serif" font-size="32.00" fill="#29235c">name &#160;&#160;&#160;</text>
<text text-anchor="start" x="2050.91" y="-1590.59" font-family="Helvetica,sans-Serif" font-style="italic" font-size="32.00" fill="#29235c">varchar</text>
<text text-anchor="start" x="2157.58" y="-1590.59" font-family="Helvetica,sans-Serif" font-size="32.00" fill="#29235c"> </text>
<text text-anchor="start" x="2166.48" y="-1590.59" font-family="Helvetica,sans-Serif" font-weight="bold" font-size="32.00" fill="#29235c">(!)</text>
<polygon fill="#e7e2dd" stroke="transparent" points="1843.67,-1509.39 1843.67,-1569.39 2207.67,-1569.39 2207.67,-1509.39 1843.67,-1509.39"/>
<polygon fill="none" stroke="#29235c" points="1843.67,-1509.39 1843.67,-1569.39 2207.67,-1569.39 2207.67,-1509.39 1843.67,-1509.39"/>
<text text-anchor="start" x="1854.67" y="-1529.59" font-family="Helvetica,sans-Serif" font-size="32.00" fill="#29235c">department_id &#160;&#160;&#160;</text>
<text text-anchor="start" x="2162.89" y="-1530.59" font-family="Helvetica,sans-Serif" font-style="italic" font-size="32.00" fill="#29235c">int</text>
<polygon fill="#e7e2dd" stroke="transparent" points="1843.67,-1449.39 1843.67,-1509.39 2207.67,-1509.39 2207.67,-1449.39 1843.67,-1449.39"/>
<polygon fill="none" stroke="#29235c" points="1843.67,-1449.39 1843.67,-1509.39 2207.67,-1509.39 2207.67,-1449.39 1843.67,-1449.39"/>
<text text-anchor="start" x="1854.67" y="-1469.59" font-family="Helvetica,sans-Serif" font-size="32.00" fill="#29235c">position_id &#160;&#160;&#160;</text>
<text text-anchor="start" x="2162.89" y="-1470.59" font-family="Helvetica,sans-Serif" font-style="italic" font-size="32.00" fill="#29235c">int</text>
<polygon fill="#e7e2dd" stroke="transparent" points="1843.67,-1389.39 1843.67,-1449.39 2207.67,-1449.39 2207.67,-1389.39 1843.67,-1389.39"/>
<polygon fill="none" stroke="#29235c" points="1843.67,-1389.39 1843.67,-1449.39 2207.67,-1449.39 2207.67,-1389.39 1843.67,-1389.39"/>
<text text-anchor="start" x="1854.67" y="-1409.59" font-family="Helvetica,sans-Serif" font-size="32.00" fill="#29235c">level_id &#160;&#160;&#160;</text>
<text text-anchor="start" x="2162.89" y="-1410.59" font-family="Helvetica,sans-Serif" font-style="italic" font-size="32.00" fill="#29235c">int</text>
<polygon fill="#e7e2dd" stroke="transparent" points="1843.67,-1329.39 1843.67,-1389.39 2207.67,-1389.39 2207.67,-1329.39 1843.67,-1329.39"/>
<polygon fill="none" stroke="#29235c" points="1843.67,-1329.39 1843.67,-1389.39 2207.67,-1389.39 2207.67,-1329.39 1843.67,-1329.39"/>
<text text-anchor="start" x="1854.67" y="-1349.59" font-family="Helvetica,sans-Serif" font-size="32.00" fill="#29235c">created_at &#160;&#160;&#160;</text>
<text text-anchor="start" x="2049.12" y="-1350.59" font-family="Helvetica,sans-Serif" font-style="italic" font-size="32.00" fill="#29235c">timestamp</text>
<polygon fill="#e7e2dd" stroke="transparent" points="1843.67,-1269.39 1843.67,-1329.39 2207.67,-1329.39 2207.67,-1269.39 1843.67,-1269.39"/>
<polygon fill="none" stroke="#29235c" points="1843.67,-1269.39 1843.67,-1329.39 2207.67,-1329.39 2207.67,-1269.39 1843.67,-1269.39"/>
<text text-anchor="start" x="1854.34" y="-1289.59" font-family="Helvetica,sans-Serif" font-size="32.00" fill="#29235c">updated_at &#160;&#160;&#160;</text>
<text text-anchor="start" x="2049.39" y="-1290.59" font-family="Helvetica,sans-Serif" font-style="italic" font-size="32.00" fill="#29235c">timestamp</text>
<polygon fill="none" stroke="#29235c" stroke-width="2" points="1842.67,-1268.39 1842.67,-1750.39 2208.67,-1750.39 2208.67,-1268.39 1842.67,-1268.39"/>
</g>
<!-- titles&#45;&gt;levels -->
<!-- titles&#45;&gt;levels -->
<g id="edge8" class="edge">
<title>titles:e&#45;&gt;levels:w</title>
<path fill="none" stroke="#29235c" stroke-width="3" d="M2208.67,-1419.39C2355.64,-1419.39 2253.65,-1152.36 2388.95,-1139.84"/>
<polygon fill="#29235c" stroke="#29235c" stroke-width="3" points="2389.27,-1143.33 2399.1,-1139.39 2388.96,-1136.34 2389.27,-1143.33"/>
<text text-anchor="middle" x="2390.21" y="-1110.59" font-family="Helvetica,sans-Serif" font-size="32.00" fill="#29235c">1</text>
<text text-anchor="middle" x="2202.45" y="-1390.59" font-family="Helvetica,sans-Serif" font-size="32.00" fill="#29235c">*</text>
</g>
<!-- titles&#45;&gt;positions -->
<!-- titles&#45;&gt;positions -->
<g id="edge6" class="edge">
<title>titles:e&#45;&gt;positions:w</title>
<path fill="none" stroke="#29235c" stroke-width="3" d="M2208.67,-1479.39C2321.61,-1479.39 2285.07,-1648.65 2388.96,-1658.9"/>
<polygon fill="#29235c" stroke="#29235c" stroke-width="3" points="2388.95,-1662.41 2399.1,-1659.39 2389.28,-1655.41 2388.95,-1662.41"/>
<text text-anchor="middle" x="2390.21" y="-1668.99" font-family="Helvetica,sans-Serif" font-size="32.00" fill="#29235c">1</text>
<text text-anchor="middle" x="2202.45" y="-1450.59" font-family="Helvetica,sans-Serif" font-size="32.00" fill="#29235c">*</text>
</g>
<!-- titles&#45;&gt;departments -->
<!-- titles&#45;&gt;departments -->
<g id="edge4" class="edge">
<title>titles:e&#45;&gt;departments:w</title>
<path fill="none" stroke="#29235c" stroke-width="3" d="M2208.67,-1539.39C2381.45,-1539.39 2258.51,-1328.98 2285.89,-1158.39 2296.63,-1091.44 2271.19,-900.42 2321.89,-855.39 2494.82,-701.78 2667.73,-703.66 2842.32,-855.39 2975.85,-971.43 2782.92,-1632.82 2945.4,-1658.61"/>
<polygon fill="#29235c" stroke="#29235c" stroke-width="3" points="2945.3,-1662.11 2955.53,-1659.39 2945.83,-1655.13 2945.3,-1662.11"/>
<text text-anchor="middle" x="2964.43" y="-1668.99" font-family="Helvetica,sans-Serif" font-size="32.00" fill="#29235c">1</text>
<text text-anchor="middle" x="2202.45" y="-1510.59" font-family="Helvetica,sans-Serif" font-size="32.00" fill="#29235c">*</text>
</g>
<!-- users -->
<g id="users" class="node">
<title>users</title>
<ellipse fill="none" stroke="black" stroke-width="0" cx="1411.26" cy="-1087.39" rx="318.4" ry="554.24"/>
<polygon fill="#1d71b8" stroke="transparent" points="1188.26,-1417.39 1188.26,-1477.39 1634.26,-1477.39 1634.26,-1417.39 1188.26,-1417.39"/>
<polygon fill="none" stroke="#29235c" points="1188.26,-1417.39 1188.26,-1477.39 1634.26,-1477.39 1634.26,-1417.39 1188.26,-1417.39"/>
<text text-anchor="start" x="1309.9" y="-1438.59" font-family="Helvetica,sans-Serif" font-weight="bold" font-size="32.00" fill="#ffffff"> &#160;&#160;&#160;&#160;&#160;&#160;users &#160;&#160;&#160;&#160;&#160;&#160;</text>
<polygon fill="#e7e2dd" stroke="transparent" points="1188.26,-1357.39 1188.26,-1417.39 1634.26,-1417.39 1634.26,-1357.39 1188.26,-1357.39"/>
<polygon fill="none" stroke="#29235c" points="1188.26,-1357.39 1188.26,-1417.39 1634.26,-1417.39 1634.26,-1357.39 1188.26,-1357.39"/>
<text text-anchor="start" x="1199.26" y="-1378.59" font-family="Helvetica,sans-Serif" font-weight="bold" font-size="32.00" fill="#29235c">id</text>
<text text-anchor="start" x="1224.15" y="-1378.59" font-family="Helvetica,sans-Serif" font-size="32.00" fill="#29235c"> &#160;&#160;&#160;</text>
<text text-anchor="start" x="1589.48" y="-1378.59" font-family="Helvetica,sans-Serif" font-style="italic" font-size="32.00" fill="#29235c">int</text>
<polygon fill="#e7e2dd" stroke="transparent" points="1188.26,-1297.39 1188.26,-1357.39 1634.26,-1357.39 1634.26,-1297.39 1188.26,-1297.39"/>
<polygon fill="none" stroke="#29235c" points="1188.26,-1297.39 1188.26,-1357.39 1634.26,-1357.39 1634.26,-1297.39 1188.26,-1297.39"/>
<text text-anchor="start" x="1199.26" y="-1317.59" font-family="Helvetica,sans-Serif" font-size="32.00" fill="#29235c">title_id &#160;&#160;&#160;</text>
<text text-anchor="start" x="1589.48" y="-1318.59" font-family="Helvetica,sans-Serif" font-style="italic" font-size="32.00" fill="#29235c">int</text>
<polygon fill="#e7e2dd" stroke="transparent" points="1188.26,-1237.39 1188.26,-1297.39 1634.26,-1297.39 1634.26,-1237.39 1188.26,-1237.39"/>
<polygon fill="none" stroke="#29235c" points="1188.26,-1237.39 1188.26,-1297.39 1634.26,-1297.39 1634.26,-1237.39 1188.26,-1237.39"/>
<text text-anchor="start" x="1199.26" y="-1257.59" font-family="Helvetica,sans-Serif" font-size="32.00" fill="#29235c">role_id &#160;&#160;&#160;</text>
<text text-anchor="start" x="1589.48" y="-1258.59" font-family="Helvetica,sans-Serif" font-style="italic" font-size="32.00" fill="#29235c">int</text>
<polygon fill="#e7e2dd" stroke="transparent" points="1188.26,-1177.39 1188.26,-1237.39 1634.26,-1237.39 1634.26,-1177.39 1188.26,-1177.39"/>
<polygon fill="none" stroke="#29235c" points="1188.26,-1177.39 1188.26,-1237.39 1634.26,-1237.39 1634.26,-1177.39 1188.26,-1177.39"/>
<text text-anchor="start" x="1199.26" y="-1197.59" font-family="Helvetica,sans-Serif" font-size="32.00" fill="#29235c">name &#160;&#160;&#160;</text>
<text text-anchor="start" x="1477.5" y="-1198.59" font-family="Helvetica,sans-Serif" font-style="italic" font-size="32.00" fill="#29235c">varchar</text>
<text text-anchor="start" x="1584.17" y="-1198.59" font-family="Helvetica,sans-Serif" font-size="32.00" fill="#29235c"> </text>
<text text-anchor="start" x="1593.06" y="-1198.59" font-family="Helvetica,sans-Serif" font-weight="bold" font-size="32.00" fill="#29235c">(!)</text>
<polygon fill="#e7e2dd" stroke="transparent" points="1188.26,-1117.39 1188.26,-1177.39 1634.26,-1177.39 1634.26,-1117.39 1188.26,-1117.39"/>
<polygon fill="none" stroke="#29235c" points="1188.26,-1117.39 1188.26,-1177.39 1634.26,-1177.39 1634.26,-1117.39 1188.26,-1117.39"/>
<text text-anchor="start" x="1199.26" y="-1137.59" font-family="Helvetica,sans-Serif" font-size="32.00" fill="#29235c">email &#160;&#160;&#160;</text>
<text text-anchor="start" x="1477.5" y="-1138.59" font-family="Helvetica,sans-Serif" font-style="italic" font-size="32.00" fill="#29235c">varchar</text>
<text text-anchor="start" x="1584.17" y="-1138.59" font-family="Helvetica,sans-Serif" font-size="32.00" fill="#29235c"> </text>
<text text-anchor="start" x="1593.06" y="-1138.59" font-family="Helvetica,sans-Serif" font-weight="bold" font-size="32.00" fill="#29235c">(!)</text>
<polygon fill="#e7e2dd" stroke="transparent" points="1188.26,-1057.39 1188.26,-1117.39 1634.26,-1117.39 1634.26,-1057.39 1188.26,-1057.39"/>
<polygon fill="none" stroke="#29235c" points="1188.26,-1057.39 1188.26,-1117.39 1634.26,-1117.39 1634.26,-1057.39 1188.26,-1057.39"/>
<text text-anchor="start" x="1199.07" y="-1077.59" font-family="Helvetica,sans-Serif" font-size="32.00" fill="#29235c">email_verified_at &#160;&#160;&#160;</text>
<text text-anchor="start" x="1475.98" y="-1078.59" font-family="Helvetica,sans-Serif" font-style="italic" font-size="32.00" fill="#29235c">timestamp</text>
<polygon fill="#e7e2dd" stroke="transparent" points="1188.26,-997.39 1188.26,-1057.39 1634.26,-1057.39 1634.26,-997.39 1188.26,-997.39"/>
<polygon fill="none" stroke="#29235c" points="1188.26,-997.39 1188.26,-1057.39 1634.26,-1057.39 1634.26,-997.39 1188.26,-997.39"/>
<text text-anchor="start" x="1199.26" y="-1017.59" font-family="Helvetica,sans-Serif" font-size="32.00" fill="#29235c">password &#160;&#160;&#160;</text>
<text text-anchor="start" x="1477.5" y="-1018.59" font-family="Helvetica,sans-Serif" font-style="italic" font-size="32.00" fill="#29235c">varchar</text>
<text text-anchor="start" x="1584.17" y="-1018.59" font-family="Helvetica,sans-Serif" font-size="32.00" fill="#29235c"> </text>
<text text-anchor="start" x="1593.06" y="-1018.59" font-family="Helvetica,sans-Serif" font-weight="bold" font-size="32.00" fill="#29235c">(!)</text>
<polygon fill="#e7e2dd" stroke="transparent" points="1188.26,-937.39 1188.26,-997.39 1634.26,-997.39 1634.26,-937.39 1188.26,-937.39"/>
<polygon fill="none" stroke="#29235c" points="1188.26,-937.39 1188.26,-997.39 1634.26,-997.39 1634.26,-937.39 1188.26,-937.39"/>
<text text-anchor="start" x="1199.26" y="-957.59" font-family="Helvetica,sans-Serif" font-size="32.00" fill="#29235c">remember_token &#160;&#160;&#160;</text>
<text text-anchor="start" x="1516.59" y="-958.59" font-family="Helvetica,sans-Serif" font-style="italic" font-size="32.00" fill="#29235c">varchar</text>
<polygon fill="#e7e2dd" stroke="transparent" points="1188.26,-877.39 1188.26,-937.39 1634.26,-937.39 1634.26,-877.39 1188.26,-877.39"/>
<polygon fill="none" stroke="#29235c" points="1188.26,-877.39 1188.26,-937.39 1634.26,-937.39 1634.26,-877.39 1188.26,-877.39"/>
<text text-anchor="start" x="1199.26" y="-897.59" font-family="Helvetica,sans-Serif" font-size="32.00" fill="#29235c">custom_fields &#160;&#160;&#160;</text>
<text text-anchor="start" x="1564.58" y="-898.59" font-family="Helvetica,sans-Serif" font-style="italic" font-size="32.00" fill="#29235c">json</text>
<polygon fill="#e7e2dd" stroke="transparent" points="1188.26,-817.39 1188.26,-877.39 1634.26,-877.39 1634.26,-817.39 1188.26,-817.39"/>
<polygon fill="none" stroke="#29235c" points="1188.26,-817.39 1188.26,-877.39 1634.26,-877.39 1634.26,-817.39 1188.26,-817.39"/>
<text text-anchor="start" x="1199.26" y="-837.59" font-family="Helvetica,sans-Serif" font-size="32.00" fill="#29235c">avatar_url &#160;&#160;&#160;</text>
<text text-anchor="start" x="1516.59" y="-838.59" font-family="Helvetica,sans-Serif" font-style="italic" font-size="32.00" fill="#29235c">varchar</text>
<polygon fill="#e7e2dd" stroke="transparent" points="1188.26,-757.39 1188.26,-817.39 1634.26,-817.39 1634.26,-757.39 1188.26,-757.39"/>
<polygon fill="none" stroke="#29235c" points="1188.26,-757.39 1188.26,-817.39 1634.26,-817.39 1634.26,-757.39 1188.26,-757.39"/>
<text text-anchor="start" x="1199.26" y="-777.59" font-family="Helvetica,sans-Serif" font-size="32.00" fill="#29235c">created_at &#160;&#160;&#160;</text>
<text text-anchor="start" x="1475.7" y="-778.59" font-family="Helvetica,sans-Serif" font-style="italic" font-size="32.00" fill="#29235c">timestamp</text>
<polygon fill="#e7e2dd" stroke="transparent" points="1188.26,-697.39 1188.26,-757.39 1634.26,-757.39 1634.26,-697.39 1188.26,-697.39"/>
<polygon fill="none" stroke="#29235c" points="1188.26,-697.39 1188.26,-757.39 1634.26,-757.39 1634.26,-697.39 1188.26,-697.39"/>
<text text-anchor="start" x="1199.26" y="-717.59" font-family="Helvetica,sans-Serif" font-size="32.00" fill="#29235c">updated_at &#160;&#160;&#160;</text>
<text text-anchor="start" x="1475.7" y="-718.59" font-family="Helvetica,sans-Serif" font-style="italic" font-size="32.00" fill="#29235c">timestamp</text>
<polygon fill="none" stroke="#29235c" stroke-width="2" points="1187.26,-696.39 1187.26,-1478.39 1635.26,-1478.39 1635.26,-696.39 1187.26,-696.39"/>
</g>
<!-- users&#45;&gt;roles -->
<!-- users&#45;&gt;roles -->
<g id="edge12" class="edge">
<title>users:e&#45;&gt;roles:w</title>
<path fill="none" stroke="#29235c" stroke-width="3" d="M1635.26,-1267.39C1784.07,-1267.39 1694.72,-1007.03 1832.36,-994.83"/>
<polygon fill="#29235c" stroke="#29235c" stroke-width="3" points="1832.83,-998.31 1842.67,-994.39 1832.53,-991.32 1832.83,-998.31"/>
<text text-anchor="middle" x="1833.78" y="-965.59" font-family="Helvetica,sans-Serif" font-size="32.00" fill="#29235c">1</text>
<text text-anchor="middle" x="1629.04" y="-1238.59" font-family="Helvetica,sans-Serif" font-size="32.00" fill="#29235c">*</text>
</g>
<!-- users&#45;&gt;titles -->
<!-- users&#45;&gt;titles -->
<g id="edge10" class="edge">
<title>users:e&#45;&gt;titles:w</title>
<path fill="none" stroke="#29235c" stroke-width="3" d="M1635.26,-1327.39C1805.68,-1327.39 1674.32,-1645.91 1832.36,-1658.97"/>
<polygon fill="#29235c" stroke="#29235c" stroke-width="3" points="1832.54,-1662.48 1842.67,-1659.39 1832.82,-1655.49 1832.54,-1662.48"/>
<text text-anchor="middle" x="1833.78" y="-1668.99" font-family="Helvetica,sans-Serif" font-size="32.00" fill="#29235c">1</text>
<text text-anchor="middle" x="1626.37" y="-1298.59" font-family="Helvetica,sans-Serif" font-size="32.00" fill="#29235c">1</text>
</g>
<!-- backlogs -->
<g id="backlogs" class="node">
<title>backlogs</title>
<ellipse fill="none" stroke="black" stroke-width="0" cx="796.85" cy="-687.39" rx="260.43" ry="469.54"/>
<polygon fill="#1d71b8" stroke="transparent" points="614.85,-957.39 614.85,-1017.39 978.85,-1017.39 978.85,-957.39 614.85,-957.39"/>
<polygon fill="none" stroke="#29235c" points="614.85,-957.39 614.85,-1017.39 978.85,-1017.39 978.85,-957.39 614.85,-957.39"/>
<text text-anchor="start" x="671.47" y="-978.59" font-family="Helvetica,sans-Serif" font-weight="bold" font-size="32.00" fill="#ffffff"> &#160;&#160;&#160;&#160;&#160;&#160;backlogs &#160;&#160;&#160;&#160;&#160;&#160;</text>
<polygon fill="#e7e2dd" stroke="transparent" points="614.85,-897.39 614.85,-957.39 978.85,-957.39 978.85,-897.39 614.85,-897.39"/>
<polygon fill="none" stroke="#29235c" points="614.85,-897.39 614.85,-957.39 978.85,-957.39 978.85,-897.39 614.85,-897.39"/>
<text text-anchor="start" x="625.85" y="-918.59" font-family="Helvetica,sans-Serif" font-weight="bold" font-size="32.00" fill="#29235c">id</text>
<text text-anchor="start" x="650.74" y="-918.59" font-family="Helvetica,sans-Serif" font-size="32.00" fill="#29235c"> &#160;&#160;&#160;</text>
<text text-anchor="start" x="934.06" y="-918.59" font-family="Helvetica,sans-Serif" font-style="italic" font-size="32.00" fill="#29235c">int</text>
<polygon fill="#e7e2dd" stroke="transparent" points="614.85,-837.39 614.85,-897.39 978.85,-897.39 978.85,-837.39 614.85,-837.39"/>
<polygon fill="none" stroke="#29235c" points="614.85,-837.39 614.85,-897.39 978.85,-897.39 978.85,-837.39 614.85,-837.39"/>
<text text-anchor="start" x="625.85" y="-857.59" font-family="Helvetica,sans-Serif" font-size="32.00" fill="#29235c">pic &#160;&#160;&#160;</text>
<text text-anchor="start" x="934.06" y="-858.59" font-family="Helvetica,sans-Serif" font-style="italic" font-size="32.00" fill="#29235c">int</text>
<polygon fill="#e7e2dd" stroke="transparent" points="614.85,-777.39 614.85,-837.39 978.85,-837.39 978.85,-777.39 614.85,-777.39"/>
<polygon fill="none" stroke="#29235c" points="614.85,-777.39 614.85,-837.39 978.85,-837.39 978.85,-777.39 614.85,-777.39"/>
<text text-anchor="start" x="625.85" y="-797.59" font-family="Helvetica,sans-Serif" font-size="32.00" fill="#29235c">project_id &#160;&#160;&#160;</text>
<text text-anchor="start" x="934.06" y="-798.59" font-family="Helvetica,sans-Serif" font-style="italic" font-size="32.00" fill="#29235c">int</text>
<polygon fill="#e7e2dd" stroke="transparent" points="614.85,-717.39 614.85,-777.39 978.85,-777.39 978.85,-717.39 614.85,-717.39"/>
<polygon fill="none" stroke="#29235c" points="614.85,-717.39 614.85,-777.39 978.85,-777.39 978.85,-717.39 614.85,-717.39"/>
<text text-anchor="start" x="625.85" y="-737.59" font-family="Helvetica,sans-Serif" font-size="32.00" fill="#29235c">code &#160;&#160;&#160;</text>
<text text-anchor="start" x="861.17" y="-738.59" font-family="Helvetica,sans-Serif" font-style="italic" font-size="32.00" fill="#29235c">varchar</text>
<polygon fill="#e7e2dd" stroke="transparent" points="614.85,-657.39 614.85,-717.39 978.85,-717.39 978.85,-657.39 614.85,-657.39"/>
<polygon fill="none" stroke="#29235c" points="614.85,-657.39 614.85,-717.39 978.85,-717.39 978.85,-657.39 614.85,-657.39"/>
<text text-anchor="start" x="625.85" y="-677.59" font-family="Helvetica,sans-Serif" font-size="32.00" fill="#29235c">priority &#160;&#160;&#160;</text>
<text text-anchor="start" x="854.08" y="-678.59" font-family="Helvetica,sans-Serif" font-style="italic" font-size="32.00" fill="#29235c">prioritas</text>
<polygon fill="#e7e2dd" stroke="transparent" points="614.85,-597.39 614.85,-657.39 978.85,-657.39 978.85,-597.39 614.85,-597.39"/>
<polygon fill="none" stroke="#29235c" points="614.85,-597.39 614.85,-657.39 978.85,-657.39 978.85,-597.39 614.85,-597.39"/>
<text text-anchor="start" x="625.85" y="-617.59" font-family="Helvetica,sans-Serif" font-size="32.00" fill="#29235c">description &#160;&#160;&#160;</text>
<text text-anchor="start" x="916.27" y="-618.59" font-family="Helvetica,sans-Serif" font-style="italic" font-size="32.00" fill="#29235c">text</text>
<polygon fill="#e7e2dd" stroke="transparent" points="614.85,-537.39 614.85,-597.39 978.85,-597.39 978.85,-537.39 614.85,-537.39"/>
<polygon fill="none" stroke="#29235c" points="614.85,-537.39 614.85,-597.39 978.85,-597.39 978.85,-537.39 614.85,-537.39"/>
<text text-anchor="start" x="625.85" y="-557.59" font-family="Helvetica,sans-Serif" font-size="32.00" fill="#29235c">start_date &#160;&#160;&#160;</text>
<text text-anchor="start" x="905.59" y="-558.59" font-family="Helvetica,sans-Serif" font-style="italic" font-size="32.00" fill="#29235c">date</text>
<polygon fill="#e7e2dd" stroke="transparent" points="614.85,-477.39 614.85,-537.39 978.85,-537.39 978.85,-477.39 614.85,-477.39"/>
<polygon fill="none" stroke="#29235c" points="614.85,-477.39 614.85,-537.39 978.85,-537.39 978.85,-477.39 614.85,-477.39"/>
<text text-anchor="start" x="625.85" y="-497.59" font-family="Helvetica,sans-Serif" font-size="32.00" fill="#29235c">end_date &#160;&#160;&#160;</text>
<text text-anchor="start" x="905.59" y="-498.59" font-family="Helvetica,sans-Serif" font-style="italic" font-size="32.00" fill="#29235c">date</text>
<polygon fill="#e7e2dd" stroke="transparent" points="614.85,-417.39 614.85,-477.39 978.85,-477.39 978.85,-417.39 614.85,-417.39"/>
<polygon fill="none" stroke="#29235c" points="614.85,-417.39 614.85,-477.39 978.85,-477.39 978.85,-417.39 614.85,-417.39"/>
<text text-anchor="start" x="625.85" y="-437.59" font-family="Helvetica,sans-Serif" font-size="32.00" fill="#29235c">created_at &#160;&#160;&#160;</text>
<text text-anchor="start" x="820.29" y="-438.59" font-family="Helvetica,sans-Serif" font-style="italic" font-size="32.00" fill="#29235c">timestamp</text>
<polygon fill="#e7e2dd" stroke="transparent" points="614.85,-357.39 614.85,-417.39 978.85,-417.39 978.85,-357.39 614.85,-357.39"/>
<polygon fill="none" stroke="#29235c" points="614.85,-357.39 614.85,-417.39 978.85,-417.39 978.85,-357.39 614.85,-357.39"/>
<text text-anchor="start" x="625.51" y="-377.59" font-family="Helvetica,sans-Serif" font-size="32.00" fill="#29235c">updated_at &#160;&#160;&#160;</text>
<text text-anchor="start" x="820.57" y="-378.59" font-family="Helvetica,sans-Serif" font-style="italic" font-size="32.00" fill="#29235c">timestamp</text>
<polygon fill="none" stroke="#29235c" stroke-width="2" points="613.85,-356.39 613.85,-1018.39 979.85,-1018.39 979.85,-356.39 613.85,-356.39"/>
</g>
<!-- backlogs&#45;&gt;projects -->
<!-- backlogs&#45;&gt;projects -->
<g id="edge16" class="edge">
<title>backlogs:e&#45;&gt;projects:w</title>
<path fill="none" stroke="#29235c" stroke-width="3" d="M979.85,-807.39C1115.32,-807.39 1026.17,-642.19 1093.06,-524.39 1140.22,-441.33 1130.09,-353.77 1218.23,-347.72"/>
<polygon fill="#29235c" stroke="#29235c" stroke-width="3" points="1218.38,-351.22 1228.26,-347.39 1218.15,-344.22 1218.38,-351.22"/>
<text text-anchor="middle" x="1219.37" y="-318.59" font-family="Helvetica,sans-Serif" font-size="32.00" fill="#29235c">1</text>
<text text-anchor="middle" x="986.07" y="-778.59" font-family="Helvetica,sans-Serif" font-size="32.00" fill="#29235c">*</text>
</g>
<!-- backlogs&#45;&gt;users -->
<!-- backlogs&#45;&gt;users -->
<g id="edge14" class="edge">
<title>backlogs:e&#45;&gt;users:w</title>
<path fill="none" stroke="#29235c" stroke-width="3" d="M979.85,-867.39C1225.14,-867.39 946.55,-1372.76 1177.01,-1387.08"/>
<polygon fill="#29235c" stroke="#29235c" stroke-width="3" points="1177.16,-1390.58 1187.26,-1387.39 1177.37,-1383.59 1177.16,-1390.58"/>
<text text-anchor="middle" x="1178.37" y="-1358.59" font-family="Helvetica,sans-Serif" font-size="32.00" fill="#29235c">1</text>
<text text-anchor="middle" x="986.07" y="-838.59" font-family="Helvetica,sans-Serif" font-size="32.00" fill="#29235c">*</text>
</g>
<!-- backlog_items -->
<g id="backlog_items" class="node">
<title>backlog_items</title>
<ellipse fill="none" stroke="black" stroke-width="0" cx="250.32" cy="-957.39" rx="250.13" ry="87.86"/>
<polygon fill="#1d71b8" stroke="transparent" points="75.32,-957.39 75.32,-1017.39 425.32,-1017.39 425.32,-957.39 75.32,-957.39"/>
<polygon fill="none" stroke="#29235c" points="75.32,-957.39 75.32,-1017.39 425.32,-1017.39 425.32,-957.39 75.32,-957.39"/>
<text text-anchor="start" x="85.83" y="-978.59" font-family="Helvetica,sans-Serif" font-weight="bold" font-size="32.00" fill="#ffffff"> &#160;&#160;&#160;&#160;&#160;&#160;backlog_items &#160;&#160;&#160;&#160;&#160;&#160;</text>
<polygon fill="#e7e2dd" stroke="transparent" points="75.32,-897.39 75.32,-957.39 425.32,-957.39 425.32,-897.39 75.32,-897.39"/>
<polygon fill="none" stroke="#29235c" points="75.32,-897.39 75.32,-957.39 425.32,-957.39 425.32,-897.39 75.32,-897.39"/>
<text text-anchor="start" x="86.32" y="-917.59" font-family="Helvetica,sans-Serif" font-size="32.00" fill="#29235c">backlog_id &#160;&#160;&#160;</text>
<text text-anchor="start" x="380.53" y="-918.59" font-family="Helvetica,sans-Serif" font-style="italic" font-size="32.00" fill="#29235c">int</text>
<polygon fill="none" stroke="#29235c" stroke-width="2" points="74.32,-896.39 74.32,-1018.39 426.32,-1018.39 426.32,-896.39 74.32,-896.39"/>
</g>
<!-- backlog_items&#45;&gt;backlogs -->
<!-- backlog_items&#45;&gt;backlogs -->
<g id="edge18" class="edge">
<title>backlog_items:e&#45;&gt;backlogs:w</title>
<path fill="none" stroke="#29235c" stroke-width="3" d="M426.32,-927.39C506.08,-927.39 528.59,-927.39 603.44,-927.39"/>
<polygon fill="#29235c" stroke="#29235c" stroke-width="3" points="603.85,-930.89 613.85,-927.39 603.85,-923.89 603.85,-930.89"/>
<text text-anchor="middle" x="622.74" y="-898.59" font-family="Helvetica,sans-Serif" font-size="32.00" fill="#29235c">1</text>
<text text-anchor="middle" x="420.09" y="-898.59" font-family="Helvetica,sans-Serif" font-size="32.00" fill="#29235c">*</text>
</g>
</g>
</svg>
