<?xml version="1.0" encoding="UTF-8" standalone="no"?>
<!DOCTYPE svg PUBLIC "-//W3C//DTD SVG 1.1//EN"
 "http://www.w3.org/Graphics/SVG/1.1/DTD/svg11.dtd">
<!-- Generated by graphviz version 2.47.0 (20210316.0004)
 -->
<!-- Title: dbml Pages: 1 -->
<svg width="1725pt" height="2013pt"
 viewBox="0.00 0.00 1724.73 2012.77" xmlns="http://www.w3.org/2000/svg" xmlns:xlink="http://www.w3.org/1999/xlink">
<g id="graph0" class="graph" transform="scale(1 1) rotate(0) translate(4 2008.77)">
<title>dbml</title>
<!-- modules -->
<g id="modules" class="node">
<title>modules</title>
<ellipse fill="none" stroke="black" stroke-width="0" cx="874.63" cy="-257.39" rx="260.43" ry="257.27"/>
<polygon fill="#1d71b8" stroke="transparent" points="692.63,-377.39 692.63,-437.39 1056.63,-437.39 1056.63,-377.39 692.63,-377.39"/>
<polygon fill="none" stroke="#29235c" points="692.63,-377.39 692.63,-437.39 1056.63,-437.39 1056.63,-377.39 692.63,-377.39"/>
<text text-anchor="start" x="751.92" y="-398.59" font-family="Helvetica,sans-Serif" font-weight="bold" font-size="32.00" fill="#ffffff"> &#160;&#160;&#160;&#160;&#160;&#160;modules &#160;&#160;&#160;&#160;&#160;&#160;</text>
<polygon fill="#e7e2dd" stroke="transparent" points="692.63,-317.39 692.63,-377.39 1056.63,-377.39 1056.63,-317.39 692.63,-317.39"/>
<polygon fill="none" stroke="#29235c" points="692.63,-317.39 692.63,-377.39 1056.63,-377.39 1056.63,-317.39 692.63,-317.39"/>
<text text-anchor="start" x="703.63" y="-338.59" font-family="Helvetica,sans-Serif" font-weight="bold" font-size="32.00" fill="#29235c">id</text>
<text text-anchor="start" x="728.52" y="-338.59" font-family="Helvetica,sans-Serif" font-size="32.00" fill="#29235c"> &#160;&#160;&#160;</text>
<text text-anchor="start" x="1011.85" y="-338.59" font-family="Helvetica,sans-Serif" font-style="italic" font-size="32.00" fill="#29235c">int</text>
<polygon fill="#e7e2dd" stroke="transparent" points="692.63,-257.39 692.63,-317.39 1056.63,-317.39 1056.63,-257.39 692.63,-257.39"/>
<polygon fill="none" stroke="#29235c" points="692.63,-257.39 692.63,-317.39 1056.63,-317.39 1056.63,-257.39 692.63,-257.39"/>
<text text-anchor="start" x="703.63" y="-277.59" font-family="Helvetica,sans-Serif" font-size="32.00" fill="#29235c">nama &#160;&#160;&#160;</text>
<text text-anchor="start" x="967.4" y="-278.59" font-family="Helvetica,sans-Serif" font-style="italic" font-size="32.00" fill="#29235c">string</text>
<polygon fill="#e7e2dd" stroke="transparent" points="692.63,-197.39 692.63,-257.39 1056.63,-257.39 1056.63,-197.39 692.63,-197.39"/>
<polygon fill="none" stroke="#29235c" points="692.63,-197.39 692.63,-257.39 1056.63,-257.39 1056.63,-197.39 692.63,-197.39"/>
<text text-anchor="start" x="703.63" y="-217.59" font-family="Helvetica,sans-Serif" font-size="32.00" fill="#29235c">tipe &#160;&#160;&#160;</text>
<text text-anchor="start" x="967.4" y="-218.59" font-family="Helvetica,sans-Serif" font-style="italic" font-size="32.00" fill="#29235c">string</text>
<polygon fill="#e7e2dd" stroke="transparent" points="692.63,-137.39 692.63,-197.39 1056.63,-197.39 1056.63,-137.39 692.63,-137.39"/>
<polygon fill="none" stroke="#29235c" points="692.63,-137.39 692.63,-197.39 1056.63,-197.39 1056.63,-137.39 692.63,-137.39"/>
<text text-anchor="start" x="703.63" y="-157.59" font-family="Helvetica,sans-Serif" font-size="32.00" fill="#29235c">created_at &#160;&#160;&#160;</text>
<text text-anchor="start" x="898.07" y="-158.59" font-family="Helvetica,sans-Serif" font-style="italic" font-size="32.00" fill="#29235c">timestamp</text>
<polygon fill="#e7e2dd" stroke="transparent" points="692.63,-77.39 692.63,-137.39 1056.63,-137.39 1056.63,-77.39 692.63,-77.39"/>
<polygon fill="none" stroke="#29235c" points="692.63,-77.39 692.63,-137.39 1056.63,-137.39 1056.63,-77.39 692.63,-77.39"/>
<text text-anchor="start" x="703.3" y="-97.59" font-family="Helvetica,sans-Serif" font-size="32.00" fill="#29235c">updated_at &#160;&#160;&#160;</text>
<text text-anchor="start" x="898.35" y="-98.59" font-family="Helvetica,sans-Serif" font-style="italic" font-size="32.00" fill="#29235c">timestamp</text>
<polygon fill="none" stroke="#29235c" stroke-width="2" points="691.63,-76.39 691.63,-438.39 1057.63,-438.39 1057.63,-76.39 691.63,-76.39"/>
</g>
<!-- users -->
<g id="users" class="node">
<title>users</title>
<ellipse fill="none" stroke="black" stroke-width="0" cx="874.63" cy="-1002.39" rx="318.4" ry="469.54"/>
<polygon fill="#1d71b8" stroke="transparent" points="651.63,-1272.39 651.63,-1332.39 1097.63,-1332.39 1097.63,-1272.39 651.63,-1272.39"/>
<polygon fill="none" stroke="#29235c" points="651.63,-1272.39 651.63,-1332.39 1097.63,-1332.39 1097.63,-1272.39 651.63,-1272.39"/>
<text text-anchor="start" x="773.26" y="-1293.59" font-family="Helvetica,sans-Serif" font-weight="bold" font-size="32.00" fill="#ffffff"> &#160;&#160;&#160;&#160;&#160;&#160;users &#160;&#160;&#160;&#160;&#160;&#160;</text>
<polygon fill="#e7e2dd" stroke="transparent" points="651.63,-1212.39 651.63,-1272.39 1097.63,-1272.39 1097.63,-1212.39 651.63,-1212.39"/>
<polygon fill="none" stroke="#29235c" points="651.63,-1212.39 651.63,-1272.39 1097.63,-1272.39 1097.63,-1212.39 651.63,-1212.39"/>
<text text-anchor="start" x="662.63" y="-1233.59" font-family="Helvetica,sans-Serif" font-weight="bold" font-size="32.00" fill="#29235c">id</text>
<text text-anchor="start" x="687.52" y="-1233.59" font-family="Helvetica,sans-Serif" font-size="32.00" fill="#29235c"> &#160;&#160;&#160;</text>
<text text-anchor="start" x="1052.85" y="-1233.59" font-family="Helvetica,sans-Serif" font-style="italic" font-size="32.00" fill="#29235c">int</text>
<polygon fill="#e7e2dd" stroke="transparent" points="651.63,-1152.39 651.63,-1212.39 1097.63,-1212.39 1097.63,-1152.39 651.63,-1152.39"/>
<polygon fill="none" stroke="#29235c" points="651.63,-1152.39 651.63,-1212.39 1097.63,-1212.39 1097.63,-1152.39 651.63,-1152.39"/>
<text text-anchor="start" x="662.63" y="-1172.59" font-family="Helvetica,sans-Serif" font-size="32.00" fill="#29235c">name &#160;&#160;&#160;</text>
<text text-anchor="start" x="940.87" y="-1173.59" font-family="Helvetica,sans-Serif" font-style="italic" font-size="32.00" fill="#29235c">varchar</text>
<text text-anchor="start" x="1047.54" y="-1173.59" font-family="Helvetica,sans-Serif" font-size="32.00" fill="#29235c"> </text>
<text text-anchor="start" x="1056.43" y="-1173.59" font-family="Helvetica,sans-Serif" font-weight="bold" font-size="32.00" fill="#29235c">(!)</text>
<polygon fill="#e7e2dd" stroke="transparent" points="651.63,-1092.39 651.63,-1152.39 1097.63,-1152.39 1097.63,-1092.39 651.63,-1092.39"/>
<polygon fill="none" stroke="#29235c" points="651.63,-1092.39 651.63,-1152.39 1097.63,-1152.39 1097.63,-1092.39 651.63,-1092.39"/>
<text text-anchor="start" x="662.63" y="-1112.59" font-family="Helvetica,sans-Serif" font-size="32.00" fill="#29235c">email &#160;&#160;&#160;</text>
<text text-anchor="start" x="940.87" y="-1113.59" font-family="Helvetica,sans-Serif" font-style="italic" font-size="32.00" fill="#29235c">varchar</text>
<text text-anchor="start" x="1047.54" y="-1113.59" font-family="Helvetica,sans-Serif" font-size="32.00" fill="#29235c"> </text>
<text text-anchor="start" x="1056.43" y="-1113.59" font-family="Helvetica,sans-Serif" font-weight="bold" font-size="32.00" fill="#29235c">(!)</text>
<polygon fill="#e7e2dd" stroke="transparent" points="651.63,-1032.39 651.63,-1092.39 1097.63,-1092.39 1097.63,-1032.39 651.63,-1032.39"/>
<polygon fill="none" stroke="#29235c" points="651.63,-1032.39 651.63,-1092.39 1097.63,-1092.39 1097.63,-1032.39 651.63,-1032.39"/>
<text text-anchor="start" x="662.44" y="-1052.59" font-family="Helvetica,sans-Serif" font-size="32.00" fill="#29235c">email_verified_at &#160;&#160;&#160;</text>
<text text-anchor="start" x="939.35" y="-1053.59" font-family="Helvetica,sans-Serif" font-style="italic" font-size="32.00" fill="#29235c">timestamp</text>
<polygon fill="#e7e2dd" stroke="transparent" points="651.63,-972.39 651.63,-1032.39 1097.63,-1032.39 1097.63,-972.39 651.63,-972.39"/>
<polygon fill="none" stroke="#29235c" points="651.63,-972.39 651.63,-1032.39 1097.63,-1032.39 1097.63,-972.39 651.63,-972.39"/>
<text text-anchor="start" x="662.63" y="-992.59" font-family="Helvetica,sans-Serif" font-size="32.00" fill="#29235c">password &#160;&#160;&#160;</text>
<text text-anchor="start" x="940.87" y="-993.59" font-family="Helvetica,sans-Serif" font-style="italic" font-size="32.00" fill="#29235c">varchar</text>
<text text-anchor="start" x="1047.54" y="-993.59" font-family="Helvetica,sans-Serif" font-size="32.00" fill="#29235c"> </text>
<text text-anchor="start" x="1056.43" y="-993.59" font-family="Helvetica,sans-Serif" font-weight="bold" font-size="32.00" fill="#29235c">(!)</text>
<polygon fill="#e7e2dd" stroke="transparent" points="651.63,-912.39 651.63,-972.39 1097.63,-972.39 1097.63,-912.39 651.63,-912.39"/>
<polygon fill="none" stroke="#29235c" points="651.63,-912.39 651.63,-972.39 1097.63,-972.39 1097.63,-912.39 651.63,-912.39"/>
<text text-anchor="start" x="662.63" y="-932.59" font-family="Helvetica,sans-Serif" font-size="32.00" fill="#29235c">remember_token &#160;&#160;&#160;</text>
<text text-anchor="start" x="979.96" y="-933.59" font-family="Helvetica,sans-Serif" font-style="italic" font-size="32.00" fill="#29235c">varchar</text>
<polygon fill="#e7e2dd" stroke="transparent" points="651.63,-852.39 651.63,-912.39 1097.63,-912.39 1097.63,-852.39 651.63,-852.39"/>
<polygon fill="none" stroke="#29235c" points="651.63,-852.39 651.63,-912.39 1097.63,-912.39 1097.63,-852.39 651.63,-852.39"/>
<text text-anchor="start" x="662.63" y="-872.59" font-family="Helvetica,sans-Serif" font-size="32.00" fill="#29235c">custom_fields &#160;&#160;&#160;</text>
<text text-anchor="start" x="1027.95" y="-873.59" font-family="Helvetica,sans-Serif" font-style="italic" font-size="32.00" fill="#29235c">json</text>
<polygon fill="#e7e2dd" stroke="transparent" points="651.63,-792.39 651.63,-852.39 1097.63,-852.39 1097.63,-792.39 651.63,-792.39"/>
<polygon fill="none" stroke="#29235c" points="651.63,-792.39 651.63,-852.39 1097.63,-852.39 1097.63,-792.39 651.63,-792.39"/>
<text text-anchor="start" x="662.63" y="-812.59" font-family="Helvetica,sans-Serif" font-size="32.00" fill="#29235c">avatar_url &#160;&#160;&#160;</text>
<text text-anchor="start" x="979.96" y="-813.59" font-family="Helvetica,sans-Serif" font-style="italic" font-size="32.00" fill="#29235c">varchar</text>
<polygon fill="#e7e2dd" stroke="transparent" points="651.63,-732.39 651.63,-792.39 1097.63,-792.39 1097.63,-732.39 651.63,-732.39"/>
<polygon fill="none" stroke="#29235c" points="651.63,-732.39 651.63,-792.39 1097.63,-792.39 1097.63,-732.39 651.63,-732.39"/>
<text text-anchor="start" x="662.63" y="-752.59" font-family="Helvetica,sans-Serif" font-size="32.00" fill="#29235c">created_at &#160;&#160;&#160;</text>
<text text-anchor="start" x="939.07" y="-753.59" font-family="Helvetica,sans-Serif" font-style="italic" font-size="32.00" fill="#29235c">timestamp</text>
<polygon fill="#e7e2dd" stroke="transparent" points="651.63,-672.39 651.63,-732.39 1097.63,-732.39 1097.63,-672.39 651.63,-672.39"/>
<polygon fill="none" stroke="#29235c" points="651.63,-672.39 651.63,-732.39 1097.63,-732.39 1097.63,-672.39 651.63,-672.39"/>
<text text-anchor="start" x="662.63" y="-692.59" font-family="Helvetica,sans-Serif" font-size="32.00" fill="#29235c">updated_at &#160;&#160;&#160;</text>
<text text-anchor="start" x="939.07" y="-693.59" font-family="Helvetica,sans-Serif" font-style="italic" font-size="32.00" fill="#29235c">timestamp</text>
<polygon fill="none" stroke="#29235c" stroke-width="2" points="650.63,-671.39 650.63,-1333.39 1098.63,-1333.39 1098.63,-671.39 650.63,-671.39"/>
</g>
<!-- projects -->
<g id="projects" class="node">
<title>projects</title>
<ellipse fill="none" stroke="black" stroke-width="0" cx="1472.78" cy="-1747.39" rx="243.9" ry="257.27"/>
<polygon fill="#1d71b8" stroke="transparent" points="1302.78,-1867.39 1302.78,-1927.39 1643.78,-1927.39 1643.78,-1867.39 1302.78,-1867.39"/>
<polygon fill="none" stroke="#29235c" points="1302.78,-1867.39 1302.78,-1927.39 1643.78,-1927.39 1643.78,-1867.39 1302.78,-1867.39"/>
<text text-anchor="start" x="1355.02" y="-1888.59" font-family="Helvetica,sans-Serif" font-weight="bold" font-size="32.00" fill="#ffffff"> &#160;&#160;&#160;&#160;&#160;&#160;projects &#160;&#160;&#160;&#160;&#160;&#160;</text>
<polygon fill="#e7e2dd" stroke="transparent" points="1302.78,-1807.39 1302.78,-1867.39 1643.78,-1867.39 1643.78,-1807.39 1302.78,-1807.39"/>
<polygon fill="none" stroke="#29235c" points="1302.78,-1807.39 1302.78,-1867.39 1643.78,-1867.39 1643.78,-1807.39 1302.78,-1807.39"/>
<text text-anchor="start" x="1313.78" y="-1828.59" font-family="Helvetica,sans-Serif" font-weight="bold" font-size="32.00" fill="#29235c">id</text>
<text text-anchor="start" x="1338.67" y="-1828.59" font-family="Helvetica,sans-Serif" font-size="32.00" fill="#29235c"> &#160;&#160;&#160;</text>
<text text-anchor="start" x="1599" y="-1828.59" font-family="Helvetica,sans-Serif" font-style="italic" font-size="32.00" fill="#29235c">int</text>
<polygon fill="#e7e2dd" stroke="transparent" points="1302.78,-1747.39 1302.78,-1807.39 1643.78,-1807.39 1643.78,-1747.39 1302.78,-1747.39"/>
<polygon fill="none" stroke="#29235c" points="1302.78,-1747.39 1302.78,-1807.39 1643.78,-1807.39 1643.78,-1747.39 1302.78,-1747.39"/>
<text text-anchor="start" x="1313.78" y="-1767.59" font-family="Helvetica,sans-Serif" font-size="32.00" fill="#29235c">nama &#160;&#160;&#160;</text>
<text text-anchor="start" x="1487.02" y="-1768.59" font-family="Helvetica,sans-Serif" font-style="italic" font-size="32.00" fill="#29235c">varchar</text>
<text text-anchor="start" x="1593.69" y="-1768.59" font-family="Helvetica,sans-Serif" font-size="32.00" fill="#29235c"> </text>
<text text-anchor="start" x="1602.58" y="-1768.59" font-family="Helvetica,sans-Serif" font-weight="bold" font-size="32.00" fill="#29235c">(!)</text>
<polygon fill="#e7e2dd" stroke="transparent" points="1302.78,-1687.39 1302.78,-1747.39 1643.78,-1747.39 1643.78,-1687.39 1302.78,-1687.39"/>
<polygon fill="none" stroke="#29235c" points="1302.78,-1687.39 1302.78,-1747.39 1643.78,-1747.39 1643.78,-1687.39 1302.78,-1687.39"/>
<text text-anchor="start" x="1313.78" y="-1707.59" font-family="Helvetica,sans-Serif" font-size="32.00" fill="#29235c">deskripsi &#160;&#160;&#160;</text>
<text text-anchor="start" x="1581.2" y="-1708.59" font-family="Helvetica,sans-Serif" font-style="italic" font-size="32.00" fill="#29235c">text</text>
<polygon fill="#e7e2dd" stroke="transparent" points="1302.78,-1627.39 1302.78,-1687.39 1643.78,-1687.39 1643.78,-1627.39 1302.78,-1627.39"/>
<polygon fill="none" stroke="#29235c" points="1302.78,-1627.39 1302.78,-1687.39 1643.78,-1687.39 1643.78,-1627.39 1302.78,-1627.39"/>
<text text-anchor="start" x="1313.78" y="-1647.59" font-family="Helvetica,sans-Serif" font-size="32.00" fill="#29235c">tanggal_mulai &#160;&#160;&#160;</text>
<text text-anchor="start" x="1570.52" y="-1648.59" font-family="Helvetica,sans-Serif" font-style="italic" font-size="32.00" fill="#29235c">date</text>
<polygon fill="#e7e2dd" stroke="transparent" points="1302.78,-1567.39 1302.78,-1627.39 1643.78,-1627.39 1643.78,-1567.39 1302.78,-1567.39"/>
<polygon fill="none" stroke="#29235c" points="1302.78,-1567.39 1302.78,-1627.39 1643.78,-1627.39 1643.78,-1567.39 1302.78,-1567.39"/>
<text text-anchor="start" x="1313.35" y="-1587.59" font-family="Helvetica,sans-Serif" font-size="32.00" fill="#29235c">tanggal_selesai &#160;&#160;&#160;</text>
<text text-anchor="start" x="1570.65" y="-1588.59" font-family="Helvetica,sans-Serif" font-style="italic" font-size="32.00" fill="#29235c">date</text>
<polygon fill="none" stroke="#29235c" stroke-width="2" points="1301.28,-1566.39 1301.28,-1928.39 1644.28,-1928.39 1644.28,-1566.39 1301.28,-1566.39"/>
</g>
<!-- squads -->
<g id="squads" class="node">
<title>squads</title>
<ellipse fill="none" stroke="black" stroke-width="0" cx="874.63" cy="-1747.39" rx="260.43" ry="257.27"/>
<polygon fill="#1d71b8" stroke="transparent" points="692.63,-1867.39 692.63,-1927.39 1056.63,-1927.39 1056.63,-1867.39 692.63,-1867.39"/>
<polygon fill="none" stroke="#29235c" points="692.63,-1867.39 692.63,-1927.39 1056.63,-1927.39 1056.63,-1867.39 692.63,-1867.39"/>
<text text-anchor="start" x="760.8" y="-1888.59" font-family="Helvetica,sans-Serif" font-weight="bold" font-size="32.00" fill="#ffffff"> &#160;&#160;&#160;&#160;&#160;&#160;squads &#160;&#160;&#160;&#160;&#160;&#160;</text>
<polygon fill="#e7e2dd" stroke="transparent" points="692.63,-1807.39 692.63,-1867.39 1056.63,-1867.39 1056.63,-1807.39 692.63,-1807.39"/>
<polygon fill="none" stroke="#29235c" points="692.63,-1807.39 692.63,-1867.39 1056.63,-1867.39 1056.63,-1807.39 692.63,-1807.39"/>
<text text-anchor="start" x="703.63" y="-1828.59" font-family="Helvetica,sans-Serif" font-weight="bold" font-size="32.00" fill="#29235c">id</text>
<text text-anchor="start" x="728.52" y="-1828.59" font-family="Helvetica,sans-Serif" font-size="32.00" fill="#29235c"> &#160;&#160;&#160;</text>
<text text-anchor="start" x="1011.85" y="-1828.59" font-family="Helvetica,sans-Serif" font-style="italic" font-size="32.00" fill="#29235c">int</text>
<polygon fill="#e7e2dd" stroke="transparent" points="692.63,-1747.39 692.63,-1807.39 1056.63,-1807.39 1056.63,-1747.39 692.63,-1747.39"/>
<polygon fill="none" stroke="#29235c" points="692.63,-1747.39 692.63,-1807.39 1056.63,-1807.39 1056.63,-1747.39 692.63,-1747.39"/>
<text text-anchor="start" x="703.63" y="-1767.59" font-family="Helvetica,sans-Serif" font-size="32.00" fill="#29235c">nama &#160;&#160;&#160;</text>
<text text-anchor="start" x="899.87" y="-1768.59" font-family="Helvetica,sans-Serif" font-style="italic" font-size="32.00" fill="#29235c">varchar</text>
<text text-anchor="start" x="1006.54" y="-1768.59" font-family="Helvetica,sans-Serif" font-size="32.00" fill="#29235c"> </text>
<text text-anchor="start" x="1015.43" y="-1768.59" font-family="Helvetica,sans-Serif" font-weight="bold" font-size="32.00" fill="#29235c">(!)</text>
<polygon fill="#e7e2dd" stroke="transparent" points="692.63,-1687.39 692.63,-1747.39 1056.63,-1747.39 1056.63,-1687.39 692.63,-1687.39"/>
<polygon fill="none" stroke="#29235c" points="692.63,-1687.39 692.63,-1747.39 1056.63,-1747.39 1056.63,-1687.39 692.63,-1687.39"/>
<text text-anchor="start" x="703.63" y="-1707.59" font-family="Helvetica,sans-Serif" font-size="32.00" fill="#29235c">project_id &#160;&#160;&#160;</text>
<text text-anchor="start" x="1011.85" y="-1708.59" font-family="Helvetica,sans-Serif" font-style="italic" font-size="32.00" fill="#29235c">int</text>
<polygon fill="#e7e2dd" stroke="transparent" points="692.63,-1627.39 692.63,-1687.39 1056.63,-1687.39 1056.63,-1627.39 692.63,-1627.39"/>
<polygon fill="none" stroke="#29235c" points="692.63,-1627.39 692.63,-1687.39 1056.63,-1687.39 1056.63,-1627.39 692.63,-1627.39"/>
<text text-anchor="start" x="703.63" y="-1647.59" font-family="Helvetica,sans-Serif" font-size="32.00" fill="#29235c">created_at &#160;&#160;&#160;</text>
<text text-anchor="start" x="898.07" y="-1648.59" font-family="Helvetica,sans-Serif" font-style="italic" font-size="32.00" fill="#29235c">timestamp</text>
<polygon fill="#e7e2dd" stroke="transparent" points="692.63,-1567.39 692.63,-1627.39 1056.63,-1627.39 1056.63,-1567.39 692.63,-1567.39"/>
<polygon fill="none" stroke="#29235c" points="692.63,-1567.39 692.63,-1627.39 1056.63,-1627.39 1056.63,-1567.39 692.63,-1567.39"/>
<text text-anchor="start" x="703.3" y="-1587.59" font-family="Helvetica,sans-Serif" font-size="32.00" fill="#29235c">updated_at &#160;&#160;&#160;</text>
<text text-anchor="start" x="898.35" y="-1588.59" font-family="Helvetica,sans-Serif" font-style="italic" font-size="32.00" fill="#29235c">timestamp</text>
<polygon fill="none" stroke="#29235c" stroke-width="2" points="691.63,-1566.39 691.63,-1928.39 1057.63,-1928.39 1057.63,-1566.39 691.63,-1566.39"/>
</g>
<!-- squads&#45;&gt;projects -->
<!-- squads&#45;&gt;projects -->
<g id="edge2" class="edge">
<title>squads:e&#45;&gt;projects:w</title>
<path fill="none" stroke="#29235c" stroke-width="3" d="M1057.63,-1717.39C1175,-1717.39 1180.63,-1830.46 1291.45,-1837.08"/>
<polygon fill="#29235c" stroke="#29235c" stroke-width="3" points="1291.68,-1840.59 1301.78,-1837.39 1291.89,-1833.6 1291.68,-1840.59"/>
<text text-anchor="middle" x="1310.67" y="-1846.99" font-family="Helvetica,sans-Serif" font-size="32.00" fill="#29235c">1</text>
<text text-anchor="middle" x="1051.41" y="-1726.99" font-family="Helvetica,sans-Serif" font-size="32.00" fill="#29235c">*</text>
</g>
<!-- backlogs -->
<g id="backlogs" class="node">
<title>backlogs</title>
<ellipse fill="none" stroke="black" stroke-width="0" cx="260.22" cy="-942.39" rx="260.43" ry="554.24"/>
<polygon fill="#1d71b8" stroke="transparent" points="78.22,-1272.39 78.22,-1332.39 442.22,-1332.39 442.22,-1272.39 78.22,-1272.39"/>
<polygon fill="none" stroke="#29235c" points="78.22,-1272.39 78.22,-1332.39 442.22,-1332.39 442.22,-1272.39 78.22,-1272.39"/>
<text text-anchor="start" x="134.84" y="-1293.59" font-family="Helvetica,sans-Serif" font-weight="bold" font-size="32.00" fill="#ffffff"> &#160;&#160;&#160;&#160;&#160;&#160;backlogs &#160;&#160;&#160;&#160;&#160;&#160;</text>
<polygon fill="#e7e2dd" stroke="transparent" points="78.22,-1212.39 78.22,-1272.39 442.22,-1272.39 442.22,-1212.39 78.22,-1212.39"/>
<polygon fill="none" stroke="#29235c" points="78.22,-1212.39 78.22,-1272.39 442.22,-1272.39 442.22,-1212.39 78.22,-1212.39"/>
<text text-anchor="start" x="89.22" y="-1233.59" font-family="Helvetica,sans-Serif" font-weight="bold" font-size="32.00" fill="#29235c">id</text>
<text text-anchor="start" x="114.1" y="-1233.59" font-family="Helvetica,sans-Serif" font-size="32.00" fill="#29235c"> &#160;&#160;&#160;</text>
<text text-anchor="start" x="397.43" y="-1233.59" font-family="Helvetica,sans-Serif" font-style="italic" font-size="32.00" fill="#29235c">int</text>
<polygon fill="#e7e2dd" stroke="transparent" points="78.22,-1152.39 78.22,-1212.39 442.22,-1212.39 442.22,-1152.39 78.22,-1152.39"/>
<polygon fill="none" stroke="#29235c" points="78.22,-1152.39 78.22,-1212.39 442.22,-1212.39 442.22,-1152.39 78.22,-1152.39"/>
<text text-anchor="start" x="89.22" y="-1172.59" font-family="Helvetica,sans-Serif" font-size="32.00" fill="#29235c">squad_id &#160;&#160;&#160;</text>
<text text-anchor="start" x="397.43" y="-1173.59" font-family="Helvetica,sans-Serif" font-style="italic" font-size="32.00" fill="#29235c">int</text>
<polygon fill="#e7e2dd" stroke="transparent" points="78.22,-1092.39 78.22,-1152.39 442.22,-1152.39 442.22,-1092.39 78.22,-1092.39"/>
<polygon fill="none" stroke="#29235c" points="78.22,-1092.39 78.22,-1152.39 442.22,-1152.39 442.22,-1092.39 78.22,-1092.39"/>
<text text-anchor="start" x="89.22" y="-1112.59" font-family="Helvetica,sans-Serif" font-size="32.00" fill="#29235c">pic &#160;&#160;&#160;</text>
<text text-anchor="start" x="397.43" y="-1113.59" font-family="Helvetica,sans-Serif" font-style="italic" font-size="32.00" fill="#29235c">int</text>
<polygon fill="#e7e2dd" stroke="transparent" points="78.22,-1032.39 78.22,-1092.39 442.22,-1092.39 442.22,-1032.39 78.22,-1032.39"/>
<polygon fill="none" stroke="#29235c" points="78.22,-1032.39 78.22,-1092.39 442.22,-1092.39 442.22,-1032.39 78.22,-1032.39"/>
<text text-anchor="start" x="89.22" y="-1052.59" font-family="Helvetica,sans-Serif" font-size="32.00" fill="#29235c">modules_id &#160;&#160;&#160;</text>
<text text-anchor="start" x="397.43" y="-1053.59" font-family="Helvetica,sans-Serif" font-style="italic" font-size="32.00" fill="#29235c">int</text>
<polygon fill="#e7e2dd" stroke="transparent" points="78.22,-972.39 78.22,-1032.39 442.22,-1032.39 442.22,-972.39 78.22,-972.39"/>
<polygon fill="none" stroke="#29235c" points="78.22,-972.39 78.22,-1032.39 442.22,-1032.39 442.22,-972.39 78.22,-972.39"/>
<text text-anchor="start" x="89.22" y="-992.59" font-family="Helvetica,sans-Serif" font-size="32.00" fill="#29235c">sub_divisi_id &#160;&#160;&#160;</text>
<text text-anchor="start" x="397.43" y="-993.59" font-family="Helvetica,sans-Serif" font-style="italic" font-size="32.00" fill="#29235c">int</text>
<polygon fill="#e7e2dd" stroke="transparent" points="78.22,-912.39 78.22,-972.39 442.22,-972.39 442.22,-912.39 78.22,-912.39"/>
<polygon fill="none" stroke="#29235c" points="78.22,-912.39 78.22,-972.39 442.22,-972.39 442.22,-912.39 78.22,-912.39"/>
<text text-anchor="start" x="89.22" y="-932.59" font-family="Helvetica,sans-Serif" font-size="32.00" fill="#29235c">status_id &#160;&#160;&#160;</text>
<text text-anchor="start" x="397.43" y="-933.59" font-family="Helvetica,sans-Serif" font-style="italic" font-size="32.00" fill="#29235c">int</text>
<polygon fill="#e7e2dd" stroke="transparent" points="78.22,-852.39 78.22,-912.39 442.22,-912.39 442.22,-852.39 78.22,-852.39"/>
<polygon fill="none" stroke="#29235c" points="78.22,-852.39 78.22,-912.39 442.22,-912.39 442.22,-852.39 78.22,-852.39"/>
<text text-anchor="start" x="89.22" y="-872.59" font-family="Helvetica,sans-Serif" font-size="32.00" fill="#29235c">judul &#160;&#160;&#160;</text>
<text text-anchor="start" x="324.54" y="-873.59" font-family="Helvetica,sans-Serif" font-style="italic" font-size="32.00" fill="#29235c">varchar</text>
<polygon fill="#e7e2dd" stroke="transparent" points="78.22,-792.39 78.22,-852.39 442.22,-852.39 442.22,-792.39 78.22,-792.39"/>
<polygon fill="none" stroke="#29235c" points="78.22,-792.39 78.22,-852.39 442.22,-852.39 442.22,-792.39 78.22,-792.39"/>
<text text-anchor="start" x="89.22" y="-812.59" font-family="Helvetica,sans-Serif" font-size="32.00" fill="#29235c">deskripsi &#160;&#160;&#160;</text>
<text text-anchor="start" x="379.64" y="-813.59" font-family="Helvetica,sans-Serif" font-style="italic" font-size="32.00" fill="#29235c">text</text>
<polygon fill="#e7e2dd" stroke="transparent" points="78.22,-732.39 78.22,-792.39 442.22,-792.39 442.22,-732.39 78.22,-732.39"/>
<polygon fill="none" stroke="#29235c" points="78.22,-732.39 78.22,-792.39 442.22,-792.39 442.22,-732.39 78.22,-732.39"/>
<text text-anchor="start" x="89.22" y="-752.59" font-family="Helvetica,sans-Serif" font-size="32.00" fill="#29235c">kode &#160;&#160;&#160;</text>
<text text-anchor="start" x="324.54" y="-753.59" font-family="Helvetica,sans-Serif" font-style="italic" font-size="32.00" fill="#29235c">varchar</text>
<polygon fill="#e7e2dd" stroke="transparent" points="78.22,-672.39 78.22,-732.39 442.22,-732.39 442.22,-672.39 78.22,-672.39"/>
<polygon fill="none" stroke="#29235c" points="78.22,-672.39 78.22,-732.39 442.22,-732.39 442.22,-672.39 78.22,-672.39"/>
<text text-anchor="start" x="89.22" y="-692.59" font-family="Helvetica,sans-Serif" font-size="32.00" fill="#29235c">prioritas &#160;&#160;&#160;</text>
<text text-anchor="start" x="317.45" y="-693.59" font-family="Helvetica,sans-Serif" font-style="italic" font-size="32.00" fill="#29235c">prioritas</text>
<polygon fill="#e7e2dd" stroke="transparent" points="78.22,-612.39 78.22,-672.39 442.22,-672.39 442.22,-612.39 78.22,-612.39"/>
<polygon fill="none" stroke="#29235c" points="78.22,-612.39 78.22,-672.39 442.22,-672.39 442.22,-612.39 78.22,-612.39"/>
<text text-anchor="start" x="89.22" y="-632.59" font-family="Helvetica,sans-Serif" font-size="32.00" fill="#29235c">created_at &#160;&#160;&#160;</text>
<text text-anchor="start" x="283.66" y="-633.59" font-family="Helvetica,sans-Serif" font-style="italic" font-size="32.00" fill="#29235c">timestamp</text>
<polygon fill="#e7e2dd" stroke="transparent" points="78.22,-552.39 78.22,-612.39 442.22,-612.39 442.22,-552.39 78.22,-552.39"/>
<polygon fill="none" stroke="#29235c" points="78.22,-552.39 78.22,-612.39 442.22,-612.39 442.22,-552.39 78.22,-552.39"/>
<text text-anchor="start" x="88.88" y="-572.59" font-family="Helvetica,sans-Serif" font-size="32.00" fill="#29235c">updated_at &#160;&#160;&#160;</text>
<text text-anchor="start" x="283.94" y="-573.59" font-family="Helvetica,sans-Serif" font-style="italic" font-size="32.00" fill="#29235c">timestamp</text>
<polygon fill="none" stroke="#29235c" stroke-width="2" points="77.22,-551.39 77.22,-1333.39 443.22,-1333.39 443.22,-551.39 77.22,-551.39"/>
</g>
<!-- backlogs&#45;&gt;modules -->
<!-- backlogs&#45;&gt;modules -->
<g id="edge8" class="edge">
<title>backlogs:e&#45;&gt;modules:w</title>
<path fill="none" stroke="#29235c" stroke-width="3" d="M443.22,-1062.39C565.61,-1062.39 505.29,-634.58 556.43,-523.39 596.19,-436.92 593.26,-353.46 681.6,-347.7"/>
<polygon fill="#29235c" stroke="#29235c" stroke-width="3" points="681.74,-351.2 691.63,-347.39 681.52,-344.2 681.74,-351.2"/>
<text text-anchor="middle" x="682.73" y="-356.99" font-family="Helvetica,sans-Serif" font-size="32.00" fill="#29235c">1</text>
<text text-anchor="middle" x="436.99" y="-1071.99" font-family="Helvetica,sans-Serif" font-size="32.00" fill="#29235c">*</text>
</g>
<!-- backlogs&#45;&gt;users -->
<!-- backlogs&#45;&gt;users -->
<g id="edge6" class="edge">
<title>backlogs:e&#45;&gt;users:w</title>
<path fill="none" stroke="#29235c" stroke-width="3" d="M443.22,-1122.39C546.18,-1122.39 544.38,-1234.55 640.38,-1242"/>
<polygon fill="#29235c" stroke="#29235c" stroke-width="3" points="640.5,-1245.51 650.63,-1242.39 640.77,-1238.51 640.5,-1245.51"/>
<text text-anchor="middle" x="641.73" y="-1251.99" font-family="Helvetica,sans-Serif" font-size="32.00" fill="#29235c">1</text>
<text text-anchor="middle" x="436.99" y="-1131.99" font-family="Helvetica,sans-Serif" font-size="32.00" fill="#29235c">*</text>
</g>
<!-- backlogs&#45;&gt;squads -->
<!-- backlogs&#45;&gt;squads -->
<g id="edge4" class="edge">
<title>backlogs:e&#45;&gt;squads:w</title>
<path fill="none" stroke="#29235c" stroke-width="3" d="M443.22,-1182.39C585.31,-1182.39 506.05,-1348.52 556.43,-1481.39 615.21,-1636.39 526.17,-1829.29 681.54,-1837.14"/>
<polygon fill="#29235c" stroke="#29235c" stroke-width="3" points="681.55,-1840.64 691.63,-1837.39 681.72,-1833.64 681.55,-1840.64"/>
<text text-anchor="middle" x="682.73" y="-1846.99" font-family="Helvetica,sans-Serif" font-size="32.00" fill="#29235c">1</text>
<text text-anchor="middle" x="436.99" y="-1191.99" font-family="Helvetica,sans-Serif" font-size="32.00" fill="#29235c">*</text>
</g>
</g>
</svg>
