<?xml version="1.0" encoding="UTF-8" standalone="no"?>
<!DOCTYPE svg PUBLIC "-//W3C//DTD SVG 1.1//EN"
 "http://www.w3.org/Graphics/SVG/1.1/DTD/svg11.dtd">
<!-- Generated by graphviz version 2.47.0 (20210316.0004)
 -->
<!-- Title: dbml Pages: 1 -->
<svg width="2233pt" height="1843pt"
 viewBox="0.00 0.00 2233.08 1842.92" xmlns="http://www.w3.org/2000/svg" xmlns:xlink="http://www.w3.org/1999/xlink">
<g id="graph0" class="graph" transform="scale(1 1) rotate(0) translate(4 1838.92)">
<title>dbml</title>
<!-- projects -->
<g id="projects" class="node">
<title>projects</title>
<ellipse fill="none" stroke="black" stroke-width="0" cx="1906.88" cy="-257.39" rx="243.9" ry="257.27"/>
<polygon fill="#1d71b8" stroke="transparent" points="1736.88,-377.39 1736.88,-437.39 2077.88,-437.39 2077.88,-377.39 1736.88,-377.39"/>
<polygon fill="none" stroke="#29235c" points="1736.88,-377.39 1736.88,-437.39 2077.88,-437.39 2077.88,-377.39 1736.88,-377.39"/>
<text text-anchor="start" x="1789.12" y="-398.59" font-family="Helvetica,sans-Serif" font-weight="bold" font-size="32.00" fill="#ffffff"> &#160;&#160;&#160;&#160;&#160;&#160;projects &#160;&#160;&#160;&#160;&#160;&#160;</text>
<polygon fill="#e7e2dd" stroke="transparent" points="1736.88,-317.39 1736.88,-377.39 2077.88,-377.39 2077.88,-317.39 1736.88,-317.39"/>
<polygon fill="none" stroke="#29235c" points="1736.88,-317.39 1736.88,-377.39 2077.88,-377.39 2077.88,-317.39 1736.88,-317.39"/>
<text text-anchor="start" x="1747.88" y="-338.59" font-family="Helvetica,sans-Serif" font-weight="bold" font-size="32.00" fill="#29235c">id</text>
<text text-anchor="start" x="1772.77" y="-338.59" font-family="Helvetica,sans-Serif" font-size="32.00" fill="#29235c"> &#160;&#160;&#160;</text>
<text text-anchor="start" x="2033.1" y="-338.59" font-family="Helvetica,sans-Serif" font-style="italic" font-size="32.00" fill="#29235c">int</text>
<polygon fill="#e7e2dd" stroke="transparent" points="1736.88,-257.39 1736.88,-317.39 2077.88,-317.39 2077.88,-257.39 1736.88,-257.39"/>
<polygon fill="none" stroke="#29235c" points="1736.88,-257.39 1736.88,-317.39 2077.88,-317.39 2077.88,-257.39 1736.88,-257.39"/>
<text text-anchor="start" x="1747.88" y="-277.59" font-family="Helvetica,sans-Serif" font-size="32.00" fill="#29235c">nama &#160;&#160;&#160;</text>
<text text-anchor="start" x="1921.12" y="-278.59" font-family="Helvetica,sans-Serif" font-style="italic" font-size="32.00" fill="#29235c">varchar</text>
<text text-anchor="start" x="2027.79" y="-278.59" font-family="Helvetica,sans-Serif" font-size="32.00" fill="#29235c"> </text>
<text text-anchor="start" x="2036.68" y="-278.59" font-family="Helvetica,sans-Serif" font-weight="bold" font-size="32.00" fill="#29235c">(!)</text>
<polygon fill="#e7e2dd" stroke="transparent" points="1736.88,-197.39 1736.88,-257.39 2077.88,-257.39 2077.88,-197.39 1736.88,-197.39"/>
<polygon fill="none" stroke="#29235c" points="1736.88,-197.39 1736.88,-257.39 2077.88,-257.39 2077.88,-197.39 1736.88,-197.39"/>
<text text-anchor="start" x="1747.88" y="-217.59" font-family="Helvetica,sans-Serif" font-size="32.00" fill="#29235c">deskripsi &#160;&#160;&#160;</text>
<text text-anchor="start" x="2015.31" y="-218.59" font-family="Helvetica,sans-Serif" font-style="italic" font-size="32.00" fill="#29235c">text</text>
<polygon fill="#e7e2dd" stroke="transparent" points="1736.88,-137.39 1736.88,-197.39 2077.88,-197.39 2077.88,-137.39 1736.88,-137.39"/>
<polygon fill="none" stroke="#29235c" points="1736.88,-137.39 1736.88,-197.39 2077.88,-197.39 2077.88,-137.39 1736.88,-137.39"/>
<text text-anchor="start" x="1747.88" y="-157.59" font-family="Helvetica,sans-Serif" font-size="32.00" fill="#29235c">tanggal_mulai &#160;&#160;&#160;</text>
<text text-anchor="start" x="2004.62" y="-158.59" font-family="Helvetica,sans-Serif" font-style="italic" font-size="32.00" fill="#29235c">date</text>
<polygon fill="#e7e2dd" stroke="transparent" points="1736.88,-77.39 1736.88,-137.39 2077.88,-137.39 2077.88,-77.39 1736.88,-77.39"/>
<polygon fill="none" stroke="#29235c" points="1736.88,-77.39 1736.88,-137.39 2077.88,-137.39 2077.88,-77.39 1736.88,-77.39"/>
<text text-anchor="start" x="1747.45" y="-97.59" font-family="Helvetica,sans-Serif" font-size="32.00" fill="#29235c">tanggal_selesai &#160;&#160;&#160;</text>
<text text-anchor="start" x="2004.75" y="-98.59" font-family="Helvetica,sans-Serif" font-style="italic" font-size="32.00" fill="#29235c">date</text>
<polygon fill="none" stroke="#29235c" stroke-width="2" points="1735.38,-76.39 1735.38,-438.39 2078.38,-438.39 2078.38,-76.39 1735.38,-76.39"/>
</g>
<!-- users -->
<g id="users" class="node">
<title>users</title>
<ellipse fill="none" stroke="black" stroke-width="0" cx="1906.88" cy="-1002.39" rx="318.4" ry="469.54"/>
<polygon fill="#1d71b8" stroke="transparent" points="1683.88,-1272.39 1683.88,-1332.39 2129.88,-1332.39 2129.88,-1272.39 1683.88,-1272.39"/>
<polygon fill="none" stroke="#29235c" points="1683.88,-1272.39 1683.88,-1332.39 2129.88,-1332.39 2129.88,-1272.39 1683.88,-1272.39"/>
<text text-anchor="start" x="1805.51" y="-1293.59" font-family="Helvetica,sans-Serif" font-weight="bold" font-size="32.00" fill="#ffffff"> &#160;&#160;&#160;&#160;&#160;&#160;users &#160;&#160;&#160;&#160;&#160;&#160;</text>
<polygon fill="#e7e2dd" stroke="transparent" points="1683.88,-1212.39 1683.88,-1272.39 2129.88,-1272.39 2129.88,-1212.39 1683.88,-1212.39"/>
<polygon fill="none" stroke="#29235c" points="1683.88,-1212.39 1683.88,-1272.39 2129.88,-1272.39 2129.88,-1212.39 1683.88,-1212.39"/>
<text text-anchor="start" x="1694.88" y="-1233.59" font-family="Helvetica,sans-Serif" font-weight="bold" font-size="32.00" fill="#29235c">id</text>
<text text-anchor="start" x="1719.77" y="-1233.59" font-family="Helvetica,sans-Serif" font-size="32.00" fill="#29235c"> &#160;&#160;&#160;</text>
<text text-anchor="start" x="2085.1" y="-1233.59" font-family="Helvetica,sans-Serif" font-style="italic" font-size="32.00" fill="#29235c">int</text>
<polygon fill="#e7e2dd" stroke="transparent" points="1683.88,-1152.39 1683.88,-1212.39 2129.88,-1212.39 2129.88,-1152.39 1683.88,-1152.39"/>
<polygon fill="none" stroke="#29235c" points="1683.88,-1152.39 1683.88,-1212.39 2129.88,-1212.39 2129.88,-1152.39 1683.88,-1152.39"/>
<text text-anchor="start" x="1694.88" y="-1172.59" font-family="Helvetica,sans-Serif" font-size="32.00" fill="#29235c">name &#160;&#160;&#160;</text>
<text text-anchor="start" x="1973.12" y="-1173.59" font-family="Helvetica,sans-Serif" font-style="italic" font-size="32.00" fill="#29235c">varchar</text>
<text text-anchor="start" x="2079.79" y="-1173.59" font-family="Helvetica,sans-Serif" font-size="32.00" fill="#29235c"> </text>
<text text-anchor="start" x="2088.68" y="-1173.59" font-family="Helvetica,sans-Serif" font-weight="bold" font-size="32.00" fill="#29235c">(!)</text>
<polygon fill="#e7e2dd" stroke="transparent" points="1683.88,-1092.39 1683.88,-1152.39 2129.88,-1152.39 2129.88,-1092.39 1683.88,-1092.39"/>
<polygon fill="none" stroke="#29235c" points="1683.88,-1092.39 1683.88,-1152.39 2129.88,-1152.39 2129.88,-1092.39 1683.88,-1092.39"/>
<text text-anchor="start" x="1694.88" y="-1112.59" font-family="Helvetica,sans-Serif" font-size="32.00" fill="#29235c">email &#160;&#160;&#160;</text>
<text text-anchor="start" x="1973.12" y="-1113.59" font-family="Helvetica,sans-Serif" font-style="italic" font-size="32.00" fill="#29235c">varchar</text>
<text text-anchor="start" x="2079.79" y="-1113.59" font-family="Helvetica,sans-Serif" font-size="32.00" fill="#29235c"> </text>
<text text-anchor="start" x="2088.68" y="-1113.59" font-family="Helvetica,sans-Serif" font-weight="bold" font-size="32.00" fill="#29235c">(!)</text>
<polygon fill="#e7e2dd" stroke="transparent" points="1683.88,-1032.39 1683.88,-1092.39 2129.88,-1092.39 2129.88,-1032.39 1683.88,-1032.39"/>
<polygon fill="none" stroke="#29235c" points="1683.88,-1032.39 1683.88,-1092.39 2129.88,-1092.39 2129.88,-1032.39 1683.88,-1032.39"/>
<text text-anchor="start" x="1694.69" y="-1052.59" font-family="Helvetica,sans-Serif" font-size="32.00" fill="#29235c">email_verified_at &#160;&#160;&#160;</text>
<text text-anchor="start" x="1971.6" y="-1053.59" font-family="Helvetica,sans-Serif" font-style="italic" font-size="32.00" fill="#29235c">timestamp</text>
<polygon fill="#e7e2dd" stroke="transparent" points="1683.88,-972.39 1683.88,-1032.39 2129.88,-1032.39 2129.88,-972.39 1683.88,-972.39"/>
<polygon fill="none" stroke="#29235c" points="1683.88,-972.39 1683.88,-1032.39 2129.88,-1032.39 2129.88,-972.39 1683.88,-972.39"/>
<text text-anchor="start" x="1694.88" y="-992.59" font-family="Helvetica,sans-Serif" font-size="32.00" fill="#29235c">password &#160;&#160;&#160;</text>
<text text-anchor="start" x="1973.12" y="-993.59" font-family="Helvetica,sans-Serif" font-style="italic" font-size="32.00" fill="#29235c">varchar</text>
<text text-anchor="start" x="2079.79" y="-993.59" font-family="Helvetica,sans-Serif" font-size="32.00" fill="#29235c"> </text>
<text text-anchor="start" x="2088.68" y="-993.59" font-family="Helvetica,sans-Serif" font-weight="bold" font-size="32.00" fill="#29235c">(!)</text>
<polygon fill="#e7e2dd" stroke="transparent" points="1683.88,-912.39 1683.88,-972.39 2129.88,-972.39 2129.88,-912.39 1683.88,-912.39"/>
<polygon fill="none" stroke="#29235c" points="1683.88,-912.39 1683.88,-972.39 2129.88,-972.39 2129.88,-912.39 1683.88,-912.39"/>
<text text-anchor="start" x="1694.88" y="-932.59" font-family="Helvetica,sans-Serif" font-size="32.00" fill="#29235c">remember_token &#160;&#160;&#160;</text>
<text text-anchor="start" x="2012.21" y="-933.59" font-family="Helvetica,sans-Serif" font-style="italic" font-size="32.00" fill="#29235c">varchar</text>
<polygon fill="#e7e2dd" stroke="transparent" points="1683.88,-852.39 1683.88,-912.39 2129.88,-912.39 2129.88,-852.39 1683.88,-852.39"/>
<polygon fill="none" stroke="#29235c" points="1683.88,-852.39 1683.88,-912.39 2129.88,-912.39 2129.88,-852.39 1683.88,-852.39"/>
<text text-anchor="start" x="1694.88" y="-872.59" font-family="Helvetica,sans-Serif" font-size="32.00" fill="#29235c">custom_fields &#160;&#160;&#160;</text>
<text text-anchor="start" x="2060.2" y="-873.59" font-family="Helvetica,sans-Serif" font-style="italic" font-size="32.00" fill="#29235c">json</text>
<polygon fill="#e7e2dd" stroke="transparent" points="1683.88,-792.39 1683.88,-852.39 2129.88,-852.39 2129.88,-792.39 1683.88,-792.39"/>
<polygon fill="none" stroke="#29235c" points="1683.88,-792.39 1683.88,-852.39 2129.88,-852.39 2129.88,-792.39 1683.88,-792.39"/>
<text text-anchor="start" x="1694.88" y="-812.59" font-family="Helvetica,sans-Serif" font-size="32.00" fill="#29235c">avatar_url &#160;&#160;&#160;</text>
<text text-anchor="start" x="2012.21" y="-813.59" font-family="Helvetica,sans-Serif" font-style="italic" font-size="32.00" fill="#29235c">varchar</text>
<polygon fill="#e7e2dd" stroke="transparent" points="1683.88,-732.39 1683.88,-792.39 2129.88,-792.39 2129.88,-732.39 1683.88,-732.39"/>
<polygon fill="none" stroke="#29235c" points="1683.88,-732.39 1683.88,-792.39 2129.88,-792.39 2129.88,-732.39 1683.88,-732.39"/>
<text text-anchor="start" x="1694.88" y="-752.59" font-family="Helvetica,sans-Serif" font-size="32.00" fill="#29235c">created_at &#160;&#160;&#160;</text>
<text text-anchor="start" x="1971.32" y="-753.59" font-family="Helvetica,sans-Serif" font-style="italic" font-size="32.00" fill="#29235c">timestamp</text>
<polygon fill="#e7e2dd" stroke="transparent" points="1683.88,-672.39 1683.88,-732.39 2129.88,-732.39 2129.88,-672.39 1683.88,-672.39"/>
<polygon fill="none" stroke="#29235c" points="1683.88,-672.39 1683.88,-732.39 2129.88,-732.39 2129.88,-672.39 1683.88,-672.39"/>
<text text-anchor="start" x="1694.88" y="-692.59" font-family="Helvetica,sans-Serif" font-size="32.00" fill="#29235c">updated_at &#160;&#160;&#160;</text>
<text text-anchor="start" x="1971.32" y="-693.59" font-family="Helvetica,sans-Serif" font-style="italic" font-size="32.00" fill="#29235c">timestamp</text>
<polygon fill="none" stroke="#29235c" stroke-width="2" points="1682.88,-671.39 1682.88,-1333.39 2130.88,-1333.39 2130.88,-671.39 1682.88,-671.39"/>
</g>
<!-- statuses -->
<g id="statuses" class="node">
<title>statuses</title>
<ellipse fill="none" stroke="black" stroke-width="0" cx="1906.88" cy="-1662.39" rx="207.36" ry="172.57"/>
<polygon fill="#1d71b8" stroke="transparent" points="1762.88,-1722.39 1762.88,-1782.39 2051.88,-1782.39 2051.88,-1722.39 1762.88,-1722.39"/>
<polygon fill="none" stroke="#29235c" points="1762.88,-1722.39 1762.88,-1782.39 2051.88,-1782.39 2051.88,-1722.39 1762.88,-1722.39"/>
<text text-anchor="start" x="1785.55" y="-1743.59" font-family="Helvetica,sans-Serif" font-weight="bold" font-size="32.00" fill="#ffffff"> &#160;&#160;&#160;&#160;&#160;&#160;statuses &#160;&#160;&#160;&#160;&#160;&#160;</text>
<polygon fill="#e7e2dd" stroke="transparent" points="1762.88,-1662.39 1762.88,-1722.39 2051.88,-1722.39 2051.88,-1662.39 1762.88,-1662.39"/>
<polygon fill="none" stroke="#29235c" points="1762.88,-1662.39 1762.88,-1722.39 2051.88,-1722.39 2051.88,-1662.39 1762.88,-1662.39"/>
<text text-anchor="start" x="1773.88" y="-1683.59" font-family="Helvetica,sans-Serif" font-weight="bold" font-size="32.00" fill="#29235c">id</text>
<text text-anchor="start" x="1798.77" y="-1683.59" font-family="Helvetica,sans-Serif" font-size="32.00" fill="#29235c"> &#160;&#160;&#160;</text>
<text text-anchor="start" x="2007.1" y="-1683.59" font-family="Helvetica,sans-Serif" font-style="italic" font-size="32.00" fill="#29235c">int</text>
<polygon fill="#e7e2dd" stroke="transparent" points="1762.88,-1602.39 1762.88,-1662.39 2051.88,-1662.39 2051.88,-1602.39 1762.88,-1602.39"/>
<polygon fill="none" stroke="#29235c" points="1762.88,-1602.39 1762.88,-1662.39 2051.88,-1662.39 2051.88,-1602.39 1762.88,-1602.39"/>
<text text-anchor="start" x="1773.88" y="-1622.59" font-family="Helvetica,sans-Serif" font-size="32.00" fill="#29235c">nama &#160;&#160;&#160;</text>
<text text-anchor="start" x="1934.21" y="-1623.59" font-family="Helvetica,sans-Serif" font-style="italic" font-size="32.00" fill="#29235c">varchar</text>
<polygon fill="#e7e2dd" stroke="transparent" points="1762.88,-1542.39 1762.88,-1602.39 2051.88,-1602.39 2051.88,-1542.39 1762.88,-1542.39"/>
<polygon fill="none" stroke="#29235c" points="1762.88,-1542.39 1762.88,-1602.39 2051.88,-1602.39 2051.88,-1542.39 1762.88,-1542.39"/>
<text text-anchor="start" x="1773.48" y="-1562.59" font-family="Helvetica,sans-Serif" font-size="32.00" fill="#29235c">deskripsi &#160;&#160;&#160;</text>
<text text-anchor="start" x="1934.54" y="-1563.59" font-family="Helvetica,sans-Serif" font-style="italic" font-size="32.00" fill="#29235c">varchar</text>
<polygon fill="none" stroke="#29235c" stroke-width="2" points="1761.38,-1541.39 1761.38,-1783.39 2052.38,-1783.39 2052.38,-1541.39 1761.38,-1541.39"/>
</g>
<!-- scrum_tasks -->
<g id="scrum_tasks" class="node">
<title>scrum_tasks</title>
<ellipse fill="none" stroke="black" stroke-width="0" cx="1292.47" cy="-912.39" rx="260.43" ry="596.6"/>
<polygon fill="#1d71b8" stroke="transparent" points="1110.47,-1272.39 1110.47,-1332.39 1474.47,-1332.39 1474.47,-1272.39 1110.47,-1272.39"/>
<polygon fill="none" stroke="#29235c" points="1110.47,-1272.39 1110.47,-1332.39 1474.47,-1332.39 1474.47,-1272.39 1110.47,-1272.39"/>
<text text-anchor="start" x="1140.43" y="-1293.59" font-family="Helvetica,sans-Serif" font-weight="bold" font-size="32.00" fill="#ffffff"> &#160;&#160;&#160;&#160;&#160;&#160;scrum_tasks &#160;&#160;&#160;&#160;&#160;&#160;</text>
<polygon fill="#e7e2dd" stroke="transparent" points="1110.47,-1212.39 1110.47,-1272.39 1474.47,-1272.39 1474.47,-1212.39 1110.47,-1212.39"/>
<polygon fill="none" stroke="#29235c" points="1110.47,-1212.39 1110.47,-1272.39 1474.47,-1272.39 1474.47,-1212.39 1110.47,-1212.39"/>
<text text-anchor="start" x="1121.47" y="-1233.59" font-family="Helvetica,sans-Serif" font-weight="bold" font-size="32.00" fill="#29235c">id</text>
<text text-anchor="start" x="1146.36" y="-1233.59" font-family="Helvetica,sans-Serif" font-size="32.00" fill="#29235c"> &#160;&#160;&#160;</text>
<text text-anchor="start" x="1429.68" y="-1233.59" font-family="Helvetica,sans-Serif" font-style="italic" font-size="32.00" fill="#29235c">int</text>
<polygon fill="#e7e2dd" stroke="transparent" points="1110.47,-1152.39 1110.47,-1212.39 1474.47,-1212.39 1474.47,-1152.39 1110.47,-1152.39"/>
<polygon fill="none" stroke="#29235c" points="1110.47,-1152.39 1110.47,-1212.39 1474.47,-1212.39 1474.47,-1152.39 1110.47,-1152.39"/>
<text text-anchor="start" x="1121.47" y="-1172.59" font-family="Helvetica,sans-Serif" font-size="32.00" fill="#29235c">nama &#160;&#160;&#160;</text>
<text text-anchor="start" x="1356.79" y="-1173.59" font-family="Helvetica,sans-Serif" font-style="italic" font-size="32.00" fill="#29235c">varchar</text>
<polygon fill="#e7e2dd" stroke="transparent" points="1110.47,-1092.39 1110.47,-1152.39 1474.47,-1152.39 1474.47,-1092.39 1110.47,-1092.39"/>
<polygon fill="none" stroke="#29235c" points="1110.47,-1092.39 1110.47,-1152.39 1474.47,-1152.39 1474.47,-1092.39 1110.47,-1092.39"/>
<text text-anchor="start" x="1121.47" y="-1112.59" font-family="Helvetica,sans-Serif" font-size="32.00" fill="#29235c">point &#160;&#160;&#160;</text>
<text text-anchor="start" x="1429.68" y="-1113.59" font-family="Helvetica,sans-Serif" font-style="italic" font-size="32.00" fill="#29235c">int</text>
<polygon fill="#e7e2dd" stroke="transparent" points="1110.47,-1032.39 1110.47,-1092.39 1474.47,-1092.39 1474.47,-1032.39 1110.47,-1032.39"/>
<polygon fill="none" stroke="#29235c" points="1110.47,-1032.39 1110.47,-1092.39 1474.47,-1092.39 1474.47,-1032.39 1110.47,-1032.39"/>
<text text-anchor="start" x="1121.47" y="-1052.59" font-family="Helvetica,sans-Serif" font-size="32.00" fill="#29235c">deskripsi &#160;&#160;&#160;</text>
<text text-anchor="start" x="1411.89" y="-1053.59" font-family="Helvetica,sans-Serif" font-style="italic" font-size="32.00" fill="#29235c">text</text>
<polygon fill="#e7e2dd" stroke="transparent" points="1110.47,-972.39 1110.47,-1032.39 1474.47,-1032.39 1474.47,-972.39 1110.47,-972.39"/>
<polygon fill="none" stroke="#29235c" points="1110.47,-972.39 1110.47,-1032.39 1474.47,-1032.39 1474.47,-972.39 1110.47,-972.39"/>
<text text-anchor="start" x="1121.47" y="-992.59" font-family="Helvetica,sans-Serif" font-size="32.00" fill="#29235c">status_id &#160;&#160;&#160;</text>
<text text-anchor="start" x="1429.68" y="-993.59" font-family="Helvetica,sans-Serif" font-style="italic" font-size="32.00" fill="#29235c">int</text>
<polygon fill="#e7e2dd" stroke="transparent" points="1110.47,-912.39 1110.47,-972.39 1474.47,-972.39 1474.47,-912.39 1110.47,-912.39"/>
<polygon fill="none" stroke="#29235c" points="1110.47,-912.39 1110.47,-972.39 1474.47,-972.39 1474.47,-912.39 1110.47,-912.39"/>
<text text-anchor="start" x="1121.47" y="-932.59" font-family="Helvetica,sans-Serif" font-size="32.00" fill="#29235c">prioritas &#160;&#160;&#160;</text>
<text text-anchor="start" x="1349.7" y="-933.59" font-family="Helvetica,sans-Serif" font-style="italic" font-size="32.00" fill="#29235c">prioritas</text>
<polygon fill="#e7e2dd" stroke="transparent" points="1110.47,-852.39 1110.47,-912.39 1474.47,-912.39 1474.47,-852.39 1110.47,-852.39"/>
<polygon fill="none" stroke="#29235c" points="1110.47,-852.39 1110.47,-912.39 1474.47,-912.39 1474.47,-852.39 1110.47,-852.39"/>
<text text-anchor="start" x="1121.47" y="-872.59" font-family="Helvetica,sans-Serif" font-size="32.00" fill="#29235c">pic &#160;&#160;&#160;</text>
<text text-anchor="start" x="1429.68" y="-873.59" font-family="Helvetica,sans-Serif" font-style="italic" font-size="32.00" fill="#29235c">int</text>
<polygon fill="#e7e2dd" stroke="transparent" points="1110.47,-792.39 1110.47,-852.39 1474.47,-852.39 1474.47,-792.39 1110.47,-792.39"/>
<polygon fill="none" stroke="#29235c" points="1110.47,-792.39 1110.47,-852.39 1474.47,-852.39 1474.47,-792.39 1110.47,-792.39"/>
<text text-anchor="start" x="1121.47" y="-812.59" font-family="Helvetica,sans-Serif" font-size="32.00" fill="#29235c">dibuat_oleh &#160;&#160;&#160;</text>
<text text-anchor="start" x="1429.68" y="-813.59" font-family="Helvetica,sans-Serif" font-style="italic" font-size="32.00" fill="#29235c">int</text>
<polygon fill="#e7e2dd" stroke="transparent" points="1110.47,-732.39 1110.47,-792.39 1474.47,-792.39 1474.47,-732.39 1110.47,-732.39"/>
<polygon fill="none" stroke="#29235c" points="1110.47,-732.39 1110.47,-792.39 1474.47,-792.39 1474.47,-732.39 1110.47,-732.39"/>
<text text-anchor="start" x="1121.47" y="-752.59" font-family="Helvetica,sans-Serif" font-size="32.00" fill="#29235c">project_id &#160;&#160;&#160;</text>
<text text-anchor="start" x="1429.68" y="-753.59" font-family="Helvetica,sans-Serif" font-style="italic" font-size="32.00" fill="#29235c">int</text>
<polygon fill="#e7e2dd" stroke="transparent" points="1110.47,-672.39 1110.47,-732.39 1474.47,-732.39 1474.47,-672.39 1110.47,-672.39"/>
<polygon fill="none" stroke="#29235c" points="1110.47,-672.39 1110.47,-732.39 1474.47,-732.39 1474.47,-672.39 1110.47,-672.39"/>
<text text-anchor="start" x="1121.47" y="-692.59" font-family="Helvetica,sans-Serif" font-size="32.00" fill="#29235c">tanggal_mulai &#160;&#160;&#160;</text>
<text text-anchor="start" x="1401.21" y="-693.59" font-family="Helvetica,sans-Serif" font-style="italic" font-size="32.00" fill="#29235c">date</text>
<polygon fill="#e7e2dd" stroke="transparent" points="1110.47,-612.39 1110.47,-672.39 1474.47,-672.39 1474.47,-612.39 1110.47,-612.39"/>
<polygon fill="none" stroke="#29235c" points="1110.47,-612.39 1110.47,-672.39 1474.47,-672.39 1474.47,-612.39 1110.47,-612.39"/>
<text text-anchor="start" x="1121.47" y="-632.59" font-family="Helvetica,sans-Serif" font-size="32.00" fill="#29235c">tanggal_selesai &#160;&#160;&#160;</text>
<text text-anchor="start" x="1401.21" y="-633.59" font-family="Helvetica,sans-Serif" font-style="italic" font-size="32.00" fill="#29235c">date</text>
<polygon fill="#e7e2dd" stroke="transparent" points="1110.47,-552.39 1110.47,-612.39 1474.47,-612.39 1474.47,-552.39 1110.47,-552.39"/>
<polygon fill="none" stroke="#29235c" points="1110.47,-552.39 1110.47,-612.39 1474.47,-612.39 1474.47,-552.39 1110.47,-552.39"/>
<text text-anchor="start" x="1121.47" y="-572.59" font-family="Helvetica,sans-Serif" font-size="32.00" fill="#29235c">created_at &#160;&#160;&#160;</text>
<text text-anchor="start" x="1315.91" y="-573.59" font-family="Helvetica,sans-Serif" font-style="italic" font-size="32.00" fill="#29235c">timestamp</text>
<polygon fill="#e7e2dd" stroke="transparent" points="1110.47,-492.39 1110.47,-552.39 1474.47,-552.39 1474.47,-492.39 1110.47,-492.39"/>
<polygon fill="none" stroke="#29235c" points="1110.47,-492.39 1110.47,-552.39 1474.47,-552.39 1474.47,-492.39 1110.47,-492.39"/>
<text text-anchor="start" x="1121.13" y="-512.59" font-family="Helvetica,sans-Serif" font-size="32.00" fill="#29235c">updated_at &#160;&#160;&#160;</text>
<text text-anchor="start" x="1316.19" y="-513.59" font-family="Helvetica,sans-Serif" font-style="italic" font-size="32.00" fill="#29235c">timestamp</text>
<polygon fill="none" stroke="#29235c" stroke-width="2" points="1109.47,-491.39 1109.47,-1333.39 1475.47,-1333.39 1475.47,-491.39 1109.47,-491.39"/>
</g>
<!-- scrum_tasks&#45;&gt;projects -->
<!-- scrum_tasks&#45;&gt;projects -->
<g id="edge8" class="edge">
<title>scrum_tasks:e&#45;&gt;projects:w</title>
<path fill="none" stroke="#29235c" stroke-width="3" d="M1475.47,-762.39C1593,-762.39 1525.31,-622.38 1588.68,-523.39 1641.78,-440.44 1634.5,-353.54 1725.81,-347.7"/>
<polygon fill="#29235c" stroke="#29235c" stroke-width="3" points="1725.99,-351.19 1735.88,-347.39 1725.78,-344.2 1725.99,-351.19"/>
<text text-anchor="middle" x="1726.99" y="-318.59" font-family="Helvetica,sans-Serif" font-size="32.00" fill="#29235c">1</text>
<text text-anchor="middle" x="1481.69" y="-733.59" font-family="Helvetica,sans-Serif" font-size="32.00" fill="#29235c">*</text>
</g>
<!-- scrum_tasks&#45;&gt;users -->
<!-- scrum_tasks&#45;&gt;users -->
<g id="edge4" class="edge">
<title>scrum_tasks:e&#45;&gt;users:w</title>
<path fill="none" stroke="#29235c" stroke-width="3" d="M1475.47,-882.39C1656.61,-882.39 1504.26,-1228.81 1672.7,-1242"/>
<polygon fill="#29235c" stroke="#29235c" stroke-width="3" points="1672.75,-1245.5 1682.88,-1242.39 1673.02,-1238.51 1672.75,-1245.5"/>
<text text-anchor="middle" x="1673.99" y="-1251.99" font-family="Helvetica,sans-Serif" font-size="32.00" fill="#29235c">1</text>
<text text-anchor="middle" x="1481.69" y="-853.59" font-family="Helvetica,sans-Serif" font-size="32.00" fill="#29235c">*</text>
</g>
<!-- scrum_tasks&#45;&gt;users -->
<!-- scrum_tasks&#45;&gt;users -->
<g id="edge6" class="edge">
<title>scrum_tasks:e&#45;&gt;users:w</title>
<path fill="none" stroke="#29235c" stroke-width="3" d="M1475.47,-822.39C1680.2,-822.39 1481.51,-1228.56 1672.85,-1242.04"/>
<polygon fill="#29235c" stroke="#29235c" stroke-width="3" points="1672.77,-1245.54 1682.88,-1242.39 1673.01,-1238.55 1672.77,-1245.54"/>
<text text-anchor="middle" x="1673.99" y="-1213.59" font-family="Helvetica,sans-Serif" font-size="32.00" fill="#29235c">1</text>
<text text-anchor="middle" x="1481.69" y="-793.59" font-family="Helvetica,sans-Serif" font-size="32.00" fill="#29235c">*</text>
</g>
<!-- scrum_tasks&#45;&gt;statuses -->
<!-- scrum_tasks&#45;&gt;statuses -->
<g id="edge2" class="edge">
<title>scrum_tasks:e&#45;&gt;statuses:w</title>
<path fill="none" stroke="#29235c" stroke-width="3" d="M1475.47,-1002.39C1694.22,-1002.39 1491.62,-1285.34 1588.68,-1481.39 1640.99,-1587.04 1640.62,-1686.59 1751.86,-1692.14"/>
<polygon fill="#29235c" stroke="#29235c" stroke-width="3" points="1751.8,-1695.64 1761.88,-1692.39 1751.97,-1688.64 1751.8,-1695.64"/>
<text text-anchor="middle" x="1752.99" y="-1701.99" font-family="Helvetica,sans-Serif" font-size="32.00" fill="#29235c">1</text>
<text text-anchor="middle" x="1481.69" y="-973.59" font-family="Helvetica,sans-Serif" font-size="32.00" fill="#29235c">*</text>
</g>
<!-- comments -->
<g id="comments" class="node">
<title>comments</title>
<ellipse fill="none" stroke="black" stroke-width="0" cx="785.53" cy="-1212.39" rx="210.94" ry="214.92"/>
<polygon fill="#1d71b8" stroke="transparent" points="638.53,-1302.39 638.53,-1362.39 932.53,-1362.39 932.53,-1302.39 638.53,-1302.39"/>
<polygon fill="none" stroke="#29235c" points="638.53,-1302.39 638.53,-1362.39 932.53,-1362.39 932.53,-1302.39 638.53,-1302.39"/>
<text text-anchor="start" x="649.5" y="-1323.59" font-family="Helvetica,sans-Serif" font-weight="bold" font-size="32.00" fill="#ffffff"> &#160;&#160;&#160;&#160;&#160;&#160;comments &#160;&#160;&#160;&#160;&#160;&#160;</text>
<polygon fill="#e7e2dd" stroke="transparent" points="638.53,-1242.39 638.53,-1302.39 932.53,-1302.39 932.53,-1242.39 638.53,-1242.39"/>
<polygon fill="none" stroke="#29235c" points="638.53,-1242.39 638.53,-1302.39 932.53,-1302.39 932.53,-1242.39 638.53,-1242.39"/>
<text text-anchor="start" x="649.53" y="-1263.59" font-family="Helvetica,sans-Serif" font-weight="bold" font-size="32.00" fill="#29235c">id</text>
<text text-anchor="start" x="674.42" y="-1263.59" font-family="Helvetica,sans-Serif" font-size="32.00" fill="#29235c"> &#160;&#160;&#160;</text>
<text text-anchor="start" x="887.75" y="-1263.59" font-family="Helvetica,sans-Serif" font-style="italic" font-size="32.00" fill="#29235c">int</text>
<polygon fill="#e7e2dd" stroke="transparent" points="638.53,-1182.39 638.53,-1242.39 932.53,-1242.39 932.53,-1182.39 638.53,-1182.39"/>
<polygon fill="none" stroke="#29235c" points="638.53,-1182.39 638.53,-1242.39 932.53,-1242.39 932.53,-1182.39 638.53,-1182.39"/>
<text text-anchor="start" x="649.53" y="-1202.59" font-family="Helvetica,sans-Serif" font-size="32.00" fill="#29235c">task_id &#160;&#160;&#160;</text>
<text text-anchor="start" x="887.75" y="-1203.59" font-family="Helvetica,sans-Serif" font-style="italic" font-size="32.00" fill="#29235c">int</text>
<polygon fill="#e7e2dd" stroke="transparent" points="638.53,-1122.39 638.53,-1182.39 932.53,-1182.39 932.53,-1122.39 638.53,-1122.39"/>
<polygon fill="none" stroke="#29235c" points="638.53,-1122.39 638.53,-1182.39 932.53,-1182.39 932.53,-1122.39 638.53,-1122.39"/>
<text text-anchor="start" x="649.53" y="-1142.59" font-family="Helvetica,sans-Serif" font-size="32.00" fill="#29235c">user_id &#160;&#160;&#160;</text>
<text text-anchor="start" x="887.75" y="-1143.59" font-family="Helvetica,sans-Serif" font-style="italic" font-size="32.00" fill="#29235c">int</text>
<polygon fill="#e7e2dd" stroke="transparent" points="638.53,-1062.39 638.53,-1122.39 932.53,-1122.39 932.53,-1062.39 638.53,-1062.39"/>
<polygon fill="none" stroke="#29235c" points="638.53,-1062.39 638.53,-1122.39 932.53,-1122.39 932.53,-1062.39 638.53,-1062.39"/>
<text text-anchor="start" x="649.53" y="-1082.59" font-family="Helvetica,sans-Serif" font-size="32.00" fill="#29235c">content &#160;&#160;&#160;</text>
<text text-anchor="start" x="869.96" y="-1083.59" font-family="Helvetica,sans-Serif" font-style="italic" font-size="32.00" fill="#29235c">text</text>
<polygon fill="none" stroke="#29235c" stroke-width="2" points="637.53,-1061.39 637.53,-1363.39 933.53,-1363.39 933.53,-1061.39 637.53,-1061.39"/>
</g>
<!-- comments&#45;&gt;users -->
<!-- comments&#45;&gt;users -->
<g id="edge12" class="edge">
<title>comments:e&#45;&gt;users:w</title>
<path fill="none" stroke="#29235c" stroke-width="3" d="M933.53,-1152.39C1122.81,-1152.39 890.87,-432.23 1032.25,-306.39 1205.02,-152.6 1378.22,-154.52 1552.68,-306.39 1590.31,-339.14 1626.58,-1154.74 1675.14,-1235.9"/>
<polygon fill="#29235c" stroke="#29235c" stroke-width="3" points="1672.97,-1238.64 1682.88,-1242.39 1677.47,-1233.28 1672.97,-1238.64"/>
<text text-anchor="middle" x="1691.77" y="-1251.99" font-family="Helvetica,sans-Serif" font-size="32.00" fill="#29235c">1</text>
<text text-anchor="middle" x="939.76" y="-1152.39" font-family="Helvetica,sans-Serif" font-size="32.00" fill="#29235c">*</text>
</g>
<!-- comments&#45;&gt;scrum_tasks -->
<!-- comments&#45;&gt;scrum_tasks -->
<g id="edge10" class="edge">
<title>comments:e&#45;&gt;scrum_tasks:w</title>
<path fill="none" stroke="#29235c" stroke-width="3" d="M933.53,-1212.39C1009.29,-1212.39 1028.47,-1239.75 1099.14,-1242.21"/>
<polygon fill="#29235c" stroke="#29235c" stroke-width="3" points="1099.41,-1245.72 1109.47,-1242.39 1099.53,-1238.72 1099.41,-1245.72"/>
<text text-anchor="middle" x="1100.57" y="-1251.99" font-family="Helvetica,sans-Serif" font-size="32.00" fill="#29235c">1</text>
<text text-anchor="middle" x="927.31" y="-1221.99" font-family="Helvetica,sans-Serif" font-size="32.00" fill="#29235c">*</text>
</g>
<!-- comment_childs -->
<g id="comment_childs" class="node">
<title>comment_childs</title>
<ellipse fill="none" stroke="black" stroke-width="0" cx="269.41" cy="-1302.39" rx="269.32" ry="87.86"/>
<polygon fill="#1d71b8" stroke="transparent" points="81.41,-1302.39 81.41,-1362.39 458.41,-1362.39 458.41,-1302.39 81.41,-1302.39"/>
<polygon fill="none" stroke="#29235c" points="81.41,-1302.39 81.41,-1362.39 458.41,-1362.39 458.41,-1302.39 81.41,-1302.39"/>
<text text-anchor="start" x="92.09" y="-1323.59" font-family="Helvetica,sans-Serif" font-weight="bold" font-size="32.00" fill="#ffffff"> &#160;&#160;&#160;&#160;&#160;&#160;comment_childs &#160;&#160;&#160;&#160;&#160;&#160;</text>
<polygon fill="#e7e2dd" stroke="transparent" points="81.41,-1242.39 81.41,-1302.39 458.41,-1302.39 458.41,-1242.39 81.41,-1242.39"/>
<polygon fill="none" stroke="#29235c" points="81.41,-1242.39 81.41,-1302.39 458.41,-1302.39 458.41,-1242.39 81.41,-1242.39"/>
<text text-anchor="start" x="92.41" y="-1262.59" font-family="Helvetica,sans-Serif" font-size="32.00" fill="#29235c">comment_id &#160;&#160;&#160;</text>
<text text-anchor="start" x="413.63" y="-1263.59" font-family="Helvetica,sans-Serif" font-style="italic" font-size="32.00" fill="#29235c">int</text>
<polygon fill="none" stroke="#29235c" stroke-width="2" points="79.91,-1241.39 79.91,-1363.39 458.91,-1363.39 458.91,-1241.39 79.91,-1241.39"/>
</g>
<!-- comment_childs&#45;&gt;comments -->
<!-- comment_childs&#45;&gt;comments -->
<g id="edge14" class="edge">
<title>comment_childs:e&#45;&gt;comments:w</title>
<path fill="none" stroke="#29235c" stroke-width="3" d="M459.41,-1272.39C535.02,-1272.39 556.47,-1272.39 627.21,-1272.39"/>
<polygon fill="#29235c" stroke="#29235c" stroke-width="3" points="627.53,-1275.89 637.53,-1272.39 627.53,-1268.89 627.53,-1275.89"/>
<text text-anchor="middle" x="628.64" y="-1281.99" font-family="Helvetica,sans-Serif" font-size="32.00" fill="#29235c">1</text>
<text text-anchor="middle" x="465.63" y="-1281.99" font-family="Helvetica,sans-Serif" font-size="32.00" fill="#29235c">*</text>
</g>
</g>
</svg>
