<?xml version="1.0" encoding="UTF-8" standalone="no"?>
<!DOCTYPE svg PUBLIC "-//W3C//DTD SVG 1.1//EN"
 "http://www.w3.org/Graphics/SVG/1.1/DTD/svg11.dtd">
<!-- Generated by graphviz version 2.47.0 (20210316.0004)
 -->
<!-- Title: dbml Pages: 1 -->
<svg width="987pt" height="498pt"
 viewBox="0.00 0.00 987.28 497.64" xmlns="http://www.w3.org/2000/svg" xmlns:xlink="http://www.w3.org/1999/xlink">
<g id="graph0" class="graph" transform="scale(1 1) rotate(0) translate(4 493.64)">
<title>dbml</title>
<!-- departments -->
<g id="departments" class="node">
<title>departments</title>
<ellipse fill="none" stroke="black" stroke-width="0" cx="719.07" cy="-214.96" rx="260.43" ry="214.92"/>
<polygon fill="#1d71b8" stroke="transparent" points="537.07,-304.96 537.07,-364.96 901.07,-364.96 901.07,-304.96 537.07,-304.96"/>
<polygon fill="none" stroke="#29235c" points="537.07,-304.96 537.07,-364.96 901.07,-364.96 901.07,-304.96 537.07,-304.96"/>
<text text-anchor="start" x="567.9" y="-326.16" font-family="Helvetica,sans-Serif" font-weight="bold" font-size="32.00" fill="#ffffff"> &#160;&#160;&#160;&#160;&#160;&#160;departments &#160;&#160;&#160;&#160;&#160;&#160;</text>
<polygon fill="#e7e2dd" stroke="transparent" points="537.07,-244.96 537.07,-304.96 901.07,-304.96 901.07,-244.96 537.07,-244.96"/>
<polygon fill="none" stroke="#29235c" points="537.07,-244.96 537.07,-304.96 901.07,-304.96 901.07,-244.96 537.07,-244.96"/>
<text text-anchor="start" x="548.07" y="-266.16" font-family="Helvetica,sans-Serif" font-weight="bold" font-size="32.00" fill="#29235c">id</text>
<text text-anchor="start" x="572.95" y="-266.16" font-family="Helvetica,sans-Serif" font-size="32.00" fill="#29235c"> &#160;&#160;&#160;</text>
<text text-anchor="start" x="856.28" y="-266.16" font-family="Helvetica,sans-Serif" font-style="italic" font-size="32.00" fill="#29235c">int</text>
<polygon fill="#e7e2dd" stroke="transparent" points="537.07,-184.96 537.07,-244.96 901.07,-244.96 901.07,-184.96 537.07,-184.96"/>
<polygon fill="none" stroke="#29235c" points="537.07,-184.96 537.07,-244.96 901.07,-244.96 901.07,-184.96 537.07,-184.96"/>
<text text-anchor="start" x="548.07" y="-205.16" font-family="Helvetica,sans-Serif" font-size="32.00" fill="#29235c">name &#160;&#160;&#160;</text>
<text text-anchor="start" x="744.3" y="-206.16" font-family="Helvetica,sans-Serif" font-style="italic" font-size="32.00" fill="#29235c">varchar</text>
<text text-anchor="start" x="850.97" y="-206.16" font-family="Helvetica,sans-Serif" font-size="32.00" fill="#29235c"> </text>
<text text-anchor="start" x="859.87" y="-206.16" font-family="Helvetica,sans-Serif" font-weight="bold" font-size="32.00" fill="#29235c">(!)</text>
<polygon fill="#e7e2dd" stroke="transparent" points="537.07,-124.96 537.07,-184.96 901.07,-184.96 901.07,-124.96 537.07,-124.96"/>
<polygon fill="none" stroke="#29235c" points="537.07,-124.96 537.07,-184.96 901.07,-184.96 901.07,-124.96 537.07,-124.96"/>
<text text-anchor="start" x="548.07" y="-145.16" font-family="Helvetica,sans-Serif" font-size="32.00" fill="#29235c">created_at &#160;&#160;&#160;</text>
<text text-anchor="start" x="742.51" y="-146.16" font-family="Helvetica,sans-Serif" font-style="italic" font-size="32.00" fill="#29235c">timestamp</text>
<polygon fill="#e7e2dd" stroke="transparent" points="537.07,-64.96 537.07,-124.96 901.07,-124.96 901.07,-64.96 537.07,-64.96"/>
<polygon fill="none" stroke="#29235c" points="537.07,-64.96 537.07,-124.96 901.07,-124.96 901.07,-64.96 537.07,-64.96"/>
<text text-anchor="start" x="547.73" y="-85.16" font-family="Helvetica,sans-Serif" font-size="32.00" fill="#29235c">updated_at &#160;&#160;&#160;</text>
<text text-anchor="start" x="742.79" y="-86.16" font-family="Helvetica,sans-Serif" font-style="italic" font-size="32.00" fill="#29235c">timestamp</text>
<polygon fill="none" stroke="#29235c" stroke-width="2" points="536.07,-63.96 536.07,-365.96 902.07,-365.96 902.07,-63.96 536.07,-63.96"/>
</g>
<!-- positions -->
<g id="positions" class="node">
<title>positions</title>
<ellipse fill="none" stroke="black" stroke-width="0" cx="211.42" cy="-401.96" rx="211.35" ry="87.86"/>
<polygon fill="#1d71b8" stroke="transparent" points="64.42,-401.96 64.42,-461.96 359.42,-461.96 359.42,-401.96 64.42,-401.96"/>
<polygon fill="none" stroke="#29235c" points="64.42,-401.96 64.42,-461.96 359.42,-461.96 359.42,-401.96 64.42,-401.96"/>
<text text-anchor="start" x="86.55" y="-423.16" font-family="Helvetica,sans-Serif" font-weight="bold" font-size="32.00" fill="#ffffff"> &#160;&#160;&#160;&#160;&#160;&#160;positions &#160;&#160;&#160;&#160;&#160;&#160;</text>
<polygon fill="#e7e2dd" stroke="transparent" points="64.42,-341.96 64.42,-401.96 359.42,-401.96 359.42,-341.96 64.42,-341.96"/>
<polygon fill="none" stroke="#29235c" points="64.42,-341.96 64.42,-401.96 359.42,-401.96 359.42,-341.96 64.42,-341.96"/>
<text text-anchor="start" x="75.39" y="-362.16" font-family="Helvetica,sans-Serif" font-size="32.00" fill="#29235c">department_id &#160;&#160;&#160;</text>
<text text-anchor="start" x="315.03" y="-363.16" font-family="Helvetica,sans-Serif" font-style="italic" font-size="32.00" fill="#29235c">int</text>
<polygon fill="none" stroke="#29235c" stroke-width="2" points="62.92,-340.96 62.92,-462.96 359.92,-462.96 359.92,-340.96 62.92,-340.96"/>
</g>
<!-- positions&#45;&gt;departments -->
<!-- positions&#45;&gt;departments -->
<g id="edge2" class="edge">
<title>positions:e&#45;&gt;departments:w</title>
<path fill="none" stroke="#29235c" stroke-width="3" d="M360.42,-371.96C446.12,-371.96 446.96,-282.39 526.02,-275.39"/>
<polygon fill="#29235c" stroke="#29235c" stroke-width="3" points="526.23,-278.89 536.07,-274.96 525.92,-271.89 526.23,-278.89"/>
<text text-anchor="middle" x="527.17" y="-284.56" font-family="Helvetica,sans-Serif" font-size="32.00" fill="#29235c">1</text>
<text text-anchor="middle" x="366.65" y="-381.56" font-family="Helvetica,sans-Serif" font-size="32.00" fill="#29235c">*</text>
</g>
<!-- user_titles -->
<g id="user_titles" class="node">
<title>user_titles</title>
<ellipse fill="none" stroke="black" stroke-width="0" cx="211.42" cy="-208.96" rx="211.35" ry="87.86"/>
<polygon fill="#1d71b8" stroke="transparent" points="64.42,-208.96 64.42,-268.96 359.42,-268.96 359.42,-208.96 64.42,-208.96"/>
<polygon fill="none" stroke="#29235c" points="64.42,-208.96 64.42,-268.96 359.42,-268.96 359.42,-208.96 64.42,-208.96"/>
<text text-anchor="start" x="76.78" y="-230.16" font-family="Helvetica,sans-Serif" font-weight="bold" font-size="32.00" fill="#ffffff"> &#160;&#160;&#160;&#160;&#160;&#160;user_titles &#160;&#160;&#160;&#160;&#160;&#160;</text>
<polygon fill="#e7e2dd" stroke="transparent" points="64.42,-148.96 64.42,-208.96 359.42,-208.96 359.42,-148.96 64.42,-148.96"/>
<polygon fill="none" stroke="#29235c" points="64.42,-148.96 64.42,-208.96 359.42,-208.96 359.42,-148.96 64.42,-148.96"/>
<text text-anchor="start" x="75.39" y="-169.16" font-family="Helvetica,sans-Serif" font-size="32.00" fill="#29235c">department_id &#160;&#160;&#160;</text>
<text text-anchor="start" x="315.03" y="-170.16" font-family="Helvetica,sans-Serif" font-style="italic" font-size="32.00" fill="#29235c">int</text>
<polygon fill="none" stroke="#29235c" stroke-width="2" points="62.92,-147.96 62.92,-269.96 359.92,-269.96 359.92,-147.96 62.92,-147.96"/>
</g>
<!-- user_titles&#45;&gt;departments -->
<!-- user_titles&#45;&gt;departments -->
<g id="edge4" class="edge">
<title>user_titles:e&#45;&gt;departments:w</title>
<path fill="none" stroke="#29235c" stroke-width="3" d="M360.42,-178.96C445.91,-178.96 447.14,-267.61 526.05,-274.53"/>
<polygon fill="#29235c" stroke="#29235c" stroke-width="3" points="525.92,-278.03 536.07,-274.96 526.22,-271.04 525.92,-278.03"/>
<text text-anchor="middle" x="544.96" y="-284.56" font-family="Helvetica,sans-Serif" font-size="32.00" fill="#29235c">1</text>
<text text-anchor="middle" x="366.65" y="-188.56" font-family="Helvetica,sans-Serif" font-size="32.00" fill="#29235c">*</text>
</g>
</g>
</svg>
