<?xml version="1.0" encoding="UTF-8" standalone="no"?>
<!DOCTYPE svg PUBLIC "-//W3C//DTD SVG 1.1//EN"
 "http://www.w3.org/Graphics/SVG/1.1/DTD/svg11.dtd">
<!-- Generated by graphviz version 2.47.0 (20210316.0004)
 -->
<!-- Title: dbml Pages: 1 -->
<svg width="935pt" height="523pt"
 viewBox="0.00 0.00 934.95 522.77" xmlns="http://www.w3.org/2000/svg" xmlns:xlink="http://www.w3.org/1999/xlink">
<g id="graph0" class="graph" transform="scale(1 1) rotate(0) translate(4 518.77)">
<title>dbml</title>
<!-- divisi -->
<g id="divisi" class="node">
<title>divisi</title>
<ellipse fill="none" stroke="black" stroke-width="0" cx="666.74" cy="-257.39" rx="260.43" ry="257.27"/>
<polygon fill="#1d71b8" stroke="transparent" points="484.74,-377.39 484.74,-437.39 848.74,-437.39 848.74,-377.39 484.74,-377.39"/>
<polygon fill="none" stroke="#29235c" points="484.74,-377.39 484.74,-437.39 848.74,-437.39 848.74,-377.39 484.74,-377.39"/>
<text text-anchor="start" x="568.94" y="-398.59" font-family="Helvetica,sans-Serif" font-weight="bold" font-size="32.00" fill="#ffffff"> &#160;&#160;&#160;&#160;&#160;&#160;divisi &#160;&#160;&#160;&#160;&#160;&#160;</text>
<polygon fill="#e7e2dd" stroke="transparent" points="484.74,-317.39 484.74,-377.39 848.74,-377.39 848.74,-317.39 484.74,-317.39"/>
<polygon fill="none" stroke="#29235c" points="484.74,-317.39 484.74,-377.39 848.74,-377.39 848.74,-317.39 484.74,-317.39"/>
<text text-anchor="start" x="495.74" y="-338.59" font-family="Helvetica,sans-Serif" font-weight="bold" font-size="32.00" fill="#29235c">id</text>
<text text-anchor="start" x="520.63" y="-338.59" font-family="Helvetica,sans-Serif" font-size="32.00" fill="#29235c"> &#160;&#160;&#160;</text>
<text text-anchor="start" x="803.96" y="-338.59" font-family="Helvetica,sans-Serif" font-style="italic" font-size="32.00" fill="#29235c">int</text>
<polygon fill="#e7e2dd" stroke="transparent" points="484.74,-257.39 484.74,-317.39 848.74,-317.39 848.74,-257.39 484.74,-257.39"/>
<polygon fill="none" stroke="#29235c" points="484.74,-257.39 484.74,-317.39 848.74,-317.39 848.74,-257.39 484.74,-257.39"/>
<text text-anchor="start" x="495.74" y="-277.59" font-family="Helvetica,sans-Serif" font-size="32.00" fill="#29235c">name &#160;&#160;&#160;</text>
<text text-anchor="start" x="731.07" y="-278.59" font-family="Helvetica,sans-Serif" font-style="italic" font-size="32.00" fill="#29235c">varchar</text>
<polygon fill="#e7e2dd" stroke="transparent" points="484.74,-197.39 484.74,-257.39 848.74,-257.39 848.74,-197.39 484.74,-197.39"/>
<polygon fill="none" stroke="#29235c" points="484.74,-197.39 484.74,-257.39 848.74,-257.39 848.74,-197.39 484.74,-197.39"/>
<text text-anchor="start" x="495.74" y="-217.59" font-family="Helvetica,sans-Serif" font-size="32.00" fill="#29235c">code &#160;&#160;&#160;</text>
<text text-anchor="start" x="731.07" y="-218.59" font-family="Helvetica,sans-Serif" font-style="italic" font-size="32.00" fill="#29235c">varchar</text>
<polygon fill="#e7e2dd" stroke="transparent" points="484.74,-137.39 484.74,-197.39 848.74,-197.39 848.74,-137.39 484.74,-137.39"/>
<polygon fill="none" stroke="#29235c" points="484.74,-137.39 484.74,-197.39 848.74,-197.39 848.74,-137.39 484.74,-137.39"/>
<text text-anchor="start" x="495.74" y="-157.59" font-family="Helvetica,sans-Serif" font-size="32.00" fill="#29235c">created_at &#160;&#160;&#160;</text>
<text text-anchor="start" x="690.18" y="-158.59" font-family="Helvetica,sans-Serif" font-style="italic" font-size="32.00" fill="#29235c">timestamp</text>
<polygon fill="#e7e2dd" stroke="transparent" points="484.74,-77.39 484.74,-137.39 848.74,-137.39 848.74,-77.39 484.74,-77.39"/>
<polygon fill="none" stroke="#29235c" points="484.74,-77.39 484.74,-137.39 848.74,-137.39 848.74,-77.39 484.74,-77.39"/>
<text text-anchor="start" x="495.41" y="-97.59" font-family="Helvetica,sans-Serif" font-size="32.00" fill="#29235c">updated_at &#160;&#160;&#160;</text>
<text text-anchor="start" x="690.46" y="-98.59" font-family="Helvetica,sans-Serif" font-style="italic" font-size="32.00" fill="#29235c">timestamp</text>
<polygon fill="none" stroke="#29235c" stroke-width="2" points="483.74,-76.39 483.74,-438.39 849.74,-438.39 849.74,-76.39 483.74,-76.39"/>
</g>
<!-- projects -->
<g id="projects" class="node">
<title>projects</title>
<ellipse fill="none" stroke="black" stroke-width="0" cx="185.26" cy="-377.39" rx="185.02" ry="87.86"/>
<polygon fill="#1d71b8" stroke="transparent" points="56.26,-377.39 56.26,-437.39 314.26,-437.39 314.26,-377.39 56.26,-377.39"/>
<polygon fill="none" stroke="#29235c" points="56.26,-377.39 56.26,-437.39 314.26,-437.39 314.26,-377.39 56.26,-377.39"/>
<text text-anchor="start" x="67.01" y="-398.59" font-family="Helvetica,sans-Serif" font-weight="bold" font-size="32.00" fill="#ffffff"> &#160;&#160;&#160;&#160;&#160;&#160;projects &#160;&#160;&#160;&#160;&#160;&#160;</text>
<polygon fill="#e7e2dd" stroke="transparent" points="56.26,-317.39 56.26,-377.39 314.26,-377.39 314.26,-317.39 56.26,-317.39"/>
<polygon fill="none" stroke="#29235c" points="56.26,-317.39 56.26,-377.39 314.26,-377.39 314.26,-317.39 56.26,-317.39"/>
<text text-anchor="start" x="67.26" y="-337.59" font-family="Helvetica,sans-Serif" font-size="32.00" fill="#29235c">divisi_id &#160;&#160;&#160;</text>
<text text-anchor="start" x="269.48" y="-338.59" font-family="Helvetica,sans-Serif" font-style="italic" font-size="32.00" fill="#29235c">int</text>
<polygon fill="none" stroke="#29235c" stroke-width="2" points="55.26,-316.39 55.26,-438.39 315.26,-438.39 315.26,-316.39 55.26,-316.39"/>
</g>
<!-- projects&#45;&gt;divisi -->
<!-- projects&#45;&gt;divisi -->
<g id="edge2" class="edge">
<title>projects:e&#45;&gt;divisi:w</title>
<path fill="none" stroke="#29235c" stroke-width="3" d="M315.26,-347.39C386.63,-347.39 406.98,-347.39 473.57,-347.39"/>
<polygon fill="#29235c" stroke="#29235c" stroke-width="3" points="473.74,-350.89 483.74,-347.39 473.74,-343.89 473.74,-350.89"/>
<text text-anchor="middle" x="474.84" y="-356.99" font-family="Helvetica,sans-Serif" font-size="32.00" fill="#29235c">1</text>
<text text-anchor="middle" x="321.48" y="-356.99" font-family="Helvetica,sans-Serif" font-size="32.00" fill="#29235c">*</text>
</g>
</g>
</svg>
