<?xml version="1.0" encoding="UTF-8" standalone="no"?>
<!DOCTYPE svg PUBLIC "-//W3C//DTD SVG 1.1//EN"
 "http://www.w3.org/Graphics/SVG/1.1/DTD/svg11.dtd">
<!-- Generated by graphviz version 2.47.0 (20210316.0004)
 -->
<!-- Title: dbml Pages: 1 -->
<svg width="1459pt" height="523pt"
 viewBox="0.00 0.00 1458.86 522.77" xmlns="http://www.w3.org/2000/svg" xmlns:xlink="http://www.w3.org/1999/xlink">
<g id="graph0" class="graph" transform="scale(1 1) rotate(0) translate(4 518.77)">
<title>dbml</title>
<!-- projects -->
<g id="projects" class="node">
<title>projects</title>
<ellipse fill="none" stroke="black" stroke-width="0" cx="1206.91" cy="-257.39" rx="243.9" ry="257.27"/>
<polygon fill="#1d71b8" stroke="transparent" points="1036.91,-377.39 1036.91,-437.39 1377.91,-437.39 1377.91,-377.39 1036.91,-377.39"/>
<polygon fill="none" stroke="#29235c" points="1036.91,-377.39 1036.91,-437.39 1377.91,-437.39 1377.91,-377.39 1036.91,-377.39"/>
<text text-anchor="start" x="1089.15" y="-398.59" font-family="Helvetica,sans-Serif" font-weight="bold" font-size="32.00" fill="#ffffff"> &#160;&#160;&#160;&#160;&#160;&#160;projects &#160;&#160;&#160;&#160;&#160;&#160;</text>
<polygon fill="#e7e2dd" stroke="transparent" points="1036.91,-317.39 1036.91,-377.39 1377.91,-377.39 1377.91,-317.39 1036.91,-317.39"/>
<polygon fill="none" stroke="#29235c" points="1036.91,-317.39 1036.91,-377.39 1377.91,-377.39 1377.91,-317.39 1036.91,-317.39"/>
<text text-anchor="start" x="1047.91" y="-338.59" font-family="Helvetica,sans-Serif" font-weight="bold" font-size="32.00" fill="#29235c">id</text>
<text text-anchor="start" x="1072.8" y="-338.59" font-family="Helvetica,sans-Serif" font-size="32.00" fill="#29235c"> &#160;&#160;&#160;</text>
<text text-anchor="start" x="1333.12" y="-338.59" font-family="Helvetica,sans-Serif" font-style="italic" font-size="32.00" fill="#29235c">int</text>
<polygon fill="#e7e2dd" stroke="transparent" points="1036.91,-257.39 1036.91,-317.39 1377.91,-317.39 1377.91,-257.39 1036.91,-257.39"/>
<polygon fill="none" stroke="#29235c" points="1036.91,-257.39 1036.91,-317.39 1377.91,-317.39 1377.91,-257.39 1036.91,-257.39"/>
<text text-anchor="start" x="1047.91" y="-277.59" font-family="Helvetica,sans-Serif" font-size="32.00" fill="#29235c">nama &#160;&#160;&#160;</text>
<text text-anchor="start" x="1221.14" y="-278.59" font-family="Helvetica,sans-Serif" font-style="italic" font-size="32.00" fill="#29235c">varchar</text>
<text text-anchor="start" x="1327.82" y="-278.59" font-family="Helvetica,sans-Serif" font-size="32.00" fill="#29235c"> </text>
<text text-anchor="start" x="1336.71" y="-278.59" font-family="Helvetica,sans-Serif" font-weight="bold" font-size="32.00" fill="#29235c">(!)</text>
<polygon fill="#e7e2dd" stroke="transparent" points="1036.91,-197.39 1036.91,-257.39 1377.91,-257.39 1377.91,-197.39 1036.91,-197.39"/>
<polygon fill="none" stroke="#29235c" points="1036.91,-197.39 1036.91,-257.39 1377.91,-257.39 1377.91,-197.39 1036.91,-197.39"/>
<text text-anchor="start" x="1047.91" y="-217.59" font-family="Helvetica,sans-Serif" font-size="32.00" fill="#29235c">deskripsi &#160;&#160;&#160;</text>
<text text-anchor="start" x="1315.33" y="-218.59" font-family="Helvetica,sans-Serif" font-style="italic" font-size="32.00" fill="#29235c">text</text>
<polygon fill="#e7e2dd" stroke="transparent" points="1036.91,-137.39 1036.91,-197.39 1377.91,-197.39 1377.91,-137.39 1036.91,-137.39"/>
<polygon fill="none" stroke="#29235c" points="1036.91,-137.39 1036.91,-197.39 1377.91,-197.39 1377.91,-137.39 1036.91,-137.39"/>
<text text-anchor="start" x="1047.91" y="-157.59" font-family="Helvetica,sans-Serif" font-size="32.00" fill="#29235c">tanggal_mulai &#160;&#160;&#160;</text>
<text text-anchor="start" x="1304.65" y="-158.59" font-family="Helvetica,sans-Serif" font-style="italic" font-size="32.00" fill="#29235c">date</text>
<polygon fill="#e7e2dd" stroke="transparent" points="1036.91,-77.39 1036.91,-137.39 1377.91,-137.39 1377.91,-77.39 1036.91,-77.39"/>
<polygon fill="none" stroke="#29235c" points="1036.91,-77.39 1036.91,-137.39 1377.91,-137.39 1377.91,-77.39 1036.91,-77.39"/>
<text text-anchor="start" x="1047.47" y="-97.59" font-family="Helvetica,sans-Serif" font-size="32.00" fill="#29235c">tanggal_selesai &#160;&#160;&#160;</text>
<text text-anchor="start" x="1304.78" y="-98.59" font-family="Helvetica,sans-Serif" font-style="italic" font-size="32.00" fill="#29235c">date</text>
<polygon fill="none" stroke="#29235c" stroke-width="2" points="1035.41,-76.39 1035.41,-438.39 1378.41,-438.39 1378.41,-76.39 1035.41,-76.39"/>
</g>
<!-- documents -->
<g id="documents" class="node">
<title>documents</title>
<ellipse fill="none" stroke="black" stroke-width="0" cx="710.58" cy="-287.39" rx="216.25" ry="214.92"/>
<polygon fill="#1d71b8" stroke="transparent" points="559.58,-377.39 559.58,-437.39 861.58,-437.39 861.58,-377.39 559.58,-377.39"/>
<polygon fill="none" stroke="#29235c" points="559.58,-377.39 559.58,-437.39 861.58,-437.39 861.58,-377.39 559.58,-377.39"/>
<text text-anchor="start" x="570.09" y="-398.59" font-family="Helvetica,sans-Serif" font-weight="bold" font-size="32.00" fill="#ffffff"> &#160;&#160;&#160;&#160;&#160;&#160;documents &#160;&#160;&#160;&#160;&#160;&#160;</text>
<polygon fill="#e7e2dd" stroke="transparent" points="559.58,-317.39 559.58,-377.39 861.58,-377.39 861.58,-317.39 559.58,-317.39"/>
<polygon fill="none" stroke="#29235c" points="559.58,-317.39 559.58,-377.39 861.58,-377.39 861.58,-317.39 559.58,-317.39"/>
<text text-anchor="start" x="570.58" y="-338.59" font-family="Helvetica,sans-Serif" font-weight="bold" font-size="32.00" fill="#29235c">id</text>
<text text-anchor="start" x="595.47" y="-338.59" font-family="Helvetica,sans-Serif" font-size="32.00" fill="#29235c"> &#160;&#160;&#160;</text>
<text text-anchor="start" x="816.8" y="-338.59" font-family="Helvetica,sans-Serif" font-style="italic" font-size="32.00" fill="#29235c">int</text>
<polygon fill="#e7e2dd" stroke="transparent" points="559.58,-257.39 559.58,-317.39 861.58,-317.39 861.58,-257.39 559.58,-257.39"/>
<polygon fill="none" stroke="#29235c" points="559.58,-257.39 559.58,-317.39 861.58,-317.39 861.58,-257.39 559.58,-257.39"/>
<text text-anchor="start" x="570.58" y="-277.59" font-family="Helvetica,sans-Serif" font-size="32.00" fill="#29235c">project_id &#160;&#160;&#160;</text>
<text text-anchor="start" x="816.8" y="-278.59" font-family="Helvetica,sans-Serif" font-style="italic" font-size="32.00" fill="#29235c">int</text>
<polygon fill="#e7e2dd" stroke="transparent" points="559.58,-197.39 559.58,-257.39 861.58,-257.39 861.58,-197.39 559.58,-197.39"/>
<polygon fill="none" stroke="#29235c" points="559.58,-197.39 559.58,-257.39 861.58,-257.39 861.58,-197.39 559.58,-197.39"/>
<text text-anchor="start" x="570.58" y="-217.59" font-family="Helvetica,sans-Serif" font-size="32.00" fill="#29235c">nama &#160;&#160;&#160;</text>
<text text-anchor="start" x="743.91" y="-218.59" font-family="Helvetica,sans-Serif" font-style="italic" font-size="32.00" fill="#29235c">varchar</text>
<polygon fill="#e7e2dd" stroke="transparent" points="559.58,-137.39 559.58,-197.39 861.58,-197.39 861.58,-137.39 559.58,-137.39"/>
<polygon fill="none" stroke="#29235c" points="559.58,-137.39 559.58,-197.39 861.58,-197.39 861.58,-137.39 559.58,-137.39"/>
<text text-anchor="start" x="570.58" y="-157.59" font-family="Helvetica,sans-Serif" font-size="32.00" fill="#29235c">kode &#160;&#160;&#160;</text>
<text text-anchor="start" x="743.91" y="-158.59" font-family="Helvetica,sans-Serif" font-style="italic" font-size="32.00" fill="#29235c">varchar</text>
<polygon fill="none" stroke="#29235c" stroke-width="2" points="558.58,-136.39 558.58,-438.39 862.58,-438.39 862.58,-136.39 558.58,-136.39"/>
</g>
<!-- documents&#45;&gt;projects -->
<!-- documents&#45;&gt;projects -->
<g id="edge2" class="edge">
<title>documents:e&#45;&gt;projects:w</title>
<path fill="none" stroke="#29235c" stroke-width="3" d="M862.58,-287.39C940.6,-287.39 953.37,-342.34 1025.78,-347.06"/>
<polygon fill="#29235c" stroke="#29235c" stroke-width="3" points="1025.8,-350.57 1035.91,-347.39 1026.02,-343.57 1025.8,-350.57"/>
<text text-anchor="middle" x="1044.8" y="-356.99" font-family="Helvetica,sans-Serif" font-size="32.00" fill="#29235c">1</text>
<text text-anchor="middle" x="856.36" y="-258.59" font-family="Helvetica,sans-Serif" font-size="32.00" fill="#29235c">*</text>
</g>
<!-- user_stories -->
<g id="user_stories" class="node">
<title>user_stories</title>
<ellipse fill="none" stroke="black" stroke-width="0" cx="229.1" cy="-377.39" rx="229.21" ry="87.86"/>
<polygon fill="#1d71b8" stroke="transparent" points="69.1,-377.39 69.1,-437.39 389.1,-437.39 389.1,-377.39 69.1,-377.39"/>
<polygon fill="none" stroke="#29235c" points="69.1,-377.39 69.1,-437.39 389.1,-437.39 389.1,-377.39 69.1,-377.39"/>
<text text-anchor="start" x="79.73" y="-398.59" font-family="Helvetica,sans-Serif" font-weight="bold" font-size="32.00" fill="#ffffff"> &#160;&#160;&#160;&#160;&#160;&#160;user_stories &#160;&#160;&#160;&#160;&#160;&#160;</text>
<polygon fill="#e7e2dd" stroke="transparent" points="69.1,-317.39 69.1,-377.39 389.1,-377.39 389.1,-317.39 69.1,-317.39"/>
<polygon fill="none" stroke="#29235c" points="69.1,-317.39 69.1,-377.39 389.1,-377.39 389.1,-317.39 69.1,-317.39"/>
<text text-anchor="start" x="80.1" y="-337.59" font-family="Helvetica,sans-Serif" font-size="32.00" fill="#29235c">dokumen_id &#160;&#160;&#160;</text>
<text text-anchor="start" x="344.32" y="-338.59" font-family="Helvetica,sans-Serif" font-style="italic" font-size="32.00" fill="#29235c">int</text>
<polygon fill="none" stroke="#29235c" stroke-width="2" points="68.1,-316.39 68.1,-438.39 390.1,-438.39 390.1,-316.39 68.1,-316.39"/>
</g>
<!-- user_stories&#45;&gt;documents -->
<!-- user_stories&#45;&gt;documents -->
<g id="edge4" class="edge">
<title>user_stories:e&#45;&gt;documents:w</title>
<path fill="none" stroke="#29235c" stroke-width="3" d="M390.1,-347.39C461.47,-347.39 481.82,-347.39 548.41,-347.39"/>
<polygon fill="#29235c" stroke="#29235c" stroke-width="3" points="548.58,-350.89 558.58,-347.39 548.58,-343.89 548.58,-350.89"/>
<text text-anchor="middle" x="549.69" y="-356.99" font-family="Helvetica,sans-Serif" font-size="32.00" fill="#29235c">1</text>
<text text-anchor="middle" x="396.32" y="-356.99" font-family="Helvetica,sans-Serif" font-size="32.00" fill="#29235c">*</text>
</g>
</g>
</svg>
