<?xml version="1.0" encoding="UTF-8" standalone="no"?>
<!DOCTYPE svg PUBLIC "-//W3C//DTD SVG 1.1//EN"
 "http://www.w3.org/Graphics/SVG/1.1/DTD/svg11.dtd">
<!-- Generated by graphviz version 2.47.0 (20210316.0004)
 -->
<!-- Title: dbml Pages: 1 -->
<svg width="1174pt" height="523pt"
 viewBox="0.00 0.00 1173.96 522.77" xmlns="http://www.w3.org/2000/svg" xmlns:xlink="http://www.w3.org/1999/xlink">
<g id="graph0" class="graph" transform="scale(1 1) rotate(0) translate(4 518.77)">
<title>dbml</title>
<!-- documents -->
<g id="documents" class="node">
<title>documents</title>
<ellipse fill="none" stroke="black" stroke-width="0" cx="905.74" cy="-257.39" rx="260.43" ry="257.27"/>
<polygon fill="#1d71b8" stroke="transparent" points="723.74,-377.39 723.74,-437.39 1087.74,-437.39 1087.74,-377.39 723.74,-377.39"/>
<polygon fill="none" stroke="#29235c" points="723.74,-377.39 723.74,-437.39 1087.74,-437.39 1087.74,-377.39 723.74,-377.39"/>
<text text-anchor="start" x="765.25" y="-398.59" font-family="Helvetica,sans-Serif" font-weight="bold" font-size="32.00" fill="#ffffff"> &#160;&#160;&#160;&#160;&#160;&#160;documents &#160;&#160;&#160;&#160;&#160;&#160;</text>
<polygon fill="#e7e2dd" stroke="transparent" points="723.74,-317.39 723.74,-377.39 1087.74,-377.39 1087.74,-317.39 723.74,-317.39"/>
<polygon fill="none" stroke="#29235c" points="723.74,-317.39 723.74,-377.39 1087.74,-377.39 1087.74,-317.39 723.74,-317.39"/>
<text text-anchor="start" x="734.74" y="-338.59" font-family="Helvetica,sans-Serif" font-weight="bold" font-size="32.00" fill="#29235c">id</text>
<text text-anchor="start" x="759.63" y="-338.59" font-family="Helvetica,sans-Serif" font-size="32.00" fill="#29235c"> &#160;&#160;&#160;</text>
<text text-anchor="start" x="1042.96" y="-338.59" font-family="Helvetica,sans-Serif" font-style="italic" font-size="32.00" fill="#29235c">int</text>
<polygon fill="#e7e2dd" stroke="transparent" points="723.74,-257.39 723.74,-317.39 1087.74,-317.39 1087.74,-257.39 723.74,-257.39"/>
<polygon fill="none" stroke="#29235c" points="723.74,-257.39 723.74,-317.39 1087.74,-317.39 1087.74,-257.39 723.74,-257.39"/>
<text text-anchor="start" x="734.74" y="-277.59" font-family="Helvetica,sans-Serif" font-size="32.00" fill="#29235c">title &#160;&#160;&#160;</text>
<text text-anchor="start" x="930.98" y="-278.59" font-family="Helvetica,sans-Serif" font-style="italic" font-size="32.00" fill="#29235c">varchar</text>
<text text-anchor="start" x="1037.65" y="-278.59" font-family="Helvetica,sans-Serif" font-size="32.00" fill="#29235c"> </text>
<text text-anchor="start" x="1046.54" y="-278.59" font-family="Helvetica,sans-Serif" font-weight="bold" font-size="32.00" fill="#29235c">(!)</text>
<polygon fill="#e7e2dd" stroke="transparent" points="723.74,-197.39 723.74,-257.39 1087.74,-257.39 1087.74,-197.39 723.74,-197.39"/>
<polygon fill="none" stroke="#29235c" points="723.74,-197.39 723.74,-257.39 1087.74,-257.39 1087.74,-197.39 723.74,-197.39"/>
<text text-anchor="start" x="734.74" y="-217.59" font-family="Helvetica,sans-Serif" font-size="32.00" fill="#29235c">content &#160;&#160;&#160;</text>
<text text-anchor="start" x="1000.27" y="-218.59" font-family="Helvetica,sans-Serif" font-style="italic" font-size="32.00" fill="#29235c">jsonb</text>
<polygon fill="#e7e2dd" stroke="transparent" points="723.74,-137.39 723.74,-197.39 1087.74,-197.39 1087.74,-137.39 723.74,-137.39"/>
<polygon fill="none" stroke="#29235c" points="723.74,-137.39 723.74,-197.39 1087.74,-197.39 1087.74,-137.39 723.74,-137.39"/>
<text text-anchor="start" x="734.74" y="-157.59" font-family="Helvetica,sans-Serif" font-size="32.00" fill="#29235c">created_at &#160;&#160;&#160;</text>
<text text-anchor="start" x="929.18" y="-158.59" font-family="Helvetica,sans-Serif" font-style="italic" font-size="32.00" fill="#29235c">timestamp</text>
<polygon fill="#e7e2dd" stroke="transparent" points="723.74,-77.39 723.74,-137.39 1087.74,-137.39 1087.74,-77.39 723.74,-77.39"/>
<polygon fill="none" stroke="#29235c" points="723.74,-77.39 723.74,-137.39 1087.74,-137.39 1087.74,-77.39 723.74,-77.39"/>
<text text-anchor="start" x="734.41" y="-97.59" font-family="Helvetica,sans-Serif" font-size="32.00" fill="#29235c">updated_at &#160;&#160;&#160;</text>
<text text-anchor="start" x="929.46" y="-98.59" font-family="Helvetica,sans-Serif" font-style="italic" font-size="32.00" fill="#29235c">timestamp</text>
<polygon fill="none" stroke="#29235c" stroke-width="2" points="722.74,-76.39 722.74,-438.39 1088.74,-438.39 1088.74,-76.39 722.74,-76.39"/>
</g>
<!-- product_documents -->
<g id="product_documents" class="node">
<title>product_documents</title>
<ellipse fill="none" stroke="black" stroke-width="0" cx="304.76" cy="-377.39" rx="304.53" ry="87.86"/>
<polygon fill="#1d71b8" stroke="transparent" points="91.76,-377.39 91.76,-437.39 518.76,-437.39 518.76,-377.39 91.76,-377.39"/>
<polygon fill="none" stroke="#29235c" points="91.76,-377.39 91.76,-437.39 518.76,-437.39 518.76,-377.39 91.76,-377.39"/>
<text text-anchor="start" x="102.52" y="-398.59" font-family="Helvetica,sans-Serif" font-weight="bold" font-size="32.00" fill="#ffffff"> &#160;&#160;&#160;&#160;&#160;&#160;product_documents &#160;&#160;&#160;&#160;&#160;&#160;</text>
<polygon fill="#e7e2dd" stroke="transparent" points="91.76,-317.39 91.76,-377.39 518.76,-377.39 518.76,-317.39 91.76,-317.39"/>
<polygon fill="none" stroke="#29235c" points="91.76,-317.39 91.76,-377.39 518.76,-377.39 518.76,-317.39 91.76,-317.39"/>
<text text-anchor="start" x="102.76" y="-337.59" font-family="Helvetica,sans-Serif" font-size="32.00" fill="#29235c">document_id &#160;&#160;&#160;</text>
<text text-anchor="start" x="473.98" y="-338.59" font-family="Helvetica,sans-Serif" font-style="italic" font-size="32.00" fill="#29235c">int</text>
<polygon fill="none" stroke="#29235c" stroke-width="2" points="90.26,-316.39 90.26,-438.39 519.26,-438.39 519.26,-316.39 90.26,-316.39"/>
</g>
<!-- product_documents&#45;&gt;documents -->
<!-- product_documents&#45;&gt;documents -->
<g id="edge2" class="edge">
<title>product_documents:e&#45;&gt;documents:w</title>
<path fill="none" stroke="#29235c" stroke-width="3" d="M519.76,-347.39C606.54,-347.39 630.71,-347.39 712.72,-347.39"/>
<polygon fill="#29235c" stroke="#29235c" stroke-width="3" points="712.74,-350.89 722.74,-347.39 712.74,-343.89 712.74,-350.89"/>
<text text-anchor="middle" x="713.85" y="-356.99" font-family="Helvetica,sans-Serif" font-size="32.00" fill="#29235c">1</text>
<text text-anchor="middle" x="513.54" y="-356.99" font-family="Helvetica,sans-Serif" font-size="32.00" fill="#29235c">*</text>
</g>
</g>
</svg>
