<?xml version="1.0" encoding="UTF-8" standalone="no"?>
<!DOCTYPE svg PUBLIC "-//W3C//DTD SVG 1.1//EN"
 "http://www.w3.org/Graphics/SVG/1.1/DTD/svg11.dtd">
<!-- Generated by graphviz version 2.47.0 (20210316.0004)
 -->
<!-- Title: dbml Pages: 1 -->
<svg width="1085pt" height="692pt"
 viewBox="0.00 0.00 1084.86 692.48" xmlns="http://www.w3.org/2000/svg" xmlns:xlink="http://www.w3.org/1999/xlink">
<g id="graph0" class="graph" transform="scale(1 1) rotate(0) translate(4 688.48)">
<title>dbml</title>
<!-- projects -->
<g id="projects" class="node">
<title>projects</title>
<ellipse fill="none" stroke="black" stroke-width="0" cx="816.65" cy="-342.24" rx="260.43" ry="342.48"/>
<polygon fill="#1d71b8" stroke="transparent" points="634.65,-522.24 634.65,-582.24 998.65,-582.24 998.65,-522.24 634.65,-522.24"/>
<polygon fill="none" stroke="#29235c" points="634.65,-522.24 634.65,-582.24 998.65,-582.24 998.65,-522.24 634.65,-522.24"/>
<text text-anchor="start" x="698.39" y="-543.44" font-family="Helvetica,sans-Serif" font-weight="bold" font-size="32.00" fill="#ffffff"> &#160;&#160;&#160;&#160;&#160;&#160;projects &#160;&#160;&#160;&#160;&#160;&#160;</text>
<polygon fill="#e7e2dd" stroke="transparent" points="634.65,-462.24 634.65,-522.24 998.65,-522.24 998.65,-462.24 634.65,-462.24"/>
<polygon fill="none" stroke="#29235c" points="634.65,-462.24 634.65,-522.24 998.65,-522.24 998.65,-462.24 634.65,-462.24"/>
<text text-anchor="start" x="645.65" y="-483.44" font-family="Helvetica,sans-Serif" font-weight="bold" font-size="32.00" fill="#29235c">id</text>
<text text-anchor="start" x="670.54" y="-483.44" font-family="Helvetica,sans-Serif" font-size="32.00" fill="#29235c"> &#160;&#160;&#160;</text>
<text text-anchor="start" x="953.86" y="-483.44" font-family="Helvetica,sans-Serif" font-style="italic" font-size="32.00" fill="#29235c">int</text>
<polygon fill="#e7e2dd" stroke="transparent" points="634.65,-402.24 634.65,-462.24 998.65,-462.24 998.65,-402.24 634.65,-402.24"/>
<polygon fill="none" stroke="#29235c" points="634.65,-402.24 634.65,-462.24 998.65,-462.24 998.65,-402.24 634.65,-402.24"/>
<text text-anchor="start" x="645.65" y="-422.44" font-family="Helvetica,sans-Serif" font-size="32.00" fill="#29235c">nama &#160;&#160;&#160;</text>
<text text-anchor="start" x="841.88" y="-423.44" font-family="Helvetica,sans-Serif" font-style="italic" font-size="32.00" fill="#29235c">varchar</text>
<text text-anchor="start" x="948.55" y="-423.44" font-family="Helvetica,sans-Serif" font-size="32.00" fill="#29235c"> </text>
<text text-anchor="start" x="957.45" y="-423.44" font-family="Helvetica,sans-Serif" font-weight="bold" font-size="32.00" fill="#29235c">(!)</text>
<polygon fill="#e7e2dd" stroke="transparent" points="634.65,-342.24 634.65,-402.24 998.65,-402.24 998.65,-342.24 634.65,-342.24"/>
<polygon fill="none" stroke="#29235c" points="634.65,-342.24 634.65,-402.24 998.65,-402.24 998.65,-342.24 634.65,-342.24"/>
<text text-anchor="start" x="645.65" y="-362.44" font-family="Helvetica,sans-Serif" font-size="32.00" fill="#29235c">deskripsi &#160;&#160;&#160;</text>
<text text-anchor="start" x="936.07" y="-363.44" font-family="Helvetica,sans-Serif" font-style="italic" font-size="32.00" fill="#29235c">text</text>
<polygon fill="#e7e2dd" stroke="transparent" points="634.65,-282.24 634.65,-342.24 998.65,-342.24 998.65,-282.24 634.65,-282.24"/>
<polygon fill="none" stroke="#29235c" points="634.65,-282.24 634.65,-342.24 998.65,-342.24 998.65,-282.24 634.65,-282.24"/>
<text text-anchor="start" x="645.65" y="-302.44" font-family="Helvetica,sans-Serif" font-size="32.00" fill="#29235c">tanggal_mulai &#160;&#160;&#160;</text>
<text text-anchor="start" x="925.39" y="-303.44" font-family="Helvetica,sans-Serif" font-style="italic" font-size="32.00" fill="#29235c">date</text>
<polygon fill="#e7e2dd" stroke="transparent" points="634.65,-222.24 634.65,-282.24 998.65,-282.24 998.65,-222.24 634.65,-222.24"/>
<polygon fill="none" stroke="#29235c" points="634.65,-222.24 634.65,-282.24 998.65,-282.24 998.65,-222.24 634.65,-222.24"/>
<text text-anchor="start" x="645.65" y="-242.44" font-family="Helvetica,sans-Serif" font-size="32.00" fill="#29235c">tanggal_selesai &#160;&#160;&#160;</text>
<text text-anchor="start" x="925.39" y="-243.44" font-family="Helvetica,sans-Serif" font-style="italic" font-size="32.00" fill="#29235c">date</text>
<polygon fill="#e7e2dd" stroke="transparent" points="634.65,-162.24 634.65,-222.24 998.65,-222.24 998.65,-162.24 634.65,-162.24"/>
<polygon fill="none" stroke="#29235c" points="634.65,-162.24 634.65,-222.24 998.65,-222.24 998.65,-162.24 634.65,-162.24"/>
<text text-anchor="start" x="645.65" y="-182.44" font-family="Helvetica,sans-Serif" font-size="32.00" fill="#29235c">created_at &#160;&#160;&#160;</text>
<text text-anchor="start" x="840.09" y="-183.44" font-family="Helvetica,sans-Serif" font-style="italic" font-size="32.00" fill="#29235c">timestamp</text>
<polygon fill="#e7e2dd" stroke="transparent" points="634.65,-102.24 634.65,-162.24 998.65,-162.24 998.65,-102.24 634.65,-102.24"/>
<polygon fill="none" stroke="#29235c" points="634.65,-102.24 634.65,-162.24 998.65,-162.24 998.65,-102.24 634.65,-102.24"/>
<text text-anchor="start" x="645.31" y="-122.44" font-family="Helvetica,sans-Serif" font-size="32.00" fill="#29235c">updated_at &#160;&#160;&#160;</text>
<text text-anchor="start" x="840.37" y="-123.44" font-family="Helvetica,sans-Serif" font-style="italic" font-size="32.00" fill="#29235c">timestamp</text>
<polygon fill="none" stroke="#29235c" stroke-width="2" points="633.65,-101.24 633.65,-583.24 999.65,-583.24 999.65,-101.24 633.65,-101.24"/>
</g>
<!-- dokumen -->
<g id="dokumen" class="node">
<title>dokumen</title>
<ellipse fill="none" stroke="black" stroke-width="0" cx="260.22" cy="-372.24" rx="260.43" ry="299.63"/>
<polygon fill="#1d71b8" stroke="transparent" points="78.22,-522.24 78.22,-582.24 442.22,-582.24 442.22,-522.24 78.22,-522.24"/>
<polygon fill="none" stroke="#29235c" points="78.22,-522.24 78.22,-582.24 442.22,-582.24 442.22,-522.24 78.22,-522.24"/>
<text text-anchor="start" x="132.17" y="-543.44" font-family="Helvetica,sans-Serif" font-weight="bold" font-size="32.00" fill="#ffffff"> &#160;&#160;&#160;&#160;&#160;&#160;dokumen &#160;&#160;&#160;&#160;&#160;&#160;</text>
<polygon fill="#e7e2dd" stroke="transparent" points="78.22,-462.24 78.22,-522.24 442.22,-522.24 442.22,-462.24 78.22,-462.24"/>
<polygon fill="none" stroke="#29235c" points="78.22,-462.24 78.22,-522.24 442.22,-522.24 442.22,-462.24 78.22,-462.24"/>
<text text-anchor="start" x="89.22" y="-483.44" font-family="Helvetica,sans-Serif" font-weight="bold" font-size="32.00" fill="#29235c">id</text>
<text text-anchor="start" x="114.1" y="-483.44" font-family="Helvetica,sans-Serif" font-size="32.00" fill="#29235c"> &#160;&#160;&#160;</text>
<text text-anchor="start" x="397.43" y="-483.44" font-family="Helvetica,sans-Serif" font-style="italic" font-size="32.00" fill="#29235c">int</text>
<polygon fill="#e7e2dd" stroke="transparent" points="78.22,-402.24 78.22,-462.24 442.22,-462.24 442.22,-402.24 78.22,-402.24"/>
<polygon fill="none" stroke="#29235c" points="78.22,-402.24 78.22,-462.24 442.22,-462.24 442.22,-402.24 78.22,-402.24"/>
<text text-anchor="start" x="89.22" y="-422.44" font-family="Helvetica,sans-Serif" font-size="32.00" fill="#29235c">project_id &#160;&#160;&#160;</text>
<text text-anchor="start" x="397.43" y="-423.44" font-family="Helvetica,sans-Serif" font-style="italic" font-size="32.00" fill="#29235c">int</text>
<polygon fill="#e7e2dd" stroke="transparent" points="78.22,-342.24 78.22,-402.24 442.22,-402.24 442.22,-342.24 78.22,-342.24"/>
<polygon fill="none" stroke="#29235c" points="78.22,-342.24 78.22,-402.24 442.22,-402.24 442.22,-342.24 78.22,-342.24"/>
<text text-anchor="start" x="89.22" y="-362.44" font-family="Helvetica,sans-Serif" font-size="32.00" fill="#29235c">nama &#160;&#160;&#160;</text>
<text text-anchor="start" x="324.54" y="-363.44" font-family="Helvetica,sans-Serif" font-style="italic" font-size="32.00" fill="#29235c">varchar</text>
<polygon fill="#e7e2dd" stroke="transparent" points="78.22,-282.24 78.22,-342.24 442.22,-342.24 442.22,-282.24 78.22,-282.24"/>
<polygon fill="none" stroke="#29235c" points="78.22,-282.24 78.22,-342.24 442.22,-342.24 442.22,-282.24 78.22,-282.24"/>
<text text-anchor="start" x="89.22" y="-302.44" font-family="Helvetica,sans-Serif" font-size="32.00" fill="#29235c">kode &#160;&#160;&#160;</text>
<text text-anchor="start" x="324.54" y="-303.44" font-family="Helvetica,sans-Serif" font-style="italic" font-size="32.00" fill="#29235c">varchar</text>
<polygon fill="#e7e2dd" stroke="transparent" points="78.22,-222.24 78.22,-282.24 442.22,-282.24 442.22,-222.24 78.22,-222.24"/>
<polygon fill="none" stroke="#29235c" points="78.22,-222.24 78.22,-282.24 442.22,-282.24 442.22,-222.24 78.22,-222.24"/>
<text text-anchor="start" x="89.22" y="-242.44" font-family="Helvetica,sans-Serif" font-size="32.00" fill="#29235c">created_at &#160;&#160;&#160;</text>
<text text-anchor="start" x="283.66" y="-243.44" font-family="Helvetica,sans-Serif" font-style="italic" font-size="32.00" fill="#29235c">timestamp</text>
<polygon fill="#e7e2dd" stroke="transparent" points="78.22,-162.24 78.22,-222.24 442.22,-222.24 442.22,-162.24 78.22,-162.24"/>
<polygon fill="none" stroke="#29235c" points="78.22,-162.24 78.22,-222.24 442.22,-222.24 442.22,-162.24 78.22,-162.24"/>
<text text-anchor="start" x="88.88" y="-182.44" font-family="Helvetica,sans-Serif" font-size="32.00" fill="#29235c">updated_at &#160;&#160;&#160;</text>
<text text-anchor="start" x="283.94" y="-183.44" font-family="Helvetica,sans-Serif" font-style="italic" font-size="32.00" fill="#29235c">timestamp</text>
<polygon fill="none" stroke="#29235c" stroke-width="2" points="77.22,-161.24 77.22,-583.24 443.22,-583.24 443.22,-161.24 77.22,-161.24"/>
</g>
<!-- dokumen&#45;&gt;projects -->
<!-- dokumen&#45;&gt;projects -->
<g id="edge2" class="edge">
<title>dokumen:e&#45;&gt;projects:w</title>
<path fill="none" stroke="#29235c" stroke-width="3" d="M443.22,-432.24C528.49,-432.24 543.78,-487.64 623.58,-491.97"/>
<polygon fill="#29235c" stroke="#29235c" stroke-width="3" points="623.56,-495.47 633.65,-492.24 623.74,-488.48 623.56,-495.47"/>
<text text-anchor="middle" x="624.75" y="-501.84" font-family="Helvetica,sans-Serif" font-size="32.00" fill="#29235c">1</text>
<text text-anchor="middle" x="434.32" y="-441.84" font-family="Helvetica,sans-Serif" font-size="32.00" fill="#29235c">1</text>
</g>
</g>
</svg>
