<?xml version="1.0" encoding="UTF-8" standalone="no"?>
<!DOCTYPE svg PUBLIC "-//W3C//DTD SVG 1.1//EN"
 "http://www.w3.org/Graphics/SVG/1.1/DTD/svg11.dtd">
<!-- Generated by graphviz version 2.47.0 (20210316.0004)
 -->
<!-- Title: dbml Pages: 1 -->
<svg width="1692pt" height="692pt"
 viewBox="0.00 0.00 1692.20 692.48" xmlns="http://www.w3.org/2000/svg" xmlns:xlink="http://www.w3.org/1999/xlink">
<g id="graph0" class="graph" transform="scale(1 1) rotate(0) translate(4 688.48)">
<title>dbml</title>
<!-- projects -->
<g id="projects" class="node">
<title>projects</title>
<ellipse fill="none" stroke="black" stroke-width="0" cx="1423.99" cy="-342.24" rx="260.43" ry="342.48"/>
<polygon fill="#1d71b8" stroke="transparent" points="1241.99,-522.24 1241.99,-582.24 1605.99,-582.24 1605.99,-522.24 1241.99,-522.24"/>
<polygon fill="none" stroke="#29235c" points="1241.99,-522.24 1241.99,-582.24 1605.99,-582.24 1605.99,-522.24 1241.99,-522.24"/>
<text text-anchor="start" x="1305.73" y="-543.44" font-family="Helvetica,sans-Serif" font-weight="bold" font-size="32.00" fill="#ffffff"> &#160;&#160;&#160;&#160;&#160;&#160;projects &#160;&#160;&#160;&#160;&#160;&#160;</text>
<polygon fill="#e7e2dd" stroke="transparent" points="1241.99,-462.24 1241.99,-522.24 1605.99,-522.24 1605.99,-462.24 1241.99,-462.24"/>
<polygon fill="none" stroke="#29235c" points="1241.99,-462.24 1241.99,-522.24 1605.99,-522.24 1605.99,-462.24 1241.99,-462.24"/>
<text text-anchor="start" x="1252.99" y="-483.44" font-family="Helvetica,sans-Serif" font-weight="bold" font-size="32.00" fill="#29235c">id</text>
<text text-anchor="start" x="1277.88" y="-483.44" font-family="Helvetica,sans-Serif" font-size="32.00" fill="#29235c"> &#160;&#160;&#160;</text>
<text text-anchor="start" x="1561.21" y="-483.44" font-family="Helvetica,sans-Serif" font-style="italic" font-size="32.00" fill="#29235c">int</text>
<polygon fill="#e7e2dd" stroke="transparent" points="1241.99,-402.24 1241.99,-462.24 1605.99,-462.24 1605.99,-402.24 1241.99,-402.24"/>
<polygon fill="none" stroke="#29235c" points="1241.99,-402.24 1241.99,-462.24 1605.99,-462.24 1605.99,-402.24 1241.99,-402.24"/>
<text text-anchor="start" x="1252.99" y="-422.44" font-family="Helvetica,sans-Serif" font-size="32.00" fill="#29235c">nama &#160;&#160;&#160;</text>
<text text-anchor="start" x="1449.22" y="-423.44" font-family="Helvetica,sans-Serif" font-style="italic" font-size="32.00" fill="#29235c">varchar</text>
<text text-anchor="start" x="1555.9" y="-423.44" font-family="Helvetica,sans-Serif" font-size="32.00" fill="#29235c"> </text>
<text text-anchor="start" x="1564.79" y="-423.44" font-family="Helvetica,sans-Serif" font-weight="bold" font-size="32.00" fill="#29235c">(!)</text>
<polygon fill="#e7e2dd" stroke="transparent" points="1241.99,-342.24 1241.99,-402.24 1605.99,-402.24 1605.99,-342.24 1241.99,-342.24"/>
<polygon fill="none" stroke="#29235c" points="1241.99,-342.24 1241.99,-402.24 1605.99,-402.24 1605.99,-342.24 1241.99,-342.24"/>
<text text-anchor="start" x="1252.99" y="-362.44" font-family="Helvetica,sans-Serif" font-size="32.00" fill="#29235c">deskripsi &#160;&#160;&#160;</text>
<text text-anchor="start" x="1543.41" y="-363.44" font-family="Helvetica,sans-Serif" font-style="italic" font-size="32.00" fill="#29235c">text</text>
<polygon fill="#e7e2dd" stroke="transparent" points="1241.99,-282.24 1241.99,-342.24 1605.99,-342.24 1605.99,-282.24 1241.99,-282.24"/>
<polygon fill="none" stroke="#29235c" points="1241.99,-282.24 1241.99,-342.24 1605.99,-342.24 1605.99,-282.24 1241.99,-282.24"/>
<text text-anchor="start" x="1252.99" y="-302.44" font-family="Helvetica,sans-Serif" font-size="32.00" fill="#29235c">tanggal_mulai &#160;&#160;&#160;</text>
<text text-anchor="start" x="1532.73" y="-303.44" font-family="Helvetica,sans-Serif" font-style="italic" font-size="32.00" fill="#29235c">date</text>
<polygon fill="#e7e2dd" stroke="transparent" points="1241.99,-222.24 1241.99,-282.24 1605.99,-282.24 1605.99,-222.24 1241.99,-222.24"/>
<polygon fill="none" stroke="#29235c" points="1241.99,-222.24 1241.99,-282.24 1605.99,-282.24 1605.99,-222.24 1241.99,-222.24"/>
<text text-anchor="start" x="1252.99" y="-242.44" font-family="Helvetica,sans-Serif" font-size="32.00" fill="#29235c">tanggal_selesai &#160;&#160;&#160;</text>
<text text-anchor="start" x="1532.73" y="-243.44" font-family="Helvetica,sans-Serif" font-style="italic" font-size="32.00" fill="#29235c">date</text>
<polygon fill="#e7e2dd" stroke="transparent" points="1241.99,-162.24 1241.99,-222.24 1605.99,-222.24 1605.99,-162.24 1241.99,-162.24"/>
<polygon fill="none" stroke="#29235c" points="1241.99,-162.24 1241.99,-222.24 1605.99,-222.24 1605.99,-162.24 1241.99,-162.24"/>
<text text-anchor="start" x="1252.99" y="-182.44" font-family="Helvetica,sans-Serif" font-size="32.00" fill="#29235c">created_at &#160;&#160;&#160;</text>
<text text-anchor="start" x="1447.43" y="-183.44" font-family="Helvetica,sans-Serif" font-style="italic" font-size="32.00" fill="#29235c">timestamp</text>
<polygon fill="#e7e2dd" stroke="transparent" points="1241.99,-102.24 1241.99,-162.24 1605.99,-162.24 1605.99,-102.24 1241.99,-102.24"/>
<polygon fill="none" stroke="#29235c" points="1241.99,-102.24 1241.99,-162.24 1605.99,-162.24 1605.99,-102.24 1241.99,-102.24"/>
<text text-anchor="start" x="1252.65" y="-122.44" font-family="Helvetica,sans-Serif" font-size="32.00" fill="#29235c">updated_at &#160;&#160;&#160;</text>
<text text-anchor="start" x="1447.71" y="-123.44" font-family="Helvetica,sans-Serif" font-style="italic" font-size="32.00" fill="#29235c">timestamp</text>
<polygon fill="none" stroke="#29235c" stroke-width="2" points="1240.99,-101.24 1240.99,-583.24 1606.99,-583.24 1606.99,-101.24 1240.99,-101.24"/>
</g>
<!-- dokumens -->
<g id="dokumens" class="node">
<title>dokumens</title>
<ellipse fill="none" stroke="black" stroke-width="0" cx="867.56" cy="-372.24" rx="260.43" ry="299.63"/>
<polygon fill="#1d71b8" stroke="transparent" points="685.56,-522.24 685.56,-582.24 1049.56,-582.24 1049.56,-522.24 685.56,-522.24"/>
<polygon fill="none" stroke="#29235c" points="685.56,-522.24 685.56,-582.24 1049.56,-582.24 1049.56,-522.24 685.56,-522.24"/>
<text text-anchor="start" x="731.51" y="-543.44" font-family="Helvetica,sans-Serif" font-weight="bold" font-size="32.00" fill="#ffffff"> &#160;&#160;&#160;&#160;&#160;&#160;dokumens &#160;&#160;&#160;&#160;&#160;&#160;</text>
<polygon fill="#e7e2dd" stroke="transparent" points="685.56,-462.24 685.56,-522.24 1049.56,-522.24 1049.56,-462.24 685.56,-462.24"/>
<polygon fill="none" stroke="#29235c" points="685.56,-462.24 685.56,-522.24 1049.56,-522.24 1049.56,-462.24 685.56,-462.24"/>
<text text-anchor="start" x="696.56" y="-483.44" font-family="Helvetica,sans-Serif" font-weight="bold" font-size="32.00" fill="#29235c">id</text>
<text text-anchor="start" x="721.45" y="-483.44" font-family="Helvetica,sans-Serif" font-size="32.00" fill="#29235c"> &#160;&#160;&#160;</text>
<text text-anchor="start" x="1004.78" y="-483.44" font-family="Helvetica,sans-Serif" font-style="italic" font-size="32.00" fill="#29235c">int</text>
<polygon fill="#e7e2dd" stroke="transparent" points="685.56,-402.24 685.56,-462.24 1049.56,-462.24 1049.56,-402.24 685.56,-402.24"/>
<polygon fill="none" stroke="#29235c" points="685.56,-402.24 685.56,-462.24 1049.56,-462.24 1049.56,-402.24 685.56,-402.24"/>
<text text-anchor="start" x="696.56" y="-422.44" font-family="Helvetica,sans-Serif" font-size="32.00" fill="#29235c">project_id &#160;&#160;&#160;</text>
<text text-anchor="start" x="1004.78" y="-423.44" font-family="Helvetica,sans-Serif" font-style="italic" font-size="32.00" fill="#29235c">int</text>
<polygon fill="#e7e2dd" stroke="transparent" points="685.56,-342.24 685.56,-402.24 1049.56,-402.24 1049.56,-342.24 685.56,-342.24"/>
<polygon fill="none" stroke="#29235c" points="685.56,-342.24 685.56,-402.24 1049.56,-402.24 1049.56,-342.24 685.56,-342.24"/>
<text text-anchor="start" x="696.56" y="-362.44" font-family="Helvetica,sans-Serif" font-size="32.00" fill="#29235c">nama &#160;&#160;&#160;</text>
<text text-anchor="start" x="931.89" y="-363.44" font-family="Helvetica,sans-Serif" font-style="italic" font-size="32.00" fill="#29235c">varchar</text>
<polygon fill="#e7e2dd" stroke="transparent" points="685.56,-282.24 685.56,-342.24 1049.56,-342.24 1049.56,-282.24 685.56,-282.24"/>
<polygon fill="none" stroke="#29235c" points="685.56,-282.24 685.56,-342.24 1049.56,-342.24 1049.56,-282.24 685.56,-282.24"/>
<text text-anchor="start" x="696.56" y="-302.44" font-family="Helvetica,sans-Serif" font-size="32.00" fill="#29235c">kode &#160;&#160;&#160;</text>
<text text-anchor="start" x="931.89" y="-303.44" font-family="Helvetica,sans-Serif" font-style="italic" font-size="32.00" fill="#29235c">varchar</text>
<polygon fill="#e7e2dd" stroke="transparent" points="685.56,-222.24 685.56,-282.24 1049.56,-282.24 1049.56,-222.24 685.56,-222.24"/>
<polygon fill="none" stroke="#29235c" points="685.56,-222.24 685.56,-282.24 1049.56,-282.24 1049.56,-222.24 685.56,-222.24"/>
<text text-anchor="start" x="696.56" y="-242.44" font-family="Helvetica,sans-Serif" font-size="32.00" fill="#29235c">created_at &#160;&#160;&#160;</text>
<text text-anchor="start" x="891" y="-243.44" font-family="Helvetica,sans-Serif" font-style="italic" font-size="32.00" fill="#29235c">timestamp</text>
<polygon fill="#e7e2dd" stroke="transparent" points="685.56,-162.24 685.56,-222.24 1049.56,-222.24 1049.56,-162.24 685.56,-162.24"/>
<polygon fill="none" stroke="#29235c" points="685.56,-162.24 685.56,-222.24 1049.56,-222.24 1049.56,-162.24 685.56,-162.24"/>
<text text-anchor="start" x="696.22" y="-182.44" font-family="Helvetica,sans-Serif" font-size="32.00" fill="#29235c">updated_at &#160;&#160;&#160;</text>
<text text-anchor="start" x="891.28" y="-183.44" font-family="Helvetica,sans-Serif" font-style="italic" font-size="32.00" fill="#29235c">timestamp</text>
<polygon fill="none" stroke="#29235c" stroke-width="2" points="684.56,-161.24 684.56,-583.24 1050.56,-583.24 1050.56,-161.24 684.56,-161.24"/>
</g>
<!-- dokumens&#45;&gt;projects -->
<!-- dokumens&#45;&gt;projects -->
<g id="edge2" class="edge">
<title>dokumens:e&#45;&gt;projects:w</title>
<path fill="none" stroke="#29235c" stroke-width="3" d="M1050.56,-432.24C1135.83,-432.24 1151.12,-487.64 1230.93,-491.97"/>
<polygon fill="#29235c" stroke="#29235c" stroke-width="3" points="1230.9,-495.47 1240.99,-492.24 1231.08,-488.48 1230.9,-495.47"/>
<text text-anchor="middle" x="1232.09" y="-501.84" font-family="Helvetica,sans-Serif" font-size="32.00" fill="#29235c">1</text>
<text text-anchor="middle" x="1041.66" y="-441.84" font-family="Helvetica,sans-Serif" font-size="32.00" fill="#29235c">1</text>
</g>
<!-- scrum_user_story -->
<g id="scrum_user_story" class="node">
<title>scrum_user_story</title>
<ellipse fill="none" stroke="black" stroke-width="0" cx="285.67" cy="-522.24" rx="285.84" ry="87.86"/>
<polygon fill="#1d71b8" stroke="transparent" points="85.67,-522.24 85.67,-582.24 485.67,-582.24 485.67,-522.24 85.67,-522.24"/>
<polygon fill="none" stroke="#29235c" points="85.67,-522.24 85.67,-582.24 485.67,-582.24 485.67,-522.24 85.67,-522.24"/>
<text text-anchor="start" x="96.3" y="-543.44" font-family="Helvetica,sans-Serif" font-weight="bold" font-size="32.00" fill="#ffffff"> &#160;&#160;&#160;&#160;&#160;&#160;scrum_user_story &#160;&#160;&#160;&#160;&#160;&#160;</text>
<polygon fill="#e7e2dd" stroke="transparent" points="85.67,-462.24 85.67,-522.24 485.67,-522.24 485.67,-462.24 85.67,-462.24"/>
<polygon fill="none" stroke="#29235c" points="85.67,-462.24 85.67,-522.24 485.67,-522.24 485.67,-462.24 85.67,-462.24"/>
<text text-anchor="start" x="96.67" y="-482.44" font-family="Helvetica,sans-Serif" font-size="32.00" fill="#29235c">dokumen_id &#160;&#160;&#160;</text>
<text text-anchor="start" x="440.89" y="-483.44" font-family="Helvetica,sans-Serif" font-style="italic" font-size="32.00" fill="#29235c">int</text>
<polygon fill="none" stroke="#29235c" stroke-width="2" points="84.67,-461.24 84.67,-583.24 486.67,-583.24 486.67,-461.24 84.67,-461.24"/>
</g>
<!-- scrum_user_story&#45;&gt;dokumens -->
<!-- scrum_user_story&#45;&gt;dokumens -->
<g id="edge4" class="edge">
<title>scrum_user_story:e&#45;&gt;dokumens:w</title>
<path fill="none" stroke="#29235c" stroke-width="3" d="M486.67,-492.24C571.19,-492.24 594.79,-492.24 674.55,-492.24"/>
<polygon fill="#29235c" stroke="#29235c" stroke-width="3" points="674.56,-495.74 684.56,-492.24 674.56,-488.74 674.56,-495.74"/>
<text text-anchor="middle" x="675.66" y="-501.84" font-family="Helvetica,sans-Serif" font-size="32.00" fill="#29235c">1</text>
<text text-anchor="middle" x="480.45" y="-501.84" font-family="Helvetica,sans-Serif" font-size="32.00" fill="#29235c">*</text>
</g>
</g>
</svg>
