<?xml version="1.0" encoding="UTF-8" standalone="no"?>
<!DOCTYPE svg PUBLIC "-//W3C//DTD SVG 1.1//EN"
 "http://www.w3.org/Graphics/SVG/1.1/DTD/svg11.dtd">
<!-- Generated by graphviz version 2.47.0 (20210316.0004)
 -->
<!-- Title: dbml Pages: 1 -->
<svg width="2068pt" height="523pt"
 viewBox="0.00 0.00 2067.61 522.77" xmlns="http://www.w3.org/2000/svg" xmlns:xlink="http://www.w3.org/1999/xlink">
<g id="graph0" class="graph" transform="scale(1 1) rotate(0) translate(4 518.77)">
<title>dbml</title>
<!-- projects -->
<g id="projects" class="node">
<title>projects</title>
<ellipse fill="none" stroke="black" stroke-width="0" cx="1799.4" cy="-257.39" rx="260.43" ry="257.27"/>
<polygon fill="#1d71b8" stroke="transparent" points="1617.4,-377.39 1617.4,-437.39 1981.4,-437.39 1981.4,-377.39 1617.4,-377.39"/>
<polygon fill="none" stroke="#29235c" points="1617.4,-377.39 1617.4,-437.39 1981.4,-437.39 1981.4,-377.39 1617.4,-377.39"/>
<text text-anchor="start" x="1681.14" y="-398.59" font-family="Helvetica,sans-Serif" font-weight="bold" font-size="32.00" fill="#ffffff"> &#160;&#160;&#160;&#160;&#160;&#160;projects &#160;&#160;&#160;&#160;&#160;&#160;</text>
<polygon fill="#e7e2dd" stroke="transparent" points="1617.4,-317.39 1617.4,-377.39 1981.4,-377.39 1981.4,-317.39 1617.4,-317.39"/>
<polygon fill="none" stroke="#29235c" points="1617.4,-317.39 1617.4,-377.39 1981.4,-377.39 1981.4,-317.39 1617.4,-317.39"/>
<text text-anchor="start" x="1628.4" y="-338.59" font-family="Helvetica,sans-Serif" font-weight="bold" font-size="32.00" fill="#29235c">id</text>
<text text-anchor="start" x="1653.29" y="-338.59" font-family="Helvetica,sans-Serif" font-size="32.00" fill="#29235c"> &#160;&#160;&#160;</text>
<text text-anchor="start" x="1936.62" y="-338.59" font-family="Helvetica,sans-Serif" font-style="italic" font-size="32.00" fill="#29235c">int</text>
<polygon fill="#e7e2dd" stroke="transparent" points="1617.4,-257.39 1617.4,-317.39 1981.4,-317.39 1981.4,-257.39 1617.4,-257.39"/>
<polygon fill="none" stroke="#29235c" points="1617.4,-257.39 1617.4,-317.39 1981.4,-317.39 1981.4,-257.39 1617.4,-257.39"/>
<text text-anchor="start" x="1628.4" y="-277.59" font-family="Helvetica,sans-Serif" font-size="32.00" fill="#29235c">name &#160;&#160;&#160;</text>
<text text-anchor="start" x="1824.64" y="-278.59" font-family="Helvetica,sans-Serif" font-style="italic" font-size="32.00" fill="#29235c">varchar</text>
<text text-anchor="start" x="1931.31" y="-278.59" font-family="Helvetica,sans-Serif" font-size="32.00" fill="#29235c"> </text>
<text text-anchor="start" x="1940.2" y="-278.59" font-family="Helvetica,sans-Serif" font-weight="bold" font-size="32.00" fill="#29235c">(!)</text>
<polygon fill="#e7e2dd" stroke="transparent" points="1617.4,-197.39 1617.4,-257.39 1981.4,-257.39 1981.4,-197.39 1617.4,-197.39"/>
<polygon fill="none" stroke="#29235c" points="1617.4,-197.39 1617.4,-257.39 1981.4,-257.39 1981.4,-197.39 1617.4,-197.39"/>
<text text-anchor="start" x="1628.4" y="-217.59" font-family="Helvetica,sans-Serif" font-size="32.00" fill="#29235c">code &#160;&#160;&#160;</text>
<text text-anchor="start" x="1863.73" y="-218.59" font-family="Helvetica,sans-Serif" font-style="italic" font-size="32.00" fill="#29235c">varchar</text>
<polygon fill="#e7e2dd" stroke="transparent" points="1617.4,-137.39 1617.4,-197.39 1981.4,-197.39 1981.4,-137.39 1617.4,-137.39"/>
<polygon fill="none" stroke="#29235c" points="1617.4,-137.39 1617.4,-197.39 1981.4,-197.39 1981.4,-137.39 1617.4,-137.39"/>
<text text-anchor="start" x="1628.4" y="-157.59" font-family="Helvetica,sans-Serif" font-size="32.00" fill="#29235c">created_at &#160;&#160;&#160;</text>
<text text-anchor="start" x="1822.84" y="-158.59" font-family="Helvetica,sans-Serif" font-style="italic" font-size="32.00" fill="#29235c">timestamp</text>
<polygon fill="#e7e2dd" stroke="transparent" points="1617.4,-77.39 1617.4,-137.39 1981.4,-137.39 1981.4,-77.39 1617.4,-77.39"/>
<polygon fill="none" stroke="#29235c" points="1617.4,-77.39 1617.4,-137.39 1981.4,-137.39 1981.4,-77.39 1617.4,-77.39"/>
<text text-anchor="start" x="1628.07" y="-97.59" font-family="Helvetica,sans-Serif" font-size="32.00" fill="#29235c">updated_at &#160;&#160;&#160;</text>
<text text-anchor="start" x="1823.12" y="-98.59" font-family="Helvetica,sans-Serif" font-style="italic" font-size="32.00" fill="#29235c">timestamp</text>
<polygon fill="none" stroke="#29235c" stroke-width="2" points="1616.4,-76.39 1616.4,-438.39 1982.4,-438.39 1982.4,-76.39 1616.4,-76.39"/>
</g>
<!-- products -->
<g id="products" class="node">
<title>products</title>
<ellipse fill="none" stroke="black" stroke-width="0" cx="1242.97" cy="-257.39" rx="260.43" ry="257.27"/>
<polygon fill="#1d71b8" stroke="transparent" points="1060.97,-377.39 1060.97,-437.39 1424.97,-437.39 1424.97,-377.39 1060.97,-377.39"/>
<polygon fill="none" stroke="#29235c" points="1060.97,-377.39 1060.97,-437.39 1424.97,-437.39 1424.97,-377.39 1060.97,-377.39"/>
<text text-anchor="start" x="1119.37" y="-398.59" font-family="Helvetica,sans-Serif" font-weight="bold" font-size="32.00" fill="#ffffff"> &#160;&#160;&#160;&#160;&#160;&#160;products &#160;&#160;&#160;&#160;&#160;&#160;</text>
<polygon fill="#e7e2dd" stroke="transparent" points="1060.97,-317.39 1060.97,-377.39 1424.97,-377.39 1424.97,-317.39 1060.97,-317.39"/>
<polygon fill="none" stroke="#29235c" points="1060.97,-317.39 1060.97,-377.39 1424.97,-377.39 1424.97,-317.39 1060.97,-317.39"/>
<text text-anchor="start" x="1071.97" y="-338.59" font-family="Helvetica,sans-Serif" font-weight="bold" font-size="32.00" fill="#29235c">id</text>
<text text-anchor="start" x="1096.86" y="-338.59" font-family="Helvetica,sans-Serif" font-size="32.00" fill="#29235c"> &#160;&#160;&#160;</text>
<text text-anchor="start" x="1380.19" y="-338.59" font-family="Helvetica,sans-Serif" font-style="italic" font-size="32.00" fill="#29235c">int</text>
<polygon fill="#e7e2dd" stroke="transparent" points="1060.97,-257.39 1060.97,-317.39 1424.97,-317.39 1424.97,-257.39 1060.97,-257.39"/>
<polygon fill="none" stroke="#29235c" points="1060.97,-257.39 1060.97,-317.39 1424.97,-317.39 1424.97,-257.39 1060.97,-257.39"/>
<text text-anchor="start" x="1071.97" y="-277.59" font-family="Helvetica,sans-Serif" font-size="32.00" fill="#29235c">name &#160;&#160;&#160;</text>
<text text-anchor="start" x="1307.3" y="-278.59" font-family="Helvetica,sans-Serif" font-style="italic" font-size="32.00" fill="#29235c">varchar</text>
<polygon fill="#e7e2dd" stroke="transparent" points="1060.97,-197.39 1060.97,-257.39 1424.97,-257.39 1424.97,-197.39 1060.97,-197.39"/>
<polygon fill="none" stroke="#29235c" points="1060.97,-197.39 1060.97,-257.39 1424.97,-257.39 1424.97,-197.39 1060.97,-197.39"/>
<text text-anchor="start" x="1071.97" y="-217.59" font-family="Helvetica,sans-Serif" font-size="32.00" fill="#29235c">project_id &#160;&#160;&#160;</text>
<text text-anchor="start" x="1380.19" y="-218.59" font-family="Helvetica,sans-Serif" font-style="italic" font-size="32.00" fill="#29235c">int</text>
<polygon fill="#e7e2dd" stroke="transparent" points="1060.97,-137.39 1060.97,-197.39 1424.97,-197.39 1424.97,-137.39 1060.97,-137.39"/>
<polygon fill="none" stroke="#29235c" points="1060.97,-137.39 1060.97,-197.39 1424.97,-197.39 1424.97,-137.39 1060.97,-137.39"/>
<text text-anchor="start" x="1071.97" y="-157.59" font-family="Helvetica,sans-Serif" font-size="32.00" fill="#29235c">created_at &#160;&#160;&#160;</text>
<text text-anchor="start" x="1266.41" y="-158.59" font-family="Helvetica,sans-Serif" font-style="italic" font-size="32.00" fill="#29235c">timestamp</text>
<polygon fill="#e7e2dd" stroke="transparent" points="1060.97,-77.39 1060.97,-137.39 1424.97,-137.39 1424.97,-77.39 1060.97,-77.39"/>
<polygon fill="none" stroke="#29235c" points="1060.97,-77.39 1060.97,-137.39 1424.97,-137.39 1424.97,-77.39 1060.97,-77.39"/>
<text text-anchor="start" x="1071.64" y="-97.59" font-family="Helvetica,sans-Serif" font-size="32.00" fill="#29235c">updated_at &#160;&#160;&#160;</text>
<text text-anchor="start" x="1266.69" y="-98.59" font-family="Helvetica,sans-Serif" font-style="italic" font-size="32.00" fill="#29235c">timestamp</text>
<polygon fill="none" stroke="#29235c" stroke-width="2" points="1059.97,-76.39 1059.97,-438.39 1425.97,-438.39 1425.97,-76.39 1059.97,-76.39"/>
</g>
<!-- products&#45;&gt;projects -->
<!-- products&#45;&gt;projects -->
<g id="edge2" class="edge">
<title>products:e&#45;&gt;projects:w</title>
<path fill="none" stroke="#29235c" stroke-width="3" d="M1425.97,-227.39C1522.49,-227.39 1516.9,-339.1 1606.25,-346.95"/>
<polygon fill="#29235c" stroke="#29235c" stroke-width="3" points="1606.26,-350.46 1616.4,-347.39 1606.56,-343.46 1606.26,-350.46"/>
<text text-anchor="middle" x="1607.51" y="-356.99" font-family="Helvetica,sans-Serif" font-size="32.00" fill="#29235c">1</text>
<text text-anchor="middle" x="1432.19" y="-198.59" font-family="Helvetica,sans-Serif" font-size="32.00" fill="#29235c">*</text>
</g>
<!-- epics -->
<g id="epics" class="node">
<title>epics</title>
<ellipse fill="none" stroke="black" stroke-width="0" cx="686.54" cy="-257.39" rx="260.43" ry="257.27"/>
<polygon fill="#1d71b8" stroke="transparent" points="504.54,-377.39 504.54,-437.39 868.54,-437.39 868.54,-377.39 504.54,-377.39"/>
<polygon fill="none" stroke="#29235c" points="504.54,-377.39 504.54,-437.39 868.54,-437.39 868.54,-377.39 504.54,-377.39"/>
<text text-anchor="start" x="586.95" y="-398.59" font-family="Helvetica,sans-Serif" font-weight="bold" font-size="32.00" fill="#ffffff"> &#160;&#160;&#160;&#160;&#160;&#160;epics &#160;&#160;&#160;&#160;&#160;&#160;</text>
<polygon fill="#e7e2dd" stroke="transparent" points="504.54,-317.39 504.54,-377.39 868.54,-377.39 868.54,-317.39 504.54,-317.39"/>
<polygon fill="none" stroke="#29235c" points="504.54,-317.39 504.54,-377.39 868.54,-377.39 868.54,-317.39 504.54,-317.39"/>
<text text-anchor="start" x="515.54" y="-338.59" font-family="Helvetica,sans-Serif" font-weight="bold" font-size="32.00" fill="#29235c">id</text>
<text text-anchor="start" x="540.43" y="-338.59" font-family="Helvetica,sans-Serif" font-size="32.00" fill="#29235c"> &#160;&#160;&#160;</text>
<text text-anchor="start" x="823.76" y="-338.59" font-family="Helvetica,sans-Serif" font-style="italic" font-size="32.00" fill="#29235c">int</text>
<polygon fill="#e7e2dd" stroke="transparent" points="504.54,-257.39 504.54,-317.39 868.54,-317.39 868.54,-257.39 504.54,-257.39"/>
<polygon fill="none" stroke="#29235c" points="504.54,-257.39 504.54,-317.39 868.54,-317.39 868.54,-257.39 504.54,-257.39"/>
<text text-anchor="start" x="515.54" y="-277.59" font-family="Helvetica,sans-Serif" font-size="32.00" fill="#29235c">name &#160;&#160;&#160;</text>
<text text-anchor="start" x="711.78" y="-278.59" font-family="Helvetica,sans-Serif" font-style="italic" font-size="32.00" fill="#29235c">varchar</text>
<text text-anchor="start" x="818.45" y="-278.59" font-family="Helvetica,sans-Serif" font-size="32.00" fill="#29235c"> </text>
<text text-anchor="start" x="827.34" y="-278.59" font-family="Helvetica,sans-Serif" font-weight="bold" font-size="32.00" fill="#29235c">(!)</text>
<polygon fill="#e7e2dd" stroke="transparent" points="504.54,-197.39 504.54,-257.39 868.54,-257.39 868.54,-197.39 504.54,-197.39"/>
<polygon fill="none" stroke="#29235c" points="504.54,-197.39 504.54,-257.39 868.54,-257.39 868.54,-197.39 504.54,-197.39"/>
<text text-anchor="start" x="515.54" y="-217.59" font-family="Helvetica,sans-Serif" font-size="32.00" fill="#29235c">product_id &#160;&#160;&#160;</text>
<text text-anchor="start" x="823.76" y="-218.59" font-family="Helvetica,sans-Serif" font-style="italic" font-size="32.00" fill="#29235c">int</text>
<polygon fill="#e7e2dd" stroke="transparent" points="504.54,-137.39 504.54,-197.39 868.54,-197.39 868.54,-137.39 504.54,-137.39"/>
<polygon fill="none" stroke="#29235c" points="504.54,-137.39 504.54,-197.39 868.54,-197.39 868.54,-137.39 504.54,-137.39"/>
<text text-anchor="start" x="515.54" y="-157.59" font-family="Helvetica,sans-Serif" font-size="32.00" fill="#29235c">created_at &#160;&#160;&#160;</text>
<text text-anchor="start" x="709.98" y="-158.59" font-family="Helvetica,sans-Serif" font-style="italic" font-size="32.00" fill="#29235c">timestamp</text>
<polygon fill="#e7e2dd" stroke="transparent" points="504.54,-77.39 504.54,-137.39 868.54,-137.39 868.54,-77.39 504.54,-77.39"/>
<polygon fill="none" stroke="#29235c" points="504.54,-77.39 504.54,-137.39 868.54,-137.39 868.54,-77.39 504.54,-77.39"/>
<text text-anchor="start" x="515.2" y="-97.59" font-family="Helvetica,sans-Serif" font-size="32.00" fill="#29235c">updated_at &#160;&#160;&#160;</text>
<text text-anchor="start" x="710.26" y="-98.59" font-family="Helvetica,sans-Serif" font-style="italic" font-size="32.00" fill="#29235c">timestamp</text>
<polygon fill="none" stroke="#29235c" stroke-width="2" points="503.54,-76.39 503.54,-438.39 869.54,-438.39 869.54,-76.39 503.54,-76.39"/>
</g>
<!-- epics&#45;&gt;products -->
<!-- epics&#45;&gt;products -->
<g id="edge4" class="edge">
<title>epics:e&#45;&gt;products:w</title>
<path fill="none" stroke="#29235c" stroke-width="3" d="M869.54,-227.39C966.06,-227.39 960.47,-339.1 1049.82,-346.95"/>
<polygon fill="#29235c" stroke="#29235c" stroke-width="3" points="1049.83,-350.46 1059.97,-347.39 1050.13,-343.46 1049.83,-350.46"/>
<text text-anchor="middle" x="1051.07" y="-356.99" font-family="Helvetica,sans-Serif" font-size="32.00" fill="#29235c">1</text>
<text text-anchor="middle" x="863.32" y="-198.59" font-family="Helvetica,sans-Serif" font-size="32.00" fill="#29235c">*</text>
</g>
<!-- backlogs -->
<g id="backlogs" class="node">
<title>backlogs</title>
<ellipse fill="none" stroke="black" stroke-width="0" cx="195.16" cy="-377.39" rx="195.32" ry="87.86"/>
<polygon fill="#1d71b8" stroke="transparent" points="59.16,-377.39 59.16,-437.39 331.16,-437.39 331.16,-377.39 59.16,-377.39"/>
<polygon fill="none" stroke="#29235c" points="59.16,-377.39 59.16,-437.39 331.16,-437.39 331.16,-377.39 59.16,-377.39"/>
<text text-anchor="start" x="69.78" y="-398.59" font-family="Helvetica,sans-Serif" font-weight="bold" font-size="32.00" fill="#ffffff"> &#160;&#160;&#160;&#160;&#160;&#160;backlogs &#160;&#160;&#160;&#160;&#160;&#160;</text>
<polygon fill="#e7e2dd" stroke="transparent" points="59.16,-317.39 59.16,-377.39 331.16,-377.39 331.16,-317.39 59.16,-317.39"/>
<polygon fill="none" stroke="#29235c" points="59.16,-317.39 59.16,-377.39 331.16,-377.39 331.16,-317.39 59.16,-317.39"/>
<text text-anchor="start" x="70.16" y="-337.59" font-family="Helvetica,sans-Serif" font-size="32.00" fill="#29235c">epic_id &#160;&#160;&#160;</text>
<text text-anchor="start" x="286.38" y="-338.59" font-family="Helvetica,sans-Serif" font-style="italic" font-size="32.00" fill="#29235c">int</text>
<polygon fill="none" stroke="#29235c" stroke-width="2" points="58.16,-316.39 58.16,-438.39 332.16,-438.39 332.16,-316.39 58.16,-316.39"/>
</g>
<!-- backlogs&#45;&gt;epics -->
<!-- backlogs&#45;&gt;epics -->
<g id="edge6" class="edge">
<title>backlogs:e&#45;&gt;epics:w</title>
<path fill="none" stroke="#29235c" stroke-width="3" d="M332.16,-347.39C404.76,-347.39 425.46,-347.39 493.19,-347.39"/>
<polygon fill="#29235c" stroke="#29235c" stroke-width="3" points="493.54,-350.89 503.54,-347.39 493.54,-343.89 493.54,-350.89"/>
<text text-anchor="middle" x="494.64" y="-356.99" font-family="Helvetica,sans-Serif" font-size="32.00" fill="#29235c">1</text>
<text text-anchor="middle" x="325.94" y="-356.99" font-family="Helvetica,sans-Serif" font-size="32.00" fill="#29235c">*</text>
</g>
</g>
</svg>
