<?xml version="1.0" encoding="UTF-8" standalone="no"?>
<!DOCTYPE svg PUBLIC "-//W3C//DTD SVG 1.1//EN"
 "http://www.w3.org/Graphics/SVG/1.1/DTD/svg11.dtd">
<!-- Generated by graphviz version 2.47.0 (20210316.0004)
 -->
<!-- Title: dbml Pages: 1 -->
<svg width="1059pt" height="376pt"
 viewBox="0.00 0.00 1059.41 376.36" xmlns="http://www.w3.org/2000/svg" xmlns:xlink="http://www.w3.org/1999/xlink">
<g id="graph0" class="graph" transform="scale(1 1) rotate(0) translate(4 372.36)">
<title>dbml</title>
<!-- flowcharts -->
<g id="flowcharts" class="node">
<title>flowcharts</title>
<ellipse fill="none" stroke="black" stroke-width="0" cx="843.52" cy="-153.68" rx="207.78" ry="130.22"/>
<polygon fill="#1d71b8" stroke="transparent" points="698.52,-183.68 698.52,-243.68 988.52,-243.68 988.52,-183.68 698.52,-183.68"/>
<polygon fill="none" stroke="#29235c" points="698.52,-183.68 698.52,-243.68 988.52,-243.68 988.52,-183.68 698.52,-183.68"/>
<text text-anchor="start" x="709.26" y="-204.88" font-family="Helvetica,sans-Serif" font-weight="bold" font-size="32.00" fill="#ffffff"> &#160;&#160;&#160;&#160;&#160;&#160;flowcharts &#160;&#160;&#160;&#160;&#160;&#160;</text>
<polygon fill="#e7e2dd" stroke="transparent" points="698.52,-123.68 698.52,-183.68 988.52,-183.68 988.52,-123.68 698.52,-123.68"/>
<polygon fill="none" stroke="#29235c" points="698.52,-123.68 698.52,-183.68 988.52,-183.68 988.52,-123.68 698.52,-123.68"/>
<text text-anchor="start" x="709.52" y="-144.88" font-family="Helvetica,sans-Serif" font-weight="bold" font-size="32.00" fill="#29235c">id</text>
<text text-anchor="start" x="734.41" y="-144.88" font-family="Helvetica,sans-Serif" font-size="32.00" fill="#29235c"> &#160;&#160;&#160;</text>
<text text-anchor="start" x="943.73" y="-144.88" font-family="Helvetica,sans-Serif" font-style="italic" font-size="32.00" fill="#29235c">int</text>
<polygon fill="#e7e2dd" stroke="transparent" points="698.52,-63.68 698.52,-123.68 988.52,-123.68 988.52,-63.68 698.52,-63.68"/>
<polygon fill="none" stroke="#29235c" points="698.52,-63.68 698.52,-123.68 988.52,-123.68 988.52,-63.68 698.52,-63.68"/>
<text text-anchor="start" x="709.52" y="-83.88" font-family="Helvetica,sans-Serif" font-size="32.00" fill="#29235c">name &#160;&#160;&#160;</text>
<text text-anchor="start" x="831.75" y="-84.88" font-family="Helvetica,sans-Serif" font-style="italic" font-size="32.00" fill="#29235c">varchar</text>
<text text-anchor="start" x="938.42" y="-84.88" font-family="Helvetica,sans-Serif" font-size="32.00" fill="#29235c"> </text>
<text text-anchor="start" x="947.32" y="-84.88" font-family="Helvetica,sans-Serif" font-weight="bold" font-size="32.00" fill="#29235c">(!)</text>
<polygon fill="none" stroke="#29235c" stroke-width="2" points="697.52,-62.68 697.52,-244.68 989.52,-244.68 989.52,-62.68 697.52,-62.68"/>
</g>
<!-- sop_job_flowcharts -->
<g id="sop_job_flowcharts" class="node">
<title>sop_job_flowcharts</title>
<ellipse fill="none" stroke="black" stroke-width="0" cx="299.81" cy="-280.68" rx="299.63" ry="87.86"/>
<polygon fill="#1d71b8" stroke="transparent" points="89.81,-280.68 89.81,-340.68 509.81,-340.68 509.81,-280.68 89.81,-280.68"/>
<polygon fill="none" stroke="#29235c" points="89.81,-280.68 89.81,-340.68 509.81,-340.68 509.81,-280.68 89.81,-280.68"/>
<text text-anchor="start" x="100.64" y="-301.88" font-family="Helvetica,sans-Serif" font-weight="bold" font-size="32.00" fill="#ffffff"> &#160;&#160;&#160;&#160;&#160;&#160;sop_job_flowcharts &#160;&#160;&#160;&#160;&#160;&#160;</text>
<polygon fill="#e7e2dd" stroke="transparent" points="89.81,-220.68 89.81,-280.68 509.81,-280.68 509.81,-220.68 89.81,-220.68"/>
<polygon fill="none" stroke="#29235c" points="89.81,-220.68 89.81,-280.68 509.81,-280.68 509.81,-220.68 89.81,-220.68"/>
<text text-anchor="start" x="100.81" y="-240.88" font-family="Helvetica,sans-Serif" font-size="32.00" fill="#29235c">flowchart_id &#160;&#160;&#160;</text>
<text text-anchor="start" x="425.94" y="-241.88" font-family="Helvetica,sans-Serif" font-style="italic" font-size="32.00" fill="#29235c">int</text>
<text text-anchor="start" x="459.72" y="-241.88" font-family="Helvetica,sans-Serif" font-size="32.00" fill="#29235c"> </text>
<text text-anchor="start" x="468.61" y="-241.88" font-family="Helvetica,sans-Serif" font-weight="bold" font-size="32.00" fill="#29235c">(!)</text>
<polygon fill="none" stroke="#29235c" stroke-width="2" points="88.81,-219.68 88.81,-341.68 510.81,-341.68 510.81,-219.68 88.81,-219.68"/>
</g>
<!-- sop_job_flowcharts&#45;&gt;flowcharts -->
<!-- sop_job_flowcharts&#45;&gt;flowcharts -->
<g id="edge2" class="edge">
<title>sop_job_flowcharts:e&#45;&gt;flowcharts:w</title>
<path fill="none" stroke="#29235c" stroke-width="3" d="M510.81,-250.68C600.85,-250.68 603.9,-160.75 687.48,-154.07"/>
<polygon fill="#29235c" stroke="#29235c" stroke-width="3" points="687.66,-157.57 697.52,-153.68 687.39,-150.57 687.66,-157.57"/>
<text text-anchor="middle" x="706.41" y="-163.28" font-family="Helvetica,sans-Serif" font-size="32.00" fill="#29235c">1</text>
<text text-anchor="middle" x="517.04" y="-260.28" font-family="Helvetica,sans-Serif" font-size="32.00" fill="#29235c">*</text>
</g>
<!-- spk_job_flowcharts -->
<g id="spk_job_flowcharts" class="node">
<title>spk_job_flowcharts</title>
<ellipse fill="none" stroke="black" stroke-width="0" cx="299.81" cy="-87.68" rx="298.3" ry="87.86"/>
<polygon fill="#1d71b8" stroke="transparent" points="90.81,-87.68 90.81,-147.68 508.81,-147.68 508.81,-87.68 90.81,-87.68"/>
<polygon fill="none" stroke="#29235c" points="90.81,-87.68 90.81,-147.68 508.81,-147.68 508.81,-87.68 90.81,-87.68"/>
<text text-anchor="start" x="101.54" y="-108.88" font-family="Helvetica,sans-Serif" font-weight="bold" font-size="32.00" fill="#ffffff"> &#160;&#160;&#160;&#160;&#160;&#160;spk_job_flowcharts &#160;&#160;&#160;&#160;&#160;&#160;</text>
<polygon fill="#e7e2dd" stroke="transparent" points="90.81,-27.68 90.81,-87.68 508.81,-87.68 508.81,-27.68 90.81,-27.68"/>
<polygon fill="none" stroke="#29235c" points="90.81,-27.68 90.81,-87.68 508.81,-87.68 508.81,-27.68 90.81,-27.68"/>
<text text-anchor="start" x="101.81" y="-47.88" font-family="Helvetica,sans-Serif" font-size="32.00" fill="#29235c">flowchart_id &#160;&#160;&#160;</text>
<text text-anchor="start" x="424.94" y="-48.88" font-family="Helvetica,sans-Serif" font-style="italic" font-size="32.00" fill="#29235c">int</text>
<text text-anchor="start" x="458.72" y="-48.88" font-family="Helvetica,sans-Serif" font-size="32.00" fill="#29235c"> </text>
<text text-anchor="start" x="467.61" y="-48.88" font-family="Helvetica,sans-Serif" font-weight="bold" font-size="32.00" fill="#29235c">(!)</text>
<polygon fill="none" stroke="#29235c" stroke-width="2" points="89.81,-26.68 89.81,-148.68 509.81,-148.68 509.81,-26.68 89.81,-26.68"/>
</g>
<!-- spk_job_flowcharts&#45;&gt;flowcharts -->
<!-- spk_job_flowcharts&#45;&gt;flowcharts -->
<g id="edge4" class="edge">
<title>spk_job_flowcharts:e&#45;&gt;flowcharts:w</title>
<path fill="none" stroke="#29235c" stroke-width="3" d="M509.81,-57.68C600.04,-57.68 603.66,-146.69 687.46,-153.29"/>
<polygon fill="#29235c" stroke="#29235c" stroke-width="3" points="687.39,-156.79 697.52,-153.68 687.66,-149.8 687.39,-156.79"/>
<text text-anchor="middle" x="706.41" y="-124.88" font-family="Helvetica,sans-Serif" font-size="32.00" fill="#29235c">1</text>
<text text-anchor="middle" x="516.04" y="-57.68" font-family="Helvetica,sans-Serif" font-size="32.00" fill="#29235c">*</text>
</g>
</g>
</svg>
