<?xml version="1.0" encoding="UTF-8" standalone="no"?>
<!DOCTYPE svg PUBLIC "-//W3C//DTD SVG 1.1//EN"
 "http://www.w3.org/Graphics/SVG/1.1/DTD/svg11.dtd">
<!-- Generated by graphviz version 2.47.0 (20210316.0004)
 -->
<!-- Title: dbml Pages: 1 -->
<svg width="1085pt" height="1226pt"
 viewBox="0.00 0.00 1084.86 1225.63" xmlns="http://www.w3.org/2000/svg" xmlns:xlink="http://www.w3.org/1999/xlink">
<g id="graph0" class="graph" transform="scale(1 1) rotate(0) translate(4 1221.63)">
<title>dbml</title>
<!-- spks -->
<g id="spks" class="node">
<title>spks</title>
<ellipse fill="none" stroke="black" stroke-width="0" cx="816.65" cy="-299.81" rx="260.43" ry="299.63"/>
<polygon fill="#1d71b8" stroke="transparent" points="634.65,-449.81 634.65,-509.81 998.65,-509.81 998.65,-449.81 634.65,-449.81"/>
<polygon fill="none" stroke="#29235c" points="634.65,-449.81 634.65,-509.81 998.65,-509.81 998.65,-449.81 634.65,-449.81"/>
<text text-anchor="start" x="721.5" y="-471.01" font-family="Helvetica,sans-Serif" font-weight="bold" font-size="32.00" fill="#ffffff"> &#160;&#160;&#160;&#160;&#160;&#160;spks &#160;&#160;&#160;&#160;&#160;&#160;</text>
<polygon fill="#e7e2dd" stroke="transparent" points="634.65,-389.81 634.65,-449.81 998.65,-449.81 998.65,-389.81 634.65,-389.81"/>
<polygon fill="none" stroke="#29235c" points="634.65,-389.81 634.65,-449.81 998.65,-449.81 998.65,-389.81 634.65,-389.81"/>
<text text-anchor="start" x="645.65" y="-411.01" font-family="Helvetica,sans-Serif" font-weight="bold" font-size="32.00" fill="#29235c">id</text>
<text text-anchor="start" x="670.54" y="-411.01" font-family="Helvetica,sans-Serif" font-size="32.00" fill="#29235c"> &#160;&#160;&#160;</text>
<text text-anchor="start" x="953.86" y="-411.01" font-family="Helvetica,sans-Serif" font-style="italic" font-size="32.00" fill="#29235c">int</text>
<polygon fill="#e7e2dd" stroke="transparent" points="634.65,-329.81 634.65,-389.81 998.65,-389.81 998.65,-329.81 634.65,-329.81"/>
<polygon fill="none" stroke="#29235c" points="634.65,-329.81 634.65,-389.81 998.65,-389.81 998.65,-329.81 634.65,-329.81"/>
<text text-anchor="start" x="645.65" y="-350.01" font-family="Helvetica,sans-Serif" font-size="32.00" fill="#29235c">title &#160;&#160;&#160;</text>
<text text-anchor="start" x="841.88" y="-351.01" font-family="Helvetica,sans-Serif" font-style="italic" font-size="32.00" fill="#29235c">varchar</text>
<text text-anchor="start" x="948.55" y="-351.01" font-family="Helvetica,sans-Serif" font-size="32.00" fill="#29235c"> </text>
<text text-anchor="start" x="957.45" y="-351.01" font-family="Helvetica,sans-Serif" font-weight="bold" font-size="32.00" fill="#29235c">(!)</text>
<polygon fill="#e7e2dd" stroke="transparent" points="634.65,-269.81 634.65,-329.81 998.65,-329.81 998.65,-269.81 634.65,-269.81"/>
<polygon fill="none" stroke="#29235c" points="634.65,-269.81 634.65,-329.81 998.65,-329.81 998.65,-269.81 634.65,-269.81"/>
<text text-anchor="start" x="645.65" y="-290.01" font-family="Helvetica,sans-Serif" font-size="32.00" fill="#29235c">code &#160;&#160;&#160;</text>
<text text-anchor="start" x="880.97" y="-291.01" font-family="Helvetica,sans-Serif" font-style="italic" font-size="32.00" fill="#29235c">varchar</text>
<polygon fill="#e7e2dd" stroke="transparent" points="634.65,-209.81 634.65,-269.81 998.65,-269.81 998.65,-209.81 634.65,-209.81"/>
<polygon fill="none" stroke="#29235c" points="634.65,-209.81 634.65,-269.81 998.65,-269.81 998.65,-209.81 634.65,-209.81"/>
<text text-anchor="start" x="645.65" y="-230.01" font-family="Helvetica,sans-Serif" font-size="32.00" fill="#29235c">content &#160;&#160;&#160;</text>
<text text-anchor="start" x="911.18" y="-231.01" font-family="Helvetica,sans-Serif" font-style="italic" font-size="32.00" fill="#29235c">jsonb</text>
<polygon fill="#e7e2dd" stroke="transparent" points="634.65,-149.81 634.65,-209.81 998.65,-209.81 998.65,-149.81 634.65,-149.81"/>
<polygon fill="none" stroke="#29235c" points="634.65,-149.81 634.65,-209.81 998.65,-209.81 998.65,-149.81 634.65,-149.81"/>
<text text-anchor="start" x="645.65" y="-170.01" font-family="Helvetica,sans-Serif" font-size="32.00" fill="#29235c">created_at &#160;&#160;&#160;</text>
<text text-anchor="start" x="840.09" y="-171.01" font-family="Helvetica,sans-Serif" font-style="italic" font-size="32.00" fill="#29235c">timestamp</text>
<polygon fill="#e7e2dd" stroke="transparent" points="634.65,-89.81 634.65,-149.81 998.65,-149.81 998.65,-89.81 634.65,-89.81"/>
<polygon fill="none" stroke="#29235c" points="634.65,-89.81 634.65,-149.81 998.65,-149.81 998.65,-89.81 634.65,-89.81"/>
<text text-anchor="start" x="645.31" y="-110.01" font-family="Helvetica,sans-Serif" font-size="32.00" fill="#29235c">updated_at &#160;&#160;&#160;</text>
<text text-anchor="start" x="840.37" y="-111.01" font-family="Helvetica,sans-Serif" font-style="italic" font-size="32.00" fill="#29235c">timestamp</text>
<polygon fill="none" stroke="#29235c" stroke-width="2" points="633.65,-88.81 633.65,-510.81 999.65,-510.81 999.65,-88.81 633.65,-88.81"/>
</g>
<!-- sops -->
<g id="sops" class="node">
<title>sops</title>
<ellipse fill="none" stroke="black" stroke-width="0" cx="816.65" cy="-917.81" rx="260.43" ry="299.63"/>
<polygon fill="#1d71b8" stroke="transparent" points="634.65,-1067.81 634.65,-1127.81 998.65,-1127.81 998.65,-1067.81 634.65,-1067.81"/>
<polygon fill="none" stroke="#29235c" points="634.65,-1067.81 634.65,-1127.81 998.65,-1127.81 998.65,-1067.81 634.65,-1067.81"/>
<text text-anchor="start" x="720.61" y="-1089.01" font-family="Helvetica,sans-Serif" font-weight="bold" font-size="32.00" fill="#ffffff"> &#160;&#160;&#160;&#160;&#160;&#160;sops &#160;&#160;&#160;&#160;&#160;&#160;</text>
<polygon fill="#e7e2dd" stroke="transparent" points="634.65,-1007.81 634.65,-1067.81 998.65,-1067.81 998.65,-1007.81 634.65,-1007.81"/>
<polygon fill="none" stroke="#29235c" points="634.65,-1007.81 634.65,-1067.81 998.65,-1067.81 998.65,-1007.81 634.65,-1007.81"/>
<text text-anchor="start" x="645.65" y="-1029.01" font-family="Helvetica,sans-Serif" font-weight="bold" font-size="32.00" fill="#29235c">id</text>
<text text-anchor="start" x="670.54" y="-1029.01" font-family="Helvetica,sans-Serif" font-size="32.00" fill="#29235c"> &#160;&#160;&#160;</text>
<text text-anchor="start" x="953.86" y="-1029.01" font-family="Helvetica,sans-Serif" font-style="italic" font-size="32.00" fill="#29235c">int</text>
<polygon fill="#e7e2dd" stroke="transparent" points="634.65,-947.81 634.65,-1007.81 998.65,-1007.81 998.65,-947.81 634.65,-947.81"/>
<polygon fill="none" stroke="#29235c" points="634.65,-947.81 634.65,-1007.81 998.65,-1007.81 998.65,-947.81 634.65,-947.81"/>
<text text-anchor="start" x="645.65" y="-968.01" font-family="Helvetica,sans-Serif" font-size="32.00" fill="#29235c">title &#160;&#160;&#160;</text>
<text text-anchor="start" x="841.88" y="-969.01" font-family="Helvetica,sans-Serif" font-style="italic" font-size="32.00" fill="#29235c">varchar</text>
<text text-anchor="start" x="948.55" y="-969.01" font-family="Helvetica,sans-Serif" font-size="32.00" fill="#29235c"> </text>
<text text-anchor="start" x="957.45" y="-969.01" font-family="Helvetica,sans-Serif" font-weight="bold" font-size="32.00" fill="#29235c">(!)</text>
<polygon fill="#e7e2dd" stroke="transparent" points="634.65,-887.81 634.65,-947.81 998.65,-947.81 998.65,-887.81 634.65,-887.81"/>
<polygon fill="none" stroke="#29235c" points="634.65,-887.81 634.65,-947.81 998.65,-947.81 998.65,-887.81 634.65,-887.81"/>
<text text-anchor="start" x="645.65" y="-908.01" font-family="Helvetica,sans-Serif" font-size="32.00" fill="#29235c">code &#160;&#160;&#160;</text>
<text text-anchor="start" x="880.97" y="-909.01" font-family="Helvetica,sans-Serif" font-style="italic" font-size="32.00" fill="#29235c">varchar</text>
<polygon fill="#e7e2dd" stroke="transparent" points="634.65,-827.81 634.65,-887.81 998.65,-887.81 998.65,-827.81 634.65,-827.81"/>
<polygon fill="none" stroke="#29235c" points="634.65,-827.81 634.65,-887.81 998.65,-887.81 998.65,-827.81 634.65,-827.81"/>
<text text-anchor="start" x="645.65" y="-848.01" font-family="Helvetica,sans-Serif" font-size="32.00" fill="#29235c">content &#160;&#160;&#160;</text>
<text text-anchor="start" x="911.18" y="-849.01" font-family="Helvetica,sans-Serif" font-style="italic" font-size="32.00" fill="#29235c">jsonb</text>
<polygon fill="#e7e2dd" stroke="transparent" points="634.65,-767.81 634.65,-827.81 998.65,-827.81 998.65,-767.81 634.65,-767.81"/>
<polygon fill="none" stroke="#29235c" points="634.65,-767.81 634.65,-827.81 998.65,-827.81 998.65,-767.81 634.65,-767.81"/>
<text text-anchor="start" x="645.65" y="-788.01" font-family="Helvetica,sans-Serif" font-size="32.00" fill="#29235c">created_at &#160;&#160;&#160;</text>
<text text-anchor="start" x="840.09" y="-789.01" font-family="Helvetica,sans-Serif" font-style="italic" font-size="32.00" fill="#29235c">timestamp</text>
<polygon fill="#e7e2dd" stroke="transparent" points="634.65,-707.81 634.65,-767.81 998.65,-767.81 998.65,-707.81 634.65,-707.81"/>
<polygon fill="none" stroke="#29235c" points="634.65,-707.81 634.65,-767.81 998.65,-767.81 998.65,-707.81 634.65,-707.81"/>
<text text-anchor="start" x="645.31" y="-728.01" font-family="Helvetica,sans-Serif" font-size="32.00" fill="#29235c">updated_at &#160;&#160;&#160;</text>
<text text-anchor="start" x="840.37" y="-729.01" font-family="Helvetica,sans-Serif" font-style="italic" font-size="32.00" fill="#29235c">timestamp</text>
<polygon fill="none" stroke="#29235c" stroke-width="2" points="633.65,-706.81 633.65,-1128.81 999.65,-1128.81 999.65,-706.81 633.65,-706.81"/>
</g>
<!-- jobs -->
<g id="jobs" class="node">
<title>jobs</title>
<ellipse fill="none" stroke="black" stroke-width="0" cx="260.22" cy="-698.81" rx="260.43" ry="384.83"/>
<polygon fill="#1d71b8" stroke="transparent" points="78.22,-908.81 78.22,-968.81 442.22,-968.81 442.22,-908.81 78.22,-908.81"/>
<polygon fill="none" stroke="#29235c" points="78.22,-908.81 78.22,-968.81 442.22,-968.81 442.22,-908.81 78.22,-908.81"/>
<text text-anchor="start" x="168.63" y="-930.01" font-family="Helvetica,sans-Serif" font-weight="bold" font-size="32.00" fill="#ffffff"> &#160;&#160;&#160;&#160;&#160;&#160;jobs &#160;&#160;&#160;&#160;&#160;&#160;</text>
<polygon fill="#e7e2dd" stroke="transparent" points="78.22,-848.81 78.22,-908.81 442.22,-908.81 442.22,-848.81 78.22,-848.81"/>
<polygon fill="none" stroke="#29235c" points="78.22,-848.81 78.22,-908.81 442.22,-908.81 442.22,-848.81 78.22,-848.81"/>
<text text-anchor="start" x="89.22" y="-870.01" font-family="Helvetica,sans-Serif" font-weight="bold" font-size="32.00" fill="#29235c">id</text>
<text text-anchor="start" x="114.1" y="-870.01" font-family="Helvetica,sans-Serif" font-size="32.00" fill="#29235c"> &#160;&#160;&#160;</text>
<text text-anchor="start" x="397.43" y="-870.01" font-family="Helvetica,sans-Serif" font-style="italic" font-size="32.00" fill="#29235c">int</text>
<polygon fill="#e7e2dd" stroke="transparent" points="78.22,-788.81 78.22,-848.81 442.22,-848.81 442.22,-788.81 78.22,-788.81"/>
<polygon fill="none" stroke="#29235c" points="78.22,-788.81 78.22,-848.81 442.22,-848.81 442.22,-788.81 78.22,-788.81"/>
<text text-anchor="start" x="89.22" y="-809.01" font-family="Helvetica,sans-Serif" font-size="32.00" fill="#29235c">title &#160;&#160;&#160;</text>
<text text-anchor="start" x="324.54" y="-810.01" font-family="Helvetica,sans-Serif" font-style="italic" font-size="32.00" fill="#29235c">varchar</text>
<polygon fill="#e7e2dd" stroke="transparent" points="78.22,-728.81 78.22,-788.81 442.22,-788.81 442.22,-728.81 78.22,-728.81"/>
<polygon fill="none" stroke="#29235c" points="78.22,-728.81 78.22,-788.81 442.22,-788.81 442.22,-728.81 78.22,-728.81"/>
<text text-anchor="start" x="89.22" y="-749.01" font-family="Helvetica,sans-Serif" font-size="32.00" fill="#29235c">instruction &#160;&#160;&#160;</text>
<text text-anchor="start" x="354.75" y="-750.01" font-family="Helvetica,sans-Serif" font-style="italic" font-size="32.00" fill="#29235c">jsonb</text>
<polygon fill="#e7e2dd" stroke="transparent" points="78.22,-668.81 78.22,-728.81 442.22,-728.81 442.22,-668.81 78.22,-668.81"/>
<polygon fill="none" stroke="#29235c" points="78.22,-668.81 78.22,-728.81 442.22,-728.81 442.22,-668.81 78.22,-668.81"/>
<text text-anchor="start" x="89.22" y="-689.01" font-family="Helvetica,sans-Serif" font-size="32.00" fill="#29235c">guide &#160;&#160;&#160;</text>
<text text-anchor="start" x="354.75" y="-690.01" font-family="Helvetica,sans-Serif" font-style="italic" font-size="32.00" fill="#29235c">jsonb</text>
<polygon fill="#e7e2dd" stroke="transparent" points="78.22,-608.81 78.22,-668.81 442.22,-668.81 442.22,-608.81 78.22,-608.81"/>
<polygon fill="none" stroke="#29235c" points="78.22,-608.81 78.22,-668.81 442.22,-668.81 442.22,-608.81 78.22,-608.81"/>
<text text-anchor="start" x="89.22" y="-629.01" font-family="Helvetica,sans-Serif" font-size="32.00" fill="#29235c">sop_id &#160;&#160;&#160;</text>
<text text-anchor="start" x="397.43" y="-630.01" font-family="Helvetica,sans-Serif" font-style="italic" font-size="32.00" fill="#29235c">int</text>
<polygon fill="#e7e2dd" stroke="transparent" points="78.22,-548.81 78.22,-608.81 442.22,-608.81 442.22,-548.81 78.22,-548.81"/>
<polygon fill="none" stroke="#29235c" points="78.22,-548.81 78.22,-608.81 442.22,-608.81 442.22,-548.81 78.22,-548.81"/>
<text text-anchor="start" x="89.22" y="-569.01" font-family="Helvetica,sans-Serif" font-size="32.00" fill="#29235c">spk_id &#160;&#160;&#160;</text>
<text text-anchor="start" x="397.43" y="-570.01" font-family="Helvetica,sans-Serif" font-style="italic" font-size="32.00" fill="#29235c">int</text>
<polygon fill="#e7e2dd" stroke="transparent" points="78.22,-488.81 78.22,-548.81 442.22,-548.81 442.22,-488.81 78.22,-488.81"/>
<polygon fill="none" stroke="#29235c" points="78.22,-488.81 78.22,-548.81 442.22,-548.81 442.22,-488.81 78.22,-488.81"/>
<text text-anchor="start" x="89.22" y="-509.01" font-family="Helvetica,sans-Serif" font-size="32.00" fill="#29235c">created_at &#160;&#160;&#160;</text>
<text text-anchor="start" x="283.66" y="-510.01" font-family="Helvetica,sans-Serif" font-style="italic" font-size="32.00" fill="#29235c">timestamp</text>
<polygon fill="#e7e2dd" stroke="transparent" points="78.22,-428.81 78.22,-488.81 442.22,-488.81 442.22,-428.81 78.22,-428.81"/>
<polygon fill="none" stroke="#29235c" points="78.22,-428.81 78.22,-488.81 442.22,-488.81 442.22,-428.81 78.22,-428.81"/>
<text text-anchor="start" x="88.88" y="-449.01" font-family="Helvetica,sans-Serif" font-size="32.00" fill="#29235c">updated_at &#160;&#160;&#160;</text>
<text text-anchor="start" x="283.94" y="-450.01" font-family="Helvetica,sans-Serif" font-style="italic" font-size="32.00" fill="#29235c">timestamp</text>
<polygon fill="none" stroke="#29235c" stroke-width="2" points="77.22,-427.81 77.22,-969.81 443.22,-969.81 443.22,-427.81 77.22,-427.81"/>
</g>
<!-- jobs&#45;&gt;spks -->
<!-- jobs&#45;&gt;spks -->
<g id="edge4" class="edge">
<title>jobs:e&#45;&gt;spks:w</title>
<path fill="none" stroke="#29235c" stroke-width="3" d="M443.22,-578.81C549.92,-578.81 525.18,-429.9 623.41,-420.3"/>
<polygon fill="#29235c" stroke="#29235c" stroke-width="3" points="623.82,-423.78 633.65,-419.81 623.49,-416.79 623.82,-423.78"/>
<text text-anchor="middle" x="624.75" y="-391.01" font-family="Helvetica,sans-Serif" font-size="32.00" fill="#29235c">1</text>
<text text-anchor="middle" x="449.44" y="-550.01" font-family="Helvetica,sans-Serif" font-size="32.00" fill="#29235c">*</text>
</g>
<!-- jobs&#45;&gt;sops -->
<!-- jobs&#45;&gt;sops -->
<g id="edge2" class="edge">
<title>jobs:e&#45;&gt;sops:w</title>
<path fill="none" stroke="#29235c" stroke-width="3" d="M443.22,-638.81C636.26,-638.81 444.15,-1023.91 623.65,-1037.45"/>
<polygon fill="#29235c" stroke="#29235c" stroke-width="3" points="623.52,-1040.95 633.65,-1037.81 623.78,-1033.95 623.52,-1040.95"/>
<text text-anchor="middle" x="624.75" y="-1047.41" font-family="Helvetica,sans-Serif" font-size="32.00" fill="#29235c">1</text>
<text text-anchor="middle" x="449.44" y="-610.01" font-family="Helvetica,sans-Serif" font-size="32.00" fill="#29235c">*</text>
</g>
</g>
</svg>
