<?xml version="1.0" encoding="UTF-8" standalone="no"?>
<!DOCTYPE svg PUBLIC "-//W3C//DTD SVG 1.1//EN"
 "http://www.w3.org/Graphics/SVG/1.1/DTD/svg11.dtd">
<!-- Generated by graphviz version 2.47.0 (20210316.0004)
 -->
<!-- Title: dbml Pages: 1 -->
<svg width="644pt" height="947pt"
 viewBox="0.00 0.00 644.40 947.04" xmlns="http://www.w3.org/2000/svg" xmlns:xlink="http://www.w3.org/1999/xlink">
<g id="graph0" class="graph" transform="scale(1 1) rotate(0) translate(4 943.04)">
<title>dbml</title>
<!-- karyawan -->
<g id="karyawan" class="node">
<title>karyawan</title>
<ellipse fill="none" stroke="black" stroke-width="0" cx="318.2" cy="-469.52" rx="318.4" ry="469.54"/>
<polygon fill="#1d71b8" stroke="transparent" points="95.2,-739.52 95.2,-799.52 541.2,-799.52 541.2,-739.52 95.2,-739.52"/>
<polygon fill="none" stroke="#29235c" points="95.2,-739.52 95.2,-799.52 541.2,-799.52 541.2,-739.52 95.2,-739.52"/>
<text text-anchor="start" x="187.49" y="-760.72" font-family="Helvetica,sans-Serif" font-weight="bold" font-size="32.00" fill="#ffffff"> &#160;&#160;&#160;&#160;&#160;&#160;karyawan &#160;&#160;&#160;&#160;&#160;&#160;</text>
<polygon fill="#e7e2dd" stroke="transparent" points="95.2,-679.52 95.2,-739.52 541.2,-739.52 541.2,-679.52 95.2,-679.52"/>
<polygon fill="none" stroke="#29235c" points="95.2,-679.52 95.2,-739.52 541.2,-739.52 541.2,-679.52 95.2,-679.52"/>
<text text-anchor="start" x="106.2" y="-700.72" font-family="Helvetica,sans-Serif" font-weight="bold" font-size="32.00" fill="#29235c">id</text>
<text text-anchor="start" x="131.09" y="-700.72" font-family="Helvetica,sans-Serif" font-size="32.00" fill="#29235c"> &#160;&#160;&#160;</text>
<text text-anchor="start" x="496.42" y="-700.72" font-family="Helvetica,sans-Serif" font-style="italic" font-size="32.00" fill="#29235c">int</text>
<polygon fill="#e7e2dd" stroke="transparent" points="95.2,-619.52 95.2,-679.52 541.2,-679.52 541.2,-619.52 95.2,-619.52"/>
<polygon fill="none" stroke="#29235c" points="95.2,-619.52 95.2,-679.52 541.2,-679.52 541.2,-619.52 95.2,-619.52"/>
<text text-anchor="start" x="106.2" y="-639.72" font-family="Helvetica,sans-Serif" font-size="32.00" fill="#29235c">name &#160;&#160;&#160;</text>
<text text-anchor="start" x="384.43" y="-640.72" font-family="Helvetica,sans-Serif" font-style="italic" font-size="32.00" fill="#29235c">varchar</text>
<text text-anchor="start" x="491.11" y="-640.72" font-family="Helvetica,sans-Serif" font-size="32.00" fill="#29235c"> </text>
<text text-anchor="start" x="500" y="-640.72" font-family="Helvetica,sans-Serif" font-weight="bold" font-size="32.00" fill="#29235c">(!)</text>
<polygon fill="#e7e2dd" stroke="transparent" points="95.2,-559.52 95.2,-619.52 541.2,-619.52 541.2,-559.52 95.2,-559.52"/>
<polygon fill="none" stroke="#29235c" points="95.2,-559.52 95.2,-619.52 541.2,-619.52 541.2,-559.52 95.2,-559.52"/>
<text text-anchor="start" x="106.2" y="-579.72" font-family="Helvetica,sans-Serif" font-size="32.00" fill="#29235c">email &#160;&#160;&#160;</text>
<text text-anchor="start" x="384.43" y="-580.72" font-family="Helvetica,sans-Serif" font-style="italic" font-size="32.00" fill="#29235c">varchar</text>
<text text-anchor="start" x="491.11" y="-580.72" font-family="Helvetica,sans-Serif" font-size="32.00" fill="#29235c"> </text>
<text text-anchor="start" x="500" y="-580.72" font-family="Helvetica,sans-Serif" font-weight="bold" font-size="32.00" fill="#29235c">(!)</text>
<polygon fill="#e7e2dd" stroke="transparent" points="95.2,-499.52 95.2,-559.52 541.2,-559.52 541.2,-499.52 95.2,-499.52"/>
<polygon fill="none" stroke="#29235c" points="95.2,-499.52 95.2,-559.52 541.2,-559.52 541.2,-499.52 95.2,-499.52"/>
<text text-anchor="start" x="106.01" y="-519.72" font-family="Helvetica,sans-Serif" font-size="32.00" fill="#29235c">email_verified_at &#160;&#160;&#160;</text>
<text text-anchor="start" x="382.92" y="-520.72" font-family="Helvetica,sans-Serif" font-style="italic" font-size="32.00" fill="#29235c">timestamp</text>
<polygon fill="#e7e2dd" stroke="transparent" points="95.2,-439.52 95.2,-499.52 541.2,-499.52 541.2,-439.52 95.2,-439.52"/>
<polygon fill="none" stroke="#29235c" points="95.2,-439.52 95.2,-499.52 541.2,-499.52 541.2,-439.52 95.2,-439.52"/>
<text text-anchor="start" x="106.2" y="-459.72" font-family="Helvetica,sans-Serif" font-size="32.00" fill="#29235c">password &#160;&#160;&#160;</text>
<text text-anchor="start" x="384.43" y="-460.72" font-family="Helvetica,sans-Serif" font-style="italic" font-size="32.00" fill="#29235c">varchar</text>
<text text-anchor="start" x="491.11" y="-460.72" font-family="Helvetica,sans-Serif" font-size="32.00" fill="#29235c"> </text>
<text text-anchor="start" x="500" y="-460.72" font-family="Helvetica,sans-Serif" font-weight="bold" font-size="32.00" fill="#29235c">(!)</text>
<polygon fill="#e7e2dd" stroke="transparent" points="95.2,-379.52 95.2,-439.52 541.2,-439.52 541.2,-379.52 95.2,-379.52"/>
<polygon fill="none" stroke="#29235c" points="95.2,-379.52 95.2,-439.52 541.2,-439.52 541.2,-379.52 95.2,-379.52"/>
<text text-anchor="start" x="106.2" y="-399.72" font-family="Helvetica,sans-Serif" font-size="32.00" fill="#29235c">remember_token &#160;&#160;&#160;</text>
<text text-anchor="start" x="423.53" y="-400.72" font-family="Helvetica,sans-Serif" font-style="italic" font-size="32.00" fill="#29235c">varchar</text>
<polygon fill="#e7e2dd" stroke="transparent" points="95.2,-319.52 95.2,-379.52 541.2,-379.52 541.2,-319.52 95.2,-319.52"/>
<polygon fill="none" stroke="#29235c" points="95.2,-319.52 95.2,-379.52 541.2,-379.52 541.2,-319.52 95.2,-319.52"/>
<text text-anchor="start" x="106.2" y="-339.72" font-family="Helvetica,sans-Serif" font-size="32.00" fill="#29235c">custom_fields &#160;&#160;&#160;</text>
<text text-anchor="start" x="471.52" y="-340.72" font-family="Helvetica,sans-Serif" font-style="italic" font-size="32.00" fill="#29235c">json</text>
<polygon fill="#e7e2dd" stroke="transparent" points="95.2,-259.52 95.2,-319.52 541.2,-319.52 541.2,-259.52 95.2,-259.52"/>
<polygon fill="none" stroke="#29235c" points="95.2,-259.52 95.2,-319.52 541.2,-319.52 541.2,-259.52 95.2,-259.52"/>
<text text-anchor="start" x="106.2" y="-279.72" font-family="Helvetica,sans-Serif" font-size="32.00" fill="#29235c">avatar_url &#160;&#160;&#160;</text>
<text text-anchor="start" x="423.53" y="-280.72" font-family="Helvetica,sans-Serif" font-style="italic" font-size="32.00" fill="#29235c">varchar</text>
<polygon fill="#e7e2dd" stroke="transparent" points="95.2,-199.52 95.2,-259.52 541.2,-259.52 541.2,-199.52 95.2,-199.52"/>
<polygon fill="none" stroke="#29235c" points="95.2,-199.52 95.2,-259.52 541.2,-259.52 541.2,-199.52 95.2,-199.52"/>
<text text-anchor="start" x="106.2" y="-219.72" font-family="Helvetica,sans-Serif" font-size="32.00" fill="#29235c">created_at &#160;&#160;&#160;</text>
<text text-anchor="start" x="382.64" y="-220.72" font-family="Helvetica,sans-Serif" font-style="italic" font-size="32.00" fill="#29235c">timestamp</text>
<polygon fill="#e7e2dd" stroke="transparent" points="95.2,-139.52 95.2,-199.52 541.2,-199.52 541.2,-139.52 95.2,-139.52"/>
<polygon fill="none" stroke="#29235c" points="95.2,-139.52 95.2,-199.52 541.2,-199.52 541.2,-139.52 95.2,-139.52"/>
<text text-anchor="start" x="106.2" y="-159.72" font-family="Helvetica,sans-Serif" font-size="32.00" fill="#29235c">updated_at &#160;&#160;&#160;</text>
<text text-anchor="start" x="382.64" y="-160.72" font-family="Helvetica,sans-Serif" font-style="italic" font-size="32.00" fill="#29235c">timestamp</text>
<polygon fill="none" stroke="#29235c" stroke-width="2" points="94.2,-138.52 94.2,-800.52 542.2,-800.52 542.2,-138.52 94.2,-138.52"/>
</g>
</g>
</svg>
