<?xml version="1.0" encoding="UTF-8" standalone="no"?>
<!DOCTYPE svg PUBLIC "-//W3C//DTD SVG 1.1//EN"
 "http://www.w3.org/Graphics/SVG/1.1/DTD/svg11.dtd">
<!-- Generated by graphviz version 2.47.0 (20210316.0004)
 -->
<!-- Title: dbml Pages: 1 -->
<svg width="493pt" height="523pt"
 viewBox="0.00 0.00 493.08 522.77" xmlns="http://www.w3.org/2000/svg" xmlns:xlink="http://www.w3.org/1999/xlink">
<g id="graph0" class="graph" transform="scale(1 1) rotate(0) translate(4 518.77)">
<title>dbml</title>
<!-- label -->
<g id="label" class="node">
<title>label</title>
<ellipse fill="none" stroke="black" stroke-width="0" cx="242.54" cy="-257.39" rx="242.58" ry="257.27"/>
<polygon fill="#1d71b8" stroke="transparent" points="73.54,-377.39 73.54,-437.39 412.54,-437.39 412.54,-377.39 73.54,-377.39"/>
<polygon fill="none" stroke="#29235c" points="73.54,-377.39 73.54,-437.39 412.54,-437.39 412.54,-377.39 73.54,-377.39"/>
<text text-anchor="start" x="147" y="-398.59" font-family="Helvetica,sans-Serif" font-weight="bold" font-size="32.00" fill="#ffffff"> &#160;&#160;&#160;&#160;&#160;&#160;label &#160;&#160;&#160;&#160;&#160;&#160;</text>
<polygon fill="#e7e2dd" stroke="transparent" points="73.54,-317.39 73.54,-377.39 412.54,-377.39 412.54,-317.39 73.54,-317.39"/>
<polygon fill="none" stroke="#29235c" points="73.54,-317.39 73.54,-377.39 412.54,-377.39 412.54,-317.39 73.54,-317.39"/>
<text text-anchor="start" x="84.54" y="-338.59" font-family="Helvetica,sans-Serif" font-weight="bold" font-size="32.00" fill="#29235c">id</text>
<text text-anchor="start" x="109.43" y="-338.59" font-family="Helvetica,sans-Serif" font-size="32.00" fill="#29235c"> &#160;&#160;&#160;</text>
<text text-anchor="start" x="367.76" y="-338.59" font-family="Helvetica,sans-Serif" font-style="italic" font-size="32.00" fill="#29235c">int</text>
<polygon fill="#e7e2dd" stroke="transparent" points="73.54,-257.39 73.54,-317.39 412.54,-317.39 412.54,-257.39 73.54,-257.39"/>
<polygon fill="none" stroke="#29235c" points="73.54,-257.39 73.54,-317.39 412.54,-317.39 412.54,-257.39 73.54,-257.39"/>
<text text-anchor="start" x="84.54" y="-277.59" font-family="Helvetica,sans-Serif" font-size="32.00" fill="#29235c">nama &#160;&#160;&#160;</text>
<text text-anchor="start" x="294.87" y="-278.59" font-family="Helvetica,sans-Serif" font-style="italic" font-size="32.00" fill="#29235c">varchar</text>
<polygon fill="#e7e2dd" stroke="transparent" points="73.54,-197.39 73.54,-257.39 412.54,-257.39 412.54,-197.39 73.54,-197.39"/>
<polygon fill="none" stroke="#29235c" points="73.54,-197.39 73.54,-257.39 412.54,-257.39 412.54,-197.39 73.54,-197.39"/>
<text text-anchor="start" x="84.54" y="-217.59" font-family="Helvetica,sans-Serif" font-size="32.00" fill="#29235c">slug &#160;&#160;&#160;</text>
<text text-anchor="start" x="294.87" y="-218.59" font-family="Helvetica,sans-Serif" font-style="italic" font-size="32.00" fill="#29235c">varchar</text>
<polygon fill="#e7e2dd" stroke="transparent" points="73.54,-137.39 73.54,-197.39 412.54,-197.39 412.54,-137.39 73.54,-137.39"/>
<polygon fill="none" stroke="#29235c" points="73.54,-137.39 73.54,-197.39 412.54,-197.39 412.54,-137.39 73.54,-137.39"/>
<text text-anchor="start" x="84.54" y="-157.59" font-family="Helvetica,sans-Serif" font-size="32.00" fill="#29235c">created_at &#160;&#160;&#160;</text>
<text text-anchor="start" x="278.84" y="-158.59" font-family="Helvetica,sans-Serif" font-style="italic" font-size="32.00" fill="#29235c">datetime</text>
<polygon fill="#e7e2dd" stroke="transparent" points="73.54,-77.39 73.54,-137.39 412.54,-137.39 412.54,-77.39 73.54,-77.39"/>
<polygon fill="none" stroke="#29235c" points="73.54,-77.39 73.54,-137.39 412.54,-137.39 412.54,-77.39 73.54,-77.39"/>
<text text-anchor="start" x="84.2" y="-97.59" font-family="Helvetica,sans-Serif" font-size="32.00" fill="#29235c">updated_at &#160;&#160;&#160;</text>
<text text-anchor="start" x="279.19" y="-98.59" font-family="Helvetica,sans-Serif" font-style="italic" font-size="32.00" fill="#29235c">datetime</text>
<polygon fill="none" stroke="#29235c" stroke-width="2" points="72.04,-76.39 72.04,-438.39 413.04,-438.39 413.04,-76.39 72.04,-76.39"/>
</g>
</g>
</svg>
