<?xml version="1.0" encoding="UTF-8" standalone="no"?>
<!DOCTYPE svg PUBLIC "-//W3C//DTD SVG 1.1//EN"
 "http://www.w3.org/Graphics/SVG/1.1/DTD/svg11.dtd">
<!-- Generated by graphviz version 2.47.0 (20210316.0004)
 -->
<!-- Title: dbml Pages: 1 -->
<svg width="870pt" height="438pt"
 viewBox="0.00 0.00 869.90 437.92" xmlns="http://www.w3.org/2000/svg" xmlns:xlink="http://www.w3.org/1999/xlink">
<g id="graph0" class="graph" transform="scale(1 1) rotate(0) translate(4 433.92)">
<title>dbml</title>
<!-- levels -->
<g id="levels" class="node">
<title>levels</title>
<ellipse fill="none" stroke="black" stroke-width="0" cx="601.69" cy="-214.96" rx="260.43" ry="214.92"/>
<polygon fill="#1d71b8" stroke="transparent" points="419.69,-304.96 419.69,-364.96 783.69,-364.96 783.69,-304.96 419.69,-304.96"/>
<polygon fill="none" stroke="#29235c" points="419.69,-304.96 419.69,-364.96 783.69,-364.96 783.69,-304.96 419.69,-304.96"/>
<text text-anchor="start" x="498.55" y="-326.16" font-family="Helvetica,sans-Serif" font-weight="bold" font-size="32.00" fill="#ffffff"> &#160;&#160;&#160;&#160;&#160;&#160;levels &#160;&#160;&#160;&#160;&#160;&#160;</text>
<polygon fill="#e7e2dd" stroke="transparent" points="419.69,-244.96 419.69,-304.96 783.69,-304.96 783.69,-244.96 419.69,-244.96"/>
<polygon fill="none" stroke="#29235c" points="419.69,-244.96 419.69,-304.96 783.69,-304.96 783.69,-244.96 419.69,-244.96"/>
<text text-anchor="start" x="430.69" y="-266.16" font-family="Helvetica,sans-Serif" font-weight="bold" font-size="32.00" fill="#29235c">id</text>
<text text-anchor="start" x="455.58" y="-266.16" font-family="Helvetica,sans-Serif" font-size="32.00" fill="#29235c"> &#160;&#160;&#160;</text>
<text text-anchor="start" x="738.9" y="-266.16" font-family="Helvetica,sans-Serif" font-style="italic" font-size="32.00" fill="#29235c">int</text>
<polygon fill="#e7e2dd" stroke="transparent" points="419.69,-184.96 419.69,-244.96 783.69,-244.96 783.69,-184.96 419.69,-184.96"/>
<polygon fill="none" stroke="#29235c" points="419.69,-184.96 419.69,-244.96 783.69,-244.96 783.69,-184.96 419.69,-184.96"/>
<text text-anchor="start" x="430.69" y="-205.16" font-family="Helvetica,sans-Serif" font-size="32.00" fill="#29235c">name &#160;&#160;&#160;</text>
<text text-anchor="start" x="626.92" y="-206.16" font-family="Helvetica,sans-Serif" font-style="italic" font-size="32.00" fill="#29235c">varchar</text>
<text text-anchor="start" x="733.59" y="-206.16" font-family="Helvetica,sans-Serif" font-size="32.00" fill="#29235c"> </text>
<text text-anchor="start" x="742.49" y="-206.16" font-family="Helvetica,sans-Serif" font-weight="bold" font-size="32.00" fill="#29235c">(!)</text>
<polygon fill="#e7e2dd" stroke="transparent" points="419.69,-124.96 419.69,-184.96 783.69,-184.96 783.69,-124.96 419.69,-124.96"/>
<polygon fill="none" stroke="#29235c" points="419.69,-124.96 419.69,-184.96 783.69,-184.96 783.69,-124.96 419.69,-124.96"/>
<text text-anchor="start" x="430.69" y="-145.16" font-family="Helvetica,sans-Serif" font-size="32.00" fill="#29235c">created_at &#160;&#160;&#160;</text>
<text text-anchor="start" x="625.13" y="-146.16" font-family="Helvetica,sans-Serif" font-style="italic" font-size="32.00" fill="#29235c">timestamp</text>
<polygon fill="#e7e2dd" stroke="transparent" points="419.69,-64.96 419.69,-124.96 783.69,-124.96 783.69,-64.96 419.69,-64.96"/>
<polygon fill="none" stroke="#29235c" points="419.69,-64.96 419.69,-124.96 783.69,-124.96 783.69,-64.96 419.69,-64.96"/>
<text text-anchor="start" x="430.35" y="-85.16" font-family="Helvetica,sans-Serif" font-size="32.00" fill="#29235c">updated_at &#160;&#160;&#160;</text>
<text text-anchor="start" x="625.41" y="-86.16" font-family="Helvetica,sans-Serif" font-style="italic" font-size="32.00" fill="#29235c">timestamp</text>
<polygon fill="none" stroke="#29235c" stroke-width="2" points="418.69,-63.96 418.69,-365.96 784.69,-365.96 784.69,-63.96 418.69,-63.96"/>
</g>
<!-- titles -->
<g id="titles" class="node">
<title>titles</title>
<ellipse fill="none" stroke="black" stroke-width="0" cx="152.74" cy="-304.96" rx="152.97" ry="87.86"/>
<polygon fill="#1d71b8" stroke="transparent" points="46.74,-304.96 46.74,-364.96 258.74,-364.96 258.74,-304.96 46.74,-304.96"/>
<polygon fill="none" stroke="#29235c" points="46.74,-304.96 46.74,-364.96 258.74,-364.96 258.74,-304.96 46.74,-304.96"/>
<text text-anchor="start" x="57.6" y="-326.16" font-family="Helvetica,sans-Serif" font-weight="bold" font-size="32.00" fill="#ffffff"> &#160;&#160;&#160;&#160;&#160;&#160;titles &#160;&#160;&#160;&#160;&#160;&#160;</text>
<polygon fill="#e7e2dd" stroke="transparent" points="46.74,-244.96 46.74,-304.96 258.74,-304.96 258.74,-244.96 46.74,-244.96"/>
<polygon fill="none" stroke="#29235c" points="46.74,-244.96 46.74,-304.96 258.74,-304.96 258.74,-244.96 46.74,-244.96"/>
<text text-anchor="start" x="57.74" y="-265.16" font-family="Helvetica,sans-Serif" font-size="32.00" fill="#29235c">level_id &#160;&#160;&#160;</text>
<text text-anchor="start" x="213.95" y="-266.16" font-family="Helvetica,sans-Serif" font-style="italic" font-size="32.00" fill="#29235c">int</text>
<polygon fill="none" stroke="#29235c" stroke-width="2" points="45.74,-243.96 45.74,-365.96 259.74,-365.96 259.74,-243.96 45.74,-243.96"/>
</g>
<!-- titles&#45;&gt;levels -->
<!-- titles&#45;&gt;levels -->
<g id="edge2" class="edge">
<title>titles:e&#45;&gt;levels:w</title>
<path fill="none" stroke="#29235c" stroke-width="3" d="M259.74,-274.96C326.79,-274.96 346.11,-274.96 408.32,-274.96"/>
<polygon fill="#29235c" stroke="#29235c" stroke-width="3" points="408.69,-278.46 418.69,-274.96 408.69,-271.46 408.69,-278.46"/>
<text text-anchor="middle" x="409.79" y="-284.56" font-family="Helvetica,sans-Serif" font-size="32.00" fill="#29235c">1</text>
<text text-anchor="middle" x="253.51" y="-284.56" font-family="Helvetica,sans-Serif" font-size="32.00" fill="#29235c">*</text>
</g>
</g>
</svg>
