<?xml version="1.0" encoding="UTF-8" standalone="no"?>
<!DOCTYPE svg PUBLIC "-//W3C//DTD SVG 1.1//EN"
 "http://www.w3.org/Graphics/SVG/1.1/DTD/svg11.dtd">
<!-- Generated by graphviz version 2.47.0 (20210316.0004)
 -->
<!-- Title: dbml Pages: 1 -->
<svg width="313pt" height="183pt"
 viewBox="0.00 0.00 313.47 183.36" xmlns="http://www.w3.org/2000/svg" xmlns:xlink="http://www.w3.org/1999/xlink">
<g id="graph0" class="graph" transform="scale(1 1) rotate(0) translate(4 179.36)">
<title>dbml</title>
<!-- level -->
<g id="level" class="node">
<title>level</title>
<ellipse fill="none" stroke="black" stroke-width="0" cx="152.74" cy="-87.68" rx="152.97" ry="87.86"/>
<polygon fill="#1d71b8" stroke="transparent" points="46.74,-87.68 46.74,-147.68 258.74,-147.68 258.74,-87.68 46.74,-87.68"/>
<polygon fill="none" stroke="#29235c" points="46.74,-87.68 46.74,-147.68 258.74,-147.68 258.74,-87.68 46.74,-87.68"/>
<text text-anchor="start" x="57.6" y="-108.88" font-family="Helvetica,sans-Serif" font-weight="bold" font-size="32.00" fill="#ffffff"> &#160;&#160;&#160;&#160;&#160;&#160;level &#160;&#160;&#160;&#160;&#160;&#160;</text>
<polygon fill="#e7e2dd" stroke="transparent" points="46.74,-27.68 46.74,-87.68 258.74,-87.68 258.74,-27.68 46.74,-27.68"/>
<polygon fill="none" stroke="#29235c" points="46.74,-27.68 46.74,-87.68 258.74,-87.68 258.74,-27.68 46.74,-27.68"/>
<text text-anchor="start" x="57.74" y="-47.88" font-family="Helvetica,sans-Serif" font-size="32.00" fill="#29235c">id &#160;&#160;&#160;</text>
<text text-anchor="start" x="213.95" y="-48.88" font-family="Helvetica,sans-Serif" font-style="italic" font-size="32.00" fill="#29235c">int</text>
<polygon fill="none" stroke="#29235c" stroke-width="2" points="45.74,-26.68 45.74,-148.68 259.74,-148.68 259.74,-26.68 45.74,-26.68"/>
</g>
</g>
</svg>
