<?xml version="1.0" encoding="UTF-8" standalone="no"?>
<!DOCTYPE svg PUBLIC "-//W3C//DTD SVG 1.1//EN"
 "http://www.w3.org/Graphics/SVG/1.1/DTD/svg11.dtd">
<!-- Generated by graphviz version 2.47.0 (20210316.0004)
 -->
<!-- Title: dbml Pages: 1 -->
<svg width="1112pt" height="523pt"
 viewBox="0.00 0.00 1111.73 522.77" xmlns="http://www.w3.org/2000/svg" xmlns:xlink="http://www.w3.org/1999/xlink">
<g id="graph0" class="graph" transform="scale(1 1) rotate(0) translate(4 518.77)">
<title>dbml</title>
<!-- menus -->
<g id="menus" class="node">
<title>menus</title>
<ellipse fill="none" stroke="black" stroke-width="0" cx="843.52" cy="-257.39" rx="260.43" ry="257.27"/>
<polygon fill="#1d71b8" stroke="transparent" points="661.52,-377.39 661.52,-437.39 1025.52,-437.39 1025.52,-377.39 661.52,-377.39"/>
<polygon fill="none" stroke="#29235c" points="661.52,-377.39 661.52,-437.39 1025.52,-437.39 1025.52,-377.39 661.52,-377.39"/>
<text text-anchor="start" x="733.26" y="-398.59" font-family="Helvetica,sans-Serif" font-weight="bold" font-size="32.00" fill="#ffffff"> &#160;&#160;&#160;&#160;&#160;&#160;menus &#160;&#160;&#160;&#160;&#160;&#160;</text>
<polygon fill="#e7e2dd" stroke="transparent" points="661.52,-317.39 661.52,-377.39 1025.52,-377.39 1025.52,-317.39 661.52,-317.39"/>
<polygon fill="none" stroke="#29235c" points="661.52,-317.39 661.52,-377.39 1025.52,-377.39 1025.52,-317.39 661.52,-317.39"/>
<text text-anchor="start" x="672.52" y="-338.59" font-family="Helvetica,sans-Serif" font-weight="bold" font-size="32.00" fill="#29235c">id</text>
<text text-anchor="start" x="697.41" y="-338.59" font-family="Helvetica,sans-Serif" font-size="32.00" fill="#29235c"> &#160;&#160;&#160;</text>
<text text-anchor="start" x="980.73" y="-338.59" font-family="Helvetica,sans-Serif" font-style="italic" font-size="32.00" fill="#29235c">int</text>
<polygon fill="#e7e2dd" stroke="transparent" points="661.52,-257.39 661.52,-317.39 1025.52,-317.39 1025.52,-257.39 661.52,-257.39"/>
<polygon fill="none" stroke="#29235c" points="661.52,-257.39 661.52,-317.39 1025.52,-317.39 1025.52,-257.39 661.52,-257.39"/>
<text text-anchor="start" x="672.52" y="-277.59" font-family="Helvetica,sans-Serif" font-size="32.00" fill="#29235c">label &#160;&#160;&#160;</text>
<text text-anchor="start" x="907.84" y="-278.59" font-family="Helvetica,sans-Serif" font-style="italic" font-size="32.00" fill="#29235c">varchar</text>
<polygon fill="#e7e2dd" stroke="transparent" points="661.52,-197.39 661.52,-257.39 1025.52,-257.39 1025.52,-197.39 661.52,-197.39"/>
<polygon fill="none" stroke="#29235c" points="661.52,-197.39 661.52,-257.39 1025.52,-257.39 1025.52,-197.39 661.52,-197.39"/>
<text text-anchor="start" x="672.52" y="-217.59" font-family="Helvetica,sans-Serif" font-size="32.00" fill="#29235c">path &#160;&#160;&#160;</text>
<text text-anchor="start" x="907.84" y="-218.59" font-family="Helvetica,sans-Serif" font-style="italic" font-size="32.00" fill="#29235c">varchar</text>
<polygon fill="#e7e2dd" stroke="transparent" points="661.52,-137.39 661.52,-197.39 1025.52,-197.39 1025.52,-137.39 661.52,-137.39"/>
<polygon fill="none" stroke="#29235c" points="661.52,-137.39 661.52,-197.39 1025.52,-197.39 1025.52,-137.39 661.52,-137.39"/>
<text text-anchor="start" x="672.52" y="-157.59" font-family="Helvetica,sans-Serif" font-size="32.00" fill="#29235c">created_at &#160;&#160;&#160;</text>
<text text-anchor="start" x="866.96" y="-158.59" font-family="Helvetica,sans-Serif" font-style="italic" font-size="32.00" fill="#29235c">timestamp</text>
<polygon fill="#e7e2dd" stroke="transparent" points="661.52,-77.39 661.52,-137.39 1025.52,-137.39 1025.52,-77.39 661.52,-77.39"/>
<polygon fill="none" stroke="#29235c" points="661.52,-77.39 661.52,-137.39 1025.52,-137.39 1025.52,-77.39 661.52,-77.39"/>
<text text-anchor="start" x="672.18" y="-97.59" font-family="Helvetica,sans-Serif" font-size="32.00" fill="#29235c">updated_at &#160;&#160;&#160;</text>
<text text-anchor="start" x="867.24" y="-98.59" font-family="Helvetica,sans-Serif" font-style="italic" font-size="32.00" fill="#29235c">timestamp</text>
<polygon fill="none" stroke="#29235c" stroke-width="2" points="660.52,-76.39 660.52,-438.39 1026.52,-438.39 1026.52,-76.39 660.52,-76.39"/>
</g>
<!-- role_has_menus -->
<g id="role_has_menus" class="node">
<title>role_has_menus</title>
<ellipse fill="none" stroke="black" stroke-width="0" cx="273.65" cy="-377.39" rx="273.8" ry="87.86"/>
<polygon fill="#1d71b8" stroke="transparent" points="82.65,-377.39 82.65,-437.39 465.65,-437.39 465.65,-377.39 82.65,-377.39"/>
<polygon fill="none" stroke="#29235c" points="82.65,-377.39 82.65,-437.39 465.65,-437.39 465.65,-377.39 82.65,-377.39"/>
<text text-anchor="start" x="93.65" y="-398.59" font-family="Helvetica,sans-Serif" font-weight="bold" font-size="32.00" fill="#ffffff"> &#160;&#160;&#160;&#160;&#160;&#160;role_has_menus &#160;&#160;&#160;&#160;&#160;&#160;</text>
<polygon fill="#e7e2dd" stroke="transparent" points="82.65,-317.39 82.65,-377.39 465.65,-377.39 465.65,-317.39 82.65,-317.39"/>
<polygon fill="none" stroke="#29235c" points="82.65,-317.39 82.65,-377.39 465.65,-377.39 465.65,-317.39 82.65,-317.39"/>
<text text-anchor="start" x="93.65" y="-337.59" font-family="Helvetica,sans-Serif" font-size="32.00" fill="#29235c">menu_id &#160;&#160;&#160;</text>
<text text-anchor="start" x="420.87" y="-338.59" font-family="Helvetica,sans-Serif" font-style="italic" font-size="32.00" fill="#29235c">int</text>
<polygon fill="none" stroke="#29235c" stroke-width="2" points="81.15,-316.39 81.15,-438.39 466.15,-438.39 466.15,-316.39 81.15,-316.39"/>
</g>
<!-- role_has_menus&#45;&gt;menus -->
<!-- role_has_menus&#45;&gt;menus -->
<g id="edge2" class="edge">
<title>role_has_menus:e&#45;&gt;menus:w</title>
<path fill="none" stroke="#29235c" stroke-width="3" d="M466.65,-347.39C549.28,-347.39 572.48,-347.39 650.23,-347.39"/>
<polygon fill="#29235c" stroke="#29235c" stroke-width="3" points="650.52,-350.89 660.52,-347.39 650.52,-343.89 650.52,-350.89"/>
<text text-anchor="middle" x="651.62" y="-356.99" font-family="Helvetica,sans-Serif" font-size="32.00" fill="#29235c">1</text>
<text text-anchor="middle" x="460.43" y="-356.99" font-family="Helvetica,sans-Serif" font-size="32.00" fill="#29235c">*</text>
</g>
</g>
</svg>
