<?xml version="1.0" encoding="UTF-8" standalone="no"?>
<!DOCTYPE svg PUBLIC "-//W3C//DTD SVG 1.1//EN"
 "http://www.w3.org/Graphics/SVG/1.1/DTD/svg11.dtd">
<!-- Generated by graphviz version 2.47.0 (20210316.0004)
 -->
<!-- Title: dbml Pages: 1 -->
<svg width="1023pt" height="523pt"
 viewBox="0.00 0.00 1022.64 522.77" xmlns="http://www.w3.org/2000/svg" xmlns:xlink="http://www.w3.org/1999/xlink">
<g id="graph0" class="graph" transform="scale(1 1) rotate(0) translate(4 518.77)">
<title>dbml</title>
<!-- modules -->
<g id="modules" class="node">
<title>modules</title>
<ellipse fill="none" stroke="black" stroke-width="0" cx="754.42" cy="-257.39" rx="260.43" ry="257.27"/>
<polygon fill="#1d71b8" stroke="transparent" points="572.42,-377.39 572.42,-437.39 936.42,-437.39 936.42,-377.39 572.42,-377.39"/>
<polygon fill="none" stroke="#29235c" points="572.42,-377.39 572.42,-437.39 936.42,-437.39 936.42,-377.39 572.42,-377.39"/>
<text text-anchor="start" x="631.72" y="-398.59" font-family="Helvetica,sans-Serif" font-weight="bold" font-size="32.00" fill="#ffffff"> &#160;&#160;&#160;&#160;&#160;&#160;modules &#160;&#160;&#160;&#160;&#160;&#160;</text>
<polygon fill="#e7e2dd" stroke="transparent" points="572.42,-317.39 572.42,-377.39 936.42,-377.39 936.42,-317.39 572.42,-317.39"/>
<polygon fill="none" stroke="#29235c" points="572.42,-317.39 572.42,-377.39 936.42,-377.39 936.42,-317.39 572.42,-317.39"/>
<text text-anchor="start" x="583.42" y="-338.59" font-family="Helvetica,sans-Serif" font-weight="bold" font-size="32.00" fill="#29235c">id</text>
<text text-anchor="start" x="608.31" y="-338.59" font-family="Helvetica,sans-Serif" font-size="32.00" fill="#29235c"> &#160;&#160;&#160;</text>
<text text-anchor="start" x="891.64" y="-338.59" font-family="Helvetica,sans-Serif" font-style="italic" font-size="32.00" fill="#29235c">int</text>
<polygon fill="#e7e2dd" stroke="transparent" points="572.42,-257.39 572.42,-317.39 936.42,-317.39 936.42,-257.39 572.42,-257.39"/>
<polygon fill="none" stroke="#29235c" points="572.42,-257.39 572.42,-317.39 936.42,-317.39 936.42,-257.39 572.42,-257.39"/>
<text text-anchor="start" x="583.42" y="-277.59" font-family="Helvetica,sans-Serif" font-size="32.00" fill="#29235c">nama &#160;&#160;&#160;</text>
<text text-anchor="start" x="847.2" y="-278.59" font-family="Helvetica,sans-Serif" font-style="italic" font-size="32.00" fill="#29235c">string</text>
<polygon fill="#e7e2dd" stroke="transparent" points="572.42,-197.39 572.42,-257.39 936.42,-257.39 936.42,-197.39 572.42,-197.39"/>
<polygon fill="none" stroke="#29235c" points="572.42,-197.39 572.42,-257.39 936.42,-257.39 936.42,-197.39 572.42,-197.39"/>
<text text-anchor="start" x="583.42" y="-217.59" font-family="Helvetica,sans-Serif" font-size="32.00" fill="#29235c">tipe &#160;&#160;&#160;</text>
<text text-anchor="start" x="847.2" y="-218.59" font-family="Helvetica,sans-Serif" font-style="italic" font-size="32.00" fill="#29235c">string</text>
<polygon fill="#e7e2dd" stroke="transparent" points="572.42,-137.39 572.42,-197.39 936.42,-197.39 936.42,-137.39 572.42,-137.39"/>
<polygon fill="none" stroke="#29235c" points="572.42,-137.39 572.42,-197.39 936.42,-197.39 936.42,-137.39 572.42,-137.39"/>
<text text-anchor="start" x="583.42" y="-157.59" font-family="Helvetica,sans-Serif" font-size="32.00" fill="#29235c">created_at &#160;&#160;&#160;</text>
<text text-anchor="start" x="777.86" y="-158.59" font-family="Helvetica,sans-Serif" font-style="italic" font-size="32.00" fill="#29235c">timestamp</text>
<polygon fill="#e7e2dd" stroke="transparent" points="572.42,-77.39 572.42,-137.39 936.42,-137.39 936.42,-77.39 572.42,-77.39"/>
<polygon fill="none" stroke="#29235c" points="572.42,-77.39 572.42,-137.39 936.42,-137.39 936.42,-77.39 572.42,-77.39"/>
<text text-anchor="start" x="583.09" y="-97.59" font-family="Helvetica,sans-Serif" font-size="32.00" fill="#29235c">updated_at &#160;&#160;&#160;</text>
<text text-anchor="start" x="778.14" y="-98.59" font-family="Helvetica,sans-Serif" font-style="italic" font-size="32.00" fill="#29235c">timestamp</text>
<polygon fill="none" stroke="#29235c" stroke-width="2" points="571.42,-76.39 571.42,-438.39 937.42,-438.39 937.42,-76.39 571.42,-76.39"/>
</g>
<!-- user_stories -->
<g id="user_stories" class="node">
<title>user_stories</title>
<ellipse fill="none" stroke="black" stroke-width="0" cx="229.1" cy="-377.39" rx="229.21" ry="87.86"/>
<polygon fill="#1d71b8" stroke="transparent" points="69.1,-377.39 69.1,-437.39 389.1,-437.39 389.1,-377.39 69.1,-377.39"/>
<polygon fill="none" stroke="#29235c" points="69.1,-377.39 69.1,-437.39 389.1,-437.39 389.1,-377.39 69.1,-377.39"/>
<text text-anchor="start" x="79.73" y="-398.59" font-family="Helvetica,sans-Serif" font-weight="bold" font-size="32.00" fill="#ffffff"> &#160;&#160;&#160;&#160;&#160;&#160;user_stories &#160;&#160;&#160;&#160;&#160;&#160;</text>
<polygon fill="#e7e2dd" stroke="transparent" points="69.1,-317.39 69.1,-377.39 389.1,-377.39 389.1,-317.39 69.1,-317.39"/>
<polygon fill="none" stroke="#29235c" points="69.1,-317.39 69.1,-377.39 389.1,-377.39 389.1,-317.39 69.1,-317.39"/>
<text text-anchor="start" x="80.1" y="-337.59" font-family="Helvetica,sans-Serif" font-size="32.00" fill="#29235c">modules_id &#160;&#160;&#160;</text>
<text text-anchor="start" x="344.32" y="-338.59" font-family="Helvetica,sans-Serif" font-style="italic" font-size="32.00" fill="#29235c">int</text>
<polygon fill="none" stroke="#29235c" stroke-width="2" points="68.1,-316.39 68.1,-438.39 390.1,-438.39 390.1,-316.39 68.1,-316.39"/>
</g>
<!-- user_stories&#45;&gt;modules -->
<!-- user_stories&#45;&gt;modules -->
<g id="edge2" class="edge">
<title>user_stories:e&#45;&gt;modules:w</title>
<path fill="none" stroke="#29235c" stroke-width="3" d="M390.1,-347.39C467.23,-347.39 488.99,-347.39 561.36,-347.39"/>
<polygon fill="#29235c" stroke="#29235c" stroke-width="3" points="561.42,-350.89 571.42,-347.39 561.42,-343.89 561.42,-350.89"/>
<text text-anchor="middle" x="562.53" y="-356.99" font-family="Helvetica,sans-Serif" font-size="32.00" fill="#29235c">1</text>
<text text-anchor="middle" x="383.88" y="-356.99" font-family="Helvetica,sans-Serif" font-size="32.00" fill="#29235c">*</text>
</g>
</g>
</svg>
