<?xml version="1.0" encoding="UTF-8" standalone="no"?>
<!DOCTYPE svg PUBLIC "-//W3C//DTD SVG 1.1//EN"
 "http://www.w3.org/Graphics/SVG/1.1/DTD/svg11.dtd">
<!-- Generated by graphviz version 2.47.0 (20210316.0004)
 -->
<!-- Title: dbml Pages: 1 -->
<svg width="1539pt" height="438pt"
 viewBox="0.00 0.00 1539.47 437.92" xmlns="http://www.w3.org/2000/svg" xmlns:xlink="http://www.w3.org/1999/xlink">
<g id="graph0" class="graph" transform="scale(1 1) rotate(0) translate(4 433.92)">
<title>dbml</title>
<!-- departments -->
<g id="departments" class="node">
<title>departments</title>
<ellipse fill="none" stroke="black" stroke-width="0" cx="1271.25" cy="-214.96" rx="260.43" ry="214.92"/>
<polygon fill="#1d71b8" stroke="transparent" points="1089.25,-304.96 1089.25,-364.96 1453.25,-364.96 1453.25,-304.96 1089.25,-304.96"/>
<polygon fill="none" stroke="#29235c" points="1089.25,-304.96 1089.25,-364.96 1453.25,-364.96 1453.25,-304.96 1089.25,-304.96"/>
<text text-anchor="start" x="1120.09" y="-326.16" font-family="Helvetica,sans-Serif" font-weight="bold" font-size="32.00" fill="#ffffff"> &#160;&#160;&#160;&#160;&#160;&#160;departments &#160;&#160;&#160;&#160;&#160;&#160;</text>
<polygon fill="#e7e2dd" stroke="transparent" points="1089.25,-244.96 1089.25,-304.96 1453.25,-304.96 1453.25,-244.96 1089.25,-244.96"/>
<polygon fill="none" stroke="#29235c" points="1089.25,-244.96 1089.25,-304.96 1453.25,-304.96 1453.25,-244.96 1089.25,-244.96"/>
<text text-anchor="start" x="1100.25" y="-266.16" font-family="Helvetica,sans-Serif" font-weight="bold" font-size="32.00" fill="#29235c">id</text>
<text text-anchor="start" x="1125.14" y="-266.16" font-family="Helvetica,sans-Serif" font-size="32.00" fill="#29235c"> &#160;&#160;&#160;</text>
<text text-anchor="start" x="1408.47" y="-266.16" font-family="Helvetica,sans-Serif" font-style="italic" font-size="32.00" fill="#29235c">int</text>
<polygon fill="#e7e2dd" stroke="transparent" points="1089.25,-184.96 1089.25,-244.96 1453.25,-244.96 1453.25,-184.96 1089.25,-184.96"/>
<polygon fill="none" stroke="#29235c" points="1089.25,-184.96 1089.25,-244.96 1453.25,-244.96 1453.25,-184.96 1089.25,-184.96"/>
<text text-anchor="start" x="1100.25" y="-205.16" font-family="Helvetica,sans-Serif" font-size="32.00" fill="#29235c">name &#160;&#160;&#160;</text>
<text text-anchor="start" x="1296.49" y="-206.16" font-family="Helvetica,sans-Serif" font-style="italic" font-size="32.00" fill="#29235c">varchar</text>
<text text-anchor="start" x="1403.16" y="-206.16" font-family="Helvetica,sans-Serif" font-size="32.00" fill="#29235c"> </text>
<text text-anchor="start" x="1412.05" y="-206.16" font-family="Helvetica,sans-Serif" font-weight="bold" font-size="32.00" fill="#29235c">(!)</text>
<polygon fill="#e7e2dd" stroke="transparent" points="1089.25,-124.96 1089.25,-184.96 1453.25,-184.96 1453.25,-124.96 1089.25,-124.96"/>
<polygon fill="none" stroke="#29235c" points="1089.25,-124.96 1089.25,-184.96 1453.25,-184.96 1453.25,-124.96 1089.25,-124.96"/>
<text text-anchor="start" x="1100.25" y="-145.16" font-family="Helvetica,sans-Serif" font-size="32.00" fill="#29235c">created_at &#160;&#160;&#160;</text>
<text text-anchor="start" x="1294.69" y="-146.16" font-family="Helvetica,sans-Serif" font-style="italic" font-size="32.00" fill="#29235c">timestamp</text>
<polygon fill="#e7e2dd" stroke="transparent" points="1089.25,-64.96 1089.25,-124.96 1453.25,-124.96 1453.25,-64.96 1089.25,-64.96"/>
<polygon fill="none" stroke="#29235c" points="1089.25,-64.96 1089.25,-124.96 1453.25,-124.96 1453.25,-64.96 1089.25,-64.96"/>
<text text-anchor="start" x="1099.92" y="-85.16" font-family="Helvetica,sans-Serif" font-size="32.00" fill="#29235c">updated_at &#160;&#160;&#160;</text>
<text text-anchor="start" x="1294.97" y="-86.16" font-family="Helvetica,sans-Serif" font-style="italic" font-size="32.00" fill="#29235c">timestamp</text>
<polygon fill="none" stroke="#29235c" stroke-width="2" points="1088.25,-63.96 1088.25,-365.96 1454.25,-365.96 1454.25,-63.96 1088.25,-63.96"/>
</g>
<!-- positions -->
<g id="positions" class="node">
<title>positions</title>
<ellipse fill="none" stroke="black" stroke-width="0" cx="714.82" cy="-214.96" rx="260.43" ry="214.92"/>
<polygon fill="#1d71b8" stroke="transparent" points="532.82,-304.96 532.82,-364.96 896.82,-364.96 896.82,-304.96 532.82,-304.96"/>
<polygon fill="none" stroke="#29235c" points="532.82,-304.96 532.82,-364.96 896.82,-364.96 896.82,-304.96 532.82,-304.96"/>
<text text-anchor="start" x="589.45" y="-326.16" font-family="Helvetica,sans-Serif" font-weight="bold" font-size="32.00" fill="#ffffff"> &#160;&#160;&#160;&#160;&#160;&#160;positions &#160;&#160;&#160;&#160;&#160;&#160;</text>
<polygon fill="#e7e2dd" stroke="transparent" points="532.82,-244.96 532.82,-304.96 896.82,-304.96 896.82,-244.96 532.82,-244.96"/>
<polygon fill="none" stroke="#29235c" points="532.82,-244.96 532.82,-304.96 896.82,-304.96 896.82,-244.96 532.82,-244.96"/>
<text text-anchor="start" x="543.82" y="-266.16" font-family="Helvetica,sans-Serif" font-weight="bold" font-size="32.00" fill="#29235c">id</text>
<text text-anchor="start" x="568.71" y="-266.16" font-family="Helvetica,sans-Serif" font-size="32.00" fill="#29235c"> &#160;&#160;&#160;</text>
<text text-anchor="start" x="852.04" y="-266.16" font-family="Helvetica,sans-Serif" font-style="italic" font-size="32.00" fill="#29235c">int</text>
<polygon fill="#e7e2dd" stroke="transparent" points="532.82,-184.96 532.82,-244.96 896.82,-244.96 896.82,-184.96 532.82,-184.96"/>
<polygon fill="none" stroke="#29235c" points="532.82,-184.96 532.82,-244.96 896.82,-244.96 896.82,-184.96 532.82,-184.96"/>
<text text-anchor="start" x="543.82" y="-205.16" font-family="Helvetica,sans-Serif" font-size="32.00" fill="#29235c">department_id &#160;&#160;&#160;</text>
<text text-anchor="start" x="852.04" y="-206.16" font-family="Helvetica,sans-Serif" font-style="italic" font-size="32.00" fill="#29235c">int</text>
<polygon fill="#e7e2dd" stroke="transparent" points="532.82,-124.96 532.82,-184.96 896.82,-184.96 896.82,-124.96 532.82,-124.96"/>
<polygon fill="none" stroke="#29235c" points="532.82,-124.96 532.82,-184.96 896.82,-184.96 896.82,-124.96 532.82,-124.96"/>
<text text-anchor="start" x="543.82" y="-145.16" font-family="Helvetica,sans-Serif" font-size="32.00" fill="#29235c">created_at &#160;&#160;&#160;</text>
<text text-anchor="start" x="738.26" y="-146.16" font-family="Helvetica,sans-Serif" font-style="italic" font-size="32.00" fill="#29235c">timestamp</text>
<polygon fill="#e7e2dd" stroke="transparent" points="532.82,-64.96 532.82,-124.96 896.82,-124.96 896.82,-64.96 532.82,-64.96"/>
<polygon fill="none" stroke="#29235c" points="532.82,-64.96 532.82,-124.96 896.82,-124.96 896.82,-64.96 532.82,-64.96"/>
<text text-anchor="start" x="543.49" y="-85.16" font-family="Helvetica,sans-Serif" font-size="32.00" fill="#29235c">updated_at &#160;&#160;&#160;</text>
<text text-anchor="start" x="738.54" y="-86.16" font-family="Helvetica,sans-Serif" font-style="italic" font-size="32.00" fill="#29235c">timestamp</text>
<polygon fill="none" stroke="#29235c" stroke-width="2" points="531.82,-63.96 531.82,-365.96 897.82,-365.96 897.82,-63.96 531.82,-63.96"/>
</g>
<!-- positions&#45;&gt;departments -->
<!-- positions&#45;&gt;departments -->
<g id="edge2" class="edge">
<title>positions:e&#45;&gt;departments:w</title>
<path fill="none" stroke="#29235c" stroke-width="3" d="M897.82,-214.96C983.09,-214.96 998.39,-270.36 1078.19,-274.69"/>
<polygon fill="#29235c" stroke="#29235c" stroke-width="3" points="1078.16,-278.19 1088.25,-274.96 1078.35,-271.2 1078.16,-278.19"/>
<text text-anchor="middle" x="1079.36" y="-284.56" font-family="Helvetica,sans-Serif" font-size="32.00" fill="#29235c">1</text>
<text text-anchor="middle" x="904.04" y="-214.96" font-family="Helvetica,sans-Serif" font-size="32.00" fill="#29235c">*</text>
</g>
<!-- user_titles -->
<g id="user_titles" class="node">
<title>user_titles</title>
<ellipse fill="none" stroke="black" stroke-width="0" cx="209.3" cy="-304.96" rx="209.11" ry="87.86"/>
<polygon fill="#1d71b8" stroke="transparent" points="63.3,-304.96 63.3,-364.96 355.3,-364.96 355.3,-304.96 63.3,-304.96"/>
<polygon fill="none" stroke="#29235c" points="63.3,-304.96 63.3,-364.96 355.3,-364.96 355.3,-304.96 63.3,-304.96"/>
<text text-anchor="start" x="74.16" y="-326.16" font-family="Helvetica,sans-Serif" font-weight="bold" font-size="32.00" fill="#ffffff"> &#160;&#160;&#160;&#160;&#160;&#160;user_titles &#160;&#160;&#160;&#160;&#160;&#160;</text>
<polygon fill="#e7e2dd" stroke="transparent" points="63.3,-244.96 63.3,-304.96 355.3,-304.96 355.3,-244.96 63.3,-244.96"/>
<polygon fill="none" stroke="#29235c" points="63.3,-244.96 63.3,-304.96 355.3,-304.96 355.3,-244.96 63.3,-244.96"/>
<text text-anchor="start" x="74.3" y="-265.16" font-family="Helvetica,sans-Serif" font-size="32.00" fill="#29235c">position_id &#160;&#160;&#160;</text>
<text text-anchor="start" x="310.52" y="-266.16" font-family="Helvetica,sans-Serif" font-style="italic" font-size="32.00" fill="#29235c">int</text>
<polygon fill="none" stroke="#29235c" stroke-width="2" points="62.3,-243.96 62.3,-365.96 356.3,-365.96 356.3,-243.96 62.3,-243.96"/>
</g>
<!-- user_titles&#45;&gt;positions -->
<!-- user_titles&#45;&gt;positions -->
<g id="edge4" class="edge">
<title>user_titles:e&#45;&gt;positions:w</title>
<path fill="none" stroke="#29235c" stroke-width="3" d="M356.3,-274.96C430.81,-274.96 451.94,-274.96 521.65,-274.96"/>
<polygon fill="#29235c" stroke="#29235c" stroke-width="3" points="521.82,-278.46 531.82,-274.96 521.82,-271.46 521.82,-278.46"/>
<text text-anchor="middle" x="522.93" y="-284.56" font-family="Helvetica,sans-Serif" font-size="32.00" fill="#29235c">1</text>
<text text-anchor="middle" x="350.08" y="-284.56" font-family="Helvetica,sans-Serif" font-size="32.00" fill="#29235c">*</text>
</g>
</g>
</svg>
