<?xml version="1.0" encoding="UTF-8" standalone="no"?>
<!DOCTYPE svg PUBLIC "-//W3C//DTD SVG 1.1//EN"
 "http://www.w3.org/Graphics/SVG/1.1/DTD/svg11.dtd">
<!-- Generated by graphviz version 2.47.0 (20210316.0004)
 -->
<!-- Title: dbml Pages: 1 -->
<svg width="1501pt" height="569pt"
 viewBox="0.00 0.00 1501.28 569.07" xmlns="http://www.w3.org/2000/svg" xmlns:xlink="http://www.w3.org/1999/xlink">
<g id="graph0" class="graph" transform="scale(1 1) rotate(0) translate(4 565.07)">
<title>dbml</title>
<!-- departments -->
<g id="departments" class="node">
<title>departments</title>
<ellipse fill="none" stroke="black" stroke-width="0" cx="1233.07" cy="-287.39" rx="260.43" ry="214.92"/>
<polygon fill="#1d71b8" stroke="transparent" points="1051.07,-377.39 1051.07,-437.39 1415.07,-437.39 1415.07,-377.39 1051.07,-377.39"/>
<polygon fill="none" stroke="#29235c" points="1051.07,-377.39 1051.07,-437.39 1415.07,-437.39 1415.07,-377.39 1051.07,-377.39"/>
<text text-anchor="start" x="1081.91" y="-398.59" font-family="Helvetica,sans-Serif" font-weight="bold" font-size="32.00" fill="#ffffff"> &#160;&#160;&#160;&#160;&#160;&#160;departments &#160;&#160;&#160;&#160;&#160;&#160;</text>
<polygon fill="#e7e2dd" stroke="transparent" points="1051.07,-317.39 1051.07,-377.39 1415.07,-377.39 1415.07,-317.39 1051.07,-317.39"/>
<polygon fill="none" stroke="#29235c" points="1051.07,-317.39 1051.07,-377.39 1415.07,-377.39 1415.07,-317.39 1051.07,-317.39"/>
<text text-anchor="start" x="1062.07" y="-338.59" font-family="Helvetica,sans-Serif" font-weight="bold" font-size="32.00" fill="#29235c">id</text>
<text text-anchor="start" x="1086.96" y="-338.59" font-family="Helvetica,sans-Serif" font-size="32.00" fill="#29235c"> &#160;&#160;&#160;</text>
<text text-anchor="start" x="1370.29" y="-338.59" font-family="Helvetica,sans-Serif" font-style="italic" font-size="32.00" fill="#29235c">int</text>
<polygon fill="#e7e2dd" stroke="transparent" points="1051.07,-257.39 1051.07,-317.39 1415.07,-317.39 1415.07,-257.39 1051.07,-257.39"/>
<polygon fill="none" stroke="#29235c" points="1051.07,-257.39 1051.07,-317.39 1415.07,-317.39 1415.07,-257.39 1051.07,-257.39"/>
<text text-anchor="start" x="1062.07" y="-277.59" font-family="Helvetica,sans-Serif" font-size="32.00" fill="#29235c">name &#160;&#160;&#160;</text>
<text text-anchor="start" x="1258.31" y="-278.59" font-family="Helvetica,sans-Serif" font-style="italic" font-size="32.00" fill="#29235c">varchar</text>
<text text-anchor="start" x="1364.98" y="-278.59" font-family="Helvetica,sans-Serif" font-size="32.00" fill="#29235c"> </text>
<text text-anchor="start" x="1373.87" y="-278.59" font-family="Helvetica,sans-Serif" font-weight="bold" font-size="32.00" fill="#29235c">(!)</text>
<polygon fill="#e7e2dd" stroke="transparent" points="1051.07,-197.39 1051.07,-257.39 1415.07,-257.39 1415.07,-197.39 1051.07,-197.39"/>
<polygon fill="none" stroke="#29235c" points="1051.07,-197.39 1051.07,-257.39 1415.07,-257.39 1415.07,-197.39 1051.07,-197.39"/>
<text text-anchor="start" x="1062.07" y="-217.59" font-family="Helvetica,sans-Serif" font-size="32.00" fill="#29235c">created_at &#160;&#160;&#160;</text>
<text text-anchor="start" x="1256.51" y="-218.59" font-family="Helvetica,sans-Serif" font-style="italic" font-size="32.00" fill="#29235c">timestamp</text>
<polygon fill="#e7e2dd" stroke="transparent" points="1051.07,-137.39 1051.07,-197.39 1415.07,-197.39 1415.07,-137.39 1051.07,-137.39"/>
<polygon fill="none" stroke="#29235c" points="1051.07,-137.39 1051.07,-197.39 1415.07,-197.39 1415.07,-137.39 1051.07,-137.39"/>
<text text-anchor="start" x="1061.74" y="-157.59" font-family="Helvetica,sans-Serif" font-size="32.00" fill="#29235c">updated_at &#160;&#160;&#160;</text>
<text text-anchor="start" x="1256.79" y="-158.59" font-family="Helvetica,sans-Serif" font-style="italic" font-size="32.00" fill="#29235c">timestamp</text>
<polygon fill="none" stroke="#29235c" stroke-width="2" points="1050.07,-136.39 1050.07,-438.39 1416.07,-438.39 1416.07,-136.39 1050.07,-136.39"/>
</g>
<!-- positions -->
<g id="positions" class="node">
<title>positions</title>
<ellipse fill="none" stroke="black" stroke-width="0" cx="676.64" cy="-257.39" rx="260.43" ry="257.27"/>
<polygon fill="#1d71b8" stroke="transparent" points="494.64,-377.39 494.64,-437.39 858.64,-437.39 858.64,-377.39 494.64,-377.39"/>
<polygon fill="none" stroke="#29235c" points="494.64,-377.39 494.64,-437.39 858.64,-437.39 858.64,-377.39 494.64,-377.39"/>
<text text-anchor="start" x="551.26" y="-398.59" font-family="Helvetica,sans-Serif" font-weight="bold" font-size="32.00" fill="#ffffff"> &#160;&#160;&#160;&#160;&#160;&#160;positions &#160;&#160;&#160;&#160;&#160;&#160;</text>
<polygon fill="#e7e2dd" stroke="transparent" points="494.64,-317.39 494.64,-377.39 858.64,-377.39 858.64,-317.39 494.64,-317.39"/>
<polygon fill="none" stroke="#29235c" points="494.64,-317.39 494.64,-377.39 858.64,-377.39 858.64,-317.39 494.64,-317.39"/>
<text text-anchor="start" x="505.64" y="-338.59" font-family="Helvetica,sans-Serif" font-weight="bold" font-size="32.00" fill="#29235c">id</text>
<text text-anchor="start" x="530.53" y="-338.59" font-family="Helvetica,sans-Serif" font-size="32.00" fill="#29235c"> &#160;&#160;&#160;</text>
<text text-anchor="start" x="813.86" y="-338.59" font-family="Helvetica,sans-Serif" font-style="italic" font-size="32.00" fill="#29235c">int</text>
<polygon fill="#e7e2dd" stroke="transparent" points="494.64,-257.39 494.64,-317.39 858.64,-317.39 858.64,-257.39 494.64,-257.39"/>
<polygon fill="none" stroke="#29235c" points="494.64,-257.39 494.64,-317.39 858.64,-317.39 858.64,-257.39 494.64,-257.39"/>
<text text-anchor="start" x="505.64" y="-277.59" font-family="Helvetica,sans-Serif" font-size="32.00" fill="#29235c">name &#160;&#160;&#160;</text>
<text text-anchor="start" x="701.88" y="-278.59" font-family="Helvetica,sans-Serif" font-style="italic" font-size="32.00" fill="#29235c">varchar</text>
<text text-anchor="start" x="808.55" y="-278.59" font-family="Helvetica,sans-Serif" font-size="32.00" fill="#29235c"> </text>
<text text-anchor="start" x="817.44" y="-278.59" font-family="Helvetica,sans-Serif" font-weight="bold" font-size="32.00" fill="#29235c">(!)</text>
<polygon fill="#e7e2dd" stroke="transparent" points="494.64,-197.39 494.64,-257.39 858.64,-257.39 858.64,-197.39 494.64,-197.39"/>
<polygon fill="none" stroke="#29235c" points="494.64,-197.39 494.64,-257.39 858.64,-257.39 858.64,-197.39 494.64,-197.39"/>
<text text-anchor="start" x="505.64" y="-217.59" font-family="Helvetica,sans-Serif" font-size="32.00" fill="#29235c">department_id &#160;&#160;&#160;</text>
<text text-anchor="start" x="813.86" y="-218.59" font-family="Helvetica,sans-Serif" font-style="italic" font-size="32.00" fill="#29235c">int</text>
<polygon fill="#e7e2dd" stroke="transparent" points="494.64,-137.39 494.64,-197.39 858.64,-197.39 858.64,-137.39 494.64,-137.39"/>
<polygon fill="none" stroke="#29235c" points="494.64,-137.39 494.64,-197.39 858.64,-197.39 858.64,-137.39 494.64,-137.39"/>
<text text-anchor="start" x="505.64" y="-157.59" font-family="Helvetica,sans-Serif" font-size="32.00" fill="#29235c">created_at &#160;&#160;&#160;</text>
<text text-anchor="start" x="700.08" y="-158.59" font-family="Helvetica,sans-Serif" font-style="italic" font-size="32.00" fill="#29235c">timestamp</text>
<polygon fill="#e7e2dd" stroke="transparent" points="494.64,-77.39 494.64,-137.39 858.64,-137.39 858.64,-77.39 494.64,-77.39"/>
<polygon fill="none" stroke="#29235c" points="494.64,-77.39 494.64,-137.39 858.64,-137.39 858.64,-77.39 494.64,-77.39"/>
<text text-anchor="start" x="505.31" y="-97.59" font-family="Helvetica,sans-Serif" font-size="32.00" fill="#29235c">updated_at &#160;&#160;&#160;</text>
<text text-anchor="start" x="700.36" y="-98.59" font-family="Helvetica,sans-Serif" font-style="italic" font-size="32.00" fill="#29235c">timestamp</text>
<polygon fill="none" stroke="#29235c" stroke-width="2" points="493.64,-76.39 493.64,-438.39 859.64,-438.39 859.64,-76.39 493.64,-76.39"/>
</g>
<!-- positions&#45;&gt;departments -->
<!-- positions&#45;&gt;departments -->
<g id="edge2" class="edge">
<title>positions:e&#45;&gt;departments:w</title>
<path fill="none" stroke="#29235c" stroke-width="3" d="M859.64,-227.39C956.16,-227.39 950.57,-339.1 1039.92,-346.95"/>
<polygon fill="#29235c" stroke="#29235c" stroke-width="3" points="1039.93,-350.46 1050.07,-347.39 1040.23,-343.46 1039.93,-350.46"/>
<text text-anchor="middle" x="1058.96" y="-347.39" font-family="Helvetica,sans-Serif" font-size="32.00" fill="#29235c">1</text>
<text text-anchor="middle" x="865.86" y="-198.59" font-family="Helvetica,sans-Serif" font-size="32.00" fill="#29235c">*</text>
</g>
<!-- statuses -->
<g id="statuses" class="node">
<title>statuses</title>
<ellipse fill="none" stroke="black" stroke-width="0" cx="190.21" cy="-473.39" rx="190.42" ry="87.86"/>
<polygon fill="#1d71b8" stroke="transparent" points="58.21,-473.39 58.21,-533.39 323.21,-533.39 323.21,-473.39 58.21,-473.39"/>
<polygon fill="none" stroke="#29235c" points="58.21,-473.39 58.21,-533.39 323.21,-533.39 323.21,-473.39 58.21,-473.39"/>
<text text-anchor="start" x="68.89" y="-494.59" font-family="Helvetica,sans-Serif" font-weight="bold" font-size="32.00" fill="#ffffff"> &#160;&#160;&#160;&#160;&#160;&#160;statuses &#160;&#160;&#160;&#160;&#160;&#160;</text>
<polygon fill="#e7e2dd" stroke="transparent" points="58.21,-413.39 58.21,-473.39 323.21,-473.39 323.21,-413.39 58.21,-413.39"/>
<polygon fill="none" stroke="#29235c" points="58.21,-413.39 58.21,-473.39 323.21,-473.39 323.21,-413.39 58.21,-413.39"/>
<text text-anchor="start" x="69.21" y="-433.59" font-family="Helvetica,sans-Serif" font-size="32.00" fill="#29235c">position_id &#160;&#160;&#160;</text>
<text text-anchor="start" x="278.43" y="-434.59" font-family="Helvetica,sans-Serif" font-style="italic" font-size="32.00" fill="#29235c">int</text>
<polygon fill="none" stroke="#29235c" stroke-width="2" points="56.71,-412.39 56.71,-534.39 323.71,-534.39 323.71,-412.39 56.71,-412.39"/>
</g>
<!-- statuses&#45;&gt;positions -->
<!-- statuses&#45;&gt;positions -->
<g id="edge4" class="edge">
<title>statuses:e&#45;&gt;positions:w</title>
<path fill="none" stroke="#29235c" stroke-width="3" d="M324.21,-443.39C407.21,-443.39 407.24,-355.1 483.43,-347.86"/>
<polygon fill="#29235c" stroke="#29235c" stroke-width="3" points="483.81,-351.34 493.64,-347.39 483.49,-344.35 483.81,-351.34"/>
<text text-anchor="middle" x="502.53" y="-347.39" font-family="Helvetica,sans-Serif" font-size="32.00" fill="#29235c">1</text>
<text text-anchor="middle" x="317.99" y="-452.99" font-family="Helvetica,sans-Serif" font-size="32.00" fill="#29235c">*</text>
</g>
<!-- titles -->
<g id="titles" class="node">
<title>titles</title>
<ellipse fill="none" stroke="black" stroke-width="0" cx="190.21" cy="-280.39" rx="174.81" ry="87.86"/>
<polygon fill="#1d71b8" stroke="transparent" points="69.21,-280.39 69.21,-340.39 312.21,-340.39 312.21,-280.39 69.21,-280.39"/>
<polygon fill="none" stroke="#29235c" points="69.21,-280.39 69.21,-340.39 312.21,-340.39 312.21,-280.39 69.21,-280.39"/>
<text text-anchor="start" x="95.57" y="-301.59" font-family="Helvetica,sans-Serif" font-weight="bold" font-size="32.00" fill="#ffffff"> &#160;&#160;&#160;&#160;&#160;&#160;titles &#160;&#160;&#160;&#160;&#160;&#160;</text>
<polygon fill="#e7e2dd" stroke="transparent" points="69.21,-220.39 69.21,-280.39 312.21,-280.39 312.21,-220.39 69.21,-220.39"/>
<polygon fill="none" stroke="#29235c" points="69.21,-220.39 69.21,-280.39 312.21,-280.39 312.21,-220.39 69.21,-220.39"/>
<text text-anchor="start" x="79.96" y="-240.59" font-family="Helvetica,sans-Serif" font-size="32.00" fill="#29235c">position_id &#160;&#160;&#160;</text>
<text text-anchor="start" x="267.82" y="-241.59" font-family="Helvetica,sans-Serif" font-style="italic" font-size="32.00" fill="#29235c">int</text>
<polygon fill="none" stroke="#29235c" stroke-width="2" points="67.71,-219.39 67.71,-341.39 312.71,-341.39 312.71,-219.39 67.71,-219.39"/>
</g>
<!-- titles&#45;&gt;positions -->
<!-- titles&#45;&gt;positions -->
<g id="edge6" class="edge">
<title>titles:e&#45;&gt;positions:w</title>
<path fill="none" stroke="#29235c" stroke-width="3" d="M313.21,-250.39C400.7,-250.39 402.58,-339.96 483.38,-346.95"/>
<polygon fill="#29235c" stroke="#29235c" stroke-width="3" points="483.5,-350.46 493.64,-347.39 483.8,-343.47 483.5,-350.46"/>
<text text-anchor="middle" x="484.74" y="-318.59" font-family="Helvetica,sans-Serif" font-size="32.00" fill="#29235c">1</text>
<text text-anchor="middle" x="306.99" y="-221.59" font-family="Helvetica,sans-Serif" font-size="32.00" fill="#29235c">*</text>
</g>
</g>
</svg>
