<?xml version="1.0" encoding="UTF-8" standalone="no"?>
<!DOCTYPE svg PUBLIC "-//W3C//DTD SVG 1.1//EN"
 "http://www.w3.org/Graphics/SVG/1.1/DTD/svg11.dtd">
<!-- Generated by graphviz version 2.47.0 (20210316.0004)
 -->
<!-- Title: dbml Pages: 1 -->
<svg width="1610pt" height="763pt"
 viewBox="0.00 0.00 1610.18 763.07" xmlns="http://www.w3.org/2000/svg" xmlns:xlink="http://www.w3.org/1999/xlink">
<g id="graph0" class="graph" transform="scale(1 1) rotate(0) translate(4 759.07)">
<title>dbml</title>
<!-- departments -->
<g id="departments" class="node">
<title>departments</title>
<ellipse fill="none" stroke="black" stroke-width="0" cx="1341.96" cy="-287.39" rx="260.43" ry="214.92"/>
<polygon fill="#1d71b8" stroke="transparent" points="1159.96,-377.39 1159.96,-437.39 1523.96,-437.39 1523.96,-377.39 1159.96,-377.39"/>
<polygon fill="none" stroke="#29235c" points="1159.96,-377.39 1159.96,-437.39 1523.96,-437.39 1523.96,-377.39 1159.96,-377.39"/>
<text text-anchor="start" x="1190.8" y="-398.59" font-family="Helvetica,sans-Serif" font-weight="bold" font-size="32.00" fill="#ffffff"> &#160;&#160;&#160;&#160;&#160;&#160;departments &#160;&#160;&#160;&#160;&#160;&#160;</text>
<polygon fill="#e7e2dd" stroke="transparent" points="1159.96,-317.39 1159.96,-377.39 1523.96,-377.39 1523.96,-317.39 1159.96,-317.39"/>
<polygon fill="none" stroke="#29235c" points="1159.96,-317.39 1159.96,-377.39 1523.96,-377.39 1523.96,-317.39 1159.96,-317.39"/>
<text text-anchor="start" x="1170.96" y="-338.59" font-family="Helvetica,sans-Serif" font-weight="bold" font-size="32.00" fill="#29235c">id</text>
<text text-anchor="start" x="1195.85" y="-338.59" font-family="Helvetica,sans-Serif" font-size="32.00" fill="#29235c"> &#160;&#160;&#160;</text>
<text text-anchor="start" x="1479.18" y="-338.59" font-family="Helvetica,sans-Serif" font-style="italic" font-size="32.00" fill="#29235c">int</text>
<polygon fill="#e7e2dd" stroke="transparent" points="1159.96,-257.39 1159.96,-317.39 1523.96,-317.39 1523.96,-257.39 1159.96,-257.39"/>
<polygon fill="none" stroke="#29235c" points="1159.96,-257.39 1159.96,-317.39 1523.96,-317.39 1523.96,-257.39 1159.96,-257.39"/>
<text text-anchor="start" x="1170.96" y="-277.59" font-family="Helvetica,sans-Serif" font-size="32.00" fill="#29235c">name &#160;&#160;&#160;</text>
<text text-anchor="start" x="1367.2" y="-278.59" font-family="Helvetica,sans-Serif" font-style="italic" font-size="32.00" fill="#29235c">varchar</text>
<text text-anchor="start" x="1473.87" y="-278.59" font-family="Helvetica,sans-Serif" font-size="32.00" fill="#29235c"> </text>
<text text-anchor="start" x="1482.77" y="-278.59" font-family="Helvetica,sans-Serif" font-weight="bold" font-size="32.00" fill="#29235c">(!)</text>
<polygon fill="#e7e2dd" stroke="transparent" points="1159.96,-197.39 1159.96,-257.39 1523.96,-257.39 1523.96,-197.39 1159.96,-197.39"/>
<polygon fill="none" stroke="#29235c" points="1159.96,-197.39 1159.96,-257.39 1523.96,-257.39 1523.96,-197.39 1159.96,-197.39"/>
<text text-anchor="start" x="1170.96" y="-217.59" font-family="Helvetica,sans-Serif" font-size="32.00" fill="#29235c">created_at &#160;&#160;&#160;</text>
<text text-anchor="start" x="1365.41" y="-218.59" font-family="Helvetica,sans-Serif" font-style="italic" font-size="32.00" fill="#29235c">timestamp</text>
<polygon fill="#e7e2dd" stroke="transparent" points="1159.96,-137.39 1159.96,-197.39 1523.96,-197.39 1523.96,-137.39 1159.96,-137.39"/>
<polygon fill="none" stroke="#29235c" points="1159.96,-137.39 1159.96,-197.39 1523.96,-197.39 1523.96,-137.39 1159.96,-137.39"/>
<text text-anchor="start" x="1170.63" y="-157.59" font-family="Helvetica,sans-Serif" font-size="32.00" fill="#29235c">updated_at &#160;&#160;&#160;</text>
<text text-anchor="start" x="1365.68" y="-158.59" font-family="Helvetica,sans-Serif" font-style="italic" font-size="32.00" fill="#29235c">timestamp</text>
<polygon fill="none" stroke="#29235c" stroke-width="2" points="1158.96,-136.39 1158.96,-438.39 1524.96,-438.39 1524.96,-136.39 1158.96,-136.39"/>
</g>
<!-- positions -->
<g id="positions" class="node">
<title>positions</title>
<ellipse fill="none" stroke="black" stroke-width="0" cx="785.53" cy="-257.39" rx="260.43" ry="257.27"/>
<polygon fill="#1d71b8" stroke="transparent" points="603.53,-377.39 603.53,-437.39 967.53,-437.39 967.53,-377.39 603.53,-377.39"/>
<polygon fill="none" stroke="#29235c" points="603.53,-377.39 603.53,-437.39 967.53,-437.39 967.53,-377.39 603.53,-377.39"/>
<text text-anchor="start" x="660.16" y="-398.59" font-family="Helvetica,sans-Serif" font-weight="bold" font-size="32.00" fill="#ffffff"> &#160;&#160;&#160;&#160;&#160;&#160;positions &#160;&#160;&#160;&#160;&#160;&#160;</text>
<polygon fill="#e7e2dd" stroke="transparent" points="603.53,-317.39 603.53,-377.39 967.53,-377.39 967.53,-317.39 603.53,-317.39"/>
<polygon fill="none" stroke="#29235c" points="603.53,-317.39 603.53,-377.39 967.53,-377.39 967.53,-317.39 603.53,-317.39"/>
<text text-anchor="start" x="614.53" y="-338.59" font-family="Helvetica,sans-Serif" font-weight="bold" font-size="32.00" fill="#29235c">id</text>
<text text-anchor="start" x="639.42" y="-338.59" font-family="Helvetica,sans-Serif" font-size="32.00" fill="#29235c"> &#160;&#160;&#160;</text>
<text text-anchor="start" x="922.75" y="-338.59" font-family="Helvetica,sans-Serif" font-style="italic" font-size="32.00" fill="#29235c">int</text>
<polygon fill="#e7e2dd" stroke="transparent" points="603.53,-257.39 603.53,-317.39 967.53,-317.39 967.53,-257.39 603.53,-257.39"/>
<polygon fill="none" stroke="#29235c" points="603.53,-257.39 603.53,-317.39 967.53,-317.39 967.53,-257.39 603.53,-257.39"/>
<text text-anchor="start" x="614.53" y="-277.59" font-family="Helvetica,sans-Serif" font-size="32.00" fill="#29235c">name &#160;&#160;&#160;</text>
<text text-anchor="start" x="810.77" y="-278.59" font-family="Helvetica,sans-Serif" font-style="italic" font-size="32.00" fill="#29235c">varchar</text>
<text text-anchor="start" x="917.44" y="-278.59" font-family="Helvetica,sans-Serif" font-size="32.00" fill="#29235c"> </text>
<text text-anchor="start" x="926.33" y="-278.59" font-family="Helvetica,sans-Serif" font-weight="bold" font-size="32.00" fill="#29235c">(!)</text>
<polygon fill="#e7e2dd" stroke="transparent" points="603.53,-197.39 603.53,-257.39 967.53,-257.39 967.53,-197.39 603.53,-197.39"/>
<polygon fill="none" stroke="#29235c" points="603.53,-197.39 603.53,-257.39 967.53,-257.39 967.53,-197.39 603.53,-197.39"/>
<text text-anchor="start" x="614.53" y="-217.59" font-family="Helvetica,sans-Serif" font-size="32.00" fill="#29235c">department_id &#160;&#160;&#160;</text>
<text text-anchor="start" x="922.75" y="-218.59" font-family="Helvetica,sans-Serif" font-style="italic" font-size="32.00" fill="#29235c">int</text>
<polygon fill="#e7e2dd" stroke="transparent" points="603.53,-137.39 603.53,-197.39 967.53,-197.39 967.53,-137.39 603.53,-137.39"/>
<polygon fill="none" stroke="#29235c" points="603.53,-137.39 603.53,-197.39 967.53,-197.39 967.53,-137.39 603.53,-137.39"/>
<text text-anchor="start" x="614.53" y="-157.59" font-family="Helvetica,sans-Serif" font-size="32.00" fill="#29235c">created_at &#160;&#160;&#160;</text>
<text text-anchor="start" x="808.97" y="-158.59" font-family="Helvetica,sans-Serif" font-style="italic" font-size="32.00" fill="#29235c">timestamp</text>
<polygon fill="#e7e2dd" stroke="transparent" points="603.53,-77.39 603.53,-137.39 967.53,-137.39 967.53,-77.39 603.53,-77.39"/>
<polygon fill="none" stroke="#29235c" points="603.53,-77.39 603.53,-137.39 967.53,-137.39 967.53,-77.39 603.53,-77.39"/>
<text text-anchor="start" x="614.2" y="-97.59" font-family="Helvetica,sans-Serif" font-size="32.00" fill="#29235c">updated_at &#160;&#160;&#160;</text>
<text text-anchor="start" x="809.25" y="-98.59" font-family="Helvetica,sans-Serif" font-style="italic" font-size="32.00" fill="#29235c">timestamp</text>
<polygon fill="none" stroke="#29235c" stroke-width="2" points="602.53,-76.39 602.53,-438.39 968.53,-438.39 968.53,-76.39 602.53,-76.39"/>
</g>
<!-- positions&#45;&gt;departments -->
<!-- positions&#45;&gt;departments -->
<g id="edge2" class="edge">
<title>positions:e&#45;&gt;departments:w</title>
<path fill="none" stroke="#29235c" stroke-width="3" d="M968.53,-227.39C1065.05,-227.39 1059.47,-339.1 1148.81,-346.95"/>
<polygon fill="#29235c" stroke="#29235c" stroke-width="3" points="1148.82,-350.46 1158.96,-347.39 1149.12,-343.46 1148.82,-350.46"/>
<text text-anchor="middle" x="1150.07" y="-356.99" font-family="Helvetica,sans-Serif" font-size="32.00" fill="#29235c">1</text>
<text text-anchor="middle" x="974.76" y="-236.99" font-family="Helvetica,sans-Serif" font-size="32.00" fill="#29235c">*</text>
</g>
<!-- sop_positions -->
<g id="sop_positions" class="node">
<title>sop_positions</title>
<ellipse fill="none" stroke="black" stroke-width="0" cx="244.66" cy="-281.39" rx="244.82" ry="87.86"/>
<polygon fill="#1d71b8" stroke="transparent" points="73.66,-281.39 73.66,-341.39 415.66,-341.39 415.66,-281.39 73.66,-281.39"/>
<polygon fill="none" stroke="#29235c" points="73.66,-281.39 73.66,-341.39 415.66,-341.39 415.66,-281.39 73.66,-281.39"/>
<text text-anchor="start" x="84.6" y="-302.59" font-family="Helvetica,sans-Serif" font-weight="bold" font-size="32.00" fill="#ffffff"> &#160;&#160;&#160;&#160;&#160;&#160;sop_positions &#160;&#160;&#160;&#160;&#160;&#160;</text>
<polygon fill="#e7e2dd" stroke="transparent" points="73.66,-221.39 73.66,-281.39 415.66,-281.39 415.66,-221.39 73.66,-221.39"/>
<polygon fill="none" stroke="#29235c" points="73.66,-221.39 73.66,-281.39 415.66,-281.39 415.66,-221.39 73.66,-221.39"/>
<text text-anchor="start" x="84.66" y="-241.59" font-family="Helvetica,sans-Serif" font-size="32.00" fill="#29235c">position_id &#160;&#160;&#160;</text>
<text text-anchor="start" x="370.88" y="-242.59" font-family="Helvetica,sans-Serif" font-style="italic" font-size="32.00" fill="#29235c">int</text>
<polygon fill="none" stroke="#29235c" stroke-width="2" points="72.66,-220.39 72.66,-342.39 416.66,-342.39 416.66,-220.39 72.66,-220.39"/>
</g>
<!-- sop_positions&#45;&gt;positions -->
<!-- sop_positions&#45;&gt;positions -->
<g id="edge4" class="edge">
<title>sop_positions:e&#45;&gt;positions:w</title>
<path fill="none" stroke="#29235c" stroke-width="3" d="M416.66,-251.39C506.1,-251.39 509.43,-340.21 592.3,-346.98"/>
<polygon fill="#29235c" stroke="#29235c" stroke-width="3" points="592.4,-350.49 602.53,-347.39 592.68,-343.49 592.4,-350.49"/>
<text text-anchor="middle" x="593.64" y="-356.99" font-family="Helvetica,sans-Serif" font-size="32.00" fill="#29235c">1</text>
<text text-anchor="middle" x="410.44" y="-260.99" font-family="Helvetica,sans-Serif" font-size="32.00" fill="#29235c">*</text>
</g>
<!-- spk_positions -->
<g id="spk_positions" class="node">
<title>spk_positions</title>
<ellipse fill="none" stroke="black" stroke-width="0" cx="244.66" cy="-88.39" rx="243.49" ry="87.86"/>
<polygon fill="#1d71b8" stroke="transparent" points="74.66,-88.39 74.66,-148.39 414.66,-148.39 414.66,-88.39 74.66,-88.39"/>
<polygon fill="none" stroke="#29235c" points="74.66,-88.39 74.66,-148.39 414.66,-148.39 414.66,-88.39 74.66,-88.39"/>
<text text-anchor="start" x="85.5" y="-109.59" font-family="Helvetica,sans-Serif" font-weight="bold" font-size="32.00" fill="#ffffff"> &#160;&#160;&#160;&#160;&#160;&#160;spk_positions &#160;&#160;&#160;&#160;&#160;&#160;</text>
<polygon fill="#e7e2dd" stroke="transparent" points="74.66,-28.39 74.66,-88.39 414.66,-88.39 414.66,-28.39 74.66,-28.39"/>
<polygon fill="none" stroke="#29235c" points="74.66,-28.39 74.66,-88.39 414.66,-88.39 414.66,-28.39 74.66,-28.39"/>
<text text-anchor="start" x="85.66" y="-48.59" font-family="Helvetica,sans-Serif" font-size="32.00" fill="#29235c">position_id &#160;&#160;&#160;</text>
<text text-anchor="start" x="369.88" y="-49.59" font-family="Helvetica,sans-Serif" font-style="italic" font-size="32.00" fill="#29235c">int</text>
<polygon fill="none" stroke="#29235c" stroke-width="2" points="73.66,-27.39 73.66,-149.39 415.66,-149.39 415.66,-27.39 73.66,-27.39"/>
</g>
<!-- spk_positions&#45;&gt;positions -->
<!-- spk_positions&#45;&gt;positions -->
<g id="edge6" class="edge">
<title>spk_positions:e&#45;&gt;positions:w</title>
<path fill="none" stroke="#29235c" stroke-width="3" d="M415.66,-58.39C565.03,-58.39 455.01,-334 592.22,-346.92"/>
<polygon fill="#29235c" stroke="#29235c" stroke-width="3" points="592.38,-350.43 602.53,-347.39 592.7,-343.44 592.38,-350.43"/>
<text text-anchor="middle" x="611.43" y="-356.99" font-family="Helvetica,sans-Serif" font-size="32.00" fill="#29235c">1</text>
<text text-anchor="middle" x="409.44" y="-29.59" font-family="Helvetica,sans-Serif" font-size="32.00" fill="#29235c">*</text>
</g>
<!-- statuses -->
<g id="statuses" class="node">
<title>statuses</title>
<ellipse fill="none" stroke="black" stroke-width="0" cx="244.66" cy="-667.39" rx="190.42" ry="87.86"/>
<polygon fill="#1d71b8" stroke="transparent" points="112.66,-667.39 112.66,-727.39 377.66,-727.39 377.66,-667.39 112.66,-667.39"/>
<polygon fill="none" stroke="#29235c" points="112.66,-667.39 112.66,-727.39 377.66,-727.39 377.66,-667.39 112.66,-667.39"/>
<text text-anchor="start" x="123.33" y="-688.59" font-family="Helvetica,sans-Serif" font-weight="bold" font-size="32.00" fill="#ffffff"> &#160;&#160;&#160;&#160;&#160;&#160;statuses &#160;&#160;&#160;&#160;&#160;&#160;</text>
<polygon fill="#e7e2dd" stroke="transparent" points="112.66,-607.39 112.66,-667.39 377.66,-667.39 377.66,-607.39 112.66,-607.39"/>
<polygon fill="none" stroke="#29235c" points="112.66,-607.39 112.66,-667.39 377.66,-667.39 377.66,-607.39 112.66,-607.39"/>
<text text-anchor="start" x="123.66" y="-627.59" font-family="Helvetica,sans-Serif" font-size="32.00" fill="#29235c">position_id &#160;&#160;&#160;</text>
<text text-anchor="start" x="332.88" y="-628.59" font-family="Helvetica,sans-Serif" font-style="italic" font-size="32.00" fill="#29235c">int</text>
<polygon fill="none" stroke="#29235c" stroke-width="2" points="111.16,-606.39 111.16,-728.39 378.16,-728.39 378.16,-606.39 111.16,-606.39"/>
</g>
<!-- statuses&#45;&gt;positions -->
<!-- statuses&#45;&gt;positions -->
<g id="edge8" class="edge">
<title>statuses:e&#45;&gt;positions:w</title>
<path fill="none" stroke="#29235c" stroke-width="3" d="M378.66,-637.39C435.92,-637.39 450.26,-613.27 489.32,-571.39 562.94,-492.43 495.62,-356.5 592.32,-347.82"/>
<polygon fill="#29235c" stroke="#29235c" stroke-width="3" points="592.69,-351.31 602.53,-347.39 592.39,-344.32 592.69,-351.31"/>
<text text-anchor="middle" x="593.64" y="-318.59" font-family="Helvetica,sans-Serif" font-size="32.00" fill="#29235c">1</text>
<text text-anchor="middle" x="372.44" y="-646.99" font-family="Helvetica,sans-Serif" font-size="32.00" fill="#29235c">*</text>
</g>
<!-- titles -->
<g id="titles" class="node">
<title>titles</title>
<ellipse fill="none" stroke="black" stroke-width="0" cx="244.66" cy="-474.39" rx="174.81" ry="87.86"/>
<polygon fill="#1d71b8" stroke="transparent" points="123.66,-474.39 123.66,-534.39 366.66,-534.39 366.66,-474.39 123.66,-474.39"/>
<polygon fill="none" stroke="#29235c" points="123.66,-474.39 123.66,-534.39 366.66,-534.39 366.66,-474.39 123.66,-474.39"/>
<text text-anchor="start" x="150.02" y="-495.59" font-family="Helvetica,sans-Serif" font-weight="bold" font-size="32.00" fill="#ffffff"> &#160;&#160;&#160;&#160;&#160;&#160;titles &#160;&#160;&#160;&#160;&#160;&#160;</text>
<polygon fill="#e7e2dd" stroke="transparent" points="123.66,-414.39 123.66,-474.39 366.66,-474.39 366.66,-414.39 123.66,-414.39"/>
<polygon fill="none" stroke="#29235c" points="123.66,-414.39 123.66,-474.39 366.66,-474.39 366.66,-414.39 123.66,-414.39"/>
<text text-anchor="start" x="134.41" y="-434.59" font-family="Helvetica,sans-Serif" font-size="32.00" fill="#29235c">position_id &#160;&#160;&#160;</text>
<text text-anchor="start" x="322.27" y="-435.59" font-family="Helvetica,sans-Serif" font-style="italic" font-size="32.00" fill="#29235c">int</text>
<polygon fill="none" stroke="#29235c" stroke-width="2" points="122.16,-413.39 122.16,-535.39 367.16,-535.39 367.16,-413.39 122.16,-413.39"/>
</g>
<!-- titles&#45;&gt;positions -->
<!-- titles&#45;&gt;positions -->
<g id="edge10" class="edge">
<title>titles:e&#45;&gt;positions:w</title>
<path fill="none" stroke="#29235c" stroke-width="3" d="M367.66,-444.39C477.07,-444.39 488.93,-353.35 592.24,-347.67"/>
<polygon fill="#29235c" stroke="#29235c" stroke-width="3" points="592.63,-351.16 602.53,-347.39 592.44,-344.16 592.63,-351.16"/>
<text text-anchor="middle" x="611.43" y="-318.59" font-family="Helvetica,sans-Serif" font-size="32.00" fill="#29235c">1</text>
<text text-anchor="middle" x="361.44" y="-453.99" font-family="Helvetica,sans-Serif" font-size="32.00" fill="#29235c">*</text>
</g>
</g>
</svg>
