<?xml version="1.0" encoding="UTF-8" standalone="no"?>
<!DOCTYPE svg PUBLIC "-//W3C//DTD SVG 1.1//EN"
 "http://www.w3.org/Graphics/SVG/1.1/DTD/svg11.dtd">
<!-- Generated by graphviz version 2.47.0 (20210316.0004)
 -->
<!-- Title: dbml Pages: 1 -->
<svg width="1621pt" height="666pt"
 viewBox="0.00 0.00 1621.49 666.07" xmlns="http://www.w3.org/2000/svg" xmlns:xlink="http://www.w3.org/1999/xlink">
<g id="graph0" class="graph" transform="scale(1 1) rotate(0) translate(4 662.07)">
<title>dbml</title>
<!-- departments -->
<g id="departments" class="node">
<title>departments</title>
<ellipse fill="none" stroke="black" stroke-width="0" cx="1353.28" cy="-287.39" rx="260.43" ry="214.92"/>
<polygon fill="#1d71b8" stroke="transparent" points="1171.28,-377.39 1171.28,-437.39 1535.28,-437.39 1535.28,-377.39 1171.28,-377.39"/>
<polygon fill="none" stroke="#29235c" points="1171.28,-377.39 1171.28,-437.39 1535.28,-437.39 1535.28,-377.39 1171.28,-377.39"/>
<text text-anchor="start" x="1202.12" y="-398.59" font-family="Helvetica,sans-Serif" font-weight="bold" font-size="32.00" fill="#ffffff"> &#160;&#160;&#160;&#160;&#160;&#160;departments &#160;&#160;&#160;&#160;&#160;&#160;</text>
<polygon fill="#e7e2dd" stroke="transparent" points="1171.28,-317.39 1171.28,-377.39 1535.28,-377.39 1535.28,-317.39 1171.28,-317.39"/>
<polygon fill="none" stroke="#29235c" points="1171.28,-317.39 1171.28,-377.39 1535.28,-377.39 1535.28,-317.39 1171.28,-317.39"/>
<text text-anchor="start" x="1182.28" y="-338.59" font-family="Helvetica,sans-Serif" font-weight="bold" font-size="32.00" fill="#29235c">id</text>
<text text-anchor="start" x="1207.17" y="-338.59" font-family="Helvetica,sans-Serif" font-size="32.00" fill="#29235c"> &#160;&#160;&#160;</text>
<text text-anchor="start" x="1490.5" y="-338.59" font-family="Helvetica,sans-Serif" font-style="italic" font-size="32.00" fill="#29235c">int</text>
<polygon fill="#e7e2dd" stroke="transparent" points="1171.28,-257.39 1171.28,-317.39 1535.28,-317.39 1535.28,-257.39 1171.28,-257.39"/>
<polygon fill="none" stroke="#29235c" points="1171.28,-257.39 1171.28,-317.39 1535.28,-317.39 1535.28,-257.39 1171.28,-257.39"/>
<text text-anchor="start" x="1182.28" y="-277.59" font-family="Helvetica,sans-Serif" font-size="32.00" fill="#29235c">name &#160;&#160;&#160;</text>
<text text-anchor="start" x="1378.51" y="-278.59" font-family="Helvetica,sans-Serif" font-style="italic" font-size="32.00" fill="#29235c">varchar</text>
<text text-anchor="start" x="1485.19" y="-278.59" font-family="Helvetica,sans-Serif" font-size="32.00" fill="#29235c"> </text>
<text text-anchor="start" x="1494.08" y="-278.59" font-family="Helvetica,sans-Serif" font-weight="bold" font-size="32.00" fill="#29235c">(!)</text>
<polygon fill="#e7e2dd" stroke="transparent" points="1171.28,-197.39 1171.28,-257.39 1535.28,-257.39 1535.28,-197.39 1171.28,-197.39"/>
<polygon fill="none" stroke="#29235c" points="1171.28,-197.39 1171.28,-257.39 1535.28,-257.39 1535.28,-197.39 1171.28,-197.39"/>
<text text-anchor="start" x="1182.28" y="-217.59" font-family="Helvetica,sans-Serif" font-size="32.00" fill="#29235c">created_at &#160;&#160;&#160;</text>
<text text-anchor="start" x="1376.72" y="-218.59" font-family="Helvetica,sans-Serif" font-style="italic" font-size="32.00" fill="#29235c">timestamp</text>
<polygon fill="#e7e2dd" stroke="transparent" points="1171.28,-137.39 1171.28,-197.39 1535.28,-197.39 1535.28,-137.39 1171.28,-137.39"/>
<polygon fill="none" stroke="#29235c" points="1171.28,-137.39 1171.28,-197.39 1535.28,-197.39 1535.28,-137.39 1171.28,-137.39"/>
<text text-anchor="start" x="1181.94" y="-157.59" font-family="Helvetica,sans-Serif" font-size="32.00" fill="#29235c">updated_at &#160;&#160;&#160;</text>
<text text-anchor="start" x="1377" y="-158.59" font-family="Helvetica,sans-Serif" font-style="italic" font-size="32.00" fill="#29235c">timestamp</text>
<polygon fill="none" stroke="#29235c" stroke-width="2" points="1170.28,-136.39 1170.28,-438.39 1536.28,-438.39 1536.28,-136.39 1170.28,-136.39"/>
</g>
<!-- positions -->
<g id="positions" class="node">
<title>positions</title>
<ellipse fill="none" stroke="black" stroke-width="0" cx="796.85" cy="-257.39" rx="260.43" ry="257.27"/>
<polygon fill="#1d71b8" stroke="transparent" points="614.85,-377.39 614.85,-437.39 978.85,-437.39 978.85,-377.39 614.85,-377.39"/>
<polygon fill="none" stroke="#29235c" points="614.85,-377.39 614.85,-437.39 978.85,-437.39 978.85,-377.39 614.85,-377.39"/>
<text text-anchor="start" x="671.47" y="-398.59" font-family="Helvetica,sans-Serif" font-weight="bold" font-size="32.00" fill="#ffffff"> &#160;&#160;&#160;&#160;&#160;&#160;positions &#160;&#160;&#160;&#160;&#160;&#160;</text>
<polygon fill="#e7e2dd" stroke="transparent" points="614.85,-317.39 614.85,-377.39 978.85,-377.39 978.85,-317.39 614.85,-317.39"/>
<polygon fill="none" stroke="#29235c" points="614.85,-317.39 614.85,-377.39 978.85,-377.39 978.85,-317.39 614.85,-317.39"/>
<text text-anchor="start" x="625.85" y="-338.59" font-family="Helvetica,sans-Serif" font-weight="bold" font-size="32.00" fill="#29235c">id</text>
<text text-anchor="start" x="650.74" y="-338.59" font-family="Helvetica,sans-Serif" font-size="32.00" fill="#29235c"> &#160;&#160;&#160;</text>
<text text-anchor="start" x="934.06" y="-338.59" font-family="Helvetica,sans-Serif" font-style="italic" font-size="32.00" fill="#29235c">int</text>
<polygon fill="#e7e2dd" stroke="transparent" points="614.85,-257.39 614.85,-317.39 978.85,-317.39 978.85,-257.39 614.85,-257.39"/>
<polygon fill="none" stroke="#29235c" points="614.85,-257.39 614.85,-317.39 978.85,-317.39 978.85,-257.39 614.85,-257.39"/>
<text text-anchor="start" x="625.85" y="-277.59" font-family="Helvetica,sans-Serif" font-size="32.00" fill="#29235c">name &#160;&#160;&#160;</text>
<text text-anchor="start" x="822.08" y="-278.59" font-family="Helvetica,sans-Serif" font-style="italic" font-size="32.00" fill="#29235c">varchar</text>
<text text-anchor="start" x="928.76" y="-278.59" font-family="Helvetica,sans-Serif" font-size="32.00" fill="#29235c"> </text>
<text text-anchor="start" x="937.65" y="-278.59" font-family="Helvetica,sans-Serif" font-weight="bold" font-size="32.00" fill="#29235c">(!)</text>
<polygon fill="#e7e2dd" stroke="transparent" points="614.85,-197.39 614.85,-257.39 978.85,-257.39 978.85,-197.39 614.85,-197.39"/>
<polygon fill="none" stroke="#29235c" points="614.85,-197.39 614.85,-257.39 978.85,-257.39 978.85,-197.39 614.85,-197.39"/>
<text text-anchor="start" x="625.85" y="-217.59" font-family="Helvetica,sans-Serif" font-size="32.00" fill="#29235c">department_id &#160;&#160;&#160;</text>
<text text-anchor="start" x="934.06" y="-218.59" font-family="Helvetica,sans-Serif" font-style="italic" font-size="32.00" fill="#29235c">int</text>
<polygon fill="#e7e2dd" stroke="transparent" points="614.85,-137.39 614.85,-197.39 978.85,-197.39 978.85,-137.39 614.85,-137.39"/>
<polygon fill="none" stroke="#29235c" points="614.85,-137.39 614.85,-197.39 978.85,-197.39 978.85,-137.39 614.85,-137.39"/>
<text text-anchor="start" x="625.85" y="-157.59" font-family="Helvetica,sans-Serif" font-size="32.00" fill="#29235c">created_at &#160;&#160;&#160;</text>
<text text-anchor="start" x="820.29" y="-158.59" font-family="Helvetica,sans-Serif" font-style="italic" font-size="32.00" fill="#29235c">timestamp</text>
<polygon fill="#e7e2dd" stroke="transparent" points="614.85,-77.39 614.85,-137.39 978.85,-137.39 978.85,-77.39 614.85,-77.39"/>
<polygon fill="none" stroke="#29235c" points="614.85,-77.39 614.85,-137.39 978.85,-137.39 978.85,-77.39 614.85,-77.39"/>
<text text-anchor="start" x="625.51" y="-97.59" font-family="Helvetica,sans-Serif" font-size="32.00" fill="#29235c">updated_at &#160;&#160;&#160;</text>
<text text-anchor="start" x="820.57" y="-98.59" font-family="Helvetica,sans-Serif" font-style="italic" font-size="32.00" fill="#29235c">timestamp</text>
<polygon fill="none" stroke="#29235c" stroke-width="2" points="613.85,-76.39 613.85,-438.39 979.85,-438.39 979.85,-76.39 613.85,-76.39"/>
</g>
<!-- positions&#45;&gt;departments -->
<!-- positions&#45;&gt;departments -->
<g id="edge2" class="edge">
<title>positions:e&#45;&gt;departments:w</title>
<path fill="none" stroke="#29235c" stroke-width="3" d="M979.85,-227.39C1076.37,-227.39 1070.78,-339.1 1160.12,-346.95"/>
<polygon fill="#29235c" stroke="#29235c" stroke-width="3" points="1160.14,-350.46 1170.28,-347.39 1160.44,-343.46 1160.14,-350.46"/>
<text text-anchor="middle" x="1161.38" y="-356.99" font-family="Helvetica,sans-Serif" font-size="32.00" fill="#29235c">1</text>
<text text-anchor="middle" x="986.07" y="-198.59" font-family="Helvetica,sans-Serif" font-size="32.00" fill="#29235c">*</text>
</g>
<!-- backlog_items -->
<g id="backlog_items" class="node">
<title>backlog_items</title>
<ellipse fill="none" stroke="black" stroke-width="0" cx="250.32" cy="-570.39" rx="250.13" ry="87.86"/>
<polygon fill="#1d71b8" stroke="transparent" points="75.32,-570.39 75.32,-630.39 425.32,-630.39 425.32,-570.39 75.32,-570.39"/>
<polygon fill="none" stroke="#29235c" points="75.32,-570.39 75.32,-630.39 425.32,-630.39 425.32,-570.39 75.32,-570.39"/>
<text text-anchor="start" x="85.83" y="-591.59" font-family="Helvetica,sans-Serif" font-weight="bold" font-size="32.00" fill="#ffffff"> &#160;&#160;&#160;&#160;&#160;&#160;backlog_items &#160;&#160;&#160;&#160;&#160;&#160;</text>
<polygon fill="#e7e2dd" stroke="transparent" points="75.32,-510.39 75.32,-570.39 425.32,-570.39 425.32,-510.39 75.32,-510.39"/>
<polygon fill="none" stroke="#29235c" points="75.32,-510.39 75.32,-570.39 425.32,-570.39 425.32,-510.39 75.32,-510.39"/>
<text text-anchor="start" x="86.32" y="-530.59" font-family="Helvetica,sans-Serif" font-size="32.00" fill="#29235c">position_id &#160;&#160;&#160;</text>
<text text-anchor="start" x="380.53" y="-531.59" font-family="Helvetica,sans-Serif" font-style="italic" font-size="32.00" fill="#29235c">int</text>
<polygon fill="none" stroke="#29235c" stroke-width="2" points="74.32,-509.39 74.32,-631.39 426.32,-631.39 426.32,-509.39 74.32,-509.39"/>
</g>
<!-- backlog_items&#45;&gt;positions -->
<!-- backlog_items&#45;&gt;positions -->
<g id="edge4" class="edge">
<title>backlog_items:e&#45;&gt;positions:w</title>
<path fill="none" stroke="#29235c" stroke-width="3" d="M426.32,-540.39C542.41,-540.39 497.13,-358.53 603.77,-347.87"/>
<polygon fill="#29235c" stroke="#29235c" stroke-width="3" points="604.03,-351.37 613.85,-347.39 603.69,-344.37 604.03,-351.37"/>
<text text-anchor="middle" x="604.95" y="-356.99" font-family="Helvetica,sans-Serif" font-size="32.00" fill="#29235c">1</text>
<text text-anchor="middle" x="420.09" y="-549.99" font-family="Helvetica,sans-Serif" font-size="32.00" fill="#29235c">*</text>
</g>
<!-- statuses -->
<g id="statuses" class="node">
<title>statuses</title>
<ellipse fill="none" stroke="black" stroke-width="0" cx="250.32" cy="-377.39" rx="190.42" ry="87.86"/>
<polygon fill="#1d71b8" stroke="transparent" points="118.32,-377.39 118.32,-437.39 383.32,-437.39 383.32,-377.39 118.32,-377.39"/>
<polygon fill="none" stroke="#29235c" points="118.32,-377.39 118.32,-437.39 383.32,-437.39 383.32,-377.39 118.32,-377.39"/>
<text text-anchor="start" x="128.99" y="-398.59" font-family="Helvetica,sans-Serif" font-weight="bold" font-size="32.00" fill="#ffffff"> &#160;&#160;&#160;&#160;&#160;&#160;statuses &#160;&#160;&#160;&#160;&#160;&#160;</text>
<polygon fill="#e7e2dd" stroke="transparent" points="118.32,-317.39 118.32,-377.39 383.32,-377.39 383.32,-317.39 118.32,-317.39"/>
<polygon fill="none" stroke="#29235c" points="118.32,-317.39 118.32,-377.39 383.32,-377.39 383.32,-317.39 118.32,-317.39"/>
<text text-anchor="start" x="129.32" y="-337.59" font-family="Helvetica,sans-Serif" font-size="32.00" fill="#29235c">position_id &#160;&#160;&#160;</text>
<text text-anchor="start" x="338.53" y="-338.59" font-family="Helvetica,sans-Serif" font-style="italic" font-size="32.00" fill="#29235c">int</text>
<polygon fill="none" stroke="#29235c" stroke-width="2" points="116.82,-316.39 116.82,-438.39 383.82,-438.39 383.82,-316.39 116.82,-316.39"/>
</g>
<!-- statuses&#45;&gt;positions -->
<!-- statuses&#45;&gt;positions -->
<g id="edge6" class="edge">
<title>statuses:e&#45;&gt;positions:w</title>
<path fill="none" stroke="#29235c" stroke-width="3" d="M384.32,-347.39C482.84,-347.39 510,-347.39 603.65,-347.39"/>
<polygon fill="#29235c" stroke="#29235c" stroke-width="3" points="603.85,-350.89 613.85,-347.39 603.85,-343.89 603.85,-350.89"/>
<text text-anchor="middle" x="622.74" y="-356.99" font-family="Helvetica,sans-Serif" font-size="32.00" fill="#29235c">1</text>
<text text-anchor="middle" x="378.09" y="-356.99" font-family="Helvetica,sans-Serif" font-size="32.00" fill="#29235c">*</text>
</g>
<!-- titles -->
<g id="titles" class="node">
<title>titles</title>
<ellipse fill="none" stroke="black" stroke-width="0" cx="250.32" cy="-184.39" rx="174.81" ry="87.86"/>
<polygon fill="#1d71b8" stroke="transparent" points="129.32,-184.39 129.32,-244.39 372.32,-244.39 372.32,-184.39 129.32,-184.39"/>
<polygon fill="none" stroke="#29235c" points="129.32,-184.39 129.32,-244.39 372.32,-244.39 372.32,-184.39 129.32,-184.39"/>
<text text-anchor="start" x="155.68" y="-205.59" font-family="Helvetica,sans-Serif" font-weight="bold" font-size="32.00" fill="#ffffff"> &#160;&#160;&#160;&#160;&#160;&#160;titles &#160;&#160;&#160;&#160;&#160;&#160;</text>
<polygon fill="#e7e2dd" stroke="transparent" points="129.32,-124.39 129.32,-184.39 372.32,-184.39 372.32,-124.39 129.32,-124.39"/>
<polygon fill="none" stroke="#29235c" points="129.32,-124.39 129.32,-184.39 372.32,-184.39 372.32,-124.39 129.32,-124.39"/>
<text text-anchor="start" x="140.07" y="-144.59" font-family="Helvetica,sans-Serif" font-size="32.00" fill="#29235c">position_id &#160;&#160;&#160;</text>
<text text-anchor="start" x="327.92" y="-145.59" font-family="Helvetica,sans-Serif" font-style="italic" font-size="32.00" fill="#29235c">int</text>
<polygon fill="none" stroke="#29235c" stroke-width="2" points="127.82,-123.39 127.82,-245.39 372.82,-245.39 372.82,-123.39 127.82,-123.39"/>
</g>
<!-- titles&#45;&gt;positions -->
<!-- titles&#45;&gt;positions -->
<g id="edge8" class="edge">
<title>titles:e&#45;&gt;positions:w</title>
<path fill="none" stroke="#29235c" stroke-width="3" d="M373.32,-154.39C506.9,-154.39 478.38,-337.71 603.73,-347.02"/>
<polygon fill="#29235c" stroke="#29235c" stroke-width="3" points="603.73,-350.52 613.85,-347.39 603.98,-343.53 603.73,-350.52"/>
<text text-anchor="middle" x="604.95" y="-318.59" font-family="Helvetica,sans-Serif" font-size="32.00" fill="#29235c">1</text>
<text text-anchor="middle" x="367.09" y="-125.59" font-family="Helvetica,sans-Serif" font-size="32.00" fill="#29235c">*</text>
</g>
</g>
</svg>
