<?xml version="1.0" encoding="UTF-8" standalone="no"?>
<!DOCTYPE svg PUBLIC "-//W3C//DTD SVG 1.1//EN"
 "http://www.w3.org/Graphics/SVG/1.1/DTD/svg11.dtd">
<!-- Generated by graphviz version 2.47.0 (20210316.0004)
 -->
<!-- Title: dbml Pages: 1 -->
<svg width="1610pt" height="1148pt"
 viewBox="0.00 0.00 1610.18 1148.36" xmlns="http://www.w3.org/2000/svg" xmlns:xlink="http://www.w3.org/1999/xlink">
<g id="graph0" class="graph" transform="scale(1 1) rotate(0) translate(4 1144.36)">
<title>dbml</title>
<!-- departments -->
<g id="departments" class="node">
<title>departments</title>
<ellipse fill="none" stroke="black" stroke-width="0" cx="1341.96" cy="-479.68" rx="260.43" ry="214.92"/>
<polygon fill="#1d71b8" stroke="transparent" points="1159.96,-569.68 1159.96,-629.68 1523.96,-629.68 1523.96,-569.68 1159.96,-569.68"/>
<polygon fill="none" stroke="#29235c" points="1159.96,-569.68 1159.96,-629.68 1523.96,-629.68 1523.96,-569.68 1159.96,-569.68"/>
<text text-anchor="start" x="1190.8" y="-590.88" font-family="Helvetica,sans-Serif" font-weight="bold" font-size="32.00" fill="#ffffff"> &#160;&#160;&#160;&#160;&#160;&#160;departments &#160;&#160;&#160;&#160;&#160;&#160;</text>
<polygon fill="#e7e2dd" stroke="transparent" points="1159.96,-509.68 1159.96,-569.68 1523.96,-569.68 1523.96,-509.68 1159.96,-509.68"/>
<polygon fill="none" stroke="#29235c" points="1159.96,-509.68 1159.96,-569.68 1523.96,-569.68 1523.96,-509.68 1159.96,-509.68"/>
<text text-anchor="start" x="1170.96" y="-530.88" font-family="Helvetica,sans-Serif" font-weight="bold" font-size="32.00" fill="#29235c">id</text>
<text text-anchor="start" x="1195.85" y="-530.88" font-family="Helvetica,sans-Serif" font-size="32.00" fill="#29235c"> &#160;&#160;&#160;</text>
<text text-anchor="start" x="1479.18" y="-530.88" font-family="Helvetica,sans-Serif" font-style="italic" font-size="32.00" fill="#29235c">int</text>
<polygon fill="#e7e2dd" stroke="transparent" points="1159.96,-449.68 1159.96,-509.68 1523.96,-509.68 1523.96,-449.68 1159.96,-449.68"/>
<polygon fill="none" stroke="#29235c" points="1159.96,-449.68 1159.96,-509.68 1523.96,-509.68 1523.96,-449.68 1159.96,-449.68"/>
<text text-anchor="start" x="1170.96" y="-469.88" font-family="Helvetica,sans-Serif" font-size="32.00" fill="#29235c">name &#160;&#160;&#160;</text>
<text text-anchor="start" x="1367.2" y="-470.88" font-family="Helvetica,sans-Serif" font-style="italic" font-size="32.00" fill="#29235c">varchar</text>
<text text-anchor="start" x="1473.87" y="-470.88" font-family="Helvetica,sans-Serif" font-size="32.00" fill="#29235c"> </text>
<text text-anchor="start" x="1482.77" y="-470.88" font-family="Helvetica,sans-Serif" font-weight="bold" font-size="32.00" fill="#29235c">(!)</text>
<polygon fill="#e7e2dd" stroke="transparent" points="1159.96,-389.68 1159.96,-449.68 1523.96,-449.68 1523.96,-389.68 1159.96,-389.68"/>
<polygon fill="none" stroke="#29235c" points="1159.96,-389.68 1159.96,-449.68 1523.96,-449.68 1523.96,-389.68 1159.96,-389.68"/>
<text text-anchor="start" x="1170.96" y="-409.88" font-family="Helvetica,sans-Serif" font-size="32.00" fill="#29235c">created_at &#160;&#160;&#160;</text>
<text text-anchor="start" x="1365.41" y="-410.88" font-family="Helvetica,sans-Serif" font-style="italic" font-size="32.00" fill="#29235c">timestamp</text>
<polygon fill="#e7e2dd" stroke="transparent" points="1159.96,-329.68 1159.96,-389.68 1523.96,-389.68 1523.96,-329.68 1159.96,-329.68"/>
<polygon fill="none" stroke="#29235c" points="1159.96,-329.68 1159.96,-389.68 1523.96,-389.68 1523.96,-329.68 1159.96,-329.68"/>
<text text-anchor="start" x="1170.63" y="-349.88" font-family="Helvetica,sans-Serif" font-size="32.00" fill="#29235c">updated_at &#160;&#160;&#160;</text>
<text text-anchor="start" x="1365.68" y="-350.88" font-family="Helvetica,sans-Serif" font-style="italic" font-size="32.00" fill="#29235c">timestamp</text>
<polygon fill="none" stroke="#29235c" stroke-width="2" points="1158.96,-328.68 1158.96,-630.68 1524.96,-630.68 1524.96,-328.68 1158.96,-328.68"/>
</g>
<!-- positions -->
<g id="positions" class="node">
<title>positions</title>
<ellipse fill="none" stroke="black" stroke-width="0" cx="785.53" cy="-449.68" rx="260.43" ry="257.27"/>
<polygon fill="#1d71b8" stroke="transparent" points="603.53,-569.68 603.53,-629.68 967.53,-629.68 967.53,-569.68 603.53,-569.68"/>
<polygon fill="none" stroke="#29235c" points="603.53,-569.68 603.53,-629.68 967.53,-629.68 967.53,-569.68 603.53,-569.68"/>
<text text-anchor="start" x="660.16" y="-590.88" font-family="Helvetica,sans-Serif" font-weight="bold" font-size="32.00" fill="#ffffff"> &#160;&#160;&#160;&#160;&#160;&#160;positions &#160;&#160;&#160;&#160;&#160;&#160;</text>
<polygon fill="#e7e2dd" stroke="transparent" points="603.53,-509.68 603.53,-569.68 967.53,-569.68 967.53,-509.68 603.53,-509.68"/>
<polygon fill="none" stroke="#29235c" points="603.53,-509.68 603.53,-569.68 967.53,-569.68 967.53,-509.68 603.53,-509.68"/>
<text text-anchor="start" x="614.53" y="-530.88" font-family="Helvetica,sans-Serif" font-weight="bold" font-size="32.00" fill="#29235c">id</text>
<text text-anchor="start" x="639.42" y="-530.88" font-family="Helvetica,sans-Serif" font-size="32.00" fill="#29235c"> &#160;&#160;&#160;</text>
<text text-anchor="start" x="922.75" y="-530.88" font-family="Helvetica,sans-Serif" font-style="italic" font-size="32.00" fill="#29235c">int</text>
<polygon fill="#e7e2dd" stroke="transparent" points="603.53,-449.68 603.53,-509.68 967.53,-509.68 967.53,-449.68 603.53,-449.68"/>
<polygon fill="none" stroke="#29235c" points="603.53,-449.68 603.53,-509.68 967.53,-509.68 967.53,-449.68 603.53,-449.68"/>
<text text-anchor="start" x="614.53" y="-469.88" font-family="Helvetica,sans-Serif" font-size="32.00" fill="#29235c">name &#160;&#160;&#160;</text>
<text text-anchor="start" x="810.77" y="-470.88" font-family="Helvetica,sans-Serif" font-style="italic" font-size="32.00" fill="#29235c">varchar</text>
<text text-anchor="start" x="917.44" y="-470.88" font-family="Helvetica,sans-Serif" font-size="32.00" fill="#29235c"> </text>
<text text-anchor="start" x="926.33" y="-470.88" font-family="Helvetica,sans-Serif" font-weight="bold" font-size="32.00" fill="#29235c">(!)</text>
<polygon fill="#e7e2dd" stroke="transparent" points="603.53,-389.68 603.53,-449.68 967.53,-449.68 967.53,-389.68 603.53,-389.68"/>
<polygon fill="none" stroke="#29235c" points="603.53,-389.68 603.53,-449.68 967.53,-449.68 967.53,-389.68 603.53,-389.68"/>
<text text-anchor="start" x="614.53" y="-409.88" font-family="Helvetica,sans-Serif" font-size="32.00" fill="#29235c">department_id &#160;&#160;&#160;</text>
<text text-anchor="start" x="922.75" y="-410.88" font-family="Helvetica,sans-Serif" font-style="italic" font-size="32.00" fill="#29235c">int</text>
<polygon fill="#e7e2dd" stroke="transparent" points="603.53,-329.68 603.53,-389.68 967.53,-389.68 967.53,-329.68 603.53,-329.68"/>
<polygon fill="none" stroke="#29235c" points="603.53,-329.68 603.53,-389.68 967.53,-389.68 967.53,-329.68 603.53,-329.68"/>
<text text-anchor="start" x="614.53" y="-349.88" font-family="Helvetica,sans-Serif" font-size="32.00" fill="#29235c">created_at &#160;&#160;&#160;</text>
<text text-anchor="start" x="808.97" y="-350.88" font-family="Helvetica,sans-Serif" font-style="italic" font-size="32.00" fill="#29235c">timestamp</text>
<polygon fill="#e7e2dd" stroke="transparent" points="603.53,-269.68 603.53,-329.68 967.53,-329.68 967.53,-269.68 603.53,-269.68"/>
<polygon fill="none" stroke="#29235c" points="603.53,-269.68 603.53,-329.68 967.53,-329.68 967.53,-269.68 603.53,-269.68"/>
<text text-anchor="start" x="614.2" y="-289.88" font-family="Helvetica,sans-Serif" font-size="32.00" fill="#29235c">updated_at &#160;&#160;&#160;</text>
<text text-anchor="start" x="809.25" y="-290.88" font-family="Helvetica,sans-Serif" font-style="italic" font-size="32.00" fill="#29235c">timestamp</text>
<polygon fill="none" stroke="#29235c" stroke-width="2" points="602.53,-268.68 602.53,-630.68 968.53,-630.68 968.53,-268.68 602.53,-268.68"/>
</g>
<!-- positions&#45;&gt;departments -->
<!-- positions&#45;&gt;departments -->
<g id="edge2" class="edge">
<title>positions:e&#45;&gt;departments:w</title>
<path fill="none" stroke="#29235c" stroke-width="3" d="M968.53,-419.68C1065.05,-419.68 1059.47,-531.39 1148.81,-539.25"/>
<polygon fill="#29235c" stroke="#29235c" stroke-width="3" points="1148.82,-542.75 1158.96,-539.68 1149.12,-535.76 1148.82,-542.75"/>
<text text-anchor="middle" x="1150.07" y="-549.28" font-family="Helvetica,sans-Serif" font-size="32.00" fill="#29235c">1</text>
<text text-anchor="middle" x="974.76" y="-429.28" font-family="Helvetica,sans-Serif" font-size="32.00" fill="#29235c">*</text>
</g>
<!-- sop_positions -->
<g id="sop_positions" class="node">
<title>sop_positions</title>
<ellipse fill="none" stroke="black" stroke-width="0" cx="244.66" cy="-1052.68" rx="244.82" ry="87.86"/>
<polygon fill="#1d71b8" stroke="transparent" points="73.66,-1052.68 73.66,-1112.68 415.66,-1112.68 415.66,-1052.68 73.66,-1052.68"/>
<polygon fill="none" stroke="#29235c" points="73.66,-1052.68 73.66,-1112.68 415.66,-1112.68 415.66,-1052.68 73.66,-1052.68"/>
<text text-anchor="start" x="84.6" y="-1073.88" font-family="Helvetica,sans-Serif" font-weight="bold" font-size="32.00" fill="#ffffff"> &#160;&#160;&#160;&#160;&#160;&#160;sop_positions &#160;&#160;&#160;&#160;&#160;&#160;</text>
<polygon fill="#e7e2dd" stroke="transparent" points="73.66,-992.68 73.66,-1052.68 415.66,-1052.68 415.66,-992.68 73.66,-992.68"/>
<polygon fill="none" stroke="#29235c" points="73.66,-992.68 73.66,-1052.68 415.66,-1052.68 415.66,-992.68 73.66,-992.68"/>
<text text-anchor="start" x="84.66" y="-1012.88" font-family="Helvetica,sans-Serif" font-size="32.00" fill="#29235c">position_id &#160;&#160;&#160;</text>
<text text-anchor="start" x="370.88" y="-1013.88" font-family="Helvetica,sans-Serif" font-style="italic" font-size="32.00" fill="#29235c">int</text>
<polygon fill="none" stroke="#29235c" stroke-width="2" points="72.66,-991.68 72.66,-1113.68 416.66,-1113.68 416.66,-991.68 72.66,-991.68"/>
</g>
<!-- sop_positions&#45;&gt;positions -->
<!-- sop_positions&#45;&gt;positions -->
<g id="edge4" class="edge">
<title>sop_positions:e&#45;&gt;positions:w</title>
<path fill="none" stroke="#29235c" stroke-width="3" d="M416.66,-1022.68C643.19,-1022.68 380.7,-554.19 592.43,-540.01"/>
<polygon fill="#29235c" stroke="#29235c" stroke-width="3" points="592.65,-543.5 602.53,-539.68 592.42,-536.51 592.65,-543.5"/>
<text text-anchor="middle" x="593.64" y="-549.28" font-family="Helvetica,sans-Serif" font-size="32.00" fill="#29235c">1</text>
<text text-anchor="middle" x="410.44" y="-1032.28" font-family="Helvetica,sans-Serif" font-size="32.00" fill="#29235c">*</text>
</g>
<!-- spk_positions -->
<g id="spk_positions" class="node">
<title>spk_positions</title>
<ellipse fill="none" stroke="black" stroke-width="0" cx="244.66" cy="-859.68" rx="243.49" ry="87.86"/>
<polygon fill="#1d71b8" stroke="transparent" points="74.66,-859.68 74.66,-919.68 414.66,-919.68 414.66,-859.68 74.66,-859.68"/>
<polygon fill="none" stroke="#29235c" points="74.66,-859.68 74.66,-919.68 414.66,-919.68 414.66,-859.68 74.66,-859.68"/>
<text text-anchor="start" x="85.5" y="-880.88" font-family="Helvetica,sans-Serif" font-weight="bold" font-size="32.00" fill="#ffffff"> &#160;&#160;&#160;&#160;&#160;&#160;spk_positions &#160;&#160;&#160;&#160;&#160;&#160;</text>
<polygon fill="#e7e2dd" stroke="transparent" points="74.66,-799.68 74.66,-859.68 414.66,-859.68 414.66,-799.68 74.66,-799.68"/>
<polygon fill="none" stroke="#29235c" points="74.66,-799.68 74.66,-859.68 414.66,-859.68 414.66,-799.68 74.66,-799.68"/>
<text text-anchor="start" x="85.66" y="-819.88" font-family="Helvetica,sans-Serif" font-size="32.00" fill="#29235c">position_id &#160;&#160;&#160;</text>
<text text-anchor="start" x="369.88" y="-820.88" font-family="Helvetica,sans-Serif" font-style="italic" font-size="32.00" fill="#29235c">int</text>
<polygon fill="none" stroke="#29235c" stroke-width="2" points="73.66,-798.68 73.66,-920.68 415.66,-920.68 415.66,-798.68 73.66,-798.68"/>
</g>
<!-- spk_positions&#45;&gt;positions -->
<!-- spk_positions&#45;&gt;positions -->
<g id="edge6" class="edge">
<title>spk_positions:e&#45;&gt;positions:w</title>
<path fill="none" stroke="#29235c" stroke-width="3" d="M415.66,-829.68C565.4,-829.68 454.67,-553.12 592.2,-540.15"/>
<polygon fill="#29235c" stroke="#29235c" stroke-width="3" points="592.7,-543.63 602.53,-539.68 592.38,-536.64 592.7,-543.63"/>
<text text-anchor="middle" x="611.43" y="-549.28" font-family="Helvetica,sans-Serif" font-size="32.00" fill="#29235c">1</text>
<text text-anchor="middle" x="409.44" y="-839.28" font-family="Helvetica,sans-Serif" font-size="32.00" fill="#29235c">*</text>
</g>
<!-- statuses -->
<g id="statuses" class="node">
<title>statuses</title>
<ellipse fill="none" stroke="black" stroke-width="0" cx="244.66" cy="-666.68" rx="190.42" ry="87.86"/>
<polygon fill="#1d71b8" stroke="transparent" points="112.66,-666.68 112.66,-726.68 377.66,-726.68 377.66,-666.68 112.66,-666.68"/>
<polygon fill="none" stroke="#29235c" points="112.66,-666.68 112.66,-726.68 377.66,-726.68 377.66,-666.68 112.66,-666.68"/>
<text text-anchor="start" x="123.33" y="-687.88" font-family="Helvetica,sans-Serif" font-weight="bold" font-size="32.00" fill="#ffffff"> &#160;&#160;&#160;&#160;&#160;&#160;statuses &#160;&#160;&#160;&#160;&#160;&#160;</text>
<polygon fill="#e7e2dd" stroke="transparent" points="112.66,-606.68 112.66,-666.68 377.66,-666.68 377.66,-606.68 112.66,-606.68"/>
<polygon fill="none" stroke="#29235c" points="112.66,-606.68 112.66,-666.68 377.66,-666.68 377.66,-606.68 112.66,-606.68"/>
<text text-anchor="start" x="123.66" y="-626.88" font-family="Helvetica,sans-Serif" font-size="32.00" fill="#29235c">position_id &#160;&#160;&#160;</text>
<text text-anchor="start" x="332.88" y="-627.88" font-family="Helvetica,sans-Serif" font-style="italic" font-size="32.00" fill="#29235c">int</text>
<polygon fill="none" stroke="#29235c" stroke-width="2" points="111.16,-605.68 111.16,-727.68 378.16,-727.68 378.16,-605.68 111.16,-605.68"/>
</g>
<!-- statuses&#45;&gt;positions -->
<!-- statuses&#45;&gt;positions -->
<g id="edge8" class="edge">
<title>statuses:e&#45;&gt;positions:w</title>
<path fill="none" stroke="#29235c" stroke-width="3" d="M378.66,-636.68C483.6,-636.68 493.54,-545.83 592.36,-539.98"/>
<polygon fill="#29235c" stroke="#29235c" stroke-width="3" points="592.64,-543.47 602.53,-539.68 592.44,-536.47 592.64,-543.47"/>
<text text-anchor="middle" x="593.64" y="-510.88" font-family="Helvetica,sans-Serif" font-size="32.00" fill="#29235c">1</text>
<text text-anchor="middle" x="372.44" y="-646.28" font-family="Helvetica,sans-Serif" font-size="32.00" fill="#29235c">*</text>
</g>
<!-- sop_jobs -->
<g id="sop_jobs" class="node">
<title>sop_jobs</title>
<ellipse fill="none" stroke="black" stroke-width="0" cx="244.66" cy="-473.68" rx="202.47" ry="87.86"/>
<polygon fill="#1d71b8" stroke="transparent" points="103.66,-473.68 103.66,-533.68 385.66,-533.68 385.66,-473.68 103.66,-473.68"/>
<polygon fill="none" stroke="#29235c" points="103.66,-473.68 103.66,-533.68 385.66,-533.68 385.66,-473.68 103.66,-473.68"/>
<text text-anchor="start" x="118.39" y="-494.88" font-family="Helvetica,sans-Serif" font-weight="bold" font-size="32.00" fill="#ffffff"> &#160;&#160;&#160;&#160;&#160;&#160;sop_jobs &#160;&#160;&#160;&#160;&#160;&#160;</text>
<polygon fill="#e7e2dd" stroke="transparent" points="103.66,-413.68 103.66,-473.68 385.66,-473.68 385.66,-413.68 103.66,-413.68"/>
<polygon fill="none" stroke="#29235c" points="103.66,-413.68 103.66,-473.68 385.66,-473.68 385.66,-413.68 103.66,-413.68"/>
<text text-anchor="start" x="114.41" y="-433.88" font-family="Helvetica,sans-Serif" font-size="32.00" fill="#29235c">position_id &#160;&#160;&#160;</text>
<text text-anchor="start" x="302.22" y="-434.88" font-family="Helvetica,sans-Serif" font-style="italic" font-size="32.00" fill="#29235c">int</text>
<text text-anchor="start" x="336" y="-434.88" font-family="Helvetica,sans-Serif" font-size="32.00" fill="#29235c"> </text>
<text text-anchor="start" x="344.9" y="-434.88" font-family="Helvetica,sans-Serif" font-weight="bold" font-size="32.00" fill="#29235c">(!)</text>
<polygon fill="none" stroke="#29235c" stroke-width="2" points="102.66,-412.68 102.66,-534.68 386.66,-534.68 386.66,-412.68 102.66,-412.68"/>
</g>
<!-- sop_jobs&#45;&gt;positions -->
<!-- sop_jobs&#45;&gt;positions -->
<g id="edge10" class="edge">
<title>sop_jobs:e&#45;&gt;positions:w</title>
<path fill="none" stroke="#29235c" stroke-width="3" d="M386.66,-443.68C488.18,-443.68 497.03,-533.41 592.39,-539.37"/>
<polygon fill="#29235c" stroke="#29235c" stroke-width="3" points="592.43,-542.87 602.53,-539.68 592.65,-535.88 592.43,-542.87"/>
<text text-anchor="middle" x="611.43" y="-510.88" font-family="Helvetica,sans-Serif" font-size="32.00" fill="#29235c">1</text>
<text text-anchor="middle" x="380.44" y="-453.28" font-family="Helvetica,sans-Serif" font-size="32.00" fill="#29235c">*</text>
</g>
<!-- spk_jobs -->
<g id="spk_jobs" class="node">
<title>spk_jobs</title>
<ellipse fill="none" stroke="black" stroke-width="0" cx="244.66" cy="-280.68" rx="195.32" ry="87.86"/>
<polygon fill="#1d71b8" stroke="transparent" points="108.66,-280.68 108.66,-340.68 380.66,-340.68 380.66,-280.68 108.66,-280.68"/>
<polygon fill="none" stroke="#29235c" points="108.66,-280.68 108.66,-340.68 380.66,-340.68 380.66,-280.68 108.66,-280.68"/>
<text text-anchor="start" x="119.28" y="-301.88" font-family="Helvetica,sans-Serif" font-weight="bold" font-size="32.00" fill="#ffffff"> &#160;&#160;&#160;&#160;&#160;&#160;spk_jobs &#160;&#160;&#160;&#160;&#160;&#160;</text>
<polygon fill="#e7e2dd" stroke="transparent" points="108.66,-220.68 108.66,-280.68 380.66,-280.68 380.66,-220.68 108.66,-220.68"/>
<polygon fill="none" stroke="#29235c" points="108.66,-220.68 108.66,-280.68 380.66,-280.68 380.66,-220.68 108.66,-220.68"/>
<text text-anchor="start" x="119.66" y="-240.88" font-family="Helvetica,sans-Serif" font-size="32.00" fill="#29235c">position_id &#160;&#160;&#160;</text>
<text text-anchor="start" x="335.88" y="-241.88" font-family="Helvetica,sans-Serif" font-style="italic" font-size="32.00" fill="#29235c">int</text>
<polygon fill="none" stroke="#29235c" stroke-width="2" points="107.66,-219.68 107.66,-341.68 381.66,-341.68 381.66,-219.68 107.66,-219.68"/>
</g>
<!-- spk_jobs&#45;&gt;positions -->
<!-- spk_jobs&#45;&gt;positions -->
<g id="edge12" class="edge">
<title>spk_jobs:e&#45;&gt;positions:w</title>
<path fill="none" stroke="#29235c" stroke-width="3" d="M381.66,-250.68C455.32,-250.68 444.33,-318.36 489.32,-376.68 540.98,-443.66 516.56,-532.08 592.26,-539.22"/>
<polygon fill="#29235c" stroke="#29235c" stroke-width="3" points="592.39,-542.73 602.53,-539.68 592.7,-535.74 592.39,-542.73"/>
<text text-anchor="middle" x="593.64" y="-549.28" font-family="Helvetica,sans-Serif" font-size="32.00" fill="#29235c">1</text>
<text text-anchor="middle" x="375.44" y="-260.28" font-family="Helvetica,sans-Serif" font-size="32.00" fill="#29235c">*</text>
</g>
<!-- titles -->
<g id="titles" class="node">
<title>titles</title>
<ellipse fill="none" stroke="black" stroke-width="0" cx="244.66" cy="-87.68" rx="174.81" ry="87.86"/>
<polygon fill="#1d71b8" stroke="transparent" points="123.66,-87.68 123.66,-147.68 366.66,-147.68 366.66,-87.68 123.66,-87.68"/>
<polygon fill="none" stroke="#29235c" points="123.66,-87.68 123.66,-147.68 366.66,-147.68 366.66,-87.68 123.66,-87.68"/>
<text text-anchor="start" x="150.02" y="-108.88" font-family="Helvetica,sans-Serif" font-weight="bold" font-size="32.00" fill="#ffffff"> &#160;&#160;&#160;&#160;&#160;&#160;titles &#160;&#160;&#160;&#160;&#160;&#160;</text>
<polygon fill="#e7e2dd" stroke="transparent" points="123.66,-27.68 123.66,-87.68 366.66,-87.68 366.66,-27.68 123.66,-27.68"/>
<polygon fill="none" stroke="#29235c" points="123.66,-27.68 123.66,-87.68 366.66,-87.68 366.66,-27.68 123.66,-27.68"/>
<text text-anchor="start" x="134.41" y="-47.88" font-family="Helvetica,sans-Serif" font-size="32.00" fill="#29235c">position_id &#160;&#160;&#160;</text>
<text text-anchor="start" x="322.27" y="-48.88" font-family="Helvetica,sans-Serif" font-style="italic" font-size="32.00" fill="#29235c">int</text>
<polygon fill="none" stroke="#29235c" stroke-width="2" points="122.16,-26.68 122.16,-148.68 367.16,-148.68 367.16,-26.68 122.16,-26.68"/>
</g>
<!-- titles&#45;&gt;positions -->
<!-- titles&#45;&gt;positions -->
<g id="edge14" class="edge">
<title>titles:e&#45;&gt;positions:w</title>
<path fill="none" stroke="#29235c" stroke-width="3" d="M367.66,-57.68C445.5,-57.68 449.44,-116.83 489.32,-183.68 572.55,-323.2 442.32,-530.54 592.25,-539.39"/>
<polygon fill="#29235c" stroke="#29235c" stroke-width="3" points="592.44,-542.9 602.53,-539.68 592.64,-535.9 592.44,-542.9"/>
<text text-anchor="middle" x="611.43" y="-549.28" font-family="Helvetica,sans-Serif" font-size="32.00" fill="#29235c">1</text>
<text text-anchor="middle" x="361.44" y="-28.88" font-family="Helvetica,sans-Serif" font-size="32.00" fill="#29235c">*</text>
</g>
</g>
</svg>
