<?xml version="1.0" encoding="UTF-8" standalone="no"?>
<!DOCTYPE svg PUBLIC "-//W3C//DTD SVG 1.1//EN"
 "http://www.w3.org/Graphics/SVG/1.1/DTD/svg11.dtd">
<!-- Generated by graphviz version 2.47.0 (20210316.0004)
 -->
<!-- Title: dbml Pages: 1 -->
<svg width="1730pt" height="1056pt"
 viewBox="0.00 0.00 1730.39 1055.77" xmlns="http://www.w3.org/2000/svg" xmlns:xlink="http://www.w3.org/1999/xlink">
<g id="graph0" class="graph" transform="scale(1 1) rotate(0) translate(4 1051.77)">
<title>dbml</title>
<!-- documents -->
<g id="documents" class="node">
<title>documents</title>
<ellipse fill="none" stroke="black" stroke-width="0" cx="905.74" cy="-257.39" rx="260.43" ry="257.27"/>
<polygon fill="#1d71b8" stroke="transparent" points="723.74,-377.39 723.74,-437.39 1087.74,-437.39 1087.74,-377.39 723.74,-377.39"/>
<polygon fill="none" stroke="#29235c" points="723.74,-377.39 723.74,-437.39 1087.74,-437.39 1087.74,-377.39 723.74,-377.39"/>
<text text-anchor="start" x="765.25" y="-398.59" font-family="Helvetica,sans-Serif" font-weight="bold" font-size="32.00" fill="#ffffff"> &#160;&#160;&#160;&#160;&#160;&#160;documents &#160;&#160;&#160;&#160;&#160;&#160;</text>
<polygon fill="#e7e2dd" stroke="transparent" points="723.74,-317.39 723.74,-377.39 1087.74,-377.39 1087.74,-317.39 723.74,-317.39"/>
<polygon fill="none" stroke="#29235c" points="723.74,-317.39 723.74,-377.39 1087.74,-377.39 1087.74,-317.39 723.74,-317.39"/>
<text text-anchor="start" x="734.74" y="-338.59" font-family="Helvetica,sans-Serif" font-weight="bold" font-size="32.00" fill="#29235c">id</text>
<text text-anchor="start" x="759.63" y="-338.59" font-family="Helvetica,sans-Serif" font-size="32.00" fill="#29235c"> &#160;&#160;&#160;</text>
<text text-anchor="start" x="1042.96" y="-338.59" font-family="Helvetica,sans-Serif" font-style="italic" font-size="32.00" fill="#29235c">int</text>
<polygon fill="#e7e2dd" stroke="transparent" points="723.74,-257.39 723.74,-317.39 1087.74,-317.39 1087.74,-257.39 723.74,-257.39"/>
<polygon fill="none" stroke="#29235c" points="723.74,-257.39 723.74,-317.39 1087.74,-317.39 1087.74,-257.39 723.74,-257.39"/>
<text text-anchor="start" x="734.74" y="-277.59" font-family="Helvetica,sans-Serif" font-size="32.00" fill="#29235c">title &#160;&#160;&#160;</text>
<text text-anchor="start" x="930.98" y="-278.59" font-family="Helvetica,sans-Serif" font-style="italic" font-size="32.00" fill="#29235c">varchar</text>
<text text-anchor="start" x="1037.65" y="-278.59" font-family="Helvetica,sans-Serif" font-size="32.00" fill="#29235c"> </text>
<text text-anchor="start" x="1046.54" y="-278.59" font-family="Helvetica,sans-Serif" font-weight="bold" font-size="32.00" fill="#29235c">(!)</text>
<polygon fill="#e7e2dd" stroke="transparent" points="723.74,-197.39 723.74,-257.39 1087.74,-257.39 1087.74,-197.39 723.74,-197.39"/>
<polygon fill="none" stroke="#29235c" points="723.74,-197.39 723.74,-257.39 1087.74,-257.39 1087.74,-197.39 723.74,-197.39"/>
<text text-anchor="start" x="734.74" y="-217.59" font-family="Helvetica,sans-Serif" font-size="32.00" fill="#29235c">content &#160;&#160;&#160;</text>
<text text-anchor="start" x="1000.27" y="-218.59" font-family="Helvetica,sans-Serif" font-style="italic" font-size="32.00" fill="#29235c">jsonb</text>
<polygon fill="#e7e2dd" stroke="transparent" points="723.74,-137.39 723.74,-197.39 1087.74,-197.39 1087.74,-137.39 723.74,-137.39"/>
<polygon fill="none" stroke="#29235c" points="723.74,-137.39 723.74,-197.39 1087.74,-197.39 1087.74,-137.39 723.74,-137.39"/>
<text text-anchor="start" x="734.74" y="-157.59" font-family="Helvetica,sans-Serif" font-size="32.00" fill="#29235c">created_at &#160;&#160;&#160;</text>
<text text-anchor="start" x="929.18" y="-158.59" font-family="Helvetica,sans-Serif" font-style="italic" font-size="32.00" fill="#29235c">timestamp</text>
<polygon fill="#e7e2dd" stroke="transparent" points="723.74,-77.39 723.74,-137.39 1087.74,-137.39 1087.74,-77.39 723.74,-77.39"/>
<polygon fill="none" stroke="#29235c" points="723.74,-77.39 723.74,-137.39 1087.74,-137.39 1087.74,-77.39 723.74,-77.39"/>
<text text-anchor="start" x="734.41" y="-97.59" font-family="Helvetica,sans-Serif" font-size="32.00" fill="#29235c">updated_at &#160;&#160;&#160;</text>
<text text-anchor="start" x="929.46" y="-98.59" font-family="Helvetica,sans-Serif" font-style="italic" font-size="32.00" fill="#29235c">timestamp</text>
<polygon fill="none" stroke="#29235c" stroke-width="2" points="722.74,-76.39 722.74,-438.39 1088.74,-438.39 1088.74,-76.39 722.74,-76.39"/>
</g>
<!-- projects -->
<g id="projects" class="node">
<title>projects</title>
<ellipse fill="none" stroke="black" stroke-width="0" cx="1462.17" cy="-790.39" rx="260.43" ry="257.27"/>
<polygon fill="#1d71b8" stroke="transparent" points="1280.17,-910.39 1280.17,-970.39 1644.17,-970.39 1644.17,-910.39 1280.17,-910.39"/>
<polygon fill="none" stroke="#29235c" points="1280.17,-910.39 1280.17,-970.39 1644.17,-970.39 1644.17,-910.39 1280.17,-910.39"/>
<text text-anchor="start" x="1343.92" y="-931.59" font-family="Helvetica,sans-Serif" font-weight="bold" font-size="32.00" fill="#ffffff"> &#160;&#160;&#160;&#160;&#160;&#160;projects &#160;&#160;&#160;&#160;&#160;&#160;</text>
<polygon fill="#e7e2dd" stroke="transparent" points="1280.17,-850.39 1280.17,-910.39 1644.17,-910.39 1644.17,-850.39 1280.17,-850.39"/>
<polygon fill="none" stroke="#29235c" points="1280.17,-850.39 1280.17,-910.39 1644.17,-910.39 1644.17,-850.39 1280.17,-850.39"/>
<text text-anchor="start" x="1291.17" y="-871.59" font-family="Helvetica,sans-Serif" font-weight="bold" font-size="32.00" fill="#29235c">id</text>
<text text-anchor="start" x="1316.06" y="-871.59" font-family="Helvetica,sans-Serif" font-size="32.00" fill="#29235c"> &#160;&#160;&#160;</text>
<text text-anchor="start" x="1599.39" y="-871.59" font-family="Helvetica,sans-Serif" font-style="italic" font-size="32.00" fill="#29235c">int</text>
<polygon fill="#e7e2dd" stroke="transparent" points="1280.17,-790.39 1280.17,-850.39 1644.17,-850.39 1644.17,-790.39 1280.17,-790.39"/>
<polygon fill="none" stroke="#29235c" points="1280.17,-790.39 1280.17,-850.39 1644.17,-850.39 1644.17,-790.39 1280.17,-790.39"/>
<text text-anchor="start" x="1291.17" y="-810.59" font-family="Helvetica,sans-Serif" font-size="32.00" fill="#29235c">name &#160;&#160;&#160;</text>
<text text-anchor="start" x="1487.41" y="-811.59" font-family="Helvetica,sans-Serif" font-style="italic" font-size="32.00" fill="#29235c">varchar</text>
<text text-anchor="start" x="1594.08" y="-811.59" font-family="Helvetica,sans-Serif" font-size="32.00" fill="#29235c"> </text>
<text text-anchor="start" x="1602.97" y="-811.59" font-family="Helvetica,sans-Serif" font-weight="bold" font-size="32.00" fill="#29235c">(!)</text>
<polygon fill="#e7e2dd" stroke="transparent" points="1280.17,-730.39 1280.17,-790.39 1644.17,-790.39 1644.17,-730.39 1280.17,-730.39"/>
<polygon fill="none" stroke="#29235c" points="1280.17,-730.39 1280.17,-790.39 1644.17,-790.39 1644.17,-730.39 1280.17,-730.39"/>
<text text-anchor="start" x="1291.17" y="-750.59" font-family="Helvetica,sans-Serif" font-size="32.00" fill="#29235c">code &#160;&#160;&#160;</text>
<text text-anchor="start" x="1526.5" y="-751.59" font-family="Helvetica,sans-Serif" font-style="italic" font-size="32.00" fill="#29235c">varchar</text>
<polygon fill="#e7e2dd" stroke="transparent" points="1280.17,-670.39 1280.17,-730.39 1644.17,-730.39 1644.17,-670.39 1280.17,-670.39"/>
<polygon fill="none" stroke="#29235c" points="1280.17,-670.39 1280.17,-730.39 1644.17,-730.39 1644.17,-670.39 1280.17,-670.39"/>
<text text-anchor="start" x="1291.17" y="-690.59" font-family="Helvetica,sans-Serif" font-size="32.00" fill="#29235c">created_at &#160;&#160;&#160;</text>
<text text-anchor="start" x="1485.61" y="-691.59" font-family="Helvetica,sans-Serif" font-style="italic" font-size="32.00" fill="#29235c">timestamp</text>
<polygon fill="#e7e2dd" stroke="transparent" points="1280.17,-610.39 1280.17,-670.39 1644.17,-670.39 1644.17,-610.39 1280.17,-610.39"/>
<polygon fill="none" stroke="#29235c" points="1280.17,-610.39 1280.17,-670.39 1644.17,-670.39 1644.17,-610.39 1280.17,-610.39"/>
<text text-anchor="start" x="1290.84" y="-630.59" font-family="Helvetica,sans-Serif" font-size="32.00" fill="#29235c">updated_at &#160;&#160;&#160;</text>
<text text-anchor="start" x="1485.89" y="-631.59" font-family="Helvetica,sans-Serif" font-style="italic" font-size="32.00" fill="#29235c">timestamp</text>
<polygon fill="none" stroke="#29235c" stroke-width="2" points="1279.17,-609.39 1279.17,-971.39 1645.17,-971.39 1645.17,-609.39 1279.17,-609.39"/>
</g>
<!-- products -->
<g id="products" class="node">
<title>products</title>
<ellipse fill="none" stroke="black" stroke-width="0" cx="905.74" cy="-790.39" rx="260.43" ry="257.27"/>
<polygon fill="#1d71b8" stroke="transparent" points="723.74,-910.39 723.74,-970.39 1087.74,-970.39 1087.74,-910.39 723.74,-910.39"/>
<polygon fill="none" stroke="#29235c" points="723.74,-910.39 723.74,-970.39 1087.74,-970.39 1087.74,-910.39 723.74,-910.39"/>
<text text-anchor="start" x="782.14" y="-931.59" font-family="Helvetica,sans-Serif" font-weight="bold" font-size="32.00" fill="#ffffff"> &#160;&#160;&#160;&#160;&#160;&#160;products &#160;&#160;&#160;&#160;&#160;&#160;</text>
<polygon fill="#e7e2dd" stroke="transparent" points="723.74,-850.39 723.74,-910.39 1087.74,-910.39 1087.74,-850.39 723.74,-850.39"/>
<polygon fill="none" stroke="#29235c" points="723.74,-850.39 723.74,-910.39 1087.74,-910.39 1087.74,-850.39 723.74,-850.39"/>
<text text-anchor="start" x="734.74" y="-871.59" font-family="Helvetica,sans-Serif" font-weight="bold" font-size="32.00" fill="#29235c">id</text>
<text text-anchor="start" x="759.63" y="-871.59" font-family="Helvetica,sans-Serif" font-size="32.00" fill="#29235c"> &#160;&#160;&#160;</text>
<text text-anchor="start" x="1042.96" y="-871.59" font-family="Helvetica,sans-Serif" font-style="italic" font-size="32.00" fill="#29235c">int</text>
<polygon fill="#e7e2dd" stroke="transparent" points="723.74,-790.39 723.74,-850.39 1087.74,-850.39 1087.74,-790.39 723.74,-790.39"/>
<polygon fill="none" stroke="#29235c" points="723.74,-790.39 723.74,-850.39 1087.74,-850.39 1087.74,-790.39 723.74,-790.39"/>
<text text-anchor="start" x="734.74" y="-810.59" font-family="Helvetica,sans-Serif" font-size="32.00" fill="#29235c">name &#160;&#160;&#160;</text>
<text text-anchor="start" x="970.07" y="-811.59" font-family="Helvetica,sans-Serif" font-style="italic" font-size="32.00" fill="#29235c">varchar</text>
<polygon fill="#e7e2dd" stroke="transparent" points="723.74,-730.39 723.74,-790.39 1087.74,-790.39 1087.74,-730.39 723.74,-730.39"/>
<polygon fill="none" stroke="#29235c" points="723.74,-730.39 723.74,-790.39 1087.74,-790.39 1087.74,-730.39 723.74,-730.39"/>
<text text-anchor="start" x="734.74" y="-750.59" font-family="Helvetica,sans-Serif" font-size="32.00" fill="#29235c">project_id &#160;&#160;&#160;</text>
<text text-anchor="start" x="1042.96" y="-751.59" font-family="Helvetica,sans-Serif" font-style="italic" font-size="32.00" fill="#29235c">int</text>
<polygon fill="#e7e2dd" stroke="transparent" points="723.74,-670.39 723.74,-730.39 1087.74,-730.39 1087.74,-670.39 723.74,-670.39"/>
<polygon fill="none" stroke="#29235c" points="723.74,-670.39 723.74,-730.39 1087.74,-730.39 1087.74,-670.39 723.74,-670.39"/>
<text text-anchor="start" x="734.74" y="-690.59" font-family="Helvetica,sans-Serif" font-size="32.00" fill="#29235c">created_at &#160;&#160;&#160;</text>
<text text-anchor="start" x="929.18" y="-691.59" font-family="Helvetica,sans-Serif" font-style="italic" font-size="32.00" fill="#29235c">timestamp</text>
<polygon fill="#e7e2dd" stroke="transparent" points="723.74,-610.39 723.74,-670.39 1087.74,-670.39 1087.74,-610.39 723.74,-610.39"/>
<polygon fill="none" stroke="#29235c" points="723.74,-610.39 723.74,-670.39 1087.74,-670.39 1087.74,-610.39 723.74,-610.39"/>
<text text-anchor="start" x="734.41" y="-630.59" font-family="Helvetica,sans-Serif" font-size="32.00" fill="#29235c">updated_at &#160;&#160;&#160;</text>
<text text-anchor="start" x="929.46" y="-631.59" font-family="Helvetica,sans-Serif" font-style="italic" font-size="32.00" fill="#29235c">timestamp</text>
<polygon fill="none" stroke="#29235c" stroke-width="2" points="722.74,-609.39 722.74,-971.39 1088.74,-971.39 1088.74,-609.39 722.74,-609.39"/>
</g>
<!-- products&#45;&gt;projects -->
<!-- products&#45;&gt;projects -->
<g id="edge2" class="edge">
<title>products:e&#45;&gt;projects:w</title>
<path fill="none" stroke="#29235c" stroke-width="3" d="M1088.74,-760.39C1185.26,-760.39 1179.68,-872.1 1269.02,-879.95"/>
<polygon fill="#29235c" stroke="#29235c" stroke-width="3" points="1269.03,-883.46 1279.17,-880.39 1269.33,-876.46 1269.03,-883.46"/>
<text text-anchor="middle" x="1270.28" y="-889.99" font-family="Helvetica,sans-Serif" font-size="32.00" fill="#29235c">1</text>
<text text-anchor="middle" x="1094.96" y="-769.99" font-family="Helvetica,sans-Serif" font-size="32.00" fill="#29235c">*</text>
</g>
<!-- product_documents -->
<g id="product_documents" class="node">
<title>product_documents</title>
<ellipse fill="none" stroke="black" stroke-width="0" cx="304.76" cy="-643.39" rx="304.53" ry="172.57"/>
<polygon fill="#1d71b8" stroke="transparent" points="91.76,-703.39 91.76,-763.39 518.76,-763.39 518.76,-703.39 91.76,-703.39"/>
<polygon fill="none" stroke="#29235c" points="91.76,-703.39 91.76,-763.39 518.76,-763.39 518.76,-703.39 91.76,-703.39"/>
<text text-anchor="start" x="102.52" y="-724.59" font-family="Helvetica,sans-Serif" font-weight="bold" font-size="32.00" fill="#ffffff"> &#160;&#160;&#160;&#160;&#160;&#160;product_documents &#160;&#160;&#160;&#160;&#160;&#160;</text>
<polygon fill="#e7e2dd" stroke="transparent" points="91.76,-643.39 91.76,-703.39 518.76,-703.39 518.76,-643.39 91.76,-643.39"/>
<polygon fill="none" stroke="#29235c" points="91.76,-643.39 91.76,-703.39 518.76,-703.39 518.76,-643.39 91.76,-643.39"/>
<text text-anchor="start" x="102.76" y="-664.59" font-family="Helvetica,sans-Serif" font-weight="bold" font-size="32.00" fill="#29235c">id</text>
<text text-anchor="start" x="127.65" y="-664.59" font-family="Helvetica,sans-Serif" font-size="32.00" fill="#29235c"> &#160;&#160;&#160;</text>
<text text-anchor="start" x="473.98" y="-664.59" font-family="Helvetica,sans-Serif" font-style="italic" font-size="32.00" fill="#29235c">int</text>
<polygon fill="#e7e2dd" stroke="transparent" points="91.76,-583.39 91.76,-643.39 518.76,-643.39 518.76,-583.39 91.76,-583.39"/>
<polygon fill="none" stroke="#29235c" points="91.76,-583.39 91.76,-643.39 518.76,-643.39 518.76,-583.39 91.76,-583.39"/>
<text text-anchor="start" x="102.76" y="-603.59" font-family="Helvetica,sans-Serif" font-size="32.00" fill="#29235c">product_id &#160;&#160;&#160;</text>
<text text-anchor="start" x="473.98" y="-604.59" font-family="Helvetica,sans-Serif" font-style="italic" font-size="32.00" fill="#29235c">int</text>
<polygon fill="#e7e2dd" stroke="transparent" points="91.76,-523.39 91.76,-583.39 518.76,-583.39 518.76,-523.39 91.76,-523.39"/>
<polygon fill="none" stroke="#29235c" points="91.76,-523.39 91.76,-583.39 518.76,-583.39 518.76,-523.39 91.76,-523.39"/>
<text text-anchor="start" x="102.76" y="-543.59" font-family="Helvetica,sans-Serif" font-size="32.00" fill="#29235c">document_id &#160;&#160;&#160;</text>
<text text-anchor="start" x="473.98" y="-544.59" font-family="Helvetica,sans-Serif" font-style="italic" font-size="32.00" fill="#29235c">int</text>
<polygon fill="none" stroke="#29235c" stroke-width="2" points="90.26,-522.39 90.26,-764.39 519.26,-764.39 519.26,-522.39 90.26,-522.39"/>
</g>
<!-- product_documents&#45;&gt;documents -->
<!-- product_documents&#45;&gt;documents -->
<g id="edge6" class="edge">
<title>product_documents:e&#45;&gt;documents:w</title>
<path fill="none" stroke="#29235c" stroke-width="3" d="M519.76,-553.39C644.78,-553.39 597.03,-358.5 712.6,-347.84"/>
<polygon fill="#29235c" stroke="#29235c" stroke-width="3" points="712.91,-351.33 722.74,-347.39 712.59,-344.34 712.91,-351.33"/>
<text text-anchor="middle" x="713.85" y="-318.59" font-family="Helvetica,sans-Serif" font-size="32.00" fill="#29235c">1</text>
<text text-anchor="middle" x="525.99" y="-562.99" font-family="Helvetica,sans-Serif" font-size="32.00" fill="#29235c">*</text>
</g>
<!-- product_documents&#45;&gt;products -->
<!-- product_documents&#45;&gt;products -->
<g id="edge4" class="edge">
<title>product_documents:e&#45;&gt;products:w</title>
<path fill="none" stroke="#29235c" stroke-width="3" d="M519.76,-613.39C665.33,-613.39 578,-868.02 712.66,-879.95"/>
<polygon fill="#29235c" stroke="#29235c" stroke-width="3" points="712.6,-883.45 722.74,-880.39 712.9,-876.46 712.6,-883.45"/>
<text text-anchor="middle" x="713.85" y="-889.99" font-family="Helvetica,sans-Serif" font-size="32.00" fill="#29235c">1</text>
<text text-anchor="middle" x="525.99" y="-622.99" font-family="Helvetica,sans-Serif" font-size="32.00" fill="#29235c">*</text>
</g>
</g>
</svg>
