<?xml version="1.0" encoding="UTF-8" standalone="no"?>
<!DOCTYPE svg PUBLIC "-//W3C//DTD SVG 1.1//EN"
 "http://www.w3.org/Graphics/SVG/1.1/DTD/svg11.dtd">
<!-- Generated by graphviz version 2.47.0 (20210316.0004)
 -->
<!-- Title: dbml Pages: 1 -->
<svg width="1730pt" height="569pt"
 viewBox="0.00 0.00 1730.39 569.07" xmlns="http://www.w3.org/2000/svg" xmlns:xlink="http://www.w3.org/1999/xlink">
<g id="graph0" class="graph" transform="scale(1 1) rotate(0) translate(4 565.07)">
<title>dbml</title>
<!-- projects -->
<g id="projects" class="node">
<title>projects</title>
<ellipse fill="none" stroke="black" stroke-width="0" cx="1462.17" cy="-257.39" rx="260.43" ry="257.27"/>
<polygon fill="#1d71b8" stroke="transparent" points="1280.17,-377.39 1280.17,-437.39 1644.17,-437.39 1644.17,-377.39 1280.17,-377.39"/>
<polygon fill="none" stroke="#29235c" points="1280.17,-377.39 1280.17,-437.39 1644.17,-437.39 1644.17,-377.39 1280.17,-377.39"/>
<text text-anchor="start" x="1343.92" y="-398.59" font-family="Helvetica,sans-Serif" font-weight="bold" font-size="32.00" fill="#ffffff"> &#160;&#160;&#160;&#160;&#160;&#160;projects &#160;&#160;&#160;&#160;&#160;&#160;</text>
<polygon fill="#e7e2dd" stroke="transparent" points="1280.17,-317.39 1280.17,-377.39 1644.17,-377.39 1644.17,-317.39 1280.17,-317.39"/>
<polygon fill="none" stroke="#29235c" points="1280.17,-317.39 1280.17,-377.39 1644.17,-377.39 1644.17,-317.39 1280.17,-317.39"/>
<text text-anchor="start" x="1291.17" y="-338.59" font-family="Helvetica,sans-Serif" font-weight="bold" font-size="32.00" fill="#29235c">id</text>
<text text-anchor="start" x="1316.06" y="-338.59" font-family="Helvetica,sans-Serif" font-size="32.00" fill="#29235c"> &#160;&#160;&#160;</text>
<text text-anchor="start" x="1599.39" y="-338.59" font-family="Helvetica,sans-Serif" font-style="italic" font-size="32.00" fill="#29235c">int</text>
<polygon fill="#e7e2dd" stroke="transparent" points="1280.17,-257.39 1280.17,-317.39 1644.17,-317.39 1644.17,-257.39 1280.17,-257.39"/>
<polygon fill="none" stroke="#29235c" points="1280.17,-257.39 1280.17,-317.39 1644.17,-317.39 1644.17,-257.39 1280.17,-257.39"/>
<text text-anchor="start" x="1291.17" y="-277.59" font-family="Helvetica,sans-Serif" font-size="32.00" fill="#29235c">name &#160;&#160;&#160;</text>
<text text-anchor="start" x="1487.41" y="-278.59" font-family="Helvetica,sans-Serif" font-style="italic" font-size="32.00" fill="#29235c">varchar</text>
<text text-anchor="start" x="1594.08" y="-278.59" font-family="Helvetica,sans-Serif" font-size="32.00" fill="#29235c"> </text>
<text text-anchor="start" x="1602.97" y="-278.59" font-family="Helvetica,sans-Serif" font-weight="bold" font-size="32.00" fill="#29235c">(!)</text>
<polygon fill="#e7e2dd" stroke="transparent" points="1280.17,-197.39 1280.17,-257.39 1644.17,-257.39 1644.17,-197.39 1280.17,-197.39"/>
<polygon fill="none" stroke="#29235c" points="1280.17,-197.39 1280.17,-257.39 1644.17,-257.39 1644.17,-197.39 1280.17,-197.39"/>
<text text-anchor="start" x="1291.17" y="-217.59" font-family="Helvetica,sans-Serif" font-size="32.00" fill="#29235c">code &#160;&#160;&#160;</text>
<text text-anchor="start" x="1526.5" y="-218.59" font-family="Helvetica,sans-Serif" font-style="italic" font-size="32.00" fill="#29235c">varchar</text>
<polygon fill="#e7e2dd" stroke="transparent" points="1280.17,-137.39 1280.17,-197.39 1644.17,-197.39 1644.17,-137.39 1280.17,-137.39"/>
<polygon fill="none" stroke="#29235c" points="1280.17,-137.39 1280.17,-197.39 1644.17,-197.39 1644.17,-137.39 1280.17,-137.39"/>
<text text-anchor="start" x="1291.17" y="-157.59" font-family="Helvetica,sans-Serif" font-size="32.00" fill="#29235c">created_at &#160;&#160;&#160;</text>
<text text-anchor="start" x="1485.61" y="-158.59" font-family="Helvetica,sans-Serif" font-style="italic" font-size="32.00" fill="#29235c">timestamp</text>
<polygon fill="#e7e2dd" stroke="transparent" points="1280.17,-77.39 1280.17,-137.39 1644.17,-137.39 1644.17,-77.39 1280.17,-77.39"/>
<polygon fill="none" stroke="#29235c" points="1280.17,-77.39 1280.17,-137.39 1644.17,-137.39 1644.17,-77.39 1280.17,-77.39"/>
<text text-anchor="start" x="1290.84" y="-97.59" font-family="Helvetica,sans-Serif" font-size="32.00" fill="#29235c">updated_at &#160;&#160;&#160;</text>
<text text-anchor="start" x="1485.89" y="-98.59" font-family="Helvetica,sans-Serif" font-style="italic" font-size="32.00" fill="#29235c">timestamp</text>
<polygon fill="none" stroke="#29235c" stroke-width="2" points="1279.17,-76.39 1279.17,-438.39 1645.17,-438.39 1645.17,-76.39 1279.17,-76.39"/>
</g>
<!-- products -->
<g id="products" class="node">
<title>products</title>
<ellipse fill="none" stroke="black" stroke-width="0" cx="905.74" cy="-257.39" rx="260.43" ry="257.27"/>
<polygon fill="#1d71b8" stroke="transparent" points="723.74,-377.39 723.74,-437.39 1087.74,-437.39 1087.74,-377.39 723.74,-377.39"/>
<polygon fill="none" stroke="#29235c" points="723.74,-377.39 723.74,-437.39 1087.74,-437.39 1087.74,-377.39 723.74,-377.39"/>
<text text-anchor="start" x="782.14" y="-398.59" font-family="Helvetica,sans-Serif" font-weight="bold" font-size="32.00" fill="#ffffff"> &#160;&#160;&#160;&#160;&#160;&#160;products &#160;&#160;&#160;&#160;&#160;&#160;</text>
<polygon fill="#e7e2dd" stroke="transparent" points="723.74,-317.39 723.74,-377.39 1087.74,-377.39 1087.74,-317.39 723.74,-317.39"/>
<polygon fill="none" stroke="#29235c" points="723.74,-317.39 723.74,-377.39 1087.74,-377.39 1087.74,-317.39 723.74,-317.39"/>
<text text-anchor="start" x="734.74" y="-338.59" font-family="Helvetica,sans-Serif" font-weight="bold" font-size="32.00" fill="#29235c">id</text>
<text text-anchor="start" x="759.63" y="-338.59" font-family="Helvetica,sans-Serif" font-size="32.00" fill="#29235c"> &#160;&#160;&#160;</text>
<text text-anchor="start" x="1042.96" y="-338.59" font-family="Helvetica,sans-Serif" font-style="italic" font-size="32.00" fill="#29235c">int</text>
<polygon fill="#e7e2dd" stroke="transparent" points="723.74,-257.39 723.74,-317.39 1087.74,-317.39 1087.74,-257.39 723.74,-257.39"/>
<polygon fill="none" stroke="#29235c" points="723.74,-257.39 723.74,-317.39 1087.74,-317.39 1087.74,-257.39 723.74,-257.39"/>
<text text-anchor="start" x="734.74" y="-277.59" font-family="Helvetica,sans-Serif" font-size="32.00" fill="#29235c">name &#160;&#160;&#160;</text>
<text text-anchor="start" x="970.07" y="-278.59" font-family="Helvetica,sans-Serif" font-style="italic" font-size="32.00" fill="#29235c">varchar</text>
<polygon fill="#e7e2dd" stroke="transparent" points="723.74,-197.39 723.74,-257.39 1087.74,-257.39 1087.74,-197.39 723.74,-197.39"/>
<polygon fill="none" stroke="#29235c" points="723.74,-197.39 723.74,-257.39 1087.74,-257.39 1087.74,-197.39 723.74,-197.39"/>
<text text-anchor="start" x="734.74" y="-217.59" font-family="Helvetica,sans-Serif" font-size="32.00" fill="#29235c">project_id &#160;&#160;&#160;</text>
<text text-anchor="start" x="1042.96" y="-218.59" font-family="Helvetica,sans-Serif" font-style="italic" font-size="32.00" fill="#29235c">int</text>
<polygon fill="#e7e2dd" stroke="transparent" points="723.74,-137.39 723.74,-197.39 1087.74,-197.39 1087.74,-137.39 723.74,-137.39"/>
<polygon fill="none" stroke="#29235c" points="723.74,-137.39 723.74,-197.39 1087.74,-197.39 1087.74,-137.39 723.74,-137.39"/>
<text text-anchor="start" x="734.74" y="-157.59" font-family="Helvetica,sans-Serif" font-size="32.00" fill="#29235c">created_at &#160;&#160;&#160;</text>
<text text-anchor="start" x="929.18" y="-158.59" font-family="Helvetica,sans-Serif" font-style="italic" font-size="32.00" fill="#29235c">timestamp</text>
<polygon fill="#e7e2dd" stroke="transparent" points="723.74,-77.39 723.74,-137.39 1087.74,-137.39 1087.74,-77.39 723.74,-77.39"/>
<polygon fill="none" stroke="#29235c" points="723.74,-77.39 723.74,-137.39 1087.74,-137.39 1087.74,-77.39 723.74,-77.39"/>
<text text-anchor="start" x="734.41" y="-97.59" font-family="Helvetica,sans-Serif" font-size="32.00" fill="#29235c">updated_at &#160;&#160;&#160;</text>
<text text-anchor="start" x="929.46" y="-98.59" font-family="Helvetica,sans-Serif" font-style="italic" font-size="32.00" fill="#29235c">timestamp</text>
<polygon fill="none" stroke="#29235c" stroke-width="2" points="722.74,-76.39 722.74,-438.39 1088.74,-438.39 1088.74,-76.39 722.74,-76.39"/>
</g>
<!-- products&#45;&gt;projects -->
<!-- products&#45;&gt;projects -->
<g id="edge2" class="edge">
<title>products:e&#45;&gt;projects:w</title>
<path fill="none" stroke="#29235c" stroke-width="3" d="M1088.74,-227.39C1185.26,-227.39 1179.68,-339.1 1269.02,-346.95"/>
<polygon fill="#29235c" stroke="#29235c" stroke-width="3" points="1269.03,-350.46 1279.17,-347.39 1269.33,-343.46 1269.03,-350.46"/>
<text text-anchor="middle" x="1288.07" y="-347.39" font-family="Helvetica,sans-Serif" font-size="32.00" fill="#29235c">1</text>
<text text-anchor="middle" x="1094.96" y="-198.59" font-family="Helvetica,sans-Serif" font-size="32.00" fill="#29235c">*</text>
</g>
<!-- product_documents -->
<g id="product_documents" class="node">
<title>product_documents</title>
<ellipse fill="none" stroke="black" stroke-width="0" cx="304.76" cy="-473.39" rx="304.53" ry="87.86"/>
<polygon fill="#1d71b8" stroke="transparent" points="91.76,-473.39 91.76,-533.39 518.76,-533.39 518.76,-473.39 91.76,-473.39"/>
<polygon fill="none" stroke="#29235c" points="91.76,-473.39 91.76,-533.39 518.76,-533.39 518.76,-473.39 91.76,-473.39"/>
<text text-anchor="start" x="102.52" y="-494.59" font-family="Helvetica,sans-Serif" font-weight="bold" font-size="32.00" fill="#ffffff"> &#160;&#160;&#160;&#160;&#160;&#160;product_documents &#160;&#160;&#160;&#160;&#160;&#160;</text>
<polygon fill="#e7e2dd" stroke="transparent" points="91.76,-413.39 91.76,-473.39 518.76,-473.39 518.76,-413.39 91.76,-413.39"/>
<polygon fill="none" stroke="#29235c" points="91.76,-413.39 91.76,-473.39 518.76,-473.39 518.76,-413.39 91.76,-413.39"/>
<text text-anchor="start" x="102.76" y="-433.59" font-family="Helvetica,sans-Serif" font-size="32.00" fill="#29235c">product_id &#160;&#160;&#160;</text>
<text text-anchor="start" x="473.98" y="-434.59" font-family="Helvetica,sans-Serif" font-style="italic" font-size="32.00" fill="#29235c">int</text>
<polygon fill="none" stroke="#29235c" stroke-width="2" points="90.26,-412.39 90.26,-534.39 519.26,-534.39 519.26,-412.39 90.26,-412.39"/>
</g>
<!-- product_documents&#45;&gt;products -->
<!-- product_documents&#45;&gt;products -->
<g id="edge4" class="edge">
<title>product_documents:e&#45;&gt;products:w</title>
<path fill="none" stroke="#29235c" stroke-width="3" d="M519.76,-443.39C616.05,-443.39 622.59,-354.02 712.57,-347.73"/>
<polygon fill="#29235c" stroke="#29235c" stroke-width="3" points="712.87,-351.23 722.74,-347.39 712.63,-344.23 712.87,-351.23"/>
<text text-anchor="middle" x="731.64" y="-347.39" font-family="Helvetica,sans-Serif" font-size="32.00" fill="#29235c">1</text>
<text text-anchor="middle" x="525.99" y="-452.99" font-family="Helvetica,sans-Serif" font-size="32.00" fill="#29235c">*</text>
</g>
<!-- epics -->
<g id="epics" class="node">
<title>epics</title>
<ellipse fill="none" stroke="black" stroke-width="0" cx="304.76" cy="-280.39" rx="171.65" ry="87.86"/>
<polygon fill="#1d71b8" stroke="transparent" points="185.76,-280.39 185.76,-340.39 424.76,-340.39 424.76,-280.39 185.76,-280.39"/>
<polygon fill="none" stroke="#29235c" points="185.76,-280.39 185.76,-340.39 424.76,-340.39 424.76,-280.39 185.76,-280.39"/>
<text text-anchor="start" x="205.67" y="-301.59" font-family="Helvetica,sans-Serif" font-weight="bold" font-size="32.00" fill="#ffffff"> &#160;&#160;&#160;&#160;&#160;&#160;epics &#160;&#160;&#160;&#160;&#160;&#160;</text>
<polygon fill="#e7e2dd" stroke="transparent" points="185.76,-220.39 185.76,-280.39 424.76,-280.39 424.76,-220.39 185.76,-220.39"/>
<polygon fill="none" stroke="#29235c" points="185.76,-220.39 185.76,-280.39 424.76,-280.39 424.76,-220.39 185.76,-220.39"/>
<text text-anchor="start" x="196.29" y="-240.59" font-family="Helvetica,sans-Serif" font-size="32.00" fill="#29235c">product_id &#160;&#160;&#160;</text>
<text text-anchor="start" x="380.37" y="-241.59" font-family="Helvetica,sans-Serif" font-style="italic" font-size="32.00" fill="#29235c">int</text>
<polygon fill="none" stroke="#29235c" stroke-width="2" points="184.26,-219.39 184.26,-341.39 425.26,-341.39 425.26,-219.39 184.26,-219.39"/>
</g>
<!-- epics&#45;&gt;products -->
<!-- epics&#45;&gt;products -->
<g id="edge6" class="edge">
<title>epics:e&#45;&gt;products:w</title>
<path fill="none" stroke="#29235c" stroke-width="3" d="M425.76,-250.39C561.09,-250.39 582.83,-342.52 712.39,-347.2"/>
<polygon fill="#29235c" stroke="#29235c" stroke-width="3" points="712.68,-350.71 722.74,-347.39 712.81,-343.71 712.68,-350.71"/>
<text text-anchor="middle" x="713.85" y="-318.59" font-family="Helvetica,sans-Serif" font-size="32.00" fill="#29235c">1</text>
<text text-anchor="middle" x="431.99" y="-221.59" font-family="Helvetica,sans-Serif" font-size="32.00" fill="#29235c">*</text>
</g>
</g>
</svg>
