<?xml version="1.0" encoding="UTF-8" standalone="no"?>
<!DOCTYPE svg PUBLIC "-//W3C//DTD SVG 1.1//EN"
 "http://www.w3.org/Graphics/SVG/1.1/DTD/svg11.dtd">
<!-- Generated by graphviz version 2.47.0 (20210316.0004)
 -->
<!-- Title: dbml Pages: 1 -->
<svg width="1132pt" height="1163pt"
 viewBox="0.00 0.00 1131.53 1163.49" xmlns="http://www.w3.org/2000/svg" xmlns:xlink="http://www.w3.org/1999/xlink">
<g id="graph0" class="graph" transform="scale(1 1) rotate(0) translate(4 1159.49)">
<title>dbml</title>
<!-- prioritas -->
<g id="prioritas" class="node">
<title>prioritas</title>
<ellipse fill="none" stroke="black" stroke-width="0" cx="863.31" cy="-172.53" rx="186.85" ry="172.57"/>
<polygon fill="#29235c" stroke="transparent" points="733.31,-232.53 733.31,-292.53 993.31,-292.53 993.31,-232.53 733.31,-232.53"/>
<polygon fill="none" stroke="#29235c" points="733.31,-232.53 733.31,-292.53 993.31,-292.53 993.31,-232.53 733.31,-232.53"/>
<text text-anchor="start" x="744.18" y="-253.73" font-family="Helvetica,sans-Serif" font-weight="bold" font-size="32.00" fill="#ffffff"> &#160;&#160;&#160;&#160;&#160;&#160;prioritas &#160;&#160;&#160;&#160;&#160;&#160;</text>
<polygon fill="#e7e2dd" stroke="transparent" points="733.31,-172.53 733.31,-232.53 993.31,-232.53 993.31,-172.53 733.31,-172.53"/>
<polygon fill="none" stroke="#29235c" points="733.31,-172.53 733.31,-232.53 993.31,-232.53 993.31,-172.53 733.31,-172.53"/>
<text text-anchor="start" x="791.3" y="-193.73" font-family="Helvetica,sans-Serif" font-style="italic" font-size="32.00" fill="#1d71b8"> &#160;&#160;&#160;LOW &#160;&#160;&#160;</text>
<polygon fill="#e7e2dd" stroke="transparent" points="733.31,-112.53 733.31,-172.53 993.31,-172.53 993.31,-112.53 733.31,-112.53"/>
<polygon fill="none" stroke="#29235c" points="733.31,-112.53 733.31,-172.53 993.31,-172.53 993.31,-112.53 733.31,-112.53"/>
<text text-anchor="start" x="762.87" y="-133.73" font-family="Helvetica,sans-Serif" font-style="italic" font-size="32.00" fill="#1d71b8"> &#160;&#160;&#160;MEDIUM &#160;&#160;&#160;</text>
<polygon fill="#e7e2dd" stroke="transparent" points="733.31,-52.53 733.31,-112.53 993.31,-112.53 993.31,-52.53 733.31,-52.53"/>
<polygon fill="none" stroke="#29235c" points="733.31,-52.53 733.31,-112.53 993.31,-112.53 993.31,-52.53 733.31,-52.53"/>
<text text-anchor="start" x="787.75" y="-73.73" font-family="Helvetica,sans-Serif" font-style="italic" font-size="32.00" fill="#1d71b8"> &#160;&#160;&#160;HIGH &#160;&#160;&#160;</text>
<polygon fill="none" stroke="#29235c" stroke-width="2" points="732.31,-51.53 732.31,-293.53 994.31,-293.53 994.31,-51.53 732.31,-51.53"/>
</g>
<!-- statuses -->
<g id="statuses" class="node">
<title>statuses</title>
<ellipse fill="none" stroke="black" stroke-width="0" cx="863.31" cy="-535.53" rx="207.36" ry="172.57"/>
<polygon fill="#1d71b8" stroke="transparent" points="719.31,-595.53 719.31,-655.53 1008.31,-655.53 1008.31,-595.53 719.31,-595.53"/>
<polygon fill="none" stroke="#29235c" points="719.31,-595.53 719.31,-655.53 1008.31,-655.53 1008.31,-595.53 719.31,-595.53"/>
<text text-anchor="start" x="741.99" y="-616.73" font-family="Helvetica,sans-Serif" font-weight="bold" font-size="32.00" fill="#ffffff"> &#160;&#160;&#160;&#160;&#160;&#160;statuses &#160;&#160;&#160;&#160;&#160;&#160;</text>
<polygon fill="#e7e2dd" stroke="transparent" points="719.31,-535.53 719.31,-595.53 1008.31,-595.53 1008.31,-535.53 719.31,-535.53"/>
<polygon fill="none" stroke="#29235c" points="719.31,-535.53 719.31,-595.53 1008.31,-595.53 1008.31,-535.53 719.31,-535.53"/>
<text text-anchor="start" x="730.31" y="-556.73" font-family="Helvetica,sans-Serif" font-weight="bold" font-size="32.00" fill="#29235c">id</text>
<text text-anchor="start" x="755.2" y="-556.73" font-family="Helvetica,sans-Serif" font-size="32.00" fill="#29235c"> &#160;&#160;&#160;</text>
<text text-anchor="start" x="963.53" y="-556.73" font-family="Helvetica,sans-Serif" font-style="italic" font-size="32.00" fill="#29235c">int</text>
<polygon fill="#e7e2dd" stroke="transparent" points="719.31,-475.53 719.31,-535.53 1008.31,-535.53 1008.31,-475.53 719.31,-475.53"/>
<polygon fill="none" stroke="#29235c" points="719.31,-475.53 719.31,-535.53 1008.31,-535.53 1008.31,-475.53 719.31,-475.53"/>
<text text-anchor="start" x="730.31" y="-495.73" font-family="Helvetica,sans-Serif" font-size="32.00" fill="#29235c">nama &#160;&#160;&#160;</text>
<text text-anchor="start" x="890.64" y="-496.73" font-family="Helvetica,sans-Serif" font-style="italic" font-size="32.00" fill="#29235c">varchar</text>
<polygon fill="#e7e2dd" stroke="transparent" points="719.31,-415.53 719.31,-475.53 1008.31,-475.53 1008.31,-415.53 719.31,-415.53"/>
<polygon fill="none" stroke="#29235c" points="719.31,-415.53 719.31,-475.53 1008.31,-475.53 1008.31,-415.53 719.31,-415.53"/>
<text text-anchor="start" x="729.92" y="-435.73" font-family="Helvetica,sans-Serif" font-size="32.00" fill="#29235c">deskripsi &#160;&#160;&#160;</text>
<text text-anchor="start" x="890.98" y="-436.73" font-family="Helvetica,sans-Serif" font-style="italic" font-size="32.00" fill="#29235c">varchar</text>
<polygon fill="none" stroke="#29235c" stroke-width="2" points="717.81,-414.53 717.81,-656.53 1008.81,-656.53 1008.81,-414.53 717.81,-414.53"/>
</g>
<!-- squads -->
<g id="squads" class="node">
<title>squads</title>
<ellipse fill="none" stroke="black" stroke-width="0" cx="863.31" cy="-940.53" rx="260.43" ry="214.92"/>
<polygon fill="#1d71b8" stroke="transparent" points="681.31,-1030.53 681.31,-1090.53 1045.31,-1090.53 1045.31,-1030.53 681.31,-1030.53"/>
<polygon fill="none" stroke="#29235c" points="681.31,-1030.53 681.31,-1090.53 1045.31,-1090.53 1045.31,-1030.53 681.31,-1030.53"/>
<text text-anchor="start" x="749.49" y="-1051.73" font-family="Helvetica,sans-Serif" font-weight="bold" font-size="32.00" fill="#ffffff"> &#160;&#160;&#160;&#160;&#160;&#160;squads &#160;&#160;&#160;&#160;&#160;&#160;</text>
<polygon fill="#e7e2dd" stroke="transparent" points="681.31,-970.53 681.31,-1030.53 1045.31,-1030.53 1045.31,-970.53 681.31,-970.53"/>
<polygon fill="none" stroke="#29235c" points="681.31,-970.53 681.31,-1030.53 1045.31,-1030.53 1045.31,-970.53 681.31,-970.53"/>
<text text-anchor="start" x="692.31" y="-991.73" font-family="Helvetica,sans-Serif" font-weight="bold" font-size="32.00" fill="#29235c">id</text>
<text text-anchor="start" x="717.2" y="-991.73" font-family="Helvetica,sans-Serif" font-size="32.00" fill="#29235c"> &#160;&#160;&#160;</text>
<text text-anchor="start" x="1000.53" y="-991.73" font-family="Helvetica,sans-Serif" font-style="italic" font-size="32.00" fill="#29235c">int</text>
<polygon fill="#e7e2dd" stroke="transparent" points="681.31,-910.53 681.31,-970.53 1045.31,-970.53 1045.31,-910.53 681.31,-910.53"/>
<polygon fill="none" stroke="#29235c" points="681.31,-910.53 681.31,-970.53 1045.31,-970.53 1045.31,-910.53 681.31,-910.53"/>
<text text-anchor="start" x="692.31" y="-930.73" font-family="Helvetica,sans-Serif" font-size="32.00" fill="#29235c">nama &#160;&#160;&#160;</text>
<text text-anchor="start" x="888.55" y="-931.73" font-family="Helvetica,sans-Serif" font-style="italic" font-size="32.00" fill="#29235c">varchar</text>
<text text-anchor="start" x="995.22" y="-931.73" font-family="Helvetica,sans-Serif" font-size="32.00" fill="#29235c"> </text>
<text text-anchor="start" x="1004.12" y="-931.73" font-family="Helvetica,sans-Serif" font-weight="bold" font-size="32.00" fill="#29235c">(!)</text>
<polygon fill="#e7e2dd" stroke="transparent" points="681.31,-850.53 681.31,-910.53 1045.31,-910.53 1045.31,-850.53 681.31,-850.53"/>
<polygon fill="none" stroke="#29235c" points="681.31,-850.53 681.31,-910.53 1045.31,-910.53 1045.31,-850.53 681.31,-850.53"/>
<text text-anchor="start" x="692.31" y="-870.73" font-family="Helvetica,sans-Serif" font-size="32.00" fill="#29235c">created_at &#160;&#160;&#160;</text>
<text text-anchor="start" x="886.76" y="-871.73" font-family="Helvetica,sans-Serif" font-style="italic" font-size="32.00" fill="#29235c">timestamp</text>
<polygon fill="#e7e2dd" stroke="transparent" points="681.31,-790.53 681.31,-850.53 1045.31,-850.53 1045.31,-790.53 681.31,-790.53"/>
<polygon fill="none" stroke="#29235c" points="681.31,-790.53 681.31,-850.53 1045.31,-850.53 1045.31,-790.53 681.31,-790.53"/>
<text text-anchor="start" x="691.98" y="-810.73" font-family="Helvetica,sans-Serif" font-size="32.00" fill="#29235c">updated_at &#160;&#160;&#160;</text>
<text text-anchor="start" x="887.04" y="-811.73" font-family="Helvetica,sans-Serif" font-style="italic" font-size="32.00" fill="#29235c">timestamp</text>
<polygon fill="none" stroke="#29235c" stroke-width="2" points="680.31,-789.53 680.31,-1091.53 1046.31,-1091.53 1046.31,-789.53 680.31,-789.53"/>
</g>
<!-- product_backlogs -->
<g id="product_backlogs" class="node">
<title>product_backlogs</title>
<ellipse fill="none" stroke="black" stroke-width="0" cx="283.55" cy="-595.53" rx="283.6" ry="257.27"/>
<polygon fill="#1d71b8" stroke="transparent" points="85.55,-715.53 85.55,-775.53 482.55,-775.53 482.55,-715.53 85.55,-715.53"/>
<polygon fill="none" stroke="#29235c" points="85.55,-715.53 85.55,-775.53 482.55,-775.53 482.55,-715.53 85.55,-715.53"/>
<text text-anchor="start" x="96.43" y="-736.73" font-family="Helvetica,sans-Serif" font-weight="bold" font-size="32.00" fill="#ffffff"> &#160;&#160;&#160;&#160;&#160;&#160;product_backlogs &#160;&#160;&#160;&#160;&#160;&#160;</text>
<polygon fill="#e7e2dd" stroke="transparent" points="85.55,-655.53 85.55,-715.53 482.55,-715.53 482.55,-655.53 85.55,-655.53"/>
<polygon fill="none" stroke="#29235c" points="85.55,-655.53 85.55,-715.53 482.55,-715.53 482.55,-655.53 85.55,-655.53"/>
<text text-anchor="start" x="96.55" y="-676.73" font-family="Helvetica,sans-Serif" font-weight="bold" font-size="32.00" fill="#29235c">id</text>
<text text-anchor="start" x="121.44" y="-676.73" font-family="Helvetica,sans-Serif" font-size="32.00" fill="#29235c"> &#160;&#160;&#160;</text>
<text text-anchor="start" x="437.77" y="-676.73" font-family="Helvetica,sans-Serif" font-style="italic" font-size="32.00" fill="#29235c">int</text>
<polygon fill="#e7e2dd" stroke="transparent" points="85.55,-595.53 85.55,-655.53 482.55,-655.53 482.55,-595.53 85.55,-595.53"/>
<polygon fill="none" stroke="#29235c" points="85.55,-595.53 85.55,-655.53 482.55,-655.53 482.55,-595.53 85.55,-595.53"/>
<text text-anchor="start" x="96.55" y="-615.73" font-family="Helvetica,sans-Serif" font-size="32.00" fill="#29235c">squad_id &#160;&#160;&#160;</text>
<text text-anchor="start" x="437.77" y="-616.73" font-family="Helvetica,sans-Serif" font-style="italic" font-size="32.00" fill="#29235c">int</text>
<polygon fill="#e7e2dd" stroke="transparent" points="85.55,-535.53 85.55,-595.53 482.55,-595.53 482.55,-535.53 85.55,-535.53"/>
<polygon fill="none" stroke="#29235c" points="85.55,-535.53 85.55,-595.53 482.55,-595.53 482.55,-535.53 85.55,-535.53"/>
<text text-anchor="start" x="96.55" y="-555.73" font-family="Helvetica,sans-Serif" font-size="32.00" fill="#29235c">status_id &#160;&#160;&#160;</text>
<text text-anchor="start" x="437.77" y="-556.73" font-family="Helvetica,sans-Serif" font-style="italic" font-size="32.00" fill="#29235c">int</text>
<polygon fill="#e7e2dd" stroke="transparent" points="85.55,-475.53 85.55,-535.53 482.55,-535.53 482.55,-475.53 85.55,-475.53"/>
<polygon fill="none" stroke="#29235c" points="85.55,-475.53 85.55,-535.53 482.55,-535.53 482.55,-475.53 85.55,-475.53"/>
<text text-anchor="start" x="96.55" y="-495.73" font-family="Helvetica,sans-Serif" font-size="32.00" fill="#29235c">judul &#160;&#160;&#160;</text>
<text text-anchor="start" x="290.21" y="-496.73" font-family="Helvetica,sans-Serif" font-style="italic" font-size="32.00" fill="#29235c">varchar(255)</text>
<polygon fill="#e7e2dd" stroke="transparent" points="85.55,-415.53 85.55,-475.53 482.55,-475.53 482.55,-415.53 85.55,-415.53"/>
<polygon fill="none" stroke="#29235c" points="85.55,-415.53 85.55,-475.53 482.55,-475.53 482.55,-415.53 85.55,-415.53"/>
<text text-anchor="start" x="96.55" y="-435.73" font-family="Helvetica,sans-Serif" font-size="32.00" fill="#29235c">prioritas &#160;&#160;&#160;</text>
<text text-anchor="start" x="357.78" y="-436.73" font-family="Helvetica,sans-Serif" font-style="italic" font-size="32.00" fill="#29235c">prioritas</text>
<polygon fill="none" stroke="#29235c" stroke-width="2" points="84.05,-414.53 84.05,-776.53 483.05,-776.53 483.05,-414.53 84.05,-414.53"/>
</g>
<!-- product_backlogs&#45;&gt;prioritas -->
<g id="edge5" class="edge">
<title>product_backlogs:e&#45;&gt;prioritas:w</title>
<path fill="none" stroke="#29235c" stroke-width="3" d="M483.55,-445.53C550.59,-445.53 549.11,-393.29 603.1,-353.53 659.66,-311.88 662.07,-262.53 732.31,-262.53"/>
</g>
<!-- product_backlogs&#45;&gt;statuses -->
<!-- product_backlogs&#45;&gt;statuses -->
<g id="edge4" class="edge">
<title>product_backlogs:e&#45;&gt;statuses:w</title>
<path fill="none" stroke="#29235c" stroke-width="3" d="M483.55,-565.53C584.43,-565.53 612.16,-565.53 708.17,-565.53"/>
<polygon fill="#29235c" stroke="#29235c" stroke-width="3" points="708.31,-569.03 718.31,-565.53 708.31,-562.03 708.31,-569.03"/>
<text text-anchor="middle" x="709.42" y="-575.13" font-family="Helvetica,sans-Serif" font-size="32.00" fill="#29235c">1</text>
<text text-anchor="middle" x="489.77" y="-575.13" font-family="Helvetica,sans-Serif" font-size="32.00" fill="#29235c">*</text>
</g>
<!-- product_backlogs&#45;&gt;squads -->
<!-- product_backlogs&#45;&gt;squads -->
<g id="edge2" class="edge">
<title>product_backlogs:e&#45;&gt;squads:w</title>
<path fill="none" stroke="#29235c" stroke-width="3" d="M483.55,-625.53C668.27,-625.53 498.64,-986.75 670.21,-1000.15"/>
<polygon fill="#29235c" stroke="#29235c" stroke-width="3" points="670.19,-1003.65 680.31,-1000.53 670.45,-996.66 670.19,-1003.65"/>
<text text-anchor="middle" x="671.42" y="-1010.13" font-family="Helvetica,sans-Serif" font-size="32.00" fill="#29235c">1</text>
<text text-anchor="middle" x="489.77" y="-635.13" font-family="Helvetica,sans-Serif" font-size="32.00" fill="#29235c">*</text>
</g>
</g>
</svg>
