<?xml version="1.0" encoding="UTF-8" standalone="no"?>
<!DOCTYPE svg PUBLIC "-//W3C//DTD SVG 1.1//EN"
 "http://www.w3.org/Graphics/SVG/1.1/DTD/svg11.dtd">
<!-- Generated by graphviz version 2.47.0 (20210316.0004)
 -->
<!-- Title: dbml Pages: 1 -->
<svg width="1083pt" height="1140pt"
 viewBox="0.00 0.00 1083.45 1140.20" xmlns="http://www.w3.org/2000/svg" xmlns:xlink="http://www.w3.org/1999/xlink">
<g id="graph0" class="graph" transform="scale(1 1) rotate(0) translate(4 1136.2)">
<title>dbml</title>
<!-- projects -->
<g id="projects" class="node">
<title>projects</title>
<ellipse fill="none" stroke="black" stroke-width="0" cx="815.23" cy="-342.24" rx="260.43" ry="342.48"/>
<polygon fill="#1d71b8" stroke="transparent" points="633.23,-522.24 633.23,-582.24 997.23,-582.24 997.23,-522.24 633.23,-522.24"/>
<polygon fill="none" stroke="#29235c" points="633.23,-522.24 633.23,-582.24 997.23,-582.24 997.23,-522.24 633.23,-522.24"/>
<text text-anchor="start" x="696.98" y="-543.44" font-family="Helvetica,sans-Serif" font-weight="bold" font-size="32.00" fill="#ffffff"> &#160;&#160;&#160;&#160;&#160;&#160;projects &#160;&#160;&#160;&#160;&#160;&#160;</text>
<polygon fill="#e7e2dd" stroke="transparent" points="633.23,-462.24 633.23,-522.24 997.23,-522.24 997.23,-462.24 633.23,-462.24"/>
<polygon fill="none" stroke="#29235c" points="633.23,-462.24 633.23,-522.24 997.23,-522.24 997.23,-462.24 633.23,-462.24"/>
<text text-anchor="start" x="644.23" y="-483.44" font-family="Helvetica,sans-Serif" font-weight="bold" font-size="32.00" fill="#29235c">id</text>
<text text-anchor="start" x="669.12" y="-483.44" font-family="Helvetica,sans-Serif" font-size="32.00" fill="#29235c"> &#160;&#160;&#160;</text>
<text text-anchor="start" x="952.45" y="-483.44" font-family="Helvetica,sans-Serif" font-style="italic" font-size="32.00" fill="#29235c">int</text>
<polygon fill="#e7e2dd" stroke="transparent" points="633.23,-402.24 633.23,-462.24 997.23,-462.24 997.23,-402.24 633.23,-402.24"/>
<polygon fill="none" stroke="#29235c" points="633.23,-402.24 633.23,-462.24 997.23,-462.24 997.23,-402.24 633.23,-402.24"/>
<text text-anchor="start" x="644.23" y="-422.44" font-family="Helvetica,sans-Serif" font-size="32.00" fill="#29235c">nama &#160;&#160;&#160;</text>
<text text-anchor="start" x="840.47" y="-423.44" font-family="Helvetica,sans-Serif" font-style="italic" font-size="32.00" fill="#29235c">varchar</text>
<text text-anchor="start" x="947.14" y="-423.44" font-family="Helvetica,sans-Serif" font-size="32.00" fill="#29235c"> </text>
<text text-anchor="start" x="956.03" y="-423.44" font-family="Helvetica,sans-Serif" font-weight="bold" font-size="32.00" fill="#29235c">(!)</text>
<polygon fill="#e7e2dd" stroke="transparent" points="633.23,-342.24 633.23,-402.24 997.23,-402.24 997.23,-342.24 633.23,-342.24"/>
<polygon fill="none" stroke="#29235c" points="633.23,-342.24 633.23,-402.24 997.23,-402.24 997.23,-342.24 633.23,-342.24"/>
<text text-anchor="start" x="644.23" y="-362.44" font-family="Helvetica,sans-Serif" font-size="32.00" fill="#29235c">deskripsi &#160;&#160;&#160;</text>
<text text-anchor="start" x="934.66" y="-363.44" font-family="Helvetica,sans-Serif" font-style="italic" font-size="32.00" fill="#29235c">text</text>
<polygon fill="#e7e2dd" stroke="transparent" points="633.23,-282.24 633.23,-342.24 997.23,-342.24 997.23,-282.24 633.23,-282.24"/>
<polygon fill="none" stroke="#29235c" points="633.23,-282.24 633.23,-342.24 997.23,-342.24 997.23,-282.24 633.23,-282.24"/>
<text text-anchor="start" x="644.23" y="-302.44" font-family="Helvetica,sans-Serif" font-size="32.00" fill="#29235c">tanggal_mulai &#160;&#160;&#160;</text>
<text text-anchor="start" x="923.97" y="-303.44" font-family="Helvetica,sans-Serif" font-style="italic" font-size="32.00" fill="#29235c">date</text>
<polygon fill="#e7e2dd" stroke="transparent" points="633.23,-222.24 633.23,-282.24 997.23,-282.24 997.23,-222.24 633.23,-222.24"/>
<polygon fill="none" stroke="#29235c" points="633.23,-222.24 633.23,-282.24 997.23,-282.24 997.23,-222.24 633.23,-222.24"/>
<text text-anchor="start" x="644.23" y="-242.44" font-family="Helvetica,sans-Serif" font-size="32.00" fill="#29235c">tanggal_selesai &#160;&#160;&#160;</text>
<text text-anchor="start" x="923.97" y="-243.44" font-family="Helvetica,sans-Serif" font-style="italic" font-size="32.00" fill="#29235c">date</text>
<polygon fill="#e7e2dd" stroke="transparent" points="633.23,-162.24 633.23,-222.24 997.23,-222.24 997.23,-162.24 633.23,-162.24"/>
<polygon fill="none" stroke="#29235c" points="633.23,-162.24 633.23,-222.24 997.23,-222.24 997.23,-162.24 633.23,-162.24"/>
<text text-anchor="start" x="644.23" y="-182.44" font-family="Helvetica,sans-Serif" font-size="32.00" fill="#29235c">created_at &#160;&#160;&#160;</text>
<text text-anchor="start" x="838.67" y="-183.44" font-family="Helvetica,sans-Serif" font-style="italic" font-size="32.00" fill="#29235c">timestamp</text>
<polygon fill="#e7e2dd" stroke="transparent" points="633.23,-102.24 633.23,-162.24 997.23,-162.24 997.23,-102.24 633.23,-102.24"/>
<polygon fill="none" stroke="#29235c" points="633.23,-102.24 633.23,-162.24 997.23,-162.24 997.23,-102.24 633.23,-102.24"/>
<text text-anchor="start" x="643.9" y="-122.44" font-family="Helvetica,sans-Serif" font-size="32.00" fill="#29235c">updated_at &#160;&#160;&#160;</text>
<text text-anchor="start" x="838.95" y="-123.44" font-family="Helvetica,sans-Serif" font-style="italic" font-size="32.00" fill="#29235c">timestamp</text>
<polygon fill="none" stroke="#29235c" stroke-width="2" points="632.23,-101.24 632.23,-583.24 998.23,-583.24 998.23,-101.24 632.23,-101.24"/>
</g>
<!-- squads -->
<g id="squads" class="node">
<title>squads</title>
<ellipse fill="none" stroke="black" stroke-width="0" cx="815.23" cy="-917.24" rx="260.43" ry="214.92"/>
<polygon fill="#1d71b8" stroke="transparent" points="633.23,-1007.24 633.23,-1067.24 997.23,-1067.24 997.23,-1007.24 633.23,-1007.24"/>
<polygon fill="none" stroke="#29235c" points="633.23,-1007.24 633.23,-1067.24 997.23,-1067.24 997.23,-1007.24 633.23,-1007.24"/>
<text text-anchor="start" x="701.4" y="-1028.44" font-family="Helvetica,sans-Serif" font-weight="bold" font-size="32.00" fill="#ffffff"> &#160;&#160;&#160;&#160;&#160;&#160;squads &#160;&#160;&#160;&#160;&#160;&#160;</text>
<polygon fill="#e7e2dd" stroke="transparent" points="633.23,-947.24 633.23,-1007.24 997.23,-1007.24 997.23,-947.24 633.23,-947.24"/>
<polygon fill="none" stroke="#29235c" points="633.23,-947.24 633.23,-1007.24 997.23,-1007.24 997.23,-947.24 633.23,-947.24"/>
<text text-anchor="start" x="644.23" y="-968.44" font-family="Helvetica,sans-Serif" font-weight="bold" font-size="32.00" fill="#29235c">id</text>
<text text-anchor="start" x="669.12" y="-968.44" font-family="Helvetica,sans-Serif" font-size="32.00" fill="#29235c"> &#160;&#160;&#160;</text>
<text text-anchor="start" x="952.45" y="-968.44" font-family="Helvetica,sans-Serif" font-style="italic" font-size="32.00" fill="#29235c">int</text>
<polygon fill="#e7e2dd" stroke="transparent" points="633.23,-887.24 633.23,-947.24 997.23,-947.24 997.23,-887.24 633.23,-887.24"/>
<polygon fill="none" stroke="#29235c" points="633.23,-887.24 633.23,-947.24 997.23,-947.24 997.23,-887.24 633.23,-887.24"/>
<text text-anchor="start" x="644.23" y="-907.44" font-family="Helvetica,sans-Serif" font-size="32.00" fill="#29235c">nama &#160;&#160;&#160;</text>
<text text-anchor="start" x="840.47" y="-908.44" font-family="Helvetica,sans-Serif" font-style="italic" font-size="32.00" fill="#29235c">varchar</text>
<text text-anchor="start" x="947.14" y="-908.44" font-family="Helvetica,sans-Serif" font-size="32.00" fill="#29235c"> </text>
<text text-anchor="start" x="956.03" y="-908.44" font-family="Helvetica,sans-Serif" font-weight="bold" font-size="32.00" fill="#29235c">(!)</text>
<polygon fill="#e7e2dd" stroke="transparent" points="633.23,-827.24 633.23,-887.24 997.23,-887.24 997.23,-827.24 633.23,-827.24"/>
<polygon fill="none" stroke="#29235c" points="633.23,-827.24 633.23,-887.24 997.23,-887.24 997.23,-827.24 633.23,-827.24"/>
<text text-anchor="start" x="644.23" y="-847.44" font-family="Helvetica,sans-Serif" font-size="32.00" fill="#29235c">created_at &#160;&#160;&#160;</text>
<text text-anchor="start" x="838.67" y="-848.44" font-family="Helvetica,sans-Serif" font-style="italic" font-size="32.00" fill="#29235c">timestamp</text>
<polygon fill="#e7e2dd" stroke="transparent" points="633.23,-767.24 633.23,-827.24 997.23,-827.24 997.23,-767.24 633.23,-767.24"/>
<polygon fill="none" stroke="#29235c" points="633.23,-767.24 633.23,-827.24 997.23,-827.24 997.23,-767.24 633.23,-767.24"/>
<text text-anchor="start" x="643.9" y="-787.44" font-family="Helvetica,sans-Serif" font-size="32.00" fill="#29235c">updated_at &#160;&#160;&#160;</text>
<text text-anchor="start" x="838.95" y="-788.44" font-family="Helvetica,sans-Serif" font-style="italic" font-size="32.00" fill="#29235c">timestamp</text>
<polygon fill="none" stroke="#29235c" stroke-width="2" points="632.23,-766.24 632.23,-1068.24 998.23,-1068.24 998.23,-766.24 632.23,-766.24"/>
</g>
<!-- project_squads -->
<g id="project_squads" class="node">
<title>project_squads</title>
<ellipse fill="none" stroke="black" stroke-width="0" cx="259.51" cy="-764.24" rx="259.52" ry="172.57"/>
<polygon fill="#1d71b8" stroke="transparent" points="78.51,-824.24 78.51,-884.24 441.51,-884.24 441.51,-824.24 78.51,-824.24"/>
<polygon fill="none" stroke="#29235c" points="78.51,-824.24 78.51,-884.24 441.51,-884.24 441.51,-824.24 78.51,-824.24"/>
<text text-anchor="start" x="89.28" y="-845.44" font-family="Helvetica,sans-Serif" font-weight="bold" font-size="32.00" fill="#ffffff"> &#160;&#160;&#160;&#160;&#160;&#160;project_squads &#160;&#160;&#160;&#160;&#160;&#160;</text>
<polygon fill="#e7e2dd" stroke="transparent" points="78.51,-764.24 78.51,-824.24 441.51,-824.24 441.51,-764.24 78.51,-764.24"/>
<polygon fill="none" stroke="#29235c" points="78.51,-764.24 78.51,-824.24 441.51,-824.24 441.51,-764.24 78.51,-764.24"/>
<text text-anchor="start" x="89.51" y="-785.44" font-family="Helvetica,sans-Serif" font-weight="bold" font-size="32.00" fill="#29235c">id</text>
<text text-anchor="start" x="114.4" y="-785.44" font-family="Helvetica,sans-Serif" font-size="32.00" fill="#29235c"> &#160;&#160;&#160;</text>
<text text-anchor="start" x="396.73" y="-785.44" font-family="Helvetica,sans-Serif" font-style="italic" font-size="32.00" fill="#29235c">int</text>
<polygon fill="#e7e2dd" stroke="transparent" points="78.51,-704.24 78.51,-764.24 441.51,-764.24 441.51,-704.24 78.51,-704.24"/>
<polygon fill="none" stroke="#29235c" points="78.51,-704.24 78.51,-764.24 441.51,-764.24 441.51,-704.24 78.51,-704.24"/>
<text text-anchor="start" x="89.51" y="-724.44" font-family="Helvetica,sans-Serif" font-size="32.00" fill="#29235c">squad_id &#160;&#160;&#160;</text>
<text text-anchor="start" x="396.73" y="-725.44" font-family="Helvetica,sans-Serif" font-style="italic" font-size="32.00" fill="#29235c">int</text>
<polygon fill="#e7e2dd" stroke="transparent" points="78.51,-644.24 78.51,-704.24 441.51,-704.24 441.51,-644.24 78.51,-644.24"/>
<polygon fill="none" stroke="#29235c" points="78.51,-644.24 78.51,-704.24 441.51,-704.24 441.51,-644.24 78.51,-644.24"/>
<text text-anchor="start" x="89.51" y="-664.44" font-family="Helvetica,sans-Serif" font-size="32.00" fill="#29235c">project_id &#160;&#160;&#160;</text>
<text text-anchor="start" x="396.73" y="-665.44" font-family="Helvetica,sans-Serif" font-style="italic" font-size="32.00" fill="#29235c">int</text>
<polygon fill="none" stroke="#29235c" stroke-width="2" points="77.01,-643.24 77.01,-885.24 442.01,-885.24 442.01,-643.24 77.01,-643.24"/>
</g>
<!-- project_squads&#45;&gt;projects -->
<!-- project_squads&#45;&gt;projects -->
<g id="edge4" class="edge">
<title>project_squads:e&#45;&gt;projects:w</title>
<path fill="none" stroke="#29235c" stroke-width="3" d="M442.51,-674.24C555.82,-674.24 517.9,-503.09 622.05,-492.73"/>
<polygon fill="#29235c" stroke="#29235c" stroke-width="3" points="622.41,-496.22 632.23,-492.24 622.07,-489.22 622.41,-496.22"/>
<text text-anchor="middle" x="623.34" y="-463.44" font-family="Helvetica,sans-Serif" font-size="32.00" fill="#29235c">1</text>
<text text-anchor="middle" x="448.73" y="-645.44" font-family="Helvetica,sans-Serif" font-size="32.00" fill="#29235c">*</text>
</g>
<!-- project_squads&#45;&gt;squads -->
<!-- project_squads&#45;&gt;squads -->
<g id="edge2" class="edge">
<title>project_squads:e&#45;&gt;squads:w</title>
<path fill="none" stroke="#29235c" stroke-width="3" d="M442.51,-734.24C576.05,-734.24 499.35,-965.06 622.22,-976.78"/>
<polygon fill="#29235c" stroke="#29235c" stroke-width="3" points="622.08,-980.28 632.23,-977.24 622.4,-973.28 622.08,-980.28"/>
<text text-anchor="middle" x="623.34" y="-986.84" font-family="Helvetica,sans-Serif" font-size="32.00" fill="#29235c">1</text>
<text text-anchor="middle" x="448.73" y="-743.84" font-family="Helvetica,sans-Serif" font-size="32.00" fill="#29235c">*</text>
</g>
</g>
</svg>
