<?xml version="1.0" encoding="UTF-8" standalone="no"?>
<!DOCTYPE svg PUBLIC "-//W3C//DTD SVG 1.1//EN"
 "http://www.w3.org/Graphics/SVG/1.1/DTD/svg11.dtd">
<!-- Generated by graphviz version 2.47.0 (20210316.0004)
 -->
<!-- Title: dbml Pages: 1 -->
<svg width="1154pt" height="523pt"
 viewBox="0.00 0.00 1154.16 522.77" xmlns="http://www.w3.org/2000/svg" xmlns:xlink="http://www.w3.org/1999/xlink">
<g id="graph0" class="graph" transform="scale(1 1) rotate(0) translate(4 518.77)">
<title>dbml</title>
<!-- projects -->
<g id="projects" class="node">
<title>projects</title>
<ellipse fill="none" stroke="black" stroke-width="0" cx="885.94" cy="-257.39" rx="260.43" ry="257.27"/>
<polygon fill="#1d71b8" stroke="transparent" points="703.94,-377.39 703.94,-437.39 1067.94,-437.39 1067.94,-377.39 703.94,-377.39"/>
<polygon fill="none" stroke="#29235c" points="703.94,-377.39 703.94,-437.39 1067.94,-437.39 1067.94,-377.39 703.94,-377.39"/>
<text text-anchor="start" x="767.69" y="-398.59" font-family="Helvetica,sans-Serif" font-weight="bold" font-size="32.00" fill="#ffffff"> &#160;&#160;&#160;&#160;&#160;&#160;projects &#160;&#160;&#160;&#160;&#160;&#160;</text>
<polygon fill="#e7e2dd" stroke="transparent" points="703.94,-317.39 703.94,-377.39 1067.94,-377.39 1067.94,-317.39 703.94,-317.39"/>
<polygon fill="none" stroke="#29235c" points="703.94,-317.39 703.94,-377.39 1067.94,-377.39 1067.94,-317.39 703.94,-317.39"/>
<text text-anchor="start" x="714.94" y="-338.59" font-family="Helvetica,sans-Serif" font-weight="bold" font-size="32.00" fill="#29235c">id</text>
<text text-anchor="start" x="739.83" y="-338.59" font-family="Helvetica,sans-Serif" font-size="32.00" fill="#29235c"> &#160;&#160;&#160;</text>
<text text-anchor="start" x="1023.16" y="-338.59" font-family="Helvetica,sans-Serif" font-style="italic" font-size="32.00" fill="#29235c">int</text>
<polygon fill="#e7e2dd" stroke="transparent" points="703.94,-257.39 703.94,-317.39 1067.94,-317.39 1067.94,-257.39 703.94,-257.39"/>
<polygon fill="none" stroke="#29235c" points="703.94,-257.39 703.94,-317.39 1067.94,-317.39 1067.94,-257.39 703.94,-257.39"/>
<text text-anchor="start" x="714.94" y="-277.59" font-family="Helvetica,sans-Serif" font-size="32.00" fill="#29235c">name &#160;&#160;&#160;</text>
<text text-anchor="start" x="911.18" y="-278.59" font-family="Helvetica,sans-Serif" font-style="italic" font-size="32.00" fill="#29235c">varchar</text>
<text text-anchor="start" x="1017.85" y="-278.59" font-family="Helvetica,sans-Serif" font-size="32.00" fill="#29235c"> </text>
<text text-anchor="start" x="1026.74" y="-278.59" font-family="Helvetica,sans-Serif" font-weight="bold" font-size="32.00" fill="#29235c">(!)</text>
<polygon fill="#e7e2dd" stroke="transparent" points="703.94,-197.39 703.94,-257.39 1067.94,-257.39 1067.94,-197.39 703.94,-197.39"/>
<polygon fill="none" stroke="#29235c" points="703.94,-197.39 703.94,-257.39 1067.94,-257.39 1067.94,-197.39 703.94,-197.39"/>
<text text-anchor="start" x="714.94" y="-217.59" font-family="Helvetica,sans-Serif" font-size="32.00" fill="#29235c">code &#160;&#160;&#160;</text>
<text text-anchor="start" x="950.27" y="-218.59" font-family="Helvetica,sans-Serif" font-style="italic" font-size="32.00" fill="#29235c">varchar</text>
<polygon fill="#e7e2dd" stroke="transparent" points="703.94,-137.39 703.94,-197.39 1067.94,-197.39 1067.94,-137.39 703.94,-137.39"/>
<polygon fill="none" stroke="#29235c" points="703.94,-137.39 703.94,-197.39 1067.94,-197.39 1067.94,-137.39 703.94,-137.39"/>
<text text-anchor="start" x="714.94" y="-157.59" font-family="Helvetica,sans-Serif" font-size="32.00" fill="#29235c">created_at &#160;&#160;&#160;</text>
<text text-anchor="start" x="909.38" y="-158.59" font-family="Helvetica,sans-Serif" font-style="italic" font-size="32.00" fill="#29235c">timestamp</text>
<polygon fill="#e7e2dd" stroke="transparent" points="703.94,-77.39 703.94,-137.39 1067.94,-137.39 1067.94,-77.39 703.94,-77.39"/>
<polygon fill="none" stroke="#29235c" points="703.94,-77.39 703.94,-137.39 1067.94,-137.39 1067.94,-77.39 703.94,-77.39"/>
<text text-anchor="start" x="714.61" y="-97.59" font-family="Helvetica,sans-Serif" font-size="32.00" fill="#29235c">updated_at &#160;&#160;&#160;</text>
<text text-anchor="start" x="909.66" y="-98.59" font-family="Helvetica,sans-Serif" font-style="italic" font-size="32.00" fill="#29235c">timestamp</text>
<polygon fill="none" stroke="#29235c" stroke-width="2" points="702.94,-76.39 702.94,-438.39 1068.94,-438.39 1068.94,-76.39 702.94,-76.39"/>
</g>
<!-- project_milestones -->
<g id="project_milestones" class="node">
<title>project_milestones</title>
<ellipse fill="none" stroke="black" stroke-width="0" cx="294.86" cy="-257.39" rx="294.73" ry="257.27"/>
<polygon fill="#1d71b8" stroke="transparent" points="88.86,-377.39 88.86,-437.39 501.86,-437.39 501.86,-377.39 88.86,-377.39"/>
<polygon fill="none" stroke="#29235c" points="88.86,-377.39 88.86,-437.39 501.86,-437.39 501.86,-377.39 88.86,-377.39"/>
<text text-anchor="start" x="99.76" y="-398.59" font-family="Helvetica,sans-Serif" font-weight="bold" font-size="32.00" fill="#ffffff"> &#160;&#160;&#160;&#160;&#160;&#160;project_milestones &#160;&#160;&#160;&#160;&#160;&#160;</text>
<polygon fill="#e7e2dd" stroke="transparent" points="88.86,-317.39 88.86,-377.39 501.86,-377.39 501.86,-317.39 88.86,-317.39"/>
<polygon fill="none" stroke="#29235c" points="88.86,-317.39 88.86,-377.39 501.86,-377.39 501.86,-317.39 88.86,-317.39"/>
<text text-anchor="start" x="99.86" y="-338.59" font-family="Helvetica,sans-Serif" font-weight="bold" font-size="32.00" fill="#29235c">id</text>
<text text-anchor="start" x="124.75" y="-338.59" font-family="Helvetica,sans-Serif" font-size="32.00" fill="#29235c"> &#160;&#160;&#160;</text>
<text text-anchor="start" x="457.08" y="-338.59" font-family="Helvetica,sans-Serif" font-style="italic" font-size="32.00" fill="#29235c">int</text>
<polygon fill="#e7e2dd" stroke="transparent" points="88.86,-257.39 88.86,-317.39 501.86,-317.39 501.86,-257.39 88.86,-257.39"/>
<polygon fill="none" stroke="#29235c" points="88.86,-257.39 88.86,-317.39 501.86,-317.39 501.86,-257.39 88.86,-257.39"/>
<text text-anchor="start" x="99.86" y="-277.59" font-family="Helvetica,sans-Serif" font-size="32.00" fill="#29235c">name &#160;&#160;&#160;</text>
<text text-anchor="start" x="384.19" y="-278.59" font-family="Helvetica,sans-Serif" font-style="italic" font-size="32.00" fill="#29235c">varchar</text>
<polygon fill="#e7e2dd" stroke="transparent" points="88.86,-197.39 88.86,-257.39 501.86,-257.39 501.86,-197.39 88.86,-197.39"/>
<polygon fill="none" stroke="#29235c" points="88.86,-197.39 88.86,-257.39 501.86,-257.39 501.86,-197.39 88.86,-197.39"/>
<text text-anchor="start" x="99.86" y="-217.59" font-family="Helvetica,sans-Serif" font-size="32.00" fill="#29235c">project_id &#160;&#160;&#160;</text>
<text text-anchor="start" x="457.08" y="-218.59" font-family="Helvetica,sans-Serif" font-style="italic" font-size="32.00" fill="#29235c">int</text>
<polygon fill="#e7e2dd" stroke="transparent" points="88.86,-137.39 88.86,-197.39 501.86,-197.39 501.86,-137.39 88.86,-137.39"/>
<polygon fill="none" stroke="#29235c" points="88.86,-137.39 88.86,-197.39 501.86,-197.39 501.86,-137.39 88.86,-137.39"/>
<text text-anchor="start" x="99.86" y="-157.59" font-family="Helvetica,sans-Serif" font-size="32.00" fill="#29235c">created_at &#160;&#160;&#160;</text>
<text text-anchor="start" x="343.31" y="-158.59" font-family="Helvetica,sans-Serif" font-style="italic" font-size="32.00" fill="#29235c">timestamp</text>
<polygon fill="#e7e2dd" stroke="transparent" points="88.86,-77.39 88.86,-137.39 501.86,-137.39 501.86,-77.39 88.86,-77.39"/>
<polygon fill="none" stroke="#29235c" points="88.86,-77.39 88.86,-137.39 501.86,-137.39 501.86,-77.39 88.86,-77.39"/>
<text text-anchor="start" x="99.86" y="-97.59" font-family="Helvetica,sans-Serif" font-size="32.00" fill="#29235c">updated_at &#160;&#160;&#160;</text>
<text text-anchor="start" x="343.31" y="-98.59" font-family="Helvetica,sans-Serif" font-style="italic" font-size="32.00" fill="#29235c">timestamp</text>
<polygon fill="none" stroke="#29235c" stroke-width="2" points="87.36,-76.39 87.36,-438.39 502.36,-438.39 502.36,-76.39 87.36,-76.39"/>
</g>
<!-- project_milestones&#45;&gt;projects -->
<!-- project_milestones&#45;&gt;projects -->
<g id="edge2" class="edge">
<title>project_milestones:e&#45;&gt;projects:w</title>
<path fill="none" stroke="#29235c" stroke-width="3" d="M502.86,-227.39C603.01,-227.39 599.62,-339.32 692.69,-346.98"/>
<polygon fill="#29235c" stroke="#29235c" stroke-width="3" points="692.81,-350.48 702.94,-347.39 693.09,-343.49 692.81,-350.48"/>
<text text-anchor="middle" x="694.05" y="-356.99" font-family="Helvetica,sans-Serif" font-size="32.00" fill="#29235c">1</text>
<text text-anchor="middle" x="496.64" y="-198.59" font-family="Helvetica,sans-Serif" font-size="32.00" fill="#29235c">*</text>
</g>
</g>
</svg>
