<?xml version="1.0" encoding="UTF-8" standalone="no"?>
<!DOCTYPE svg PUBLIC "-//W3C//DTD SVG 1.1//EN"
 "http://www.w3.org/Graphics/SVG/1.1/DTD/svg11.dtd">
<!-- Generated by graphviz version 2.47.0 (20210316.0004)
 -->
<!-- Title: dbml Pages: 1 -->
<svg width="1181pt" height="1140pt"
 viewBox="0.00 0.00 1181.03 1140.20" xmlns="http://www.w3.org/2000/svg" xmlns:xlink="http://www.w3.org/1999/xlink">
<g id="graph0" class="graph" transform="scale(1 1) rotate(0) translate(4 1136.2)">
<title>dbml</title>
<!-- squads -->
<g id="squads" class="node">
<title>squads</title>
<ellipse fill="none" stroke="black" stroke-width="0" cx="912.81" cy="-214.96" rx="260.43" ry="214.92"/>
<polygon fill="#1d71b8" stroke="transparent" points="730.81,-304.96 730.81,-364.96 1094.81,-364.96 1094.81,-304.96 730.81,-304.96"/>
<polygon fill="none" stroke="#29235c" points="730.81,-304.96 730.81,-364.96 1094.81,-364.96 1094.81,-304.96 730.81,-304.96"/>
<text text-anchor="start" x="798.99" y="-326.16" font-family="Helvetica,sans-Serif" font-weight="bold" font-size="32.00" fill="#ffffff"> &#160;&#160;&#160;&#160;&#160;&#160;squads &#160;&#160;&#160;&#160;&#160;&#160;</text>
<polygon fill="#e7e2dd" stroke="transparent" points="730.81,-244.96 730.81,-304.96 1094.81,-304.96 1094.81,-244.96 730.81,-244.96"/>
<polygon fill="none" stroke="#29235c" points="730.81,-244.96 730.81,-304.96 1094.81,-304.96 1094.81,-244.96 730.81,-244.96"/>
<text text-anchor="start" x="741.81" y="-266.16" font-family="Helvetica,sans-Serif" font-weight="bold" font-size="32.00" fill="#29235c">id</text>
<text text-anchor="start" x="766.7" y="-266.16" font-family="Helvetica,sans-Serif" font-size="32.00" fill="#29235c"> &#160;&#160;&#160;</text>
<text text-anchor="start" x="1050.03" y="-266.16" font-family="Helvetica,sans-Serif" font-style="italic" font-size="32.00" fill="#29235c">int</text>
<polygon fill="#e7e2dd" stroke="transparent" points="730.81,-184.96 730.81,-244.96 1094.81,-244.96 1094.81,-184.96 730.81,-184.96"/>
<polygon fill="none" stroke="#29235c" points="730.81,-184.96 730.81,-244.96 1094.81,-244.96 1094.81,-184.96 730.81,-184.96"/>
<text text-anchor="start" x="741.81" y="-205.16" font-family="Helvetica,sans-Serif" font-size="32.00" fill="#29235c">nama &#160;&#160;&#160;</text>
<text text-anchor="start" x="938.05" y="-206.16" font-family="Helvetica,sans-Serif" font-style="italic" font-size="32.00" fill="#29235c">varchar</text>
<text text-anchor="start" x="1044.72" y="-206.16" font-family="Helvetica,sans-Serif" font-size="32.00" fill="#29235c"> </text>
<text text-anchor="start" x="1053.61" y="-206.16" font-family="Helvetica,sans-Serif" font-weight="bold" font-size="32.00" fill="#29235c">(!)</text>
<polygon fill="#e7e2dd" stroke="transparent" points="730.81,-124.96 730.81,-184.96 1094.81,-184.96 1094.81,-124.96 730.81,-124.96"/>
<polygon fill="none" stroke="#29235c" points="730.81,-124.96 730.81,-184.96 1094.81,-184.96 1094.81,-124.96 730.81,-124.96"/>
<text text-anchor="start" x="741.81" y="-145.16" font-family="Helvetica,sans-Serif" font-size="32.00" fill="#29235c">created_at &#160;&#160;&#160;</text>
<text text-anchor="start" x="936.25" y="-146.16" font-family="Helvetica,sans-Serif" font-style="italic" font-size="32.00" fill="#29235c">timestamp</text>
<polygon fill="#e7e2dd" stroke="transparent" points="730.81,-64.96 730.81,-124.96 1094.81,-124.96 1094.81,-64.96 730.81,-64.96"/>
<polygon fill="none" stroke="#29235c" points="730.81,-64.96 730.81,-124.96 1094.81,-124.96 1094.81,-64.96 730.81,-64.96"/>
<text text-anchor="start" x="741.48" y="-85.16" font-family="Helvetica,sans-Serif" font-size="32.00" fill="#29235c">updated_at &#160;&#160;&#160;</text>
<text text-anchor="start" x="936.53" y="-86.16" font-family="Helvetica,sans-Serif" font-style="italic" font-size="32.00" fill="#29235c">timestamp</text>
<polygon fill="none" stroke="#29235c" stroke-width="2" points="729.81,-63.96 729.81,-365.96 1095.81,-365.96 1095.81,-63.96 729.81,-63.96"/>
</g>
<!-- projects -->
<g id="projects" class="node">
<title>projects</title>
<ellipse fill="none" stroke="black" stroke-width="0" cx="912.81" cy="-789.96" rx="260.43" ry="342.48"/>
<polygon fill="#1d71b8" stroke="transparent" points="730.81,-969.96 730.81,-1029.96 1094.81,-1029.96 1094.81,-969.96 730.81,-969.96"/>
<polygon fill="none" stroke="#29235c" points="730.81,-969.96 730.81,-1029.96 1094.81,-1029.96 1094.81,-969.96 730.81,-969.96"/>
<text text-anchor="start" x="794.56" y="-991.16" font-family="Helvetica,sans-Serif" font-weight="bold" font-size="32.00" fill="#ffffff"> &#160;&#160;&#160;&#160;&#160;&#160;projects &#160;&#160;&#160;&#160;&#160;&#160;</text>
<polygon fill="#e7e2dd" stroke="transparent" points="730.81,-909.96 730.81,-969.96 1094.81,-969.96 1094.81,-909.96 730.81,-909.96"/>
<polygon fill="none" stroke="#29235c" points="730.81,-909.96 730.81,-969.96 1094.81,-969.96 1094.81,-909.96 730.81,-909.96"/>
<text text-anchor="start" x="741.81" y="-931.16" font-family="Helvetica,sans-Serif" font-weight="bold" font-size="32.00" fill="#29235c">id</text>
<text text-anchor="start" x="766.7" y="-931.16" font-family="Helvetica,sans-Serif" font-size="32.00" fill="#29235c"> &#160;&#160;&#160;</text>
<text text-anchor="start" x="1050.03" y="-931.16" font-family="Helvetica,sans-Serif" font-style="italic" font-size="32.00" fill="#29235c">int</text>
<polygon fill="#e7e2dd" stroke="transparent" points="730.81,-849.96 730.81,-909.96 1094.81,-909.96 1094.81,-849.96 730.81,-849.96"/>
<polygon fill="none" stroke="#29235c" points="730.81,-849.96 730.81,-909.96 1094.81,-909.96 1094.81,-849.96 730.81,-849.96"/>
<text text-anchor="start" x="741.81" y="-870.16" font-family="Helvetica,sans-Serif" font-size="32.00" fill="#29235c">nama &#160;&#160;&#160;</text>
<text text-anchor="start" x="938.05" y="-871.16" font-family="Helvetica,sans-Serif" font-style="italic" font-size="32.00" fill="#29235c">varchar</text>
<text text-anchor="start" x="1044.72" y="-871.16" font-family="Helvetica,sans-Serif" font-size="32.00" fill="#29235c"> </text>
<text text-anchor="start" x="1053.61" y="-871.16" font-family="Helvetica,sans-Serif" font-weight="bold" font-size="32.00" fill="#29235c">(!)</text>
<polygon fill="#e7e2dd" stroke="transparent" points="730.81,-789.96 730.81,-849.96 1094.81,-849.96 1094.81,-789.96 730.81,-789.96"/>
<polygon fill="none" stroke="#29235c" points="730.81,-789.96 730.81,-849.96 1094.81,-849.96 1094.81,-789.96 730.81,-789.96"/>
<text text-anchor="start" x="741.81" y="-810.16" font-family="Helvetica,sans-Serif" font-size="32.00" fill="#29235c">deskripsi &#160;&#160;&#160;</text>
<text text-anchor="start" x="1032.24" y="-811.16" font-family="Helvetica,sans-Serif" font-style="italic" font-size="32.00" fill="#29235c">text</text>
<polygon fill="#e7e2dd" stroke="transparent" points="730.81,-729.96 730.81,-789.96 1094.81,-789.96 1094.81,-729.96 730.81,-729.96"/>
<polygon fill="none" stroke="#29235c" points="730.81,-729.96 730.81,-789.96 1094.81,-789.96 1094.81,-729.96 730.81,-729.96"/>
<text text-anchor="start" x="741.81" y="-750.16" font-family="Helvetica,sans-Serif" font-size="32.00" fill="#29235c">tanggal_mulai &#160;&#160;&#160;</text>
<text text-anchor="start" x="1021.55" y="-751.16" font-family="Helvetica,sans-Serif" font-style="italic" font-size="32.00" fill="#29235c">date</text>
<polygon fill="#e7e2dd" stroke="transparent" points="730.81,-669.96 730.81,-729.96 1094.81,-729.96 1094.81,-669.96 730.81,-669.96"/>
<polygon fill="none" stroke="#29235c" points="730.81,-669.96 730.81,-729.96 1094.81,-729.96 1094.81,-669.96 730.81,-669.96"/>
<text text-anchor="start" x="741.81" y="-690.16" font-family="Helvetica,sans-Serif" font-size="32.00" fill="#29235c">tanggal_selesai &#160;&#160;&#160;</text>
<text text-anchor="start" x="1021.55" y="-691.16" font-family="Helvetica,sans-Serif" font-style="italic" font-size="32.00" fill="#29235c">date</text>
<polygon fill="#e7e2dd" stroke="transparent" points="730.81,-609.96 730.81,-669.96 1094.81,-669.96 1094.81,-609.96 730.81,-609.96"/>
<polygon fill="none" stroke="#29235c" points="730.81,-609.96 730.81,-669.96 1094.81,-669.96 1094.81,-609.96 730.81,-609.96"/>
<text text-anchor="start" x="741.81" y="-630.16" font-family="Helvetica,sans-Serif" font-size="32.00" fill="#29235c">created_at &#160;&#160;&#160;</text>
<text text-anchor="start" x="936.25" y="-631.16" font-family="Helvetica,sans-Serif" font-style="italic" font-size="32.00" fill="#29235c">timestamp</text>
<polygon fill="#e7e2dd" stroke="transparent" points="730.81,-549.96 730.81,-609.96 1094.81,-609.96 1094.81,-549.96 730.81,-549.96"/>
<polygon fill="none" stroke="#29235c" points="730.81,-549.96 730.81,-609.96 1094.81,-609.96 1094.81,-549.96 730.81,-549.96"/>
<text text-anchor="start" x="741.48" y="-570.16" font-family="Helvetica,sans-Serif" font-size="32.00" fill="#29235c">updated_at &#160;&#160;&#160;</text>
<text text-anchor="start" x="936.53" y="-571.16" font-family="Helvetica,sans-Serif" font-style="italic" font-size="32.00" fill="#29235c">timestamp</text>
<polygon fill="none" stroke="#29235c" stroke-width="2" points="729.81,-548.96 729.81,-1030.96 1095.81,-1030.96 1095.81,-548.96 729.81,-548.96"/>
</g>
<!-- project_has_squads -->
<g id="project_has_squads" class="node">
<title>project_has_squads</title>
<ellipse fill="none" stroke="black" stroke-width="0" cx="308.3" cy="-636.96" rx="308.1" ry="172.57"/>
<polygon fill="#1d71b8" stroke="transparent" points="92.3,-696.96 92.3,-756.96 524.3,-756.96 524.3,-696.96 92.3,-696.96"/>
<polygon fill="none" stroke="#29235c" points="92.3,-696.96 92.3,-756.96 524.3,-756.96 524.3,-696.96 92.3,-696.96"/>
<text text-anchor="start" x="102.89" y="-718.16" font-family="Helvetica,sans-Serif" font-weight="bold" font-size="32.00" fill="#ffffff"> &#160;&#160;&#160;&#160;&#160;&#160;project_has_squads &#160;&#160;&#160;&#160;&#160;&#160;</text>
<polygon fill="#e7e2dd" stroke="transparent" points="92.3,-636.96 92.3,-696.96 524.3,-696.96 524.3,-636.96 92.3,-636.96"/>
<polygon fill="none" stroke="#29235c" points="92.3,-636.96 92.3,-696.96 524.3,-696.96 524.3,-636.96 92.3,-636.96"/>
<text text-anchor="start" x="103.3" y="-658.16" font-family="Helvetica,sans-Serif" font-weight="bold" font-size="32.00" fill="#29235c">id</text>
<text text-anchor="start" x="128.19" y="-658.16" font-family="Helvetica,sans-Serif" font-size="32.00" fill="#29235c"> &#160;&#160;&#160;</text>
<text text-anchor="start" x="479.52" y="-658.16" font-family="Helvetica,sans-Serif" font-style="italic" font-size="32.00" fill="#29235c">int</text>
<polygon fill="#e7e2dd" stroke="transparent" points="92.3,-576.96 92.3,-636.96 524.3,-636.96 524.3,-576.96 92.3,-576.96"/>
<polygon fill="none" stroke="#29235c" points="92.3,-576.96 92.3,-636.96 524.3,-636.96 524.3,-576.96 92.3,-576.96"/>
<text text-anchor="start" x="103.3" y="-597.16" font-family="Helvetica,sans-Serif" font-size="32.00" fill="#29235c">project_id &#160;&#160;&#160;</text>
<text text-anchor="start" x="479.52" y="-598.16" font-family="Helvetica,sans-Serif" font-style="italic" font-size="32.00" fill="#29235c">int</text>
<polygon fill="#e7e2dd" stroke="transparent" points="92.3,-516.96 92.3,-576.96 524.3,-576.96 524.3,-516.96 92.3,-516.96"/>
<polygon fill="none" stroke="#29235c" points="92.3,-516.96 92.3,-576.96 524.3,-576.96 524.3,-516.96 92.3,-516.96"/>
<text text-anchor="start" x="103.3" y="-537.16" font-family="Helvetica,sans-Serif" font-size="32.00" fill="#29235c">squad_id &#160;&#160;&#160;</text>
<text text-anchor="start" x="479.52" y="-538.16" font-family="Helvetica,sans-Serif" font-style="italic" font-size="32.00" fill="#29235c">int</text>
<polygon fill="none" stroke="#29235c" stroke-width="2" points="91.3,-515.96 91.3,-757.96 525.3,-757.96 525.3,-515.96 91.3,-515.96"/>
</g>
<!-- project_has_squads&#45;&gt;squads -->
<!-- project_has_squads&#45;&gt;squads -->
<g id="edge4" class="edge">
<title>project_has_squads:e&#45;&gt;squads:w</title>
<path fill="none" stroke="#29235c" stroke-width="3" d="M525.3,-546.96C673,-546.96 583.02,-287.56 719.58,-275.4"/>
<polygon fill="#29235c" stroke="#29235c" stroke-width="3" points="719.97,-278.89 729.81,-274.96 719.67,-271.89 719.97,-278.89"/>
<text text-anchor="middle" x="720.92" y="-246.16" font-family="Helvetica,sans-Serif" font-size="32.00" fill="#29235c">1</text>
<text text-anchor="middle" x="531.52" y="-518.16" font-family="Helvetica,sans-Serif" font-size="32.00" fill="#29235c">*</text>
</g>
<!-- project_has_squads&#45;&gt;projects -->
<!-- project_has_squads&#45;&gt;projects -->
<g id="edge2" class="edge">
<title>project_has_squads:e&#45;&gt;projects:w</title>
<path fill="none" stroke="#29235c" stroke-width="3" d="M525.3,-606.96C695.42,-606.96 561.86,-926.44 719.52,-939.55"/>
<polygon fill="#29235c" stroke="#29235c" stroke-width="3" points="719.68,-943.06 729.81,-939.96 719.96,-936.06 719.68,-943.06"/>
<text text-anchor="middle" x="720.92" y="-949.56" font-family="Helvetica,sans-Serif" font-size="32.00" fill="#29235c">1</text>
<text text-anchor="middle" x="531.52" y="-606.96" font-family="Helvetica,sans-Serif" font-size="32.00" fill="#29235c">*</text>
</g>
</g>
</svg>
