<?xml version="1.0" encoding="UTF-8" standalone="no"?>
<!DOCTYPE svg PUBLIC "-//W3C//DTD SVG 1.1//EN"
 "http://www.w3.org/Graphics/SVG/1.1/DTD/svg11.dtd">
<!-- Generated by graphviz version 2.47.0 (20210316.0004)
 -->
<!-- Title: dbml Pages: 1 -->
<svg width="1154pt" height="763pt"
 viewBox="0.00 0.00 1154.16 763.07" xmlns="http://www.w3.org/2000/svg" xmlns:xlink="http://www.w3.org/1999/xlink">
<g id="graph0" class="graph" transform="scale(1 1) rotate(0) translate(4 759.07)">
<title>dbml</title>
<!-- projects -->
<g id="projects" class="node">
<title>projects</title>
<ellipse fill="none" stroke="black" stroke-width="0" cx="885.94" cy="-257.39" rx="260.43" ry="257.27"/>
<polygon fill="#1d71b8" stroke="transparent" points="703.94,-377.39 703.94,-437.39 1067.94,-437.39 1067.94,-377.39 703.94,-377.39"/>
<polygon fill="none" stroke="#29235c" points="703.94,-377.39 703.94,-437.39 1067.94,-437.39 1067.94,-377.39 703.94,-377.39"/>
<text text-anchor="start" x="767.69" y="-398.59" font-family="Helvetica,sans-Serif" font-weight="bold" font-size="32.00" fill="#ffffff"> &#160;&#160;&#160;&#160;&#160;&#160;projects &#160;&#160;&#160;&#160;&#160;&#160;</text>
<polygon fill="#e7e2dd" stroke="transparent" points="703.94,-317.39 703.94,-377.39 1067.94,-377.39 1067.94,-317.39 703.94,-317.39"/>
<polygon fill="none" stroke="#29235c" points="703.94,-317.39 703.94,-377.39 1067.94,-377.39 1067.94,-317.39 703.94,-317.39"/>
<text text-anchor="start" x="714.94" y="-338.59" font-family="Helvetica,sans-Serif" font-weight="bold" font-size="32.00" fill="#29235c">id</text>
<text text-anchor="start" x="739.83" y="-338.59" font-family="Helvetica,sans-Serif" font-size="32.00" fill="#29235c"> &#160;&#160;&#160;</text>
<text text-anchor="start" x="1023.16" y="-338.59" font-family="Helvetica,sans-Serif" font-style="italic" font-size="32.00" fill="#29235c">int</text>
<polygon fill="#e7e2dd" stroke="transparent" points="703.94,-257.39 703.94,-317.39 1067.94,-317.39 1067.94,-257.39 703.94,-257.39"/>
<polygon fill="none" stroke="#29235c" points="703.94,-257.39 703.94,-317.39 1067.94,-317.39 1067.94,-257.39 703.94,-257.39"/>
<text text-anchor="start" x="714.94" y="-277.59" font-family="Helvetica,sans-Serif" font-size="32.00" fill="#29235c">name &#160;&#160;&#160;</text>
<text text-anchor="start" x="911.18" y="-278.59" font-family="Helvetica,sans-Serif" font-style="italic" font-size="32.00" fill="#29235c">varchar</text>
<text text-anchor="start" x="1017.85" y="-278.59" font-family="Helvetica,sans-Serif" font-size="32.00" fill="#29235c"> </text>
<text text-anchor="start" x="1026.74" y="-278.59" font-family="Helvetica,sans-Serif" font-weight="bold" font-size="32.00" fill="#29235c">(!)</text>
<polygon fill="#e7e2dd" stroke="transparent" points="703.94,-197.39 703.94,-257.39 1067.94,-257.39 1067.94,-197.39 703.94,-197.39"/>
<polygon fill="none" stroke="#29235c" points="703.94,-197.39 703.94,-257.39 1067.94,-257.39 1067.94,-197.39 703.94,-197.39"/>
<text text-anchor="start" x="714.94" y="-217.59" font-family="Helvetica,sans-Serif" font-size="32.00" fill="#29235c">code &#160;&#160;&#160;</text>
<text text-anchor="start" x="950.27" y="-218.59" font-family="Helvetica,sans-Serif" font-style="italic" font-size="32.00" fill="#29235c">varchar</text>
<polygon fill="#e7e2dd" stroke="transparent" points="703.94,-137.39 703.94,-197.39 1067.94,-197.39 1067.94,-137.39 703.94,-137.39"/>
<polygon fill="none" stroke="#29235c" points="703.94,-137.39 703.94,-197.39 1067.94,-197.39 1067.94,-137.39 703.94,-137.39"/>
<text text-anchor="start" x="714.94" y="-157.59" font-family="Helvetica,sans-Serif" font-size="32.00" fill="#29235c">created_at &#160;&#160;&#160;</text>
<text text-anchor="start" x="909.38" y="-158.59" font-family="Helvetica,sans-Serif" font-style="italic" font-size="32.00" fill="#29235c">timestamp</text>
<polygon fill="#e7e2dd" stroke="transparent" points="703.94,-77.39 703.94,-137.39 1067.94,-137.39 1067.94,-77.39 703.94,-77.39"/>
<polygon fill="none" stroke="#29235c" points="703.94,-77.39 703.94,-137.39 1067.94,-137.39 1067.94,-77.39 703.94,-77.39"/>
<text text-anchor="start" x="714.61" y="-97.59" font-family="Helvetica,sans-Serif" font-size="32.00" fill="#29235c">updated_at &#160;&#160;&#160;</text>
<text text-anchor="start" x="909.66" y="-98.59" font-family="Helvetica,sans-Serif" font-style="italic" font-size="32.00" fill="#29235c">timestamp</text>
<polygon fill="none" stroke="#29235c" stroke-width="2" points="702.94,-76.39 702.94,-438.39 1068.94,-438.39 1068.94,-76.39 702.94,-76.39"/>
</g>
<!-- project_milestones -->
<g id="project_milestones" class="node">
<title>project_milestones</title>
<ellipse fill="none" stroke="black" stroke-width="0" cx="294.86" cy="-281.39" rx="294.73" ry="87.86"/>
<polygon fill="#1d71b8" stroke="transparent" points="88.86,-281.39 88.86,-341.39 501.86,-341.39 501.86,-281.39 88.86,-281.39"/>
<polygon fill="none" stroke="#29235c" points="88.86,-281.39 88.86,-341.39 501.86,-341.39 501.86,-281.39 88.86,-281.39"/>
<text text-anchor="start" x="99.76" y="-302.59" font-family="Helvetica,sans-Serif" font-weight="bold" font-size="32.00" fill="#ffffff"> &#160;&#160;&#160;&#160;&#160;&#160;project_milestones &#160;&#160;&#160;&#160;&#160;&#160;</text>
<polygon fill="#e7e2dd" stroke="transparent" points="88.86,-221.39 88.86,-281.39 501.86,-281.39 501.86,-221.39 88.86,-221.39"/>
<polygon fill="none" stroke="#29235c" points="88.86,-221.39 88.86,-281.39 501.86,-281.39 501.86,-221.39 88.86,-221.39"/>
<text text-anchor="start" x="99.86" y="-241.59" font-family="Helvetica,sans-Serif" font-size="32.00" fill="#29235c">project_id &#160;&#160;&#160;</text>
<text text-anchor="start" x="457.08" y="-242.59" font-family="Helvetica,sans-Serif" font-style="italic" font-size="32.00" fill="#29235c">int</text>
<polygon fill="none" stroke="#29235c" stroke-width="2" points="87.36,-220.39 87.36,-342.39 502.36,-342.39 502.36,-220.39 87.36,-220.39"/>
</g>
<!-- project_milestones&#45;&gt;projects -->
<!-- project_milestones&#45;&gt;projects -->
<g id="edge2" class="edge">
<title>project_milestones:e&#45;&gt;projects:w</title>
<path fill="none" stroke="#29235c" stroke-width="3" d="M502.86,-251.39C598.03,-251.39 604,-340.76 692.89,-347.04"/>
<polygon fill="#29235c" stroke="#29235c" stroke-width="3" points="692.83,-350.54 702.94,-347.39 693.07,-343.54 692.83,-350.54"/>
<text text-anchor="middle" x="694.05" y="-356.99" font-family="Helvetica,sans-Serif" font-size="32.00" fill="#29235c">1</text>
<text text-anchor="middle" x="496.64" y="-260.99" font-family="Helvetica,sans-Serif" font-size="32.00" fill="#29235c">*</text>
</g>
<!-- products -->
<g id="products" class="node">
<title>products</title>
<ellipse fill="none" stroke="black" stroke-width="0" cx="294.86" cy="-88.39" rx="193.08" ry="87.86"/>
<polygon fill="#1d71b8" stroke="transparent" points="160.86,-88.39 160.86,-148.39 429.86,-148.39 429.86,-88.39 160.86,-88.39"/>
<polygon fill="none" stroke="#29235c" points="160.86,-88.39 160.86,-148.39 429.86,-148.39 429.86,-88.39 160.86,-88.39"/>
<text text-anchor="start" x="171.76" y="-109.59" font-family="Helvetica,sans-Serif" font-weight="bold" font-size="32.00" fill="#ffffff"> &#160;&#160;&#160;&#160;&#160;&#160;products &#160;&#160;&#160;&#160;&#160;&#160;</text>
<polygon fill="#e7e2dd" stroke="transparent" points="160.86,-28.39 160.86,-88.39 429.86,-88.39 429.86,-28.39 160.86,-28.39"/>
<polygon fill="none" stroke="#29235c" points="160.86,-28.39 160.86,-88.39 429.86,-88.39 429.86,-28.39 160.86,-28.39"/>
<text text-anchor="start" x="171.86" y="-48.59" font-family="Helvetica,sans-Serif" font-size="32.00" fill="#29235c">project_id &#160;&#160;&#160;</text>
<text text-anchor="start" x="385.08" y="-49.59" font-family="Helvetica,sans-Serif" font-style="italic" font-size="32.00" fill="#29235c">int</text>
<polygon fill="none" stroke="#29235c" stroke-width="2" points="159.36,-27.39 159.36,-149.39 430.36,-149.39 430.36,-27.39 159.36,-27.39"/>
</g>
<!-- products&#45;&gt;projects -->
<!-- products&#45;&gt;projects -->
<g id="edge4" class="edge">
<title>products:e&#45;&gt;projects:w</title>
<path fill="none" stroke="#29235c" stroke-width="3" d="M430.86,-58.39C520.98,-58.39 528.06,-118.67 589.73,-184.39 647.61,-246.07 617.48,-339.35 692.7,-346.9"/>
<polygon fill="#29235c" stroke="#29235c" stroke-width="3" points="692.79,-350.41 702.94,-347.39 693.12,-343.41 692.79,-350.41"/>
<text text-anchor="middle" x="711.84" y="-356.99" font-family="Helvetica,sans-Serif" font-size="32.00" fill="#29235c">1</text>
<text text-anchor="middle" x="424.64" y="-29.59" font-family="Helvetica,sans-Serif" font-size="32.00" fill="#29235c">*</text>
</g>
<!-- backlogs -->
<g id="backlogs" class="node">
<title>backlogs</title>
<ellipse fill="none" stroke="black" stroke-width="0" cx="294.86" cy="-667.39" rx="195.32" ry="87.86"/>
<polygon fill="#1d71b8" stroke="transparent" points="158.86,-667.39 158.86,-727.39 430.86,-727.39 430.86,-667.39 158.86,-667.39"/>
<polygon fill="none" stroke="#29235c" points="158.86,-667.39 158.86,-727.39 430.86,-727.39 430.86,-667.39 158.86,-667.39"/>
<text text-anchor="start" x="169.49" y="-688.59" font-family="Helvetica,sans-Serif" font-weight="bold" font-size="32.00" fill="#ffffff"> &#160;&#160;&#160;&#160;&#160;&#160;backlogs &#160;&#160;&#160;&#160;&#160;&#160;</text>
<polygon fill="#e7e2dd" stroke="transparent" points="158.86,-607.39 158.86,-667.39 430.86,-667.39 430.86,-607.39 158.86,-607.39"/>
<polygon fill="none" stroke="#29235c" points="158.86,-607.39 158.86,-667.39 430.86,-667.39 430.86,-607.39 158.86,-607.39"/>
<text text-anchor="start" x="169.86" y="-627.59" font-family="Helvetica,sans-Serif" font-size="32.00" fill="#29235c">project_id &#160;&#160;&#160;</text>
<text text-anchor="start" x="386.08" y="-628.59" font-family="Helvetica,sans-Serif" font-style="italic" font-size="32.00" fill="#29235c">int</text>
<polygon fill="none" stroke="#29235c" stroke-width="2" points="157.86,-606.39 157.86,-728.39 431.86,-728.39 431.86,-606.39 157.86,-606.39"/>
</g>
<!-- backlogs&#45;&gt;projects -->
<!-- backlogs&#45;&gt;projects -->
<g id="edge6" class="edge">
<title>backlogs:e&#45;&gt;projects:w</title>
<path fill="none" stroke="#29235c" stroke-width="3" d="M431.86,-637.39C507.91,-637.39 534.05,-623.19 589.73,-571.39 668.76,-497.85 596.38,-356.85 692.74,-347.84"/>
<polygon fill="#29235c" stroke="#29235c" stroke-width="3" points="693.11,-351.33 702.94,-347.39 692.8,-344.33 693.11,-351.33"/>
<text text-anchor="middle" x="694.05" y="-318.59" font-family="Helvetica,sans-Serif" font-size="32.00" fill="#29235c">1</text>
<text text-anchor="middle" x="425.64" y="-646.99" font-family="Helvetica,sans-Serif" font-size="32.00" fill="#29235c">*</text>
</g>
<!-- squads -->
<g id="squads" class="node">
<title>squads</title>
<ellipse fill="none" stroke="black" stroke-width="0" cx="294.86" cy="-474.39" rx="178.8" ry="87.86"/>
<polygon fill="#1d71b8" stroke="transparent" points="170.86,-474.39 170.86,-534.39 419.86,-534.39 419.86,-474.39 170.86,-474.39"/>
<polygon fill="none" stroke="#29235c" points="170.86,-474.39 170.86,-534.39 419.86,-534.39 419.86,-474.39 170.86,-474.39"/>
<text text-anchor="start" x="181.54" y="-495.59" font-family="Helvetica,sans-Serif" font-weight="bold" font-size="32.00" fill="#ffffff"> &#160;&#160;&#160;&#160;&#160;&#160;squads &#160;&#160;&#160;&#160;&#160;&#160;</text>
<polygon fill="#e7e2dd" stroke="transparent" points="170.86,-414.39 170.86,-474.39 419.86,-474.39 419.86,-414.39 170.86,-414.39"/>
<polygon fill="none" stroke="#29235c" points="170.86,-414.39 170.86,-474.39 419.86,-474.39 419.86,-414.39 170.86,-414.39"/>
<text text-anchor="start" x="181.86" y="-434.59" font-family="Helvetica,sans-Serif" font-size="32.00" fill="#29235c">project_id &#160;&#160;&#160;</text>
<text text-anchor="start" x="375.08" y="-435.59" font-family="Helvetica,sans-Serif" font-style="italic" font-size="32.00" fill="#29235c">int</text>
<polygon fill="none" stroke="#29235c" stroke-width="2" points="169.36,-413.39 169.36,-535.39 420.36,-535.39 420.36,-413.39 169.36,-413.39"/>
</g>
<!-- squads&#45;&gt;projects -->
<!-- squads&#45;&gt;projects -->
<g id="edge8" class="edge">
<title>squads:e&#45;&gt;projects:w</title>
<path fill="none" stroke="#29235c" stroke-width="3" d="M420.86,-444.39C549.94,-444.39 569.4,-352.43 692.69,-347.59"/>
<polygon fill="#29235c" stroke="#29235c" stroke-width="3" points="693.01,-351.08 702.94,-347.39 692.88,-344.08 693.01,-351.08"/>
<text text-anchor="middle" x="711.84" y="-318.59" font-family="Helvetica,sans-Serif" font-size="32.00" fill="#29235c">1</text>
<text text-anchor="middle" x="414.64" y="-453.99" font-family="Helvetica,sans-Serif" font-size="32.00" fill="#29235c">*</text>
</g>
</g>
</svg>
