<?xml version="1.0" encoding="UTF-8" standalone="no"?>
<!DOCTYPE svg PUBLIC "-//W3C//DTD SVG 1.1//EN"
 "http://www.w3.org/Graphics/SVG/1.1/DTD/svg11.dtd">
<!-- Generated by graphviz version 2.47.0 (20210316.0004)
 -->
<!-- Title: dbml Pages: 1 -->
<svg width="1154pt" height="666pt"
 viewBox="0.00 0.00 1154.16 666.07" xmlns="http://www.w3.org/2000/svg" xmlns:xlink="http://www.w3.org/1999/xlink">
<g id="graph0" class="graph" transform="scale(1 1) rotate(0) translate(4 662.07)">
<title>dbml</title>
<!-- projects -->
<g id="projects" class="node">
<title>projects</title>
<ellipse fill="none" stroke="black" stroke-width="0" cx="885.94" cy="-257.39" rx="260.43" ry="257.27"/>
<polygon fill="#1d71b8" stroke="transparent" points="703.94,-377.39 703.94,-437.39 1067.94,-437.39 1067.94,-377.39 703.94,-377.39"/>
<polygon fill="none" stroke="#29235c" points="703.94,-377.39 703.94,-437.39 1067.94,-437.39 1067.94,-377.39 703.94,-377.39"/>
<text text-anchor="start" x="767.69" y="-398.59" font-family="Helvetica,sans-Serif" font-weight="bold" font-size="32.00" fill="#ffffff"> &#160;&#160;&#160;&#160;&#160;&#160;projects &#160;&#160;&#160;&#160;&#160;&#160;</text>
<polygon fill="#e7e2dd" stroke="transparent" points="703.94,-317.39 703.94,-377.39 1067.94,-377.39 1067.94,-317.39 703.94,-317.39"/>
<polygon fill="none" stroke="#29235c" points="703.94,-317.39 703.94,-377.39 1067.94,-377.39 1067.94,-317.39 703.94,-317.39"/>
<text text-anchor="start" x="714.94" y="-338.59" font-family="Helvetica,sans-Serif" font-weight="bold" font-size="32.00" fill="#29235c">id</text>
<text text-anchor="start" x="739.83" y="-338.59" font-family="Helvetica,sans-Serif" font-size="32.00" fill="#29235c"> &#160;&#160;&#160;</text>
<text text-anchor="start" x="1023.16" y="-338.59" font-family="Helvetica,sans-Serif" font-style="italic" font-size="32.00" fill="#29235c">int</text>
<polygon fill="#e7e2dd" stroke="transparent" points="703.94,-257.39 703.94,-317.39 1067.94,-317.39 1067.94,-257.39 703.94,-257.39"/>
<polygon fill="none" stroke="#29235c" points="703.94,-257.39 703.94,-317.39 1067.94,-317.39 1067.94,-257.39 703.94,-257.39"/>
<text text-anchor="start" x="714.94" y="-277.59" font-family="Helvetica,sans-Serif" font-size="32.00" fill="#29235c">name &#160;&#160;&#160;</text>
<text text-anchor="start" x="911.18" y="-278.59" font-family="Helvetica,sans-Serif" font-style="italic" font-size="32.00" fill="#29235c">varchar</text>
<text text-anchor="start" x="1017.85" y="-278.59" font-family="Helvetica,sans-Serif" font-size="32.00" fill="#29235c"> </text>
<text text-anchor="start" x="1026.74" y="-278.59" font-family="Helvetica,sans-Serif" font-weight="bold" font-size="32.00" fill="#29235c">(!)</text>
<polygon fill="#e7e2dd" stroke="transparent" points="703.94,-197.39 703.94,-257.39 1067.94,-257.39 1067.94,-197.39 703.94,-197.39"/>
<polygon fill="none" stroke="#29235c" points="703.94,-197.39 703.94,-257.39 1067.94,-257.39 1067.94,-197.39 703.94,-197.39"/>
<text text-anchor="start" x="714.94" y="-217.59" font-family="Helvetica,sans-Serif" font-size="32.00" fill="#29235c">code &#160;&#160;&#160;</text>
<text text-anchor="start" x="950.27" y="-218.59" font-family="Helvetica,sans-Serif" font-style="italic" font-size="32.00" fill="#29235c">varchar</text>
<polygon fill="#e7e2dd" stroke="transparent" points="703.94,-137.39 703.94,-197.39 1067.94,-197.39 1067.94,-137.39 703.94,-137.39"/>
<polygon fill="none" stroke="#29235c" points="703.94,-137.39 703.94,-197.39 1067.94,-197.39 1067.94,-137.39 703.94,-137.39"/>
<text text-anchor="start" x="714.94" y="-157.59" font-family="Helvetica,sans-Serif" font-size="32.00" fill="#29235c">created_at &#160;&#160;&#160;</text>
<text text-anchor="start" x="909.38" y="-158.59" font-family="Helvetica,sans-Serif" font-style="italic" font-size="32.00" fill="#29235c">timestamp</text>
<polygon fill="#e7e2dd" stroke="transparent" points="703.94,-77.39 703.94,-137.39 1067.94,-137.39 1067.94,-77.39 703.94,-77.39"/>
<polygon fill="none" stroke="#29235c" points="703.94,-77.39 703.94,-137.39 1067.94,-137.39 1067.94,-77.39 703.94,-77.39"/>
<text text-anchor="start" x="714.61" y="-97.59" font-family="Helvetica,sans-Serif" font-size="32.00" fill="#29235c">updated_at &#160;&#160;&#160;</text>
<text text-anchor="start" x="909.66" y="-98.59" font-family="Helvetica,sans-Serif" font-style="italic" font-size="32.00" fill="#29235c">timestamp</text>
<polygon fill="none" stroke="#29235c" stroke-width="2" points="702.94,-76.39 702.94,-438.39 1068.94,-438.39 1068.94,-76.39 702.94,-76.39"/>
</g>
<!-- project_milestones -->
<g id="project_milestones" class="node">
<title>project_milestones</title>
<ellipse fill="none" stroke="black" stroke-width="0" cx="294.86" cy="-570.39" rx="294.73" ry="87.86"/>
<polygon fill="#1d71b8" stroke="transparent" points="88.86,-570.39 88.86,-630.39 501.86,-630.39 501.86,-570.39 88.86,-570.39"/>
<polygon fill="none" stroke="#29235c" points="88.86,-570.39 88.86,-630.39 501.86,-630.39 501.86,-570.39 88.86,-570.39"/>
<text text-anchor="start" x="99.76" y="-591.59" font-family="Helvetica,sans-Serif" font-weight="bold" font-size="32.00" fill="#ffffff"> &#160;&#160;&#160;&#160;&#160;&#160;project_milestones &#160;&#160;&#160;&#160;&#160;&#160;</text>
<polygon fill="#e7e2dd" stroke="transparent" points="88.86,-510.39 88.86,-570.39 501.86,-570.39 501.86,-510.39 88.86,-510.39"/>
<polygon fill="none" stroke="#29235c" points="88.86,-510.39 88.86,-570.39 501.86,-570.39 501.86,-510.39 88.86,-510.39"/>
<text text-anchor="start" x="99.86" y="-530.59" font-family="Helvetica,sans-Serif" font-size="32.00" fill="#29235c">project_id &#160;&#160;&#160;</text>
<text text-anchor="start" x="457.08" y="-531.59" font-family="Helvetica,sans-Serif" font-style="italic" font-size="32.00" fill="#29235c">int</text>
<polygon fill="none" stroke="#29235c" stroke-width="2" points="87.36,-509.39 87.36,-631.39 502.36,-631.39 502.36,-509.39 87.36,-509.39"/>
</g>
<!-- project_milestones&#45;&gt;projects -->
<!-- project_milestones&#45;&gt;projects -->
<g id="edge2" class="edge">
<title>project_milestones:e&#45;&gt;projects:w</title>
<path fill="none" stroke="#29235c" stroke-width="3" d="M502.86,-540.39C622.92,-540.39 581.92,-358.16 692.85,-347.84"/>
<polygon fill="#29235c" stroke="#29235c" stroke-width="3" points="693.11,-351.33 702.94,-347.39 692.79,-344.34 693.11,-351.33"/>
<text text-anchor="middle" x="694.05" y="-356.99" font-family="Helvetica,sans-Serif" font-size="32.00" fill="#29235c">1</text>
<text text-anchor="middle" x="496.64" y="-549.99" font-family="Helvetica,sans-Serif" font-size="32.00" fill="#29235c">*</text>
</g>
<!-- backlogs -->
<g id="backlogs" class="node">
<title>backlogs</title>
<ellipse fill="none" stroke="black" stroke-width="0" cx="294.86" cy="-377.39" rx="195.32" ry="87.86"/>
<polygon fill="#1d71b8" stroke="transparent" points="158.86,-377.39 158.86,-437.39 430.86,-437.39 430.86,-377.39 158.86,-377.39"/>
<polygon fill="none" stroke="#29235c" points="158.86,-377.39 158.86,-437.39 430.86,-437.39 430.86,-377.39 158.86,-377.39"/>
<text text-anchor="start" x="169.49" y="-398.59" font-family="Helvetica,sans-Serif" font-weight="bold" font-size="32.00" fill="#ffffff"> &#160;&#160;&#160;&#160;&#160;&#160;backlogs &#160;&#160;&#160;&#160;&#160;&#160;</text>
<polygon fill="#e7e2dd" stroke="transparent" points="158.86,-317.39 158.86,-377.39 430.86,-377.39 430.86,-317.39 158.86,-317.39"/>
<polygon fill="none" stroke="#29235c" points="158.86,-317.39 158.86,-377.39 430.86,-377.39 430.86,-317.39 158.86,-317.39"/>
<text text-anchor="start" x="169.86" y="-337.59" font-family="Helvetica,sans-Serif" font-size="32.00" fill="#29235c">project_id &#160;&#160;&#160;</text>
<text text-anchor="start" x="386.08" y="-338.59" font-family="Helvetica,sans-Serif" font-style="italic" font-size="32.00" fill="#29235c">int</text>
<polygon fill="none" stroke="#29235c" stroke-width="2" points="157.86,-316.39 157.86,-438.39 431.86,-438.39 431.86,-316.39 157.86,-316.39"/>
</g>
<!-- backlogs&#45;&gt;projects -->
<!-- backlogs&#45;&gt;projects -->
<g id="edge4" class="edge">
<title>backlogs:e&#45;&gt;projects:w</title>
<path fill="none" stroke="#29235c" stroke-width="3" d="M431.86,-347.39C548.93,-347.39 580.68,-347.39 692.92,-347.39"/>
<polygon fill="#29235c" stroke="#29235c" stroke-width="3" points="692.94,-350.89 702.94,-347.39 692.94,-343.89 692.94,-350.89"/>
<text text-anchor="middle" x="711.84" y="-356.99" font-family="Helvetica,sans-Serif" font-size="32.00" fill="#29235c">1</text>
<text text-anchor="middle" x="425.64" y="-356.99" font-family="Helvetica,sans-Serif" font-size="32.00" fill="#29235c">*</text>
</g>
<!-- squads -->
<g id="squads" class="node">
<title>squads</title>
<ellipse fill="none" stroke="black" stroke-width="0" cx="294.86" cy="-184.39" rx="178.8" ry="87.86"/>
<polygon fill="#1d71b8" stroke="transparent" points="170.86,-184.39 170.86,-244.39 419.86,-244.39 419.86,-184.39 170.86,-184.39"/>
<polygon fill="none" stroke="#29235c" points="170.86,-184.39 170.86,-244.39 419.86,-244.39 419.86,-184.39 170.86,-184.39"/>
<text text-anchor="start" x="181.54" y="-205.59" font-family="Helvetica,sans-Serif" font-weight="bold" font-size="32.00" fill="#ffffff"> &#160;&#160;&#160;&#160;&#160;&#160;squads &#160;&#160;&#160;&#160;&#160;&#160;</text>
<polygon fill="#e7e2dd" stroke="transparent" points="170.86,-124.39 170.86,-184.39 419.86,-184.39 419.86,-124.39 170.86,-124.39"/>
<polygon fill="none" stroke="#29235c" points="170.86,-124.39 170.86,-184.39 419.86,-184.39 419.86,-124.39 170.86,-124.39"/>
<text text-anchor="start" x="181.86" y="-144.59" font-family="Helvetica,sans-Serif" font-size="32.00" fill="#29235c">project_id &#160;&#160;&#160;</text>
<text text-anchor="start" x="375.08" y="-145.59" font-family="Helvetica,sans-Serif" font-style="italic" font-size="32.00" fill="#29235c">int</text>
<polygon fill="none" stroke="#29235c" stroke-width="2" points="169.36,-123.39 169.36,-245.39 420.36,-245.39 420.36,-123.39 169.36,-123.39"/>
</g>
<!-- squads&#45;&gt;projects -->
<!-- squads&#45;&gt;projects -->
<g id="edge6" class="edge">
<title>squads:e&#45;&gt;projects:w</title>
<path fill="none" stroke="#29235c" stroke-width="3" d="M420.86,-154.39C493.55,-154.39 615.9,-331.16 692.86,-346.35"/>
<polygon fill="#29235c" stroke="#29235c" stroke-width="3" points="692.64,-349.84 702.94,-347.39 693.35,-342.88 692.64,-349.84"/>
<text text-anchor="middle" x="694.05" y="-318.59" font-family="Helvetica,sans-Serif" font-size="32.00" fill="#29235c">1</text>
<text text-anchor="middle" x="414.64" y="-125.59" font-family="Helvetica,sans-Serif" font-size="32.00" fill="#29235c">*</text>
</g>
</g>
</svg>
