<?xml version="1.0" encoding="UTF-8" standalone="no"?>
<!DOCTYPE svg PUBLIC "-//W3C//DTD SVG 1.1//EN"
 "http://www.w3.org/Graphics/SVG/1.1/DTD/svg11.dtd">
<!-- Generated by graphviz version 2.47.0 (20210316.0004)
 -->
<!-- Title: dbml Pages: 1 -->
<svg width="1126pt" height="1394pt"
 viewBox="0.00 0.00 1125.87 1394.48" xmlns="http://www.w3.org/2000/svg" xmlns:xlink="http://www.w3.org/1999/xlink">
<g id="graph0" class="graph" transform="scale(1 1) rotate(0) translate(4 1390.48)">
<title>dbml</title>
<!-- projects -->
<g id="projects" class="node">
<title>projects</title>
<ellipse fill="none" stroke="black" stroke-width="0" cx="857.66" cy="-384.67" rx="260.43" ry="384.83"/>
<polygon fill="#1d71b8" stroke="transparent" points="675.66,-594.67 675.66,-654.67 1039.66,-654.67 1039.66,-594.67 675.66,-594.67"/>
<polygon fill="none" stroke="#29235c" points="675.66,-594.67 675.66,-654.67 1039.66,-654.67 1039.66,-594.67 675.66,-594.67"/>
<text text-anchor="start" x="739.4" y="-615.87" font-family="Helvetica,sans-Serif" font-weight="bold" font-size="32.00" fill="#ffffff"> &#160;&#160;&#160;&#160;&#160;&#160;projects &#160;&#160;&#160;&#160;&#160;&#160;</text>
<polygon fill="#e7e2dd" stroke="transparent" points="675.66,-534.67 675.66,-594.67 1039.66,-594.67 1039.66,-534.67 675.66,-534.67"/>
<polygon fill="none" stroke="#29235c" points="675.66,-534.67 675.66,-594.67 1039.66,-594.67 1039.66,-534.67 675.66,-534.67"/>
<text text-anchor="start" x="686.66" y="-555.87" font-family="Helvetica,sans-Serif" font-weight="bold" font-size="32.00" fill="#29235c">id</text>
<text text-anchor="start" x="711.55" y="-555.87" font-family="Helvetica,sans-Serif" font-size="32.00" fill="#29235c"> &#160;&#160;&#160;</text>
<text text-anchor="start" x="994.88" y="-555.87" font-family="Helvetica,sans-Serif" font-style="italic" font-size="32.00" fill="#29235c">int</text>
<polygon fill="#e7e2dd" stroke="transparent" points="675.66,-474.67 675.66,-534.67 1039.66,-534.67 1039.66,-474.67 675.66,-474.67"/>
<polygon fill="none" stroke="#29235c" points="675.66,-474.67 675.66,-534.67 1039.66,-534.67 1039.66,-474.67 675.66,-474.67"/>
<text text-anchor="start" x="686.66" y="-494.87" font-family="Helvetica,sans-Serif" font-size="32.00" fill="#29235c">name &#160;&#160;&#160;</text>
<text text-anchor="start" x="921.99" y="-495.87" font-family="Helvetica,sans-Serif" font-style="italic" font-size="32.00" fill="#29235c">varchar</text>
<polygon fill="#e7e2dd" stroke="transparent" points="675.66,-414.67 675.66,-474.67 1039.66,-474.67 1039.66,-414.67 675.66,-414.67"/>
<polygon fill="none" stroke="#29235c" points="675.66,-414.67 675.66,-474.67 1039.66,-474.67 1039.66,-414.67 675.66,-414.67"/>
<text text-anchor="start" x="686.66" y="-434.87" font-family="Helvetica,sans-Serif" font-size="32.00" fill="#29235c">description &#160;&#160;&#160;</text>
<text text-anchor="start" x="977.08" y="-435.87" font-family="Helvetica,sans-Serif" font-style="italic" font-size="32.00" fill="#29235c">text</text>
<polygon fill="#e7e2dd" stroke="transparent" points="675.66,-354.67 675.66,-414.67 1039.66,-414.67 1039.66,-354.67 675.66,-354.67"/>
<polygon fill="none" stroke="#29235c" points="675.66,-354.67 675.66,-414.67 1039.66,-414.67 1039.66,-354.67 675.66,-354.67"/>
<text text-anchor="start" x="686.66" y="-374.87" font-family="Helvetica,sans-Serif" font-size="32.00" fill="#29235c">start_date &#160;&#160;&#160;</text>
<text text-anchor="start" x="966.4" y="-375.87" font-family="Helvetica,sans-Serif" font-style="italic" font-size="32.00" fill="#29235c">date</text>
<polygon fill="#e7e2dd" stroke="transparent" points="675.66,-294.67 675.66,-354.67 1039.66,-354.67 1039.66,-294.67 675.66,-294.67"/>
<polygon fill="none" stroke="#29235c" points="675.66,-294.67 675.66,-354.67 1039.66,-354.67 1039.66,-294.67 675.66,-294.67"/>
<text text-anchor="start" x="686.66" y="-314.87" font-family="Helvetica,sans-Serif" font-size="32.00" fill="#29235c">end_date &#160;&#160;&#160;</text>
<text text-anchor="start" x="966.4" y="-315.87" font-family="Helvetica,sans-Serif" font-style="italic" font-size="32.00" fill="#29235c">date</text>
<polygon fill="#e7e2dd" stroke="transparent" points="675.66,-234.67 675.66,-294.67 1039.66,-294.67 1039.66,-234.67 675.66,-234.67"/>
<polygon fill="none" stroke="#29235c" points="675.66,-234.67 675.66,-294.67 1039.66,-294.67 1039.66,-234.67 675.66,-234.67"/>
<text text-anchor="start" x="686.66" y="-254.87" font-family="Helvetica,sans-Serif" font-size="32.00" fill="#29235c">divisi_id &#160;&#160;&#160;</text>
<text text-anchor="start" x="994.88" y="-255.87" font-family="Helvetica,sans-Serif" font-style="italic" font-size="32.00" fill="#29235c">int</text>
<polygon fill="#e7e2dd" stroke="transparent" points="675.66,-174.67 675.66,-234.67 1039.66,-234.67 1039.66,-174.67 675.66,-174.67"/>
<polygon fill="none" stroke="#29235c" points="675.66,-174.67 675.66,-234.67 1039.66,-234.67 1039.66,-174.67 675.66,-174.67"/>
<text text-anchor="start" x="686.66" y="-194.87" font-family="Helvetica,sans-Serif" font-size="32.00" fill="#29235c">created_at &#160;&#160;&#160;</text>
<text text-anchor="start" x="881.1" y="-195.87" font-family="Helvetica,sans-Serif" font-style="italic" font-size="32.00" fill="#29235c">timestamp</text>
<polygon fill="#e7e2dd" stroke="transparent" points="675.66,-114.67 675.66,-174.67 1039.66,-174.67 1039.66,-114.67 675.66,-114.67"/>
<polygon fill="none" stroke="#29235c" points="675.66,-114.67 675.66,-174.67 1039.66,-174.67 1039.66,-114.67 675.66,-114.67"/>
<text text-anchor="start" x="686.32" y="-134.87" font-family="Helvetica,sans-Serif" font-size="32.00" fill="#29235c">updated_at &#160;&#160;&#160;</text>
<text text-anchor="start" x="881.38" y="-135.87" font-family="Helvetica,sans-Serif" font-style="italic" font-size="32.00" fill="#29235c">timestamp</text>
<polygon fill="none" stroke="#29235c" stroke-width="2" points="674.66,-113.67 674.66,-655.67 1040.66,-655.67 1040.66,-113.67 674.66,-113.67"/>
</g>
<!-- users -->
<g id="users" class="node">
<title>users</title>
<ellipse fill="none" stroke="black" stroke-width="0" cx="857.66" cy="-1086.67" rx="260.43" ry="299.63"/>
<polygon fill="#1d71b8" stroke="transparent" points="675.66,-1236.67 675.66,-1296.67 1039.66,-1296.67 1039.66,-1236.67 675.66,-1236.67"/>
<polygon fill="none" stroke="#29235c" points="675.66,-1236.67 675.66,-1296.67 1039.66,-1296.67 1039.66,-1236.67 675.66,-1236.67"/>
<text text-anchor="start" x="756.29" y="-1257.87" font-family="Helvetica,sans-Serif" font-weight="bold" font-size="32.00" fill="#ffffff"> &#160;&#160;&#160;&#160;&#160;&#160;users &#160;&#160;&#160;&#160;&#160;&#160;</text>
<polygon fill="#e7e2dd" stroke="transparent" points="675.66,-1176.67 675.66,-1236.67 1039.66,-1236.67 1039.66,-1176.67 675.66,-1176.67"/>
<polygon fill="none" stroke="#29235c" points="675.66,-1176.67 675.66,-1236.67 1039.66,-1236.67 1039.66,-1176.67 675.66,-1176.67"/>
<text text-anchor="start" x="686.66" y="-1197.87" font-family="Helvetica,sans-Serif" font-weight="bold" font-size="32.00" fill="#29235c">id</text>
<text text-anchor="start" x="711.55" y="-1197.87" font-family="Helvetica,sans-Serif" font-size="32.00" fill="#29235c"> &#160;&#160;&#160;</text>
<text text-anchor="start" x="994.88" y="-1197.87" font-family="Helvetica,sans-Serif" font-style="italic" font-size="32.00" fill="#29235c">int</text>
<polygon fill="#e7e2dd" stroke="transparent" points="675.66,-1116.67 675.66,-1176.67 1039.66,-1176.67 1039.66,-1116.67 675.66,-1116.67"/>
<polygon fill="none" stroke="#29235c" points="675.66,-1116.67 675.66,-1176.67 1039.66,-1176.67 1039.66,-1116.67 675.66,-1116.67"/>
<text text-anchor="start" x="686.66" y="-1136.87" font-family="Helvetica,sans-Serif" font-size="32.00" fill="#29235c">username &#160;&#160;&#160;</text>
<text text-anchor="start" x="882.89" y="-1137.87" font-family="Helvetica,sans-Serif" font-style="italic" font-size="32.00" fill="#29235c">varchar</text>
<text text-anchor="start" x="989.57" y="-1137.87" font-family="Helvetica,sans-Serif" font-size="32.00" fill="#29235c"> </text>
<text text-anchor="start" x="998.46" y="-1137.87" font-family="Helvetica,sans-Serif" font-weight="bold" font-size="32.00" fill="#29235c">(!)</text>
<polygon fill="#e7e2dd" stroke="transparent" points="675.66,-1056.67 675.66,-1116.67 1039.66,-1116.67 1039.66,-1056.67 675.66,-1056.67"/>
<polygon fill="none" stroke="#29235c" points="675.66,-1056.67 675.66,-1116.67 1039.66,-1116.67 1039.66,-1056.67 675.66,-1056.67"/>
<text text-anchor="start" x="686.66" y="-1076.87" font-family="Helvetica,sans-Serif" font-size="32.00" fill="#29235c">email &#160;&#160;&#160;</text>
<text text-anchor="start" x="882.89" y="-1077.87" font-family="Helvetica,sans-Serif" font-style="italic" font-size="32.00" fill="#29235c">varchar</text>
<text text-anchor="start" x="989.57" y="-1077.87" font-family="Helvetica,sans-Serif" font-size="32.00" fill="#29235c"> </text>
<text text-anchor="start" x="998.46" y="-1077.87" font-family="Helvetica,sans-Serif" font-weight="bold" font-size="32.00" fill="#29235c">(!)</text>
<polygon fill="#e7e2dd" stroke="transparent" points="675.66,-996.67 675.66,-1056.67 1039.66,-1056.67 1039.66,-996.67 675.66,-996.67"/>
<polygon fill="none" stroke="#29235c" points="675.66,-996.67 675.66,-1056.67 1039.66,-1056.67 1039.66,-996.67 675.66,-996.67"/>
<text text-anchor="start" x="686.66" y="-1016.87" font-family="Helvetica,sans-Serif" font-size="32.00" fill="#29235c">password &#160;&#160;&#160;</text>
<text text-anchor="start" x="882.89" y="-1017.87" font-family="Helvetica,sans-Serif" font-style="italic" font-size="32.00" fill="#29235c">varchar</text>
<text text-anchor="start" x="989.57" y="-1017.87" font-family="Helvetica,sans-Serif" font-size="32.00" fill="#29235c"> </text>
<text text-anchor="start" x="998.46" y="-1017.87" font-family="Helvetica,sans-Serif" font-weight="bold" font-size="32.00" fill="#29235c">(!)</text>
<polygon fill="#e7e2dd" stroke="transparent" points="675.66,-936.67 675.66,-996.67 1039.66,-996.67 1039.66,-936.67 675.66,-936.67"/>
<polygon fill="none" stroke="#29235c" points="675.66,-936.67 675.66,-996.67 1039.66,-996.67 1039.66,-936.67 675.66,-936.67"/>
<text text-anchor="start" x="686.66" y="-956.87" font-family="Helvetica,sans-Serif" font-size="32.00" fill="#29235c">created_at &#160;&#160;&#160;</text>
<text text-anchor="start" x="881.1" y="-957.87" font-family="Helvetica,sans-Serif" font-style="italic" font-size="32.00" fill="#29235c">timestamp</text>
<polygon fill="#e7e2dd" stroke="transparent" points="675.66,-876.67 675.66,-936.67 1039.66,-936.67 1039.66,-876.67 675.66,-876.67"/>
<polygon fill="none" stroke="#29235c" points="675.66,-876.67 675.66,-936.67 1039.66,-936.67 1039.66,-876.67 675.66,-876.67"/>
<text text-anchor="start" x="686.32" y="-896.87" font-family="Helvetica,sans-Serif" font-size="32.00" fill="#29235c">updated_at &#160;&#160;&#160;</text>
<text text-anchor="start" x="881.38" y="-897.87" font-family="Helvetica,sans-Serif" font-style="italic" font-size="32.00" fill="#29235c">timestamp</text>
<polygon fill="none" stroke="#29235c" stroke-width="2" points="674.66,-875.67 674.66,-1297.67 1040.66,-1297.67 1040.66,-875.67 674.66,-875.67"/>
</g>
<!-- project_members -->
<g id="project_members" class="node">
<title>project_members</title>
<ellipse fill="none" stroke="black" stroke-width="0" cx="280.72" cy="-915.67" rx="280.94" ry="172.57"/>
<polygon fill="#1d71b8" stroke="transparent" points="84.72,-975.67 84.72,-1035.67 477.72,-1035.67 477.72,-975.67 84.72,-975.67"/>
<polygon fill="none" stroke="#29235c" points="84.72,-975.67 84.72,-1035.67 477.72,-1035.67 477.72,-975.67 84.72,-975.67"/>
<text text-anchor="start" x="95.41" y="-996.87" font-family="Helvetica,sans-Serif" font-weight="bold" font-size="32.00" fill="#ffffff"> &#160;&#160;&#160;&#160;&#160;&#160;project_members &#160;&#160;&#160;&#160;&#160;&#160;</text>
<polygon fill="#e7e2dd" stroke="transparent" points="84.72,-915.67 84.72,-975.67 477.72,-975.67 477.72,-915.67 84.72,-915.67"/>
<polygon fill="none" stroke="#29235c" points="84.72,-915.67 84.72,-975.67 477.72,-975.67 477.72,-915.67 84.72,-915.67"/>
<text text-anchor="start" x="95.72" y="-936.87" font-family="Helvetica,sans-Serif" font-weight="bold" font-size="32.00" fill="#29235c">id</text>
<text text-anchor="start" x="120.61" y="-936.87" font-family="Helvetica,sans-Serif" font-size="32.00" fill="#29235c"> &#160;&#160;&#160;</text>
<text text-anchor="start" x="432.94" y="-936.87" font-family="Helvetica,sans-Serif" font-style="italic" font-size="32.00" fill="#29235c">int</text>
<polygon fill="#e7e2dd" stroke="transparent" points="84.72,-855.67 84.72,-915.67 477.72,-915.67 477.72,-855.67 84.72,-855.67"/>
<polygon fill="none" stroke="#29235c" points="84.72,-855.67 84.72,-915.67 477.72,-915.67 477.72,-855.67 84.72,-855.67"/>
<text text-anchor="start" x="95.72" y="-875.87" font-family="Helvetica,sans-Serif" font-size="32.00" fill="#29235c">user_id &#160;&#160;&#160;</text>
<text text-anchor="start" x="432.94" y="-876.87" font-family="Helvetica,sans-Serif" font-style="italic" font-size="32.00" fill="#29235c">int</text>
<polygon fill="#e7e2dd" stroke="transparent" points="84.72,-795.67 84.72,-855.67 477.72,-855.67 477.72,-795.67 84.72,-795.67"/>
<polygon fill="none" stroke="#29235c" points="84.72,-795.67 84.72,-855.67 477.72,-855.67 477.72,-795.67 84.72,-795.67"/>
<text text-anchor="start" x="95.72" y="-815.87" font-family="Helvetica,sans-Serif" font-size="32.00" fill="#29235c">project_id &#160;&#160;&#160;</text>
<text text-anchor="start" x="432.94" y="-816.87" font-family="Helvetica,sans-Serif" font-style="italic" font-size="32.00" fill="#29235c">int</text>
<polygon fill="none" stroke="#29235c" stroke-width="2" points="83.22,-794.67 83.22,-1036.67 478.22,-1036.67 478.22,-794.67 83.22,-794.67"/>
</g>
<!-- project_members&#45;&gt;projects -->
<!-- project_members&#45;&gt;projects -->
<g id="edge4" class="edge">
<title>project_members:e&#45;&gt;projects:w</title>
<path fill="none" stroke="#29235c" stroke-width="3" d="M478.72,-825.67C620.23,-825.67 534.06,-577.25 664.46,-565.13"/>
<polygon fill="#29235c" stroke="#29235c" stroke-width="3" points="664.83,-568.61 674.66,-564.67 664.51,-561.62 664.83,-568.61"/>
<text text-anchor="middle" x="665.76" y="-535.87" font-family="Helvetica,sans-Serif" font-size="32.00" fill="#29235c">1</text>
<text text-anchor="middle" x="472.5" y="-835.27" font-family="Helvetica,sans-Serif" font-size="32.00" fill="#29235c">*</text>
</g>
<!-- project_members&#45;&gt;users -->
<!-- project_members&#45;&gt;users -->
<g id="edge2" class="edge">
<title>project_members:e&#45;&gt;users:w</title>
<path fill="none" stroke="#29235c" stroke-width="3" d="M478.72,-885.67C642.27,-885.67 513.32,-1193.02 664.3,-1206.23"/>
<polygon fill="#29235c" stroke="#29235c" stroke-width="3" points="664.52,-1209.74 674.66,-1206.67 664.81,-1202.75 664.52,-1209.74"/>
<text text-anchor="middle" x="665.76" y="-1216.27" font-family="Helvetica,sans-Serif" font-size="32.00" fill="#29235c">1</text>
<text text-anchor="middle" x="472.5" y="-895.27" font-family="Helvetica,sans-Serif" font-size="32.00" fill="#29235c">*</text>
</g>
</g>
</svg>
