<?xml version="1.0" encoding="UTF-8" standalone="no"?>
<!DOCTYPE svg PUBLIC "-//W3C//DTD SVG 1.1//EN"
 "http://www.w3.org/Graphics/SVG/1.1/DTD/svg11.dtd">
<!-- Generated by graphviz version 2.47.0 (20210316.0004)
 -->
<!-- Title: dbml Pages: 1 -->
<svg width="1085pt" height="1056pt"
 viewBox="0.00 0.00 1084.86 1055.77" xmlns="http://www.w3.org/2000/svg" xmlns:xlink="http://www.w3.org/1999/xlink">
<g id="graph0" class="graph" transform="scale(1 1) rotate(0) translate(4 1051.77)">
<title>dbml</title>
<!-- squads -->
<g id="squads" class="node">
<title>squads</title>
<ellipse fill="none" stroke="black" stroke-width="0" cx="816.65" cy="-257.39" rx="260.43" ry="257.27"/>
<polygon fill="#1d71b8" stroke="transparent" points="634.65,-377.39 634.65,-437.39 998.65,-437.39 998.65,-377.39 634.65,-377.39"/>
<polygon fill="none" stroke="#29235c" points="634.65,-377.39 634.65,-437.39 998.65,-437.39 998.65,-377.39 634.65,-377.39"/>
<text text-anchor="start" x="702.82" y="-398.59" font-family="Helvetica,sans-Serif" font-weight="bold" font-size="32.00" fill="#ffffff"> &#160;&#160;&#160;&#160;&#160;&#160;squads &#160;&#160;&#160;&#160;&#160;&#160;</text>
<polygon fill="#e7e2dd" stroke="transparent" points="634.65,-317.39 634.65,-377.39 998.65,-377.39 998.65,-317.39 634.65,-317.39"/>
<polygon fill="none" stroke="#29235c" points="634.65,-317.39 634.65,-377.39 998.65,-377.39 998.65,-317.39 634.65,-317.39"/>
<text text-anchor="start" x="645.65" y="-338.59" font-family="Helvetica,sans-Serif" font-weight="bold" font-size="32.00" fill="#29235c">id</text>
<text text-anchor="start" x="670.54" y="-338.59" font-family="Helvetica,sans-Serif" font-size="32.00" fill="#29235c"> &#160;&#160;&#160;</text>
<text text-anchor="start" x="953.86" y="-338.59" font-family="Helvetica,sans-Serif" font-style="italic" font-size="32.00" fill="#29235c">int</text>
<polygon fill="#e7e2dd" stroke="transparent" points="634.65,-257.39 634.65,-317.39 998.65,-317.39 998.65,-257.39 634.65,-257.39"/>
<polygon fill="none" stroke="#29235c" points="634.65,-257.39 634.65,-317.39 998.65,-317.39 998.65,-257.39 634.65,-257.39"/>
<text text-anchor="start" x="645.65" y="-277.59" font-family="Helvetica,sans-Serif" font-size="32.00" fill="#29235c">name &#160;&#160;&#160;</text>
<text text-anchor="start" x="880.97" y="-278.59" font-family="Helvetica,sans-Serif" font-style="italic" font-size="32.00" fill="#29235c">varchar</text>
<polygon fill="#e7e2dd" stroke="transparent" points="634.65,-197.39 634.65,-257.39 998.65,-257.39 998.65,-197.39 634.65,-197.39"/>
<polygon fill="none" stroke="#29235c" points="634.65,-197.39 634.65,-257.39 998.65,-257.39 998.65,-197.39 634.65,-197.39"/>
<text text-anchor="start" x="645.65" y="-217.59" font-family="Helvetica,sans-Serif" font-size="32.00" fill="#29235c">code &#160;&#160;&#160;</text>
<text text-anchor="start" x="880.97" y="-218.59" font-family="Helvetica,sans-Serif" font-style="italic" font-size="32.00" fill="#29235c">varchar</text>
<polygon fill="#e7e2dd" stroke="transparent" points="634.65,-137.39 634.65,-197.39 998.65,-197.39 998.65,-137.39 634.65,-137.39"/>
<polygon fill="none" stroke="#29235c" points="634.65,-137.39 634.65,-197.39 998.65,-197.39 998.65,-137.39 634.65,-137.39"/>
<text text-anchor="start" x="645.65" y="-157.59" font-family="Helvetica,sans-Serif" font-size="32.00" fill="#29235c">created_at &#160;&#160;&#160;</text>
<text text-anchor="start" x="840.09" y="-158.59" font-family="Helvetica,sans-Serif" font-style="italic" font-size="32.00" fill="#29235c">timestamp</text>
<polygon fill="#e7e2dd" stroke="transparent" points="634.65,-77.39 634.65,-137.39 998.65,-137.39 998.65,-77.39 634.65,-77.39"/>
<polygon fill="none" stroke="#29235c" points="634.65,-77.39 634.65,-137.39 998.65,-137.39 998.65,-77.39 634.65,-77.39"/>
<text text-anchor="start" x="645.31" y="-97.59" font-family="Helvetica,sans-Serif" font-size="32.00" fill="#29235c">updated_at &#160;&#160;&#160;</text>
<text text-anchor="start" x="840.37" y="-98.59" font-family="Helvetica,sans-Serif" font-style="italic" font-size="32.00" fill="#29235c">timestamp</text>
<polygon fill="none" stroke="#29235c" stroke-width="2" points="633.65,-76.39 633.65,-438.39 999.65,-438.39 999.65,-76.39 633.65,-76.39"/>
</g>
<!-- projects -->
<g id="projects" class="node">
<title>projects</title>
<ellipse fill="none" stroke="black" stroke-width="0" cx="816.65" cy="-790.39" rx="260.43" ry="257.27"/>
<polygon fill="#1d71b8" stroke="transparent" points="634.65,-910.39 634.65,-970.39 998.65,-970.39 998.65,-910.39 634.65,-910.39"/>
<polygon fill="none" stroke="#29235c" points="634.65,-910.39 634.65,-970.39 998.65,-970.39 998.65,-910.39 634.65,-910.39"/>
<text text-anchor="start" x="698.39" y="-931.59" font-family="Helvetica,sans-Serif" font-weight="bold" font-size="32.00" fill="#ffffff"> &#160;&#160;&#160;&#160;&#160;&#160;projects &#160;&#160;&#160;&#160;&#160;&#160;</text>
<polygon fill="#e7e2dd" stroke="transparent" points="634.65,-850.39 634.65,-910.39 998.65,-910.39 998.65,-850.39 634.65,-850.39"/>
<polygon fill="none" stroke="#29235c" points="634.65,-850.39 634.65,-910.39 998.65,-910.39 998.65,-850.39 634.65,-850.39"/>
<text text-anchor="start" x="645.65" y="-871.59" font-family="Helvetica,sans-Serif" font-weight="bold" font-size="32.00" fill="#29235c">id</text>
<text text-anchor="start" x="670.54" y="-871.59" font-family="Helvetica,sans-Serif" font-size="32.00" fill="#29235c"> &#160;&#160;&#160;</text>
<text text-anchor="start" x="953.86" y="-871.59" font-family="Helvetica,sans-Serif" font-style="italic" font-size="32.00" fill="#29235c">int</text>
<polygon fill="#e7e2dd" stroke="transparent" points="634.65,-790.39 634.65,-850.39 998.65,-850.39 998.65,-790.39 634.65,-790.39"/>
<polygon fill="none" stroke="#29235c" points="634.65,-790.39 634.65,-850.39 998.65,-850.39 998.65,-790.39 634.65,-790.39"/>
<text text-anchor="start" x="645.65" y="-810.59" font-family="Helvetica,sans-Serif" font-size="32.00" fill="#29235c">name &#160;&#160;&#160;</text>
<text text-anchor="start" x="841.88" y="-811.59" font-family="Helvetica,sans-Serif" font-style="italic" font-size="32.00" fill="#29235c">varchar</text>
<text text-anchor="start" x="948.55" y="-811.59" font-family="Helvetica,sans-Serif" font-size="32.00" fill="#29235c"> </text>
<text text-anchor="start" x="957.45" y="-811.59" font-family="Helvetica,sans-Serif" font-weight="bold" font-size="32.00" fill="#29235c">(!)</text>
<polygon fill="#e7e2dd" stroke="transparent" points="634.65,-730.39 634.65,-790.39 998.65,-790.39 998.65,-730.39 634.65,-730.39"/>
<polygon fill="none" stroke="#29235c" points="634.65,-730.39 634.65,-790.39 998.65,-790.39 998.65,-730.39 634.65,-730.39"/>
<text text-anchor="start" x="645.65" y="-750.59" font-family="Helvetica,sans-Serif" font-size="32.00" fill="#29235c">code &#160;&#160;&#160;</text>
<text text-anchor="start" x="880.97" y="-751.59" font-family="Helvetica,sans-Serif" font-style="italic" font-size="32.00" fill="#29235c">varchar</text>
<polygon fill="#e7e2dd" stroke="transparent" points="634.65,-670.39 634.65,-730.39 998.65,-730.39 998.65,-670.39 634.65,-670.39"/>
<polygon fill="none" stroke="#29235c" points="634.65,-670.39 634.65,-730.39 998.65,-730.39 998.65,-670.39 634.65,-670.39"/>
<text text-anchor="start" x="645.65" y="-690.59" font-family="Helvetica,sans-Serif" font-size="32.00" fill="#29235c">created_at &#160;&#160;&#160;</text>
<text text-anchor="start" x="840.09" y="-691.59" font-family="Helvetica,sans-Serif" font-style="italic" font-size="32.00" fill="#29235c">timestamp</text>
<polygon fill="#e7e2dd" stroke="transparent" points="634.65,-610.39 634.65,-670.39 998.65,-670.39 998.65,-610.39 634.65,-610.39"/>
<polygon fill="none" stroke="#29235c" points="634.65,-610.39 634.65,-670.39 998.65,-670.39 998.65,-610.39 634.65,-610.39"/>
<text text-anchor="start" x="645.31" y="-630.59" font-family="Helvetica,sans-Serif" font-size="32.00" fill="#29235c">updated_at &#160;&#160;&#160;</text>
<text text-anchor="start" x="840.37" y="-631.59" font-family="Helvetica,sans-Serif" font-style="italic" font-size="32.00" fill="#29235c">timestamp</text>
<polygon fill="none" stroke="#29235c" stroke-width="2" points="633.65,-609.39 633.65,-971.39 999.65,-971.39 999.65,-609.39 633.65,-609.39"/>
</g>
<!-- project_squads -->
<g id="project_squads" class="node">
<title>project_squads</title>
<ellipse fill="none" stroke="black" stroke-width="0" cx="260.22" cy="-583.39" rx="260.43" ry="257.27"/>
<polygon fill="#1d71b8" stroke="transparent" points="78.22,-703.39 78.22,-763.39 442.22,-763.39 442.22,-703.39 78.22,-703.39"/>
<polygon fill="none" stroke="#29235c" points="78.22,-703.39 78.22,-763.39 442.22,-763.39 442.22,-703.39 78.22,-703.39"/>
<text text-anchor="start" x="89.49" y="-724.59" font-family="Helvetica,sans-Serif" font-weight="bold" font-size="32.00" fill="#ffffff"> &#160;&#160;&#160;&#160;&#160;&#160;project_squads &#160;&#160;&#160;&#160;&#160;&#160;</text>
<polygon fill="#e7e2dd" stroke="transparent" points="78.22,-643.39 78.22,-703.39 442.22,-703.39 442.22,-643.39 78.22,-643.39"/>
<polygon fill="none" stroke="#29235c" points="78.22,-643.39 78.22,-703.39 442.22,-703.39 442.22,-643.39 78.22,-643.39"/>
<text text-anchor="start" x="89.22" y="-664.59" font-family="Helvetica,sans-Serif" font-weight="bold" font-size="32.00" fill="#29235c">id</text>
<text text-anchor="start" x="114.1" y="-664.59" font-family="Helvetica,sans-Serif" font-size="32.00" fill="#29235c"> &#160;&#160;&#160;</text>
<text text-anchor="start" x="397.43" y="-664.59" font-family="Helvetica,sans-Serif" font-style="italic" font-size="32.00" fill="#29235c">int</text>
<polygon fill="#e7e2dd" stroke="transparent" points="78.22,-583.39 78.22,-643.39 442.22,-643.39 442.22,-583.39 78.22,-583.39"/>
<polygon fill="none" stroke="#29235c" points="78.22,-583.39 78.22,-643.39 442.22,-643.39 442.22,-583.39 78.22,-583.39"/>
<text text-anchor="start" x="89.22" y="-603.59" font-family="Helvetica,sans-Serif" font-size="32.00" fill="#29235c">project_id &#160;&#160;&#160;</text>
<text text-anchor="start" x="397.43" y="-604.59" font-family="Helvetica,sans-Serif" font-style="italic" font-size="32.00" fill="#29235c">int</text>
<polygon fill="#e7e2dd" stroke="transparent" points="78.22,-523.39 78.22,-583.39 442.22,-583.39 442.22,-523.39 78.22,-523.39"/>
<polygon fill="none" stroke="#29235c" points="78.22,-523.39 78.22,-583.39 442.22,-583.39 442.22,-523.39 78.22,-523.39"/>
<text text-anchor="start" x="89.22" y="-543.59" font-family="Helvetica,sans-Serif" font-size="32.00" fill="#29235c">squad_id &#160;&#160;&#160;</text>
<text text-anchor="start" x="397.43" y="-544.59" font-family="Helvetica,sans-Serif" font-style="italic" font-size="32.00" fill="#29235c">int</text>
<polygon fill="#e7e2dd" stroke="transparent" points="78.22,-463.39 78.22,-523.39 442.22,-523.39 442.22,-463.39 78.22,-463.39"/>
<polygon fill="none" stroke="#29235c" points="78.22,-463.39 78.22,-523.39 442.22,-523.39 442.22,-463.39 78.22,-463.39"/>
<text text-anchor="start" x="89.22" y="-483.59" font-family="Helvetica,sans-Serif" font-size="32.00" fill="#29235c">created_at &#160;&#160;&#160;</text>
<text text-anchor="start" x="283.66" y="-484.59" font-family="Helvetica,sans-Serif" font-style="italic" font-size="32.00" fill="#29235c">timestamp</text>
<polygon fill="#e7e2dd" stroke="transparent" points="78.22,-403.39 78.22,-463.39 442.22,-463.39 442.22,-403.39 78.22,-403.39"/>
<polygon fill="none" stroke="#29235c" points="78.22,-403.39 78.22,-463.39 442.22,-463.39 442.22,-403.39 78.22,-403.39"/>
<text text-anchor="start" x="88.88" y="-423.59" font-family="Helvetica,sans-Serif" font-size="32.00" fill="#29235c">updated_at &#160;&#160;&#160;</text>
<text text-anchor="start" x="283.94" y="-424.59" font-family="Helvetica,sans-Serif" font-style="italic" font-size="32.00" fill="#29235c">timestamp</text>
<polygon fill="none" stroke="#29235c" stroke-width="2" points="77.22,-402.39 77.22,-764.39 443.22,-764.39 443.22,-402.39 77.22,-402.39"/>
</g>
<!-- project_squads&#45;&gt;squads -->
<!-- project_squads&#45;&gt;squads -->
<g id="edge4" class="edge">
<title>project_squads:e&#45;&gt;squads:w</title>
<path fill="none" stroke="#29235c" stroke-width="3" d="M443.22,-553.39C564.37,-553.39 512.15,-358.89 623.49,-347.87"/>
<polygon fill="#29235c" stroke="#29235c" stroke-width="3" points="623.82,-351.36 633.65,-347.39 623.49,-344.37 623.82,-351.36"/>
<text text-anchor="middle" x="642.54" y="-347.39" font-family="Helvetica,sans-Serif" font-size="32.00" fill="#29235c">1</text>
<text text-anchor="middle" x="449.44" y="-524.59" font-family="Helvetica,sans-Serif" font-size="32.00" fill="#29235c">*</text>
</g>
<!-- project_squads&#45;&gt;projects -->
<!-- project_squads&#45;&gt;projects -->
<g id="edge2" class="edge">
<title>project_squads:e&#45;&gt;projects:w</title>
<path fill="none" stroke="#29235c" stroke-width="3" d="M443.22,-613.39C585.41,-613.39 492.68,-867.51 623.4,-879.92"/>
<polygon fill="#29235c" stroke="#29235c" stroke-width="3" points="623.5,-883.42 633.65,-880.39 623.82,-876.43 623.5,-883.42"/>
<text text-anchor="middle" x="624.75" y="-889.99" font-family="Helvetica,sans-Serif" font-size="32.00" fill="#29235c">1</text>
<text text-anchor="middle" x="449.44" y="-584.59" font-family="Helvetica,sans-Serif" font-size="32.00" fill="#29235c">*</text>
</g>
</g>
</svg>
