<?xml version="1.0" encoding="UTF-8" standalone="no"?>
<!DOCTYPE svg PUBLIC "-//W3C//DTD SVG 1.1//EN"
 "http://www.w3.org/Graphics/SVG/1.1/DTD/svg11.dtd">
<!-- Generated by graphviz version 2.47.0 (20210316.0004)
 -->
<!-- Title: dbml Pages: 1 -->
<svg width="1025pt" height="1148pt"
 viewBox="0.00 0.00 1025.46 1148.36" xmlns="http://www.w3.org/2000/svg" xmlns:xlink="http://www.w3.org/1999/xlink">
<g id="graph0" class="graph" transform="scale(1 1) rotate(0) translate(4 1144.36)">
<title>dbml</title>
<!-- projects -->
<g id="projects" class="node">
<title>projects</title>
<ellipse fill="none" stroke="black" stroke-width="0" cx="773.51" cy="-449.68" rx="243.9" ry="257.27"/>
<polygon fill="#1d71b8" stroke="transparent" points="603.51,-569.68 603.51,-629.68 944.51,-629.68 944.51,-569.68 603.51,-569.68"/>
<polygon fill="none" stroke="#29235c" points="603.51,-569.68 603.51,-629.68 944.51,-629.68 944.51,-569.68 603.51,-569.68"/>
<text text-anchor="start" x="655.76" y="-590.88" font-family="Helvetica,sans-Serif" font-weight="bold" font-size="32.00" fill="#ffffff"> &#160;&#160;&#160;&#160;&#160;&#160;projects &#160;&#160;&#160;&#160;&#160;&#160;</text>
<polygon fill="#e7e2dd" stroke="transparent" points="603.51,-509.68 603.51,-569.68 944.51,-569.68 944.51,-509.68 603.51,-509.68"/>
<polygon fill="none" stroke="#29235c" points="603.51,-509.68 603.51,-569.68 944.51,-569.68 944.51,-509.68 603.51,-509.68"/>
<text text-anchor="start" x="614.51" y="-530.88" font-family="Helvetica,sans-Serif" font-weight="bold" font-size="32.00" fill="#29235c">id</text>
<text text-anchor="start" x="639.4" y="-530.88" font-family="Helvetica,sans-Serif" font-size="32.00" fill="#29235c"> &#160;&#160;&#160;</text>
<text text-anchor="start" x="899.73" y="-530.88" font-family="Helvetica,sans-Serif" font-style="italic" font-size="32.00" fill="#29235c">int</text>
<polygon fill="#e7e2dd" stroke="transparent" points="603.51,-449.68 603.51,-509.68 944.51,-509.68 944.51,-449.68 603.51,-449.68"/>
<polygon fill="none" stroke="#29235c" points="603.51,-449.68 603.51,-509.68 944.51,-509.68 944.51,-449.68 603.51,-449.68"/>
<text text-anchor="start" x="614.51" y="-469.88" font-family="Helvetica,sans-Serif" font-size="32.00" fill="#29235c">nama &#160;&#160;&#160;</text>
<text text-anchor="start" x="787.75" y="-470.88" font-family="Helvetica,sans-Serif" font-style="italic" font-size="32.00" fill="#29235c">varchar</text>
<text text-anchor="start" x="894.42" y="-470.88" font-family="Helvetica,sans-Serif" font-size="32.00" fill="#29235c"> </text>
<text text-anchor="start" x="903.31" y="-470.88" font-family="Helvetica,sans-Serif" font-weight="bold" font-size="32.00" fill="#29235c">(!)</text>
<polygon fill="#e7e2dd" stroke="transparent" points="603.51,-389.68 603.51,-449.68 944.51,-449.68 944.51,-389.68 603.51,-389.68"/>
<polygon fill="none" stroke="#29235c" points="603.51,-389.68 603.51,-449.68 944.51,-449.68 944.51,-389.68 603.51,-389.68"/>
<text text-anchor="start" x="614.51" y="-409.88" font-family="Helvetica,sans-Serif" font-size="32.00" fill="#29235c">deskripsi &#160;&#160;&#160;</text>
<text text-anchor="start" x="881.94" y="-410.88" font-family="Helvetica,sans-Serif" font-style="italic" font-size="32.00" fill="#29235c">text</text>
<polygon fill="#e7e2dd" stroke="transparent" points="603.51,-329.68 603.51,-389.68 944.51,-389.68 944.51,-329.68 603.51,-329.68"/>
<polygon fill="none" stroke="#29235c" points="603.51,-329.68 603.51,-389.68 944.51,-389.68 944.51,-329.68 603.51,-329.68"/>
<text text-anchor="start" x="614.51" y="-349.88" font-family="Helvetica,sans-Serif" font-size="32.00" fill="#29235c">tanggal_mulai &#160;&#160;&#160;</text>
<text text-anchor="start" x="871.25" y="-350.88" font-family="Helvetica,sans-Serif" font-style="italic" font-size="32.00" fill="#29235c">date</text>
<polygon fill="#e7e2dd" stroke="transparent" points="603.51,-269.68 603.51,-329.68 944.51,-329.68 944.51,-269.68 603.51,-269.68"/>
<polygon fill="none" stroke="#29235c" points="603.51,-269.68 603.51,-329.68 944.51,-329.68 944.51,-269.68 603.51,-269.68"/>
<text text-anchor="start" x="614.08" y="-289.88" font-family="Helvetica,sans-Serif" font-size="32.00" fill="#29235c">tanggal_selesai &#160;&#160;&#160;</text>
<text text-anchor="start" x="871.38" y="-290.88" font-family="Helvetica,sans-Serif" font-style="italic" font-size="32.00" fill="#29235c">date</text>
<polygon fill="none" stroke="#29235c" stroke-width="2" points="602.01,-268.68 602.01,-630.68 945.01,-630.68 945.01,-268.68 602.01,-268.68"/>
</g>
<!-- attachments -->
<g id="attachments" class="node">
<title>attachments</title>
<ellipse fill="none" stroke="black" stroke-width="0" cx="246.78" cy="-1052.68" rx="229.21" ry="87.86"/>
<polygon fill="#1d71b8" stroke="transparent" points="86.78,-1052.68 86.78,-1112.68 406.78,-1112.68 406.78,-1052.68 86.78,-1052.68"/>
<polygon fill="none" stroke="#29235c" points="86.78,-1052.68 86.78,-1112.68 406.78,-1112.68 406.78,-1052.68 86.78,-1052.68"/>
<text text-anchor="start" x="97.39" y="-1073.88" font-family="Helvetica,sans-Serif" font-weight="bold" font-size="32.00" fill="#ffffff"> &#160;&#160;&#160;&#160;&#160;&#160;attachments &#160;&#160;&#160;&#160;&#160;&#160;</text>
<polygon fill="#e7e2dd" stroke="transparent" points="86.78,-992.68 86.78,-1052.68 406.78,-1052.68 406.78,-992.68 86.78,-992.68"/>
<polygon fill="none" stroke="#29235c" points="86.78,-992.68 86.78,-1052.68 406.78,-1052.68 406.78,-992.68 86.78,-992.68"/>
<text text-anchor="start" x="97.78" y="-1012.88" font-family="Helvetica,sans-Serif" font-size="32.00" fill="#29235c">project_id &#160;&#160;&#160;</text>
<text text-anchor="start" x="362" y="-1013.88" font-family="Helvetica,sans-Serif" font-style="italic" font-size="32.00" fill="#29235c">int</text>
<polygon fill="none" stroke="#29235c" stroke-width="2" points="85.78,-991.68 85.78,-1113.68 407.78,-1113.68 407.78,-991.68 85.78,-991.68"/>
</g>
<!-- attachments&#45;&gt;projects -->
<!-- attachments&#45;&gt;projects -->
<g id="edge2" class="edge">
<title>attachments:e&#45;&gt;projects:w</title>
<path fill="none" stroke="#29235c" stroke-width="3" d="M407.78,-1022.68C635.73,-1022.68 379.06,-554.19 592.34,-540.01"/>
<polygon fill="#29235c" stroke="#29235c" stroke-width="3" points="592.63,-543.5 602.51,-539.68 592.4,-536.51 592.63,-543.5"/>
<text text-anchor="middle" x="611.41" y="-549.28" font-family="Helvetica,sans-Serif" font-size="32.00" fill="#29235c">1</text>
<text text-anchor="middle" x="414" y="-1032.28" font-family="Helvetica,sans-Serif" font-size="32.00" fill="#29235c">*</text>
</g>
<!-- documents -->
<g id="documents" class="node">
<title>documents</title>
<ellipse fill="none" stroke="black" stroke-width="0" cx="246.78" cy="-859.68" rx="216.25" ry="87.86"/>
<polygon fill="#1d71b8" stroke="transparent" points="95.78,-859.68 95.78,-919.68 397.78,-919.68 397.78,-859.68 95.78,-859.68"/>
<polygon fill="none" stroke="#29235c" points="95.78,-859.68 95.78,-919.68 397.78,-919.68 397.78,-859.68 95.78,-859.68"/>
<text text-anchor="start" x="106.29" y="-880.88" font-family="Helvetica,sans-Serif" font-weight="bold" font-size="32.00" fill="#ffffff"> &#160;&#160;&#160;&#160;&#160;&#160;documents &#160;&#160;&#160;&#160;&#160;&#160;</text>
<polygon fill="#e7e2dd" stroke="transparent" points="95.78,-799.68 95.78,-859.68 397.78,-859.68 397.78,-799.68 95.78,-799.68"/>
<polygon fill="none" stroke="#29235c" points="95.78,-799.68 95.78,-859.68 397.78,-859.68 397.78,-799.68 95.78,-799.68"/>
<text text-anchor="start" x="106.78" y="-819.88" font-family="Helvetica,sans-Serif" font-size="32.00" fill="#29235c">project_id &#160;&#160;&#160;</text>
<text text-anchor="start" x="353" y="-820.88" font-family="Helvetica,sans-Serif" font-style="italic" font-size="32.00" fill="#29235c">int</text>
<polygon fill="none" stroke="#29235c" stroke-width="2" points="94.78,-798.68 94.78,-920.68 398.78,-920.68 398.78,-798.68 94.78,-798.68"/>
</g>
<!-- documents&#45;&gt;projects -->
<!-- documents&#45;&gt;projects -->
<g id="edge4" class="edge">
<title>documents:e&#45;&gt;projects:w</title>
<path fill="none" stroke="#29235c" stroke-width="3" d="M398.78,-829.68C450.11,-829.68 460.19,-802.69 493.56,-763.68 563.2,-682.26 496.41,-548.64 592.37,-540.11"/>
<polygon fill="#29235c" stroke="#29235c" stroke-width="3" points="592.67,-543.6 602.51,-539.68 592.37,-536.61 592.67,-543.6"/>
<text text-anchor="middle" x="611.41" y="-510.88" font-family="Helvetica,sans-Serif" font-size="32.00" fill="#29235c">1</text>
<text text-anchor="middle" x="405" y="-839.28" font-family="Helvetica,sans-Serif" font-size="32.00" fill="#29235c">*</text>
</g>
<!-- scrum_sprints -->
<g id="scrum_sprints" class="node">
<title>scrum_sprints</title>
<ellipse fill="none" stroke="black" stroke-width="0" cx="246.78" cy="-666.68" rx="246.56" ry="87.86"/>
<polygon fill="#1d71b8" stroke="transparent" points="74.78,-666.68 74.78,-726.68 419.78,-726.68 419.78,-666.68 74.78,-666.68"/>
<polygon fill="none" stroke="#29235c" points="74.78,-666.68 74.78,-726.68 419.78,-726.68 419.78,-666.68 74.78,-666.68"/>
<text text-anchor="start" x="85.48" y="-687.88" font-family="Helvetica,sans-Serif" font-weight="bold" font-size="32.00" fill="#ffffff"> &#160;&#160;&#160;&#160;&#160;&#160;scrum_sprints &#160;&#160;&#160;&#160;&#160;&#160;</text>
<polygon fill="#e7e2dd" stroke="transparent" points="74.78,-606.68 74.78,-666.68 419.78,-666.68 419.78,-606.68 74.78,-606.68"/>
<polygon fill="none" stroke="#29235c" points="74.78,-606.68 74.78,-666.68 419.78,-666.68 419.78,-606.68 74.78,-606.68"/>
<text text-anchor="start" x="85.78" y="-626.88" font-family="Helvetica,sans-Serif" font-size="32.00" fill="#29235c">project_id &#160;&#160;&#160;</text>
<text text-anchor="start" x="375" y="-627.88" font-family="Helvetica,sans-Serif" font-style="italic" font-size="32.00" fill="#29235c">int</text>
<polygon fill="none" stroke="#29235c" stroke-width="2" points="73.28,-605.68 73.28,-727.68 420.28,-727.68 420.28,-605.68 73.28,-605.68"/>
</g>
<!-- scrum_sprints&#45;&gt;projects -->
<!-- scrum_sprints&#45;&gt;projects -->
<g id="edge6" class="edge">
<title>scrum_sprints:e&#45;&gt;projects:w</title>
<path fill="none" stroke="#29235c" stroke-width="3" d="M420.78,-636.68C508.76,-636.68 510.92,-547.11 592.2,-540.11"/>
<polygon fill="#29235c" stroke="#29235c" stroke-width="3" points="592.67,-543.6 602.51,-539.68 592.37,-536.6 592.67,-543.6"/>
<text text-anchor="middle" x="593.62" y="-549.28" font-family="Helvetica,sans-Serif" font-size="32.00" fill="#29235c">1</text>
<text text-anchor="middle" x="427" y="-646.28" font-family="Helvetica,sans-Serif" font-size="32.00" fill="#29235c">*</text>
</g>
<!-- scrum_tasks -->
<g id="scrum_tasks" class="node">
<title>scrum_tasks</title>
<ellipse fill="none" stroke="black" stroke-width="0" cx="246.78" cy="-473.68" rx="233.19" ry="87.86"/>
<polygon fill="#1d71b8" stroke="transparent" points="83.78,-473.68 83.78,-533.68 409.78,-533.68 409.78,-473.68 83.78,-473.68"/>
<polygon fill="none" stroke="#29235c" points="83.78,-473.68 83.78,-533.68 409.78,-533.68 409.78,-473.68 83.78,-473.68"/>
<text text-anchor="start" x="94.75" y="-494.88" font-family="Helvetica,sans-Serif" font-weight="bold" font-size="32.00" fill="#ffffff"> &#160;&#160;&#160;&#160;&#160;&#160;scrum_tasks &#160;&#160;&#160;&#160;&#160;&#160;</text>
<polygon fill="#e7e2dd" stroke="transparent" points="83.78,-413.68 83.78,-473.68 409.78,-473.68 409.78,-413.68 83.78,-413.68"/>
<polygon fill="none" stroke="#29235c" points="83.78,-413.68 83.78,-473.68 409.78,-473.68 409.78,-413.68 83.78,-413.68"/>
<text text-anchor="start" x="94.78" y="-433.88" font-family="Helvetica,sans-Serif" font-size="32.00" fill="#29235c">project_id &#160;&#160;&#160;</text>
<text text-anchor="start" x="365" y="-434.88" font-family="Helvetica,sans-Serif" font-style="italic" font-size="32.00" fill="#29235c">int</text>
<polygon fill="none" stroke="#29235c" stroke-width="2" points="82.78,-412.68 82.78,-534.68 410.78,-534.68 410.78,-412.68 82.78,-412.68"/>
</g>
<!-- scrum_tasks&#45;&gt;projects -->
<!-- scrum_tasks&#45;&gt;projects -->
<g id="edge8" class="edge">
<title>scrum_tasks:e&#45;&gt;projects:w</title>
<path fill="none" stroke="#29235c" stroke-width="3" d="M410.78,-443.68C502.54,-443.68 507,-532.69 592.28,-539.29"/>
<polygon fill="#29235c" stroke="#29235c" stroke-width="3" points="592.39,-542.8 602.51,-539.68 592.65,-535.81 592.39,-542.8"/>
<text text-anchor="middle" x="593.62" y="-510.88" font-family="Helvetica,sans-Serif" font-size="32.00" fill="#29235c">1</text>
<text text-anchor="middle" x="417" y="-453.28" font-family="Helvetica,sans-Serif" font-size="32.00" fill="#29235c">*</text>
</g>
<!-- squads -->
<g id="squads" class="node">
<title>squads</title>
<ellipse fill="none" stroke="black" stroke-width="0" cx="246.78" cy="-280.68" rx="178.8" ry="87.86"/>
<polygon fill="#1d71b8" stroke="transparent" points="122.78,-280.68 122.78,-340.68 371.78,-340.68 371.78,-280.68 122.78,-280.68"/>
<polygon fill="none" stroke="#29235c" points="122.78,-280.68 122.78,-340.68 371.78,-340.68 371.78,-280.68 122.78,-280.68"/>
<text text-anchor="start" x="133.45" y="-301.88" font-family="Helvetica,sans-Serif" font-weight="bold" font-size="32.00" fill="#ffffff"> &#160;&#160;&#160;&#160;&#160;&#160;squads &#160;&#160;&#160;&#160;&#160;&#160;</text>
<polygon fill="#e7e2dd" stroke="transparent" points="122.78,-220.68 122.78,-280.68 371.78,-280.68 371.78,-220.68 122.78,-220.68"/>
<polygon fill="none" stroke="#29235c" points="122.78,-220.68 122.78,-280.68 371.78,-280.68 371.78,-220.68 122.78,-220.68"/>
<text text-anchor="start" x="133.78" y="-240.88" font-family="Helvetica,sans-Serif" font-size="32.00" fill="#29235c">project_id &#160;&#160;&#160;</text>
<text text-anchor="start" x="327" y="-241.88" font-family="Helvetica,sans-Serif" font-style="italic" font-size="32.00" fill="#29235c">int</text>
<polygon fill="none" stroke="#29235c" stroke-width="2" points="121.28,-219.68 121.28,-341.68 372.28,-341.68 372.28,-219.68 121.28,-219.68"/>
</g>
<!-- squads&#45;&gt;projects -->
<!-- squads&#45;&gt;projects -->
<g id="edge10" class="edge">
<title>squads:e&#45;&gt;projects:w</title>
<path fill="none" stroke="#29235c" stroke-width="3" d="M372.78,-250.68C450.35,-250.68 444.98,-316.2 493.56,-376.68 545.89,-441.83 517.91,-531.93 592.38,-539.21"/>
<polygon fill="#29235c" stroke="#29235c" stroke-width="3" points="592.36,-542.71 602.51,-539.68 592.69,-535.72 592.36,-542.71"/>
<text text-anchor="middle" x="611.41" y="-549.28" font-family="Helvetica,sans-Serif" font-size="32.00" fill="#29235c">1</text>
<text text-anchor="middle" x="379" y="-260.28" font-family="Helvetica,sans-Serif" font-size="32.00" fill="#29235c">*</text>
</g>
<!-- user_stories -->
<g id="user_stories" class="node">
<title>user_stories</title>
<ellipse fill="none" stroke="black" stroke-width="0" cx="246.78" cy="-87.68" rx="229.21" ry="87.86"/>
<polygon fill="#1d71b8" stroke="transparent" points="86.78,-87.68 86.78,-147.68 406.78,-147.68 406.78,-87.68 86.78,-87.68"/>
<polygon fill="none" stroke="#29235c" points="86.78,-87.68 86.78,-147.68 406.78,-147.68 406.78,-87.68 86.78,-87.68"/>
<text text-anchor="start" x="97.41" y="-108.88" font-family="Helvetica,sans-Serif" font-weight="bold" font-size="32.00" fill="#ffffff"> &#160;&#160;&#160;&#160;&#160;&#160;user_stories &#160;&#160;&#160;&#160;&#160;&#160;</text>
<polygon fill="#e7e2dd" stroke="transparent" points="86.78,-27.68 86.78,-87.68 406.78,-87.68 406.78,-27.68 86.78,-27.68"/>
<polygon fill="none" stroke="#29235c" points="86.78,-27.68 86.78,-87.68 406.78,-87.68 406.78,-27.68 86.78,-27.68"/>
<text text-anchor="start" x="97.78" y="-47.88" font-family="Helvetica,sans-Serif" font-size="32.00" fill="#29235c">project_id &#160;&#160;&#160;</text>
<text text-anchor="start" x="362" y="-48.88" font-family="Helvetica,sans-Serif" font-style="italic" font-size="32.00" fill="#29235c">int</text>
<polygon fill="none" stroke="#29235c" stroke-width="2" points="85.78,-26.68 85.78,-148.68 407.78,-148.68 407.78,-26.68 85.78,-26.68"/>
</g>
<!-- user_stories&#45;&gt;projects -->
<!-- user_stories&#45;&gt;projects -->
<g id="edge12" class="edge">
<title>user_stories:e&#45;&gt;projects:w</title>
<path fill="none" stroke="#29235c" stroke-width="3" d="M407.78,-57.68C635.33,-57.68 379.45,-525.2 592.36,-539.35"/>
<polygon fill="#29235c" stroke="#29235c" stroke-width="3" points="592.4,-542.86 602.51,-539.68 592.63,-535.86 592.4,-542.86"/>
<text text-anchor="middle" x="611.41" y="-510.88" font-family="Helvetica,sans-Serif" font-size="32.00" fill="#29235c">1</text>
<text text-anchor="middle" x="414" y="-28.88" font-family="Helvetica,sans-Serif" font-size="32.00" fill="#29235c">*</text>
</g>
</g>
</svg>
