<?xml version="1.0" encoding="UTF-8" standalone="no"?>
<!DOCTYPE svg PUBLIC "-//W3C//DTD SVG 1.1//EN"
 "http://www.w3.org/Graphics/SVG/1.1/DTD/svg11.dtd">
<!-- Generated by graphviz version 2.47.0 (20210316.0004)
 -->
<!-- Title: dbml Pages: 1 -->
<svg width="1085pt" height="777pt"
 viewBox="0.00 0.00 1084.86 777.33" xmlns="http://www.w3.org/2000/svg" xmlns:xlink="http://www.w3.org/1999/xlink">
<g id="graph0" class="graph" transform="scale(1 1) rotate(0) translate(4 773.33)">
<title>dbml</title>
<!-- divisi -->
<g id="divisi" class="node">
<title>divisi</title>
<ellipse fill="none" stroke="black" stroke-width="0" cx="816.65" cy="-474.67" rx="260.43" ry="257.27"/>
<polygon fill="#1d71b8" stroke="transparent" points="634.65,-594.67 634.65,-654.67 998.65,-654.67 998.65,-594.67 634.65,-594.67"/>
<polygon fill="none" stroke="#29235c" points="634.65,-594.67 634.65,-654.67 998.65,-654.67 998.65,-594.67 634.65,-594.67"/>
<text text-anchor="start" x="718.85" y="-615.87" font-family="Helvetica,sans-Serif" font-weight="bold" font-size="32.00" fill="#ffffff"> &#160;&#160;&#160;&#160;&#160;&#160;divisi &#160;&#160;&#160;&#160;&#160;&#160;</text>
<polygon fill="#e7e2dd" stroke="transparent" points="634.65,-534.67 634.65,-594.67 998.65,-594.67 998.65,-534.67 634.65,-534.67"/>
<polygon fill="none" stroke="#29235c" points="634.65,-534.67 634.65,-594.67 998.65,-594.67 998.65,-534.67 634.65,-534.67"/>
<text text-anchor="start" x="645.65" y="-555.87" font-family="Helvetica,sans-Serif" font-weight="bold" font-size="32.00" fill="#29235c">id</text>
<text text-anchor="start" x="670.54" y="-555.87" font-family="Helvetica,sans-Serif" font-size="32.00" fill="#29235c"> &#160;&#160;&#160;</text>
<text text-anchor="start" x="953.86" y="-555.87" font-family="Helvetica,sans-Serif" font-style="italic" font-size="32.00" fill="#29235c">int</text>
<polygon fill="#e7e2dd" stroke="transparent" points="634.65,-474.67 634.65,-534.67 998.65,-534.67 998.65,-474.67 634.65,-474.67"/>
<polygon fill="none" stroke="#29235c" points="634.65,-474.67 634.65,-534.67 998.65,-534.67 998.65,-474.67 634.65,-474.67"/>
<text text-anchor="start" x="645.65" y="-494.87" font-family="Helvetica,sans-Serif" font-size="32.00" fill="#29235c">name &#160;&#160;&#160;</text>
<text text-anchor="start" x="880.97" y="-495.87" font-family="Helvetica,sans-Serif" font-style="italic" font-size="32.00" fill="#29235c">varchar</text>
<polygon fill="#e7e2dd" stroke="transparent" points="634.65,-414.67 634.65,-474.67 998.65,-474.67 998.65,-414.67 634.65,-414.67"/>
<polygon fill="none" stroke="#29235c" points="634.65,-414.67 634.65,-474.67 998.65,-474.67 998.65,-414.67 634.65,-414.67"/>
<text text-anchor="start" x="645.65" y="-434.87" font-family="Helvetica,sans-Serif" font-size="32.00" fill="#29235c">code &#160;&#160;&#160;</text>
<text text-anchor="start" x="880.97" y="-435.87" font-family="Helvetica,sans-Serif" font-style="italic" font-size="32.00" fill="#29235c">varchar</text>
<polygon fill="#e7e2dd" stroke="transparent" points="634.65,-354.67 634.65,-414.67 998.65,-414.67 998.65,-354.67 634.65,-354.67"/>
<polygon fill="none" stroke="#29235c" points="634.65,-354.67 634.65,-414.67 998.65,-414.67 998.65,-354.67 634.65,-354.67"/>
<text text-anchor="start" x="645.65" y="-374.87" font-family="Helvetica,sans-Serif" font-size="32.00" fill="#29235c">created_at &#160;&#160;&#160;</text>
<text text-anchor="start" x="840.09" y="-375.87" font-family="Helvetica,sans-Serif" font-style="italic" font-size="32.00" fill="#29235c">timestamp</text>
<polygon fill="#e7e2dd" stroke="transparent" points="634.65,-294.67 634.65,-354.67 998.65,-354.67 998.65,-294.67 634.65,-294.67"/>
<polygon fill="none" stroke="#29235c" points="634.65,-294.67 634.65,-354.67 998.65,-354.67 998.65,-294.67 634.65,-294.67"/>
<text text-anchor="start" x="645.31" y="-314.87" font-family="Helvetica,sans-Serif" font-size="32.00" fill="#29235c">updated_at &#160;&#160;&#160;</text>
<text text-anchor="start" x="840.37" y="-315.87" font-family="Helvetica,sans-Serif" font-style="italic" font-size="32.00" fill="#29235c">timestamp</text>
<polygon fill="none" stroke="#29235c" stroke-width="2" points="633.65,-293.67 633.65,-655.67 999.65,-655.67 999.65,-293.67 633.65,-293.67"/>
</g>
<!-- projects -->
<g id="projects" class="node">
<title>projects</title>
<ellipse fill="none" stroke="black" stroke-width="0" cx="260.22" cy="-384.67" rx="260.43" ry="384.83"/>
<polygon fill="#1d71b8" stroke="transparent" points="78.22,-594.67 78.22,-654.67 442.22,-654.67 442.22,-594.67 78.22,-594.67"/>
<polygon fill="none" stroke="#29235c" points="78.22,-594.67 78.22,-654.67 442.22,-654.67 442.22,-594.67 78.22,-594.67"/>
<text text-anchor="start" x="141.96" y="-615.87" font-family="Helvetica,sans-Serif" font-weight="bold" font-size="32.00" fill="#ffffff"> &#160;&#160;&#160;&#160;&#160;&#160;projects &#160;&#160;&#160;&#160;&#160;&#160;</text>
<polygon fill="#e7e2dd" stroke="transparent" points="78.22,-534.67 78.22,-594.67 442.22,-594.67 442.22,-534.67 78.22,-534.67"/>
<polygon fill="none" stroke="#29235c" points="78.22,-534.67 78.22,-594.67 442.22,-594.67 442.22,-534.67 78.22,-534.67"/>
<text text-anchor="start" x="89.22" y="-555.87" font-family="Helvetica,sans-Serif" font-weight="bold" font-size="32.00" fill="#29235c">id</text>
<text text-anchor="start" x="114.1" y="-555.87" font-family="Helvetica,sans-Serif" font-size="32.00" fill="#29235c"> &#160;&#160;&#160;</text>
<text text-anchor="start" x="397.43" y="-555.87" font-family="Helvetica,sans-Serif" font-style="italic" font-size="32.00" fill="#29235c">int</text>
<polygon fill="#e7e2dd" stroke="transparent" points="78.22,-474.67 78.22,-534.67 442.22,-534.67 442.22,-474.67 78.22,-474.67"/>
<polygon fill="none" stroke="#29235c" points="78.22,-474.67 78.22,-534.67 442.22,-534.67 442.22,-474.67 78.22,-474.67"/>
<text text-anchor="start" x="89.22" y="-494.87" font-family="Helvetica,sans-Serif" font-size="32.00" fill="#29235c">name &#160;&#160;&#160;</text>
<text text-anchor="start" x="324.54" y="-495.87" font-family="Helvetica,sans-Serif" font-style="italic" font-size="32.00" fill="#29235c">varchar</text>
<polygon fill="#e7e2dd" stroke="transparent" points="78.22,-414.67 78.22,-474.67 442.22,-474.67 442.22,-414.67 78.22,-414.67"/>
<polygon fill="none" stroke="#29235c" points="78.22,-414.67 78.22,-474.67 442.22,-474.67 442.22,-414.67 78.22,-414.67"/>
<text text-anchor="start" x="89.22" y="-434.87" font-family="Helvetica,sans-Serif" font-size="32.00" fill="#29235c">description &#160;&#160;&#160;</text>
<text text-anchor="start" x="379.64" y="-435.87" font-family="Helvetica,sans-Serif" font-style="italic" font-size="32.00" fill="#29235c">text</text>
<polygon fill="#e7e2dd" stroke="transparent" points="78.22,-354.67 78.22,-414.67 442.22,-414.67 442.22,-354.67 78.22,-354.67"/>
<polygon fill="none" stroke="#29235c" points="78.22,-354.67 78.22,-414.67 442.22,-414.67 442.22,-354.67 78.22,-354.67"/>
<text text-anchor="start" x="89.22" y="-374.87" font-family="Helvetica,sans-Serif" font-size="32.00" fill="#29235c">start_date &#160;&#160;&#160;</text>
<text text-anchor="start" x="368.96" y="-375.87" font-family="Helvetica,sans-Serif" font-style="italic" font-size="32.00" fill="#29235c">date</text>
<polygon fill="#e7e2dd" stroke="transparent" points="78.22,-294.67 78.22,-354.67 442.22,-354.67 442.22,-294.67 78.22,-294.67"/>
<polygon fill="none" stroke="#29235c" points="78.22,-294.67 78.22,-354.67 442.22,-354.67 442.22,-294.67 78.22,-294.67"/>
<text text-anchor="start" x="89.22" y="-314.87" font-family="Helvetica,sans-Serif" font-size="32.00" fill="#29235c">end_date &#160;&#160;&#160;</text>
<text text-anchor="start" x="368.96" y="-315.87" font-family="Helvetica,sans-Serif" font-style="italic" font-size="32.00" fill="#29235c">date</text>
<polygon fill="#e7e2dd" stroke="transparent" points="78.22,-234.67 78.22,-294.67 442.22,-294.67 442.22,-234.67 78.22,-234.67"/>
<polygon fill="none" stroke="#29235c" points="78.22,-234.67 78.22,-294.67 442.22,-294.67 442.22,-234.67 78.22,-234.67"/>
<text text-anchor="start" x="89.22" y="-254.87" font-family="Helvetica,sans-Serif" font-size="32.00" fill="#29235c">divisi_id &#160;&#160;&#160;</text>
<text text-anchor="start" x="397.43" y="-255.87" font-family="Helvetica,sans-Serif" font-style="italic" font-size="32.00" fill="#29235c">int</text>
<polygon fill="#e7e2dd" stroke="transparent" points="78.22,-174.67 78.22,-234.67 442.22,-234.67 442.22,-174.67 78.22,-174.67"/>
<polygon fill="none" stroke="#29235c" points="78.22,-174.67 78.22,-234.67 442.22,-234.67 442.22,-174.67 78.22,-174.67"/>
<text text-anchor="start" x="89.22" y="-194.87" font-family="Helvetica,sans-Serif" font-size="32.00" fill="#29235c">created_at &#160;&#160;&#160;</text>
<text text-anchor="start" x="283.66" y="-195.87" font-family="Helvetica,sans-Serif" font-style="italic" font-size="32.00" fill="#29235c">timestamp</text>
<polygon fill="#e7e2dd" stroke="transparent" points="78.22,-114.67 78.22,-174.67 442.22,-174.67 442.22,-114.67 78.22,-114.67"/>
<polygon fill="none" stroke="#29235c" points="78.22,-114.67 78.22,-174.67 442.22,-174.67 442.22,-114.67 78.22,-114.67"/>
<text text-anchor="start" x="88.88" y="-134.87" font-family="Helvetica,sans-Serif" font-size="32.00" fill="#29235c">updated_at &#160;&#160;&#160;</text>
<text text-anchor="start" x="283.94" y="-135.87" font-family="Helvetica,sans-Serif" font-style="italic" font-size="32.00" fill="#29235c">timestamp</text>
<polygon fill="none" stroke="#29235c" stroke-width="2" points="77.22,-113.67 77.22,-655.67 443.22,-655.67 443.22,-113.67 77.22,-113.67"/>
</g>
<!-- projects&#45;&gt;divisi -->
<!-- projects&#45;&gt;divisi -->
<g id="edge2" class="edge">
<title>projects:e&#45;&gt;divisi:w</title>
<path fill="none" stroke="#29235c" stroke-width="3" d="M443.22,-264.67C597.6,-264.67 481.21,-551.34 623.43,-564.22"/>
<polygon fill="#29235c" stroke="#29235c" stroke-width="3" points="623.5,-567.73 633.65,-564.67 623.81,-560.73 623.5,-567.73"/>
<text text-anchor="middle" x="624.75" y="-574.27" font-family="Helvetica,sans-Serif" font-size="32.00" fill="#29235c">1</text>
<text text-anchor="middle" x="449.44" y="-235.87" font-family="Helvetica,sans-Serif" font-size="32.00" fill="#29235c">*</text>
</g>
</g>
</svg>
