<?xml version="1.0" encoding="UTF-8" standalone="no"?>
<!DOCTYPE svg PUBLIC "-//W3C//DTD SVG 1.1//EN"
 "http://www.w3.org/Graphics/SVG/1.1/DTD/svg11.dtd">
<!-- Generated by graphviz version 2.47.0 (20210316.0004)
 -->
<!-- Title: dbml Pages: 1 -->
<svg width="1493pt" height="523pt"
 viewBox="0.00 0.00 1492.80 522.77" xmlns="http://www.w3.org/2000/svg" xmlns:xlink="http://www.w3.org/1999/xlink">
<g id="graph0" class="graph" transform="scale(1 1) rotate(0) translate(4 518.77)">
<title>dbml</title>
<!-- modules -->
<g id="modules" class="node">
<title>modules</title>
<ellipse fill="none" stroke="black" stroke-width="0" cx="1224.58" cy="-257.39" rx="260.43" ry="257.27"/>
<polygon fill="#1d71b8" stroke="transparent" points="1042.58,-377.39 1042.58,-437.39 1406.58,-437.39 1406.58,-377.39 1042.58,-377.39"/>
<polygon fill="none" stroke="#29235c" points="1042.58,-377.39 1042.58,-437.39 1406.58,-437.39 1406.58,-377.39 1042.58,-377.39"/>
<text text-anchor="start" x="1101.88" y="-398.59" font-family="Helvetica,sans-Serif" font-weight="bold" font-size="32.00" fill="#ffffff"> &#160;&#160;&#160;&#160;&#160;&#160;modules &#160;&#160;&#160;&#160;&#160;&#160;</text>
<polygon fill="#e7e2dd" stroke="transparent" points="1042.58,-317.39 1042.58,-377.39 1406.58,-377.39 1406.58,-317.39 1042.58,-317.39"/>
<polygon fill="none" stroke="#29235c" points="1042.58,-317.39 1042.58,-377.39 1406.58,-377.39 1406.58,-317.39 1042.58,-317.39"/>
<text text-anchor="start" x="1053.58" y="-338.59" font-family="Helvetica,sans-Serif" font-weight="bold" font-size="32.00" fill="#29235c">id</text>
<text text-anchor="start" x="1078.47" y="-338.59" font-family="Helvetica,sans-Serif" font-size="32.00" fill="#29235c"> &#160;&#160;&#160;</text>
<text text-anchor="start" x="1361.8" y="-338.59" font-family="Helvetica,sans-Serif" font-style="italic" font-size="32.00" fill="#29235c">int</text>
<polygon fill="#e7e2dd" stroke="transparent" points="1042.58,-257.39 1042.58,-317.39 1406.58,-317.39 1406.58,-257.39 1042.58,-257.39"/>
<polygon fill="none" stroke="#29235c" points="1042.58,-257.39 1042.58,-317.39 1406.58,-317.39 1406.58,-257.39 1042.58,-257.39"/>
<text text-anchor="start" x="1053.58" y="-277.59" font-family="Helvetica,sans-Serif" font-size="32.00" fill="#29235c">name &#160;&#160;&#160;</text>
<text text-anchor="start" x="1317.36" y="-278.59" font-family="Helvetica,sans-Serif" font-style="italic" font-size="32.00" fill="#29235c">string</text>
<polygon fill="#e7e2dd" stroke="transparent" points="1042.58,-197.39 1042.58,-257.39 1406.58,-257.39 1406.58,-197.39 1042.58,-197.39"/>
<polygon fill="none" stroke="#29235c" points="1042.58,-197.39 1042.58,-257.39 1406.58,-257.39 1406.58,-197.39 1042.58,-197.39"/>
<text text-anchor="start" x="1053.58" y="-217.59" font-family="Helvetica,sans-Serif" font-size="32.00" fill="#29235c">slug &#160;&#160;&#160;</text>
<text text-anchor="start" x="1317.36" y="-218.59" font-family="Helvetica,sans-Serif" font-style="italic" font-size="32.00" fill="#29235c">string</text>
<polygon fill="#e7e2dd" stroke="transparent" points="1042.58,-137.39 1042.58,-197.39 1406.58,-197.39 1406.58,-137.39 1042.58,-137.39"/>
<polygon fill="none" stroke="#29235c" points="1042.58,-137.39 1042.58,-197.39 1406.58,-197.39 1406.58,-137.39 1042.58,-137.39"/>
<text text-anchor="start" x="1053.58" y="-157.59" font-family="Helvetica,sans-Serif" font-size="32.00" fill="#29235c">created_at &#160;&#160;&#160;</text>
<text text-anchor="start" x="1248.03" y="-158.59" font-family="Helvetica,sans-Serif" font-style="italic" font-size="32.00" fill="#29235c">timestamp</text>
<polygon fill="#e7e2dd" stroke="transparent" points="1042.58,-77.39 1042.58,-137.39 1406.58,-137.39 1406.58,-77.39 1042.58,-77.39"/>
<polygon fill="none" stroke="#29235c" points="1042.58,-77.39 1042.58,-137.39 1406.58,-137.39 1406.58,-77.39 1042.58,-77.39"/>
<text text-anchor="start" x="1053.25" y="-97.59" font-family="Helvetica,sans-Serif" font-size="32.00" fill="#29235c">updated_at &#160;&#160;&#160;</text>
<text text-anchor="start" x="1248.3" y="-98.59" font-family="Helvetica,sans-Serif" font-style="italic" font-size="32.00" fill="#29235c">timestamp</text>
<polygon fill="none" stroke="#29235c" stroke-width="2" points="1041.58,-76.39 1041.58,-438.39 1407.58,-438.39 1407.58,-76.39 1041.58,-76.39"/>
</g>
<!-- resources -->
<g id="resources" class="node">
<title>resources</title>
<ellipse fill="none" stroke="black" stroke-width="0" cx="666.74" cy="-287.39" rx="261.76" ry="214.92"/>
<polygon fill="#1d71b8" stroke="transparent" points="483.74,-377.39 483.74,-437.39 849.74,-437.39 849.74,-377.39 483.74,-377.39"/>
<polygon fill="none" stroke="#29235c" points="483.74,-377.39 483.74,-437.39 849.74,-437.39 849.74,-377.39 483.74,-377.39"/>
<text text-anchor="start" x="534.26" y="-398.59" font-family="Helvetica,sans-Serif" font-weight="bold" font-size="32.00" fill="#ffffff"> &#160;&#160;&#160;&#160;&#160;&#160;resources &#160;&#160;&#160;&#160;&#160;&#160;</text>
<polygon fill="#e7e2dd" stroke="transparent" points="483.74,-317.39 483.74,-377.39 849.74,-377.39 849.74,-317.39 483.74,-317.39"/>
<polygon fill="none" stroke="#29235c" points="483.74,-317.39 483.74,-377.39 849.74,-377.39 849.74,-317.39 483.74,-317.39"/>
<text text-anchor="start" x="494.74" y="-338.59" font-family="Helvetica,sans-Serif" font-weight="bold" font-size="32.00" fill="#29235c">id</text>
<text text-anchor="start" x="519.63" y="-338.59" font-family="Helvetica,sans-Serif" font-size="32.00" fill="#29235c"> &#160;&#160;&#160;</text>
<text text-anchor="start" x="804.96" y="-338.59" font-family="Helvetica,sans-Serif" font-style="italic" font-size="32.00" fill="#29235c">int</text>
<polygon fill="#e7e2dd" stroke="transparent" points="483.74,-257.39 483.74,-317.39 849.74,-317.39 849.74,-257.39 483.74,-257.39"/>
<polygon fill="none" stroke="#29235c" points="483.74,-257.39 483.74,-317.39 849.74,-317.39 849.74,-257.39 483.74,-257.39"/>
<text text-anchor="start" x="494.74" y="-277.59" font-family="Helvetica,sans-Serif" font-size="32.00" fill="#29235c">module_id &#160;&#160;&#160;</text>
<text text-anchor="start" x="804.96" y="-278.59" font-family="Helvetica,sans-Serif" font-style="italic" font-size="32.00" fill="#29235c">int</text>
<polygon fill="#e7e2dd" stroke="transparent" points="483.74,-197.39 483.74,-257.39 849.74,-257.39 849.74,-197.39 483.74,-197.39"/>
<polygon fill="none" stroke="#29235c" points="483.74,-197.39 483.74,-257.39 849.74,-257.39 849.74,-197.39 483.74,-197.39"/>
<text text-anchor="start" x="494.59" y="-217.59" font-family="Helvetica,sans-Serif" font-size="32.00" fill="#29235c">resource_type &#160;&#160;&#160;</text>
<text text-anchor="start" x="732.4" y="-218.59" font-family="Helvetica,sans-Serif" font-style="italic" font-size="32.00" fill="#29235c">varchar</text>
<polygon fill="#e7e2dd" stroke="transparent" points="483.74,-137.39 483.74,-197.39 849.74,-197.39 849.74,-137.39 483.74,-137.39"/>
<polygon fill="none" stroke="#29235c" points="483.74,-137.39 483.74,-197.39 849.74,-197.39 849.74,-137.39 483.74,-137.39"/>
<text text-anchor="start" x="494.74" y="-157.59" font-family="Helvetica,sans-Serif" font-size="32.00" fill="#29235c">reference_id &#160;&#160;&#160;</text>
<text text-anchor="start" x="804.96" y="-158.59" font-family="Helvetica,sans-Serif" font-style="italic" font-size="32.00" fill="#29235c">int</text>
<polygon fill="none" stroke="#29235c" stroke-width="2" points="482.74,-136.39 482.74,-438.39 850.74,-438.39 850.74,-136.39 482.74,-136.39"/>
</g>
<!-- resources&#45;&gt;modules -->
<!-- resources&#45;&gt;modules -->
<g id="edge2" class="edge">
<title>resources:e&#45;&gt;modules:w</title>
<path fill="none" stroke="#29235c" stroke-width="3" d="M850.74,-287.39C936.18,-287.39 951.54,-342.79 1031.5,-347.12"/>
<polygon fill="#29235c" stroke="#29235c" stroke-width="3" points="1031.49,-350.62 1041.58,-347.39 1031.68,-343.62 1031.49,-350.62"/>
<text text-anchor="middle" x="1032.69" y="-356.99" font-family="Helvetica,sans-Serif" font-size="32.00" fill="#29235c">1</text>
<text text-anchor="middle" x="844.52" y="-258.59" font-family="Helvetica,sans-Serif" font-size="32.00" fill="#29235c">*</text>
</g>
<!-- tasks -->
<g id="tasks" class="node">
<title>tasks</title>
<ellipse fill="none" stroke="black" stroke-width="0" cx="184.55" cy="-377.39" rx="184.61" ry="87.86"/>
<polygon fill="#1d71b8" stroke="transparent" points="56.55,-377.39 56.55,-437.39 313.55,-437.39 313.55,-377.39 56.55,-377.39"/>
<polygon fill="none" stroke="#29235c" points="56.55,-377.39 56.55,-437.39 313.55,-437.39 313.55,-377.39 56.55,-377.39"/>
<text text-anchor="start" x="85.46" y="-398.59" font-family="Helvetica,sans-Serif" font-weight="bold" font-size="32.00" fill="#ffffff"> &#160;&#160;&#160;&#160;&#160;&#160;tasks &#160;&#160;&#160;&#160;&#160;&#160;</text>
<polygon fill="#e7e2dd" stroke="transparent" points="56.55,-317.39 56.55,-377.39 313.55,-377.39 313.55,-317.39 56.55,-317.39"/>
<polygon fill="none" stroke="#29235c" points="56.55,-317.39 56.55,-377.39 313.55,-377.39 313.55,-317.39 56.55,-317.39"/>
<text text-anchor="start" x="67.2" y="-337.59" font-family="Helvetica,sans-Serif" font-size="32.00" fill="#29235c">resource_id &#160;&#160;&#160;</text>
<text text-anchor="start" x="269.16" y="-338.59" font-family="Helvetica,sans-Serif" font-style="italic" font-size="32.00" fill="#29235c">int</text>
<polygon fill="none" stroke="#29235c" stroke-width="2" points="55.05,-316.39 55.05,-438.39 314.05,-438.39 314.05,-316.39 55.05,-316.39"/>
</g>
<!-- tasks&#45;&gt;resources -->
<!-- tasks&#45;&gt;resources -->
<g id="edge4" class="edge">
<title>tasks:e&#45;&gt;resources:w</title>
<path fill="none" stroke="#29235c" stroke-width="3" d="M314.55,-347.39C385.8,-347.39 406.12,-347.39 472.59,-347.39"/>
<polygon fill="#29235c" stroke="#29235c" stroke-width="3" points="472.74,-350.89 482.74,-347.39 472.74,-343.89 472.74,-350.89"/>
<text text-anchor="middle" x="473.84" y="-356.99" font-family="Helvetica,sans-Serif" font-size="32.00" fill="#29235c">1</text>
<text text-anchor="middle" x="308.33" y="-356.99" font-family="Helvetica,sans-Serif" font-size="32.00" fill="#29235c">*</text>
</g>
</g>
</svg>
