<?xml version="1.0" encoding="UTF-8" standalone="no"?>
<!DOCTYPE svg PUBLIC "-//W3C//DTD SVG 1.1//EN"
 "http://www.w3.org/Graphics/SVG/1.1/DTD/svg11.dtd">
<!-- Generated by graphviz version 2.47.0 (20210316.0004)
 -->
<!-- Title: dbml Pages: 1 -->
<svg width="1119pt" height="498pt"
 viewBox="0.00 0.00 1118.80 497.64" xmlns="http://www.w3.org/2000/svg" xmlns:xlink="http://www.w3.org/1999/xlink">
<g id="graph0" class="graph" transform="scale(1 1) rotate(0) translate(4 493.64)">
<title>dbml</title>
<!-- roles -->
<g id="roles" class="node">
<title>roles</title>
<ellipse fill="none" stroke="black" stroke-width="0" cx="850.59" cy="-214.96" rx="260.43" ry="214.92"/>
<polygon fill="#1d71b8" stroke="transparent" points="668.59,-304.96 668.59,-364.96 1032.59,-364.96 1032.59,-304.96 668.59,-304.96"/>
<polygon fill="none" stroke="#29235c" points="668.59,-304.96 668.59,-364.96 1032.59,-364.96 1032.59,-304.96 668.59,-304.96"/>
<text text-anchor="start" x="753.67" y="-326.16" font-family="Helvetica,sans-Serif" font-weight="bold" font-size="32.00" fill="#ffffff"> &#160;&#160;&#160;&#160;&#160;&#160;roles &#160;&#160;&#160;&#160;&#160;&#160;</text>
<polygon fill="#e7e2dd" stroke="transparent" points="668.59,-244.96 668.59,-304.96 1032.59,-304.96 1032.59,-244.96 668.59,-244.96"/>
<polygon fill="none" stroke="#29235c" points="668.59,-244.96 668.59,-304.96 1032.59,-304.96 1032.59,-244.96 668.59,-244.96"/>
<text text-anchor="start" x="679.59" y="-266.16" font-family="Helvetica,sans-Serif" font-weight="bold" font-size="32.00" fill="#29235c">id</text>
<text text-anchor="start" x="704.48" y="-266.16" font-family="Helvetica,sans-Serif" font-size="32.00" fill="#29235c"> &#160;&#160;&#160;</text>
<text text-anchor="start" x="987.8" y="-266.16" font-family="Helvetica,sans-Serif" font-style="italic" font-size="32.00" fill="#29235c">int</text>
<polygon fill="#e7e2dd" stroke="transparent" points="668.59,-184.96 668.59,-244.96 1032.59,-244.96 1032.59,-184.96 668.59,-184.96"/>
<polygon fill="none" stroke="#29235c" points="668.59,-184.96 668.59,-244.96 1032.59,-244.96 1032.59,-184.96 668.59,-184.96"/>
<text text-anchor="start" x="679.59" y="-205.16" font-family="Helvetica,sans-Serif" font-size="32.00" fill="#29235c">name &#160;&#160;&#160;</text>
<text text-anchor="start" x="914.92" y="-206.16" font-family="Helvetica,sans-Serif" font-style="italic" font-size="32.00" fill="#29235c">varchar</text>
<polygon fill="#e7e2dd" stroke="transparent" points="668.59,-124.96 668.59,-184.96 1032.59,-184.96 1032.59,-124.96 668.59,-124.96"/>
<polygon fill="none" stroke="#29235c" points="668.59,-124.96 668.59,-184.96 1032.59,-184.96 1032.59,-124.96 668.59,-124.96"/>
<text text-anchor="start" x="679.59" y="-145.16" font-family="Helvetica,sans-Serif" font-size="32.00" fill="#29235c">created_at &#160;&#160;&#160;</text>
<text text-anchor="start" x="874.03" y="-146.16" font-family="Helvetica,sans-Serif" font-style="italic" font-size="32.00" fill="#29235c">timestamp</text>
<polygon fill="#e7e2dd" stroke="transparent" points="668.59,-64.96 668.59,-124.96 1032.59,-124.96 1032.59,-64.96 668.59,-64.96"/>
<polygon fill="none" stroke="#29235c" points="668.59,-64.96 668.59,-124.96 1032.59,-124.96 1032.59,-64.96 668.59,-64.96"/>
<text text-anchor="start" x="679.25" y="-85.16" font-family="Helvetica,sans-Serif" font-size="32.00" fill="#29235c">updated_at &#160;&#160;&#160;</text>
<text text-anchor="start" x="874.31" y="-86.16" font-family="Helvetica,sans-Serif" font-style="italic" font-size="32.00" fill="#29235c">timestamp</text>
<polygon fill="none" stroke="#29235c" stroke-width="2" points="667.59,-63.96 667.59,-365.96 1033.59,-365.96 1033.59,-63.96 667.59,-63.96"/>
</g>
<!-- role_permissions -->
<g id="role_permissions" class="node">
<title>role_permissions</title>
<ellipse fill="none" stroke="black" stroke-width="0" cx="277.19" cy="-401.96" rx="277.37" ry="87.86"/>
<polygon fill="#1d71b8" stroke="transparent" points="83.19,-401.96 83.19,-461.96 471.19,-461.96 471.19,-401.96 83.19,-401.96"/>
<polygon fill="none" stroke="#29235c" points="83.19,-401.96 83.19,-461.96 471.19,-461.96 471.19,-401.96 83.19,-401.96"/>
<text text-anchor="start" x="94.05" y="-423.16" font-family="Helvetica,sans-Serif" font-weight="bold" font-size="32.00" fill="#ffffff"> &#160;&#160;&#160;&#160;&#160;&#160;role_permissions &#160;&#160;&#160;&#160;&#160;&#160;</text>
<polygon fill="#e7e2dd" stroke="transparent" points="83.19,-341.96 83.19,-401.96 471.19,-401.96 471.19,-341.96 83.19,-341.96"/>
<polygon fill="none" stroke="#29235c" points="83.19,-341.96 83.19,-401.96 471.19,-401.96 471.19,-341.96 83.19,-341.96"/>
<text text-anchor="start" x="94.19" y="-362.16" font-family="Helvetica,sans-Serif" font-size="32.00" fill="#29235c">role_id &#160;&#160;&#160;</text>
<text text-anchor="start" x="426.4" y="-363.16" font-family="Helvetica,sans-Serif" font-style="italic" font-size="32.00" fill="#29235c">int</text>
<polygon fill="none" stroke="#29235c" stroke-width="2" points="82.19,-340.96 82.19,-462.96 472.19,-462.96 472.19,-340.96 82.19,-340.96"/>
</g>
<!-- role_permissions&#45;&gt;roles -->
<!-- role_permissions&#45;&gt;roles -->
<g id="edge2" class="edge">
<title>role_permissions:e&#45;&gt;roles:w</title>
<path fill="none" stroke="#29235c" stroke-width="3" d="M472.19,-371.96C565.64,-371.96 570.4,-281.84 657.44,-275.33"/>
<polygon fill="#29235c" stroke="#29235c" stroke-width="3" points="657.72,-278.82 667.59,-274.96 657.47,-271.83 657.72,-278.82"/>
<text text-anchor="middle" x="658.69" y="-284.56" font-family="Helvetica,sans-Serif" font-size="32.00" fill="#29235c">1</text>
<text text-anchor="middle" x="478.41" y="-381.56" font-family="Helvetica,sans-Serif" font-size="32.00" fill="#29235c">*</text>
</g>
<!-- users -->
<g id="users" class="node">
<title>users</title>
<ellipse fill="none" stroke="black" stroke-width="0" cx="277.19" cy="-208.96" rx="161.44" ry="87.86"/>
<polygon fill="#1d71b8" stroke="transparent" points="165.19,-208.96 165.19,-268.96 389.19,-268.96 389.19,-208.96 165.19,-208.96"/>
<polygon fill="none" stroke="#29235c" points="165.19,-208.96 165.19,-268.96 389.19,-268.96 389.19,-208.96 165.19,-208.96"/>
<text text-anchor="start" x="175.82" y="-230.16" font-family="Helvetica,sans-Serif" font-weight="bold" font-size="32.00" fill="#ffffff"> &#160;&#160;&#160;&#160;&#160;&#160;users &#160;&#160;&#160;&#160;&#160;&#160;</text>
<polygon fill="#e7e2dd" stroke="transparent" points="165.19,-148.96 165.19,-208.96 389.19,-208.96 389.19,-148.96 165.19,-148.96"/>
<polygon fill="none" stroke="#29235c" points="165.19,-148.96 165.19,-208.96 389.19,-208.96 389.19,-148.96 165.19,-148.96"/>
<text text-anchor="start" x="176.19" y="-169.16" font-family="Helvetica,sans-Serif" font-size="32.00" fill="#29235c">role_id &#160;&#160;&#160;</text>
<text text-anchor="start" x="344.4" y="-170.16" font-family="Helvetica,sans-Serif" font-style="italic" font-size="32.00" fill="#29235c">int</text>
<polygon fill="none" stroke="#29235c" stroke-width="2" points="164.19,-147.96 164.19,-269.96 390.19,-269.96 390.19,-147.96 164.19,-147.96"/>
</g>
<!-- users&#45;&gt;roles -->
<!-- users&#45;&gt;roles -->
<g id="edge4" class="edge">
<title>users:e&#45;&gt;roles:w</title>
<path fill="none" stroke="#29235c" stroke-width="3" d="M390.19,-178.96C517.21,-178.96 536.18,-269.96 657.5,-274.76"/>
<polygon fill="#29235c" stroke="#29235c" stroke-width="3" points="657.52,-278.26 667.59,-274.96 657.66,-271.27 657.52,-278.26"/>
<text text-anchor="middle" x="676.48" y="-284.56" font-family="Helvetica,sans-Serif" font-size="32.00" fill="#29235c">1</text>
<text text-anchor="middle" x="396.41" y="-188.56" font-family="Helvetica,sans-Serif" font-size="32.00" fill="#29235c">*</text>
</g>
</g>
</svg>
