<?xml version="1.0" encoding="UTF-8" standalone="no"?>
<!DOCTYPE svg PUBLIC "-//W3C//DTD SVG 1.1//EN"
 "http://www.w3.org/Graphics/SVG/1.1/DTD/svg11.dtd">
<!-- Generated by graphviz version 2.47.0 (20210316.0004)
 -->
<!-- Title: dbml Pages: 1 -->
<svg width="3460pt" height="1168pt"
 viewBox="0.00 0.00 3460.49 1168.39" xmlns="http://www.w3.org/2000/svg" xmlns:xlink="http://www.w3.org/1999/xlink">
<g id="graph0" class="graph" transform="scale(1 1) rotate(0) translate(4 1164.39)">
<title>dbml</title>
<!-- permissions -->
<g id="permissions" class="node">
<title>permissions</title>
<ellipse fill="none" stroke="black" stroke-width="0" cx="850.59" cy="-337.03" rx="260.43" ry="214.92"/>
<polygon fill="#1d71b8" stroke="transparent" points="668.59,-427.03 668.59,-487.03 1032.59,-487.03 1032.59,-427.03 668.59,-427.03"/>
<polygon fill="none" stroke="#29235c" points="668.59,-427.03 668.59,-487.03 1032.59,-487.03 1032.59,-427.03 668.59,-427.03"/>
<text text-anchor="start" x="703.01" y="-448.23" font-family="Helvetica,sans-Serif" font-weight="bold" font-size="32.00" fill="#ffffff"> &#160;&#160;&#160;&#160;&#160;&#160;permissions &#160;&#160;&#160;&#160;&#160;&#160;</text>
<polygon fill="#e7e2dd" stroke="transparent" points="668.59,-367.03 668.59,-427.03 1032.59,-427.03 1032.59,-367.03 668.59,-367.03"/>
<polygon fill="none" stroke="#29235c" points="668.59,-367.03 668.59,-427.03 1032.59,-427.03 1032.59,-367.03 668.59,-367.03"/>
<text text-anchor="start" x="679.59" y="-388.23" font-family="Helvetica,sans-Serif" font-weight="bold" font-size="32.00" fill="#29235c">id</text>
<text text-anchor="start" x="704.48" y="-388.23" font-family="Helvetica,sans-Serif" font-size="32.00" fill="#29235c"> &#160;&#160;&#160;</text>
<text text-anchor="start" x="987.8" y="-388.23" font-family="Helvetica,sans-Serif" font-style="italic" font-size="32.00" fill="#29235c">int</text>
<polygon fill="#e7e2dd" stroke="transparent" points="668.59,-307.03 668.59,-367.03 1032.59,-367.03 1032.59,-307.03 668.59,-307.03"/>
<polygon fill="none" stroke="#29235c" points="668.59,-307.03 668.59,-367.03 1032.59,-367.03 1032.59,-307.03 668.59,-307.03"/>
<text text-anchor="start" x="679.59" y="-327.23" font-family="Helvetica,sans-Serif" font-size="32.00" fill="#29235c">name &#160;&#160;&#160;</text>
<text text-anchor="start" x="914.92" y="-328.23" font-family="Helvetica,sans-Serif" font-style="italic" font-size="32.00" fill="#29235c">varchar</text>
<polygon fill="#e7e2dd" stroke="transparent" points="668.59,-247.03 668.59,-307.03 1032.59,-307.03 1032.59,-247.03 668.59,-247.03"/>
<polygon fill="none" stroke="#29235c" points="668.59,-247.03 668.59,-307.03 1032.59,-307.03 1032.59,-247.03 668.59,-247.03"/>
<text text-anchor="start" x="679.59" y="-267.23" font-family="Helvetica,sans-Serif" font-size="32.00" fill="#29235c">created_at &#160;&#160;&#160;</text>
<text text-anchor="start" x="874.03" y="-268.23" font-family="Helvetica,sans-Serif" font-style="italic" font-size="32.00" fill="#29235c">timestamp</text>
<polygon fill="#e7e2dd" stroke="transparent" points="668.59,-187.03 668.59,-247.03 1032.59,-247.03 1032.59,-187.03 668.59,-187.03"/>
<polygon fill="none" stroke="#29235c" points="668.59,-187.03 668.59,-247.03 1032.59,-247.03 1032.59,-187.03 668.59,-187.03"/>
<text text-anchor="start" x="679.25" y="-207.23" font-family="Helvetica,sans-Serif" font-size="32.00" fill="#29235c">updated_at &#160;&#160;&#160;</text>
<text text-anchor="start" x="874.31" y="-208.23" font-family="Helvetica,sans-Serif" font-style="italic" font-size="32.00" fill="#29235c">timestamp</text>
<polygon fill="none" stroke="#29235c" stroke-width="2" points="667.59,-186.03 667.59,-488.03 1033.59,-488.03 1033.59,-186.03 667.59,-186.03"/>
</g>
<!-- levels -->
<g id="levels" class="node">
<title>levels</title>
<ellipse fill="none" stroke="black" stroke-width="0" cx="2635.84" cy="-337.03" rx="260.43" ry="214.92"/>
<polygon fill="#1d71b8" stroke="transparent" points="2453.84,-427.03 2453.84,-487.03 2817.84,-487.03 2817.84,-427.03 2453.84,-427.03"/>
<polygon fill="none" stroke="#29235c" points="2453.84,-427.03 2453.84,-487.03 2817.84,-487.03 2817.84,-427.03 2453.84,-427.03"/>
<text text-anchor="start" x="2532.71" y="-448.23" font-family="Helvetica,sans-Serif" font-weight="bold" font-size="32.00" fill="#ffffff"> &#160;&#160;&#160;&#160;&#160;&#160;levels &#160;&#160;&#160;&#160;&#160;&#160;</text>
<polygon fill="#e7e2dd" stroke="transparent" points="2453.84,-367.03 2453.84,-427.03 2817.84,-427.03 2817.84,-367.03 2453.84,-367.03"/>
<polygon fill="none" stroke="#29235c" points="2453.84,-367.03 2453.84,-427.03 2817.84,-427.03 2817.84,-367.03 2453.84,-367.03"/>
<text text-anchor="start" x="2464.84" y="-388.23" font-family="Helvetica,sans-Serif" font-weight="bold" font-size="32.00" fill="#29235c">id</text>
<text text-anchor="start" x="2489.73" y="-388.23" font-family="Helvetica,sans-Serif" font-size="32.00" fill="#29235c"> &#160;&#160;&#160;</text>
<text text-anchor="start" x="2773.06" y="-388.23" font-family="Helvetica,sans-Serif" font-style="italic" font-size="32.00" fill="#29235c">int</text>
<polygon fill="#e7e2dd" stroke="transparent" points="2453.84,-307.03 2453.84,-367.03 2817.84,-367.03 2817.84,-307.03 2453.84,-307.03"/>
<polygon fill="none" stroke="#29235c" points="2453.84,-307.03 2453.84,-367.03 2817.84,-367.03 2817.84,-307.03 2453.84,-307.03"/>
<text text-anchor="start" x="2464.84" y="-327.23" font-family="Helvetica,sans-Serif" font-size="32.00" fill="#29235c">name &#160;&#160;&#160;</text>
<text text-anchor="start" x="2661.08" y="-328.23" font-family="Helvetica,sans-Serif" font-style="italic" font-size="32.00" fill="#29235c">varchar</text>
<text text-anchor="start" x="2767.75" y="-328.23" font-family="Helvetica,sans-Serif" font-size="32.00" fill="#29235c"> </text>
<text text-anchor="start" x="2776.65" y="-328.23" font-family="Helvetica,sans-Serif" font-weight="bold" font-size="32.00" fill="#29235c">(!)</text>
<polygon fill="#e7e2dd" stroke="transparent" points="2453.84,-247.03 2453.84,-307.03 2817.84,-307.03 2817.84,-247.03 2453.84,-247.03"/>
<polygon fill="none" stroke="#29235c" points="2453.84,-247.03 2453.84,-307.03 2817.84,-307.03 2817.84,-247.03 2453.84,-247.03"/>
<text text-anchor="start" x="2464.84" y="-267.23" font-family="Helvetica,sans-Serif" font-size="32.00" fill="#29235c">created_at &#160;&#160;&#160;</text>
<text text-anchor="start" x="2659.29" y="-268.23" font-family="Helvetica,sans-Serif" font-style="italic" font-size="32.00" fill="#29235c">timestamp</text>
<polygon fill="#e7e2dd" stroke="transparent" points="2453.84,-187.03 2453.84,-247.03 2817.84,-247.03 2817.84,-187.03 2453.84,-187.03"/>
<polygon fill="none" stroke="#29235c" points="2453.84,-187.03 2453.84,-247.03 2817.84,-247.03 2817.84,-187.03 2453.84,-187.03"/>
<text text-anchor="start" x="2464.51" y="-207.23" font-family="Helvetica,sans-Serif" font-size="32.00" fill="#29235c">updated_at &#160;&#160;&#160;</text>
<text text-anchor="start" x="2659.57" y="-208.23" font-family="Helvetica,sans-Serif" font-style="italic" font-size="32.00" fill="#29235c">timestamp</text>
<polygon fill="none" stroke="#29235c" stroke-width="2" points="2452.84,-186.03 2452.84,-488.03 2818.84,-488.03 2818.84,-186.03 2452.84,-186.03"/>
</g>
<!-- positions -->
<g id="positions" class="node">
<title>positions</title>
<ellipse fill="none" stroke="black" stroke-width="0" cx="2635.84" cy="-827.03" rx="260.43" ry="257.27"/>
<polygon fill="#1d71b8" stroke="transparent" points="2453.84,-947.03 2453.84,-1007.03 2817.84,-1007.03 2817.84,-947.03 2453.84,-947.03"/>
<polygon fill="none" stroke="#29235c" points="2453.84,-947.03 2453.84,-1007.03 2817.84,-1007.03 2817.84,-947.03 2453.84,-947.03"/>
<text text-anchor="start" x="2510.47" y="-968.23" font-family="Helvetica,sans-Serif" font-weight="bold" font-size="32.00" fill="#ffffff"> &#160;&#160;&#160;&#160;&#160;&#160;positions &#160;&#160;&#160;&#160;&#160;&#160;</text>
<polygon fill="#e7e2dd" stroke="transparent" points="2453.84,-887.03 2453.84,-947.03 2817.84,-947.03 2817.84,-887.03 2453.84,-887.03"/>
<polygon fill="none" stroke="#29235c" points="2453.84,-887.03 2453.84,-947.03 2817.84,-947.03 2817.84,-887.03 2453.84,-887.03"/>
<text text-anchor="start" x="2464.84" y="-908.23" font-family="Helvetica,sans-Serif" font-weight="bold" font-size="32.00" fill="#29235c">id</text>
<text text-anchor="start" x="2489.73" y="-908.23" font-family="Helvetica,sans-Serif" font-size="32.00" fill="#29235c"> &#160;&#160;&#160;</text>
<text text-anchor="start" x="2773.06" y="-908.23" font-family="Helvetica,sans-Serif" font-style="italic" font-size="32.00" fill="#29235c">int</text>
<polygon fill="#e7e2dd" stroke="transparent" points="2453.84,-827.03 2453.84,-887.03 2817.84,-887.03 2817.84,-827.03 2453.84,-827.03"/>
<polygon fill="none" stroke="#29235c" points="2453.84,-827.03 2453.84,-887.03 2817.84,-887.03 2817.84,-827.03 2453.84,-827.03"/>
<text text-anchor="start" x="2464.84" y="-847.23" font-family="Helvetica,sans-Serif" font-size="32.00" fill="#29235c">name &#160;&#160;&#160;</text>
<text text-anchor="start" x="2661.08" y="-848.23" font-family="Helvetica,sans-Serif" font-style="italic" font-size="32.00" fill="#29235c">varchar</text>
<text text-anchor="start" x="2767.75" y="-848.23" font-family="Helvetica,sans-Serif" font-size="32.00" fill="#29235c"> </text>
<text text-anchor="start" x="2776.65" y="-848.23" font-family="Helvetica,sans-Serif" font-weight="bold" font-size="32.00" fill="#29235c">(!)</text>
<polygon fill="#e7e2dd" stroke="transparent" points="2453.84,-767.03 2453.84,-827.03 2817.84,-827.03 2817.84,-767.03 2453.84,-767.03"/>
<polygon fill="none" stroke="#29235c" points="2453.84,-767.03 2453.84,-827.03 2817.84,-827.03 2817.84,-767.03 2453.84,-767.03"/>
<text text-anchor="start" x="2464.84" y="-787.23" font-family="Helvetica,sans-Serif" font-size="32.00" fill="#29235c">department_id &#160;&#160;&#160;</text>
<text text-anchor="start" x="2773.06" y="-788.23" font-family="Helvetica,sans-Serif" font-style="italic" font-size="32.00" fill="#29235c">int</text>
<polygon fill="#e7e2dd" stroke="transparent" points="2453.84,-707.03 2453.84,-767.03 2817.84,-767.03 2817.84,-707.03 2453.84,-707.03"/>
<polygon fill="none" stroke="#29235c" points="2453.84,-707.03 2453.84,-767.03 2817.84,-767.03 2817.84,-707.03 2453.84,-707.03"/>
<text text-anchor="start" x="2464.84" y="-727.23" font-family="Helvetica,sans-Serif" font-size="32.00" fill="#29235c">created_at &#160;&#160;&#160;</text>
<text text-anchor="start" x="2659.29" y="-728.23" font-family="Helvetica,sans-Serif" font-style="italic" font-size="32.00" fill="#29235c">timestamp</text>
<polygon fill="#e7e2dd" stroke="transparent" points="2453.84,-647.03 2453.84,-707.03 2817.84,-707.03 2817.84,-647.03 2453.84,-647.03"/>
<polygon fill="none" stroke="#29235c" points="2453.84,-647.03 2453.84,-707.03 2817.84,-707.03 2817.84,-647.03 2453.84,-647.03"/>
<text text-anchor="start" x="2464.51" y="-667.23" font-family="Helvetica,sans-Serif" font-size="32.00" fill="#29235c">updated_at &#160;&#160;&#160;</text>
<text text-anchor="start" x="2659.57" y="-668.23" font-family="Helvetica,sans-Serif" font-style="italic" font-size="32.00" fill="#29235c">timestamp</text>
<polygon fill="none" stroke="#29235c" stroke-width="2" points="2452.84,-646.03 2452.84,-1008.03 2818.84,-1008.03 2818.84,-646.03 2452.84,-646.03"/>
</g>
<!-- departments -->
<g id="departments" class="node">
<title>departments</title>
<ellipse fill="none" stroke="black" stroke-width="0" cx="3192.27" cy="-857.03" rx="260.43" ry="214.92"/>
<polygon fill="#1d71b8" stroke="transparent" points="3010.27,-947.03 3010.27,-1007.03 3374.27,-1007.03 3374.27,-947.03 3010.27,-947.03"/>
<polygon fill="none" stroke="#29235c" points="3010.27,-947.03 3010.27,-1007.03 3374.27,-1007.03 3374.27,-947.03 3010.27,-947.03"/>
<text text-anchor="start" x="3041.11" y="-968.23" font-family="Helvetica,sans-Serif" font-weight="bold" font-size="32.00" fill="#ffffff"> &#160;&#160;&#160;&#160;&#160;&#160;departments &#160;&#160;&#160;&#160;&#160;&#160;</text>
<polygon fill="#e7e2dd" stroke="transparent" points="3010.27,-887.03 3010.27,-947.03 3374.27,-947.03 3374.27,-887.03 3010.27,-887.03"/>
<polygon fill="none" stroke="#29235c" points="3010.27,-887.03 3010.27,-947.03 3374.27,-947.03 3374.27,-887.03 3010.27,-887.03"/>
<text text-anchor="start" x="3021.27" y="-908.23" font-family="Helvetica,sans-Serif" font-weight="bold" font-size="32.00" fill="#29235c">id</text>
<text text-anchor="start" x="3046.16" y="-908.23" font-family="Helvetica,sans-Serif" font-size="32.00" fill="#29235c"> &#160;&#160;&#160;</text>
<text text-anchor="start" x="3329.49" y="-908.23" font-family="Helvetica,sans-Serif" font-style="italic" font-size="32.00" fill="#29235c">int</text>
<polygon fill="#e7e2dd" stroke="transparent" points="3010.27,-827.03 3010.27,-887.03 3374.27,-887.03 3374.27,-827.03 3010.27,-827.03"/>
<polygon fill="none" stroke="#29235c" points="3010.27,-827.03 3010.27,-887.03 3374.27,-887.03 3374.27,-827.03 3010.27,-827.03"/>
<text text-anchor="start" x="3021.27" y="-847.23" font-family="Helvetica,sans-Serif" font-size="32.00" fill="#29235c">name &#160;&#160;&#160;</text>
<text text-anchor="start" x="3217.51" y="-848.23" font-family="Helvetica,sans-Serif" font-style="italic" font-size="32.00" fill="#29235c">varchar</text>
<text text-anchor="start" x="3324.18" y="-848.23" font-family="Helvetica,sans-Serif" font-size="32.00" fill="#29235c"> </text>
<text text-anchor="start" x="3333.08" y="-848.23" font-family="Helvetica,sans-Serif" font-weight="bold" font-size="32.00" fill="#29235c">(!)</text>
<polygon fill="#e7e2dd" stroke="transparent" points="3010.27,-767.03 3010.27,-827.03 3374.27,-827.03 3374.27,-767.03 3010.27,-767.03"/>
<polygon fill="none" stroke="#29235c" points="3010.27,-767.03 3010.27,-827.03 3374.27,-827.03 3374.27,-767.03 3010.27,-767.03"/>
<text text-anchor="start" x="3021.27" y="-787.23" font-family="Helvetica,sans-Serif" font-size="32.00" fill="#29235c">created_at &#160;&#160;&#160;</text>
<text text-anchor="start" x="3215.72" y="-788.23" font-family="Helvetica,sans-Serif" font-style="italic" font-size="32.00" fill="#29235c">timestamp</text>
<polygon fill="#e7e2dd" stroke="transparent" points="3010.27,-707.03 3010.27,-767.03 3374.27,-767.03 3374.27,-707.03 3010.27,-707.03"/>
<polygon fill="none" stroke="#29235c" points="3010.27,-707.03 3010.27,-767.03 3374.27,-767.03 3374.27,-707.03 3010.27,-707.03"/>
<text text-anchor="start" x="3020.94" y="-727.23" font-family="Helvetica,sans-Serif" font-size="32.00" fill="#29235c">updated_at &#160;&#160;&#160;</text>
<text text-anchor="start" x="3216" y="-728.23" font-family="Helvetica,sans-Serif" font-style="italic" font-size="32.00" fill="#29235c">timestamp</text>
<polygon fill="none" stroke="#29235c" stroke-width="2" points="3009.27,-706.03 3009.27,-1008.03 3375.27,-1008.03 3375.27,-706.03 3009.27,-706.03"/>
</g>
<!-- positions&#45;&gt;departments -->
<!-- positions&#45;&gt;departments -->
<g id="edge2" class="edge">
<title>positions:e&#45;&gt;departments:w</title>
<path fill="none" stroke="#29235c" stroke-width="3" d="M2818.84,-797.03C2915.37,-797.03 2909.78,-908.74 2999.12,-916.6"/>
<polygon fill="#29235c" stroke="#29235c" stroke-width="3" points="2999.13,-920.1 3009.27,-917.03 2999.43,-913.11 2999.13,-920.1"/>
<text text-anchor="middle" x="3000.38" y="-926.63" font-family="Helvetica,sans-Serif" font-size="32.00" fill="#29235c">1</text>
<text text-anchor="middle" x="2825.07" y="-806.63" font-family="Helvetica,sans-Serif" font-size="32.00" fill="#29235c">*</text>
</g>
<!-- titles -->
<g id="titles" class="node">
<title>titles</title>
<ellipse fill="none" stroke="black" stroke-width="0" cx="2079.41" cy="-767.03" rx="260.43" ry="342.48"/>
<polygon fill="#1d71b8" stroke="transparent" points="1897.41,-947.03 1897.41,-1007.03 2261.41,-1007.03 2261.41,-947.03 1897.41,-947.03"/>
<polygon fill="none" stroke="#29235c" points="1897.41,-947.03 1897.41,-1007.03 2261.41,-1007.03 2261.41,-947.03 1897.41,-947.03"/>
<text text-anchor="start" x="1984.28" y="-968.23" font-family="Helvetica,sans-Serif" font-weight="bold" font-size="32.00" fill="#ffffff"> &#160;&#160;&#160;&#160;&#160;&#160;titles &#160;&#160;&#160;&#160;&#160;&#160;</text>
<polygon fill="#e7e2dd" stroke="transparent" points="1897.41,-887.03 1897.41,-947.03 2261.41,-947.03 2261.41,-887.03 1897.41,-887.03"/>
<polygon fill="none" stroke="#29235c" points="1897.41,-887.03 1897.41,-947.03 2261.41,-947.03 2261.41,-887.03 1897.41,-887.03"/>
<text text-anchor="start" x="1908.41" y="-908.23" font-family="Helvetica,sans-Serif" font-weight="bold" font-size="32.00" fill="#29235c">id</text>
<text text-anchor="start" x="1933.3" y="-908.23" font-family="Helvetica,sans-Serif" font-size="32.00" fill="#29235c"> &#160;&#160;&#160;</text>
<text text-anchor="start" x="2216.63" y="-908.23" font-family="Helvetica,sans-Serif" font-style="italic" font-size="32.00" fill="#29235c">int</text>
<polygon fill="#e7e2dd" stroke="transparent" points="1897.41,-827.03 1897.41,-887.03 2261.41,-887.03 2261.41,-827.03 1897.41,-827.03"/>
<polygon fill="none" stroke="#29235c" points="1897.41,-827.03 1897.41,-887.03 2261.41,-887.03 2261.41,-827.03 1897.41,-827.03"/>
<text text-anchor="start" x="1908.41" y="-847.23" font-family="Helvetica,sans-Serif" font-size="32.00" fill="#29235c">name &#160;&#160;&#160;</text>
<text text-anchor="start" x="2104.65" y="-848.23" font-family="Helvetica,sans-Serif" font-style="italic" font-size="32.00" fill="#29235c">varchar</text>
<text text-anchor="start" x="2211.32" y="-848.23" font-family="Helvetica,sans-Serif" font-size="32.00" fill="#29235c"> </text>
<text text-anchor="start" x="2220.22" y="-848.23" font-family="Helvetica,sans-Serif" font-weight="bold" font-size="32.00" fill="#29235c">(!)</text>
<polygon fill="#e7e2dd" stroke="transparent" points="1897.41,-767.03 1897.41,-827.03 2261.41,-827.03 2261.41,-767.03 1897.41,-767.03"/>
<polygon fill="none" stroke="#29235c" points="1897.41,-767.03 1897.41,-827.03 2261.41,-827.03 2261.41,-767.03 1897.41,-767.03"/>
<text text-anchor="start" x="1908.41" y="-787.23" font-family="Helvetica,sans-Serif" font-size="32.00" fill="#29235c">department_id &#160;&#160;&#160;</text>
<text text-anchor="start" x="2216.63" y="-788.23" font-family="Helvetica,sans-Serif" font-style="italic" font-size="32.00" fill="#29235c">int</text>
<polygon fill="#e7e2dd" stroke="transparent" points="1897.41,-707.03 1897.41,-767.03 2261.41,-767.03 2261.41,-707.03 1897.41,-707.03"/>
<polygon fill="none" stroke="#29235c" points="1897.41,-707.03 1897.41,-767.03 2261.41,-767.03 2261.41,-707.03 1897.41,-707.03"/>
<text text-anchor="start" x="1908.41" y="-727.23" font-family="Helvetica,sans-Serif" font-size="32.00" fill="#29235c">position_id &#160;&#160;&#160;</text>
<text text-anchor="start" x="2216.63" y="-728.23" font-family="Helvetica,sans-Serif" font-style="italic" font-size="32.00" fill="#29235c">int</text>
<polygon fill="#e7e2dd" stroke="transparent" points="1897.41,-647.03 1897.41,-707.03 2261.41,-707.03 2261.41,-647.03 1897.41,-647.03"/>
<polygon fill="none" stroke="#29235c" points="1897.41,-647.03 1897.41,-707.03 2261.41,-707.03 2261.41,-647.03 1897.41,-647.03"/>
<text text-anchor="start" x="1908.41" y="-667.23" font-family="Helvetica,sans-Serif" font-size="32.00" fill="#29235c">level_id &#160;&#160;&#160;</text>
<text text-anchor="start" x="2216.63" y="-668.23" font-family="Helvetica,sans-Serif" font-style="italic" font-size="32.00" fill="#29235c">int</text>
<polygon fill="#e7e2dd" stroke="transparent" points="1897.41,-587.03 1897.41,-647.03 2261.41,-647.03 2261.41,-587.03 1897.41,-587.03"/>
<polygon fill="none" stroke="#29235c" points="1897.41,-587.03 1897.41,-647.03 2261.41,-647.03 2261.41,-587.03 1897.41,-587.03"/>
<text text-anchor="start" x="1908.41" y="-607.23" font-family="Helvetica,sans-Serif" font-size="32.00" fill="#29235c">created_at &#160;&#160;&#160;</text>
<text text-anchor="start" x="2102.86" y="-608.23" font-family="Helvetica,sans-Serif" font-style="italic" font-size="32.00" fill="#29235c">timestamp</text>
<polygon fill="#e7e2dd" stroke="transparent" points="1897.41,-527.03 1897.41,-587.03 2261.41,-587.03 2261.41,-527.03 1897.41,-527.03"/>
<polygon fill="none" stroke="#29235c" points="1897.41,-527.03 1897.41,-587.03 2261.41,-587.03 2261.41,-527.03 1897.41,-527.03"/>
<text text-anchor="start" x="1908.08" y="-547.23" font-family="Helvetica,sans-Serif" font-size="32.00" fill="#29235c">updated_at &#160;&#160;&#160;</text>
<text text-anchor="start" x="2103.13" y="-548.23" font-family="Helvetica,sans-Serif" font-style="italic" font-size="32.00" fill="#29235c">timestamp</text>
<polygon fill="none" stroke="#29235c" stroke-width="2" points="1896.41,-526.03 1896.41,-1008.03 2262.41,-1008.03 2262.41,-526.03 1896.41,-526.03"/>
</g>
<!-- titles&#45;&gt;levels -->
<!-- titles&#45;&gt;levels -->
<g id="edge8" class="edge">
<title>titles:e&#45;&gt;levels:w</title>
<path fill="none" stroke="#29235c" stroke-width="3" d="M2262.41,-677.03C2409.38,-677.03 2307.39,-410 2442.69,-397.49"/>
<polygon fill="#29235c" stroke="#29235c" stroke-width="3" points="2443.01,-400.98 2452.84,-397.03 2442.7,-393.98 2443.01,-400.98"/>
<text text-anchor="middle" x="2443.95" y="-406.63" font-family="Helvetica,sans-Serif" font-size="32.00" fill="#29235c">1</text>
<text text-anchor="middle" x="2256.19" y="-686.63" font-family="Helvetica,sans-Serif" font-size="32.00" fill="#29235c">*</text>
</g>
<!-- titles&#45;&gt;positions -->
<!-- titles&#45;&gt;positions -->
<g id="edge6" class="edge">
<title>titles:e&#45;&gt;positions:w</title>
<path fill="none" stroke="#29235c" stroke-width="3" d="M2262.41,-737.03C2375.35,-737.03 2338.81,-906.3 2442.7,-916.55"/>
<polygon fill="#29235c" stroke="#29235c" stroke-width="3" points="2442.69,-920.05 2452.84,-917.03 2443.02,-913.06 2442.69,-920.05"/>
<text text-anchor="middle" x="2443.95" y="-926.63" font-family="Helvetica,sans-Serif" font-size="32.00" fill="#29235c">1</text>
<text text-anchor="middle" x="2256.19" y="-746.63" font-family="Helvetica,sans-Serif" font-size="32.00" fill="#29235c">*</text>
</g>
<!-- titles&#45;&gt;departments -->
<!-- titles&#45;&gt;departments -->
<g id="edge4" class="edge">
<title>titles:e&#45;&gt;departments:w</title>
<path fill="none" stroke="#29235c" stroke-width="3" d="M2262.41,-797.03C2416.48,-797.03 2258.13,-212.68 2375.63,-113.03 2552.03,36.57 2721.47,38.69 2896.06,-113.03 3029.59,-229.07 2836.66,-890.47 2999.14,-916.26"/>
<polygon fill="#29235c" stroke="#29235c" stroke-width="3" points="2999.04,-919.76 3009.27,-917.03 2999.57,-912.78 2999.04,-919.76"/>
<text text-anchor="middle" x="3018.17" y="-926.63" font-family="Helvetica,sans-Serif" font-size="32.00" fill="#29235c">1</text>
<text text-anchor="middle" x="2256.19" y="-806.63" font-family="Helvetica,sans-Serif" font-size="32.00" fill="#29235c">*</text>
</g>
<!-- users -->
<g id="users" class="node">
<title>users</title>
<ellipse fill="none" stroke="black" stroke-width="0" cx="1465" cy="-647.03" rx="318.4" ry="511.89"/>
<polygon fill="#1d71b8" stroke="transparent" points="1242,-947.03 1242,-1007.03 1688,-1007.03 1688,-947.03 1242,-947.03"/>
<polygon fill="none" stroke="#29235c" points="1242,-947.03 1242,-1007.03 1688,-1007.03 1688,-947.03 1242,-947.03"/>
<text text-anchor="start" x="1363.64" y="-968.23" font-family="Helvetica,sans-Serif" font-weight="bold" font-size="32.00" fill="#ffffff"> &#160;&#160;&#160;&#160;&#160;&#160;users &#160;&#160;&#160;&#160;&#160;&#160;</text>
<polygon fill="#e7e2dd" stroke="transparent" points="1242,-887.03 1242,-947.03 1688,-947.03 1688,-887.03 1242,-887.03"/>
<polygon fill="none" stroke="#29235c" points="1242,-887.03 1242,-947.03 1688,-947.03 1688,-887.03 1242,-887.03"/>
<text text-anchor="start" x="1253" y="-908.23" font-family="Helvetica,sans-Serif" font-weight="bold" font-size="32.00" fill="#29235c">id</text>
<text text-anchor="start" x="1277.89" y="-908.23" font-family="Helvetica,sans-Serif" font-size="32.00" fill="#29235c"> &#160;&#160;&#160;</text>
<text text-anchor="start" x="1643.22" y="-908.23" font-family="Helvetica,sans-Serif" font-style="italic" font-size="32.00" fill="#29235c">int</text>
<polygon fill="#e7e2dd" stroke="transparent" points="1242,-827.03 1242,-887.03 1688,-887.03 1688,-827.03 1242,-827.03"/>
<polygon fill="none" stroke="#29235c" points="1242,-827.03 1242,-887.03 1688,-887.03 1688,-827.03 1242,-827.03"/>
<text text-anchor="start" x="1253" y="-847.23" font-family="Helvetica,sans-Serif" font-size="32.00" fill="#29235c">title_id &#160;&#160;&#160;</text>
<text text-anchor="start" x="1643.22" y="-848.23" font-family="Helvetica,sans-Serif" font-style="italic" font-size="32.00" fill="#29235c">int</text>
<polygon fill="#e7e2dd" stroke="transparent" points="1242,-767.03 1242,-827.03 1688,-827.03 1688,-767.03 1242,-767.03"/>
<polygon fill="none" stroke="#29235c" points="1242,-767.03 1242,-827.03 1688,-827.03 1688,-767.03 1242,-767.03"/>
<text text-anchor="start" x="1253" y="-787.23" font-family="Helvetica,sans-Serif" font-size="32.00" fill="#29235c">name &#160;&#160;&#160;</text>
<text text-anchor="start" x="1531.24" y="-788.23" font-family="Helvetica,sans-Serif" font-style="italic" font-size="32.00" fill="#29235c">varchar</text>
<text text-anchor="start" x="1637.91" y="-788.23" font-family="Helvetica,sans-Serif" font-size="32.00" fill="#29235c"> </text>
<text text-anchor="start" x="1646.8" y="-788.23" font-family="Helvetica,sans-Serif" font-weight="bold" font-size="32.00" fill="#29235c">(!)</text>
<polygon fill="#e7e2dd" stroke="transparent" points="1242,-707.03 1242,-767.03 1688,-767.03 1688,-707.03 1242,-707.03"/>
<polygon fill="none" stroke="#29235c" points="1242,-707.03 1242,-767.03 1688,-767.03 1688,-707.03 1242,-707.03"/>
<text text-anchor="start" x="1253" y="-727.23" font-family="Helvetica,sans-Serif" font-size="32.00" fill="#29235c">email &#160;&#160;&#160;</text>
<text text-anchor="start" x="1531.24" y="-728.23" font-family="Helvetica,sans-Serif" font-style="italic" font-size="32.00" fill="#29235c">varchar</text>
<text text-anchor="start" x="1637.91" y="-728.23" font-family="Helvetica,sans-Serif" font-size="32.00" fill="#29235c"> </text>
<text text-anchor="start" x="1646.8" y="-728.23" font-family="Helvetica,sans-Serif" font-weight="bold" font-size="32.00" fill="#29235c">(!)</text>
<polygon fill="#e7e2dd" stroke="transparent" points="1242,-647.03 1242,-707.03 1688,-707.03 1688,-647.03 1242,-647.03"/>
<polygon fill="none" stroke="#29235c" points="1242,-647.03 1242,-707.03 1688,-707.03 1688,-647.03 1242,-647.03"/>
<text text-anchor="start" x="1252.81" y="-667.23" font-family="Helvetica,sans-Serif" font-size="32.00" fill="#29235c">email_verified_at &#160;&#160;&#160;</text>
<text text-anchor="start" x="1529.72" y="-668.23" font-family="Helvetica,sans-Serif" font-style="italic" font-size="32.00" fill="#29235c">timestamp</text>
<polygon fill="#e7e2dd" stroke="transparent" points="1242,-587.03 1242,-647.03 1688,-647.03 1688,-587.03 1242,-587.03"/>
<polygon fill="none" stroke="#29235c" points="1242,-587.03 1242,-647.03 1688,-647.03 1688,-587.03 1242,-587.03"/>
<text text-anchor="start" x="1253" y="-607.23" font-family="Helvetica,sans-Serif" font-size="32.00" fill="#29235c">password &#160;&#160;&#160;</text>
<text text-anchor="start" x="1531.24" y="-608.23" font-family="Helvetica,sans-Serif" font-style="italic" font-size="32.00" fill="#29235c">varchar</text>
<text text-anchor="start" x="1637.91" y="-608.23" font-family="Helvetica,sans-Serif" font-size="32.00" fill="#29235c"> </text>
<text text-anchor="start" x="1646.8" y="-608.23" font-family="Helvetica,sans-Serif" font-weight="bold" font-size="32.00" fill="#29235c">(!)</text>
<polygon fill="#e7e2dd" stroke="transparent" points="1242,-527.03 1242,-587.03 1688,-587.03 1688,-527.03 1242,-527.03"/>
<polygon fill="none" stroke="#29235c" points="1242,-527.03 1242,-587.03 1688,-587.03 1688,-527.03 1242,-527.03"/>
<text text-anchor="start" x="1253" y="-547.23" font-family="Helvetica,sans-Serif" font-size="32.00" fill="#29235c">remember_token &#160;&#160;&#160;</text>
<text text-anchor="start" x="1570.33" y="-548.23" font-family="Helvetica,sans-Serif" font-style="italic" font-size="32.00" fill="#29235c">varchar</text>
<polygon fill="#e7e2dd" stroke="transparent" points="1242,-467.03 1242,-527.03 1688,-527.03 1688,-467.03 1242,-467.03"/>
<polygon fill="none" stroke="#29235c" points="1242,-467.03 1242,-527.03 1688,-527.03 1688,-467.03 1242,-467.03"/>
<text text-anchor="start" x="1253" y="-487.23" font-family="Helvetica,sans-Serif" font-size="32.00" fill="#29235c">custom_fields &#160;&#160;&#160;</text>
<text text-anchor="start" x="1618.32" y="-488.23" font-family="Helvetica,sans-Serif" font-style="italic" font-size="32.00" fill="#29235c">json</text>
<polygon fill="#e7e2dd" stroke="transparent" points="1242,-407.03 1242,-467.03 1688,-467.03 1688,-407.03 1242,-407.03"/>
<polygon fill="none" stroke="#29235c" points="1242,-407.03 1242,-467.03 1688,-467.03 1688,-407.03 1242,-407.03"/>
<text text-anchor="start" x="1253" y="-427.23" font-family="Helvetica,sans-Serif" font-size="32.00" fill="#29235c">avatar_url &#160;&#160;&#160;</text>
<text text-anchor="start" x="1570.33" y="-428.23" font-family="Helvetica,sans-Serif" font-style="italic" font-size="32.00" fill="#29235c">varchar</text>
<polygon fill="#e7e2dd" stroke="transparent" points="1242,-347.03 1242,-407.03 1688,-407.03 1688,-347.03 1242,-347.03"/>
<polygon fill="none" stroke="#29235c" points="1242,-347.03 1242,-407.03 1688,-407.03 1688,-347.03 1242,-347.03"/>
<text text-anchor="start" x="1253" y="-367.23" font-family="Helvetica,sans-Serif" font-size="32.00" fill="#29235c">created_at &#160;&#160;&#160;</text>
<text text-anchor="start" x="1529.44" y="-368.23" font-family="Helvetica,sans-Serif" font-style="italic" font-size="32.00" fill="#29235c">timestamp</text>
<polygon fill="#e7e2dd" stroke="transparent" points="1242,-287.03 1242,-347.03 1688,-347.03 1688,-287.03 1242,-287.03"/>
<polygon fill="none" stroke="#29235c" points="1242,-287.03 1242,-347.03 1688,-347.03 1688,-287.03 1242,-287.03"/>
<text text-anchor="start" x="1253" y="-307.23" font-family="Helvetica,sans-Serif" font-size="32.00" fill="#29235c">updated_at &#160;&#160;&#160;</text>
<text text-anchor="start" x="1529.44" y="-308.23" font-family="Helvetica,sans-Serif" font-style="italic" font-size="32.00" fill="#29235c">timestamp</text>
<polygon fill="none" stroke="#29235c" stroke-width="2" points="1241,-286.03 1241,-1008.03 1689,-1008.03 1689,-286.03 1241,-286.03"/>
</g>
<!-- users&#45;&gt;titles -->
<!-- users&#45;&gt;titles -->
<g id="edge10" class="edge">
<title>users:e&#45;&gt;titles:w</title>
<path fill="none" stroke="#29235c" stroke-width="3" d="M1689,-857.03C1781.5,-857.03 1799.23,-912.77 1886.32,-916.8"/>
<polygon fill="#29235c" stroke="#29235c" stroke-width="3" points="1886.34,-920.3 1896.41,-917.03 1886.5,-913.31 1886.34,-920.3"/>
<text text-anchor="middle" x="1887.52" y="-926.63" font-family="Helvetica,sans-Serif" font-size="32.00" fill="#29235c">1</text>
<text text-anchor="middle" x="1680.11" y="-866.63" font-family="Helvetica,sans-Serif" font-size="32.00" fill="#29235c">1</text>
</g>
<!-- roles -->
<g id="roles" class="node">
<title>roles</title>
<ellipse fill="none" stroke="black" stroke-width="0" cx="850.59" cy="-827.03" rx="260.43" ry="257.27"/>
<polygon fill="#1d71b8" stroke="transparent" points="668.59,-947.03 668.59,-1007.03 1032.59,-1007.03 1032.59,-947.03 668.59,-947.03"/>
<polygon fill="none" stroke="#29235c" points="668.59,-947.03 668.59,-1007.03 1032.59,-1007.03 1032.59,-947.03 668.59,-947.03"/>
<text text-anchor="start" x="753.67" y="-968.23" font-family="Helvetica,sans-Serif" font-weight="bold" font-size="32.00" fill="#ffffff"> &#160;&#160;&#160;&#160;&#160;&#160;roles &#160;&#160;&#160;&#160;&#160;&#160;</text>
<polygon fill="#e7e2dd" stroke="transparent" points="668.59,-887.03 668.59,-947.03 1032.59,-947.03 1032.59,-887.03 668.59,-887.03"/>
<polygon fill="none" stroke="#29235c" points="668.59,-887.03 668.59,-947.03 1032.59,-947.03 1032.59,-887.03 668.59,-887.03"/>
<text text-anchor="start" x="679.59" y="-908.23" font-family="Helvetica,sans-Serif" font-weight="bold" font-size="32.00" fill="#29235c">id</text>
<text text-anchor="start" x="704.48" y="-908.23" font-family="Helvetica,sans-Serif" font-size="32.00" fill="#29235c"> &#160;&#160;&#160;</text>
<text text-anchor="start" x="987.8" y="-908.23" font-family="Helvetica,sans-Serif" font-style="italic" font-size="32.00" fill="#29235c">int</text>
<polygon fill="#e7e2dd" stroke="transparent" points="668.59,-827.03 668.59,-887.03 1032.59,-887.03 1032.59,-827.03 668.59,-827.03"/>
<polygon fill="none" stroke="#29235c" points="668.59,-827.03 668.59,-887.03 1032.59,-887.03 1032.59,-827.03 668.59,-827.03"/>
<text text-anchor="start" x="679.59" y="-847.23" font-family="Helvetica,sans-Serif" font-size="32.00" fill="#29235c">name &#160;&#160;&#160;</text>
<text text-anchor="start" x="914.92" y="-848.23" font-family="Helvetica,sans-Serif" font-style="italic" font-size="32.00" fill="#29235c">varchar</text>
<polygon fill="#e7e2dd" stroke="transparent" points="668.59,-767.03 668.59,-827.03 1032.59,-827.03 1032.59,-767.03 668.59,-767.03"/>
<polygon fill="none" stroke="#29235c" points="668.59,-767.03 668.59,-827.03 1032.59,-827.03 1032.59,-767.03 668.59,-767.03"/>
<text text-anchor="start" x="679.59" y="-787.23" font-family="Helvetica,sans-Serif" font-size="32.00" fill="#29235c">user_id &#160;&#160;&#160;</text>
<text text-anchor="start" x="987.8" y="-788.23" font-family="Helvetica,sans-Serif" font-style="italic" font-size="32.00" fill="#29235c">int</text>
<polygon fill="#e7e2dd" stroke="transparent" points="668.59,-707.03 668.59,-767.03 1032.59,-767.03 1032.59,-707.03 668.59,-707.03"/>
<polygon fill="none" stroke="#29235c" points="668.59,-707.03 668.59,-767.03 1032.59,-767.03 1032.59,-707.03 668.59,-707.03"/>
<text text-anchor="start" x="679.59" y="-727.23" font-family="Helvetica,sans-Serif" font-size="32.00" fill="#29235c">created_at &#160;&#160;&#160;</text>
<text text-anchor="start" x="874.03" y="-728.23" font-family="Helvetica,sans-Serif" font-style="italic" font-size="32.00" fill="#29235c">timestamp</text>
<polygon fill="#e7e2dd" stroke="transparent" points="668.59,-647.03 668.59,-707.03 1032.59,-707.03 1032.59,-647.03 668.59,-647.03"/>
<polygon fill="none" stroke="#29235c" points="668.59,-647.03 668.59,-707.03 1032.59,-707.03 1032.59,-647.03 668.59,-647.03"/>
<text text-anchor="start" x="679.25" y="-667.23" font-family="Helvetica,sans-Serif" font-size="32.00" fill="#29235c">updated_at &#160;&#160;&#160;</text>
<text text-anchor="start" x="874.31" y="-668.23" font-family="Helvetica,sans-Serif" font-style="italic" font-size="32.00" fill="#29235c">timestamp</text>
<polygon fill="none" stroke="#29235c" stroke-width="2" points="667.59,-646.03 667.59,-1008.03 1033.59,-1008.03 1033.59,-646.03 667.59,-646.03"/>
</g>
<!-- roles&#45;&gt;users -->
<!-- roles&#45;&gt;users -->
<g id="edge12" class="edge">
<title>roles:e&#45;&gt;users:w</title>
<path fill="none" stroke="#29235c" stroke-width="3" d="M1033.59,-797.03C1136.55,-797.03 1134.75,-909.2 1230.75,-916.64"/>
<polygon fill="#29235c" stroke="#29235c" stroke-width="3" points="1230.88,-920.15 1241,-917.03 1231.14,-913.16 1230.88,-920.15"/>
<text text-anchor="middle" x="1232.11" y="-926.63" font-family="Helvetica,sans-Serif" font-size="32.00" fill="#29235c">1</text>
<text text-anchor="middle" x="1039.81" y="-806.63" font-family="Helvetica,sans-Serif" font-size="32.00" fill="#29235c">*</text>
</g>
<!-- role_permissions -->
<g id="role_permissions" class="node">
<title>role_permissions</title>
<ellipse fill="none" stroke="black" stroke-width="0" cx="277.19" cy="-627.03" rx="277.37" ry="257.27"/>
<polygon fill="#1d71b8" stroke="transparent" points="83.19,-747.03 83.19,-807.03 471.19,-807.03 471.19,-747.03 83.19,-747.03"/>
<polygon fill="none" stroke="#29235c" points="83.19,-747.03 83.19,-807.03 471.19,-807.03 471.19,-747.03 83.19,-747.03"/>
<text text-anchor="start" x="94.05" y="-768.23" font-family="Helvetica,sans-Serif" font-weight="bold" font-size="32.00" fill="#ffffff"> &#160;&#160;&#160;&#160;&#160;&#160;role_permissions &#160;&#160;&#160;&#160;&#160;&#160;</text>
<polygon fill="#e7e2dd" stroke="transparent" points="83.19,-687.03 83.19,-747.03 471.19,-747.03 471.19,-687.03 83.19,-687.03"/>
<polygon fill="none" stroke="#29235c" points="83.19,-687.03 83.19,-747.03 471.19,-747.03 471.19,-687.03 83.19,-687.03"/>
<text text-anchor="start" x="94.19" y="-708.23" font-family="Helvetica,sans-Serif" font-weight="bold" font-size="32.00" fill="#29235c">id</text>
<text text-anchor="start" x="119.08" y="-708.23" font-family="Helvetica,sans-Serif" font-size="32.00" fill="#29235c"> &#160;&#160;&#160;</text>
<text text-anchor="start" x="426.4" y="-708.23" font-family="Helvetica,sans-Serif" font-style="italic" font-size="32.00" fill="#29235c">int</text>
<polygon fill="#e7e2dd" stroke="transparent" points="83.19,-627.03 83.19,-687.03 471.19,-687.03 471.19,-627.03 83.19,-627.03"/>
<polygon fill="none" stroke="#29235c" points="83.19,-627.03 83.19,-687.03 471.19,-687.03 471.19,-627.03 83.19,-627.03"/>
<text text-anchor="start" x="94.19" y="-647.23" font-family="Helvetica,sans-Serif" font-size="32.00" fill="#29235c">role_id &#160;&#160;&#160;</text>
<text text-anchor="start" x="426.4" y="-648.23" font-family="Helvetica,sans-Serif" font-style="italic" font-size="32.00" fill="#29235c">int</text>
<polygon fill="#e7e2dd" stroke="transparent" points="83.19,-567.03 83.19,-627.03 471.19,-627.03 471.19,-567.03 83.19,-567.03"/>
<polygon fill="none" stroke="#29235c" points="83.19,-567.03 83.19,-627.03 471.19,-627.03 471.19,-567.03 83.19,-567.03"/>
<text text-anchor="start" x="94.19" y="-587.23" font-family="Helvetica,sans-Serif" font-size="32.00" fill="#29235c">permission_id &#160;&#160;&#160;</text>
<text text-anchor="start" x="426.4" y="-588.23" font-family="Helvetica,sans-Serif" font-style="italic" font-size="32.00" fill="#29235c">int</text>
<polygon fill="#e7e2dd" stroke="transparent" points="83.19,-507.03 83.19,-567.03 471.19,-567.03 471.19,-507.03 83.19,-507.03"/>
<polygon fill="none" stroke="#29235c" points="83.19,-507.03 83.19,-567.03 471.19,-567.03 471.19,-507.03 83.19,-507.03"/>
<text text-anchor="start" x="94.19" y="-527.23" font-family="Helvetica,sans-Serif" font-size="32.00" fill="#29235c">created_at &#160;&#160;&#160;</text>
<text text-anchor="start" x="312.63" y="-528.23" font-family="Helvetica,sans-Serif" font-style="italic" font-size="32.00" fill="#29235c">timestamp</text>
<polygon fill="#e7e2dd" stroke="transparent" points="83.19,-447.03 83.19,-507.03 471.19,-507.03 471.19,-447.03 83.19,-447.03"/>
<polygon fill="none" stroke="#29235c" points="83.19,-447.03 83.19,-507.03 471.19,-507.03 471.19,-447.03 83.19,-447.03"/>
<text text-anchor="start" x="94.19" y="-467.23" font-family="Helvetica,sans-Serif" font-size="32.00" fill="#29235c">updated_at &#160;&#160;&#160;</text>
<text text-anchor="start" x="312.63" y="-468.23" font-family="Helvetica,sans-Serif" font-style="italic" font-size="32.00" fill="#29235c">timestamp</text>
<polygon fill="none" stroke="#29235c" stroke-width="2" points="82.19,-446.03 82.19,-808.03 472.19,-808.03 472.19,-446.03 82.19,-446.03"/>
</g>
<!-- role_permissions&#45;&gt;permissions -->
<!-- role_permissions&#45;&gt;permissions -->
<g id="edge16" class="edge">
<title>role_permissions:e&#45;&gt;permissions:w</title>
<path fill="none" stroke="#29235c" stroke-width="3" d="M472.19,-597.03C592.94,-597.03 546.18,-408.2 657.45,-397.5"/>
<polygon fill="#29235c" stroke="#29235c" stroke-width="3" points="657.76,-400.99 667.59,-397.03 657.44,-394 657.76,-400.99"/>
<text text-anchor="middle" x="676.48" y="-406.63" font-family="Helvetica,sans-Serif" font-size="32.00" fill="#29235c">1</text>
<text text-anchor="middle" x="465.96" y="-606.63" font-family="Helvetica,sans-Serif" font-size="32.00" fill="#29235c">*</text>
</g>
<!-- role_permissions&#45;&gt;roles -->
<!-- role_permissions&#45;&gt;roles -->
<g id="edge14" class="edge">
<title>role_permissions:e&#45;&gt;roles:w</title>
<path fill="none" stroke="#29235c" stroke-width="3" d="M472.19,-657.03C613.21,-657.03 527.47,-904.49 657.42,-916.57"/>
<polygon fill="#29235c" stroke="#29235c" stroke-width="3" points="657.44,-920.08 667.59,-917.03 657.75,-913.09 657.44,-920.08"/>
<text text-anchor="middle" x="676.48" y="-926.63" font-family="Helvetica,sans-Serif" font-size="32.00" fill="#29235c">1</text>
<text text-anchor="middle" x="465.96" y="-666.63" font-family="Helvetica,sans-Serif" font-size="32.00" fill="#29235c">*</text>
</g>
</g>
</svg>
