<?xml version="1.0" encoding="UTF-8" standalone="no"?>
<!DOCTYPE svg PUBLIC "-//W3C//DTD SVG 1.1//EN"
 "http://www.w3.org/Graphics/SVG/1.1/DTD/svg11.dtd">
<!-- Generated by graphviz version 2.47.0 (20210316.0004)
 -->
<!-- Title: dbml Pages: 1 -->
<svg width="1119pt" height="886pt"
 viewBox="0.00 0.00 1118.80 885.92" xmlns="http://www.w3.org/2000/svg" xmlns:xlink="http://www.w3.org/1999/xlink">
<g id="graph0" class="graph" transform="scale(1 1) rotate(0) translate(4 881.92)">
<title>dbml</title>
<!-- permissions -->
<g id="permissions" class="node">
<title>permissions</title>
<ellipse fill="none" stroke="black" stroke-width="0" cx="850.59" cy="-214.96" rx="260.43" ry="214.92"/>
<polygon fill="#1d71b8" stroke="transparent" points="668.59,-304.96 668.59,-364.96 1032.59,-364.96 1032.59,-304.96 668.59,-304.96"/>
<polygon fill="none" stroke="#29235c" points="668.59,-304.96 668.59,-364.96 1032.59,-364.96 1032.59,-304.96 668.59,-304.96"/>
<text text-anchor="start" x="703.01" y="-326.16" font-family="Helvetica,sans-Serif" font-weight="bold" font-size="32.00" fill="#ffffff"> &#160;&#160;&#160;&#160;&#160;&#160;permissions &#160;&#160;&#160;&#160;&#160;&#160;</text>
<polygon fill="#e7e2dd" stroke="transparent" points="668.59,-244.96 668.59,-304.96 1032.59,-304.96 1032.59,-244.96 668.59,-244.96"/>
<polygon fill="none" stroke="#29235c" points="668.59,-244.96 668.59,-304.96 1032.59,-304.96 1032.59,-244.96 668.59,-244.96"/>
<text text-anchor="start" x="679.59" y="-266.16" font-family="Helvetica,sans-Serif" font-weight="bold" font-size="32.00" fill="#29235c">id</text>
<text text-anchor="start" x="704.48" y="-266.16" font-family="Helvetica,sans-Serif" font-size="32.00" fill="#29235c"> &#160;&#160;&#160;</text>
<text text-anchor="start" x="987.8" y="-266.16" font-family="Helvetica,sans-Serif" font-style="italic" font-size="32.00" fill="#29235c">int</text>
<polygon fill="#e7e2dd" stroke="transparent" points="668.59,-184.96 668.59,-244.96 1032.59,-244.96 1032.59,-184.96 668.59,-184.96"/>
<polygon fill="none" stroke="#29235c" points="668.59,-184.96 668.59,-244.96 1032.59,-244.96 1032.59,-184.96 668.59,-184.96"/>
<text text-anchor="start" x="679.59" y="-205.16" font-family="Helvetica,sans-Serif" font-size="32.00" fill="#29235c">name &#160;&#160;&#160;</text>
<text text-anchor="start" x="914.92" y="-206.16" font-family="Helvetica,sans-Serif" font-style="italic" font-size="32.00" fill="#29235c">varchar</text>
<polygon fill="#e7e2dd" stroke="transparent" points="668.59,-124.96 668.59,-184.96 1032.59,-184.96 1032.59,-124.96 668.59,-124.96"/>
<polygon fill="none" stroke="#29235c" points="668.59,-124.96 668.59,-184.96 1032.59,-184.96 1032.59,-124.96 668.59,-124.96"/>
<text text-anchor="start" x="679.59" y="-145.16" font-family="Helvetica,sans-Serif" font-size="32.00" fill="#29235c">created_at &#160;&#160;&#160;</text>
<text text-anchor="start" x="874.03" y="-146.16" font-family="Helvetica,sans-Serif" font-style="italic" font-size="32.00" fill="#29235c">timestamp</text>
<polygon fill="#e7e2dd" stroke="transparent" points="668.59,-64.96 668.59,-124.96 1032.59,-124.96 1032.59,-64.96 668.59,-64.96"/>
<polygon fill="none" stroke="#29235c" points="668.59,-64.96 668.59,-124.96 1032.59,-124.96 1032.59,-64.96 668.59,-64.96"/>
<text text-anchor="start" x="679.25" y="-85.16" font-family="Helvetica,sans-Serif" font-size="32.00" fill="#29235c">updated_at &#160;&#160;&#160;</text>
<text text-anchor="start" x="874.31" y="-86.16" font-family="Helvetica,sans-Serif" font-style="italic" font-size="32.00" fill="#29235c">timestamp</text>
<polygon fill="none" stroke="#29235c" stroke-width="2" points="667.59,-63.96 667.59,-365.96 1033.59,-365.96 1033.59,-63.96 667.59,-63.96"/>
</g>
<!-- roles -->
<g id="roles" class="node">
<title>roles</title>
<ellipse fill="none" stroke="black" stroke-width="0" cx="850.59" cy="-662.96" rx="260.43" ry="214.92"/>
<polygon fill="#1d71b8" stroke="transparent" points="668.59,-752.96 668.59,-812.96 1032.59,-812.96 1032.59,-752.96 668.59,-752.96"/>
<polygon fill="none" stroke="#29235c" points="668.59,-752.96 668.59,-812.96 1032.59,-812.96 1032.59,-752.96 668.59,-752.96"/>
<text text-anchor="start" x="753.67" y="-774.16" font-family="Helvetica,sans-Serif" font-weight="bold" font-size="32.00" fill="#ffffff"> &#160;&#160;&#160;&#160;&#160;&#160;roles &#160;&#160;&#160;&#160;&#160;&#160;</text>
<polygon fill="#e7e2dd" stroke="transparent" points="668.59,-692.96 668.59,-752.96 1032.59,-752.96 1032.59,-692.96 668.59,-692.96"/>
<polygon fill="none" stroke="#29235c" points="668.59,-692.96 668.59,-752.96 1032.59,-752.96 1032.59,-692.96 668.59,-692.96"/>
<text text-anchor="start" x="679.59" y="-714.16" font-family="Helvetica,sans-Serif" font-weight="bold" font-size="32.00" fill="#29235c">id</text>
<text text-anchor="start" x="704.48" y="-714.16" font-family="Helvetica,sans-Serif" font-size="32.00" fill="#29235c"> &#160;&#160;&#160;</text>
<text text-anchor="start" x="987.8" y="-714.16" font-family="Helvetica,sans-Serif" font-style="italic" font-size="32.00" fill="#29235c">int</text>
<polygon fill="#e7e2dd" stroke="transparent" points="668.59,-632.96 668.59,-692.96 1032.59,-692.96 1032.59,-632.96 668.59,-632.96"/>
<polygon fill="none" stroke="#29235c" points="668.59,-632.96 668.59,-692.96 1032.59,-692.96 1032.59,-632.96 668.59,-632.96"/>
<text text-anchor="start" x="679.59" y="-653.16" font-family="Helvetica,sans-Serif" font-size="32.00" fill="#29235c">name &#160;&#160;&#160;</text>
<text text-anchor="start" x="914.92" y="-654.16" font-family="Helvetica,sans-Serif" font-style="italic" font-size="32.00" fill="#29235c">varchar</text>
<polygon fill="#e7e2dd" stroke="transparent" points="668.59,-572.96 668.59,-632.96 1032.59,-632.96 1032.59,-572.96 668.59,-572.96"/>
<polygon fill="none" stroke="#29235c" points="668.59,-572.96 668.59,-632.96 1032.59,-632.96 1032.59,-572.96 668.59,-572.96"/>
<text text-anchor="start" x="679.59" y="-593.16" font-family="Helvetica,sans-Serif" font-size="32.00" fill="#29235c">created_at &#160;&#160;&#160;</text>
<text text-anchor="start" x="874.03" y="-594.16" font-family="Helvetica,sans-Serif" font-style="italic" font-size="32.00" fill="#29235c">timestamp</text>
<polygon fill="#e7e2dd" stroke="transparent" points="668.59,-512.96 668.59,-572.96 1032.59,-572.96 1032.59,-512.96 668.59,-512.96"/>
<polygon fill="none" stroke="#29235c" points="668.59,-512.96 668.59,-572.96 1032.59,-572.96 1032.59,-512.96 668.59,-512.96"/>
<text text-anchor="start" x="679.25" y="-533.16" font-family="Helvetica,sans-Serif" font-size="32.00" fill="#29235c">updated_at &#160;&#160;&#160;</text>
<text text-anchor="start" x="874.31" y="-534.16" font-family="Helvetica,sans-Serif" font-style="italic" font-size="32.00" fill="#29235c">timestamp</text>
<polygon fill="none" stroke="#29235c" stroke-width="2" points="667.59,-511.96 667.59,-813.96 1033.59,-813.96 1033.59,-511.96 667.59,-511.96"/>
</g>
<!-- role_permissions -->
<g id="role_permissions" class="node">
<title>role_permissions</title>
<ellipse fill="none" stroke="black" stroke-width="0" cx="277.19" cy="-468.96" rx="277.37" ry="257.27"/>
<polygon fill="#1d71b8" stroke="transparent" points="83.19,-588.96 83.19,-648.96 471.19,-648.96 471.19,-588.96 83.19,-588.96"/>
<polygon fill="none" stroke="#29235c" points="83.19,-588.96 83.19,-648.96 471.19,-648.96 471.19,-588.96 83.19,-588.96"/>
<text text-anchor="start" x="94.05" y="-610.16" font-family="Helvetica,sans-Serif" font-weight="bold" font-size="32.00" fill="#ffffff"> &#160;&#160;&#160;&#160;&#160;&#160;role_permissions &#160;&#160;&#160;&#160;&#160;&#160;</text>
<polygon fill="#e7e2dd" stroke="transparent" points="83.19,-528.96 83.19,-588.96 471.19,-588.96 471.19,-528.96 83.19,-528.96"/>
<polygon fill="none" stroke="#29235c" points="83.19,-528.96 83.19,-588.96 471.19,-588.96 471.19,-528.96 83.19,-528.96"/>
<text text-anchor="start" x="94.19" y="-550.16" font-family="Helvetica,sans-Serif" font-weight="bold" font-size="32.00" fill="#29235c">id</text>
<text text-anchor="start" x="119.08" y="-550.16" font-family="Helvetica,sans-Serif" font-size="32.00" fill="#29235c"> &#160;&#160;&#160;</text>
<text text-anchor="start" x="426.4" y="-550.16" font-family="Helvetica,sans-Serif" font-style="italic" font-size="32.00" fill="#29235c">int</text>
<polygon fill="#e7e2dd" stroke="transparent" points="83.19,-468.96 83.19,-528.96 471.19,-528.96 471.19,-468.96 83.19,-468.96"/>
<polygon fill="none" stroke="#29235c" points="83.19,-468.96 83.19,-528.96 471.19,-528.96 471.19,-468.96 83.19,-468.96"/>
<text text-anchor="start" x="94.19" y="-489.16" font-family="Helvetica,sans-Serif" font-size="32.00" fill="#29235c">role_id &#160;&#160;&#160;</text>
<text text-anchor="start" x="426.4" y="-490.16" font-family="Helvetica,sans-Serif" font-style="italic" font-size="32.00" fill="#29235c">int</text>
<polygon fill="#e7e2dd" stroke="transparent" points="83.19,-408.96 83.19,-468.96 471.19,-468.96 471.19,-408.96 83.19,-408.96"/>
<polygon fill="none" stroke="#29235c" points="83.19,-408.96 83.19,-468.96 471.19,-468.96 471.19,-408.96 83.19,-408.96"/>
<text text-anchor="start" x="94.19" y="-429.16" font-family="Helvetica,sans-Serif" font-size="32.00" fill="#29235c">permission_id &#160;&#160;&#160;</text>
<text text-anchor="start" x="426.4" y="-430.16" font-family="Helvetica,sans-Serif" font-style="italic" font-size="32.00" fill="#29235c">int</text>
<polygon fill="#e7e2dd" stroke="transparent" points="83.19,-348.96 83.19,-408.96 471.19,-408.96 471.19,-348.96 83.19,-348.96"/>
<polygon fill="none" stroke="#29235c" points="83.19,-348.96 83.19,-408.96 471.19,-408.96 471.19,-348.96 83.19,-348.96"/>
<text text-anchor="start" x="94.19" y="-369.16" font-family="Helvetica,sans-Serif" font-size="32.00" fill="#29235c">created_at &#160;&#160;&#160;</text>
<text text-anchor="start" x="312.63" y="-370.16" font-family="Helvetica,sans-Serif" font-style="italic" font-size="32.00" fill="#29235c">timestamp</text>
<polygon fill="#e7e2dd" stroke="transparent" points="83.19,-288.96 83.19,-348.96 471.19,-348.96 471.19,-288.96 83.19,-288.96"/>
<polygon fill="none" stroke="#29235c" points="83.19,-288.96 83.19,-348.96 471.19,-348.96 471.19,-288.96 83.19,-288.96"/>
<text text-anchor="start" x="94.19" y="-309.16" font-family="Helvetica,sans-Serif" font-size="32.00" fill="#29235c">updated_at &#160;&#160;&#160;</text>
<text text-anchor="start" x="312.63" y="-310.16" font-family="Helvetica,sans-Serif" font-style="italic" font-size="32.00" fill="#29235c">timestamp</text>
<polygon fill="none" stroke="#29235c" stroke-width="2" points="82.19,-287.96 82.19,-649.96 472.19,-649.96 472.19,-287.96 82.19,-287.96"/>
</g>
<!-- role_permissions&#45;&gt;permissions -->
<!-- role_permissions&#45;&gt;permissions -->
<g id="edge4" class="edge">
<title>role_permissions:e&#45;&gt;permissions:w</title>
<path fill="none" stroke="#29235c" stroke-width="3" d="M472.19,-438.96C582.02,-438.96 556.03,-285.05 657.37,-275.43"/>
<polygon fill="#29235c" stroke="#29235c" stroke-width="3" points="657.76,-278.92 667.59,-274.96 657.44,-271.92 657.76,-278.92"/>
<text text-anchor="middle" x="658.69" y="-246.16" font-family="Helvetica,sans-Serif" font-size="32.00" fill="#29235c">1</text>
<text text-anchor="middle" x="478.41" y="-410.16" font-family="Helvetica,sans-Serif" font-size="32.00" fill="#29235c">*</text>
</g>
<!-- role_permissions&#45;&gt;roles -->
<!-- role_permissions&#45;&gt;roles -->
<g id="edge2" class="edge">
<title>role_permissions:e&#45;&gt;roles:w</title>
<path fill="none" stroke="#29235c" stroke-width="3" d="M472.19,-498.96C600.81,-498.96 538.97,-711.3 657.55,-722.5"/>
<polygon fill="#29235c" stroke="#29235c" stroke-width="3" points="657.44,-726 667.59,-722.96 657.76,-719.01 657.44,-726"/>
<text text-anchor="middle" x="658.69" y="-732.56" font-family="Helvetica,sans-Serif" font-size="32.00" fill="#29235c">1</text>
<text text-anchor="middle" x="478.41" y="-470.16" font-family="Helvetica,sans-Serif" font-size="32.00" fill="#29235c">*</text>
</g>
</g>
</svg>
