<?xml version="1.0" encoding="UTF-8" standalone="no"?>
<!DOCTYPE svg PUBLIC "-//W3C//DTD SVG 1.1//EN"
 "http://www.w3.org/Graphics/SVG/1.1/DTD/svg11.dtd">
<!-- Generated by graphviz version 2.47.0 (20210316.0004)
 -->
<!-- Title: dbml Pages: 1 -->
<svg width="3460pt" height="1112pt"
 viewBox="0.00 0.00 3460.49 1111.89" xmlns="http://www.w3.org/2000/svg" xmlns:xlink="http://www.w3.org/1999/xlink">
<g id="graph0" class="graph" transform="scale(1 1) rotate(0) translate(4 1107.89)">
<title>dbml</title>
<!-- levels -->
<g id="levels" class="node">
<title>levels</title>
<ellipse fill="none" stroke="black" stroke-width="0" cx="2635.84" cy="-280.53" rx="260.43" ry="214.92"/>
<polygon fill="#1d71b8" stroke="transparent" points="2453.84,-370.53 2453.84,-430.53 2817.84,-430.53 2817.84,-370.53 2453.84,-370.53"/>
<polygon fill="none" stroke="#29235c" points="2453.84,-370.53 2453.84,-430.53 2817.84,-430.53 2817.84,-370.53 2453.84,-370.53"/>
<text text-anchor="start" x="2532.71" y="-391.73" font-family="Helvetica,sans-Serif" font-weight="bold" font-size="32.00" fill="#ffffff"> &#160;&#160;&#160;&#160;&#160;&#160;levels &#160;&#160;&#160;&#160;&#160;&#160;</text>
<polygon fill="#e7e2dd" stroke="transparent" points="2453.84,-310.53 2453.84,-370.53 2817.84,-370.53 2817.84,-310.53 2453.84,-310.53"/>
<polygon fill="none" stroke="#29235c" points="2453.84,-310.53 2453.84,-370.53 2817.84,-370.53 2817.84,-310.53 2453.84,-310.53"/>
<text text-anchor="start" x="2464.84" y="-331.73" font-family="Helvetica,sans-Serif" font-weight="bold" font-size="32.00" fill="#29235c">id</text>
<text text-anchor="start" x="2489.73" y="-331.73" font-family="Helvetica,sans-Serif" font-size="32.00" fill="#29235c"> &#160;&#160;&#160;</text>
<text text-anchor="start" x="2773.06" y="-331.73" font-family="Helvetica,sans-Serif" font-style="italic" font-size="32.00" fill="#29235c">int</text>
<polygon fill="#e7e2dd" stroke="transparent" points="2453.84,-250.53 2453.84,-310.53 2817.84,-310.53 2817.84,-250.53 2453.84,-250.53"/>
<polygon fill="none" stroke="#29235c" points="2453.84,-250.53 2453.84,-310.53 2817.84,-310.53 2817.84,-250.53 2453.84,-250.53"/>
<text text-anchor="start" x="2464.84" y="-270.73" font-family="Helvetica,sans-Serif" font-size="32.00" fill="#29235c">name &#160;&#160;&#160;</text>
<text text-anchor="start" x="2661.08" y="-271.73" font-family="Helvetica,sans-Serif" font-style="italic" font-size="32.00" fill="#29235c">varchar</text>
<text text-anchor="start" x="2767.75" y="-271.73" font-family="Helvetica,sans-Serif" font-size="32.00" fill="#29235c"> </text>
<text text-anchor="start" x="2776.65" y="-271.73" font-family="Helvetica,sans-Serif" font-weight="bold" font-size="32.00" fill="#29235c">(!)</text>
<polygon fill="#e7e2dd" stroke="transparent" points="2453.84,-190.53 2453.84,-250.53 2817.84,-250.53 2817.84,-190.53 2453.84,-190.53"/>
<polygon fill="none" stroke="#29235c" points="2453.84,-190.53 2453.84,-250.53 2817.84,-250.53 2817.84,-190.53 2453.84,-190.53"/>
<text text-anchor="start" x="2464.84" y="-210.73" font-family="Helvetica,sans-Serif" font-size="32.00" fill="#29235c">created_at &#160;&#160;&#160;</text>
<text text-anchor="start" x="2659.29" y="-211.73" font-family="Helvetica,sans-Serif" font-style="italic" font-size="32.00" fill="#29235c">timestamp</text>
<polygon fill="#e7e2dd" stroke="transparent" points="2453.84,-130.53 2453.84,-190.53 2817.84,-190.53 2817.84,-130.53 2453.84,-130.53"/>
<polygon fill="none" stroke="#29235c" points="2453.84,-130.53 2453.84,-190.53 2817.84,-190.53 2817.84,-130.53 2453.84,-130.53"/>
<text text-anchor="start" x="2464.51" y="-150.73" font-family="Helvetica,sans-Serif" font-size="32.00" fill="#29235c">updated_at &#160;&#160;&#160;</text>
<text text-anchor="start" x="2659.57" y="-151.73" font-family="Helvetica,sans-Serif" font-style="italic" font-size="32.00" fill="#29235c">timestamp</text>
<polygon fill="none" stroke="#29235c" stroke-width="2" points="2452.84,-129.53 2452.84,-431.53 2818.84,-431.53 2818.84,-129.53 2452.84,-129.53"/>
</g>
<!-- positions -->
<g id="positions" class="node">
<title>positions</title>
<ellipse fill="none" stroke="black" stroke-width="0" cx="2635.84" cy="-770.53" rx="260.43" ry="257.27"/>
<polygon fill="#1d71b8" stroke="transparent" points="2453.84,-890.53 2453.84,-950.53 2817.84,-950.53 2817.84,-890.53 2453.84,-890.53"/>
<polygon fill="none" stroke="#29235c" points="2453.84,-890.53 2453.84,-950.53 2817.84,-950.53 2817.84,-890.53 2453.84,-890.53"/>
<text text-anchor="start" x="2510.47" y="-911.73" font-family="Helvetica,sans-Serif" font-weight="bold" font-size="32.00" fill="#ffffff"> &#160;&#160;&#160;&#160;&#160;&#160;positions &#160;&#160;&#160;&#160;&#160;&#160;</text>
<polygon fill="#e7e2dd" stroke="transparent" points="2453.84,-830.53 2453.84,-890.53 2817.84,-890.53 2817.84,-830.53 2453.84,-830.53"/>
<polygon fill="none" stroke="#29235c" points="2453.84,-830.53 2453.84,-890.53 2817.84,-890.53 2817.84,-830.53 2453.84,-830.53"/>
<text text-anchor="start" x="2464.84" y="-851.73" font-family="Helvetica,sans-Serif" font-weight="bold" font-size="32.00" fill="#29235c">id</text>
<text text-anchor="start" x="2489.73" y="-851.73" font-family="Helvetica,sans-Serif" font-size="32.00" fill="#29235c"> &#160;&#160;&#160;</text>
<text text-anchor="start" x="2773.06" y="-851.73" font-family="Helvetica,sans-Serif" font-style="italic" font-size="32.00" fill="#29235c">int</text>
<polygon fill="#e7e2dd" stroke="transparent" points="2453.84,-770.53 2453.84,-830.53 2817.84,-830.53 2817.84,-770.53 2453.84,-770.53"/>
<polygon fill="none" stroke="#29235c" points="2453.84,-770.53 2453.84,-830.53 2817.84,-830.53 2817.84,-770.53 2453.84,-770.53"/>
<text text-anchor="start" x="2464.84" y="-790.73" font-family="Helvetica,sans-Serif" font-size="32.00" fill="#29235c">name &#160;&#160;&#160;</text>
<text text-anchor="start" x="2661.08" y="-791.73" font-family="Helvetica,sans-Serif" font-style="italic" font-size="32.00" fill="#29235c">varchar</text>
<text text-anchor="start" x="2767.75" y="-791.73" font-family="Helvetica,sans-Serif" font-size="32.00" fill="#29235c"> </text>
<text text-anchor="start" x="2776.65" y="-791.73" font-family="Helvetica,sans-Serif" font-weight="bold" font-size="32.00" fill="#29235c">(!)</text>
<polygon fill="#e7e2dd" stroke="transparent" points="2453.84,-710.53 2453.84,-770.53 2817.84,-770.53 2817.84,-710.53 2453.84,-710.53"/>
<polygon fill="none" stroke="#29235c" points="2453.84,-710.53 2453.84,-770.53 2817.84,-770.53 2817.84,-710.53 2453.84,-710.53"/>
<text text-anchor="start" x="2464.84" y="-730.73" font-family="Helvetica,sans-Serif" font-size="32.00" fill="#29235c">department_id &#160;&#160;&#160;</text>
<text text-anchor="start" x="2773.06" y="-731.73" font-family="Helvetica,sans-Serif" font-style="italic" font-size="32.00" fill="#29235c">int</text>
<polygon fill="#e7e2dd" stroke="transparent" points="2453.84,-650.53 2453.84,-710.53 2817.84,-710.53 2817.84,-650.53 2453.84,-650.53"/>
<polygon fill="none" stroke="#29235c" points="2453.84,-650.53 2453.84,-710.53 2817.84,-710.53 2817.84,-650.53 2453.84,-650.53"/>
<text text-anchor="start" x="2464.84" y="-670.73" font-family="Helvetica,sans-Serif" font-size="32.00" fill="#29235c">created_at &#160;&#160;&#160;</text>
<text text-anchor="start" x="2659.29" y="-671.73" font-family="Helvetica,sans-Serif" font-style="italic" font-size="32.00" fill="#29235c">timestamp</text>
<polygon fill="#e7e2dd" stroke="transparent" points="2453.84,-590.53 2453.84,-650.53 2817.84,-650.53 2817.84,-590.53 2453.84,-590.53"/>
<polygon fill="none" stroke="#29235c" points="2453.84,-590.53 2453.84,-650.53 2817.84,-650.53 2817.84,-590.53 2453.84,-590.53"/>
<text text-anchor="start" x="2464.51" y="-610.73" font-family="Helvetica,sans-Serif" font-size="32.00" fill="#29235c">updated_at &#160;&#160;&#160;</text>
<text text-anchor="start" x="2659.57" y="-611.73" font-family="Helvetica,sans-Serif" font-style="italic" font-size="32.00" fill="#29235c">timestamp</text>
<polygon fill="none" stroke="#29235c" stroke-width="2" points="2452.84,-589.53 2452.84,-951.53 2818.84,-951.53 2818.84,-589.53 2452.84,-589.53"/>
</g>
<!-- departments -->
<g id="departments" class="node">
<title>departments</title>
<ellipse fill="none" stroke="black" stroke-width="0" cx="3192.27" cy="-800.53" rx="260.43" ry="214.92"/>
<polygon fill="#1d71b8" stroke="transparent" points="3010.27,-890.53 3010.27,-950.53 3374.27,-950.53 3374.27,-890.53 3010.27,-890.53"/>
<polygon fill="none" stroke="#29235c" points="3010.27,-890.53 3010.27,-950.53 3374.27,-950.53 3374.27,-890.53 3010.27,-890.53"/>
<text text-anchor="start" x="3041.11" y="-911.73" font-family="Helvetica,sans-Serif" font-weight="bold" font-size="32.00" fill="#ffffff"> &#160;&#160;&#160;&#160;&#160;&#160;departments &#160;&#160;&#160;&#160;&#160;&#160;</text>
<polygon fill="#e7e2dd" stroke="transparent" points="3010.27,-830.53 3010.27,-890.53 3374.27,-890.53 3374.27,-830.53 3010.27,-830.53"/>
<polygon fill="none" stroke="#29235c" points="3010.27,-830.53 3010.27,-890.53 3374.27,-890.53 3374.27,-830.53 3010.27,-830.53"/>
<text text-anchor="start" x="3021.27" y="-851.73" font-family="Helvetica,sans-Serif" font-weight="bold" font-size="32.00" fill="#29235c">id</text>
<text text-anchor="start" x="3046.16" y="-851.73" font-family="Helvetica,sans-Serif" font-size="32.00" fill="#29235c"> &#160;&#160;&#160;</text>
<text text-anchor="start" x="3329.49" y="-851.73" font-family="Helvetica,sans-Serif" font-style="italic" font-size="32.00" fill="#29235c">int</text>
<polygon fill="#e7e2dd" stroke="transparent" points="3010.27,-770.53 3010.27,-830.53 3374.27,-830.53 3374.27,-770.53 3010.27,-770.53"/>
<polygon fill="none" stroke="#29235c" points="3010.27,-770.53 3010.27,-830.53 3374.27,-830.53 3374.27,-770.53 3010.27,-770.53"/>
<text text-anchor="start" x="3021.27" y="-790.73" font-family="Helvetica,sans-Serif" font-size="32.00" fill="#29235c">name &#160;&#160;&#160;</text>
<text text-anchor="start" x="3217.51" y="-791.73" font-family="Helvetica,sans-Serif" font-style="italic" font-size="32.00" fill="#29235c">varchar</text>
<text text-anchor="start" x="3324.18" y="-791.73" font-family="Helvetica,sans-Serif" font-size="32.00" fill="#29235c"> </text>
<text text-anchor="start" x="3333.08" y="-791.73" font-family="Helvetica,sans-Serif" font-weight="bold" font-size="32.00" fill="#29235c">(!)</text>
<polygon fill="#e7e2dd" stroke="transparent" points="3010.27,-710.53 3010.27,-770.53 3374.27,-770.53 3374.27,-710.53 3010.27,-710.53"/>
<polygon fill="none" stroke="#29235c" points="3010.27,-710.53 3010.27,-770.53 3374.27,-770.53 3374.27,-710.53 3010.27,-710.53"/>
<text text-anchor="start" x="3021.27" y="-730.73" font-family="Helvetica,sans-Serif" font-size="32.00" fill="#29235c">created_at &#160;&#160;&#160;</text>
<text text-anchor="start" x="3215.72" y="-731.73" font-family="Helvetica,sans-Serif" font-style="italic" font-size="32.00" fill="#29235c">timestamp</text>
<polygon fill="#e7e2dd" stroke="transparent" points="3010.27,-650.53 3010.27,-710.53 3374.27,-710.53 3374.27,-650.53 3010.27,-650.53"/>
<polygon fill="none" stroke="#29235c" points="3010.27,-650.53 3010.27,-710.53 3374.27,-710.53 3374.27,-650.53 3010.27,-650.53"/>
<text text-anchor="start" x="3020.94" y="-670.73" font-family="Helvetica,sans-Serif" font-size="32.00" fill="#29235c">updated_at &#160;&#160;&#160;</text>
<text text-anchor="start" x="3216" y="-671.73" font-family="Helvetica,sans-Serif" font-style="italic" font-size="32.00" fill="#29235c">timestamp</text>
<polygon fill="none" stroke="#29235c" stroke-width="2" points="3009.27,-649.53 3009.27,-951.53 3375.27,-951.53 3375.27,-649.53 3009.27,-649.53"/>
</g>
<!-- positions&#45;&gt;departments -->
<!-- positions&#45;&gt;departments -->
<g id="edge2" class="edge">
<title>positions:e&#45;&gt;departments:w</title>
<path fill="none" stroke="#29235c" stroke-width="3" d="M2818.84,-740.53C2915.37,-740.53 2909.78,-852.24 2999.12,-860.1"/>
<polygon fill="#29235c" stroke="#29235c" stroke-width="3" points="2999.13,-863.6 3009.27,-860.53 2999.43,-856.61 2999.13,-863.6"/>
<text text-anchor="middle" x="3000.38" y="-870.13" font-family="Helvetica,sans-Serif" font-size="32.00" fill="#29235c">1</text>
<text text-anchor="middle" x="2825.07" y="-750.13" font-family="Helvetica,sans-Serif" font-size="32.00" fill="#29235c">*</text>
</g>
<!-- titles -->
<g id="titles" class="node">
<title>titles</title>
<ellipse fill="none" stroke="black" stroke-width="0" cx="2079.41" cy="-710.53" rx="260.43" ry="342.48"/>
<polygon fill="#1d71b8" stroke="transparent" points="1897.41,-890.53 1897.41,-950.53 2261.41,-950.53 2261.41,-890.53 1897.41,-890.53"/>
<polygon fill="none" stroke="#29235c" points="1897.41,-890.53 1897.41,-950.53 2261.41,-950.53 2261.41,-890.53 1897.41,-890.53"/>
<text text-anchor="start" x="1984.28" y="-911.73" font-family="Helvetica,sans-Serif" font-weight="bold" font-size="32.00" fill="#ffffff"> &#160;&#160;&#160;&#160;&#160;&#160;titles &#160;&#160;&#160;&#160;&#160;&#160;</text>
<polygon fill="#e7e2dd" stroke="transparent" points="1897.41,-830.53 1897.41,-890.53 2261.41,-890.53 2261.41,-830.53 1897.41,-830.53"/>
<polygon fill="none" stroke="#29235c" points="1897.41,-830.53 1897.41,-890.53 2261.41,-890.53 2261.41,-830.53 1897.41,-830.53"/>
<text text-anchor="start" x="1908.41" y="-851.73" font-family="Helvetica,sans-Serif" font-weight="bold" font-size="32.00" fill="#29235c">id</text>
<text text-anchor="start" x="1933.3" y="-851.73" font-family="Helvetica,sans-Serif" font-size="32.00" fill="#29235c"> &#160;&#160;&#160;</text>
<text text-anchor="start" x="2216.63" y="-851.73" font-family="Helvetica,sans-Serif" font-style="italic" font-size="32.00" fill="#29235c">int</text>
<polygon fill="#e7e2dd" stroke="transparent" points="1897.41,-770.53 1897.41,-830.53 2261.41,-830.53 2261.41,-770.53 1897.41,-770.53"/>
<polygon fill="none" stroke="#29235c" points="1897.41,-770.53 1897.41,-830.53 2261.41,-830.53 2261.41,-770.53 1897.41,-770.53"/>
<text text-anchor="start" x="1908.41" y="-790.73" font-family="Helvetica,sans-Serif" font-size="32.00" fill="#29235c">name &#160;&#160;&#160;</text>
<text text-anchor="start" x="2104.65" y="-791.73" font-family="Helvetica,sans-Serif" font-style="italic" font-size="32.00" fill="#29235c">varchar</text>
<text text-anchor="start" x="2211.32" y="-791.73" font-family="Helvetica,sans-Serif" font-size="32.00" fill="#29235c"> </text>
<text text-anchor="start" x="2220.22" y="-791.73" font-family="Helvetica,sans-Serif" font-weight="bold" font-size="32.00" fill="#29235c">(!)</text>
<polygon fill="#e7e2dd" stroke="transparent" points="1897.41,-710.53 1897.41,-770.53 2261.41,-770.53 2261.41,-710.53 1897.41,-710.53"/>
<polygon fill="none" stroke="#29235c" points="1897.41,-710.53 1897.41,-770.53 2261.41,-770.53 2261.41,-710.53 1897.41,-710.53"/>
<text text-anchor="start" x="1908.41" y="-730.73" font-family="Helvetica,sans-Serif" font-size="32.00" fill="#29235c">department_id &#160;&#160;&#160;</text>
<text text-anchor="start" x="2216.63" y="-731.73" font-family="Helvetica,sans-Serif" font-style="italic" font-size="32.00" fill="#29235c">int</text>
<polygon fill="#e7e2dd" stroke="transparent" points="1897.41,-650.53 1897.41,-710.53 2261.41,-710.53 2261.41,-650.53 1897.41,-650.53"/>
<polygon fill="none" stroke="#29235c" points="1897.41,-650.53 1897.41,-710.53 2261.41,-710.53 2261.41,-650.53 1897.41,-650.53"/>
<text text-anchor="start" x="1908.41" y="-670.73" font-family="Helvetica,sans-Serif" font-size="32.00" fill="#29235c">position_id &#160;&#160;&#160;</text>
<text text-anchor="start" x="2216.63" y="-671.73" font-family="Helvetica,sans-Serif" font-style="italic" font-size="32.00" fill="#29235c">int</text>
<polygon fill="#e7e2dd" stroke="transparent" points="1897.41,-590.53 1897.41,-650.53 2261.41,-650.53 2261.41,-590.53 1897.41,-590.53"/>
<polygon fill="none" stroke="#29235c" points="1897.41,-590.53 1897.41,-650.53 2261.41,-650.53 2261.41,-590.53 1897.41,-590.53"/>
<text text-anchor="start" x="1908.41" y="-610.73" font-family="Helvetica,sans-Serif" font-size="32.00" fill="#29235c">level_id &#160;&#160;&#160;</text>
<text text-anchor="start" x="2216.63" y="-611.73" font-family="Helvetica,sans-Serif" font-style="italic" font-size="32.00" fill="#29235c">int</text>
<polygon fill="#e7e2dd" stroke="transparent" points="1897.41,-530.53 1897.41,-590.53 2261.41,-590.53 2261.41,-530.53 1897.41,-530.53"/>
<polygon fill="none" stroke="#29235c" points="1897.41,-530.53 1897.41,-590.53 2261.41,-590.53 2261.41,-530.53 1897.41,-530.53"/>
<text text-anchor="start" x="1908.41" y="-550.73" font-family="Helvetica,sans-Serif" font-size="32.00" fill="#29235c">created_at &#160;&#160;&#160;</text>
<text text-anchor="start" x="2102.86" y="-551.73" font-family="Helvetica,sans-Serif" font-style="italic" font-size="32.00" fill="#29235c">timestamp</text>
<polygon fill="#e7e2dd" stroke="transparent" points="1897.41,-470.53 1897.41,-530.53 2261.41,-530.53 2261.41,-470.53 1897.41,-470.53"/>
<polygon fill="none" stroke="#29235c" points="1897.41,-470.53 1897.41,-530.53 2261.41,-530.53 2261.41,-470.53 1897.41,-470.53"/>
<text text-anchor="start" x="1908.08" y="-490.73" font-family="Helvetica,sans-Serif" font-size="32.00" fill="#29235c">updated_at &#160;&#160;&#160;</text>
<text text-anchor="start" x="2103.13" y="-491.73" font-family="Helvetica,sans-Serif" font-style="italic" font-size="32.00" fill="#29235c">timestamp</text>
<polygon fill="none" stroke="#29235c" stroke-width="2" points="1896.41,-469.53 1896.41,-951.53 2262.41,-951.53 2262.41,-469.53 1896.41,-469.53"/>
</g>
<!-- titles&#45;&gt;levels -->
<!-- titles&#45;&gt;levels -->
<g id="edge8" class="edge">
<title>titles:e&#45;&gt;levels:w</title>
<path fill="none" stroke="#29235c" stroke-width="3" d="M2262.41,-620.53C2409.38,-620.53 2307.39,-353.5 2442.69,-340.99"/>
<polygon fill="#29235c" stroke="#29235c" stroke-width="3" points="2443.01,-344.48 2452.84,-340.53 2442.7,-337.48 2443.01,-344.48"/>
<text text-anchor="middle" x="2443.95" y="-311.73" font-family="Helvetica,sans-Serif" font-size="32.00" fill="#29235c">1</text>
<text text-anchor="middle" x="2256.19" y="-630.13" font-family="Helvetica,sans-Serif" font-size="32.00" fill="#29235c">*</text>
</g>
<!-- titles&#45;&gt;positions -->
<!-- titles&#45;&gt;positions -->
<g id="edge6" class="edge">
<title>titles:e&#45;&gt;positions:w</title>
<path fill="none" stroke="#29235c" stroke-width="3" d="M2262.41,-680.53C2375.35,-680.53 2338.81,-849.8 2442.7,-860.05"/>
<polygon fill="#29235c" stroke="#29235c" stroke-width="3" points="2442.69,-863.55 2452.84,-860.53 2443.02,-856.56 2442.69,-863.55"/>
<text text-anchor="middle" x="2443.95" y="-870.13" font-family="Helvetica,sans-Serif" font-size="32.00" fill="#29235c">1</text>
<text text-anchor="middle" x="2256.19" y="-690.13" font-family="Helvetica,sans-Serif" font-size="32.00" fill="#29235c">*</text>
</g>
<!-- titles&#45;&gt;departments -->
<!-- titles&#45;&gt;departments -->
<g id="edge4" class="edge">
<title>titles:e&#45;&gt;departments:w</title>
<path fill="none" stroke="#29235c" stroke-width="3" d="M2262.41,-740.53C2416.48,-740.53 2258.13,-156.18 2375.63,-56.53 2463.83,18.27 2808.77,19.33 2896.06,-56.53 3029.59,-172.58 2836.66,-833.97 2999.14,-859.76"/>
<polygon fill="#29235c" stroke="#29235c" stroke-width="3" points="2999.04,-863.26 3009.27,-860.53 2999.57,-856.28 2999.04,-863.26"/>
<text text-anchor="middle" x="3018.17" y="-870.13" font-family="Helvetica,sans-Serif" font-size="32.00" fill="#29235c">1</text>
<text text-anchor="middle" x="2256.19" y="-750.13" font-family="Helvetica,sans-Serif" font-size="32.00" fill="#29235c">*</text>
</g>
<!-- users -->
<g id="users" class="node">
<title>users</title>
<ellipse fill="none" stroke="black" stroke-width="0" cx="1465" cy="-590.53" rx="318.4" ry="511.89"/>
<polygon fill="#1d71b8" stroke="transparent" points="1242,-890.53 1242,-950.53 1688,-950.53 1688,-890.53 1242,-890.53"/>
<polygon fill="none" stroke="#29235c" points="1242,-890.53 1242,-950.53 1688,-950.53 1688,-890.53 1242,-890.53"/>
<text text-anchor="start" x="1363.64" y="-911.73" font-family="Helvetica,sans-Serif" font-weight="bold" font-size="32.00" fill="#ffffff"> &#160;&#160;&#160;&#160;&#160;&#160;users &#160;&#160;&#160;&#160;&#160;&#160;</text>
<polygon fill="#e7e2dd" stroke="transparent" points="1242,-830.53 1242,-890.53 1688,-890.53 1688,-830.53 1242,-830.53"/>
<polygon fill="none" stroke="#29235c" points="1242,-830.53 1242,-890.53 1688,-890.53 1688,-830.53 1242,-830.53"/>
<text text-anchor="start" x="1253" y="-851.73" font-family="Helvetica,sans-Serif" font-weight="bold" font-size="32.00" fill="#29235c">id</text>
<text text-anchor="start" x="1277.89" y="-851.73" font-family="Helvetica,sans-Serif" font-size="32.00" fill="#29235c"> &#160;&#160;&#160;</text>
<text text-anchor="start" x="1643.22" y="-851.73" font-family="Helvetica,sans-Serif" font-style="italic" font-size="32.00" fill="#29235c">int</text>
<polygon fill="#e7e2dd" stroke="transparent" points="1242,-770.53 1242,-830.53 1688,-830.53 1688,-770.53 1242,-770.53"/>
<polygon fill="none" stroke="#29235c" points="1242,-770.53 1242,-830.53 1688,-830.53 1688,-770.53 1242,-770.53"/>
<text text-anchor="start" x="1253" y="-790.73" font-family="Helvetica,sans-Serif" font-size="32.00" fill="#29235c">title_id &#160;&#160;&#160;</text>
<text text-anchor="start" x="1643.22" y="-791.73" font-family="Helvetica,sans-Serif" font-style="italic" font-size="32.00" fill="#29235c">int</text>
<polygon fill="#e7e2dd" stroke="transparent" points="1242,-710.53 1242,-770.53 1688,-770.53 1688,-710.53 1242,-710.53"/>
<polygon fill="none" stroke="#29235c" points="1242,-710.53 1242,-770.53 1688,-770.53 1688,-710.53 1242,-710.53"/>
<text text-anchor="start" x="1253" y="-730.73" font-family="Helvetica,sans-Serif" font-size="32.00" fill="#29235c">name &#160;&#160;&#160;</text>
<text text-anchor="start" x="1531.24" y="-731.73" font-family="Helvetica,sans-Serif" font-style="italic" font-size="32.00" fill="#29235c">varchar</text>
<text text-anchor="start" x="1637.91" y="-731.73" font-family="Helvetica,sans-Serif" font-size="32.00" fill="#29235c"> </text>
<text text-anchor="start" x="1646.8" y="-731.73" font-family="Helvetica,sans-Serif" font-weight="bold" font-size="32.00" fill="#29235c">(!)</text>
<polygon fill="#e7e2dd" stroke="transparent" points="1242,-650.53 1242,-710.53 1688,-710.53 1688,-650.53 1242,-650.53"/>
<polygon fill="none" stroke="#29235c" points="1242,-650.53 1242,-710.53 1688,-710.53 1688,-650.53 1242,-650.53"/>
<text text-anchor="start" x="1253" y="-670.73" font-family="Helvetica,sans-Serif" font-size="32.00" fill="#29235c">email &#160;&#160;&#160;</text>
<text text-anchor="start" x="1531.24" y="-671.73" font-family="Helvetica,sans-Serif" font-style="italic" font-size="32.00" fill="#29235c">varchar</text>
<text text-anchor="start" x="1637.91" y="-671.73" font-family="Helvetica,sans-Serif" font-size="32.00" fill="#29235c"> </text>
<text text-anchor="start" x="1646.8" y="-671.73" font-family="Helvetica,sans-Serif" font-weight="bold" font-size="32.00" fill="#29235c">(!)</text>
<polygon fill="#e7e2dd" stroke="transparent" points="1242,-590.53 1242,-650.53 1688,-650.53 1688,-590.53 1242,-590.53"/>
<polygon fill="none" stroke="#29235c" points="1242,-590.53 1242,-650.53 1688,-650.53 1688,-590.53 1242,-590.53"/>
<text text-anchor="start" x="1252.81" y="-610.73" font-family="Helvetica,sans-Serif" font-size="32.00" fill="#29235c">email_verified_at &#160;&#160;&#160;</text>
<text text-anchor="start" x="1529.72" y="-611.73" font-family="Helvetica,sans-Serif" font-style="italic" font-size="32.00" fill="#29235c">timestamp</text>
<polygon fill="#e7e2dd" stroke="transparent" points="1242,-530.53 1242,-590.53 1688,-590.53 1688,-530.53 1242,-530.53"/>
<polygon fill="none" stroke="#29235c" points="1242,-530.53 1242,-590.53 1688,-590.53 1688,-530.53 1242,-530.53"/>
<text text-anchor="start" x="1253" y="-550.73" font-family="Helvetica,sans-Serif" font-size="32.00" fill="#29235c">password &#160;&#160;&#160;</text>
<text text-anchor="start" x="1531.24" y="-551.73" font-family="Helvetica,sans-Serif" font-style="italic" font-size="32.00" fill="#29235c">varchar</text>
<text text-anchor="start" x="1637.91" y="-551.73" font-family="Helvetica,sans-Serif" font-size="32.00" fill="#29235c"> </text>
<text text-anchor="start" x="1646.8" y="-551.73" font-family="Helvetica,sans-Serif" font-weight="bold" font-size="32.00" fill="#29235c">(!)</text>
<polygon fill="#e7e2dd" stroke="transparent" points="1242,-470.53 1242,-530.53 1688,-530.53 1688,-470.53 1242,-470.53"/>
<polygon fill="none" stroke="#29235c" points="1242,-470.53 1242,-530.53 1688,-530.53 1688,-470.53 1242,-470.53"/>
<text text-anchor="start" x="1253" y="-490.73" font-family="Helvetica,sans-Serif" font-size="32.00" fill="#29235c">remember_token &#160;&#160;&#160;</text>
<text text-anchor="start" x="1570.33" y="-491.73" font-family="Helvetica,sans-Serif" font-style="italic" font-size="32.00" fill="#29235c">varchar</text>
<polygon fill="#e7e2dd" stroke="transparent" points="1242,-410.53 1242,-470.53 1688,-470.53 1688,-410.53 1242,-410.53"/>
<polygon fill="none" stroke="#29235c" points="1242,-410.53 1242,-470.53 1688,-470.53 1688,-410.53 1242,-410.53"/>
<text text-anchor="start" x="1253" y="-430.73" font-family="Helvetica,sans-Serif" font-size="32.00" fill="#29235c">custom_fields &#160;&#160;&#160;</text>
<text text-anchor="start" x="1618.32" y="-431.73" font-family="Helvetica,sans-Serif" font-style="italic" font-size="32.00" fill="#29235c">json</text>
<polygon fill="#e7e2dd" stroke="transparent" points="1242,-350.53 1242,-410.53 1688,-410.53 1688,-350.53 1242,-350.53"/>
<polygon fill="none" stroke="#29235c" points="1242,-350.53 1242,-410.53 1688,-410.53 1688,-350.53 1242,-350.53"/>
<text text-anchor="start" x="1253" y="-370.73" font-family="Helvetica,sans-Serif" font-size="32.00" fill="#29235c">avatar_url &#160;&#160;&#160;</text>
<text text-anchor="start" x="1570.33" y="-371.73" font-family="Helvetica,sans-Serif" font-style="italic" font-size="32.00" fill="#29235c">varchar</text>
<polygon fill="#e7e2dd" stroke="transparent" points="1242,-290.53 1242,-350.53 1688,-350.53 1688,-290.53 1242,-290.53"/>
<polygon fill="none" stroke="#29235c" points="1242,-290.53 1242,-350.53 1688,-350.53 1688,-290.53 1242,-290.53"/>
<text text-anchor="start" x="1253" y="-310.73" font-family="Helvetica,sans-Serif" font-size="32.00" fill="#29235c">created_at &#160;&#160;&#160;</text>
<text text-anchor="start" x="1529.44" y="-311.73" font-family="Helvetica,sans-Serif" font-style="italic" font-size="32.00" fill="#29235c">timestamp</text>
<polygon fill="#e7e2dd" stroke="transparent" points="1242,-230.53 1242,-290.53 1688,-290.53 1688,-230.53 1242,-230.53"/>
<polygon fill="none" stroke="#29235c" points="1242,-230.53 1242,-290.53 1688,-290.53 1688,-230.53 1242,-230.53"/>
<text text-anchor="start" x="1253" y="-250.73" font-family="Helvetica,sans-Serif" font-size="32.00" fill="#29235c">updated_at &#160;&#160;&#160;</text>
<text text-anchor="start" x="1529.44" y="-251.73" font-family="Helvetica,sans-Serif" font-style="italic" font-size="32.00" fill="#29235c">timestamp</text>
<polygon fill="none" stroke="#29235c" stroke-width="2" points="1241,-229.53 1241,-951.53 1689,-951.53 1689,-229.53 1241,-229.53"/>
</g>
<!-- users&#45;&gt;titles -->
<!-- users&#45;&gt;titles -->
<g id="edge10" class="edge">
<title>users:e&#45;&gt;titles:w</title>
<path fill="none" stroke="#29235c" stroke-width="3" d="M1689,-800.53C1781.5,-800.53 1799.23,-856.28 1886.32,-860.3"/>
<polygon fill="#29235c" stroke="#29235c" stroke-width="3" points="1886.34,-863.8 1896.41,-860.53 1886.5,-856.81 1886.34,-863.8"/>
<text text-anchor="middle" x="1887.52" y="-870.13" font-family="Helvetica,sans-Serif" font-size="32.00" fill="#29235c">1</text>
<text text-anchor="middle" x="1680.11" y="-810.13" font-family="Helvetica,sans-Serif" font-size="32.00" fill="#29235c">1</text>
</g>
<!-- roles -->
<g id="roles" class="node">
<title>roles</title>
<ellipse fill="none" stroke="black" stroke-width="0" cx="850.59" cy="-770.53" rx="260.43" ry="257.27"/>
<polygon fill="#1d71b8" stroke="transparent" points="668.59,-890.53 668.59,-950.53 1032.59,-950.53 1032.59,-890.53 668.59,-890.53"/>
<polygon fill="none" stroke="#29235c" points="668.59,-890.53 668.59,-950.53 1032.59,-950.53 1032.59,-890.53 668.59,-890.53"/>
<text text-anchor="start" x="753.67" y="-911.73" font-family="Helvetica,sans-Serif" font-weight="bold" font-size="32.00" fill="#ffffff"> &#160;&#160;&#160;&#160;&#160;&#160;roles &#160;&#160;&#160;&#160;&#160;&#160;</text>
<polygon fill="#e7e2dd" stroke="transparent" points="668.59,-830.53 668.59,-890.53 1032.59,-890.53 1032.59,-830.53 668.59,-830.53"/>
<polygon fill="none" stroke="#29235c" points="668.59,-830.53 668.59,-890.53 1032.59,-890.53 1032.59,-830.53 668.59,-830.53"/>
<text text-anchor="start" x="679.59" y="-851.73" font-family="Helvetica,sans-Serif" font-weight="bold" font-size="32.00" fill="#29235c">id</text>
<text text-anchor="start" x="704.48" y="-851.73" font-family="Helvetica,sans-Serif" font-size="32.00" fill="#29235c"> &#160;&#160;&#160;</text>
<text text-anchor="start" x="987.8" y="-851.73" font-family="Helvetica,sans-Serif" font-style="italic" font-size="32.00" fill="#29235c">int</text>
<polygon fill="#e7e2dd" stroke="transparent" points="668.59,-770.53 668.59,-830.53 1032.59,-830.53 1032.59,-770.53 668.59,-770.53"/>
<polygon fill="none" stroke="#29235c" points="668.59,-770.53 668.59,-830.53 1032.59,-830.53 1032.59,-770.53 668.59,-770.53"/>
<text text-anchor="start" x="679.59" y="-790.73" font-family="Helvetica,sans-Serif" font-size="32.00" fill="#29235c">name &#160;&#160;&#160;</text>
<text text-anchor="start" x="914.92" y="-791.73" font-family="Helvetica,sans-Serif" font-style="italic" font-size="32.00" fill="#29235c">varchar</text>
<polygon fill="#e7e2dd" stroke="transparent" points="668.59,-710.53 668.59,-770.53 1032.59,-770.53 1032.59,-710.53 668.59,-710.53"/>
<polygon fill="none" stroke="#29235c" points="668.59,-710.53 668.59,-770.53 1032.59,-770.53 1032.59,-710.53 668.59,-710.53"/>
<text text-anchor="start" x="679.59" y="-730.73" font-family="Helvetica,sans-Serif" font-size="32.00" fill="#29235c">user_id &#160;&#160;&#160;</text>
<text text-anchor="start" x="987.8" y="-731.73" font-family="Helvetica,sans-Serif" font-style="italic" font-size="32.00" fill="#29235c">int</text>
<polygon fill="#e7e2dd" stroke="transparent" points="668.59,-650.53 668.59,-710.53 1032.59,-710.53 1032.59,-650.53 668.59,-650.53"/>
<polygon fill="none" stroke="#29235c" points="668.59,-650.53 668.59,-710.53 1032.59,-710.53 1032.59,-650.53 668.59,-650.53"/>
<text text-anchor="start" x="679.59" y="-670.73" font-family="Helvetica,sans-Serif" font-size="32.00" fill="#29235c">created_at &#160;&#160;&#160;</text>
<text text-anchor="start" x="874.03" y="-671.73" font-family="Helvetica,sans-Serif" font-style="italic" font-size="32.00" fill="#29235c">timestamp</text>
<polygon fill="#e7e2dd" stroke="transparent" points="668.59,-590.53 668.59,-650.53 1032.59,-650.53 1032.59,-590.53 668.59,-590.53"/>
<polygon fill="none" stroke="#29235c" points="668.59,-590.53 668.59,-650.53 1032.59,-650.53 1032.59,-590.53 668.59,-590.53"/>
<text text-anchor="start" x="679.25" y="-610.73" font-family="Helvetica,sans-Serif" font-size="32.00" fill="#29235c">updated_at &#160;&#160;&#160;</text>
<text text-anchor="start" x="874.31" y="-611.73" font-family="Helvetica,sans-Serif" font-style="italic" font-size="32.00" fill="#29235c">timestamp</text>
<polygon fill="none" stroke="#29235c" stroke-width="2" points="667.59,-589.53 667.59,-951.53 1033.59,-951.53 1033.59,-589.53 667.59,-589.53"/>
</g>
<!-- roles&#45;&gt;users -->
<!-- roles&#45;&gt;users -->
<g id="edge12" class="edge">
<title>roles:e&#45;&gt;users:w</title>
<path fill="none" stroke="#29235c" stroke-width="3" d="M1033.59,-740.53C1136.55,-740.53 1134.75,-852.7 1230.75,-860.14"/>
<polygon fill="#29235c" stroke="#29235c" stroke-width="3" points="1230.88,-863.65 1241,-860.53 1231.14,-856.66 1230.88,-863.65"/>
<text text-anchor="middle" x="1232.11" y="-870.13" font-family="Helvetica,sans-Serif" font-size="32.00" fill="#29235c">1</text>
<text text-anchor="middle" x="1039.81" y="-750.13" font-family="Helvetica,sans-Serif" font-size="32.00" fill="#29235c">*</text>
</g>
<!-- role_permissions -->
<g id="role_permissions" class="node">
<title>role_permissions</title>
<ellipse fill="none" stroke="black" stroke-width="0" cx="277.19" cy="-890.53" rx="277.37" ry="87.86"/>
<polygon fill="#1d71b8" stroke="transparent" points="83.19,-890.53 83.19,-950.53 471.19,-950.53 471.19,-890.53 83.19,-890.53"/>
<polygon fill="none" stroke="#29235c" points="83.19,-890.53 83.19,-950.53 471.19,-950.53 471.19,-890.53 83.19,-890.53"/>
<text text-anchor="start" x="94.05" y="-911.73" font-family="Helvetica,sans-Serif" font-weight="bold" font-size="32.00" fill="#ffffff"> &#160;&#160;&#160;&#160;&#160;&#160;role_permissions &#160;&#160;&#160;&#160;&#160;&#160;</text>
<polygon fill="#e7e2dd" stroke="transparent" points="83.19,-830.53 83.19,-890.53 471.19,-890.53 471.19,-830.53 83.19,-830.53"/>
<polygon fill="none" stroke="#29235c" points="83.19,-830.53 83.19,-890.53 471.19,-890.53 471.19,-830.53 83.19,-830.53"/>
<text text-anchor="start" x="94.19" y="-850.73" font-family="Helvetica,sans-Serif" font-size="32.00" fill="#29235c">role_id &#160;&#160;&#160;</text>
<text text-anchor="start" x="426.4" y="-851.73" font-family="Helvetica,sans-Serif" font-style="italic" font-size="32.00" fill="#29235c">int</text>
<polygon fill="none" stroke="#29235c" stroke-width="2" points="82.19,-829.53 82.19,-951.53 472.19,-951.53 472.19,-829.53 82.19,-829.53"/>
</g>
<!-- role_permissions&#45;&gt;roles -->
<!-- role_permissions&#45;&gt;roles -->
<g id="edge14" class="edge">
<title>role_permissions:e&#45;&gt;roles:w</title>
<path fill="none" stroke="#29235c" stroke-width="3" d="M472.19,-860.53C555.47,-860.53 578.85,-860.53 657.22,-860.53"/>
<polygon fill="#29235c" stroke="#29235c" stroke-width="3" points="657.59,-864.03 667.59,-860.53 657.59,-857.03 657.59,-864.03"/>
<text text-anchor="middle" x="676.48" y="-870.13" font-family="Helvetica,sans-Serif" font-size="32.00" fill="#29235c">1</text>
<text text-anchor="middle" x="465.96" y="-870.13" font-family="Helvetica,sans-Serif" font-size="32.00" fill="#29235c">*</text>
</g>
</g>
</svg>
