<?xml version="1.0" encoding="UTF-8" standalone="no"?>
<!DOCTYPE svg PUBLIC "-//W3C//DTD SVG 1.1//EN"
 "http://www.w3.org/Graphics/SVG/1.1/DTD/svg11.dtd">
<!-- Generated by graphviz version 2.47.0 (20210316.0004)
 -->
<!-- Title: dbml Pages: 1 -->
<svg width="1112pt" height="970pt"
 viewBox="0.00 0.00 1111.73 970.35" xmlns="http://www.w3.org/2000/svg" xmlns:xlink="http://www.w3.org/1999/xlink">
<g id="graph0" class="graph" transform="scale(1 1) rotate(0) translate(4 966.35)">
<title>dbml</title>
<!-- menus -->
<g id="menus" class="node">
<title>menus</title>
<ellipse fill="none" stroke="black" stroke-width="0" cx="843.52" cy="-257.39" rx="260.43" ry="257.27"/>
<polygon fill="#1d71b8" stroke="transparent" points="661.52,-377.39 661.52,-437.39 1025.52,-437.39 1025.52,-377.39 661.52,-377.39"/>
<polygon fill="none" stroke="#29235c" points="661.52,-377.39 661.52,-437.39 1025.52,-437.39 1025.52,-377.39 661.52,-377.39"/>
<text text-anchor="start" x="733.26" y="-398.59" font-family="Helvetica,sans-Serif" font-weight="bold" font-size="32.00" fill="#ffffff"> &#160;&#160;&#160;&#160;&#160;&#160;menus &#160;&#160;&#160;&#160;&#160;&#160;</text>
<polygon fill="#e7e2dd" stroke="transparent" points="661.52,-317.39 661.52,-377.39 1025.52,-377.39 1025.52,-317.39 661.52,-317.39"/>
<polygon fill="none" stroke="#29235c" points="661.52,-317.39 661.52,-377.39 1025.52,-377.39 1025.52,-317.39 661.52,-317.39"/>
<text text-anchor="start" x="672.52" y="-338.59" font-family="Helvetica,sans-Serif" font-weight="bold" font-size="32.00" fill="#29235c">id</text>
<text text-anchor="start" x="697.41" y="-338.59" font-family="Helvetica,sans-Serif" font-size="32.00" fill="#29235c"> &#160;&#160;&#160;</text>
<text text-anchor="start" x="980.73" y="-338.59" font-family="Helvetica,sans-Serif" font-style="italic" font-size="32.00" fill="#29235c">int</text>
<polygon fill="#e7e2dd" stroke="transparent" points="661.52,-257.39 661.52,-317.39 1025.52,-317.39 1025.52,-257.39 661.52,-257.39"/>
<polygon fill="none" stroke="#29235c" points="661.52,-257.39 661.52,-317.39 1025.52,-317.39 1025.52,-257.39 661.52,-257.39"/>
<text text-anchor="start" x="672.52" y="-277.59" font-family="Helvetica,sans-Serif" font-size="32.00" fill="#29235c">label &#160;&#160;&#160;</text>
<text text-anchor="start" x="907.84" y="-278.59" font-family="Helvetica,sans-Serif" font-style="italic" font-size="32.00" fill="#29235c">varchar</text>
<polygon fill="#e7e2dd" stroke="transparent" points="661.52,-197.39 661.52,-257.39 1025.52,-257.39 1025.52,-197.39 661.52,-197.39"/>
<polygon fill="none" stroke="#29235c" points="661.52,-197.39 661.52,-257.39 1025.52,-257.39 1025.52,-197.39 661.52,-197.39"/>
<text text-anchor="start" x="672.52" y="-217.59" font-family="Helvetica,sans-Serif" font-size="32.00" fill="#29235c">path &#160;&#160;&#160;</text>
<text text-anchor="start" x="907.84" y="-218.59" font-family="Helvetica,sans-Serif" font-style="italic" font-size="32.00" fill="#29235c">varchar</text>
<polygon fill="#e7e2dd" stroke="transparent" points="661.52,-137.39 661.52,-197.39 1025.52,-197.39 1025.52,-137.39 661.52,-137.39"/>
<polygon fill="none" stroke="#29235c" points="661.52,-137.39 661.52,-197.39 1025.52,-197.39 1025.52,-137.39 661.52,-137.39"/>
<text text-anchor="start" x="672.52" y="-157.59" font-family="Helvetica,sans-Serif" font-size="32.00" fill="#29235c">created_at &#160;&#160;&#160;</text>
<text text-anchor="start" x="866.96" y="-158.59" font-family="Helvetica,sans-Serif" font-style="italic" font-size="32.00" fill="#29235c">timestamp</text>
<polygon fill="#e7e2dd" stroke="transparent" points="661.52,-77.39 661.52,-137.39 1025.52,-137.39 1025.52,-77.39 661.52,-77.39"/>
<polygon fill="none" stroke="#29235c" points="661.52,-77.39 661.52,-137.39 1025.52,-137.39 1025.52,-77.39 661.52,-77.39"/>
<text text-anchor="start" x="672.18" y="-97.59" font-family="Helvetica,sans-Serif" font-size="32.00" fill="#29235c">updated_at &#160;&#160;&#160;</text>
<text text-anchor="start" x="867.24" y="-98.59" font-family="Helvetica,sans-Serif" font-style="italic" font-size="32.00" fill="#29235c">timestamp</text>
<polygon fill="none" stroke="#29235c" stroke-width="2" points="660.52,-76.39 660.52,-438.39 1026.52,-438.39 1026.52,-76.39 660.52,-76.39"/>
</g>
<!-- roles -->
<g id="roles" class="node">
<title>roles</title>
<ellipse fill="none" stroke="black" stroke-width="0" cx="843.52" cy="-747.39" rx="260.43" ry="214.92"/>
<polygon fill="#1d71b8" stroke="transparent" points="661.52,-837.39 661.52,-897.39 1025.52,-897.39 1025.52,-837.39 661.52,-837.39"/>
<polygon fill="none" stroke="#29235c" points="661.52,-837.39 661.52,-897.39 1025.52,-897.39 1025.52,-837.39 661.52,-837.39"/>
<text text-anchor="start" x="746.6" y="-858.59" font-family="Helvetica,sans-Serif" font-weight="bold" font-size="32.00" fill="#ffffff"> &#160;&#160;&#160;&#160;&#160;&#160;roles &#160;&#160;&#160;&#160;&#160;&#160;</text>
<polygon fill="#e7e2dd" stroke="transparent" points="661.52,-777.39 661.52,-837.39 1025.52,-837.39 1025.52,-777.39 661.52,-777.39"/>
<polygon fill="none" stroke="#29235c" points="661.52,-777.39 661.52,-837.39 1025.52,-837.39 1025.52,-777.39 661.52,-777.39"/>
<text text-anchor="start" x="672.52" y="-798.59" font-family="Helvetica,sans-Serif" font-weight="bold" font-size="32.00" fill="#29235c">id</text>
<text text-anchor="start" x="697.41" y="-798.59" font-family="Helvetica,sans-Serif" font-size="32.00" fill="#29235c"> &#160;&#160;&#160;</text>
<text text-anchor="start" x="980.73" y="-798.59" font-family="Helvetica,sans-Serif" font-style="italic" font-size="32.00" fill="#29235c">int</text>
<polygon fill="#e7e2dd" stroke="transparent" points="661.52,-717.39 661.52,-777.39 1025.52,-777.39 1025.52,-717.39 661.52,-717.39"/>
<polygon fill="none" stroke="#29235c" points="661.52,-717.39 661.52,-777.39 1025.52,-777.39 1025.52,-717.39 661.52,-717.39"/>
<text text-anchor="start" x="672.52" y="-737.59" font-family="Helvetica,sans-Serif" font-size="32.00" fill="#29235c">name &#160;&#160;&#160;</text>
<text text-anchor="start" x="868.75" y="-738.59" font-family="Helvetica,sans-Serif" font-style="italic" font-size="32.00" fill="#29235c">varchar</text>
<text text-anchor="start" x="975.42" y="-738.59" font-family="Helvetica,sans-Serif" font-size="32.00" fill="#29235c"> </text>
<text text-anchor="start" x="984.32" y="-738.59" font-family="Helvetica,sans-Serif" font-weight="bold" font-size="32.00" fill="#29235c">(!)</text>
<polygon fill="#e7e2dd" stroke="transparent" points="661.52,-657.39 661.52,-717.39 1025.52,-717.39 1025.52,-657.39 661.52,-657.39"/>
<polygon fill="none" stroke="#29235c" points="661.52,-657.39 661.52,-717.39 1025.52,-717.39 1025.52,-657.39 661.52,-657.39"/>
<text text-anchor="start" x="672.52" y="-677.59" font-family="Helvetica,sans-Serif" font-size="32.00" fill="#29235c">created_at &#160;&#160;&#160;</text>
<text text-anchor="start" x="866.96" y="-678.59" font-family="Helvetica,sans-Serif" font-style="italic" font-size="32.00" fill="#29235c">timestamp</text>
<polygon fill="#e7e2dd" stroke="transparent" points="661.52,-597.39 661.52,-657.39 1025.52,-657.39 1025.52,-597.39 661.52,-597.39"/>
<polygon fill="none" stroke="#29235c" points="661.52,-597.39 661.52,-657.39 1025.52,-657.39 1025.52,-597.39 661.52,-597.39"/>
<text text-anchor="start" x="672.18" y="-617.59" font-family="Helvetica,sans-Serif" font-size="32.00" fill="#29235c">updated_at &#160;&#160;&#160;</text>
<text text-anchor="start" x="867.24" y="-618.59" font-family="Helvetica,sans-Serif" font-style="italic" font-size="32.00" fill="#29235c">timestamp</text>
<polygon fill="none" stroke="#29235c" stroke-width="2" points="660.52,-596.39 660.52,-898.39 1026.52,-898.39 1026.52,-596.39 660.52,-596.39"/>
</g>
<!-- role_has_menus -->
<g id="role_has_menus" class="node">
<title>role_has_menus</title>
<ellipse fill="none" stroke="black" stroke-width="0" cx="273.65" cy="-607.39" rx="273.8" ry="172.57"/>
<polygon fill="#1d71b8" stroke="transparent" points="82.65,-667.39 82.65,-727.39 465.65,-727.39 465.65,-667.39 82.65,-667.39"/>
<polygon fill="none" stroke="#29235c" points="82.65,-667.39 82.65,-727.39 465.65,-727.39 465.65,-667.39 82.65,-667.39"/>
<text text-anchor="start" x="93.65" y="-688.59" font-family="Helvetica,sans-Serif" font-weight="bold" font-size="32.00" fill="#ffffff"> &#160;&#160;&#160;&#160;&#160;&#160;role_has_menus &#160;&#160;&#160;&#160;&#160;&#160;</text>
<polygon fill="#e7e2dd" stroke="transparent" points="82.65,-607.39 82.65,-667.39 465.65,-667.39 465.65,-607.39 82.65,-607.39"/>
<polygon fill="none" stroke="#29235c" points="82.65,-607.39 82.65,-667.39 465.65,-667.39 465.65,-607.39 82.65,-607.39"/>
<text text-anchor="start" x="93.65" y="-628.59" font-family="Helvetica,sans-Serif" font-weight="bold" font-size="32.00" fill="#29235c">id</text>
<text text-anchor="start" x="118.54" y="-628.59" font-family="Helvetica,sans-Serif" font-size="32.00" fill="#29235c"> &#160;&#160;&#160;</text>
<text text-anchor="start" x="420.87" y="-628.59" font-family="Helvetica,sans-Serif" font-style="italic" font-size="32.00" fill="#29235c">int</text>
<polygon fill="#e7e2dd" stroke="transparent" points="82.65,-547.39 82.65,-607.39 465.65,-607.39 465.65,-547.39 82.65,-547.39"/>
<polygon fill="none" stroke="#29235c" points="82.65,-547.39 82.65,-607.39 465.65,-607.39 465.65,-547.39 82.65,-547.39"/>
<text text-anchor="start" x="93.65" y="-567.59" font-family="Helvetica,sans-Serif" font-size="32.00" fill="#29235c">role_id &#160;&#160;&#160;</text>
<text text-anchor="start" x="420.87" y="-568.59" font-family="Helvetica,sans-Serif" font-style="italic" font-size="32.00" fill="#29235c">int</text>
<polygon fill="#e7e2dd" stroke="transparent" points="82.65,-487.39 82.65,-547.39 465.65,-547.39 465.65,-487.39 82.65,-487.39"/>
<polygon fill="none" stroke="#29235c" points="82.65,-487.39 82.65,-547.39 465.65,-547.39 465.65,-487.39 82.65,-487.39"/>
<text text-anchor="start" x="93.65" y="-507.59" font-family="Helvetica,sans-Serif" font-size="32.00" fill="#29235c">menu_id &#160;&#160;&#160;</text>
<text text-anchor="start" x="420.87" y="-508.59" font-family="Helvetica,sans-Serif" font-style="italic" font-size="32.00" fill="#29235c">int</text>
<polygon fill="none" stroke="#29235c" stroke-width="2" points="81.15,-486.39 81.15,-728.39 466.15,-728.39 466.15,-486.39 81.15,-486.39"/>
</g>
<!-- role_has_menus&#45;&gt;menus -->
<!-- role_has_menus&#45;&gt;menus -->
<g id="edge4" class="edge">
<title>role_has_menus:e&#45;&gt;menus:w</title>
<path fill="none" stroke="#29235c" stroke-width="3" d="M466.65,-517.39C577.78,-517.39 547.92,-357.52 650.51,-347.84"/>
<polygon fill="#29235c" stroke="#29235c" stroke-width="3" points="650.69,-351.34 660.52,-347.39 650.37,-344.35 650.69,-351.34"/>
<text text-anchor="middle" x="651.62" y="-318.59" font-family="Helvetica,sans-Serif" font-size="32.00" fill="#29235c">1</text>
<text text-anchor="middle" x="460.43" y="-488.59" font-family="Helvetica,sans-Serif" font-size="32.00" fill="#29235c">*</text>
</g>
<!-- role_has_menus&#45;&gt;roles -->
<!-- role_has_menus&#45;&gt;roles -->
<g id="edge2" class="edge">
<title>role_has_menus:e&#45;&gt;roles:w</title>
<path fill="none" stroke="#29235c" stroke-width="3" d="M466.65,-577.39C596.82,-577.39 530.56,-795.42 650.37,-806.92"/>
<polygon fill="#29235c" stroke="#29235c" stroke-width="3" points="650.36,-810.42 660.52,-807.39 650.69,-803.43 650.36,-810.42"/>
<text text-anchor="middle" x="651.62" y="-816.99" font-family="Helvetica,sans-Serif" font-size="32.00" fill="#29235c">1</text>
<text text-anchor="middle" x="460.43" y="-548.59" font-family="Helvetica,sans-Serif" font-size="32.00" fill="#29235c">*</text>
</g>
</g>
</svg>
