<?xml version="1.0" encoding="UTF-8" standalone="no"?>
<!DOCTYPE svg PUBLIC "-//W3C//DTD SVG 1.1//EN"
 "http://www.w3.org/Graphics/SVG/1.1/DTD/svg11.dtd">
<!-- Generated by graphviz version 2.47.0 (20210316.0004)
 -->
<!-- Title: dbml Pages: 1 -->
<svg width="1112pt" height="498pt"
 viewBox="0.00 0.00 1111.73 497.64" xmlns="http://www.w3.org/2000/svg" xmlns:xlink="http://www.w3.org/1999/xlink">
<g id="graph0" class="graph" transform="scale(1 1) rotate(0) translate(4 493.64)">
<title>dbml</title>
<!-- roles -->
<g id="roles" class="node">
<title>roles</title>
<ellipse fill="none" stroke="black" stroke-width="0" cx="843.52" cy="-214.96" rx="260.43" ry="214.92"/>
<polygon fill="#1d71b8" stroke="transparent" points="661.52,-304.96 661.52,-364.96 1025.52,-364.96 1025.52,-304.96 661.52,-304.96"/>
<polygon fill="none" stroke="#29235c" points="661.52,-304.96 661.52,-364.96 1025.52,-364.96 1025.52,-304.96 661.52,-304.96"/>
<text text-anchor="start" x="746.6" y="-326.16" font-family="Helvetica,sans-Serif" font-weight="bold" font-size="32.00" fill="#ffffff"> &#160;&#160;&#160;&#160;&#160;&#160;roles &#160;&#160;&#160;&#160;&#160;&#160;</text>
<polygon fill="#e7e2dd" stroke="transparent" points="661.52,-244.96 661.52,-304.96 1025.52,-304.96 1025.52,-244.96 661.52,-244.96"/>
<polygon fill="none" stroke="#29235c" points="661.52,-244.96 661.52,-304.96 1025.52,-304.96 1025.52,-244.96 661.52,-244.96"/>
<text text-anchor="start" x="672.52" y="-266.16" font-family="Helvetica,sans-Serif" font-weight="bold" font-size="32.00" fill="#29235c">id</text>
<text text-anchor="start" x="697.41" y="-266.16" font-family="Helvetica,sans-Serif" font-size="32.00" fill="#29235c"> &#160;&#160;&#160;</text>
<text text-anchor="start" x="980.73" y="-266.16" font-family="Helvetica,sans-Serif" font-style="italic" font-size="32.00" fill="#29235c">int</text>
<polygon fill="#e7e2dd" stroke="transparent" points="661.52,-184.96 661.52,-244.96 1025.52,-244.96 1025.52,-184.96 661.52,-184.96"/>
<polygon fill="none" stroke="#29235c" points="661.52,-184.96 661.52,-244.96 1025.52,-244.96 1025.52,-184.96 661.52,-184.96"/>
<text text-anchor="start" x="672.52" y="-205.16" font-family="Helvetica,sans-Serif" font-size="32.00" fill="#29235c">name &#160;&#160;&#160;</text>
<text text-anchor="start" x="868.75" y="-206.16" font-family="Helvetica,sans-Serif" font-style="italic" font-size="32.00" fill="#29235c">varchar</text>
<text text-anchor="start" x="975.42" y="-206.16" font-family="Helvetica,sans-Serif" font-size="32.00" fill="#29235c"> </text>
<text text-anchor="start" x="984.32" y="-206.16" font-family="Helvetica,sans-Serif" font-weight="bold" font-size="32.00" fill="#29235c">(!)</text>
<polygon fill="#e7e2dd" stroke="transparent" points="661.52,-124.96 661.52,-184.96 1025.52,-184.96 1025.52,-124.96 661.52,-124.96"/>
<polygon fill="none" stroke="#29235c" points="661.52,-124.96 661.52,-184.96 1025.52,-184.96 1025.52,-124.96 661.52,-124.96"/>
<text text-anchor="start" x="672.52" y="-145.16" font-family="Helvetica,sans-Serif" font-size="32.00" fill="#29235c">created_at &#160;&#160;&#160;</text>
<text text-anchor="start" x="866.96" y="-146.16" font-family="Helvetica,sans-Serif" font-style="italic" font-size="32.00" fill="#29235c">timestamp</text>
<polygon fill="#e7e2dd" stroke="transparent" points="661.52,-64.96 661.52,-124.96 1025.52,-124.96 1025.52,-64.96 661.52,-64.96"/>
<polygon fill="none" stroke="#29235c" points="661.52,-64.96 661.52,-124.96 1025.52,-124.96 1025.52,-64.96 661.52,-64.96"/>
<text text-anchor="start" x="672.18" y="-85.16" font-family="Helvetica,sans-Serif" font-size="32.00" fill="#29235c">updated_at &#160;&#160;&#160;</text>
<text text-anchor="start" x="867.24" y="-86.16" font-family="Helvetica,sans-Serif" font-style="italic" font-size="32.00" fill="#29235c">timestamp</text>
<polygon fill="none" stroke="#29235c" stroke-width="2" points="660.52,-63.96 660.52,-365.96 1026.52,-365.96 1026.52,-63.96 660.52,-63.96"/>
</g>
<!-- role_has_menus -->
<g id="role_has_menus" class="node">
<title>role_has_menus</title>
<ellipse fill="none" stroke="black" stroke-width="0" cx="273.65" cy="-401.96" rx="273.8" ry="87.86"/>
<polygon fill="#1d71b8" stroke="transparent" points="82.65,-401.96 82.65,-461.96 465.65,-461.96 465.65,-401.96 82.65,-401.96"/>
<polygon fill="none" stroke="#29235c" points="82.65,-401.96 82.65,-461.96 465.65,-461.96 465.65,-401.96 82.65,-401.96"/>
<text text-anchor="start" x="93.65" y="-423.16" font-family="Helvetica,sans-Serif" font-weight="bold" font-size="32.00" fill="#ffffff"> &#160;&#160;&#160;&#160;&#160;&#160;role_has_menus &#160;&#160;&#160;&#160;&#160;&#160;</text>
<polygon fill="#e7e2dd" stroke="transparent" points="82.65,-341.96 82.65,-401.96 465.65,-401.96 465.65,-341.96 82.65,-341.96"/>
<polygon fill="none" stroke="#29235c" points="82.65,-341.96 82.65,-401.96 465.65,-401.96 465.65,-341.96 82.65,-341.96"/>
<text text-anchor="start" x="93.65" y="-362.16" font-family="Helvetica,sans-Serif" font-size="32.00" fill="#29235c">role_id &#160;&#160;&#160;</text>
<text text-anchor="start" x="420.87" y="-363.16" font-family="Helvetica,sans-Serif" font-style="italic" font-size="32.00" fill="#29235c">int</text>
<polygon fill="none" stroke="#29235c" stroke-width="2" points="81.15,-340.96 81.15,-462.96 466.15,-462.96 466.15,-340.96 81.15,-340.96"/>
</g>
<!-- role_has_menus&#45;&gt;roles -->
<!-- role_has_menus&#45;&gt;roles -->
<g id="edge2" class="edge">
<title>role_has_menus:e&#45;&gt;roles:w</title>
<path fill="none" stroke="#29235c" stroke-width="3" d="M466.65,-371.96C559.52,-371.96 563.96,-281.84 650.44,-275.33"/>
<polygon fill="#29235c" stroke="#29235c" stroke-width="3" points="650.65,-278.83 660.52,-274.96 650.39,-271.83 650.65,-278.83"/>
<text text-anchor="middle" x="651.62" y="-284.56" font-family="Helvetica,sans-Serif" font-size="32.00" fill="#29235c">1</text>
<text text-anchor="middle" x="460.43" y="-381.56" font-family="Helvetica,sans-Serif" font-size="32.00" fill="#29235c">*</text>
</g>
<!-- user_has_roles -->
<g id="user_has_roles" class="node">
<title>user_has_roles</title>
<ellipse fill="none" stroke="black" stroke-width="0" cx="273.65" cy="-208.96" rx="260.84" ry="87.86"/>
<polygon fill="#1d71b8" stroke="transparent" points="91.65,-208.96 91.65,-268.96 456.65,-268.96 456.65,-208.96 91.65,-208.96"/>
<polygon fill="none" stroke="#29235c" points="91.65,-208.96 91.65,-268.96 456.65,-268.96 456.65,-208.96 91.65,-208.96"/>
<text text-anchor="start" x="102.54" y="-230.16" font-family="Helvetica,sans-Serif" font-weight="bold" font-size="32.00" fill="#ffffff"> &#160;&#160;&#160;&#160;&#160;&#160;user_has_roles &#160;&#160;&#160;&#160;&#160;&#160;</text>
<polygon fill="#e7e2dd" stroke="transparent" points="91.65,-148.96 91.65,-208.96 456.65,-208.96 456.65,-148.96 91.65,-148.96"/>
<polygon fill="none" stroke="#29235c" points="91.65,-148.96 91.65,-208.96 456.65,-208.96 456.65,-148.96 91.65,-148.96"/>
<text text-anchor="start" x="102.65" y="-169.16" font-family="Helvetica,sans-Serif" font-size="32.00" fill="#29235c">role_id &#160;&#160;&#160;</text>
<text text-anchor="start" x="411.87" y="-170.16" font-family="Helvetica,sans-Serif" font-style="italic" font-size="32.00" fill="#29235c">int</text>
<polygon fill="none" stroke="#29235c" stroke-width="2" points="90.15,-147.96 90.15,-269.96 457.15,-269.96 457.15,-147.96 90.15,-147.96"/>
</g>
<!-- user_has_roles&#45;&gt;roles -->
<!-- user_has_roles&#45;&gt;roles -->
<g id="edge4" class="edge">
<title>user_has_roles:e&#45;&gt;roles:w</title>
<path fill="none" stroke="#29235c" stroke-width="3" d="M457.65,-178.96C553.89,-178.96 560.41,-268.33 650.34,-274.61"/>
<polygon fill="#29235c" stroke="#29235c" stroke-width="3" points="650.4,-278.12 660.52,-274.96 650.64,-271.12 650.4,-278.12"/>
<text text-anchor="middle" x="669.41" y="-284.56" font-family="Helvetica,sans-Serif" font-size="32.00" fill="#29235c">1</text>
<text text-anchor="middle" x="451.43" y="-188.56" font-family="Helvetica,sans-Serif" font-size="32.00" fill="#29235c">*</text>
</g>
</g>
</svg>
