<?xml version="1.0" encoding="UTF-8" standalone="no"?>
<!DOCTYPE svg PUBLIC "-//W3C//DTD SVG 1.1//EN"
 "http://www.w3.org/Graphics/SVG/1.1/DTD/svg11.dtd">
<!-- Generated by graphviz version 2.47.0 (20210316.0004)
 -->
<!-- Title: dbml Pages: 1 -->
<svg width="543pt" height="183pt"
 viewBox="0.00 0.00 542.57 183.36" xmlns="http://www.w3.org/2000/svg" xmlns:xlink="http://www.w3.org/1999/xlink">
<g id="graph0" class="graph" transform="scale(1 1) rotate(0) translate(4 179.36)">
<title>dbml</title>
<!-- scrum_checklist -->
<g id="scrum_checklist" class="node">
<title>scrum_checklist</title>
<ellipse fill="none" stroke="black" stroke-width="0" cx="267.29" cy="-87.68" rx="267.07" ry="87.86"/>
<polygon fill="#1d71b8" stroke="transparent" points="80.29,-87.68 80.29,-147.68 454.29,-147.68 454.29,-87.68 80.29,-87.68"/>
<polygon fill="none" stroke="#29235c" points="80.29,-87.68 80.29,-147.68 454.29,-147.68 454.29,-87.68 80.29,-87.68"/>
<text text-anchor="start" x="91.26" y="-108.88" font-family="Helvetica,sans-Serif" font-weight="bold" font-size="32.00" fill="#ffffff"> &#160;&#160;&#160;&#160;&#160;&#160;scrum_checklist &#160;&#160;&#160;&#160;&#160;&#160;</text>
<polygon fill="#e7e2dd" stroke="transparent" points="80.29,-27.68 80.29,-87.68 454.29,-87.68 454.29,-27.68 80.29,-27.68"/>
<polygon fill="none" stroke="#29235c" points="80.29,-27.68 80.29,-87.68 454.29,-87.68 454.29,-27.68 80.29,-27.68"/>
<text text-anchor="start" x="91.29" y="-48.88" font-family="Helvetica,sans-Serif" font-weight="bold" font-size="32.00" fill="#29235c">id</text>
<text text-anchor="start" x="116.18" y="-48.88" font-family="Helvetica,sans-Serif" font-size="32.00" fill="#29235c"> &#160;&#160;&#160;</text>
<text text-anchor="start" x="409.5" y="-48.88" font-family="Helvetica,sans-Serif" font-style="italic" font-size="32.00" fill="#29235c">int</text>
<polygon fill="none" stroke="#29235c" stroke-width="2" points="79.29,-26.68 79.29,-148.68 455.29,-148.68 455.29,-26.68 79.29,-26.68"/>
</g>
</g>
</svg>
