<?xml version="1.0" encoding="UTF-8" standalone="no"?>
<!DOCTYPE svg PUBLIC "-//W3C//DTD SVG 1.1//EN"
 "http://www.w3.org/Graphics/SVG/1.1/DTD/svg11.dtd">
<!-- Generated by graphviz version 2.47.0 (20210316.0004)
 -->
<!-- Title: dbml Pages: 1 -->
<svg width="1759pt" height="2013pt"
 viewBox="0.00 0.00 1758.67 2012.77" xmlns="http://www.w3.org/2000/svg" xmlns:xlink="http://www.w3.org/1999/xlink">
<g id="graph0" class="graph" transform="scale(1 1) rotate(0) translate(4 2008.77)">
<title>dbml</title>
<!-- projects -->
<g id="projects" class="node">
<title>projects</title>
<ellipse fill="none" stroke="black" stroke-width="0" cx="1432.47" cy="-342.24" rx="260.43" ry="342.48"/>
<polygon fill="#1d71b8" stroke="transparent" points="1250.47,-522.24 1250.47,-582.24 1614.47,-582.24 1614.47,-522.24 1250.47,-522.24"/>
<polygon fill="none" stroke="#29235c" points="1250.47,-522.24 1250.47,-582.24 1614.47,-582.24 1614.47,-522.24 1250.47,-522.24"/>
<text text-anchor="start" x="1314.22" y="-543.44" font-family="Helvetica,sans-Serif" font-weight="bold" font-size="32.00" fill="#ffffff"> &#160;&#160;&#160;&#160;&#160;&#160;projects &#160;&#160;&#160;&#160;&#160;&#160;</text>
<polygon fill="#e7e2dd" stroke="transparent" points="1250.47,-462.24 1250.47,-522.24 1614.47,-522.24 1614.47,-462.24 1250.47,-462.24"/>
<polygon fill="none" stroke="#29235c" points="1250.47,-462.24 1250.47,-522.24 1614.47,-522.24 1614.47,-462.24 1250.47,-462.24"/>
<text text-anchor="start" x="1261.47" y="-483.44" font-family="Helvetica,sans-Serif" font-weight="bold" font-size="32.00" fill="#29235c">id</text>
<text text-anchor="start" x="1286.36" y="-483.44" font-family="Helvetica,sans-Serif" font-size="32.00" fill="#29235c"> &#160;&#160;&#160;</text>
<text text-anchor="start" x="1569.69" y="-483.44" font-family="Helvetica,sans-Serif" font-style="italic" font-size="32.00" fill="#29235c">int</text>
<polygon fill="#e7e2dd" stroke="transparent" points="1250.47,-402.24 1250.47,-462.24 1614.47,-462.24 1614.47,-402.24 1250.47,-402.24"/>
<polygon fill="none" stroke="#29235c" points="1250.47,-402.24 1250.47,-462.24 1614.47,-462.24 1614.47,-402.24 1250.47,-402.24"/>
<text text-anchor="start" x="1261.47" y="-422.44" font-family="Helvetica,sans-Serif" font-size="32.00" fill="#29235c">nama &#160;&#160;&#160;</text>
<text text-anchor="start" x="1457.71" y="-423.44" font-family="Helvetica,sans-Serif" font-style="italic" font-size="32.00" fill="#29235c">varchar</text>
<text text-anchor="start" x="1564.38" y="-423.44" font-family="Helvetica,sans-Serif" font-size="32.00" fill="#29235c"> </text>
<text text-anchor="start" x="1573.28" y="-423.44" font-family="Helvetica,sans-Serif" font-weight="bold" font-size="32.00" fill="#29235c">(!)</text>
<polygon fill="#e7e2dd" stroke="transparent" points="1250.47,-342.24 1250.47,-402.24 1614.47,-402.24 1614.47,-342.24 1250.47,-342.24"/>
<polygon fill="none" stroke="#29235c" points="1250.47,-342.24 1250.47,-402.24 1614.47,-402.24 1614.47,-342.24 1250.47,-342.24"/>
<text text-anchor="start" x="1261.47" y="-362.44" font-family="Helvetica,sans-Serif" font-size="32.00" fill="#29235c">deskripsi &#160;&#160;&#160;</text>
<text text-anchor="start" x="1551.9" y="-363.44" font-family="Helvetica,sans-Serif" font-style="italic" font-size="32.00" fill="#29235c">text</text>
<polygon fill="#e7e2dd" stroke="transparent" points="1250.47,-282.24 1250.47,-342.24 1614.47,-342.24 1614.47,-282.24 1250.47,-282.24"/>
<polygon fill="none" stroke="#29235c" points="1250.47,-282.24 1250.47,-342.24 1614.47,-342.24 1614.47,-282.24 1250.47,-282.24"/>
<text text-anchor="start" x="1261.47" y="-302.44" font-family="Helvetica,sans-Serif" font-size="32.00" fill="#29235c">tanggal_mulai &#160;&#160;&#160;</text>
<text text-anchor="start" x="1541.21" y="-303.44" font-family="Helvetica,sans-Serif" font-style="italic" font-size="32.00" fill="#29235c">date</text>
<polygon fill="#e7e2dd" stroke="transparent" points="1250.47,-222.24 1250.47,-282.24 1614.47,-282.24 1614.47,-222.24 1250.47,-222.24"/>
<polygon fill="none" stroke="#29235c" points="1250.47,-222.24 1250.47,-282.24 1614.47,-282.24 1614.47,-222.24 1250.47,-222.24"/>
<text text-anchor="start" x="1261.47" y="-242.44" font-family="Helvetica,sans-Serif" font-size="32.00" fill="#29235c">tanggal_selesai &#160;&#160;&#160;</text>
<text text-anchor="start" x="1541.21" y="-243.44" font-family="Helvetica,sans-Serif" font-style="italic" font-size="32.00" fill="#29235c">date</text>
<polygon fill="#e7e2dd" stroke="transparent" points="1250.47,-162.24 1250.47,-222.24 1614.47,-222.24 1614.47,-162.24 1250.47,-162.24"/>
<polygon fill="none" stroke="#29235c" points="1250.47,-162.24 1250.47,-222.24 1614.47,-222.24 1614.47,-162.24 1250.47,-162.24"/>
<text text-anchor="start" x="1261.47" y="-182.44" font-family="Helvetica,sans-Serif" font-size="32.00" fill="#29235c">created_at &#160;&#160;&#160;</text>
<text text-anchor="start" x="1455.92" y="-183.44" font-family="Helvetica,sans-Serif" font-style="italic" font-size="32.00" fill="#29235c">timestamp</text>
<polygon fill="#e7e2dd" stroke="transparent" points="1250.47,-102.24 1250.47,-162.24 1614.47,-162.24 1614.47,-102.24 1250.47,-102.24"/>
<polygon fill="none" stroke="#29235c" points="1250.47,-102.24 1250.47,-162.24 1614.47,-162.24 1614.47,-102.24 1250.47,-102.24"/>
<text text-anchor="start" x="1261.14" y="-122.44" font-family="Helvetica,sans-Serif" font-size="32.00" fill="#29235c">updated_at &#160;&#160;&#160;</text>
<text text-anchor="start" x="1456.19" y="-123.44" font-family="Helvetica,sans-Serif" font-style="italic" font-size="32.00" fill="#29235c">timestamp</text>
<polygon fill="none" stroke="#29235c" stroke-width="2" points="1249.47,-101.24 1249.47,-583.24 1615.47,-583.24 1615.47,-101.24 1249.47,-101.24"/>
</g>
<!-- users -->
<g id="users" class="node">
<title>users</title>
<ellipse fill="none" stroke="black" stroke-width="0" cx="1432.47" cy="-1172.24" rx="318.4" ry="469.54"/>
<polygon fill="#1d71b8" stroke="transparent" points="1209.47,-1442.24 1209.47,-1502.24 1655.47,-1502.24 1655.47,-1442.24 1209.47,-1442.24"/>
<polygon fill="none" stroke="#29235c" points="1209.47,-1442.24 1209.47,-1502.24 1655.47,-1502.24 1655.47,-1442.24 1209.47,-1442.24"/>
<text text-anchor="start" x="1331.11" y="-1463.44" font-family="Helvetica,sans-Serif" font-weight="bold" font-size="32.00" fill="#ffffff"> &#160;&#160;&#160;&#160;&#160;&#160;users &#160;&#160;&#160;&#160;&#160;&#160;</text>
<polygon fill="#e7e2dd" stroke="transparent" points="1209.47,-1382.24 1209.47,-1442.24 1655.47,-1442.24 1655.47,-1382.24 1209.47,-1382.24"/>
<polygon fill="none" stroke="#29235c" points="1209.47,-1382.24 1209.47,-1442.24 1655.47,-1442.24 1655.47,-1382.24 1209.47,-1382.24"/>
<text text-anchor="start" x="1220.47" y="-1403.44" font-family="Helvetica,sans-Serif" font-weight="bold" font-size="32.00" fill="#29235c">id</text>
<text text-anchor="start" x="1245.36" y="-1403.44" font-family="Helvetica,sans-Serif" font-size="32.00" fill="#29235c"> &#160;&#160;&#160;</text>
<text text-anchor="start" x="1610.69" y="-1403.44" font-family="Helvetica,sans-Serif" font-style="italic" font-size="32.00" fill="#29235c">int</text>
<polygon fill="#e7e2dd" stroke="transparent" points="1209.47,-1322.24 1209.47,-1382.24 1655.47,-1382.24 1655.47,-1322.24 1209.47,-1322.24"/>
<polygon fill="none" stroke="#29235c" points="1209.47,-1322.24 1209.47,-1382.24 1655.47,-1382.24 1655.47,-1322.24 1209.47,-1322.24"/>
<text text-anchor="start" x="1220.47" y="-1342.44" font-family="Helvetica,sans-Serif" font-size="32.00" fill="#29235c">name &#160;&#160;&#160;</text>
<text text-anchor="start" x="1498.71" y="-1343.44" font-family="Helvetica,sans-Serif" font-style="italic" font-size="32.00" fill="#29235c">varchar</text>
<text text-anchor="start" x="1605.38" y="-1343.44" font-family="Helvetica,sans-Serif" font-size="32.00" fill="#29235c"> </text>
<text text-anchor="start" x="1614.28" y="-1343.44" font-family="Helvetica,sans-Serif" font-weight="bold" font-size="32.00" fill="#29235c">(!)</text>
<polygon fill="#e7e2dd" stroke="transparent" points="1209.47,-1262.24 1209.47,-1322.24 1655.47,-1322.24 1655.47,-1262.24 1209.47,-1262.24"/>
<polygon fill="none" stroke="#29235c" points="1209.47,-1262.24 1209.47,-1322.24 1655.47,-1322.24 1655.47,-1262.24 1209.47,-1262.24"/>
<text text-anchor="start" x="1220.47" y="-1282.44" font-family="Helvetica,sans-Serif" font-size="32.00" fill="#29235c">email &#160;&#160;&#160;</text>
<text text-anchor="start" x="1498.71" y="-1283.44" font-family="Helvetica,sans-Serif" font-style="italic" font-size="32.00" fill="#29235c">varchar</text>
<text text-anchor="start" x="1605.38" y="-1283.44" font-family="Helvetica,sans-Serif" font-size="32.00" fill="#29235c"> </text>
<text text-anchor="start" x="1614.28" y="-1283.44" font-family="Helvetica,sans-Serif" font-weight="bold" font-size="32.00" fill="#29235c">(!)</text>
<polygon fill="#e7e2dd" stroke="transparent" points="1209.47,-1202.24 1209.47,-1262.24 1655.47,-1262.24 1655.47,-1202.24 1209.47,-1202.24"/>
<polygon fill="none" stroke="#29235c" points="1209.47,-1202.24 1209.47,-1262.24 1655.47,-1262.24 1655.47,-1202.24 1209.47,-1202.24"/>
<text text-anchor="start" x="1220.29" y="-1222.44" font-family="Helvetica,sans-Serif" font-size="32.00" fill="#29235c">email_verified_at &#160;&#160;&#160;</text>
<text text-anchor="start" x="1497.19" y="-1223.44" font-family="Helvetica,sans-Serif" font-style="italic" font-size="32.00" fill="#29235c">timestamp</text>
<polygon fill="#e7e2dd" stroke="transparent" points="1209.47,-1142.24 1209.47,-1202.24 1655.47,-1202.24 1655.47,-1142.24 1209.47,-1142.24"/>
<polygon fill="none" stroke="#29235c" points="1209.47,-1142.24 1209.47,-1202.24 1655.47,-1202.24 1655.47,-1142.24 1209.47,-1142.24"/>
<text text-anchor="start" x="1220.47" y="-1162.44" font-family="Helvetica,sans-Serif" font-size="32.00" fill="#29235c">password &#160;&#160;&#160;</text>
<text text-anchor="start" x="1498.71" y="-1163.44" font-family="Helvetica,sans-Serif" font-style="italic" font-size="32.00" fill="#29235c">varchar</text>
<text text-anchor="start" x="1605.38" y="-1163.44" font-family="Helvetica,sans-Serif" font-size="32.00" fill="#29235c"> </text>
<text text-anchor="start" x="1614.28" y="-1163.44" font-family="Helvetica,sans-Serif" font-weight="bold" font-size="32.00" fill="#29235c">(!)</text>
<polygon fill="#e7e2dd" stroke="transparent" points="1209.47,-1082.24 1209.47,-1142.24 1655.47,-1142.24 1655.47,-1082.24 1209.47,-1082.24"/>
<polygon fill="none" stroke="#29235c" points="1209.47,-1082.24 1209.47,-1142.24 1655.47,-1142.24 1655.47,-1082.24 1209.47,-1082.24"/>
<text text-anchor="start" x="1220.47" y="-1102.44" font-family="Helvetica,sans-Serif" font-size="32.00" fill="#29235c">remember_token &#160;&#160;&#160;</text>
<text text-anchor="start" x="1537.8" y="-1103.44" font-family="Helvetica,sans-Serif" font-style="italic" font-size="32.00" fill="#29235c">varchar</text>
<polygon fill="#e7e2dd" stroke="transparent" points="1209.47,-1022.24 1209.47,-1082.24 1655.47,-1082.24 1655.47,-1022.24 1209.47,-1022.24"/>
<polygon fill="none" stroke="#29235c" points="1209.47,-1022.24 1209.47,-1082.24 1655.47,-1082.24 1655.47,-1022.24 1209.47,-1022.24"/>
<text text-anchor="start" x="1220.47" y="-1042.44" font-family="Helvetica,sans-Serif" font-size="32.00" fill="#29235c">custom_fields &#160;&#160;&#160;</text>
<text text-anchor="start" x="1585.8" y="-1043.44" font-family="Helvetica,sans-Serif" font-style="italic" font-size="32.00" fill="#29235c">json</text>
<polygon fill="#e7e2dd" stroke="transparent" points="1209.47,-962.24 1209.47,-1022.24 1655.47,-1022.24 1655.47,-962.24 1209.47,-962.24"/>
<polygon fill="none" stroke="#29235c" points="1209.47,-962.24 1209.47,-1022.24 1655.47,-1022.24 1655.47,-962.24 1209.47,-962.24"/>
<text text-anchor="start" x="1220.47" y="-982.44" font-family="Helvetica,sans-Serif" font-size="32.00" fill="#29235c">avatar_url &#160;&#160;&#160;</text>
<text text-anchor="start" x="1537.8" y="-983.44" font-family="Helvetica,sans-Serif" font-style="italic" font-size="32.00" fill="#29235c">varchar</text>
<polygon fill="#e7e2dd" stroke="transparent" points="1209.47,-902.24 1209.47,-962.24 1655.47,-962.24 1655.47,-902.24 1209.47,-902.24"/>
<polygon fill="none" stroke="#29235c" points="1209.47,-902.24 1209.47,-962.24 1655.47,-962.24 1655.47,-902.24 1209.47,-902.24"/>
<text text-anchor="start" x="1220.47" y="-922.44" font-family="Helvetica,sans-Serif" font-size="32.00" fill="#29235c">created_at &#160;&#160;&#160;</text>
<text text-anchor="start" x="1496.92" y="-923.44" font-family="Helvetica,sans-Serif" font-style="italic" font-size="32.00" fill="#29235c">timestamp</text>
<polygon fill="#e7e2dd" stroke="transparent" points="1209.47,-842.24 1209.47,-902.24 1655.47,-902.24 1655.47,-842.24 1209.47,-842.24"/>
<polygon fill="none" stroke="#29235c" points="1209.47,-842.24 1209.47,-902.24 1655.47,-902.24 1655.47,-842.24 1209.47,-842.24"/>
<text text-anchor="start" x="1220.47" y="-862.44" font-family="Helvetica,sans-Serif" font-size="32.00" fill="#29235c">updated_at &#160;&#160;&#160;</text>
<text text-anchor="start" x="1496.92" y="-863.44" font-family="Helvetica,sans-Serif" font-style="italic" font-size="32.00" fill="#29235c">timestamp</text>
<polygon fill="none" stroke="#29235c" stroke-width="2" points="1208.47,-841.24 1208.47,-1503.24 1656.47,-1503.24 1656.47,-841.24 1208.47,-841.24"/>
</g>
<!-- statuses -->
<g id="statuses" class="node">
<title>statuses</title>
<ellipse fill="none" stroke="black" stroke-width="0" cx="1432.47" cy="-1832.24" rx="207.36" ry="172.57"/>
<polygon fill="#1d71b8" stroke="transparent" points="1288.47,-1892.24 1288.47,-1952.24 1577.47,-1952.24 1577.47,-1892.24 1288.47,-1892.24"/>
<polygon fill="none" stroke="#29235c" points="1288.47,-1892.24 1288.47,-1952.24 1577.47,-1952.24 1577.47,-1892.24 1288.47,-1892.24"/>
<text text-anchor="start" x="1311.15" y="-1913.44" font-family="Helvetica,sans-Serif" font-weight="bold" font-size="32.00" fill="#ffffff"> &#160;&#160;&#160;&#160;&#160;&#160;statuses &#160;&#160;&#160;&#160;&#160;&#160;</text>
<polygon fill="#e7e2dd" stroke="transparent" points="1288.47,-1832.24 1288.47,-1892.24 1577.47,-1892.24 1577.47,-1832.24 1288.47,-1832.24"/>
<polygon fill="none" stroke="#29235c" points="1288.47,-1832.24 1288.47,-1892.24 1577.47,-1892.24 1577.47,-1832.24 1288.47,-1832.24"/>
<text text-anchor="start" x="1299.47" y="-1853.44" font-family="Helvetica,sans-Serif" font-weight="bold" font-size="32.00" fill="#29235c">id</text>
<text text-anchor="start" x="1324.36" y="-1853.44" font-family="Helvetica,sans-Serif" font-size="32.00" fill="#29235c"> &#160;&#160;&#160;</text>
<text text-anchor="start" x="1532.69" y="-1853.44" font-family="Helvetica,sans-Serif" font-style="italic" font-size="32.00" fill="#29235c">int</text>
<polygon fill="#e7e2dd" stroke="transparent" points="1288.47,-1772.24 1288.47,-1832.24 1577.47,-1832.24 1577.47,-1772.24 1288.47,-1772.24"/>
<polygon fill="none" stroke="#29235c" points="1288.47,-1772.24 1288.47,-1832.24 1577.47,-1832.24 1577.47,-1772.24 1288.47,-1772.24"/>
<text text-anchor="start" x="1299.47" y="-1792.44" font-family="Helvetica,sans-Serif" font-size="32.00" fill="#29235c">nama &#160;&#160;&#160;</text>
<text text-anchor="start" x="1459.8" y="-1793.44" font-family="Helvetica,sans-Serif" font-style="italic" font-size="32.00" fill="#29235c">varchar</text>
<polygon fill="#e7e2dd" stroke="transparent" points="1288.47,-1712.24 1288.47,-1772.24 1577.47,-1772.24 1577.47,-1712.24 1288.47,-1712.24"/>
<polygon fill="none" stroke="#29235c" points="1288.47,-1712.24 1288.47,-1772.24 1577.47,-1772.24 1577.47,-1712.24 1288.47,-1712.24"/>
<text text-anchor="start" x="1299.08" y="-1732.44" font-family="Helvetica,sans-Serif" font-size="32.00" fill="#29235c">deskripsi &#160;&#160;&#160;</text>
<text text-anchor="start" x="1460.14" y="-1733.44" font-family="Helvetica,sans-Serif" font-style="italic" font-size="32.00" fill="#29235c">varchar</text>
<polygon fill="none" stroke="#29235c" stroke-width="2" points="1286.97,-1711.24 1286.97,-1953.24 1577.97,-1953.24 1577.97,-1711.24 1286.97,-1711.24"/>
</g>
<!-- scrum_tugas -->
<g id="scrum_tugas" class="node">
<title>scrum_tugas</title>
<ellipse fill="none" stroke="black" stroke-width="0" cx="842.81" cy="-1202.24" rx="235.43" ry="427.19"/>
<polygon fill="#1d71b8" stroke="transparent" points="678.81,-1442.24 678.81,-1502.24 1007.81,-1502.24 1007.81,-1442.24 678.81,-1442.24"/>
<polygon fill="none" stroke="#29235c" points="678.81,-1442.24 678.81,-1502.24 1007.81,-1502.24 1007.81,-1442.24 678.81,-1442.24"/>
<text text-anchor="start" x="689.49" y="-1463.44" font-family="Helvetica,sans-Serif" font-weight="bold" font-size="32.00" fill="#ffffff"> &#160;&#160;&#160;&#160;&#160;&#160;scrum_tugas &#160;&#160;&#160;&#160;&#160;&#160;</text>
<polygon fill="#e7e2dd" stroke="transparent" points="678.81,-1382.24 678.81,-1442.24 1007.81,-1442.24 1007.81,-1382.24 678.81,-1382.24"/>
<polygon fill="none" stroke="#29235c" points="678.81,-1382.24 678.81,-1442.24 1007.81,-1442.24 1007.81,-1382.24 678.81,-1382.24"/>
<text text-anchor="start" x="689.81" y="-1403.44" font-family="Helvetica,sans-Serif" font-weight="bold" font-size="32.00" fill="#29235c">id</text>
<text text-anchor="start" x="714.7" y="-1403.44" font-family="Helvetica,sans-Serif" font-size="32.00" fill="#29235c"> &#160;&#160;&#160;</text>
<text text-anchor="start" x="963.03" y="-1403.44" font-family="Helvetica,sans-Serif" font-style="italic" font-size="32.00" fill="#29235c">int</text>
<polygon fill="#e7e2dd" stroke="transparent" points="678.81,-1322.24 678.81,-1382.24 1007.81,-1382.24 1007.81,-1322.24 678.81,-1322.24"/>
<polygon fill="none" stroke="#29235c" points="678.81,-1322.24 678.81,-1382.24 1007.81,-1382.24 1007.81,-1322.24 678.81,-1322.24"/>
<text text-anchor="start" x="689.81" y="-1342.44" font-family="Helvetica,sans-Serif" font-size="32.00" fill="#29235c">status_id &#160;&#160;&#160;</text>
<text text-anchor="start" x="963.03" y="-1343.44" font-family="Helvetica,sans-Serif" font-style="italic" font-size="32.00" fill="#29235c">int</text>
<polygon fill="#e7e2dd" stroke="transparent" points="678.81,-1262.24 678.81,-1322.24 1007.81,-1322.24 1007.81,-1262.24 678.81,-1262.24"/>
<polygon fill="none" stroke="#29235c" points="678.81,-1262.24 678.81,-1322.24 1007.81,-1322.24 1007.81,-1262.24 678.81,-1262.24"/>
<text text-anchor="start" x="689.81" y="-1282.44" font-family="Helvetica,sans-Serif" font-size="32.00" fill="#29235c">user_id &#160;&#160;&#160;</text>
<text text-anchor="start" x="963.03" y="-1283.44" font-family="Helvetica,sans-Serif" font-style="italic" font-size="32.00" fill="#29235c">int</text>
<polygon fill="#e7e2dd" stroke="transparent" points="678.81,-1202.24 678.81,-1262.24 1007.81,-1262.24 1007.81,-1202.24 678.81,-1202.24"/>
<polygon fill="none" stroke="#29235c" points="678.81,-1202.24 678.81,-1262.24 1007.81,-1262.24 1007.81,-1202.24 678.81,-1202.24"/>
<text text-anchor="start" x="689.81" y="-1222.44" font-family="Helvetica,sans-Serif" font-size="32.00" fill="#29235c">dibuat_oleh &#160;&#160;&#160;</text>
<text text-anchor="start" x="963.03" y="-1223.44" font-family="Helvetica,sans-Serif" font-style="italic" font-size="32.00" fill="#29235c">int</text>
<polygon fill="#e7e2dd" stroke="transparent" points="678.81,-1142.24 678.81,-1202.24 1007.81,-1202.24 1007.81,-1142.24 678.81,-1142.24"/>
<polygon fill="none" stroke="#29235c" points="678.81,-1142.24 678.81,-1202.24 1007.81,-1202.24 1007.81,-1142.24 678.81,-1142.24"/>
<text text-anchor="start" x="689.81" y="-1162.44" font-family="Helvetica,sans-Serif" font-size="32.00" fill="#29235c">project_id &#160;&#160;&#160;</text>
<text text-anchor="start" x="963.03" y="-1163.44" font-family="Helvetica,sans-Serif" font-style="italic" font-size="32.00" fill="#29235c">int</text>
<polygon fill="#e7e2dd" stroke="transparent" points="678.81,-1082.24 678.81,-1142.24 1007.81,-1142.24 1007.81,-1082.24 678.81,-1082.24"/>
<polygon fill="none" stroke="#29235c" points="678.81,-1082.24 678.81,-1142.24 1007.81,-1142.24 1007.81,-1082.24 678.81,-1082.24"/>
<text text-anchor="start" x="689.81" y="-1102.44" font-family="Helvetica,sans-Serif" font-size="32.00" fill="#29235c">nama &#160;&#160;&#160;</text>
<text text-anchor="start" x="890.14" y="-1103.44" font-family="Helvetica,sans-Serif" font-style="italic" font-size="32.00" fill="#29235c">varchar</text>
<polygon fill="#e7e2dd" stroke="transparent" points="678.81,-1022.24 678.81,-1082.24 1007.81,-1082.24 1007.81,-1022.24 678.81,-1022.24"/>
<polygon fill="none" stroke="#29235c" points="678.81,-1022.24 678.81,-1082.24 1007.81,-1082.24 1007.81,-1022.24 678.81,-1022.24"/>
<text text-anchor="start" x="689.81" y="-1042.44" font-family="Helvetica,sans-Serif" font-size="32.00" fill="#29235c">point &#160;&#160;&#160;</text>
<text text-anchor="start" x="963.03" y="-1043.44" font-family="Helvetica,sans-Serif" font-style="italic" font-size="32.00" fill="#29235c">int</text>
<polygon fill="#e7e2dd" stroke="transparent" points="678.81,-962.24 678.81,-1022.24 1007.81,-1022.24 1007.81,-962.24 678.81,-962.24"/>
<polygon fill="none" stroke="#29235c" points="678.81,-962.24 678.81,-1022.24 1007.81,-1022.24 1007.81,-962.24 678.81,-962.24"/>
<text text-anchor="start" x="689.81" y="-982.44" font-family="Helvetica,sans-Serif" font-size="32.00" fill="#29235c">deskripsi &#160;&#160;&#160;</text>
<text text-anchor="start" x="890.14" y="-983.44" font-family="Helvetica,sans-Serif" font-style="italic" font-size="32.00" fill="#29235c">varchar</text>
<polygon fill="#e7e2dd" stroke="transparent" points="678.81,-902.24 678.81,-962.24 1007.81,-962.24 1007.81,-902.24 678.81,-902.24"/>
<polygon fill="none" stroke="#29235c" points="678.81,-902.24 678.81,-962.24 1007.81,-962.24 1007.81,-902.24 678.81,-902.24"/>
<text text-anchor="start" x="689.81" y="-922.44" font-family="Helvetica,sans-Serif" font-size="32.00" fill="#29235c">prioritas &#160;&#160;&#160;</text>
<text text-anchor="start" x="883.04" y="-923.44" font-family="Helvetica,sans-Serif" font-style="italic" font-size="32.00" fill="#29235c">prioritas</text>
<polygon fill="none" stroke="#29235c" stroke-width="2" points="677.31,-901.24 677.31,-1503.24 1008.31,-1503.24 1008.31,-901.24 677.31,-901.24"/>
</g>
<!-- scrum_tugas&#45;&gt;projects -->
<!-- scrum_tugas&#45;&gt;projects -->
<g id="edge8" class="edge">
<title>scrum_tugas:e&#45;&gt;projects:w</title>
<path fill="none" stroke="#29235c" stroke-width="3" d="M1008.81,-1172.24C1117.8,-1172.24 1071.39,-793.44 1114.28,-693.24 1155.27,-597.45 1142.71,-498.81 1239.44,-492.55"/>
<polygon fill="#29235c" stroke="#29235c" stroke-width="3" points="1239.59,-496.05 1249.47,-492.24 1239.37,-489.05 1239.59,-496.05"/>
<text text-anchor="middle" x="1240.58" y="-463.44" font-family="Helvetica,sans-Serif" font-size="32.00" fill="#29235c">1</text>
<text text-anchor="middle" x="1015.03" y="-1181.84" font-family="Helvetica,sans-Serif" font-size="32.00" fill="#29235c">*</text>
</g>
<!-- scrum_tugas&#45;&gt;users -->
<!-- scrum_tugas&#45;&gt;users -->
<g id="edge4" class="edge">
<title>scrum_tugas:e&#45;&gt;users:w</title>
<path fill="none" stroke="#29235c" stroke-width="3" d="M1008.81,-1292.24C1108.8,-1292.24 1105.32,-1404.18 1198.24,-1411.83"/>
<polygon fill="#29235c" stroke="#29235c" stroke-width="3" points="1198.34,-1415.34 1208.47,-1412.24 1198.62,-1408.34 1198.34,-1415.34"/>
<text text-anchor="middle" x="1199.58" y="-1421.84" font-family="Helvetica,sans-Serif" font-size="32.00" fill="#29235c">1</text>
<text text-anchor="middle" x="1015.03" y="-1301.84" font-family="Helvetica,sans-Serif" font-size="32.00" fill="#29235c">*</text>
</g>
<!-- scrum_tugas&#45;&gt;users -->
<!-- scrum_tugas&#45;&gt;users -->
<g id="edge6" class="edge">
<title>scrum_tugas:e&#45;&gt;users:w</title>
<path fill="none" stroke="#29235c" stroke-width="3" d="M1008.81,-1232.24C1124.79,-1232.24 1091.16,-1401.85 1198.37,-1411.79"/>
<polygon fill="#29235c" stroke="#29235c" stroke-width="3" points="1198.33,-1415.29 1208.47,-1412.24 1198.64,-1408.29 1198.33,-1415.29"/>
<text text-anchor="middle" x="1199.58" y="-1383.44" font-family="Helvetica,sans-Serif" font-size="32.00" fill="#29235c">1</text>
<text text-anchor="middle" x="1015.03" y="-1241.84" font-family="Helvetica,sans-Serif" font-size="32.00" fill="#29235c">*</text>
</g>
<!-- scrum_tugas&#45;&gt;statuses -->
<!-- scrum_tugas&#45;&gt;statuses -->
<g id="edge2" class="edge">
<title>scrum_tugas:e&#45;&gt;statuses:w</title>
<path fill="none" stroke="#29235c" stroke-width="3" d="M1008.81,-1352.24C1149.72,-1352.24 1045.09,-1528.48 1114.28,-1651.24 1172.16,-1753.94 1166.53,-1856.27 1277.47,-1861.99"/>
<polygon fill="#29235c" stroke="#29235c" stroke-width="3" points="1277.39,-1865.49 1287.47,-1862.24 1277.56,-1858.49 1277.39,-1865.49"/>
<text text-anchor="middle" x="1278.58" y="-1871.84" font-family="Helvetica,sans-Serif" font-size="32.00" fill="#29235c">1</text>
<text text-anchor="middle" x="1015.03" y="-1361.84" font-family="Helvetica,sans-Serif" font-size="32.00" fill="#29235c">*</text>
</g>
<!-- scrum_komentars -->
<g id="scrum_komentars" class="node">
<title>scrum_komentars</title>
<ellipse fill="none" stroke="black" stroke-width="0" cx="285.67" cy="-1382.24" rx="285.84" ry="214.92"/>
<polygon fill="#1d71b8" stroke="transparent" points="85.67,-1472.24 85.67,-1532.24 485.67,-1532.24 485.67,-1472.24 85.67,-1472.24"/>
<polygon fill="none" stroke="#29235c" points="85.67,-1472.24 85.67,-1532.24 485.67,-1532.24 485.67,-1472.24 85.67,-1472.24"/>
<text text-anchor="start" x="96.3" y="-1493.44" font-family="Helvetica,sans-Serif" font-weight="bold" font-size="32.00" fill="#ffffff"> &#160;&#160;&#160;&#160;&#160;&#160;scrum_komentars &#160;&#160;&#160;&#160;&#160;&#160;</text>
<polygon fill="#e7e2dd" stroke="transparent" points="85.67,-1412.24 85.67,-1472.24 485.67,-1472.24 485.67,-1412.24 85.67,-1412.24"/>
<polygon fill="none" stroke="#29235c" points="85.67,-1412.24 85.67,-1472.24 485.67,-1472.24 485.67,-1412.24 85.67,-1412.24"/>
<text text-anchor="start" x="96.67" y="-1433.44" font-family="Helvetica,sans-Serif" font-weight="bold" font-size="32.00" fill="#29235c">id</text>
<text text-anchor="start" x="121.56" y="-1433.44" font-family="Helvetica,sans-Serif" font-size="32.00" fill="#29235c"> &#160;&#160;&#160;</text>
<text text-anchor="start" x="440.89" y="-1433.44" font-family="Helvetica,sans-Serif" font-style="italic" font-size="32.00" fill="#29235c">int</text>
<polygon fill="#e7e2dd" stroke="transparent" points="85.67,-1352.24 85.67,-1412.24 485.67,-1412.24 485.67,-1352.24 85.67,-1352.24"/>
<polygon fill="none" stroke="#29235c" points="85.67,-1352.24 85.67,-1412.24 485.67,-1412.24 485.67,-1352.24 85.67,-1352.24"/>
<text text-anchor="start" x="96.67" y="-1372.44" font-family="Helvetica,sans-Serif" font-size="32.00" fill="#29235c">tugas_id &#160;&#160;&#160;</text>
<text text-anchor="start" x="440.89" y="-1373.44" font-family="Helvetica,sans-Serif" font-style="italic" font-size="32.00" fill="#29235c">int</text>
<polygon fill="#e7e2dd" stroke="transparent" points="85.67,-1292.24 85.67,-1352.24 485.67,-1352.24 485.67,-1292.24 85.67,-1292.24"/>
<polygon fill="none" stroke="#29235c" points="85.67,-1292.24 85.67,-1352.24 485.67,-1352.24 485.67,-1292.24 85.67,-1292.24"/>
<text text-anchor="start" x="96.67" y="-1312.44" font-family="Helvetica,sans-Serif" font-size="32.00" fill="#29235c">user_id &#160;&#160;&#160;</text>
<text text-anchor="start" x="440.89" y="-1313.44" font-family="Helvetica,sans-Serif" font-style="italic" font-size="32.00" fill="#29235c">int</text>
<polygon fill="#e7e2dd" stroke="transparent" points="85.67,-1232.24 85.67,-1292.24 485.67,-1292.24 485.67,-1232.24 85.67,-1232.24"/>
<polygon fill="none" stroke="#29235c" points="85.67,-1232.24 85.67,-1292.24 485.67,-1292.24 485.67,-1232.24 85.67,-1232.24"/>
<text text-anchor="start" x="96.67" y="-1252.44" font-family="Helvetica,sans-Serif" font-size="32.00" fill="#29235c">deskripsi &#160;&#160;&#160;</text>
<text text-anchor="start" x="368" y="-1253.44" font-family="Helvetica,sans-Serif" font-style="italic" font-size="32.00" fill="#29235c">varchar</text>
<polygon fill="none" stroke="#29235c" stroke-width="2" points="84.67,-1231.24 84.67,-1533.24 486.67,-1533.24 486.67,-1231.24 84.67,-1231.24"/>
</g>
<!-- scrum_komentars&#45;&gt;users -->
<!-- scrum_komentars&#45;&gt;users -->
<g id="edge12" class="edge">
<title>scrum_komentars:e&#45;&gt;users:w</title>
<path fill="none" stroke="#29235c" stroke-width="3" d="M486.67,-1322.24C739.54,-1322.24 410.49,-924.95 607.34,-766.24 770.28,-634.87 916.31,-633.66 1078.28,-766.24 1302.26,-949.58 924.63,-1401.48 1198.46,-1412.05"/>
<polygon fill="#29235c" stroke="#29235c" stroke-width="3" points="1198.41,-1415.55 1208.47,-1412.24 1198.54,-1408.55 1198.41,-1415.55"/>
<text text-anchor="middle" x="1217.37" y="-1421.84" font-family="Helvetica,sans-Serif" font-size="32.00" fill="#29235c">1</text>
<text text-anchor="middle" x="480.45" y="-1331.84" font-family="Helvetica,sans-Serif" font-size="32.00" fill="#29235c">*</text>
</g>
<!-- scrum_komentars&#45;&gt;scrum_tugas -->
<!-- scrum_komentars&#45;&gt;scrum_tugas -->
<g id="edge10" class="edge">
<title>scrum_komentars:e&#45;&gt;scrum_tugas:w</title>
<path fill="none" stroke="#29235c" stroke-width="3" d="M486.67,-1382.24C569.13,-1382.24 590.13,-1409.83 667.56,-1412.09"/>
<polygon fill="#29235c" stroke="#29235c" stroke-width="3" points="667.76,-1415.6 677.81,-1412.24 667.86,-1408.6 667.76,-1415.6"/>
<text text-anchor="middle" x="686.7" y="-1421.84" font-family="Helvetica,sans-Serif" font-size="32.00" fill="#29235c">1</text>
<text text-anchor="middle" x="480.45" y="-1391.84" font-family="Helvetica,sans-Serif" font-size="32.00" fill="#29235c">*</text>
</g>
</g>
</svg>
