<?xml version="1.0" encoding="UTF-8" standalone="no"?>
<!DOCTYPE svg PUBLIC "-//W3C//DTD SVG 1.1//EN"
 "http://www.w3.org/Graphics/SVG/1.1/DTD/svg11.dtd">
<!-- Generated by graphviz version 2.47.0 (20210316.0004)
 -->
<!-- Title: dbml Pages: 1 -->
<svg width="1614pt" height="764pt"
 viewBox="0.00 0.00 1614.42 763.85" xmlns="http://www.w3.org/2000/svg" xmlns:xlink="http://www.w3.org/1999/xlink">
<g id="graph0" class="graph" transform="scale(1 1) rotate(0) translate(4 759.85)">
<title>dbml</title>
<!-- projects -->
<g id="projects" class="node">
<title>projects</title>
<ellipse fill="none" stroke="black" stroke-width="0" cx="1346.21" cy="-383.12" rx="260.43" ry="342.48"/>
<polygon fill="#1d71b8" stroke="transparent" points="1164.21,-563.12 1164.21,-623.12 1528.21,-623.12 1528.21,-563.12 1164.21,-563.12"/>
<polygon fill="none" stroke="#29235c" points="1164.21,-563.12 1164.21,-623.12 1528.21,-623.12 1528.21,-563.12 1164.21,-563.12"/>
<text text-anchor="start" x="1227.95" y="-584.32" font-family="Helvetica,sans-Serif" font-weight="bold" font-size="32.00" fill="#ffffff"> &#160;&#160;&#160;&#160;&#160;&#160;projects &#160;&#160;&#160;&#160;&#160;&#160;</text>
<polygon fill="#e7e2dd" stroke="transparent" points="1164.21,-503.12 1164.21,-563.12 1528.21,-563.12 1528.21,-503.12 1164.21,-503.12"/>
<polygon fill="none" stroke="#29235c" points="1164.21,-503.12 1164.21,-563.12 1528.21,-563.12 1528.21,-503.12 1164.21,-503.12"/>
<text text-anchor="start" x="1175.21" y="-524.32" font-family="Helvetica,sans-Serif" font-weight="bold" font-size="32.00" fill="#29235c">id</text>
<text text-anchor="start" x="1200.1" y="-524.32" font-family="Helvetica,sans-Serif" font-size="32.00" fill="#29235c"> &#160;&#160;&#160;</text>
<text text-anchor="start" x="1483.42" y="-524.32" font-family="Helvetica,sans-Serif" font-style="italic" font-size="32.00" fill="#29235c">int</text>
<polygon fill="#e7e2dd" stroke="transparent" points="1164.21,-443.12 1164.21,-503.12 1528.21,-503.12 1528.21,-443.12 1164.21,-443.12"/>
<polygon fill="none" stroke="#29235c" points="1164.21,-443.12 1164.21,-503.12 1528.21,-503.12 1528.21,-443.12 1164.21,-443.12"/>
<text text-anchor="start" x="1175.21" y="-463.32" font-family="Helvetica,sans-Serif" font-size="32.00" fill="#29235c">nama &#160;&#160;&#160;</text>
<text text-anchor="start" x="1371.44" y="-464.32" font-family="Helvetica,sans-Serif" font-style="italic" font-size="32.00" fill="#29235c">varchar</text>
<text text-anchor="start" x="1478.12" y="-464.32" font-family="Helvetica,sans-Serif" font-size="32.00" fill="#29235c"> </text>
<text text-anchor="start" x="1487.01" y="-464.32" font-family="Helvetica,sans-Serif" font-weight="bold" font-size="32.00" fill="#29235c">(!)</text>
<polygon fill="#e7e2dd" stroke="transparent" points="1164.21,-383.12 1164.21,-443.12 1528.21,-443.12 1528.21,-383.12 1164.21,-383.12"/>
<polygon fill="none" stroke="#29235c" points="1164.21,-383.12 1164.21,-443.12 1528.21,-443.12 1528.21,-383.12 1164.21,-383.12"/>
<text text-anchor="start" x="1175.21" y="-403.32" font-family="Helvetica,sans-Serif" font-size="32.00" fill="#29235c">deskripsi &#160;&#160;&#160;</text>
<text text-anchor="start" x="1465.63" y="-404.32" font-family="Helvetica,sans-Serif" font-style="italic" font-size="32.00" fill="#29235c">text</text>
<polygon fill="#e7e2dd" stroke="transparent" points="1164.21,-323.12 1164.21,-383.12 1528.21,-383.12 1528.21,-323.12 1164.21,-323.12"/>
<polygon fill="none" stroke="#29235c" points="1164.21,-323.12 1164.21,-383.12 1528.21,-383.12 1528.21,-323.12 1164.21,-323.12"/>
<text text-anchor="start" x="1175.21" y="-343.32" font-family="Helvetica,sans-Serif" font-size="32.00" fill="#29235c">tanggal_mulai &#160;&#160;&#160;</text>
<text text-anchor="start" x="1454.95" y="-344.32" font-family="Helvetica,sans-Serif" font-style="italic" font-size="32.00" fill="#29235c">date</text>
<polygon fill="#e7e2dd" stroke="transparent" points="1164.21,-263.12 1164.21,-323.12 1528.21,-323.12 1528.21,-263.12 1164.21,-263.12"/>
<polygon fill="none" stroke="#29235c" points="1164.21,-263.12 1164.21,-323.12 1528.21,-323.12 1528.21,-263.12 1164.21,-263.12"/>
<text text-anchor="start" x="1175.21" y="-283.32" font-family="Helvetica,sans-Serif" font-size="32.00" fill="#29235c">tanggal_selesai &#160;&#160;&#160;</text>
<text text-anchor="start" x="1454.95" y="-284.32" font-family="Helvetica,sans-Serif" font-style="italic" font-size="32.00" fill="#29235c">date</text>
<polygon fill="#e7e2dd" stroke="transparent" points="1164.21,-203.12 1164.21,-263.12 1528.21,-263.12 1528.21,-203.12 1164.21,-203.12"/>
<polygon fill="none" stroke="#29235c" points="1164.21,-203.12 1164.21,-263.12 1528.21,-263.12 1528.21,-203.12 1164.21,-203.12"/>
<text text-anchor="start" x="1175.21" y="-223.32" font-family="Helvetica,sans-Serif" font-size="32.00" fill="#29235c">created_at &#160;&#160;&#160;</text>
<text text-anchor="start" x="1369.65" y="-224.32" font-family="Helvetica,sans-Serif" font-style="italic" font-size="32.00" fill="#29235c">timestamp</text>
<polygon fill="#e7e2dd" stroke="transparent" points="1164.21,-143.12 1164.21,-203.12 1528.21,-203.12 1528.21,-143.12 1164.21,-143.12"/>
<polygon fill="none" stroke="#29235c" points="1164.21,-143.12 1164.21,-203.12 1528.21,-203.12 1528.21,-143.12 1164.21,-143.12"/>
<text text-anchor="start" x="1174.87" y="-163.32" font-family="Helvetica,sans-Serif" font-size="32.00" fill="#29235c">updated_at &#160;&#160;&#160;</text>
<text text-anchor="start" x="1369.93" y="-164.32" font-family="Helvetica,sans-Serif" font-style="italic" font-size="32.00" fill="#29235c">timestamp</text>
<polygon fill="none" stroke="#29235c" stroke-width="2" points="1163.21,-142.12 1163.21,-624.12 1529.21,-624.12 1529.21,-142.12 1163.21,-142.12"/>
</g>
<!-- dokumens -->
<g id="dokumens" class="node">
<title>dokumens</title>
<ellipse fill="none" stroke="black" stroke-width="0" cx="789.78" cy="-413.12" rx="260.43" ry="299.63"/>
<polygon fill="#1d71b8" stroke="transparent" points="607.78,-563.12 607.78,-623.12 971.78,-623.12 971.78,-563.12 607.78,-563.12"/>
<polygon fill="none" stroke="#29235c" points="607.78,-563.12 607.78,-623.12 971.78,-623.12 971.78,-563.12 607.78,-563.12"/>
<text text-anchor="start" x="653.73" y="-584.32" font-family="Helvetica,sans-Serif" font-weight="bold" font-size="32.00" fill="#ffffff"> &#160;&#160;&#160;&#160;&#160;&#160;dokumens &#160;&#160;&#160;&#160;&#160;&#160;</text>
<polygon fill="#e7e2dd" stroke="transparent" points="607.78,-503.12 607.78,-563.12 971.78,-563.12 971.78,-503.12 607.78,-503.12"/>
<polygon fill="none" stroke="#29235c" points="607.78,-503.12 607.78,-563.12 971.78,-563.12 971.78,-503.12 607.78,-503.12"/>
<text text-anchor="start" x="618.78" y="-524.32" font-family="Helvetica,sans-Serif" font-weight="bold" font-size="32.00" fill="#29235c">id</text>
<text text-anchor="start" x="643.67" y="-524.32" font-family="Helvetica,sans-Serif" font-size="32.00" fill="#29235c"> &#160;&#160;&#160;</text>
<text text-anchor="start" x="926.99" y="-524.32" font-family="Helvetica,sans-Serif" font-style="italic" font-size="32.00" fill="#29235c">int</text>
<polygon fill="#e7e2dd" stroke="transparent" points="607.78,-443.12 607.78,-503.12 971.78,-503.12 971.78,-443.12 607.78,-443.12"/>
<polygon fill="none" stroke="#29235c" points="607.78,-443.12 607.78,-503.12 971.78,-503.12 971.78,-443.12 607.78,-443.12"/>
<text text-anchor="start" x="618.78" y="-463.32" font-family="Helvetica,sans-Serif" font-size="32.00" fill="#29235c">project_id &#160;&#160;&#160;</text>
<text text-anchor="start" x="926.99" y="-464.32" font-family="Helvetica,sans-Serif" font-style="italic" font-size="32.00" fill="#29235c">int</text>
<polygon fill="#e7e2dd" stroke="transparent" points="607.78,-383.12 607.78,-443.12 971.78,-443.12 971.78,-383.12 607.78,-383.12"/>
<polygon fill="none" stroke="#29235c" points="607.78,-383.12 607.78,-443.12 971.78,-443.12 971.78,-383.12 607.78,-383.12"/>
<text text-anchor="start" x="618.78" y="-403.32" font-family="Helvetica,sans-Serif" font-size="32.00" fill="#29235c">nama &#160;&#160;&#160;</text>
<text text-anchor="start" x="854.1" y="-404.32" font-family="Helvetica,sans-Serif" font-style="italic" font-size="32.00" fill="#29235c">varchar</text>
<polygon fill="#e7e2dd" stroke="transparent" points="607.78,-323.12 607.78,-383.12 971.78,-383.12 971.78,-323.12 607.78,-323.12"/>
<polygon fill="none" stroke="#29235c" points="607.78,-323.12 607.78,-383.12 971.78,-383.12 971.78,-323.12 607.78,-323.12"/>
<text text-anchor="start" x="618.78" y="-343.32" font-family="Helvetica,sans-Serif" font-size="32.00" fill="#29235c">kode &#160;&#160;&#160;</text>
<text text-anchor="start" x="854.1" y="-344.32" font-family="Helvetica,sans-Serif" font-style="italic" font-size="32.00" fill="#29235c">varchar</text>
<polygon fill="#e7e2dd" stroke="transparent" points="607.78,-263.12 607.78,-323.12 971.78,-323.12 971.78,-263.12 607.78,-263.12"/>
<polygon fill="none" stroke="#29235c" points="607.78,-263.12 607.78,-323.12 971.78,-323.12 971.78,-263.12 607.78,-263.12"/>
<text text-anchor="start" x="618.78" y="-283.32" font-family="Helvetica,sans-Serif" font-size="32.00" fill="#29235c">created_at &#160;&#160;&#160;</text>
<text text-anchor="start" x="813.22" y="-284.32" font-family="Helvetica,sans-Serif" font-style="italic" font-size="32.00" fill="#29235c">timestamp</text>
<polygon fill="#e7e2dd" stroke="transparent" points="607.78,-203.12 607.78,-263.12 971.78,-263.12 971.78,-203.12 607.78,-203.12"/>
<polygon fill="none" stroke="#29235c" points="607.78,-203.12 607.78,-263.12 971.78,-263.12 971.78,-203.12 607.78,-203.12"/>
<text text-anchor="start" x="618.44" y="-223.32" font-family="Helvetica,sans-Serif" font-size="32.00" fill="#29235c">updated_at &#160;&#160;&#160;</text>
<text text-anchor="start" x="813.5" y="-224.32" font-family="Helvetica,sans-Serif" font-style="italic" font-size="32.00" fill="#29235c">timestamp</text>
<polygon fill="none" stroke="#29235c" stroke-width="2" points="606.78,-202.12 606.78,-624.12 972.78,-624.12 972.78,-202.12 606.78,-202.12"/>
</g>
<!-- dokumens&#45;&gt;projects -->
<!-- dokumens&#45;&gt;projects -->
<g id="edge2" class="edge">
<title>dokumens:e&#45;&gt;projects:w</title>
<path fill="none" stroke="#29235c" stroke-width="3" d="M972.78,-473.12C1058.05,-473.12 1073.34,-528.52 1153.15,-532.85"/>
<polygon fill="#29235c" stroke="#29235c" stroke-width="3" points="1153.12,-536.35 1163.21,-533.12 1153.3,-529.36 1153.12,-536.35"/>
<text text-anchor="middle" x="1154.31" y="-542.72" font-family="Helvetica,sans-Serif" font-size="32.00" fill="#29235c">1</text>
<text text-anchor="middle" x="963.88" y="-482.72" font-family="Helvetica,sans-Serif" font-size="32.00" fill="#29235c">1</text>
</g>
<!-- scrum_stories -->
<g id="scrum_stories" class="node">
<title>scrum_stories</title>
<ellipse fill="none" stroke="black" stroke-width="0" cx="246.78" cy="-473.12" rx="246.56" ry="257.27"/>
<polygon fill="#1d71b8" stroke="transparent" points="74.78,-593.12 74.78,-653.12 419.78,-653.12 419.78,-593.12 74.78,-593.12"/>
<polygon fill="none" stroke="#29235c" points="74.78,-593.12 74.78,-653.12 419.78,-653.12 419.78,-593.12 74.78,-593.12"/>
<text text-anchor="start" x="85.48" y="-614.32" font-family="Helvetica,sans-Serif" font-weight="bold" font-size="32.00" fill="#ffffff"> &#160;&#160;&#160;&#160;&#160;&#160;scrum_stories &#160;&#160;&#160;&#160;&#160;&#160;</text>
<polygon fill="#e7e2dd" stroke="transparent" points="74.78,-533.12 74.78,-593.12 419.78,-593.12 419.78,-533.12 74.78,-533.12"/>
<polygon fill="none" stroke="#29235c" points="74.78,-533.12 74.78,-593.12 419.78,-593.12 419.78,-533.12 74.78,-533.12"/>
<text text-anchor="start" x="85.78" y="-554.32" font-family="Helvetica,sans-Serif" font-weight="bold" font-size="32.00" fill="#29235c">id</text>
<text text-anchor="start" x="110.67" y="-554.32" font-family="Helvetica,sans-Serif" font-size="32.00" fill="#29235c"> &#160;&#160;&#160;</text>
<text text-anchor="start" x="375" y="-554.32" font-family="Helvetica,sans-Serif" font-style="italic" font-size="32.00" fill="#29235c">int</text>
<polygon fill="#e7e2dd" stroke="transparent" points="74.78,-473.12 74.78,-533.12 419.78,-533.12 419.78,-473.12 74.78,-473.12"/>
<polygon fill="none" stroke="#29235c" points="74.78,-473.12 74.78,-533.12 419.78,-533.12 419.78,-473.12 74.78,-473.12"/>
<text text-anchor="start" x="85.78" y="-493.32" font-family="Helvetica,sans-Serif" font-size="32.00" fill="#29235c">dokumen_id &#160;&#160;&#160;</text>
<text text-anchor="start" x="375" y="-494.32" font-family="Helvetica,sans-Serif" font-style="italic" font-size="32.00" fill="#29235c">int</text>
<polygon fill="#e7e2dd" stroke="transparent" points="74.78,-413.12 74.78,-473.12 419.78,-473.12 419.78,-413.12 74.78,-413.12"/>
<polygon fill="none" stroke="#29235c" points="74.78,-413.12 74.78,-473.12 419.78,-473.12 419.78,-413.12 74.78,-413.12"/>
<text text-anchor="start" x="85.78" y="-433.32" font-family="Helvetica,sans-Serif" font-size="32.00" fill="#29235c">project_id &#160;&#160;&#160;</text>
<text text-anchor="start" x="375" y="-434.32" font-family="Helvetica,sans-Serif" font-style="italic" font-size="32.00" fill="#29235c">int</text>
<polygon fill="#e7e2dd" stroke="transparent" points="74.78,-353.12 74.78,-413.12 419.78,-413.12 419.78,-353.12 74.78,-353.12"/>
<polygon fill="none" stroke="#29235c" points="74.78,-353.12 74.78,-413.12 419.78,-413.12 419.78,-353.12 74.78,-353.12"/>
<text text-anchor="start" x="85.78" y="-373.32" font-family="Helvetica,sans-Serif" font-size="32.00" fill="#29235c">nama &#160;&#160;&#160;</text>
<text text-anchor="start" x="302.11" y="-374.32" font-family="Helvetica,sans-Serif" font-style="italic" font-size="32.00" fill="#29235c">varchar</text>
<polygon fill="#e7e2dd" stroke="transparent" points="74.78,-293.12 74.78,-353.12 419.78,-353.12 419.78,-293.12 74.78,-293.12"/>
<polygon fill="none" stroke="#29235c" points="74.78,-293.12 74.78,-353.12 419.78,-353.12 419.78,-293.12 74.78,-293.12"/>
<text text-anchor="start" x="85.78" y="-313.32" font-family="Helvetica,sans-Serif" font-size="32.00" fill="#29235c">kode &#160;&#160;&#160;</text>
<text text-anchor="start" x="302.11" y="-314.32" font-family="Helvetica,sans-Serif" font-style="italic" font-size="32.00" fill="#29235c">varchar</text>
<polygon fill="none" stroke="#29235c" stroke-width="2" points="73.28,-292.12 73.28,-654.12 420.28,-654.12 420.28,-292.12 73.28,-292.12"/>
</g>
<!-- scrum_stories&#45;&gt;projects -->
<!-- scrum_stories&#45;&gt;projects -->
<g id="edge6" class="edge">
<title>scrum_stories:e&#45;&gt;projects:w</title>
<path fill="none" stroke="#29235c" stroke-width="3" d="M420.78,-443.12C579.01,-443.12 401.72,-197.36 529.56,-104.12 716.44,32.18 866.75,37.03 1049.99,-104.12 1203.46,-222.34 974.33,-522.33 1153.21,-532.84"/>
<polygon fill="#29235c" stroke="#29235c" stroke-width="3" points="1153.11,-536.34 1163.21,-533.12 1153.31,-529.34 1153.11,-536.34"/>
<text text-anchor="middle" x="1172.1" y="-542.72" font-family="Helvetica,sans-Serif" font-size="32.00" fill="#29235c">1</text>
<text text-anchor="middle" x="427" y="-452.72" font-family="Helvetica,sans-Serif" font-size="32.00" fill="#29235c">*</text>
</g>
<!-- scrum_stories&#45;&gt;dokumens -->
<!-- scrum_stories&#45;&gt;dokumens -->
<g id="edge4" class="edge">
<title>scrum_stories:e&#45;&gt;dokumens:w</title>
<path fill="none" stroke="#29235c" stroke-width="3" d="M420.78,-503.12C500.92,-503.12 521.33,-530.6 596.33,-532.96"/>
<polygon fill="#29235c" stroke="#29235c" stroke-width="3" points="596.72,-536.47 606.78,-533.12 596.83,-529.47 596.72,-536.47"/>
<text text-anchor="middle" x="597.88" y="-542.72" font-family="Helvetica,sans-Serif" font-size="32.00" fill="#29235c">1</text>
<text text-anchor="middle" x="427" y="-512.72" font-family="Helvetica,sans-Serif" font-size="32.00" fill="#29235c">*</text>
</g>
</g>
</svg>
