<?xml version="1.0" encoding="UTF-8" standalone="no"?>
<!DOCTYPE svg PUBLIC "-//W3C//DTD SVG 1.1//EN"
 "http://www.w3.org/Graphics/SVG/1.1/DTD/svg11.dtd">
<!-- Generated by graphviz version 2.47.0 (20210316.0004)
 -->
<!-- Title: dbml Pages: 1 -->
<svg width="1743pt" height="1480pt"
 viewBox="0.00 0.00 1743.12 1479.91" xmlns="http://www.w3.org/2000/svg" xmlns:xlink="http://www.w3.org/1999/xlink">
<g id="graph0" class="graph" transform="scale(1 1) rotate(0) translate(4 1475.91)">
<title>dbml</title>
<!-- users -->
<g id="users" class="node">
<title>users</title>
<ellipse fill="none" stroke="black" stroke-width="0" cx="893.01" cy="-469.52" rx="318.4" ry="469.54"/>
<polygon fill="#1d71b8" stroke="transparent" points="670.01,-739.52 670.01,-799.52 1116.01,-799.52 1116.01,-739.52 670.01,-739.52"/>
<polygon fill="none" stroke="#29235c" points="670.01,-739.52 670.01,-799.52 1116.01,-799.52 1116.01,-739.52 670.01,-739.52"/>
<text text-anchor="start" x="791.65" y="-760.72" font-family="Helvetica,sans-Serif" font-weight="bold" font-size="32.00" fill="#ffffff"> &#160;&#160;&#160;&#160;&#160;&#160;users &#160;&#160;&#160;&#160;&#160;&#160;</text>
<polygon fill="#e7e2dd" stroke="transparent" points="670.01,-679.52 670.01,-739.52 1116.01,-739.52 1116.01,-679.52 670.01,-679.52"/>
<polygon fill="none" stroke="#29235c" points="670.01,-679.52 670.01,-739.52 1116.01,-739.52 1116.01,-679.52 670.01,-679.52"/>
<text text-anchor="start" x="681.01" y="-700.72" font-family="Helvetica,sans-Serif" font-weight="bold" font-size="32.00" fill="#29235c">id</text>
<text text-anchor="start" x="705.9" y="-700.72" font-family="Helvetica,sans-Serif" font-size="32.00" fill="#29235c"> &#160;&#160;&#160;</text>
<text text-anchor="start" x="1071.23" y="-700.72" font-family="Helvetica,sans-Serif" font-style="italic" font-size="32.00" fill="#29235c">int</text>
<polygon fill="#e7e2dd" stroke="transparent" points="670.01,-619.52 670.01,-679.52 1116.01,-679.52 1116.01,-619.52 670.01,-619.52"/>
<polygon fill="none" stroke="#29235c" points="670.01,-619.52 670.01,-679.52 1116.01,-679.52 1116.01,-619.52 670.01,-619.52"/>
<text text-anchor="start" x="681.01" y="-639.72" font-family="Helvetica,sans-Serif" font-size="32.00" fill="#29235c">name &#160;&#160;&#160;</text>
<text text-anchor="start" x="959.25" y="-640.72" font-family="Helvetica,sans-Serif" font-style="italic" font-size="32.00" fill="#29235c">varchar</text>
<text text-anchor="start" x="1065.92" y="-640.72" font-family="Helvetica,sans-Serif" font-size="32.00" fill="#29235c"> </text>
<text text-anchor="start" x="1074.82" y="-640.72" font-family="Helvetica,sans-Serif" font-weight="bold" font-size="32.00" fill="#29235c">(!)</text>
<polygon fill="#e7e2dd" stroke="transparent" points="670.01,-559.52 670.01,-619.52 1116.01,-619.52 1116.01,-559.52 670.01,-559.52"/>
<polygon fill="none" stroke="#29235c" points="670.01,-559.52 670.01,-619.52 1116.01,-619.52 1116.01,-559.52 670.01,-559.52"/>
<text text-anchor="start" x="681.01" y="-579.72" font-family="Helvetica,sans-Serif" font-size="32.00" fill="#29235c">email &#160;&#160;&#160;</text>
<text text-anchor="start" x="959.25" y="-580.72" font-family="Helvetica,sans-Serif" font-style="italic" font-size="32.00" fill="#29235c">varchar</text>
<text text-anchor="start" x="1065.92" y="-580.72" font-family="Helvetica,sans-Serif" font-size="32.00" fill="#29235c"> </text>
<text text-anchor="start" x="1074.82" y="-580.72" font-family="Helvetica,sans-Serif" font-weight="bold" font-size="32.00" fill="#29235c">(!)</text>
<polygon fill="#e7e2dd" stroke="transparent" points="670.01,-499.52 670.01,-559.52 1116.01,-559.52 1116.01,-499.52 670.01,-499.52"/>
<polygon fill="none" stroke="#29235c" points="670.01,-499.52 670.01,-559.52 1116.01,-559.52 1116.01,-499.52 670.01,-499.52"/>
<text text-anchor="start" x="680.83" y="-519.72" font-family="Helvetica,sans-Serif" font-size="32.00" fill="#29235c">email_verified_at &#160;&#160;&#160;</text>
<text text-anchor="start" x="957.73" y="-520.72" font-family="Helvetica,sans-Serif" font-style="italic" font-size="32.00" fill="#29235c">timestamp</text>
<polygon fill="#e7e2dd" stroke="transparent" points="670.01,-439.52 670.01,-499.52 1116.01,-499.52 1116.01,-439.52 670.01,-439.52"/>
<polygon fill="none" stroke="#29235c" points="670.01,-439.52 670.01,-499.52 1116.01,-499.52 1116.01,-439.52 670.01,-439.52"/>
<text text-anchor="start" x="681.01" y="-459.72" font-family="Helvetica,sans-Serif" font-size="32.00" fill="#29235c">password &#160;&#160;&#160;</text>
<text text-anchor="start" x="959.25" y="-460.72" font-family="Helvetica,sans-Serif" font-style="italic" font-size="32.00" fill="#29235c">varchar</text>
<text text-anchor="start" x="1065.92" y="-460.72" font-family="Helvetica,sans-Serif" font-size="32.00" fill="#29235c"> </text>
<text text-anchor="start" x="1074.82" y="-460.72" font-family="Helvetica,sans-Serif" font-weight="bold" font-size="32.00" fill="#29235c">(!)</text>
<polygon fill="#e7e2dd" stroke="transparent" points="670.01,-379.52 670.01,-439.52 1116.01,-439.52 1116.01,-379.52 670.01,-379.52"/>
<polygon fill="none" stroke="#29235c" points="670.01,-379.52 670.01,-439.52 1116.01,-439.52 1116.01,-379.52 670.01,-379.52"/>
<text text-anchor="start" x="681.01" y="-399.72" font-family="Helvetica,sans-Serif" font-size="32.00" fill="#29235c">remember_token &#160;&#160;&#160;</text>
<text text-anchor="start" x="998.34" y="-400.72" font-family="Helvetica,sans-Serif" font-style="italic" font-size="32.00" fill="#29235c">varchar</text>
<polygon fill="#e7e2dd" stroke="transparent" points="670.01,-319.52 670.01,-379.52 1116.01,-379.52 1116.01,-319.52 670.01,-319.52"/>
<polygon fill="none" stroke="#29235c" points="670.01,-319.52 670.01,-379.52 1116.01,-379.52 1116.01,-319.52 670.01,-319.52"/>
<text text-anchor="start" x="681.01" y="-339.72" font-family="Helvetica,sans-Serif" font-size="32.00" fill="#29235c">custom_fields &#160;&#160;&#160;</text>
<text text-anchor="start" x="1046.34" y="-340.72" font-family="Helvetica,sans-Serif" font-style="italic" font-size="32.00" fill="#29235c">json</text>
<polygon fill="#e7e2dd" stroke="transparent" points="670.01,-259.52 670.01,-319.52 1116.01,-319.52 1116.01,-259.52 670.01,-259.52"/>
<polygon fill="none" stroke="#29235c" points="670.01,-259.52 670.01,-319.52 1116.01,-319.52 1116.01,-259.52 670.01,-259.52"/>
<text text-anchor="start" x="681.01" y="-279.72" font-family="Helvetica,sans-Serif" font-size="32.00" fill="#29235c">avatar_url &#160;&#160;&#160;</text>
<text text-anchor="start" x="998.34" y="-280.72" font-family="Helvetica,sans-Serif" font-style="italic" font-size="32.00" fill="#29235c">varchar</text>
<polygon fill="#e7e2dd" stroke="transparent" points="670.01,-199.52 670.01,-259.52 1116.01,-259.52 1116.01,-199.52 670.01,-199.52"/>
<polygon fill="none" stroke="#29235c" points="670.01,-199.52 670.01,-259.52 1116.01,-259.52 1116.01,-199.52 670.01,-199.52"/>
<text text-anchor="start" x="681.01" y="-219.72" font-family="Helvetica,sans-Serif" font-size="32.00" fill="#29235c">created_at &#160;&#160;&#160;</text>
<text text-anchor="start" x="957.46" y="-220.72" font-family="Helvetica,sans-Serif" font-style="italic" font-size="32.00" fill="#29235c">timestamp</text>
<polygon fill="#e7e2dd" stroke="transparent" points="670.01,-139.52 670.01,-199.52 1116.01,-199.52 1116.01,-139.52 670.01,-139.52"/>
<polygon fill="none" stroke="#29235c" points="670.01,-139.52 670.01,-199.52 1116.01,-199.52 1116.01,-139.52 670.01,-139.52"/>
<text text-anchor="start" x="681.01" y="-159.72" font-family="Helvetica,sans-Serif" font-size="32.00" fill="#29235c">updated_at &#160;&#160;&#160;</text>
<text text-anchor="start" x="957.46" y="-160.72" font-family="Helvetica,sans-Serif" font-style="italic" font-size="32.00" fill="#29235c">timestamp</text>
<polygon fill="none" stroke="#29235c" stroke-width="2" points="669.01,-138.52 669.01,-800.52 1117.01,-800.52 1117.01,-138.52 669.01,-138.52"/>
</g>
<!-- projects -->
<g id="projects" class="node">
<title>projects</title>
<ellipse fill="none" stroke="black" stroke-width="0" cx="1491.16" cy="-1214.52" rx="243.9" ry="257.27"/>
<polygon fill="#1d71b8" stroke="transparent" points="1321.16,-1334.52 1321.16,-1394.52 1662.16,-1394.52 1662.16,-1334.52 1321.16,-1334.52"/>
<polygon fill="none" stroke="#29235c" points="1321.16,-1334.52 1321.16,-1394.52 1662.16,-1394.52 1662.16,-1334.52 1321.16,-1334.52"/>
<text text-anchor="start" x="1373.41" y="-1355.72" font-family="Helvetica,sans-Serif" font-weight="bold" font-size="32.00" fill="#ffffff"> &#160;&#160;&#160;&#160;&#160;&#160;projects &#160;&#160;&#160;&#160;&#160;&#160;</text>
<polygon fill="#e7e2dd" stroke="transparent" points="1321.16,-1274.52 1321.16,-1334.52 1662.16,-1334.52 1662.16,-1274.52 1321.16,-1274.52"/>
<polygon fill="none" stroke="#29235c" points="1321.16,-1274.52 1321.16,-1334.52 1662.16,-1334.52 1662.16,-1274.52 1321.16,-1274.52"/>
<text text-anchor="start" x="1332.16" y="-1295.72" font-family="Helvetica,sans-Serif" font-weight="bold" font-size="32.00" fill="#29235c">id</text>
<text text-anchor="start" x="1357.05" y="-1295.72" font-family="Helvetica,sans-Serif" font-size="32.00" fill="#29235c"> &#160;&#160;&#160;</text>
<text text-anchor="start" x="1617.38" y="-1295.72" font-family="Helvetica,sans-Serif" font-style="italic" font-size="32.00" fill="#29235c">int</text>
<polygon fill="#e7e2dd" stroke="transparent" points="1321.16,-1214.52 1321.16,-1274.52 1662.16,-1274.52 1662.16,-1214.52 1321.16,-1214.52"/>
<polygon fill="none" stroke="#29235c" points="1321.16,-1214.52 1321.16,-1274.52 1662.16,-1274.52 1662.16,-1214.52 1321.16,-1214.52"/>
<text text-anchor="start" x="1332.16" y="-1234.72" font-family="Helvetica,sans-Serif" font-size="32.00" fill="#29235c">nama &#160;&#160;&#160;</text>
<text text-anchor="start" x="1505.4" y="-1235.72" font-family="Helvetica,sans-Serif" font-style="italic" font-size="32.00" fill="#29235c">varchar</text>
<text text-anchor="start" x="1612.07" y="-1235.72" font-family="Helvetica,sans-Serif" font-size="32.00" fill="#29235c"> </text>
<text text-anchor="start" x="1620.96" y="-1235.72" font-family="Helvetica,sans-Serif" font-weight="bold" font-size="32.00" fill="#29235c">(!)</text>
<polygon fill="#e7e2dd" stroke="transparent" points="1321.16,-1154.52 1321.16,-1214.52 1662.16,-1214.52 1662.16,-1154.52 1321.16,-1154.52"/>
<polygon fill="none" stroke="#29235c" points="1321.16,-1154.52 1321.16,-1214.52 1662.16,-1214.52 1662.16,-1154.52 1321.16,-1154.52"/>
<text text-anchor="start" x="1332.16" y="-1174.72" font-family="Helvetica,sans-Serif" font-size="32.00" fill="#29235c">deskripsi &#160;&#160;&#160;</text>
<text text-anchor="start" x="1599.59" y="-1175.72" font-family="Helvetica,sans-Serif" font-style="italic" font-size="32.00" fill="#29235c">text</text>
<polygon fill="#e7e2dd" stroke="transparent" points="1321.16,-1094.52 1321.16,-1154.52 1662.16,-1154.52 1662.16,-1094.52 1321.16,-1094.52"/>
<polygon fill="none" stroke="#29235c" points="1321.16,-1094.52 1321.16,-1154.52 1662.16,-1154.52 1662.16,-1094.52 1321.16,-1094.52"/>
<text text-anchor="start" x="1332.16" y="-1114.72" font-family="Helvetica,sans-Serif" font-size="32.00" fill="#29235c">tanggal_mulai &#160;&#160;&#160;</text>
<text text-anchor="start" x="1588.9" y="-1115.72" font-family="Helvetica,sans-Serif" font-style="italic" font-size="32.00" fill="#29235c">date</text>
<polygon fill="#e7e2dd" stroke="transparent" points="1321.16,-1034.52 1321.16,-1094.52 1662.16,-1094.52 1662.16,-1034.52 1321.16,-1034.52"/>
<polygon fill="none" stroke="#29235c" points="1321.16,-1034.52 1321.16,-1094.52 1662.16,-1094.52 1662.16,-1034.52 1321.16,-1034.52"/>
<text text-anchor="start" x="1331.73" y="-1054.72" font-family="Helvetica,sans-Serif" font-size="32.00" fill="#29235c">tanggal_selesai &#160;&#160;&#160;</text>
<text text-anchor="start" x="1589.03" y="-1055.72" font-family="Helvetica,sans-Serif" font-style="italic" font-size="32.00" fill="#29235c">date</text>
<polygon fill="none" stroke="#29235c" stroke-width="2" points="1319.66,-1033.52 1319.66,-1395.52 1662.66,-1395.52 1662.66,-1033.52 1319.66,-1033.52"/>
</g>
<!-- squads -->
<g id="squads" class="node">
<title>squads</title>
<ellipse fill="none" stroke="black" stroke-width="0" cx="893.01" cy="-1214.52" rx="260.43" ry="257.27"/>
<polygon fill="#1d71b8" stroke="transparent" points="711.01,-1334.52 711.01,-1394.52 1075.01,-1394.52 1075.01,-1334.52 711.01,-1334.52"/>
<polygon fill="none" stroke="#29235c" points="711.01,-1334.52 711.01,-1394.52 1075.01,-1394.52 1075.01,-1334.52 711.01,-1334.52"/>
<text text-anchor="start" x="779.19" y="-1355.72" font-family="Helvetica,sans-Serif" font-weight="bold" font-size="32.00" fill="#ffffff"> &#160;&#160;&#160;&#160;&#160;&#160;squads &#160;&#160;&#160;&#160;&#160;&#160;</text>
<polygon fill="#e7e2dd" stroke="transparent" points="711.01,-1274.52 711.01,-1334.52 1075.01,-1334.52 1075.01,-1274.52 711.01,-1274.52"/>
<polygon fill="none" stroke="#29235c" points="711.01,-1274.52 711.01,-1334.52 1075.01,-1334.52 1075.01,-1274.52 711.01,-1274.52"/>
<text text-anchor="start" x="722.01" y="-1295.72" font-family="Helvetica,sans-Serif" font-weight="bold" font-size="32.00" fill="#29235c">id</text>
<text text-anchor="start" x="746.9" y="-1295.72" font-family="Helvetica,sans-Serif" font-size="32.00" fill="#29235c"> &#160;&#160;&#160;</text>
<text text-anchor="start" x="1030.23" y="-1295.72" font-family="Helvetica,sans-Serif" font-style="italic" font-size="32.00" fill="#29235c">int</text>
<polygon fill="#e7e2dd" stroke="transparent" points="711.01,-1214.52 711.01,-1274.52 1075.01,-1274.52 1075.01,-1214.52 711.01,-1214.52"/>
<polygon fill="none" stroke="#29235c" points="711.01,-1214.52 711.01,-1274.52 1075.01,-1274.52 1075.01,-1214.52 711.01,-1214.52"/>
<text text-anchor="start" x="722.01" y="-1234.72" font-family="Helvetica,sans-Serif" font-size="32.00" fill="#29235c">nama &#160;&#160;&#160;</text>
<text text-anchor="start" x="918.25" y="-1235.72" font-family="Helvetica,sans-Serif" font-style="italic" font-size="32.00" fill="#29235c">varchar</text>
<text text-anchor="start" x="1024.92" y="-1235.72" font-family="Helvetica,sans-Serif" font-size="32.00" fill="#29235c"> </text>
<text text-anchor="start" x="1033.82" y="-1235.72" font-family="Helvetica,sans-Serif" font-weight="bold" font-size="32.00" fill="#29235c">(!)</text>
<polygon fill="#e7e2dd" stroke="transparent" points="711.01,-1154.52 711.01,-1214.52 1075.01,-1214.52 1075.01,-1154.52 711.01,-1154.52"/>
<polygon fill="none" stroke="#29235c" points="711.01,-1154.52 711.01,-1214.52 1075.01,-1214.52 1075.01,-1154.52 711.01,-1154.52"/>
<text text-anchor="start" x="722.01" y="-1174.72" font-family="Helvetica,sans-Serif" font-size="32.00" fill="#29235c">project_id &#160;&#160;&#160;</text>
<text text-anchor="start" x="1030.23" y="-1175.72" font-family="Helvetica,sans-Serif" font-style="italic" font-size="32.00" fill="#29235c">int</text>
<polygon fill="#e7e2dd" stroke="transparent" points="711.01,-1094.52 711.01,-1154.52 1075.01,-1154.52 1075.01,-1094.52 711.01,-1094.52"/>
<polygon fill="none" stroke="#29235c" points="711.01,-1094.52 711.01,-1154.52 1075.01,-1154.52 1075.01,-1094.52 711.01,-1094.52"/>
<text text-anchor="start" x="722.01" y="-1114.72" font-family="Helvetica,sans-Serif" font-size="32.00" fill="#29235c">created_at &#160;&#160;&#160;</text>
<text text-anchor="start" x="916.46" y="-1115.72" font-family="Helvetica,sans-Serif" font-style="italic" font-size="32.00" fill="#29235c">timestamp</text>
<polygon fill="#e7e2dd" stroke="transparent" points="711.01,-1034.52 711.01,-1094.52 1075.01,-1094.52 1075.01,-1034.52 711.01,-1034.52"/>
<polygon fill="none" stroke="#29235c" points="711.01,-1034.52 711.01,-1094.52 1075.01,-1094.52 1075.01,-1034.52 711.01,-1034.52"/>
<text text-anchor="start" x="721.68" y="-1054.72" font-family="Helvetica,sans-Serif" font-size="32.00" fill="#29235c">updated_at &#160;&#160;&#160;</text>
<text text-anchor="start" x="916.73" y="-1055.72" font-family="Helvetica,sans-Serif" font-style="italic" font-size="32.00" fill="#29235c">timestamp</text>
<polygon fill="none" stroke="#29235c" stroke-width="2" points="710.01,-1033.52 710.01,-1395.52 1076.01,-1395.52 1076.01,-1033.52 710.01,-1033.52"/>
</g>
<!-- squads&#45;&gt;projects -->
<!-- squads&#45;&gt;projects -->
<g id="edge2" class="edge">
<title>squads:e&#45;&gt;projects:w</title>
<path fill="none" stroke="#29235c" stroke-width="3" d="M1076.01,-1184.52C1193.38,-1184.52 1199.02,-1297.59 1309.84,-1304.22"/>
<polygon fill="#29235c" stroke="#29235c" stroke-width="3" points="1310.06,-1307.72 1320.16,-1304.52 1310.27,-1300.73 1310.06,-1307.72"/>
<text text-anchor="middle" x="1329.06" y="-1314.12" font-family="Helvetica,sans-Serif" font-size="32.00" fill="#29235c">1</text>
<text text-anchor="middle" x="1069.79" y="-1194.12" font-family="Helvetica,sans-Serif" font-size="32.00" fill="#29235c">*</text>
</g>
<!-- scrum_backlogs -->
<g id="scrum_backlogs" class="node">
<title>scrum_backlogs</title>
<ellipse fill="none" stroke="black" stroke-width="0" cx="269.41" cy="-796.52" rx="269.32" ry="511.89"/>
<polygon fill="#1d71b8" stroke="transparent" points="81.41,-1096.52 81.41,-1156.52 458.41,-1156.52 458.41,-1096.52 81.41,-1096.52"/>
<polygon fill="none" stroke="#29235c" points="81.41,-1096.52 81.41,-1156.52 458.41,-1156.52 458.41,-1096.52 81.41,-1096.52"/>
<text text-anchor="start" x="92.09" y="-1117.72" font-family="Helvetica,sans-Serif" font-weight="bold" font-size="32.00" fill="#ffffff"> &#160;&#160;&#160;&#160;&#160;&#160;scrum_backlogs &#160;&#160;&#160;&#160;&#160;&#160;</text>
<polygon fill="#e7e2dd" stroke="transparent" points="81.41,-1036.52 81.41,-1096.52 458.41,-1096.52 458.41,-1036.52 81.41,-1036.52"/>
<polygon fill="none" stroke="#29235c" points="81.41,-1036.52 81.41,-1096.52 458.41,-1096.52 458.41,-1036.52 81.41,-1036.52"/>
<text text-anchor="start" x="92.41" y="-1057.72" font-family="Helvetica,sans-Serif" font-weight="bold" font-size="32.00" fill="#29235c">id</text>
<text text-anchor="start" x="117.3" y="-1057.72" font-family="Helvetica,sans-Serif" font-size="32.00" fill="#29235c"> &#160;&#160;&#160;</text>
<text text-anchor="start" x="413.63" y="-1057.72" font-family="Helvetica,sans-Serif" font-style="italic" font-size="32.00" fill="#29235c">int</text>
<polygon fill="#e7e2dd" stroke="transparent" points="81.41,-976.52 81.41,-1036.52 458.41,-1036.52 458.41,-976.52 81.41,-976.52"/>
<polygon fill="none" stroke="#29235c" points="81.41,-976.52 81.41,-1036.52 458.41,-1036.52 458.41,-976.52 81.41,-976.52"/>
<text text-anchor="start" x="92.41" y="-996.72" font-family="Helvetica,sans-Serif" font-size="32.00" fill="#29235c">squad_id &#160;&#160;&#160;</text>
<text text-anchor="start" x="413.63" y="-997.72" font-family="Helvetica,sans-Serif" font-style="italic" font-size="32.00" fill="#29235c">int</text>
<polygon fill="#e7e2dd" stroke="transparent" points="81.41,-916.52 81.41,-976.52 458.41,-976.52 458.41,-916.52 81.41,-916.52"/>
<polygon fill="none" stroke="#29235c" points="81.41,-916.52 81.41,-976.52 458.41,-976.52 458.41,-916.52 81.41,-916.52"/>
<text text-anchor="start" x="92.41" y="-936.72" font-family="Helvetica,sans-Serif" font-size="32.00" fill="#29235c">pic &#160;&#160;&#160;</text>
<text text-anchor="start" x="413.63" y="-937.72" font-family="Helvetica,sans-Serif" font-style="italic" font-size="32.00" fill="#29235c">int</text>
<polygon fill="#e7e2dd" stroke="transparent" points="81.41,-856.52 81.41,-916.52 458.41,-916.52 458.41,-856.52 81.41,-856.52"/>
<polygon fill="none" stroke="#29235c" points="81.41,-856.52 81.41,-916.52 458.41,-916.52 458.41,-856.52 81.41,-856.52"/>
<text text-anchor="start" x="92.41" y="-876.72" font-family="Helvetica,sans-Serif" font-size="32.00" fill="#29235c">sub_divisi_id &#160;&#160;&#160;</text>
<text text-anchor="start" x="413.63" y="-877.72" font-family="Helvetica,sans-Serif" font-style="italic" font-size="32.00" fill="#29235c">int</text>
<polygon fill="#e7e2dd" stroke="transparent" points="81.41,-796.52 81.41,-856.52 458.41,-856.52 458.41,-796.52 81.41,-796.52"/>
<polygon fill="none" stroke="#29235c" points="81.41,-796.52 81.41,-856.52 458.41,-856.52 458.41,-796.52 81.41,-796.52"/>
<text text-anchor="start" x="92.41" y="-816.72" font-family="Helvetica,sans-Serif" font-size="32.00" fill="#29235c">status_id &#160;&#160;&#160;</text>
<text text-anchor="start" x="413.63" y="-817.72" font-family="Helvetica,sans-Serif" font-style="italic" font-size="32.00" fill="#29235c">int</text>
<polygon fill="#e7e2dd" stroke="transparent" points="81.41,-736.52 81.41,-796.52 458.41,-796.52 458.41,-736.52 81.41,-736.52"/>
<polygon fill="none" stroke="#29235c" points="81.41,-736.52 81.41,-796.52 458.41,-796.52 458.41,-736.52 81.41,-736.52"/>
<text text-anchor="start" x="92.41" y="-756.72" font-family="Helvetica,sans-Serif" font-size="32.00" fill="#29235c">judul &#160;&#160;&#160;</text>
<text text-anchor="start" x="340.74" y="-757.72" font-family="Helvetica,sans-Serif" font-style="italic" font-size="32.00" fill="#29235c">varchar</text>
<polygon fill="#e7e2dd" stroke="transparent" points="81.41,-676.52 81.41,-736.52 458.41,-736.52 458.41,-676.52 81.41,-676.52"/>
<polygon fill="none" stroke="#29235c" points="81.41,-676.52 81.41,-736.52 458.41,-736.52 458.41,-676.52 81.41,-676.52"/>
<text text-anchor="start" x="92.41" y="-696.72" font-family="Helvetica,sans-Serif" font-size="32.00" fill="#29235c">deskripsi &#160;&#160;&#160;</text>
<text text-anchor="start" x="395.83" y="-697.72" font-family="Helvetica,sans-Serif" font-style="italic" font-size="32.00" fill="#29235c">text</text>
<polygon fill="#e7e2dd" stroke="transparent" points="81.41,-616.52 81.41,-676.52 458.41,-676.52 458.41,-616.52 81.41,-616.52"/>
<polygon fill="none" stroke="#29235c" points="81.41,-616.52 81.41,-676.52 458.41,-676.52 458.41,-616.52 81.41,-616.52"/>
<text text-anchor="start" x="92.41" y="-636.72" font-family="Helvetica,sans-Serif" font-size="32.00" fill="#29235c">kode &#160;&#160;&#160;</text>
<text text-anchor="start" x="340.74" y="-637.72" font-family="Helvetica,sans-Serif" font-style="italic" font-size="32.00" fill="#29235c">varchar</text>
<polygon fill="#e7e2dd" stroke="transparent" points="81.41,-556.52 81.41,-616.52 458.41,-616.52 458.41,-556.52 81.41,-556.52"/>
<polygon fill="none" stroke="#29235c" points="81.41,-556.52 81.41,-616.52 458.41,-616.52 458.41,-556.52 81.41,-556.52"/>
<text text-anchor="start" x="92.41" y="-576.72" font-family="Helvetica,sans-Serif" font-size="32.00" fill="#29235c">prioritas &#160;&#160;&#160;</text>
<text text-anchor="start" x="333.64" y="-577.72" font-family="Helvetica,sans-Serif" font-style="italic" font-size="32.00" fill="#29235c">prioritas</text>
<polygon fill="#e7e2dd" stroke="transparent" points="81.41,-496.52 81.41,-556.52 458.41,-556.52 458.41,-496.52 81.41,-496.52"/>
<polygon fill="none" stroke="#29235c" points="81.41,-496.52 81.41,-556.52 458.41,-556.52 458.41,-496.52 81.41,-496.52"/>
<text text-anchor="start" x="92.41" y="-516.72" font-family="Helvetica,sans-Serif" font-size="32.00" fill="#29235c">created_at &#160;&#160;&#160;</text>
<text text-anchor="start" x="299.85" y="-517.72" font-family="Helvetica,sans-Serif" font-style="italic" font-size="32.00" fill="#29235c">timestamp</text>
<polygon fill="#e7e2dd" stroke="transparent" points="81.41,-436.52 81.41,-496.52 458.41,-496.52 458.41,-436.52 81.41,-436.52"/>
<polygon fill="none" stroke="#29235c" points="81.41,-436.52 81.41,-496.52 458.41,-496.52 458.41,-436.52 81.41,-436.52"/>
<text text-anchor="start" x="92.41" y="-456.72" font-family="Helvetica,sans-Serif" font-size="32.00" fill="#29235c">updated_at &#160;&#160;&#160;</text>
<text text-anchor="start" x="299.85" y="-457.72" font-family="Helvetica,sans-Serif" font-style="italic" font-size="32.00" fill="#29235c">timestamp</text>
<polygon fill="none" stroke="#29235c" stroke-width="2" points="79.91,-435.52 79.91,-1157.52 458.91,-1157.52 458.91,-435.52 79.91,-435.52"/>
</g>
<!-- scrum_backlogs&#45;&gt;users -->
<!-- scrum_backlogs&#45;&gt;users -->
<g id="edge6" class="edge">
<title>scrum_backlogs:e&#45;&gt;users:w</title>
<path fill="none" stroke="#29235c" stroke-width="3" d="M459.41,-946.52C596.46,-946.52 531.9,-721.4 658.71,-709.97"/>
<polygon fill="#29235c" stroke="#29235c" stroke-width="3" points="659.18,-713.45 669.01,-709.52 658.87,-706.46 659.18,-713.45"/>
<text text-anchor="middle" x="660.12" y="-719.12" font-family="Helvetica,sans-Serif" font-size="32.00" fill="#29235c">1</text>
<text text-anchor="middle" x="465.63" y="-956.12" font-family="Helvetica,sans-Serif" font-size="32.00" fill="#29235c">*</text>
</g>
<!-- scrum_backlogs&#45;&gt;squads -->
<!-- scrum_backlogs&#45;&gt;squads -->
<g id="edge4" class="edge">
<title>scrum_backlogs:e&#45;&gt;squads:w</title>
<path fill="none" stroke="#29235c" stroke-width="3" d="M459.41,-1006.52C628.91,-1006.52 540.77,-1292.42 699.7,-1304.15"/>
<polygon fill="#29235c" stroke="#29235c" stroke-width="3" points="699.89,-1307.66 710.01,-1304.52 700.15,-1300.66 699.89,-1307.66"/>
<text text-anchor="middle" x="701.12" y="-1314.12" font-family="Helvetica,sans-Serif" font-size="32.00" fill="#29235c">1</text>
<text text-anchor="middle" x="465.63" y="-1016.12" font-family="Helvetica,sans-Serif" font-size="32.00" fill="#29235c">*</text>
</g>
</g>
</svg>
