<?xml version="1.0" encoding="UTF-8" standalone="no"?>
<!DOCTYPE svg PUBLIC "-//W3C//DTD SVG 1.1//EN"
 "http://www.w3.org/Graphics/SVG/1.1/DTD/svg11.dtd">
<!-- Generated by graphviz version 2.47.0 (20210316.0004)
 -->
<!-- Title: dbml Pages: 1 -->
<svg width="565pt" height="438pt"
 viewBox="0.00 0.00 565.20 437.92" xmlns="http://www.w3.org/2000/svg" xmlns:xlink="http://www.w3.org/1999/xlink">
<g id="graph0" class="graph" transform="scale(1 1) rotate(0) translate(4 433.92)">
<title>dbml</title>
<!-- scrum_checklists -->
<g id="scrum_checklists" class="node">
<title>scrum_checklists</title>
<ellipse fill="none" stroke="black" stroke-width="0" cx="278.6" cy="-214.96" rx="278.7" ry="214.92"/>
<polygon fill="#1d71b8" stroke="transparent" points="83.6,-304.96 83.6,-364.96 473.6,-364.96 473.6,-304.96 83.6,-304.96"/>
<polygon fill="none" stroke="#29235c" points="83.6,-304.96 83.6,-364.96 473.6,-364.96 473.6,-304.96 83.6,-304.96"/>
<text text-anchor="start" x="94.57" y="-326.16" font-family="Helvetica,sans-Serif" font-weight="bold" font-size="32.00" fill="#ffffff"> &#160;&#160;&#160;&#160;&#160;&#160;scrum_checklists &#160;&#160;&#160;&#160;&#160;&#160;</text>
<polygon fill="#e7e2dd" stroke="transparent" points="83.6,-244.96 83.6,-304.96 473.6,-304.96 473.6,-244.96 83.6,-244.96"/>
<polygon fill="none" stroke="#29235c" points="83.6,-244.96 83.6,-304.96 473.6,-304.96 473.6,-244.96 83.6,-244.96"/>
<text text-anchor="start" x="94.6" y="-266.16" font-family="Helvetica,sans-Serif" font-weight="bold" font-size="32.00" fill="#29235c">id</text>
<text text-anchor="start" x="119.49" y="-266.16" font-family="Helvetica,sans-Serif" font-size="32.00" fill="#29235c"> &#160;&#160;&#160;</text>
<text text-anchor="start" x="428.82" y="-266.16" font-family="Helvetica,sans-Serif" font-style="italic" font-size="32.00" fill="#29235c">int</text>
<polygon fill="#e7e2dd" stroke="transparent" points="83.6,-184.96 83.6,-244.96 473.6,-244.96 473.6,-184.96 83.6,-184.96"/>
<polygon fill="none" stroke="#29235c" points="83.6,-184.96 83.6,-244.96 473.6,-244.96 473.6,-184.96 83.6,-184.96"/>
<text text-anchor="start" x="94.6" y="-205.16" font-family="Helvetica,sans-Serif" font-size="32.00" fill="#29235c">nama &#160;&#160;&#160;</text>
<text text-anchor="start" x="355.93" y="-206.16" font-family="Helvetica,sans-Serif" font-style="italic" font-size="32.00" fill="#29235c">varchar</text>
<polygon fill="#e7e2dd" stroke="transparent" points="83.6,-124.96 83.6,-184.96 473.6,-184.96 473.6,-124.96 83.6,-124.96"/>
<polygon fill="none" stroke="#29235c" points="83.6,-124.96 83.6,-184.96 473.6,-184.96 473.6,-124.96 83.6,-124.96"/>
<text text-anchor="start" x="94.6" y="-145.16" font-family="Helvetica,sans-Serif" font-size="32.00" fill="#29235c">created_at &#160;&#160;&#160;</text>
<text text-anchor="start" x="315.04" y="-146.16" font-family="Helvetica,sans-Serif" font-style="italic" font-size="32.00" fill="#29235c">timestamp</text>
<polygon fill="#e7e2dd" stroke="transparent" points="83.6,-64.96 83.6,-124.96 473.6,-124.96 473.6,-64.96 83.6,-64.96"/>
<polygon fill="none" stroke="#29235c" points="83.6,-64.96 83.6,-124.96 473.6,-124.96 473.6,-64.96 83.6,-64.96"/>
<text text-anchor="start" x="94.6" y="-85.16" font-family="Helvetica,sans-Serif" font-size="32.00" fill="#29235c">updated_at &#160;&#160;&#160;</text>
<text text-anchor="start" x="315.04" y="-86.16" font-family="Helvetica,sans-Serif" font-style="italic" font-size="32.00" fill="#29235c">timestamp</text>
<polygon fill="none" stroke="#29235c" stroke-width="2" points="82.6,-63.96 82.6,-365.96 474.6,-365.96 474.6,-63.96 82.6,-63.96"/>
</g>
</g>
</svg>
