<?xml version="1.0" encoding="UTF-8" standalone="no"?>
<!DOCTYPE svg PUBLIC "-//W3C//DTD SVG 1.1//EN"
 "http://www.w3.org/Graphics/SVG/1.1/DTD/svg11.dtd">
<!-- Generated by graphviz version 2.47.0 (20210316.0004)
 -->
<!-- Title: dbml Pages: 1 -->
<svg width="1805pt" height="1843pt"
 viewBox="0.00 0.00 1805.34 1842.92" xmlns="http://www.w3.org/2000/svg" xmlns:xlink="http://www.w3.org/1999/xlink">
<g id="graph0" class="graph" transform="scale(1 1) rotate(0) translate(4 1838.92)">
<title>dbml</title>
<!-- projects -->
<g id="projects" class="node">
<title>projects</title>
<ellipse fill="none" stroke="black" stroke-width="0" cx="1479.14" cy="-257.39" rx="243.9" ry="257.27"/>
<polygon fill="#1d71b8" stroke="transparent" points="1309.14,-377.39 1309.14,-437.39 1650.14,-437.39 1650.14,-377.39 1309.14,-377.39"/>
<polygon fill="none" stroke="#29235c" points="1309.14,-377.39 1309.14,-437.39 1650.14,-437.39 1650.14,-377.39 1309.14,-377.39"/>
<text text-anchor="start" x="1361.39" y="-398.59" font-family="Helvetica,sans-Serif" font-weight="bold" font-size="32.00" fill="#ffffff"> &#160;&#160;&#160;&#160;&#160;&#160;projects &#160;&#160;&#160;&#160;&#160;&#160;</text>
<polygon fill="#e7e2dd" stroke="transparent" points="1309.14,-317.39 1309.14,-377.39 1650.14,-377.39 1650.14,-317.39 1309.14,-317.39"/>
<polygon fill="none" stroke="#29235c" points="1309.14,-317.39 1309.14,-377.39 1650.14,-377.39 1650.14,-317.39 1309.14,-317.39"/>
<text text-anchor="start" x="1320.14" y="-338.59" font-family="Helvetica,sans-Serif" font-weight="bold" font-size="32.00" fill="#29235c">id</text>
<text text-anchor="start" x="1345.03" y="-338.59" font-family="Helvetica,sans-Serif" font-size="32.00" fill="#29235c"> &#160;&#160;&#160;</text>
<text text-anchor="start" x="1605.36" y="-338.59" font-family="Helvetica,sans-Serif" font-style="italic" font-size="32.00" fill="#29235c">int</text>
<polygon fill="#e7e2dd" stroke="transparent" points="1309.14,-257.39 1309.14,-317.39 1650.14,-317.39 1650.14,-257.39 1309.14,-257.39"/>
<polygon fill="none" stroke="#29235c" points="1309.14,-257.39 1309.14,-317.39 1650.14,-317.39 1650.14,-257.39 1309.14,-257.39"/>
<text text-anchor="start" x="1320.14" y="-277.59" font-family="Helvetica,sans-Serif" font-size="32.00" fill="#29235c">nama &#160;&#160;&#160;</text>
<text text-anchor="start" x="1493.38" y="-278.59" font-family="Helvetica,sans-Serif" font-style="italic" font-size="32.00" fill="#29235c">varchar</text>
<text text-anchor="start" x="1600.05" y="-278.59" font-family="Helvetica,sans-Serif" font-size="32.00" fill="#29235c"> </text>
<text text-anchor="start" x="1608.94" y="-278.59" font-family="Helvetica,sans-Serif" font-weight="bold" font-size="32.00" fill="#29235c">(!)</text>
<polygon fill="#e7e2dd" stroke="transparent" points="1309.14,-197.39 1309.14,-257.39 1650.14,-257.39 1650.14,-197.39 1309.14,-197.39"/>
<polygon fill="none" stroke="#29235c" points="1309.14,-197.39 1309.14,-257.39 1650.14,-257.39 1650.14,-197.39 1309.14,-197.39"/>
<text text-anchor="start" x="1320.14" y="-217.59" font-family="Helvetica,sans-Serif" font-size="32.00" fill="#29235c">deskripsi &#160;&#160;&#160;</text>
<text text-anchor="start" x="1587.57" y="-218.59" font-family="Helvetica,sans-Serif" font-style="italic" font-size="32.00" fill="#29235c">text</text>
<polygon fill="#e7e2dd" stroke="transparent" points="1309.14,-137.39 1309.14,-197.39 1650.14,-197.39 1650.14,-137.39 1309.14,-137.39"/>
<polygon fill="none" stroke="#29235c" points="1309.14,-137.39 1309.14,-197.39 1650.14,-197.39 1650.14,-137.39 1309.14,-137.39"/>
<text text-anchor="start" x="1320.14" y="-157.59" font-family="Helvetica,sans-Serif" font-size="32.00" fill="#29235c">tanggal_mulai &#160;&#160;&#160;</text>
<text text-anchor="start" x="1576.88" y="-158.59" font-family="Helvetica,sans-Serif" font-style="italic" font-size="32.00" fill="#29235c">date</text>
<polygon fill="#e7e2dd" stroke="transparent" points="1309.14,-77.39 1309.14,-137.39 1650.14,-137.39 1650.14,-77.39 1309.14,-77.39"/>
<polygon fill="none" stroke="#29235c" points="1309.14,-77.39 1309.14,-137.39 1650.14,-137.39 1650.14,-77.39 1309.14,-77.39"/>
<text text-anchor="start" x="1319.71" y="-97.59" font-family="Helvetica,sans-Serif" font-size="32.00" fill="#29235c">tanggal_selesai &#160;&#160;&#160;</text>
<text text-anchor="start" x="1577.01" y="-98.59" font-family="Helvetica,sans-Serif" font-style="italic" font-size="32.00" fill="#29235c">date</text>
<polygon fill="none" stroke="#29235c" stroke-width="2" points="1307.64,-76.39 1307.64,-438.39 1650.64,-438.39 1650.64,-76.39 1307.64,-76.39"/>
</g>
<!-- users -->
<g id="users" class="node">
<title>users</title>
<ellipse fill="none" stroke="black" stroke-width="0" cx="1479.14" cy="-1002.39" rx="318.4" ry="469.54"/>
<polygon fill="#1d71b8" stroke="transparent" points="1256.14,-1272.39 1256.14,-1332.39 1702.14,-1332.39 1702.14,-1272.39 1256.14,-1272.39"/>
<polygon fill="none" stroke="#29235c" points="1256.14,-1272.39 1256.14,-1332.39 1702.14,-1332.39 1702.14,-1272.39 1256.14,-1272.39"/>
<text text-anchor="start" x="1377.78" y="-1293.59" font-family="Helvetica,sans-Serif" font-weight="bold" font-size="32.00" fill="#ffffff"> &#160;&#160;&#160;&#160;&#160;&#160;users &#160;&#160;&#160;&#160;&#160;&#160;</text>
<polygon fill="#e7e2dd" stroke="transparent" points="1256.14,-1212.39 1256.14,-1272.39 1702.14,-1272.39 1702.14,-1212.39 1256.14,-1212.39"/>
<polygon fill="none" stroke="#29235c" points="1256.14,-1212.39 1256.14,-1272.39 1702.14,-1272.39 1702.14,-1212.39 1256.14,-1212.39"/>
<text text-anchor="start" x="1267.14" y="-1233.59" font-family="Helvetica,sans-Serif" font-weight="bold" font-size="32.00" fill="#29235c">id</text>
<text text-anchor="start" x="1292.03" y="-1233.59" font-family="Helvetica,sans-Serif" font-size="32.00" fill="#29235c"> &#160;&#160;&#160;</text>
<text text-anchor="start" x="1657.36" y="-1233.59" font-family="Helvetica,sans-Serif" font-style="italic" font-size="32.00" fill="#29235c">int</text>
<polygon fill="#e7e2dd" stroke="transparent" points="1256.14,-1152.39 1256.14,-1212.39 1702.14,-1212.39 1702.14,-1152.39 1256.14,-1152.39"/>
<polygon fill="none" stroke="#29235c" points="1256.14,-1152.39 1256.14,-1212.39 1702.14,-1212.39 1702.14,-1152.39 1256.14,-1152.39"/>
<text text-anchor="start" x="1267.14" y="-1172.59" font-family="Helvetica,sans-Serif" font-size="32.00" fill="#29235c">name &#160;&#160;&#160;</text>
<text text-anchor="start" x="1545.38" y="-1173.59" font-family="Helvetica,sans-Serif" font-style="italic" font-size="32.00" fill="#29235c">varchar</text>
<text text-anchor="start" x="1652.05" y="-1173.59" font-family="Helvetica,sans-Serif" font-size="32.00" fill="#29235c"> </text>
<text text-anchor="start" x="1660.94" y="-1173.59" font-family="Helvetica,sans-Serif" font-weight="bold" font-size="32.00" fill="#29235c">(!)</text>
<polygon fill="#e7e2dd" stroke="transparent" points="1256.14,-1092.39 1256.14,-1152.39 1702.14,-1152.39 1702.14,-1092.39 1256.14,-1092.39"/>
<polygon fill="none" stroke="#29235c" points="1256.14,-1092.39 1256.14,-1152.39 1702.14,-1152.39 1702.14,-1092.39 1256.14,-1092.39"/>
<text text-anchor="start" x="1267.14" y="-1112.59" font-family="Helvetica,sans-Serif" font-size="32.00" fill="#29235c">email &#160;&#160;&#160;</text>
<text text-anchor="start" x="1545.38" y="-1113.59" font-family="Helvetica,sans-Serif" font-style="italic" font-size="32.00" fill="#29235c">varchar</text>
<text text-anchor="start" x="1652.05" y="-1113.59" font-family="Helvetica,sans-Serif" font-size="32.00" fill="#29235c"> </text>
<text text-anchor="start" x="1660.94" y="-1113.59" font-family="Helvetica,sans-Serif" font-weight="bold" font-size="32.00" fill="#29235c">(!)</text>
<polygon fill="#e7e2dd" stroke="transparent" points="1256.14,-1032.39 1256.14,-1092.39 1702.14,-1092.39 1702.14,-1032.39 1256.14,-1032.39"/>
<polygon fill="none" stroke="#29235c" points="1256.14,-1032.39 1256.14,-1092.39 1702.14,-1092.39 1702.14,-1032.39 1256.14,-1032.39"/>
<text text-anchor="start" x="1266.95" y="-1052.59" font-family="Helvetica,sans-Serif" font-size="32.00" fill="#29235c">email_verified_at &#160;&#160;&#160;</text>
<text text-anchor="start" x="1543.86" y="-1053.59" font-family="Helvetica,sans-Serif" font-style="italic" font-size="32.00" fill="#29235c">timestamp</text>
<polygon fill="#e7e2dd" stroke="transparent" points="1256.14,-972.39 1256.14,-1032.39 1702.14,-1032.39 1702.14,-972.39 1256.14,-972.39"/>
<polygon fill="none" stroke="#29235c" points="1256.14,-972.39 1256.14,-1032.39 1702.14,-1032.39 1702.14,-972.39 1256.14,-972.39"/>
<text text-anchor="start" x="1267.14" y="-992.59" font-family="Helvetica,sans-Serif" font-size="32.00" fill="#29235c">password &#160;&#160;&#160;</text>
<text text-anchor="start" x="1545.38" y="-993.59" font-family="Helvetica,sans-Serif" font-style="italic" font-size="32.00" fill="#29235c">varchar</text>
<text text-anchor="start" x="1652.05" y="-993.59" font-family="Helvetica,sans-Serif" font-size="32.00" fill="#29235c"> </text>
<text text-anchor="start" x="1660.94" y="-993.59" font-family="Helvetica,sans-Serif" font-weight="bold" font-size="32.00" fill="#29235c">(!)</text>
<polygon fill="#e7e2dd" stroke="transparent" points="1256.14,-912.39 1256.14,-972.39 1702.14,-972.39 1702.14,-912.39 1256.14,-912.39"/>
<polygon fill="none" stroke="#29235c" points="1256.14,-912.39 1256.14,-972.39 1702.14,-972.39 1702.14,-912.39 1256.14,-912.39"/>
<text text-anchor="start" x="1267.14" y="-932.59" font-family="Helvetica,sans-Serif" font-size="32.00" fill="#29235c">remember_token &#160;&#160;&#160;</text>
<text text-anchor="start" x="1584.47" y="-933.59" font-family="Helvetica,sans-Serif" font-style="italic" font-size="32.00" fill="#29235c">varchar</text>
<polygon fill="#e7e2dd" stroke="transparent" points="1256.14,-852.39 1256.14,-912.39 1702.14,-912.39 1702.14,-852.39 1256.14,-852.39"/>
<polygon fill="none" stroke="#29235c" points="1256.14,-852.39 1256.14,-912.39 1702.14,-912.39 1702.14,-852.39 1256.14,-852.39"/>
<text text-anchor="start" x="1267.14" y="-872.59" font-family="Helvetica,sans-Serif" font-size="32.00" fill="#29235c">custom_fields &#160;&#160;&#160;</text>
<text text-anchor="start" x="1632.46" y="-873.59" font-family="Helvetica,sans-Serif" font-style="italic" font-size="32.00" fill="#29235c">json</text>
<polygon fill="#e7e2dd" stroke="transparent" points="1256.14,-792.39 1256.14,-852.39 1702.14,-852.39 1702.14,-792.39 1256.14,-792.39"/>
<polygon fill="none" stroke="#29235c" points="1256.14,-792.39 1256.14,-852.39 1702.14,-852.39 1702.14,-792.39 1256.14,-792.39"/>
<text text-anchor="start" x="1267.14" y="-812.59" font-family="Helvetica,sans-Serif" font-size="32.00" fill="#29235c">avatar_url &#160;&#160;&#160;</text>
<text text-anchor="start" x="1584.47" y="-813.59" font-family="Helvetica,sans-Serif" font-style="italic" font-size="32.00" fill="#29235c">varchar</text>
<polygon fill="#e7e2dd" stroke="transparent" points="1256.14,-732.39 1256.14,-792.39 1702.14,-792.39 1702.14,-732.39 1256.14,-732.39"/>
<polygon fill="none" stroke="#29235c" points="1256.14,-732.39 1256.14,-792.39 1702.14,-792.39 1702.14,-732.39 1256.14,-732.39"/>
<text text-anchor="start" x="1267.14" y="-752.59" font-family="Helvetica,sans-Serif" font-size="32.00" fill="#29235c">created_at &#160;&#160;&#160;</text>
<text text-anchor="start" x="1543.58" y="-753.59" font-family="Helvetica,sans-Serif" font-style="italic" font-size="32.00" fill="#29235c">timestamp</text>
<polygon fill="#e7e2dd" stroke="transparent" points="1256.14,-672.39 1256.14,-732.39 1702.14,-732.39 1702.14,-672.39 1256.14,-672.39"/>
<polygon fill="none" stroke="#29235c" points="1256.14,-672.39 1256.14,-732.39 1702.14,-732.39 1702.14,-672.39 1256.14,-672.39"/>
<text text-anchor="start" x="1267.14" y="-692.59" font-family="Helvetica,sans-Serif" font-size="32.00" fill="#29235c">updated_at &#160;&#160;&#160;</text>
<text text-anchor="start" x="1543.58" y="-693.59" font-family="Helvetica,sans-Serif" font-style="italic" font-size="32.00" fill="#29235c">timestamp</text>
<polygon fill="none" stroke="#29235c" stroke-width="2" points="1255.14,-671.39 1255.14,-1333.39 1703.14,-1333.39 1703.14,-671.39 1255.14,-671.39"/>
</g>
<!-- statuses -->
<g id="statuses" class="node">
<title>statuses</title>
<ellipse fill="none" stroke="black" stroke-width="0" cx="1479.14" cy="-1662.39" rx="207.36" ry="172.57"/>
<polygon fill="#1d71b8" stroke="transparent" points="1335.14,-1722.39 1335.14,-1782.39 1624.14,-1782.39 1624.14,-1722.39 1335.14,-1722.39"/>
<polygon fill="none" stroke="#29235c" points="1335.14,-1722.39 1335.14,-1782.39 1624.14,-1782.39 1624.14,-1722.39 1335.14,-1722.39"/>
<text text-anchor="start" x="1357.82" y="-1743.59" font-family="Helvetica,sans-Serif" font-weight="bold" font-size="32.00" fill="#ffffff"> &#160;&#160;&#160;&#160;&#160;&#160;statuses &#160;&#160;&#160;&#160;&#160;&#160;</text>
<polygon fill="#e7e2dd" stroke="transparent" points="1335.14,-1662.39 1335.14,-1722.39 1624.14,-1722.39 1624.14,-1662.39 1335.14,-1662.39"/>
<polygon fill="none" stroke="#29235c" points="1335.14,-1662.39 1335.14,-1722.39 1624.14,-1722.39 1624.14,-1662.39 1335.14,-1662.39"/>
<text text-anchor="start" x="1346.14" y="-1683.59" font-family="Helvetica,sans-Serif" font-weight="bold" font-size="32.00" fill="#29235c">id</text>
<text text-anchor="start" x="1371.03" y="-1683.59" font-family="Helvetica,sans-Serif" font-size="32.00" fill="#29235c"> &#160;&#160;&#160;</text>
<text text-anchor="start" x="1579.36" y="-1683.59" font-family="Helvetica,sans-Serif" font-style="italic" font-size="32.00" fill="#29235c">int</text>
<polygon fill="#e7e2dd" stroke="transparent" points="1335.14,-1602.39 1335.14,-1662.39 1624.14,-1662.39 1624.14,-1602.39 1335.14,-1602.39"/>
<polygon fill="none" stroke="#29235c" points="1335.14,-1602.39 1335.14,-1662.39 1624.14,-1662.39 1624.14,-1602.39 1335.14,-1602.39"/>
<text text-anchor="start" x="1346.14" y="-1622.59" font-family="Helvetica,sans-Serif" font-size="32.00" fill="#29235c">nama &#160;&#160;&#160;</text>
<text text-anchor="start" x="1506.47" y="-1623.59" font-family="Helvetica,sans-Serif" font-style="italic" font-size="32.00" fill="#29235c">varchar</text>
<polygon fill="#e7e2dd" stroke="transparent" points="1335.14,-1542.39 1335.14,-1602.39 1624.14,-1602.39 1624.14,-1542.39 1335.14,-1542.39"/>
<polygon fill="none" stroke="#29235c" points="1335.14,-1542.39 1335.14,-1602.39 1624.14,-1602.39 1624.14,-1542.39 1335.14,-1542.39"/>
<text text-anchor="start" x="1345.75" y="-1562.59" font-family="Helvetica,sans-Serif" font-size="32.00" fill="#29235c">deskripsi &#160;&#160;&#160;</text>
<text text-anchor="start" x="1506.81" y="-1563.59" font-family="Helvetica,sans-Serif" font-style="italic" font-size="32.00" fill="#29235c">varchar</text>
<polygon fill="none" stroke="#29235c" stroke-width="2" points="1333.64,-1541.39 1333.64,-1783.39 1624.64,-1783.39 1624.64,-1541.39 1333.64,-1541.39"/>
</g>
<!-- scrum_tasks -->
<g id="scrum_tasks" class="node">
<title>scrum_tasks</title>
<ellipse fill="none" stroke="black" stroke-width="0" cx="864.73" cy="-912.39" rx="260.43" ry="596.6"/>
<polygon fill="#1d71b8" stroke="transparent" points="682.73,-1272.39 682.73,-1332.39 1046.73,-1332.39 1046.73,-1272.39 682.73,-1272.39"/>
<polygon fill="none" stroke="#29235c" points="682.73,-1272.39 682.73,-1332.39 1046.73,-1332.39 1046.73,-1272.39 682.73,-1272.39"/>
<text text-anchor="start" x="712.7" y="-1293.59" font-family="Helvetica,sans-Serif" font-weight="bold" font-size="32.00" fill="#ffffff"> &#160;&#160;&#160;&#160;&#160;&#160;scrum_tasks &#160;&#160;&#160;&#160;&#160;&#160;</text>
<polygon fill="#e7e2dd" stroke="transparent" points="682.73,-1212.39 682.73,-1272.39 1046.73,-1272.39 1046.73,-1212.39 682.73,-1212.39"/>
<polygon fill="none" stroke="#29235c" points="682.73,-1212.39 682.73,-1272.39 1046.73,-1272.39 1046.73,-1212.39 682.73,-1212.39"/>
<text text-anchor="start" x="693.73" y="-1233.59" font-family="Helvetica,sans-Serif" font-weight="bold" font-size="32.00" fill="#29235c">id</text>
<text text-anchor="start" x="718.62" y="-1233.59" font-family="Helvetica,sans-Serif" font-size="32.00" fill="#29235c"> &#160;&#160;&#160;</text>
<text text-anchor="start" x="1001.95" y="-1233.59" font-family="Helvetica,sans-Serif" font-style="italic" font-size="32.00" fill="#29235c">int</text>
<polygon fill="#e7e2dd" stroke="transparent" points="682.73,-1152.39 682.73,-1212.39 1046.73,-1212.39 1046.73,-1152.39 682.73,-1152.39"/>
<polygon fill="none" stroke="#29235c" points="682.73,-1152.39 682.73,-1212.39 1046.73,-1212.39 1046.73,-1152.39 682.73,-1152.39"/>
<text text-anchor="start" x="693.73" y="-1172.59" font-family="Helvetica,sans-Serif" font-size="32.00" fill="#29235c">nama &#160;&#160;&#160;</text>
<text text-anchor="start" x="929.06" y="-1173.59" font-family="Helvetica,sans-Serif" font-style="italic" font-size="32.00" fill="#29235c">varchar</text>
<polygon fill="#e7e2dd" stroke="transparent" points="682.73,-1092.39 682.73,-1152.39 1046.73,-1152.39 1046.73,-1092.39 682.73,-1092.39"/>
<polygon fill="none" stroke="#29235c" points="682.73,-1092.39 682.73,-1152.39 1046.73,-1152.39 1046.73,-1092.39 682.73,-1092.39"/>
<text text-anchor="start" x="693.73" y="-1112.59" font-family="Helvetica,sans-Serif" font-size="32.00" fill="#29235c">point &#160;&#160;&#160;</text>
<text text-anchor="start" x="1001.95" y="-1113.59" font-family="Helvetica,sans-Serif" font-style="italic" font-size="32.00" fill="#29235c">int</text>
<polygon fill="#e7e2dd" stroke="transparent" points="682.73,-1032.39 682.73,-1092.39 1046.73,-1092.39 1046.73,-1032.39 682.73,-1032.39"/>
<polygon fill="none" stroke="#29235c" points="682.73,-1032.39 682.73,-1092.39 1046.73,-1092.39 1046.73,-1032.39 682.73,-1032.39"/>
<text text-anchor="start" x="693.73" y="-1052.59" font-family="Helvetica,sans-Serif" font-size="32.00" fill="#29235c">deskripsi &#160;&#160;&#160;</text>
<text text-anchor="start" x="984.15" y="-1053.59" font-family="Helvetica,sans-Serif" font-style="italic" font-size="32.00" fill="#29235c">text</text>
<polygon fill="#e7e2dd" stroke="transparent" points="682.73,-972.39 682.73,-1032.39 1046.73,-1032.39 1046.73,-972.39 682.73,-972.39"/>
<polygon fill="none" stroke="#29235c" points="682.73,-972.39 682.73,-1032.39 1046.73,-1032.39 1046.73,-972.39 682.73,-972.39"/>
<text text-anchor="start" x="693.73" y="-992.59" font-family="Helvetica,sans-Serif" font-size="32.00" fill="#29235c">status_id &#160;&#160;&#160;</text>
<text text-anchor="start" x="1001.95" y="-993.59" font-family="Helvetica,sans-Serif" font-style="italic" font-size="32.00" fill="#29235c">int</text>
<polygon fill="#e7e2dd" stroke="transparent" points="682.73,-912.39 682.73,-972.39 1046.73,-972.39 1046.73,-912.39 682.73,-912.39"/>
<polygon fill="none" stroke="#29235c" points="682.73,-912.39 682.73,-972.39 1046.73,-972.39 1046.73,-912.39 682.73,-912.39"/>
<text text-anchor="start" x="693.73" y="-932.59" font-family="Helvetica,sans-Serif" font-size="32.00" fill="#29235c">prioritas &#160;&#160;&#160;</text>
<text text-anchor="start" x="921.96" y="-933.59" font-family="Helvetica,sans-Serif" font-style="italic" font-size="32.00" fill="#29235c">prioritas</text>
<polygon fill="#e7e2dd" stroke="transparent" points="682.73,-852.39 682.73,-912.39 1046.73,-912.39 1046.73,-852.39 682.73,-852.39"/>
<polygon fill="none" stroke="#29235c" points="682.73,-852.39 682.73,-912.39 1046.73,-912.39 1046.73,-852.39 682.73,-852.39"/>
<text text-anchor="start" x="693.73" y="-872.59" font-family="Helvetica,sans-Serif" font-size="32.00" fill="#29235c">pic &#160;&#160;&#160;</text>
<text text-anchor="start" x="1001.95" y="-873.59" font-family="Helvetica,sans-Serif" font-style="italic" font-size="32.00" fill="#29235c">int</text>
<polygon fill="#e7e2dd" stroke="transparent" points="682.73,-792.39 682.73,-852.39 1046.73,-852.39 1046.73,-792.39 682.73,-792.39"/>
<polygon fill="none" stroke="#29235c" points="682.73,-792.39 682.73,-852.39 1046.73,-852.39 1046.73,-792.39 682.73,-792.39"/>
<text text-anchor="start" x="693.73" y="-812.59" font-family="Helvetica,sans-Serif" font-size="32.00" fill="#29235c">dibuat_oleh &#160;&#160;&#160;</text>
<text text-anchor="start" x="1001.95" y="-813.59" font-family="Helvetica,sans-Serif" font-style="italic" font-size="32.00" fill="#29235c">int</text>
<polygon fill="#e7e2dd" stroke="transparent" points="682.73,-732.39 682.73,-792.39 1046.73,-792.39 1046.73,-732.39 682.73,-732.39"/>
<polygon fill="none" stroke="#29235c" points="682.73,-732.39 682.73,-792.39 1046.73,-792.39 1046.73,-732.39 682.73,-732.39"/>
<text text-anchor="start" x="693.73" y="-752.59" font-family="Helvetica,sans-Serif" font-size="32.00" fill="#29235c">project_id &#160;&#160;&#160;</text>
<text text-anchor="start" x="1001.95" y="-753.59" font-family="Helvetica,sans-Serif" font-style="italic" font-size="32.00" fill="#29235c">int</text>
<polygon fill="#e7e2dd" stroke="transparent" points="682.73,-672.39 682.73,-732.39 1046.73,-732.39 1046.73,-672.39 682.73,-672.39"/>
<polygon fill="none" stroke="#29235c" points="682.73,-672.39 682.73,-732.39 1046.73,-732.39 1046.73,-672.39 682.73,-672.39"/>
<text text-anchor="start" x="693.73" y="-692.59" font-family="Helvetica,sans-Serif" font-size="32.00" fill="#29235c">tanggal_mulai &#160;&#160;&#160;</text>
<text text-anchor="start" x="973.47" y="-693.59" font-family="Helvetica,sans-Serif" font-style="italic" font-size="32.00" fill="#29235c">date</text>
<polygon fill="#e7e2dd" stroke="transparent" points="682.73,-612.39 682.73,-672.39 1046.73,-672.39 1046.73,-612.39 682.73,-612.39"/>
<polygon fill="none" stroke="#29235c" points="682.73,-612.39 682.73,-672.39 1046.73,-672.39 1046.73,-612.39 682.73,-612.39"/>
<text text-anchor="start" x="693.73" y="-632.59" font-family="Helvetica,sans-Serif" font-size="32.00" fill="#29235c">tanggal_selesai &#160;&#160;&#160;</text>
<text text-anchor="start" x="973.47" y="-633.59" font-family="Helvetica,sans-Serif" font-style="italic" font-size="32.00" fill="#29235c">date</text>
<polygon fill="#e7e2dd" stroke="transparent" points="682.73,-552.39 682.73,-612.39 1046.73,-612.39 1046.73,-552.39 682.73,-552.39"/>
<polygon fill="none" stroke="#29235c" points="682.73,-552.39 682.73,-612.39 1046.73,-612.39 1046.73,-552.39 682.73,-552.39"/>
<text text-anchor="start" x="693.73" y="-572.59" font-family="Helvetica,sans-Serif" font-size="32.00" fill="#29235c">created_at &#160;&#160;&#160;</text>
<text text-anchor="start" x="888.17" y="-573.59" font-family="Helvetica,sans-Serif" font-style="italic" font-size="32.00" fill="#29235c">timestamp</text>
<polygon fill="#e7e2dd" stroke="transparent" points="682.73,-492.39 682.73,-552.39 1046.73,-552.39 1046.73,-492.39 682.73,-492.39"/>
<polygon fill="none" stroke="#29235c" points="682.73,-492.39 682.73,-552.39 1046.73,-552.39 1046.73,-492.39 682.73,-492.39"/>
<text text-anchor="start" x="693.4" y="-512.59" font-family="Helvetica,sans-Serif" font-size="32.00" fill="#29235c">updated_at &#160;&#160;&#160;</text>
<text text-anchor="start" x="888.45" y="-513.59" font-family="Helvetica,sans-Serif" font-style="italic" font-size="32.00" fill="#29235c">timestamp</text>
<polygon fill="none" stroke="#29235c" stroke-width="2" points="681.73,-491.39 681.73,-1333.39 1047.73,-1333.39 1047.73,-491.39 681.73,-491.39"/>
</g>
<!-- scrum_tasks&#45;&gt;projects -->
<!-- scrum_tasks&#45;&gt;projects -->
<g id="edge8" class="edge">
<title>scrum_tasks:e&#45;&gt;projects:w</title>
<path fill="none" stroke="#29235c" stroke-width="3" d="M1047.73,-762.39C1165.27,-762.39 1097.57,-622.38 1160.94,-523.39 1214.05,-440.44 1206.76,-353.54 1298.07,-347.7"/>
<polygon fill="#29235c" stroke="#29235c" stroke-width="3" points="1298.26,-351.19 1308.14,-347.39 1298.04,-344.2 1298.26,-351.19"/>
<text text-anchor="middle" x="1299.25" y="-318.59" font-family="Helvetica,sans-Serif" font-size="32.00" fill="#29235c">1</text>
<text text-anchor="middle" x="1053.95" y="-733.59" font-family="Helvetica,sans-Serif" font-size="32.00" fill="#29235c">*</text>
</g>
<!-- scrum_tasks&#45;&gt;users -->
<!-- scrum_tasks&#45;&gt;users -->
<g id="edge4" class="edge">
<title>scrum_tasks:e&#45;&gt;users:w</title>
<path fill="none" stroke="#29235c" stroke-width="3" d="M1047.73,-882.39C1228.87,-882.39 1076.53,-1228.81 1244.97,-1242"/>
<polygon fill="#29235c" stroke="#29235c" stroke-width="3" points="1245.02,-1245.5 1255.14,-1242.39 1245.28,-1238.51 1245.02,-1245.5"/>
<text text-anchor="middle" x="1246.25" y="-1251.99" font-family="Helvetica,sans-Serif" font-size="32.00" fill="#29235c">1</text>
<text text-anchor="middle" x="1053.95" y="-853.59" font-family="Helvetica,sans-Serif" font-size="32.00" fill="#29235c">*</text>
</g>
<!-- scrum_tasks&#45;&gt;users -->
<!-- scrum_tasks&#45;&gt;users -->
<g id="edge6" class="edge">
<title>scrum_tasks:e&#45;&gt;users:w</title>
<path fill="none" stroke="#29235c" stroke-width="3" d="M1047.73,-822.39C1252.46,-822.39 1053.78,-1228.56 1245.11,-1242.04"/>
<polygon fill="#29235c" stroke="#29235c" stroke-width="3" points="1245.03,-1245.54 1255.14,-1242.39 1245.27,-1238.55 1245.03,-1245.54"/>
<text text-anchor="middle" x="1246.25" y="-1213.59" font-family="Helvetica,sans-Serif" font-size="32.00" fill="#29235c">1</text>
<text text-anchor="middle" x="1053.95" y="-793.59" font-family="Helvetica,sans-Serif" font-size="32.00" fill="#29235c">*</text>
</g>
<!-- scrum_tasks&#45;&gt;statuses -->
<!-- scrum_tasks&#45;&gt;statuses -->
<g id="edge2" class="edge">
<title>scrum_tasks:e&#45;&gt;statuses:w</title>
<path fill="none" stroke="#29235c" stroke-width="3" d="M1047.73,-1002.39C1266.48,-1002.39 1063.89,-1285.34 1160.94,-1481.39 1213.25,-1587.04 1212.88,-1686.59 1324.13,-1692.14"/>
<polygon fill="#29235c" stroke="#29235c" stroke-width="3" points="1324.06,-1695.64 1334.14,-1692.39 1324.23,-1688.64 1324.06,-1695.64"/>
<text text-anchor="middle" x="1325.25" y="-1701.99" font-family="Helvetica,sans-Serif" font-size="32.00" fill="#29235c">1</text>
<text text-anchor="middle" x="1053.95" y="-1011.99" font-family="Helvetica,sans-Serif" font-size="32.00" fill="#29235c">*</text>
</g>
<!-- scrum_comments -->
<g id="scrum_comments" class="node">
<title>scrum_comments</title>
<ellipse fill="none" stroke="black" stroke-width="0" cx="284.26" cy="-1272.39" rx="284.01" ry="87.86"/>
<polygon fill="#1d71b8" stroke="transparent" points="85.26,-1272.39 85.26,-1332.39 483.26,-1332.39 483.26,-1272.39 85.26,-1272.39"/>
<polygon fill="none" stroke="#29235c" points="85.26,-1272.39 85.26,-1332.39 483.26,-1332.39 483.26,-1272.39 85.26,-1272.39"/>
<text text-anchor="start" x="95.78" y="-1293.59" font-family="Helvetica,sans-Serif" font-weight="bold" font-size="32.00" fill="#ffffff"> &#160;&#160;&#160;&#160;&#160;&#160;scrum_comments &#160;&#160;&#160;&#160;&#160;&#160;</text>
<polygon fill="#e7e2dd" stroke="transparent" points="85.26,-1212.39 85.26,-1272.39 483.26,-1272.39 483.26,-1212.39 85.26,-1212.39"/>
<polygon fill="none" stroke="#29235c" points="85.26,-1212.39 85.26,-1272.39 483.26,-1272.39 483.26,-1212.39 85.26,-1212.39"/>
<text text-anchor="start" x="96.26" y="-1232.59" font-family="Helvetica,sans-Serif" font-size="32.00" fill="#29235c">task_id &#160;&#160;&#160;</text>
<text text-anchor="start" x="438.47" y="-1233.59" font-family="Helvetica,sans-Serif" font-style="italic" font-size="32.00" fill="#29235c">int</text>
<polygon fill="none" stroke="#29235c" stroke-width="2" points="84.26,-1211.39 84.26,-1333.39 484.26,-1333.39 484.26,-1211.39 84.26,-1211.39"/>
</g>
<!-- scrum_comments&#45;&gt;scrum_tasks -->
<!-- scrum_comments&#45;&gt;scrum_tasks -->
<g id="edge10" class="edge">
<title>scrum_comments:e&#45;&gt;scrum_tasks:w</title>
<path fill="none" stroke="#29235c" stroke-width="3" d="M484.26,-1242.39C568.42,-1242.39 592.05,-1242.39 671.25,-1242.39"/>
<polygon fill="#29235c" stroke="#29235c" stroke-width="3" points="671.73,-1245.89 681.73,-1242.39 671.73,-1238.89 671.73,-1245.89"/>
<text text-anchor="middle" x="672.83" y="-1251.99" font-family="Helvetica,sans-Serif" font-size="32.00" fill="#29235c">1</text>
<text text-anchor="middle" x="478.03" y="-1251.99" font-family="Helvetica,sans-Serif" font-size="32.00" fill="#29235c">*</text>
</g>
</g>
</svg>
