<?xml version="1.0" encoding="UTF-8" standalone="no"?>
<!DOCTYPE svg PUBLIC "-//W3C//DTD SVG 1.1//EN"
 "http://www.w3.org/Graphics/SVG/1.1/DTD/svg11.dtd">
<!-- Generated by graphviz version 2.47.0 (20210316.0004)
 -->
<!-- Title: dbml Pages: 1 -->
<svg width="1756pt" height="2013pt"
 viewBox="0.00 0.00 1755.84 2012.77" xmlns="http://www.w3.org/2000/svg" xmlns:xlink="http://www.w3.org/1999/xlink">
<g id="graph0" class="graph" transform="scale(1 1) rotate(0) translate(4 2008.77)">
<title>dbml</title>
<!-- projects -->
<g id="projects" class="node">
<title>projects</title>
<ellipse fill="none" stroke="black" stroke-width="0" cx="1429.65" cy="-342.24" rx="260.43" ry="342.48"/>
<polygon fill="#1d71b8" stroke="transparent" points="1247.65,-522.24 1247.65,-582.24 1611.65,-582.24 1611.65,-522.24 1247.65,-522.24"/>
<polygon fill="none" stroke="#29235c" points="1247.65,-522.24 1247.65,-582.24 1611.65,-582.24 1611.65,-522.24 1247.65,-522.24"/>
<text text-anchor="start" x="1311.39" y="-543.44" font-family="Helvetica,sans-Serif" font-weight="bold" font-size="32.00" fill="#ffffff"> &#160;&#160;&#160;&#160;&#160;&#160;projects &#160;&#160;&#160;&#160;&#160;&#160;</text>
<polygon fill="#e7e2dd" stroke="transparent" points="1247.65,-462.24 1247.65,-522.24 1611.65,-522.24 1611.65,-462.24 1247.65,-462.24"/>
<polygon fill="none" stroke="#29235c" points="1247.65,-462.24 1247.65,-522.24 1611.65,-522.24 1611.65,-462.24 1247.65,-462.24"/>
<text text-anchor="start" x="1258.65" y="-483.44" font-family="Helvetica,sans-Serif" font-weight="bold" font-size="32.00" fill="#29235c">id</text>
<text text-anchor="start" x="1283.53" y="-483.44" font-family="Helvetica,sans-Serif" font-size="32.00" fill="#29235c"> &#160;&#160;&#160;</text>
<text text-anchor="start" x="1566.86" y="-483.44" font-family="Helvetica,sans-Serif" font-style="italic" font-size="32.00" fill="#29235c">int</text>
<polygon fill="#e7e2dd" stroke="transparent" points="1247.65,-402.24 1247.65,-462.24 1611.65,-462.24 1611.65,-402.24 1247.65,-402.24"/>
<polygon fill="none" stroke="#29235c" points="1247.65,-402.24 1247.65,-462.24 1611.65,-462.24 1611.65,-402.24 1247.65,-402.24"/>
<text text-anchor="start" x="1258.65" y="-422.44" font-family="Helvetica,sans-Serif" font-size="32.00" fill="#29235c">nama &#160;&#160;&#160;</text>
<text text-anchor="start" x="1454.88" y="-423.44" font-family="Helvetica,sans-Serif" font-style="italic" font-size="32.00" fill="#29235c">varchar</text>
<text text-anchor="start" x="1561.55" y="-423.44" font-family="Helvetica,sans-Serif" font-size="32.00" fill="#29235c"> </text>
<text text-anchor="start" x="1570.45" y="-423.44" font-family="Helvetica,sans-Serif" font-weight="bold" font-size="32.00" fill="#29235c">(!)</text>
<polygon fill="#e7e2dd" stroke="transparent" points="1247.65,-342.24 1247.65,-402.24 1611.65,-402.24 1611.65,-342.24 1247.65,-342.24"/>
<polygon fill="none" stroke="#29235c" points="1247.65,-342.24 1247.65,-402.24 1611.65,-402.24 1611.65,-342.24 1247.65,-342.24"/>
<text text-anchor="start" x="1258.65" y="-362.44" font-family="Helvetica,sans-Serif" font-size="32.00" fill="#29235c">deskripsi &#160;&#160;&#160;</text>
<text text-anchor="start" x="1549.07" y="-363.44" font-family="Helvetica,sans-Serif" font-style="italic" font-size="32.00" fill="#29235c">text</text>
<polygon fill="#e7e2dd" stroke="transparent" points="1247.65,-282.24 1247.65,-342.24 1611.65,-342.24 1611.65,-282.24 1247.65,-282.24"/>
<polygon fill="none" stroke="#29235c" points="1247.65,-282.24 1247.65,-342.24 1611.65,-342.24 1611.65,-282.24 1247.65,-282.24"/>
<text text-anchor="start" x="1258.65" y="-302.44" font-family="Helvetica,sans-Serif" font-size="32.00" fill="#29235c">tanggal_mulai &#160;&#160;&#160;</text>
<text text-anchor="start" x="1538.39" y="-303.44" font-family="Helvetica,sans-Serif" font-style="italic" font-size="32.00" fill="#29235c">date</text>
<polygon fill="#e7e2dd" stroke="transparent" points="1247.65,-222.24 1247.65,-282.24 1611.65,-282.24 1611.65,-222.24 1247.65,-222.24"/>
<polygon fill="none" stroke="#29235c" points="1247.65,-222.24 1247.65,-282.24 1611.65,-282.24 1611.65,-222.24 1247.65,-222.24"/>
<text text-anchor="start" x="1258.65" y="-242.44" font-family="Helvetica,sans-Serif" font-size="32.00" fill="#29235c">tanggal_selesai &#160;&#160;&#160;</text>
<text text-anchor="start" x="1538.39" y="-243.44" font-family="Helvetica,sans-Serif" font-style="italic" font-size="32.00" fill="#29235c">date</text>
<polygon fill="#e7e2dd" stroke="transparent" points="1247.65,-162.24 1247.65,-222.24 1611.65,-222.24 1611.65,-162.24 1247.65,-162.24"/>
<polygon fill="none" stroke="#29235c" points="1247.65,-162.24 1247.65,-222.24 1611.65,-222.24 1611.65,-162.24 1247.65,-162.24"/>
<text text-anchor="start" x="1258.65" y="-182.44" font-family="Helvetica,sans-Serif" font-size="32.00" fill="#29235c">created_at &#160;&#160;&#160;</text>
<text text-anchor="start" x="1453.09" y="-183.44" font-family="Helvetica,sans-Serif" font-style="italic" font-size="32.00" fill="#29235c">timestamp</text>
<polygon fill="#e7e2dd" stroke="transparent" points="1247.65,-102.24 1247.65,-162.24 1611.65,-162.24 1611.65,-102.24 1247.65,-102.24"/>
<polygon fill="none" stroke="#29235c" points="1247.65,-102.24 1247.65,-162.24 1611.65,-162.24 1611.65,-102.24 1247.65,-102.24"/>
<text text-anchor="start" x="1258.31" y="-122.44" font-family="Helvetica,sans-Serif" font-size="32.00" fill="#29235c">updated_at &#160;&#160;&#160;</text>
<text text-anchor="start" x="1453.37" y="-123.44" font-family="Helvetica,sans-Serif" font-style="italic" font-size="32.00" fill="#29235c">timestamp</text>
<polygon fill="none" stroke="#29235c" stroke-width="2" points="1246.65,-101.24 1246.65,-583.24 1612.65,-583.24 1612.65,-101.24 1246.65,-101.24"/>
</g>
<!-- users -->
<g id="users" class="node">
<title>users</title>
<ellipse fill="none" stroke="black" stroke-width="0" cx="1429.65" cy="-1172.24" rx="318.4" ry="469.54"/>
<polygon fill="#1d71b8" stroke="transparent" points="1206.65,-1442.24 1206.65,-1502.24 1652.65,-1502.24 1652.65,-1442.24 1206.65,-1442.24"/>
<polygon fill="none" stroke="#29235c" points="1206.65,-1442.24 1206.65,-1502.24 1652.65,-1502.24 1652.65,-1442.24 1206.65,-1442.24"/>
<text text-anchor="start" x="1328.28" y="-1463.44" font-family="Helvetica,sans-Serif" font-weight="bold" font-size="32.00" fill="#ffffff"> &#160;&#160;&#160;&#160;&#160;&#160;users &#160;&#160;&#160;&#160;&#160;&#160;</text>
<polygon fill="#e7e2dd" stroke="transparent" points="1206.65,-1382.24 1206.65,-1442.24 1652.65,-1442.24 1652.65,-1382.24 1206.65,-1382.24"/>
<polygon fill="none" stroke="#29235c" points="1206.65,-1382.24 1206.65,-1442.24 1652.65,-1442.24 1652.65,-1382.24 1206.65,-1382.24"/>
<text text-anchor="start" x="1217.65" y="-1403.44" font-family="Helvetica,sans-Serif" font-weight="bold" font-size="32.00" fill="#29235c">id</text>
<text text-anchor="start" x="1242.53" y="-1403.44" font-family="Helvetica,sans-Serif" font-size="32.00" fill="#29235c"> &#160;&#160;&#160;</text>
<text text-anchor="start" x="1607.86" y="-1403.44" font-family="Helvetica,sans-Serif" font-style="italic" font-size="32.00" fill="#29235c">int</text>
<polygon fill="#e7e2dd" stroke="transparent" points="1206.65,-1322.24 1206.65,-1382.24 1652.65,-1382.24 1652.65,-1322.24 1206.65,-1322.24"/>
<polygon fill="none" stroke="#29235c" points="1206.65,-1322.24 1206.65,-1382.24 1652.65,-1382.24 1652.65,-1322.24 1206.65,-1322.24"/>
<text text-anchor="start" x="1217.65" y="-1342.44" font-family="Helvetica,sans-Serif" font-size="32.00" fill="#29235c">name &#160;&#160;&#160;</text>
<text text-anchor="start" x="1495.88" y="-1343.44" font-family="Helvetica,sans-Serif" font-style="italic" font-size="32.00" fill="#29235c">varchar</text>
<text text-anchor="start" x="1602.55" y="-1343.44" font-family="Helvetica,sans-Serif" font-size="32.00" fill="#29235c"> </text>
<text text-anchor="start" x="1611.45" y="-1343.44" font-family="Helvetica,sans-Serif" font-weight="bold" font-size="32.00" fill="#29235c">(!)</text>
<polygon fill="#e7e2dd" stroke="transparent" points="1206.65,-1262.24 1206.65,-1322.24 1652.65,-1322.24 1652.65,-1262.24 1206.65,-1262.24"/>
<polygon fill="none" stroke="#29235c" points="1206.65,-1262.24 1206.65,-1322.24 1652.65,-1322.24 1652.65,-1262.24 1206.65,-1262.24"/>
<text text-anchor="start" x="1217.65" y="-1282.44" font-family="Helvetica,sans-Serif" font-size="32.00" fill="#29235c">email &#160;&#160;&#160;</text>
<text text-anchor="start" x="1495.88" y="-1283.44" font-family="Helvetica,sans-Serif" font-style="italic" font-size="32.00" fill="#29235c">varchar</text>
<text text-anchor="start" x="1602.55" y="-1283.44" font-family="Helvetica,sans-Serif" font-size="32.00" fill="#29235c"> </text>
<text text-anchor="start" x="1611.45" y="-1283.44" font-family="Helvetica,sans-Serif" font-weight="bold" font-size="32.00" fill="#29235c">(!)</text>
<polygon fill="#e7e2dd" stroke="transparent" points="1206.65,-1202.24 1206.65,-1262.24 1652.65,-1262.24 1652.65,-1202.24 1206.65,-1202.24"/>
<polygon fill="none" stroke="#29235c" points="1206.65,-1202.24 1206.65,-1262.24 1652.65,-1262.24 1652.65,-1202.24 1206.65,-1202.24"/>
<text text-anchor="start" x="1217.46" y="-1222.44" font-family="Helvetica,sans-Serif" font-size="32.00" fill="#29235c">email_verified_at &#160;&#160;&#160;</text>
<text text-anchor="start" x="1494.37" y="-1223.44" font-family="Helvetica,sans-Serif" font-style="italic" font-size="32.00" fill="#29235c">timestamp</text>
<polygon fill="#e7e2dd" stroke="transparent" points="1206.65,-1142.24 1206.65,-1202.24 1652.65,-1202.24 1652.65,-1142.24 1206.65,-1142.24"/>
<polygon fill="none" stroke="#29235c" points="1206.65,-1142.24 1206.65,-1202.24 1652.65,-1202.24 1652.65,-1142.24 1206.65,-1142.24"/>
<text text-anchor="start" x="1217.65" y="-1162.44" font-family="Helvetica,sans-Serif" font-size="32.00" fill="#29235c">password &#160;&#160;&#160;</text>
<text text-anchor="start" x="1495.88" y="-1163.44" font-family="Helvetica,sans-Serif" font-style="italic" font-size="32.00" fill="#29235c">varchar</text>
<text text-anchor="start" x="1602.55" y="-1163.44" font-family="Helvetica,sans-Serif" font-size="32.00" fill="#29235c"> </text>
<text text-anchor="start" x="1611.45" y="-1163.44" font-family="Helvetica,sans-Serif" font-weight="bold" font-size="32.00" fill="#29235c">(!)</text>
<polygon fill="#e7e2dd" stroke="transparent" points="1206.65,-1082.24 1206.65,-1142.24 1652.65,-1142.24 1652.65,-1082.24 1206.65,-1082.24"/>
<polygon fill="none" stroke="#29235c" points="1206.65,-1082.24 1206.65,-1142.24 1652.65,-1142.24 1652.65,-1082.24 1206.65,-1082.24"/>
<text text-anchor="start" x="1217.65" y="-1102.44" font-family="Helvetica,sans-Serif" font-size="32.00" fill="#29235c">remember_token &#160;&#160;&#160;</text>
<text text-anchor="start" x="1534.97" y="-1103.44" font-family="Helvetica,sans-Serif" font-style="italic" font-size="32.00" fill="#29235c">varchar</text>
<polygon fill="#e7e2dd" stroke="transparent" points="1206.65,-1022.24 1206.65,-1082.24 1652.65,-1082.24 1652.65,-1022.24 1206.65,-1022.24"/>
<polygon fill="none" stroke="#29235c" points="1206.65,-1022.24 1206.65,-1082.24 1652.65,-1082.24 1652.65,-1022.24 1206.65,-1022.24"/>
<text text-anchor="start" x="1217.65" y="-1042.44" font-family="Helvetica,sans-Serif" font-size="32.00" fill="#29235c">custom_fields &#160;&#160;&#160;</text>
<text text-anchor="start" x="1582.97" y="-1043.44" font-family="Helvetica,sans-Serif" font-style="italic" font-size="32.00" fill="#29235c">json</text>
<polygon fill="#e7e2dd" stroke="transparent" points="1206.65,-962.24 1206.65,-1022.24 1652.65,-1022.24 1652.65,-962.24 1206.65,-962.24"/>
<polygon fill="none" stroke="#29235c" points="1206.65,-962.24 1206.65,-1022.24 1652.65,-1022.24 1652.65,-962.24 1206.65,-962.24"/>
<text text-anchor="start" x="1217.65" y="-982.44" font-family="Helvetica,sans-Serif" font-size="32.00" fill="#29235c">avatar_url &#160;&#160;&#160;</text>
<text text-anchor="start" x="1534.97" y="-983.44" font-family="Helvetica,sans-Serif" font-style="italic" font-size="32.00" fill="#29235c">varchar</text>
<polygon fill="#e7e2dd" stroke="transparent" points="1206.65,-902.24 1206.65,-962.24 1652.65,-962.24 1652.65,-902.24 1206.65,-902.24"/>
<polygon fill="none" stroke="#29235c" points="1206.65,-902.24 1206.65,-962.24 1652.65,-962.24 1652.65,-902.24 1206.65,-902.24"/>
<text text-anchor="start" x="1217.65" y="-922.44" font-family="Helvetica,sans-Serif" font-size="32.00" fill="#29235c">created_at &#160;&#160;&#160;</text>
<text text-anchor="start" x="1494.09" y="-923.44" font-family="Helvetica,sans-Serif" font-style="italic" font-size="32.00" fill="#29235c">timestamp</text>
<polygon fill="#e7e2dd" stroke="transparent" points="1206.65,-842.24 1206.65,-902.24 1652.65,-902.24 1652.65,-842.24 1206.65,-842.24"/>
<polygon fill="none" stroke="#29235c" points="1206.65,-842.24 1206.65,-902.24 1652.65,-902.24 1652.65,-842.24 1206.65,-842.24"/>
<text text-anchor="start" x="1217.65" y="-862.44" font-family="Helvetica,sans-Serif" font-size="32.00" fill="#29235c">updated_at &#160;&#160;&#160;</text>
<text text-anchor="start" x="1494.09" y="-863.44" font-family="Helvetica,sans-Serif" font-style="italic" font-size="32.00" fill="#29235c">timestamp</text>
<polygon fill="none" stroke="#29235c" stroke-width="2" points="1205.65,-841.24 1205.65,-1503.24 1653.65,-1503.24 1653.65,-841.24 1205.65,-841.24"/>
</g>
<!-- statuses -->
<g id="statuses" class="node">
<title>statuses</title>
<ellipse fill="none" stroke="black" stroke-width="0" cx="1429.65" cy="-1832.24" rx="207.36" ry="172.57"/>
<polygon fill="#1d71b8" stroke="transparent" points="1285.65,-1892.24 1285.65,-1952.24 1574.65,-1952.24 1574.65,-1892.24 1285.65,-1892.24"/>
<polygon fill="none" stroke="#29235c" points="1285.65,-1892.24 1285.65,-1952.24 1574.65,-1952.24 1574.65,-1892.24 1285.65,-1892.24"/>
<text text-anchor="start" x="1308.32" y="-1913.44" font-family="Helvetica,sans-Serif" font-weight="bold" font-size="32.00" fill="#ffffff"> &#160;&#160;&#160;&#160;&#160;&#160;statuses &#160;&#160;&#160;&#160;&#160;&#160;</text>
<polygon fill="#e7e2dd" stroke="transparent" points="1285.65,-1832.24 1285.65,-1892.24 1574.65,-1892.24 1574.65,-1832.24 1285.65,-1832.24"/>
<polygon fill="none" stroke="#29235c" points="1285.65,-1832.24 1285.65,-1892.24 1574.65,-1892.24 1574.65,-1832.24 1285.65,-1832.24"/>
<text text-anchor="start" x="1296.65" y="-1853.44" font-family="Helvetica,sans-Serif" font-weight="bold" font-size="32.00" fill="#29235c">id</text>
<text text-anchor="start" x="1321.53" y="-1853.44" font-family="Helvetica,sans-Serif" font-size="32.00" fill="#29235c"> &#160;&#160;&#160;</text>
<text text-anchor="start" x="1529.86" y="-1853.44" font-family="Helvetica,sans-Serif" font-style="italic" font-size="32.00" fill="#29235c">int</text>
<polygon fill="#e7e2dd" stroke="transparent" points="1285.65,-1772.24 1285.65,-1832.24 1574.65,-1832.24 1574.65,-1772.24 1285.65,-1772.24"/>
<polygon fill="none" stroke="#29235c" points="1285.65,-1772.24 1285.65,-1832.24 1574.65,-1832.24 1574.65,-1772.24 1285.65,-1772.24"/>
<text text-anchor="start" x="1296.65" y="-1792.44" font-family="Helvetica,sans-Serif" font-size="32.00" fill="#29235c">nama &#160;&#160;&#160;</text>
<text text-anchor="start" x="1456.97" y="-1793.44" font-family="Helvetica,sans-Serif" font-style="italic" font-size="32.00" fill="#29235c">varchar</text>
<polygon fill="#e7e2dd" stroke="transparent" points="1285.65,-1712.24 1285.65,-1772.24 1574.65,-1772.24 1574.65,-1712.24 1285.65,-1712.24"/>
<polygon fill="none" stroke="#29235c" points="1285.65,-1712.24 1285.65,-1772.24 1574.65,-1772.24 1574.65,-1712.24 1285.65,-1712.24"/>
<text text-anchor="start" x="1296.25" y="-1732.44" font-family="Helvetica,sans-Serif" font-size="32.00" fill="#29235c">deskripsi &#160;&#160;&#160;</text>
<text text-anchor="start" x="1457.31" y="-1733.44" font-family="Helvetica,sans-Serif" font-style="italic" font-size="32.00" fill="#29235c">varchar</text>
<polygon fill="none" stroke="#29235c" stroke-width="2" points="1284.15,-1711.24 1284.15,-1953.24 1575.15,-1953.24 1575.15,-1711.24 1284.15,-1711.24"/>
</g>
<!-- scrum_tugas -->
<g id="scrum_tugas" class="node">
<title>scrum_tugas</title>
<ellipse fill="none" stroke="black" stroke-width="0" cx="839.98" cy="-1202.24" rx="235.43" ry="427.19"/>
<polygon fill="#1d71b8" stroke="transparent" points="675.98,-1442.24 675.98,-1502.24 1004.98,-1502.24 1004.98,-1442.24 675.98,-1442.24"/>
<polygon fill="none" stroke="#29235c" points="675.98,-1442.24 675.98,-1502.24 1004.98,-1502.24 1004.98,-1442.24 675.98,-1442.24"/>
<text text-anchor="start" x="686.66" y="-1463.44" font-family="Helvetica,sans-Serif" font-weight="bold" font-size="32.00" fill="#ffffff"> &#160;&#160;&#160;&#160;&#160;&#160;scrum_tugas &#160;&#160;&#160;&#160;&#160;&#160;</text>
<polygon fill="#e7e2dd" stroke="transparent" points="675.98,-1382.24 675.98,-1442.24 1004.98,-1442.24 1004.98,-1382.24 675.98,-1382.24"/>
<polygon fill="none" stroke="#29235c" points="675.98,-1382.24 675.98,-1442.24 1004.98,-1442.24 1004.98,-1382.24 675.98,-1382.24"/>
<text text-anchor="start" x="686.98" y="-1403.44" font-family="Helvetica,sans-Serif" font-weight="bold" font-size="32.00" fill="#29235c">id</text>
<text text-anchor="start" x="711.87" y="-1403.44" font-family="Helvetica,sans-Serif" font-size="32.00" fill="#29235c"> &#160;&#160;&#160;</text>
<text text-anchor="start" x="960.2" y="-1403.44" font-family="Helvetica,sans-Serif" font-style="italic" font-size="32.00" fill="#29235c">int</text>
<polygon fill="#e7e2dd" stroke="transparent" points="675.98,-1322.24 675.98,-1382.24 1004.98,-1382.24 1004.98,-1322.24 675.98,-1322.24"/>
<polygon fill="none" stroke="#29235c" points="675.98,-1322.24 675.98,-1382.24 1004.98,-1382.24 1004.98,-1322.24 675.98,-1322.24"/>
<text text-anchor="start" x="686.98" y="-1342.44" font-family="Helvetica,sans-Serif" font-size="32.00" fill="#29235c">status_id &#160;&#160;&#160;</text>
<text text-anchor="start" x="960.2" y="-1343.44" font-family="Helvetica,sans-Serif" font-style="italic" font-size="32.00" fill="#29235c">int</text>
<polygon fill="#e7e2dd" stroke="transparent" points="675.98,-1262.24 675.98,-1322.24 1004.98,-1322.24 1004.98,-1262.24 675.98,-1262.24"/>
<polygon fill="none" stroke="#29235c" points="675.98,-1262.24 675.98,-1322.24 1004.98,-1322.24 1004.98,-1262.24 675.98,-1262.24"/>
<text text-anchor="start" x="686.98" y="-1282.44" font-family="Helvetica,sans-Serif" font-size="32.00" fill="#29235c">user_id &#160;&#160;&#160;</text>
<text text-anchor="start" x="960.2" y="-1283.44" font-family="Helvetica,sans-Serif" font-style="italic" font-size="32.00" fill="#29235c">int</text>
<polygon fill="#e7e2dd" stroke="transparent" points="675.98,-1202.24 675.98,-1262.24 1004.98,-1262.24 1004.98,-1202.24 675.98,-1202.24"/>
<polygon fill="none" stroke="#29235c" points="675.98,-1202.24 675.98,-1262.24 1004.98,-1262.24 1004.98,-1202.24 675.98,-1202.24"/>
<text text-anchor="start" x="686.98" y="-1222.44" font-family="Helvetica,sans-Serif" font-size="32.00" fill="#29235c">dibuat_oleh &#160;&#160;&#160;</text>
<text text-anchor="start" x="960.2" y="-1223.44" font-family="Helvetica,sans-Serif" font-style="italic" font-size="32.00" fill="#29235c">int</text>
<polygon fill="#e7e2dd" stroke="transparent" points="675.98,-1142.24 675.98,-1202.24 1004.98,-1202.24 1004.98,-1142.24 675.98,-1142.24"/>
<polygon fill="none" stroke="#29235c" points="675.98,-1142.24 675.98,-1202.24 1004.98,-1202.24 1004.98,-1142.24 675.98,-1142.24"/>
<text text-anchor="start" x="686.98" y="-1162.44" font-family="Helvetica,sans-Serif" font-size="32.00" fill="#29235c">project_id &#160;&#160;&#160;</text>
<text text-anchor="start" x="960.2" y="-1163.44" font-family="Helvetica,sans-Serif" font-style="italic" font-size="32.00" fill="#29235c">int</text>
<polygon fill="#e7e2dd" stroke="transparent" points="675.98,-1082.24 675.98,-1142.24 1004.98,-1142.24 1004.98,-1082.24 675.98,-1082.24"/>
<polygon fill="none" stroke="#29235c" points="675.98,-1082.24 675.98,-1142.24 1004.98,-1142.24 1004.98,-1082.24 675.98,-1082.24"/>
<text text-anchor="start" x="686.98" y="-1102.44" font-family="Helvetica,sans-Serif" font-size="32.00" fill="#29235c">nama &#160;&#160;&#160;</text>
<text text-anchor="start" x="887.31" y="-1103.44" font-family="Helvetica,sans-Serif" font-style="italic" font-size="32.00" fill="#29235c">varchar</text>
<polygon fill="#e7e2dd" stroke="transparent" points="675.98,-1022.24 675.98,-1082.24 1004.98,-1082.24 1004.98,-1022.24 675.98,-1022.24"/>
<polygon fill="none" stroke="#29235c" points="675.98,-1022.24 675.98,-1082.24 1004.98,-1082.24 1004.98,-1022.24 675.98,-1022.24"/>
<text text-anchor="start" x="686.98" y="-1042.44" font-family="Helvetica,sans-Serif" font-size="32.00" fill="#29235c">point &#160;&#160;&#160;</text>
<text text-anchor="start" x="960.2" y="-1043.44" font-family="Helvetica,sans-Serif" font-style="italic" font-size="32.00" fill="#29235c">int</text>
<polygon fill="#e7e2dd" stroke="transparent" points="675.98,-962.24 675.98,-1022.24 1004.98,-1022.24 1004.98,-962.24 675.98,-962.24"/>
<polygon fill="none" stroke="#29235c" points="675.98,-962.24 675.98,-1022.24 1004.98,-1022.24 1004.98,-962.24 675.98,-962.24"/>
<text text-anchor="start" x="686.98" y="-982.44" font-family="Helvetica,sans-Serif" font-size="32.00" fill="#29235c">deskripsi &#160;&#160;&#160;</text>
<text text-anchor="start" x="887.31" y="-983.44" font-family="Helvetica,sans-Serif" font-style="italic" font-size="32.00" fill="#29235c">varchar</text>
<polygon fill="#e7e2dd" stroke="transparent" points="675.98,-902.24 675.98,-962.24 1004.98,-962.24 1004.98,-902.24 675.98,-902.24"/>
<polygon fill="none" stroke="#29235c" points="675.98,-902.24 675.98,-962.24 1004.98,-962.24 1004.98,-902.24 675.98,-902.24"/>
<text text-anchor="start" x="686.98" y="-922.44" font-family="Helvetica,sans-Serif" font-size="32.00" fill="#29235c">prioritas &#160;&#160;&#160;</text>
<text text-anchor="start" x="880.21" y="-923.44" font-family="Helvetica,sans-Serif" font-style="italic" font-size="32.00" fill="#29235c">prioritas</text>
<polygon fill="none" stroke="#29235c" stroke-width="2" points="674.48,-901.24 674.48,-1503.24 1005.48,-1503.24 1005.48,-901.24 674.48,-901.24"/>
</g>
<!-- scrum_tugas&#45;&gt;projects -->
<!-- scrum_tugas&#45;&gt;projects -->
<g id="edge8" class="edge">
<title>scrum_tugas:e&#45;&gt;projects:w</title>
<path fill="none" stroke="#29235c" stroke-width="3" d="M1005.98,-1172.24C1114.97,-1172.24 1068.56,-793.44 1111.45,-693.24 1152.45,-597.45 1139.88,-498.81 1236.61,-492.55"/>
<polygon fill="#29235c" stroke="#29235c" stroke-width="3" points="1236.76,-496.05 1246.65,-492.24 1236.54,-489.05 1236.76,-496.05"/>
<text text-anchor="middle" x="1237.75" y="-463.44" font-family="Helvetica,sans-Serif" font-size="32.00" fill="#29235c">1</text>
<text text-anchor="middle" x="1012.2" y="-1143.44" font-family="Helvetica,sans-Serif" font-size="32.00" fill="#29235c">*</text>
</g>
<!-- scrum_tugas&#45;&gt;users -->
<!-- scrum_tugas&#45;&gt;users -->
<g id="edge4" class="edge">
<title>scrum_tugas:e&#45;&gt;users:w</title>
<path fill="none" stroke="#29235c" stroke-width="3" d="M1005.98,-1292.24C1105.98,-1292.24 1102.49,-1404.18 1195.41,-1411.83"/>
<polygon fill="#29235c" stroke="#29235c" stroke-width="3" points="1195.51,-1415.34 1205.65,-1412.24 1195.79,-1408.34 1195.51,-1415.34"/>
<text text-anchor="middle" x="1196.75" y="-1421.84" font-family="Helvetica,sans-Serif" font-size="32.00" fill="#29235c">1</text>
<text text-anchor="middle" x="1012.2" y="-1301.84" font-family="Helvetica,sans-Serif" font-size="32.00" fill="#29235c">*</text>
</g>
<!-- scrum_tugas&#45;&gt;users -->
<!-- scrum_tugas&#45;&gt;users -->
<g id="edge6" class="edge">
<title>scrum_tugas:e&#45;&gt;users:w</title>
<path fill="none" stroke="#29235c" stroke-width="3" d="M1005.98,-1232.24C1121.96,-1232.24 1088.33,-1401.85 1195.54,-1411.79"/>
<polygon fill="#29235c" stroke="#29235c" stroke-width="3" points="1195.5,-1415.29 1205.65,-1412.24 1195.81,-1408.29 1195.5,-1415.29"/>
<text text-anchor="middle" x="1196.75" y="-1383.44" font-family="Helvetica,sans-Serif" font-size="32.00" fill="#29235c">1</text>
<text text-anchor="middle" x="1012.2" y="-1203.44" font-family="Helvetica,sans-Serif" font-size="32.00" fill="#29235c">*</text>
</g>
<!-- scrum_tugas&#45;&gt;statuses -->
<!-- scrum_tugas&#45;&gt;statuses -->
<g id="edge2" class="edge">
<title>scrum_tugas:e&#45;&gt;statuses:w</title>
<path fill="none" stroke="#29235c" stroke-width="3" d="M1005.98,-1352.24C1146.89,-1352.24 1042.26,-1528.48 1111.45,-1651.24 1169.33,-1753.94 1163.7,-1856.27 1274.64,-1861.99"/>
<polygon fill="#29235c" stroke="#29235c" stroke-width="3" points="1274.56,-1865.49 1284.65,-1862.24 1274.74,-1858.49 1274.56,-1865.49"/>
<text text-anchor="middle" x="1275.75" y="-1871.84" font-family="Helvetica,sans-Serif" font-size="32.00" fill="#29235c">1</text>
<text text-anchor="middle" x="1012.2" y="-1361.84" font-family="Helvetica,sans-Serif" font-size="32.00" fill="#29235c">*</text>
</g>
<!-- scrum_comments -->
<g id="scrum_comments" class="node">
<title>scrum_comments</title>
<ellipse fill="none" stroke="black" stroke-width="0" cx="284.26" cy="-1442.24" rx="284.01" ry="87.86"/>
<polygon fill="#1d71b8" stroke="transparent" points="85.26,-1442.24 85.26,-1502.24 483.26,-1502.24 483.26,-1442.24 85.26,-1442.24"/>
<polygon fill="none" stroke="#29235c" points="85.26,-1442.24 85.26,-1502.24 483.26,-1502.24 483.26,-1442.24 85.26,-1442.24"/>
<text text-anchor="start" x="95.78" y="-1463.44" font-family="Helvetica,sans-Serif" font-weight="bold" font-size="32.00" fill="#ffffff"> &#160;&#160;&#160;&#160;&#160;&#160;scrum_comments &#160;&#160;&#160;&#160;&#160;&#160;</text>
<polygon fill="#e7e2dd" stroke="transparent" points="85.26,-1382.24 85.26,-1442.24 483.26,-1442.24 483.26,-1382.24 85.26,-1382.24"/>
<polygon fill="none" stroke="#29235c" points="85.26,-1382.24 85.26,-1442.24 483.26,-1442.24 483.26,-1382.24 85.26,-1382.24"/>
<text text-anchor="start" x="96.26" y="-1402.44" font-family="Helvetica,sans-Serif" font-size="32.00" fill="#29235c">tugas_id &#160;&#160;&#160;</text>
<text text-anchor="start" x="438.47" y="-1403.44" font-family="Helvetica,sans-Serif" font-style="italic" font-size="32.00" fill="#29235c">int</text>
<polygon fill="none" stroke="#29235c" stroke-width="2" points="84.26,-1381.24 84.26,-1503.24 484.26,-1503.24 484.26,-1381.24 84.26,-1381.24"/>
</g>
<!-- scrum_comments&#45;&gt;scrum_tugas -->
<!-- scrum_comments&#45;&gt;scrum_tugas -->
<g id="edge10" class="edge">
<title>scrum_comments:e&#45;&gt;scrum_tugas:w</title>
<path fill="none" stroke="#29235c" stroke-width="3" d="M484.26,-1412.24C565.55,-1412.24 588.37,-1412.24 664.86,-1412.24"/>
<polygon fill="#29235c" stroke="#29235c" stroke-width="3" points="664.98,-1415.74 674.98,-1412.24 664.98,-1408.74 664.98,-1415.74"/>
<text text-anchor="middle" x="683.87" y="-1421.84" font-family="Helvetica,sans-Serif" font-size="32.00" fill="#29235c">1</text>
<text text-anchor="middle" x="490.48" y="-1421.84" font-family="Helvetica,sans-Serif" font-size="32.00" fill="#29235c">*</text>
</g>
</g>
</svg>
