<?xml version="1.0" encoding="UTF-8" standalone="no"?>
<!DOCTYPE svg PUBLIC "-//W3C//DTD SVG 1.1//EN"
 "http://www.w3.org/Graphics/SVG/1.1/DTD/svg11.dtd">
<!-- Generated by graphviz version 2.47.0 (20210316.0004)
 -->
<!-- Title: dbml Pages: 1 -->
<svg width="1728pt" height="793pt"
 viewBox="0.00 0.00 1727.56 793.49" xmlns="http://www.w3.org/2000/svg" xmlns:xlink="http://www.w3.org/1999/xlink">
<g id="graph0" class="graph" transform="scale(1 1) rotate(0) translate(4 789.49)">
<title>dbml</title>
<!-- projects -->
<g id="projects" class="node">
<title>projects</title>
<ellipse fill="none" stroke="black" stroke-width="0" cx="1459.34" cy="-381.64" rx="260.43" ry="342.48"/>
<polygon fill="#1d71b8" stroke="transparent" points="1277.34,-561.64 1277.34,-621.64 1641.34,-621.64 1641.34,-561.64 1277.34,-561.64"/>
<polygon fill="none" stroke="#29235c" points="1277.34,-561.64 1277.34,-621.64 1641.34,-621.64 1641.34,-561.64 1277.34,-561.64"/>
<text text-anchor="start" x="1341.09" y="-582.84" font-family="Helvetica,sans-Serif" font-weight="bold" font-size="32.00" fill="#ffffff"> &#160;&#160;&#160;&#160;&#160;&#160;projects &#160;&#160;&#160;&#160;&#160;&#160;</text>
<polygon fill="#e7e2dd" stroke="transparent" points="1277.34,-501.64 1277.34,-561.64 1641.34,-561.64 1641.34,-501.64 1277.34,-501.64"/>
<polygon fill="none" stroke="#29235c" points="1277.34,-501.64 1277.34,-561.64 1641.34,-561.64 1641.34,-501.64 1277.34,-501.64"/>
<text text-anchor="start" x="1288.34" y="-522.84" font-family="Helvetica,sans-Serif" font-weight="bold" font-size="32.00" fill="#29235c">id</text>
<text text-anchor="start" x="1313.23" y="-522.84" font-family="Helvetica,sans-Serif" font-size="32.00" fill="#29235c"> &#160;&#160;&#160;</text>
<text text-anchor="start" x="1596.56" y="-522.84" font-family="Helvetica,sans-Serif" font-style="italic" font-size="32.00" fill="#29235c">int</text>
<polygon fill="#e7e2dd" stroke="transparent" points="1277.34,-441.64 1277.34,-501.64 1641.34,-501.64 1641.34,-441.64 1277.34,-441.64"/>
<polygon fill="none" stroke="#29235c" points="1277.34,-441.64 1277.34,-501.64 1641.34,-501.64 1641.34,-441.64 1277.34,-441.64"/>
<text text-anchor="start" x="1288.34" y="-461.84" font-family="Helvetica,sans-Serif" font-size="32.00" fill="#29235c">nama &#160;&#160;&#160;</text>
<text text-anchor="start" x="1484.58" y="-462.84" font-family="Helvetica,sans-Serif" font-style="italic" font-size="32.00" fill="#29235c">varchar</text>
<text text-anchor="start" x="1591.25" y="-462.84" font-family="Helvetica,sans-Serif" font-size="32.00" fill="#29235c"> </text>
<text text-anchor="start" x="1600.15" y="-462.84" font-family="Helvetica,sans-Serif" font-weight="bold" font-size="32.00" fill="#29235c">(!)</text>
<polygon fill="#e7e2dd" stroke="transparent" points="1277.34,-381.64 1277.34,-441.64 1641.34,-441.64 1641.34,-381.64 1277.34,-381.64"/>
<polygon fill="none" stroke="#29235c" points="1277.34,-381.64 1277.34,-441.64 1641.34,-441.64 1641.34,-381.64 1277.34,-381.64"/>
<text text-anchor="start" x="1288.34" y="-401.84" font-family="Helvetica,sans-Serif" font-size="32.00" fill="#29235c">deskripsi &#160;&#160;&#160;</text>
<text text-anchor="start" x="1578.77" y="-402.84" font-family="Helvetica,sans-Serif" font-style="italic" font-size="32.00" fill="#29235c">text</text>
<polygon fill="#e7e2dd" stroke="transparent" points="1277.34,-321.64 1277.34,-381.64 1641.34,-381.64 1641.34,-321.64 1277.34,-321.64"/>
<polygon fill="none" stroke="#29235c" points="1277.34,-321.64 1277.34,-381.64 1641.34,-381.64 1641.34,-321.64 1277.34,-321.64"/>
<text text-anchor="start" x="1288.34" y="-341.84" font-family="Helvetica,sans-Serif" font-size="32.00" fill="#29235c">tanggal_mulai &#160;&#160;&#160;</text>
<text text-anchor="start" x="1568.08" y="-342.84" font-family="Helvetica,sans-Serif" font-style="italic" font-size="32.00" fill="#29235c">date</text>
<polygon fill="#e7e2dd" stroke="transparent" points="1277.34,-261.64 1277.34,-321.64 1641.34,-321.64 1641.34,-261.64 1277.34,-261.64"/>
<polygon fill="none" stroke="#29235c" points="1277.34,-261.64 1277.34,-321.64 1641.34,-321.64 1641.34,-261.64 1277.34,-261.64"/>
<text text-anchor="start" x="1288.34" y="-281.84" font-family="Helvetica,sans-Serif" font-size="32.00" fill="#29235c">tanggal_selesai &#160;&#160;&#160;</text>
<text text-anchor="start" x="1568.08" y="-282.84" font-family="Helvetica,sans-Serif" font-style="italic" font-size="32.00" fill="#29235c">date</text>
<polygon fill="#e7e2dd" stroke="transparent" points="1277.34,-201.64 1277.34,-261.64 1641.34,-261.64 1641.34,-201.64 1277.34,-201.64"/>
<polygon fill="none" stroke="#29235c" points="1277.34,-201.64 1277.34,-261.64 1641.34,-261.64 1641.34,-201.64 1277.34,-201.64"/>
<text text-anchor="start" x="1288.34" y="-221.84" font-family="Helvetica,sans-Serif" font-size="32.00" fill="#29235c">created_at &#160;&#160;&#160;</text>
<text text-anchor="start" x="1482.79" y="-222.84" font-family="Helvetica,sans-Serif" font-style="italic" font-size="32.00" fill="#29235c">timestamp</text>
<polygon fill="#e7e2dd" stroke="transparent" points="1277.34,-141.64 1277.34,-201.64 1641.34,-201.64 1641.34,-141.64 1277.34,-141.64"/>
<polygon fill="none" stroke="#29235c" points="1277.34,-141.64 1277.34,-201.64 1641.34,-201.64 1641.34,-141.64 1277.34,-141.64"/>
<text text-anchor="start" x="1288.01" y="-161.84" font-family="Helvetica,sans-Serif" font-size="32.00" fill="#29235c">updated_at &#160;&#160;&#160;</text>
<text text-anchor="start" x="1483.06" y="-162.84" font-family="Helvetica,sans-Serif" font-style="italic" font-size="32.00" fill="#29235c">timestamp</text>
<polygon fill="none" stroke="#29235c" stroke-width="2" points="1276.34,-140.64 1276.34,-622.64 1642.34,-622.64 1642.34,-140.64 1276.34,-140.64"/>
</g>
<!-- documents -->
<g id="documents" class="node">
<title>documents</title>
<ellipse fill="none" stroke="black" stroke-width="0" cx="902.91" cy="-411.64" rx="260.43" ry="299.63"/>
<polygon fill="#1d71b8" stroke="transparent" points="720.91,-561.64 720.91,-621.64 1084.91,-621.64 1084.91,-561.64 720.91,-561.64"/>
<polygon fill="none" stroke="#29235c" points="720.91,-561.64 720.91,-621.64 1084.91,-621.64 1084.91,-561.64 720.91,-561.64"/>
<text text-anchor="start" x="762.42" y="-582.84" font-family="Helvetica,sans-Serif" font-weight="bold" font-size="32.00" fill="#ffffff"> &#160;&#160;&#160;&#160;&#160;&#160;documents &#160;&#160;&#160;&#160;&#160;&#160;</text>
<polygon fill="#e7e2dd" stroke="transparent" points="720.91,-501.64 720.91,-561.64 1084.91,-561.64 1084.91,-501.64 720.91,-501.64"/>
<polygon fill="none" stroke="#29235c" points="720.91,-501.64 720.91,-561.64 1084.91,-561.64 1084.91,-501.64 720.91,-501.64"/>
<text text-anchor="start" x="731.91" y="-522.84" font-family="Helvetica,sans-Serif" font-weight="bold" font-size="32.00" fill="#29235c">id</text>
<text text-anchor="start" x="756.8" y="-522.84" font-family="Helvetica,sans-Serif" font-size="32.00" fill="#29235c"> &#160;&#160;&#160;</text>
<text text-anchor="start" x="1040.13" y="-522.84" font-family="Helvetica,sans-Serif" font-style="italic" font-size="32.00" fill="#29235c">int</text>
<polygon fill="#e7e2dd" stroke="transparent" points="720.91,-441.64 720.91,-501.64 1084.91,-501.64 1084.91,-441.64 720.91,-441.64"/>
<polygon fill="none" stroke="#29235c" points="720.91,-441.64 720.91,-501.64 1084.91,-501.64 1084.91,-441.64 720.91,-441.64"/>
<text text-anchor="start" x="731.91" y="-461.84" font-family="Helvetica,sans-Serif" font-size="32.00" fill="#29235c">project_id &#160;&#160;&#160;</text>
<text text-anchor="start" x="1040.13" y="-462.84" font-family="Helvetica,sans-Serif" font-style="italic" font-size="32.00" fill="#29235c">int</text>
<polygon fill="#e7e2dd" stroke="transparent" points="720.91,-381.64 720.91,-441.64 1084.91,-441.64 1084.91,-381.64 720.91,-381.64"/>
<polygon fill="none" stroke="#29235c" points="720.91,-381.64 720.91,-441.64 1084.91,-441.64 1084.91,-381.64 720.91,-381.64"/>
<text text-anchor="start" x="731.91" y="-401.84" font-family="Helvetica,sans-Serif" font-size="32.00" fill="#29235c">nama &#160;&#160;&#160;</text>
<text text-anchor="start" x="967.24" y="-402.84" font-family="Helvetica,sans-Serif" font-style="italic" font-size="32.00" fill="#29235c">varchar</text>
<polygon fill="#e7e2dd" stroke="transparent" points="720.91,-321.64 720.91,-381.64 1084.91,-381.64 1084.91,-321.64 720.91,-321.64"/>
<polygon fill="none" stroke="#29235c" points="720.91,-321.64 720.91,-381.64 1084.91,-381.64 1084.91,-321.64 720.91,-321.64"/>
<text text-anchor="start" x="731.91" y="-341.84" font-family="Helvetica,sans-Serif" font-size="32.00" fill="#29235c">kode &#160;&#160;&#160;</text>
<text text-anchor="start" x="967.24" y="-342.84" font-family="Helvetica,sans-Serif" font-style="italic" font-size="32.00" fill="#29235c">varchar</text>
<polygon fill="#e7e2dd" stroke="transparent" points="720.91,-261.64 720.91,-321.64 1084.91,-321.64 1084.91,-261.64 720.91,-261.64"/>
<polygon fill="none" stroke="#29235c" points="720.91,-261.64 720.91,-321.64 1084.91,-321.64 1084.91,-261.64 720.91,-261.64"/>
<text text-anchor="start" x="731.91" y="-281.84" font-family="Helvetica,sans-Serif" font-size="32.00" fill="#29235c">created_at &#160;&#160;&#160;</text>
<text text-anchor="start" x="926.35" y="-282.84" font-family="Helvetica,sans-Serif" font-style="italic" font-size="32.00" fill="#29235c">timestamp</text>
<polygon fill="#e7e2dd" stroke="transparent" points="720.91,-201.64 720.91,-261.64 1084.91,-261.64 1084.91,-201.64 720.91,-201.64"/>
<polygon fill="none" stroke="#29235c" points="720.91,-201.64 720.91,-261.64 1084.91,-261.64 1084.91,-201.64 720.91,-201.64"/>
<text text-anchor="start" x="731.58" y="-221.84" font-family="Helvetica,sans-Serif" font-size="32.00" fill="#29235c">updated_at &#160;&#160;&#160;</text>
<text text-anchor="start" x="926.63" y="-222.84" font-family="Helvetica,sans-Serif" font-style="italic" font-size="32.00" fill="#29235c">timestamp</text>
<polygon fill="none" stroke="#29235c" stroke-width="2" points="719.91,-200.64 719.91,-622.64 1085.91,-622.64 1085.91,-200.64 719.91,-200.64"/>
</g>
<!-- documents&#45;&gt;projects -->
<!-- documents&#45;&gt;projects -->
<g id="edge2" class="edge">
<title>documents:e&#45;&gt;projects:w</title>
<path fill="none" stroke="#29235c" stroke-width="3" d="M1085.91,-471.64C1171.18,-471.64 1186.48,-527.05 1266.28,-531.38"/>
<polygon fill="#29235c" stroke="#29235c" stroke-width="3" points="1266.25,-534.88 1276.34,-531.64 1266.44,-527.88 1266.25,-534.88"/>
<text text-anchor="middle" x="1267.45" y="-541.24" font-family="Helvetica,sans-Serif" font-size="32.00" fill="#29235c">1</text>
<text text-anchor="middle" x="1092.14" y="-481.24" font-family="Helvetica,sans-Serif" font-size="32.00" fill="#29235c">*</text>
</g>
<!-- scrum_user_stories -->
<g id="scrum_user_stories" class="node">
<title>scrum_user_stories</title>
<ellipse fill="none" stroke="black" stroke-width="0" cx="303.35" cy="-411.64" rx="303.2" ry="342.48"/>
<polygon fill="#1d71b8" stroke="transparent" points="91.35,-591.64 91.35,-651.64 516.35,-651.64 516.35,-591.64 91.35,-591.64"/>
<polygon fill="none" stroke="#29235c" points="91.35,-591.64 91.35,-651.64 516.35,-651.64 516.35,-591.64 91.35,-591.64"/>
<text text-anchor="start" x="102.04" y="-612.84" font-family="Helvetica,sans-Serif" font-weight="bold" font-size="32.00" fill="#ffffff"> &#160;&#160;&#160;&#160;&#160;&#160;scrum_user_stories &#160;&#160;&#160;&#160;&#160;&#160;</text>
<polygon fill="#e7e2dd" stroke="transparent" points="91.35,-531.64 91.35,-591.64 516.35,-591.64 516.35,-531.64 91.35,-531.64"/>
<polygon fill="none" stroke="#29235c" points="91.35,-531.64 91.35,-591.64 516.35,-591.64 516.35,-531.64 91.35,-531.64"/>
<text text-anchor="start" x="102.35" y="-552.84" font-family="Helvetica,sans-Serif" font-weight="bold" font-size="32.00" fill="#29235c">id</text>
<text text-anchor="start" x="127.24" y="-552.84" font-family="Helvetica,sans-Serif" font-size="32.00" fill="#29235c"> &#160;&#160;&#160;</text>
<text text-anchor="start" x="471.57" y="-552.84" font-family="Helvetica,sans-Serif" font-style="italic" font-size="32.00" fill="#29235c">int</text>
<polygon fill="#e7e2dd" stroke="transparent" points="91.35,-471.64 91.35,-531.64 516.35,-531.64 516.35,-471.64 91.35,-471.64"/>
<polygon fill="none" stroke="#29235c" points="91.35,-471.64 91.35,-531.64 516.35,-531.64 516.35,-471.64 91.35,-471.64"/>
<text text-anchor="start" x="102.35" y="-491.84" font-family="Helvetica,sans-Serif" font-size="32.00" fill="#29235c">dokumen_id &#160;&#160;&#160;</text>
<text text-anchor="start" x="471.57" y="-492.84" font-family="Helvetica,sans-Serif" font-style="italic" font-size="32.00" fill="#29235c">int</text>
<polygon fill="#e7e2dd" stroke="transparent" points="91.35,-411.64 91.35,-471.64 516.35,-471.64 516.35,-411.64 91.35,-411.64"/>
<polygon fill="none" stroke="#29235c" points="91.35,-411.64 91.35,-471.64 516.35,-471.64 516.35,-411.64 91.35,-411.64"/>
<text text-anchor="start" x="102.35" y="-431.84" font-family="Helvetica,sans-Serif" font-size="32.00" fill="#29235c">project_id &#160;&#160;&#160;</text>
<text text-anchor="start" x="471.57" y="-432.84" font-family="Helvetica,sans-Serif" font-style="italic" font-size="32.00" fill="#29235c">int</text>
<polygon fill="#e7e2dd" stroke="transparent" points="91.35,-351.64 91.35,-411.64 516.35,-411.64 516.35,-351.64 91.35,-351.64"/>
<polygon fill="none" stroke="#29235c" points="91.35,-351.64 91.35,-411.64 516.35,-411.64 516.35,-351.64 91.35,-351.64"/>
<text text-anchor="start" x="102.35" y="-371.84" font-family="Helvetica,sans-Serif" font-size="32.00" fill="#29235c">nama &#160;&#160;&#160;</text>
<text text-anchor="start" x="398.68" y="-372.84" font-family="Helvetica,sans-Serif" font-style="italic" font-size="32.00" fill="#29235c">varchar</text>
<polygon fill="#e7e2dd" stroke="transparent" points="91.35,-291.64 91.35,-351.64 516.35,-351.64 516.35,-291.64 91.35,-291.64"/>
<polygon fill="none" stroke="#29235c" points="91.35,-291.64 91.35,-351.64 516.35,-351.64 516.35,-291.64 91.35,-291.64"/>
<text text-anchor="start" x="102.35" y="-311.84" font-family="Helvetica,sans-Serif" font-size="32.00" fill="#29235c">kode &#160;&#160;&#160;</text>
<text text-anchor="start" x="398.68" y="-312.84" font-family="Helvetica,sans-Serif" font-style="italic" font-size="32.00" fill="#29235c">varchar</text>
<polygon fill="#e7e2dd" stroke="transparent" points="91.35,-231.64 91.35,-291.64 516.35,-291.64 516.35,-231.64 91.35,-231.64"/>
<polygon fill="none" stroke="#29235c" points="91.35,-231.64 91.35,-291.64 516.35,-291.64 516.35,-231.64 91.35,-231.64"/>
<text text-anchor="start" x="102.35" y="-251.84" font-family="Helvetica,sans-Serif" font-size="32.00" fill="#29235c">created_at &#160;&#160;&#160;</text>
<text text-anchor="start" x="357.79" y="-252.84" font-family="Helvetica,sans-Serif" font-style="italic" font-size="32.00" fill="#29235c">timestamp</text>
<polygon fill="#e7e2dd" stroke="transparent" points="91.35,-171.64 91.35,-231.64 516.35,-231.64 516.35,-171.64 91.35,-171.64"/>
<polygon fill="none" stroke="#29235c" points="91.35,-171.64 91.35,-231.64 516.35,-231.64 516.35,-171.64 91.35,-171.64"/>
<text text-anchor="start" x="102.35" y="-191.84" font-family="Helvetica,sans-Serif" font-size="32.00" fill="#29235c">updated_at &#160;&#160;&#160;</text>
<text text-anchor="start" x="357.79" y="-192.84" font-family="Helvetica,sans-Serif" font-style="italic" font-size="32.00" fill="#29235c">timestamp</text>
<polygon fill="none" stroke="#29235c" stroke-width="2" points="89.85,-170.64 89.85,-652.64 516.85,-652.64 516.85,-170.64 89.85,-170.64"/>
</g>
<!-- scrum_user_stories&#45;&gt;projects -->
<!-- scrum_user_stories&#45;&gt;projects -->
<g id="edge6" class="edge">
<title>scrum_user_stories:e&#45;&gt;projects:w</title>
<path fill="none" stroke="#29235c" stroke-width="3" d="M517.35,-441.64C677.99,-441.64 510.88,-194.44 642.7,-102.64 832.51,29.54 979.89,38.51 1163.13,-102.64 1316.6,-220.87 1087.47,-520.85 1266.35,-531.36"/>
<polygon fill="#29235c" stroke="#29235c" stroke-width="3" points="1266.25,-534.86 1276.34,-531.64 1266.45,-527.86 1266.25,-534.86"/>
<text text-anchor="middle" x="1285.24" y="-541.24" font-family="Helvetica,sans-Serif" font-size="32.00" fill="#29235c">1</text>
<text text-anchor="middle" x="511.13" y="-451.24" font-family="Helvetica,sans-Serif" font-size="32.00" fill="#29235c">*</text>
</g>
<!-- scrum_user_stories&#45;&gt;documents -->
<!-- scrum_user_stories&#45;&gt;documents -->
<g id="edge4" class="edge">
<title>scrum_user_stories:e&#45;&gt;documents:w</title>
<path fill="none" stroke="#29235c" stroke-width="3" d="M517.35,-501.64C604.89,-501.64 627.24,-529.4 709.81,-531.52"/>
<polygon fill="#29235c" stroke="#29235c" stroke-width="3" points="709.87,-535.02 719.91,-531.64 709.96,-528.02 709.87,-535.02"/>
<text text-anchor="middle" x="711.02" y="-541.24" font-family="Helvetica,sans-Serif" font-size="32.00" fill="#29235c">1</text>
<text text-anchor="middle" x="511.13" y="-511.24" font-family="Helvetica,sans-Serif" font-size="32.00" fill="#29235c">*</text>
</g>
</g>
</svg>
