<?xml version="1.0" encoding="UTF-8" standalone="no"?>
<!DOCTYPE svg PUBLIC "-//W3C//DTD SVG 1.1//EN"
 "http://www.w3.org/Graphics/SVG/1.1/DTD/svg11.dtd">
<!-- Generated by graphviz version 2.47.0 (20210316.0004)
 -->
<!-- Title: dbml Pages: 1 -->
<svg width="2529pt" height="1843pt"
 viewBox="0.00 0.00 2528.65 1842.92" xmlns="http://www.w3.org/2000/svg" xmlns:xlink="http://www.w3.org/1999/xlink">
<g id="graph0" class="graph" transform="scale(1 1) rotate(0) translate(4 1838.92)">
<title>dbml</title>
<!-- projects -->
<g id="projects" class="node">
<title>projects</title>
<ellipse fill="none" stroke="black" stroke-width="0" cx="2202.45" cy="-257.39" rx="243.9" ry="257.27"/>
<polygon fill="#1d71b8" stroke="transparent" points="2032.45,-377.39 2032.45,-437.39 2373.45,-437.39 2373.45,-377.39 2032.45,-377.39"/>
<polygon fill="none" stroke="#29235c" points="2032.45,-377.39 2032.45,-437.39 2373.45,-437.39 2373.45,-377.39 2032.45,-377.39"/>
<text text-anchor="start" x="2084.69" y="-398.59" font-family="Helvetica,sans-Serif" font-weight="bold" font-size="32.00" fill="#ffffff"> &#160;&#160;&#160;&#160;&#160;&#160;projects &#160;&#160;&#160;&#160;&#160;&#160;</text>
<polygon fill="#e7e2dd" stroke="transparent" points="2032.45,-317.39 2032.45,-377.39 2373.45,-377.39 2373.45,-317.39 2032.45,-317.39"/>
<polygon fill="none" stroke="#29235c" points="2032.45,-317.39 2032.45,-377.39 2373.45,-377.39 2373.45,-317.39 2032.45,-317.39"/>
<text text-anchor="start" x="2043.45" y="-338.59" font-family="Helvetica,sans-Serif" font-weight="bold" font-size="32.00" fill="#29235c">id</text>
<text text-anchor="start" x="2068.34" y="-338.59" font-family="Helvetica,sans-Serif" font-size="32.00" fill="#29235c"> &#160;&#160;&#160;</text>
<text text-anchor="start" x="2328.67" y="-338.59" font-family="Helvetica,sans-Serif" font-style="italic" font-size="32.00" fill="#29235c">int</text>
<polygon fill="#e7e2dd" stroke="transparent" points="2032.45,-257.39 2032.45,-317.39 2373.45,-317.39 2373.45,-257.39 2032.45,-257.39"/>
<polygon fill="none" stroke="#29235c" points="2032.45,-257.39 2032.45,-317.39 2373.45,-317.39 2373.45,-257.39 2032.45,-257.39"/>
<text text-anchor="start" x="2043.45" y="-277.59" font-family="Helvetica,sans-Serif" font-size="32.00" fill="#29235c">nama &#160;&#160;&#160;</text>
<text text-anchor="start" x="2216.69" y="-278.59" font-family="Helvetica,sans-Serif" font-style="italic" font-size="32.00" fill="#29235c">varchar</text>
<text text-anchor="start" x="2323.36" y="-278.59" font-family="Helvetica,sans-Serif" font-size="32.00" fill="#29235c"> </text>
<text text-anchor="start" x="2332.25" y="-278.59" font-family="Helvetica,sans-Serif" font-weight="bold" font-size="32.00" fill="#29235c">(!)</text>
<polygon fill="#e7e2dd" stroke="transparent" points="2032.45,-197.39 2032.45,-257.39 2373.45,-257.39 2373.45,-197.39 2032.45,-197.39"/>
<polygon fill="none" stroke="#29235c" points="2032.45,-197.39 2032.45,-257.39 2373.45,-257.39 2373.45,-197.39 2032.45,-197.39"/>
<text text-anchor="start" x="2043.45" y="-217.59" font-family="Helvetica,sans-Serif" font-size="32.00" fill="#29235c">deskripsi &#160;&#160;&#160;</text>
<text text-anchor="start" x="2310.88" y="-218.59" font-family="Helvetica,sans-Serif" font-style="italic" font-size="32.00" fill="#29235c">text</text>
<polygon fill="#e7e2dd" stroke="transparent" points="2032.45,-137.39 2032.45,-197.39 2373.45,-197.39 2373.45,-137.39 2032.45,-137.39"/>
<polygon fill="none" stroke="#29235c" points="2032.45,-137.39 2032.45,-197.39 2373.45,-197.39 2373.45,-137.39 2032.45,-137.39"/>
<text text-anchor="start" x="2043.45" y="-157.59" font-family="Helvetica,sans-Serif" font-size="32.00" fill="#29235c">tanggal_mulai &#160;&#160;&#160;</text>
<text text-anchor="start" x="2300.19" y="-158.59" font-family="Helvetica,sans-Serif" font-style="italic" font-size="32.00" fill="#29235c">date</text>
<polygon fill="#e7e2dd" stroke="transparent" points="2032.45,-77.39 2032.45,-137.39 2373.45,-137.39 2373.45,-77.39 2032.45,-77.39"/>
<polygon fill="none" stroke="#29235c" points="2032.45,-77.39 2032.45,-137.39 2373.45,-137.39 2373.45,-77.39 2032.45,-77.39"/>
<text text-anchor="start" x="2043.02" y="-97.59" font-family="Helvetica,sans-Serif" font-size="32.00" fill="#29235c">tanggal_selesai &#160;&#160;&#160;</text>
<text text-anchor="start" x="2300.32" y="-98.59" font-family="Helvetica,sans-Serif" font-style="italic" font-size="32.00" fill="#29235c">date</text>
<polygon fill="none" stroke="#29235c" stroke-width="2" points="2030.95,-76.39 2030.95,-438.39 2373.95,-438.39 2373.95,-76.39 2030.95,-76.39"/>
</g>
<!-- users -->
<g id="users" class="node">
<title>users</title>
<ellipse fill="none" stroke="black" stroke-width="0" cx="2202.45" cy="-1002.39" rx="318.4" ry="469.54"/>
<polygon fill="#1d71b8" stroke="transparent" points="1979.45,-1272.39 1979.45,-1332.39 2425.45,-1332.39 2425.45,-1272.39 1979.45,-1272.39"/>
<polygon fill="none" stroke="#29235c" points="1979.45,-1272.39 1979.45,-1332.39 2425.45,-1332.39 2425.45,-1272.39 1979.45,-1272.39"/>
<text text-anchor="start" x="2101.09" y="-1293.59" font-family="Helvetica,sans-Serif" font-weight="bold" font-size="32.00" fill="#ffffff"> &#160;&#160;&#160;&#160;&#160;&#160;users &#160;&#160;&#160;&#160;&#160;&#160;</text>
<polygon fill="#e7e2dd" stroke="transparent" points="1979.45,-1212.39 1979.45,-1272.39 2425.45,-1272.39 2425.45,-1212.39 1979.45,-1212.39"/>
<polygon fill="none" stroke="#29235c" points="1979.45,-1212.39 1979.45,-1272.39 2425.45,-1272.39 2425.45,-1212.39 1979.45,-1212.39"/>
<text text-anchor="start" x="1990.45" y="-1233.59" font-family="Helvetica,sans-Serif" font-weight="bold" font-size="32.00" fill="#29235c">id</text>
<text text-anchor="start" x="2015.34" y="-1233.59" font-family="Helvetica,sans-Serif" font-size="32.00" fill="#29235c"> &#160;&#160;&#160;</text>
<text text-anchor="start" x="2380.67" y="-1233.59" font-family="Helvetica,sans-Serif" font-style="italic" font-size="32.00" fill="#29235c">int</text>
<polygon fill="#e7e2dd" stroke="transparent" points="1979.45,-1152.39 1979.45,-1212.39 2425.45,-1212.39 2425.45,-1152.39 1979.45,-1152.39"/>
<polygon fill="none" stroke="#29235c" points="1979.45,-1152.39 1979.45,-1212.39 2425.45,-1212.39 2425.45,-1152.39 1979.45,-1152.39"/>
<text text-anchor="start" x="1990.45" y="-1172.59" font-family="Helvetica,sans-Serif" font-size="32.00" fill="#29235c">name &#160;&#160;&#160;</text>
<text text-anchor="start" x="2268.69" y="-1173.59" font-family="Helvetica,sans-Serif" font-style="italic" font-size="32.00" fill="#29235c">varchar</text>
<text text-anchor="start" x="2375.36" y="-1173.59" font-family="Helvetica,sans-Serif" font-size="32.00" fill="#29235c"> </text>
<text text-anchor="start" x="2384.25" y="-1173.59" font-family="Helvetica,sans-Serif" font-weight="bold" font-size="32.00" fill="#29235c">(!)</text>
<polygon fill="#e7e2dd" stroke="transparent" points="1979.45,-1092.39 1979.45,-1152.39 2425.45,-1152.39 2425.45,-1092.39 1979.45,-1092.39"/>
<polygon fill="none" stroke="#29235c" points="1979.45,-1092.39 1979.45,-1152.39 2425.45,-1152.39 2425.45,-1092.39 1979.45,-1092.39"/>
<text text-anchor="start" x="1990.45" y="-1112.59" font-family="Helvetica,sans-Serif" font-size="32.00" fill="#29235c">email &#160;&#160;&#160;</text>
<text text-anchor="start" x="2268.69" y="-1113.59" font-family="Helvetica,sans-Serif" font-style="italic" font-size="32.00" fill="#29235c">varchar</text>
<text text-anchor="start" x="2375.36" y="-1113.59" font-family="Helvetica,sans-Serif" font-size="32.00" fill="#29235c"> </text>
<text text-anchor="start" x="2384.25" y="-1113.59" font-family="Helvetica,sans-Serif" font-weight="bold" font-size="32.00" fill="#29235c">(!)</text>
<polygon fill="#e7e2dd" stroke="transparent" points="1979.45,-1032.39 1979.45,-1092.39 2425.45,-1092.39 2425.45,-1032.39 1979.45,-1032.39"/>
<polygon fill="none" stroke="#29235c" points="1979.45,-1032.39 1979.45,-1092.39 2425.45,-1092.39 2425.45,-1032.39 1979.45,-1032.39"/>
<text text-anchor="start" x="1990.26" y="-1052.59" font-family="Helvetica,sans-Serif" font-size="32.00" fill="#29235c">email_verified_at &#160;&#160;&#160;</text>
<text text-anchor="start" x="2267.17" y="-1053.59" font-family="Helvetica,sans-Serif" font-style="italic" font-size="32.00" fill="#29235c">timestamp</text>
<polygon fill="#e7e2dd" stroke="transparent" points="1979.45,-972.39 1979.45,-1032.39 2425.45,-1032.39 2425.45,-972.39 1979.45,-972.39"/>
<polygon fill="none" stroke="#29235c" points="1979.45,-972.39 1979.45,-1032.39 2425.45,-1032.39 2425.45,-972.39 1979.45,-972.39"/>
<text text-anchor="start" x="1990.45" y="-992.59" font-family="Helvetica,sans-Serif" font-size="32.00" fill="#29235c">password &#160;&#160;&#160;</text>
<text text-anchor="start" x="2268.69" y="-993.59" font-family="Helvetica,sans-Serif" font-style="italic" font-size="32.00" fill="#29235c">varchar</text>
<text text-anchor="start" x="2375.36" y="-993.59" font-family="Helvetica,sans-Serif" font-size="32.00" fill="#29235c"> </text>
<text text-anchor="start" x="2384.25" y="-993.59" font-family="Helvetica,sans-Serif" font-weight="bold" font-size="32.00" fill="#29235c">(!)</text>
<polygon fill="#e7e2dd" stroke="transparent" points="1979.45,-912.39 1979.45,-972.39 2425.45,-972.39 2425.45,-912.39 1979.45,-912.39"/>
<polygon fill="none" stroke="#29235c" points="1979.45,-912.39 1979.45,-972.39 2425.45,-972.39 2425.45,-912.39 1979.45,-912.39"/>
<text text-anchor="start" x="1990.45" y="-932.59" font-family="Helvetica,sans-Serif" font-size="32.00" fill="#29235c">remember_token &#160;&#160;&#160;</text>
<text text-anchor="start" x="2307.78" y="-933.59" font-family="Helvetica,sans-Serif" font-style="italic" font-size="32.00" fill="#29235c">varchar</text>
<polygon fill="#e7e2dd" stroke="transparent" points="1979.45,-852.39 1979.45,-912.39 2425.45,-912.39 2425.45,-852.39 1979.45,-852.39"/>
<polygon fill="none" stroke="#29235c" points="1979.45,-852.39 1979.45,-912.39 2425.45,-912.39 2425.45,-852.39 1979.45,-852.39"/>
<text text-anchor="start" x="1990.45" y="-872.59" font-family="Helvetica,sans-Serif" font-size="32.00" fill="#29235c">custom_fields &#160;&#160;&#160;</text>
<text text-anchor="start" x="2355.77" y="-873.59" font-family="Helvetica,sans-Serif" font-style="italic" font-size="32.00" fill="#29235c">json</text>
<polygon fill="#e7e2dd" stroke="transparent" points="1979.45,-792.39 1979.45,-852.39 2425.45,-852.39 2425.45,-792.39 1979.45,-792.39"/>
<polygon fill="none" stroke="#29235c" points="1979.45,-792.39 1979.45,-852.39 2425.45,-852.39 2425.45,-792.39 1979.45,-792.39"/>
<text text-anchor="start" x="1990.45" y="-812.59" font-family="Helvetica,sans-Serif" font-size="32.00" fill="#29235c">avatar_url &#160;&#160;&#160;</text>
<text text-anchor="start" x="2307.78" y="-813.59" font-family="Helvetica,sans-Serif" font-style="italic" font-size="32.00" fill="#29235c">varchar</text>
<polygon fill="#e7e2dd" stroke="transparent" points="1979.45,-732.39 1979.45,-792.39 2425.45,-792.39 2425.45,-732.39 1979.45,-732.39"/>
<polygon fill="none" stroke="#29235c" points="1979.45,-732.39 1979.45,-792.39 2425.45,-792.39 2425.45,-732.39 1979.45,-732.39"/>
<text text-anchor="start" x="1990.45" y="-752.59" font-family="Helvetica,sans-Serif" font-size="32.00" fill="#29235c">created_at &#160;&#160;&#160;</text>
<text text-anchor="start" x="2266.89" y="-753.59" font-family="Helvetica,sans-Serif" font-style="italic" font-size="32.00" fill="#29235c">timestamp</text>
<polygon fill="#e7e2dd" stroke="transparent" points="1979.45,-672.39 1979.45,-732.39 2425.45,-732.39 2425.45,-672.39 1979.45,-672.39"/>
<polygon fill="none" stroke="#29235c" points="1979.45,-672.39 1979.45,-732.39 2425.45,-732.39 2425.45,-672.39 1979.45,-672.39"/>
<text text-anchor="start" x="1990.45" y="-692.59" font-family="Helvetica,sans-Serif" font-size="32.00" fill="#29235c">updated_at &#160;&#160;&#160;</text>
<text text-anchor="start" x="2266.89" y="-693.59" font-family="Helvetica,sans-Serif" font-style="italic" font-size="32.00" fill="#29235c">timestamp</text>
<polygon fill="none" stroke="#29235c" stroke-width="2" points="1978.45,-671.39 1978.45,-1333.39 2426.45,-1333.39 2426.45,-671.39 1978.45,-671.39"/>
</g>
<!-- statuses -->
<g id="statuses" class="node">
<title>statuses</title>
<ellipse fill="none" stroke="black" stroke-width="0" cx="2202.45" cy="-1662.39" rx="207.36" ry="172.57"/>
<polygon fill="#1d71b8" stroke="transparent" points="2058.45,-1722.39 2058.45,-1782.39 2347.45,-1782.39 2347.45,-1722.39 2058.45,-1722.39"/>
<polygon fill="none" stroke="#29235c" points="2058.45,-1722.39 2058.45,-1782.39 2347.45,-1782.39 2347.45,-1722.39 2058.45,-1722.39"/>
<text text-anchor="start" x="2081.12" y="-1743.59" font-family="Helvetica,sans-Serif" font-weight="bold" font-size="32.00" fill="#ffffff"> &#160;&#160;&#160;&#160;&#160;&#160;statuses &#160;&#160;&#160;&#160;&#160;&#160;</text>
<polygon fill="#e7e2dd" stroke="transparent" points="2058.45,-1662.39 2058.45,-1722.39 2347.45,-1722.39 2347.45,-1662.39 2058.45,-1662.39"/>
<polygon fill="none" stroke="#29235c" points="2058.45,-1662.39 2058.45,-1722.39 2347.45,-1722.39 2347.45,-1662.39 2058.45,-1662.39"/>
<text text-anchor="start" x="2069.45" y="-1683.59" font-family="Helvetica,sans-Serif" font-weight="bold" font-size="32.00" fill="#29235c">id</text>
<text text-anchor="start" x="2094.34" y="-1683.59" font-family="Helvetica,sans-Serif" font-size="32.00" fill="#29235c"> &#160;&#160;&#160;</text>
<text text-anchor="start" x="2302.67" y="-1683.59" font-family="Helvetica,sans-Serif" font-style="italic" font-size="32.00" fill="#29235c">int</text>
<polygon fill="#e7e2dd" stroke="transparent" points="2058.45,-1602.39 2058.45,-1662.39 2347.45,-1662.39 2347.45,-1602.39 2058.45,-1602.39"/>
<polygon fill="none" stroke="#29235c" points="2058.45,-1602.39 2058.45,-1662.39 2347.45,-1662.39 2347.45,-1602.39 2058.45,-1602.39"/>
<text text-anchor="start" x="2069.45" y="-1622.59" font-family="Helvetica,sans-Serif" font-size="32.00" fill="#29235c">nama &#160;&#160;&#160;</text>
<text text-anchor="start" x="2229.78" y="-1623.59" font-family="Helvetica,sans-Serif" font-style="italic" font-size="32.00" fill="#29235c">varchar</text>
<polygon fill="#e7e2dd" stroke="transparent" points="2058.45,-1542.39 2058.45,-1602.39 2347.45,-1602.39 2347.45,-1542.39 2058.45,-1542.39"/>
<polygon fill="none" stroke="#29235c" points="2058.45,-1542.39 2058.45,-1602.39 2347.45,-1602.39 2347.45,-1542.39 2058.45,-1542.39"/>
<text text-anchor="start" x="2069.05" y="-1562.59" font-family="Helvetica,sans-Serif" font-size="32.00" fill="#29235c">deskripsi &#160;&#160;&#160;</text>
<text text-anchor="start" x="2230.11" y="-1563.59" font-family="Helvetica,sans-Serif" font-style="italic" font-size="32.00" fill="#29235c">varchar</text>
<polygon fill="none" stroke="#29235c" stroke-width="2" points="2056.95,-1541.39 2056.95,-1783.39 2347.95,-1783.39 2347.95,-1541.39 2056.95,-1541.39"/>
</g>
<!-- scrum_tasks -->
<g id="scrum_tasks" class="node">
<title>scrum_tasks</title>
<ellipse fill="none" stroke="black" stroke-width="0" cx="1588.04" cy="-912.39" rx="260.43" ry="596.6"/>
<polygon fill="#1d71b8" stroke="transparent" points="1406.04,-1272.39 1406.04,-1332.39 1770.04,-1332.39 1770.04,-1272.39 1406.04,-1272.39"/>
<polygon fill="none" stroke="#29235c" points="1406.04,-1272.39 1406.04,-1332.39 1770.04,-1332.39 1770.04,-1272.39 1406.04,-1272.39"/>
<text text-anchor="start" x="1436" y="-1293.59" font-family="Helvetica,sans-Serif" font-weight="bold" font-size="32.00" fill="#ffffff"> &#160;&#160;&#160;&#160;&#160;&#160;scrum_tasks &#160;&#160;&#160;&#160;&#160;&#160;</text>
<polygon fill="#e7e2dd" stroke="transparent" points="1406.04,-1212.39 1406.04,-1272.39 1770.04,-1272.39 1770.04,-1212.39 1406.04,-1212.39"/>
<polygon fill="none" stroke="#29235c" points="1406.04,-1212.39 1406.04,-1272.39 1770.04,-1272.39 1770.04,-1212.39 1406.04,-1212.39"/>
<text text-anchor="start" x="1417.04" y="-1233.59" font-family="Helvetica,sans-Serif" font-weight="bold" font-size="32.00" fill="#29235c">id</text>
<text text-anchor="start" x="1441.93" y="-1233.59" font-family="Helvetica,sans-Serif" font-size="32.00" fill="#29235c"> &#160;&#160;&#160;</text>
<text text-anchor="start" x="1725.25" y="-1233.59" font-family="Helvetica,sans-Serif" font-style="italic" font-size="32.00" fill="#29235c">int</text>
<polygon fill="#e7e2dd" stroke="transparent" points="1406.04,-1152.39 1406.04,-1212.39 1770.04,-1212.39 1770.04,-1152.39 1406.04,-1152.39"/>
<polygon fill="none" stroke="#29235c" points="1406.04,-1152.39 1406.04,-1212.39 1770.04,-1212.39 1770.04,-1152.39 1406.04,-1152.39"/>
<text text-anchor="start" x="1417.04" y="-1172.59" font-family="Helvetica,sans-Serif" font-size="32.00" fill="#29235c">nama &#160;&#160;&#160;</text>
<text text-anchor="start" x="1652.36" y="-1173.59" font-family="Helvetica,sans-Serif" font-style="italic" font-size="32.00" fill="#29235c">varchar</text>
<polygon fill="#e7e2dd" stroke="transparent" points="1406.04,-1092.39 1406.04,-1152.39 1770.04,-1152.39 1770.04,-1092.39 1406.04,-1092.39"/>
<polygon fill="none" stroke="#29235c" points="1406.04,-1092.39 1406.04,-1152.39 1770.04,-1152.39 1770.04,-1092.39 1406.04,-1092.39"/>
<text text-anchor="start" x="1417.04" y="-1112.59" font-family="Helvetica,sans-Serif" font-size="32.00" fill="#29235c">point &#160;&#160;&#160;</text>
<text text-anchor="start" x="1725.25" y="-1113.59" font-family="Helvetica,sans-Serif" font-style="italic" font-size="32.00" fill="#29235c">int</text>
<polygon fill="#e7e2dd" stroke="transparent" points="1406.04,-1032.39 1406.04,-1092.39 1770.04,-1092.39 1770.04,-1032.39 1406.04,-1032.39"/>
<polygon fill="none" stroke="#29235c" points="1406.04,-1032.39 1406.04,-1092.39 1770.04,-1092.39 1770.04,-1032.39 1406.04,-1032.39"/>
<text text-anchor="start" x="1417.04" y="-1052.59" font-family="Helvetica,sans-Serif" font-size="32.00" fill="#29235c">deskripsi &#160;&#160;&#160;</text>
<text text-anchor="start" x="1707.46" y="-1053.59" font-family="Helvetica,sans-Serif" font-style="italic" font-size="32.00" fill="#29235c">text</text>
<polygon fill="#e7e2dd" stroke="transparent" points="1406.04,-972.39 1406.04,-1032.39 1770.04,-1032.39 1770.04,-972.39 1406.04,-972.39"/>
<polygon fill="none" stroke="#29235c" points="1406.04,-972.39 1406.04,-1032.39 1770.04,-1032.39 1770.04,-972.39 1406.04,-972.39"/>
<text text-anchor="start" x="1417.04" y="-992.59" font-family="Helvetica,sans-Serif" font-size="32.00" fill="#29235c">status_id &#160;&#160;&#160;</text>
<text text-anchor="start" x="1725.25" y="-993.59" font-family="Helvetica,sans-Serif" font-style="italic" font-size="32.00" fill="#29235c">int</text>
<polygon fill="#e7e2dd" stroke="transparent" points="1406.04,-912.39 1406.04,-972.39 1770.04,-972.39 1770.04,-912.39 1406.04,-912.39"/>
<polygon fill="none" stroke="#29235c" points="1406.04,-912.39 1406.04,-972.39 1770.04,-972.39 1770.04,-912.39 1406.04,-912.39"/>
<text text-anchor="start" x="1417.04" y="-932.59" font-family="Helvetica,sans-Serif" font-size="32.00" fill="#29235c">prioritas &#160;&#160;&#160;</text>
<text text-anchor="start" x="1645.27" y="-933.59" font-family="Helvetica,sans-Serif" font-style="italic" font-size="32.00" fill="#29235c">prioritas</text>
<polygon fill="#e7e2dd" stroke="transparent" points="1406.04,-852.39 1406.04,-912.39 1770.04,-912.39 1770.04,-852.39 1406.04,-852.39"/>
<polygon fill="none" stroke="#29235c" points="1406.04,-852.39 1406.04,-912.39 1770.04,-912.39 1770.04,-852.39 1406.04,-852.39"/>
<text text-anchor="start" x="1417.04" y="-872.59" font-family="Helvetica,sans-Serif" font-size="32.00" fill="#29235c">pic &#160;&#160;&#160;</text>
<text text-anchor="start" x="1725.25" y="-873.59" font-family="Helvetica,sans-Serif" font-style="italic" font-size="32.00" fill="#29235c">int</text>
<polygon fill="#e7e2dd" stroke="transparent" points="1406.04,-792.39 1406.04,-852.39 1770.04,-852.39 1770.04,-792.39 1406.04,-792.39"/>
<polygon fill="none" stroke="#29235c" points="1406.04,-792.39 1406.04,-852.39 1770.04,-852.39 1770.04,-792.39 1406.04,-792.39"/>
<text text-anchor="start" x="1417.04" y="-812.59" font-family="Helvetica,sans-Serif" font-size="32.00" fill="#29235c">dibuat_oleh &#160;&#160;&#160;</text>
<text text-anchor="start" x="1725.25" y="-813.59" font-family="Helvetica,sans-Serif" font-style="italic" font-size="32.00" fill="#29235c">int</text>
<polygon fill="#e7e2dd" stroke="transparent" points="1406.04,-732.39 1406.04,-792.39 1770.04,-792.39 1770.04,-732.39 1406.04,-732.39"/>
<polygon fill="none" stroke="#29235c" points="1406.04,-732.39 1406.04,-792.39 1770.04,-792.39 1770.04,-732.39 1406.04,-732.39"/>
<text text-anchor="start" x="1417.04" y="-752.59" font-family="Helvetica,sans-Serif" font-size="32.00" fill="#29235c">project_id &#160;&#160;&#160;</text>
<text text-anchor="start" x="1725.25" y="-753.59" font-family="Helvetica,sans-Serif" font-style="italic" font-size="32.00" fill="#29235c">int</text>
<polygon fill="#e7e2dd" stroke="transparent" points="1406.04,-672.39 1406.04,-732.39 1770.04,-732.39 1770.04,-672.39 1406.04,-672.39"/>
<polygon fill="none" stroke="#29235c" points="1406.04,-672.39 1406.04,-732.39 1770.04,-732.39 1770.04,-672.39 1406.04,-672.39"/>
<text text-anchor="start" x="1417.04" y="-692.59" font-family="Helvetica,sans-Serif" font-size="32.00" fill="#29235c">tanggal_mulai &#160;&#160;&#160;</text>
<text text-anchor="start" x="1696.78" y="-693.59" font-family="Helvetica,sans-Serif" font-style="italic" font-size="32.00" fill="#29235c">date</text>
<polygon fill="#e7e2dd" stroke="transparent" points="1406.04,-612.39 1406.04,-672.39 1770.04,-672.39 1770.04,-612.39 1406.04,-612.39"/>
<polygon fill="none" stroke="#29235c" points="1406.04,-612.39 1406.04,-672.39 1770.04,-672.39 1770.04,-612.39 1406.04,-612.39"/>
<text text-anchor="start" x="1417.04" y="-632.59" font-family="Helvetica,sans-Serif" font-size="32.00" fill="#29235c">tanggal_selesai &#160;&#160;&#160;</text>
<text text-anchor="start" x="1696.78" y="-633.59" font-family="Helvetica,sans-Serif" font-style="italic" font-size="32.00" fill="#29235c">date</text>
<polygon fill="#e7e2dd" stroke="transparent" points="1406.04,-552.39 1406.04,-612.39 1770.04,-612.39 1770.04,-552.39 1406.04,-552.39"/>
<polygon fill="none" stroke="#29235c" points="1406.04,-552.39 1406.04,-612.39 1770.04,-612.39 1770.04,-552.39 1406.04,-552.39"/>
<text text-anchor="start" x="1417.04" y="-572.59" font-family="Helvetica,sans-Serif" font-size="32.00" fill="#29235c">created_at &#160;&#160;&#160;</text>
<text text-anchor="start" x="1611.48" y="-573.59" font-family="Helvetica,sans-Serif" font-style="italic" font-size="32.00" fill="#29235c">timestamp</text>
<polygon fill="#e7e2dd" stroke="transparent" points="1406.04,-492.39 1406.04,-552.39 1770.04,-552.39 1770.04,-492.39 1406.04,-492.39"/>
<polygon fill="none" stroke="#29235c" points="1406.04,-492.39 1406.04,-552.39 1770.04,-552.39 1770.04,-492.39 1406.04,-492.39"/>
<text text-anchor="start" x="1416.7" y="-512.59" font-family="Helvetica,sans-Serif" font-size="32.00" fill="#29235c">updated_at &#160;&#160;&#160;</text>
<text text-anchor="start" x="1611.76" y="-513.59" font-family="Helvetica,sans-Serif" font-style="italic" font-size="32.00" fill="#29235c">timestamp</text>
<polygon fill="none" stroke="#29235c" stroke-width="2" points="1405.04,-491.39 1405.04,-1333.39 1771.04,-1333.39 1771.04,-491.39 1405.04,-491.39"/>
</g>
<!-- scrum_tasks&#45;&gt;projects -->
<!-- scrum_tasks&#45;&gt;projects -->
<g id="edge8" class="edge">
<title>scrum_tasks:e&#45;&gt;projects:w</title>
<path fill="none" stroke="#29235c" stroke-width="3" d="M1771.04,-762.39C1888.57,-762.39 1820.88,-622.38 1884.25,-523.39 1937.35,-440.44 1930.07,-353.54 2021.38,-347.7"/>
<polygon fill="#29235c" stroke="#29235c" stroke-width="3" points="2021.56,-351.19 2031.45,-347.39 2021.35,-344.2 2021.56,-351.19"/>
<text text-anchor="middle" x="2022.56" y="-318.59" font-family="Helvetica,sans-Serif" font-size="32.00" fill="#29235c">1</text>
<text text-anchor="middle" x="1777.26" y="-733.59" font-family="Helvetica,sans-Serif" font-size="32.00" fill="#29235c">*</text>
</g>
<!-- scrum_tasks&#45;&gt;users -->
<!-- scrum_tasks&#45;&gt;users -->
<g id="edge4" class="edge">
<title>scrum_tasks:e&#45;&gt;users:w</title>
<path fill="none" stroke="#29235c" stroke-width="3" d="M1771.04,-882.39C1952.18,-882.39 1799.83,-1228.81 1968.27,-1242"/>
<polygon fill="#29235c" stroke="#29235c" stroke-width="3" points="1968.32,-1245.5 1978.45,-1242.39 1968.59,-1238.51 1968.32,-1245.5"/>
<text text-anchor="middle" x="1969.56" y="-1251.99" font-family="Helvetica,sans-Serif" font-size="32.00" fill="#29235c">1</text>
<text text-anchor="middle" x="1777.26" y="-853.59" font-family="Helvetica,sans-Serif" font-size="32.00" fill="#29235c">*</text>
</g>
<!-- scrum_tasks&#45;&gt;users -->
<!-- scrum_tasks&#45;&gt;users -->
<g id="edge6" class="edge">
<title>scrum_tasks:e&#45;&gt;users:w</title>
<path fill="none" stroke="#29235c" stroke-width="3" d="M1771.04,-822.39C1975.77,-822.39 1777.09,-1228.56 1968.42,-1242.04"/>
<polygon fill="#29235c" stroke="#29235c" stroke-width="3" points="1968.34,-1245.54 1978.45,-1242.39 1968.58,-1238.55 1968.34,-1245.54"/>
<text text-anchor="middle" x="1969.56" y="-1213.59" font-family="Helvetica,sans-Serif" font-size="32.00" fill="#29235c">1</text>
<text text-anchor="middle" x="1777.26" y="-793.59" font-family="Helvetica,sans-Serif" font-size="32.00" fill="#29235c">*</text>
</g>
<!-- scrum_tasks&#45;&gt;statuses -->
<!-- scrum_tasks&#45;&gt;statuses -->
<g id="edge2" class="edge">
<title>scrum_tasks:e&#45;&gt;statuses:w</title>
<path fill="none" stroke="#29235c" stroke-width="3" d="M1771.04,-1002.39C1989.79,-1002.39 1787.19,-1285.34 1884.25,-1481.39 1936.56,-1587.04 1936.19,-1686.59 2047.43,-1692.14"/>
<polygon fill="#29235c" stroke="#29235c" stroke-width="3" points="2047.37,-1695.64 2057.45,-1692.39 2047.54,-1688.64 2047.37,-1695.64"/>
<text text-anchor="middle" x="2048.56" y="-1701.99" font-family="Helvetica,sans-Serif" font-size="32.00" fill="#29235c">1</text>
<text text-anchor="middle" x="1777.26" y="-973.59" font-family="Helvetica,sans-Serif" font-size="32.00" fill="#29235c">*</text>
</g>
<!-- scrum_comments -->
<g id="scrum_comments" class="node">
<title>scrum_comments</title>
<ellipse fill="none" stroke="black" stroke-width="0" cx="1007.56" cy="-1212.39" rx="284.01" ry="214.92"/>
<polygon fill="#1d71b8" stroke="transparent" points="808.56,-1302.39 808.56,-1362.39 1206.56,-1362.39 1206.56,-1302.39 808.56,-1302.39"/>
<polygon fill="none" stroke="#29235c" points="808.56,-1302.39 808.56,-1362.39 1206.56,-1362.39 1206.56,-1302.39 808.56,-1302.39"/>
<text text-anchor="start" x="819.09" y="-1323.59" font-family="Helvetica,sans-Serif" font-weight="bold" font-size="32.00" fill="#ffffff"> &#160;&#160;&#160;&#160;&#160;&#160;scrum_comments &#160;&#160;&#160;&#160;&#160;&#160;</text>
<polygon fill="#e7e2dd" stroke="transparent" points="808.56,-1242.39 808.56,-1302.39 1206.56,-1302.39 1206.56,-1242.39 808.56,-1242.39"/>
<polygon fill="none" stroke="#29235c" points="808.56,-1242.39 808.56,-1302.39 1206.56,-1302.39 1206.56,-1242.39 808.56,-1242.39"/>
<text text-anchor="start" x="819.56" y="-1263.59" font-family="Helvetica,sans-Serif" font-weight="bold" font-size="32.00" fill="#29235c">id</text>
<text text-anchor="start" x="844.45" y="-1263.59" font-family="Helvetica,sans-Serif" font-size="32.00" fill="#29235c"> &#160;&#160;&#160;</text>
<text text-anchor="start" x="1161.78" y="-1263.59" font-family="Helvetica,sans-Serif" font-style="italic" font-size="32.00" fill="#29235c">int</text>
<polygon fill="#e7e2dd" stroke="transparent" points="808.56,-1182.39 808.56,-1242.39 1206.56,-1242.39 1206.56,-1182.39 808.56,-1182.39"/>
<polygon fill="none" stroke="#29235c" points="808.56,-1182.39 808.56,-1242.39 1206.56,-1242.39 1206.56,-1182.39 808.56,-1182.39"/>
<text text-anchor="start" x="819.56" y="-1202.59" font-family="Helvetica,sans-Serif" font-size="32.00" fill="#29235c">task_id &#160;&#160;&#160;</text>
<text text-anchor="start" x="1161.78" y="-1203.59" font-family="Helvetica,sans-Serif" font-style="italic" font-size="32.00" fill="#29235c">int</text>
<polygon fill="#e7e2dd" stroke="transparent" points="808.56,-1122.39 808.56,-1182.39 1206.56,-1182.39 1206.56,-1122.39 808.56,-1122.39"/>
<polygon fill="none" stroke="#29235c" points="808.56,-1122.39 808.56,-1182.39 1206.56,-1182.39 1206.56,-1122.39 808.56,-1122.39"/>
<text text-anchor="start" x="819.56" y="-1142.59" font-family="Helvetica,sans-Serif" font-size="32.00" fill="#29235c">user_id &#160;&#160;&#160;</text>
<text text-anchor="start" x="1161.78" y="-1143.59" font-family="Helvetica,sans-Serif" font-style="italic" font-size="32.00" fill="#29235c">int</text>
<polygon fill="#e7e2dd" stroke="transparent" points="808.56,-1062.39 808.56,-1122.39 1206.56,-1122.39 1206.56,-1062.39 808.56,-1062.39"/>
<polygon fill="none" stroke="#29235c" points="808.56,-1062.39 808.56,-1122.39 1206.56,-1122.39 1206.56,-1062.39 808.56,-1062.39"/>
<text text-anchor="start" x="819.56" y="-1082.59" font-family="Helvetica,sans-Serif" font-size="32.00" fill="#29235c">content &#160;&#160;&#160;</text>
<text text-anchor="start" x="1143.99" y="-1083.59" font-family="Helvetica,sans-Serif" font-style="italic" font-size="32.00" fill="#29235c">text</text>
<polygon fill="none" stroke="#29235c" stroke-width="2" points="807.56,-1061.39 807.56,-1363.39 1207.56,-1363.39 1207.56,-1061.39 807.56,-1061.39"/>
</g>
<!-- scrum_comments&#45;&gt;users -->
<!-- scrum_comments&#45;&gt;users -->
<g id="edge12" class="edge">
<title>scrum_comments:e&#45;&gt;users:w</title>
<path fill="none" stroke="#29235c" stroke-width="3" d="M1207.56,-1152.39C1397.45,-1152.39 1184.41,-430.85 1327.82,-306.39 1502.51,-154.78 1673.79,-154.52 1848.25,-306.39 1885.88,-339.14 1922.15,-1154.74 1970.71,-1235.9"/>
<polygon fill="#29235c" stroke="#29235c" stroke-width="3" points="1968.54,-1238.64 1978.45,-1242.39 1973.04,-1233.28 1968.54,-1238.64"/>
<text text-anchor="middle" x="1987.34" y="-1251.99" font-family="Helvetica,sans-Serif" font-size="32.00" fill="#29235c">1</text>
<text text-anchor="middle" x="1201.34" y="-1123.59" font-family="Helvetica,sans-Serif" font-size="32.00" fill="#29235c">*</text>
</g>
<!-- scrum_comments&#45;&gt;scrum_tasks -->
<!-- scrum_comments&#45;&gt;scrum_tasks -->
<g id="edge10" class="edge">
<title>scrum_comments:e&#45;&gt;scrum_tasks:w</title>
<path fill="none" stroke="#29235c" stroke-width="3" d="M1207.56,-1212.39C1292.87,-1212.39 1314.6,-1240.09 1394.94,-1242.25"/>
<polygon fill="#29235c" stroke="#29235c" stroke-width="3" points="1394.99,-1245.75 1405.04,-1242.39 1395.08,-1238.75 1394.99,-1245.75"/>
<text text-anchor="middle" x="1396.14" y="-1251.99" font-family="Helvetica,sans-Serif" font-size="32.00" fill="#29235c">1</text>
<text text-anchor="middle" x="1201.34" y="-1221.99" font-family="Helvetica,sans-Serif" font-size="32.00" fill="#29235c">*</text>
</g>
<!-- scrum_comment_childs -->
<g id="scrum_comment_childs" class="node">
<title>scrum_comment_childs</title>
<ellipse fill="none" stroke="black" stroke-width="0" cx="343.65" cy="-1302.39" rx="343.81" ry="87.86"/>
<polygon fill="#1d71b8" stroke="transparent" points="102.65,-1302.39 102.65,-1362.39 584.65,-1362.39 584.65,-1302.39 102.65,-1302.39"/>
<polygon fill="none" stroke="#29235c" points="102.65,-1302.39 102.65,-1362.39 584.65,-1362.39 584.65,-1302.39 102.65,-1302.39"/>
<text text-anchor="start" x="113.4" y="-1323.59" font-family="Helvetica,sans-Serif" font-weight="bold" font-size="32.00" fill="#ffffff"> &#160;&#160;&#160;&#160;&#160;&#160;scrum_comment_childs &#160;&#160;&#160;&#160;&#160;&#160;</text>
<polygon fill="#e7e2dd" stroke="transparent" points="102.65,-1242.39 102.65,-1302.39 584.65,-1302.39 584.65,-1242.39 102.65,-1242.39"/>
<polygon fill="none" stroke="#29235c" points="102.65,-1242.39 102.65,-1302.39 584.65,-1302.39 584.65,-1242.39 102.65,-1242.39"/>
<text text-anchor="start" x="113.65" y="-1262.59" font-family="Helvetica,sans-Serif" font-size="32.00" fill="#29235c">comment_id &#160;&#160;&#160;</text>
<text text-anchor="start" x="539.87" y="-1263.59" font-family="Helvetica,sans-Serif" font-style="italic" font-size="32.00" fill="#29235c">int</text>
<polygon fill="none" stroke="#29235c" stroke-width="2" points="101.65,-1241.39 101.65,-1363.39 585.65,-1363.39 585.65,-1241.39 101.65,-1241.39"/>
</g>
<!-- scrum_comment_childs&#45;&gt;scrum_comments -->
<!-- scrum_comment_childs&#45;&gt;scrum_comments -->
<g id="edge14" class="edge">
<title>scrum_comment_childs:e&#45;&gt;scrum_comments:w</title>
<path fill="none" stroke="#29235c" stroke-width="3" d="M585.65,-1272.39C680.81,-1272.39 707.11,-1272.39 797.43,-1272.39"/>
<polygon fill="#29235c" stroke="#29235c" stroke-width="3" points="797.56,-1275.89 807.56,-1272.39 797.56,-1268.89 797.56,-1275.89"/>
<text text-anchor="middle" x="798.67" y="-1281.99" font-family="Helvetica,sans-Serif" font-size="32.00" fill="#29235c">1</text>
<text text-anchor="middle" x="591.88" y="-1281.99" font-family="Helvetica,sans-Serif" font-size="32.00" fill="#29235c">*</text>
</g>
</g>
</svg>
