<?xml version="1.0" encoding="UTF-8" standalone="no"?>
<!DOCTYPE svg PUBLIC "-//W3C//DTD SVG 1.1//EN"
 "http://www.w3.org/Graphics/SVG/1.1/DTD/svg11.dtd">
<!-- Generated by graphviz version 2.47.0 (20210316.0004)
 -->
<!-- Title: dbml Pages: 1 -->
<svg width="1052pt" height="523pt"
 viewBox="0.00 0.00 1052.33 522.77" xmlns="http://www.w3.org/2000/svg" xmlns:xlink="http://www.w3.org/1999/xlink">
<g id="graph0" class="graph" transform="scale(1 1) rotate(0) translate(4 518.77)">
<title>dbml</title>
<!-- projects -->
<g id="projects" class="node">
<title>projects</title>
<ellipse fill="none" stroke="black" stroke-width="0" cx="800.38" cy="-257.39" rx="243.9" ry="257.27"/>
<polygon fill="#1d71b8" stroke="transparent" points="630.38,-377.39 630.38,-437.39 971.38,-437.39 971.38,-377.39 630.38,-377.39"/>
<polygon fill="none" stroke="#29235c" points="630.38,-377.39 630.38,-437.39 971.38,-437.39 971.38,-377.39 630.38,-377.39"/>
<text text-anchor="start" x="682.63" y="-398.59" font-family="Helvetica,sans-Serif" font-weight="bold" font-size="32.00" fill="#ffffff"> &#160;&#160;&#160;&#160;&#160;&#160;projects &#160;&#160;&#160;&#160;&#160;&#160;</text>
<polygon fill="#e7e2dd" stroke="transparent" points="630.38,-317.39 630.38,-377.39 971.38,-377.39 971.38,-317.39 630.38,-317.39"/>
<polygon fill="none" stroke="#29235c" points="630.38,-317.39 630.38,-377.39 971.38,-377.39 971.38,-317.39 630.38,-317.39"/>
<text text-anchor="start" x="641.38" y="-338.59" font-family="Helvetica,sans-Serif" font-weight="bold" font-size="32.00" fill="#29235c">id</text>
<text text-anchor="start" x="666.27" y="-338.59" font-family="Helvetica,sans-Serif" font-size="32.00" fill="#29235c"> &#160;&#160;&#160;</text>
<text text-anchor="start" x="926.6" y="-338.59" font-family="Helvetica,sans-Serif" font-style="italic" font-size="32.00" fill="#29235c">int</text>
<polygon fill="#e7e2dd" stroke="transparent" points="630.38,-257.39 630.38,-317.39 971.38,-317.39 971.38,-257.39 630.38,-257.39"/>
<polygon fill="none" stroke="#29235c" points="630.38,-257.39 630.38,-317.39 971.38,-317.39 971.38,-257.39 630.38,-257.39"/>
<text text-anchor="start" x="641.38" y="-277.59" font-family="Helvetica,sans-Serif" font-size="32.00" fill="#29235c">nama &#160;&#160;&#160;</text>
<text text-anchor="start" x="814.62" y="-278.59" font-family="Helvetica,sans-Serif" font-style="italic" font-size="32.00" fill="#29235c">varchar</text>
<text text-anchor="start" x="921.29" y="-278.59" font-family="Helvetica,sans-Serif" font-size="32.00" fill="#29235c"> </text>
<text text-anchor="start" x="930.18" y="-278.59" font-family="Helvetica,sans-Serif" font-weight="bold" font-size="32.00" fill="#29235c">(!)</text>
<polygon fill="#e7e2dd" stroke="transparent" points="630.38,-197.39 630.38,-257.39 971.38,-257.39 971.38,-197.39 630.38,-197.39"/>
<polygon fill="none" stroke="#29235c" points="630.38,-197.39 630.38,-257.39 971.38,-257.39 971.38,-197.39 630.38,-197.39"/>
<text text-anchor="start" x="641.38" y="-217.59" font-family="Helvetica,sans-Serif" font-size="32.00" fill="#29235c">deskripsi &#160;&#160;&#160;</text>
<text text-anchor="start" x="908.81" y="-218.59" font-family="Helvetica,sans-Serif" font-style="italic" font-size="32.00" fill="#29235c">text</text>
<polygon fill="#e7e2dd" stroke="transparent" points="630.38,-137.39 630.38,-197.39 971.38,-197.39 971.38,-137.39 630.38,-137.39"/>
<polygon fill="none" stroke="#29235c" points="630.38,-137.39 630.38,-197.39 971.38,-197.39 971.38,-137.39 630.38,-137.39"/>
<text text-anchor="start" x="641.38" y="-157.59" font-family="Helvetica,sans-Serif" font-size="32.00" fill="#29235c">tanggal_mulai &#160;&#160;&#160;</text>
<text text-anchor="start" x="898.12" y="-158.59" font-family="Helvetica,sans-Serif" font-style="italic" font-size="32.00" fill="#29235c">date</text>
<polygon fill="#e7e2dd" stroke="transparent" points="630.38,-77.39 630.38,-137.39 971.38,-137.39 971.38,-77.39 630.38,-77.39"/>
<polygon fill="none" stroke="#29235c" points="630.38,-77.39 630.38,-137.39 971.38,-137.39 971.38,-77.39 630.38,-77.39"/>
<text text-anchor="start" x="640.95" y="-97.59" font-family="Helvetica,sans-Serif" font-size="32.00" fill="#29235c">tanggal_selesai &#160;&#160;&#160;</text>
<text text-anchor="start" x="898.25" y="-98.59" font-family="Helvetica,sans-Serif" font-style="italic" font-size="32.00" fill="#29235c">date</text>
<polygon fill="none" stroke="#29235c" stroke-width="2" points="628.88,-76.39 628.88,-438.39 971.88,-438.39 971.88,-76.39 628.88,-76.39"/>
</g>
<!-- scrum_sprints -->
<g id="scrum_sprints" class="node">
<title>scrum_sprints</title>
<ellipse fill="none" stroke="black" stroke-width="0" cx="260.22" cy="-257.39" rx="260.43" ry="257.27"/>
<polygon fill="#1d71b8" stroke="transparent" points="78.22,-377.39 78.22,-437.39 442.22,-437.39 442.22,-377.39 78.22,-377.39"/>
<polygon fill="none" stroke="#29235c" points="78.22,-377.39 78.22,-437.39 442.22,-437.39 442.22,-377.39 78.22,-377.39"/>
<text text-anchor="start" x="98.41" y="-398.59" font-family="Helvetica,sans-Serif" font-weight="bold" font-size="32.00" fill="#ffffff"> &#160;&#160;&#160;&#160;&#160;&#160;scrum_sprints &#160;&#160;&#160;&#160;&#160;&#160;</text>
<polygon fill="#e7e2dd" stroke="transparent" points="78.22,-317.39 78.22,-377.39 442.22,-377.39 442.22,-317.39 78.22,-317.39"/>
<polygon fill="none" stroke="#29235c" points="78.22,-317.39 78.22,-377.39 442.22,-377.39 442.22,-317.39 78.22,-317.39"/>
<text text-anchor="start" x="89.22" y="-338.59" font-family="Helvetica,sans-Serif" font-weight="bold" font-size="32.00" fill="#29235c">id</text>
<text text-anchor="start" x="114.1" y="-338.59" font-family="Helvetica,sans-Serif" font-size="32.00" fill="#29235c"> &#160;&#160;&#160;</text>
<text text-anchor="start" x="397.43" y="-338.59" font-family="Helvetica,sans-Serif" font-style="italic" font-size="32.00" fill="#29235c">int</text>
<polygon fill="#e7e2dd" stroke="transparent" points="78.22,-257.39 78.22,-317.39 442.22,-317.39 442.22,-257.39 78.22,-257.39"/>
<polygon fill="none" stroke="#29235c" points="78.22,-257.39 78.22,-317.39 442.22,-317.39 442.22,-257.39 78.22,-257.39"/>
<text text-anchor="start" x="89.22" y="-277.59" font-family="Helvetica,sans-Serif" font-size="32.00" fill="#29235c">nama &#160;&#160;&#160;</text>
<text text-anchor="start" x="285.45" y="-278.59" font-family="Helvetica,sans-Serif" font-style="italic" font-size="32.00" fill="#29235c">varchar</text>
<text text-anchor="start" x="392.12" y="-278.59" font-family="Helvetica,sans-Serif" font-size="32.00" fill="#29235c"> </text>
<text text-anchor="start" x="401.02" y="-278.59" font-family="Helvetica,sans-Serif" font-weight="bold" font-size="32.00" fill="#29235c">(!)</text>
<polygon fill="#e7e2dd" stroke="transparent" points="78.22,-197.39 78.22,-257.39 442.22,-257.39 442.22,-197.39 78.22,-197.39"/>
<polygon fill="none" stroke="#29235c" points="78.22,-197.39 78.22,-257.39 442.22,-257.39 442.22,-197.39 78.22,-197.39"/>
<text text-anchor="start" x="89.22" y="-217.59" font-family="Helvetica,sans-Serif" font-size="32.00" fill="#29235c">project_id &#160;&#160;&#160;</text>
<text text-anchor="start" x="397.43" y="-218.59" font-family="Helvetica,sans-Serif" font-style="italic" font-size="32.00" fill="#29235c">int</text>
<polygon fill="#e7e2dd" stroke="transparent" points="78.22,-137.39 78.22,-197.39 442.22,-197.39 442.22,-137.39 78.22,-137.39"/>
<polygon fill="none" stroke="#29235c" points="78.22,-137.39 78.22,-197.39 442.22,-197.39 442.22,-137.39 78.22,-137.39"/>
<text text-anchor="start" x="89.22" y="-157.59" font-family="Helvetica,sans-Serif" font-size="32.00" fill="#29235c">created_at &#160;&#160;&#160;</text>
<text text-anchor="start" x="283.66" y="-158.59" font-family="Helvetica,sans-Serif" font-style="italic" font-size="32.00" fill="#29235c">timestamp</text>
<polygon fill="#e7e2dd" stroke="transparent" points="78.22,-77.39 78.22,-137.39 442.22,-137.39 442.22,-77.39 78.22,-77.39"/>
<polygon fill="none" stroke="#29235c" points="78.22,-77.39 78.22,-137.39 442.22,-137.39 442.22,-77.39 78.22,-77.39"/>
<text text-anchor="start" x="88.88" y="-97.59" font-family="Helvetica,sans-Serif" font-size="32.00" fill="#29235c">updated_at &#160;&#160;&#160;</text>
<text text-anchor="start" x="283.94" y="-98.59" font-family="Helvetica,sans-Serif" font-style="italic" font-size="32.00" fill="#29235c">timestamp</text>
<polygon fill="none" stroke="#29235c" stroke-width="2" points="77.22,-76.39 77.22,-438.39 443.22,-438.39 443.22,-76.39 77.22,-76.39"/>
</g>
<!-- scrum_sprints&#45;&gt;projects -->
<!-- scrum_sprints&#45;&gt;projects -->
<g id="edge2" class="edge">
<title>scrum_sprints:e&#45;&gt;projects:w</title>
<path fill="none" stroke="#29235c" stroke-width="3" d="M443.22,-227.39C538.1,-227.39 531.57,-338.87 619.13,-346.93"/>
<polygon fill="#29235c" stroke="#29235c" stroke-width="3" points="619.24,-350.44 629.38,-347.39 619.55,-343.44 619.24,-350.44"/>
<text text-anchor="middle" x="638.28" y="-356.99" font-family="Helvetica,sans-Serif" font-size="32.00" fill="#29235c">1</text>
<text text-anchor="middle" x="436.99" y="-198.59" font-family="Helvetica,sans-Serif" font-size="32.00" fill="#29235c">*</text>
</g>
</g>
</svg>
