<?xml version="1.0" encoding="UTF-8" standalone="no"?>
<!DOCTYPE svg PUBLIC "-//W3C//DTD SVG 1.1//EN"
 "http://www.w3.org/Graphics/SVG/1.1/DTD/svg11.dtd">
<!-- Generated by graphviz version 2.47.0 (20210316.0004)
 -->
<!-- Title: dbml Pages: 1 -->
<svg width="1692pt" height="762pt"
 viewBox="0.00 0.00 1692.20 761.83" xmlns="http://www.w3.org/2000/svg" xmlns:xlink="http://www.w3.org/1999/xlink">
<g id="graph0" class="graph" transform="scale(1 1) rotate(0) translate(4 757.83)">
<title>dbml</title>
<!-- projects -->
<g id="projects" class="node">
<title>projects</title>
<ellipse fill="none" stroke="black" stroke-width="0" cx="1423.99" cy="-382.06" rx="260.43" ry="342.48"/>
<polygon fill="#1d71b8" stroke="transparent" points="1241.99,-562.06 1241.99,-622.06 1605.99,-622.06 1605.99,-562.06 1241.99,-562.06"/>
<polygon fill="none" stroke="#29235c" points="1241.99,-562.06 1241.99,-622.06 1605.99,-622.06 1605.99,-562.06 1241.99,-562.06"/>
<text text-anchor="start" x="1305.73" y="-583.26" font-family="Helvetica,sans-Serif" font-weight="bold" font-size="32.00" fill="#ffffff"> &#160;&#160;&#160;&#160;&#160;&#160;projects &#160;&#160;&#160;&#160;&#160;&#160;</text>
<polygon fill="#e7e2dd" stroke="transparent" points="1241.99,-502.06 1241.99,-562.06 1605.99,-562.06 1605.99,-502.06 1241.99,-502.06"/>
<polygon fill="none" stroke="#29235c" points="1241.99,-502.06 1241.99,-562.06 1605.99,-562.06 1605.99,-502.06 1241.99,-502.06"/>
<text text-anchor="start" x="1252.99" y="-523.26" font-family="Helvetica,sans-Serif" font-weight="bold" font-size="32.00" fill="#29235c">id</text>
<text text-anchor="start" x="1277.88" y="-523.26" font-family="Helvetica,sans-Serif" font-size="32.00" fill="#29235c"> &#160;&#160;&#160;</text>
<text text-anchor="start" x="1561.21" y="-523.26" font-family="Helvetica,sans-Serif" font-style="italic" font-size="32.00" fill="#29235c">int</text>
<polygon fill="#e7e2dd" stroke="transparent" points="1241.99,-442.06 1241.99,-502.06 1605.99,-502.06 1605.99,-442.06 1241.99,-442.06"/>
<polygon fill="none" stroke="#29235c" points="1241.99,-442.06 1241.99,-502.06 1605.99,-502.06 1605.99,-442.06 1241.99,-442.06"/>
<text text-anchor="start" x="1252.99" y="-462.26" font-family="Helvetica,sans-Serif" font-size="32.00" fill="#29235c">nama &#160;&#160;&#160;</text>
<text text-anchor="start" x="1449.22" y="-463.26" font-family="Helvetica,sans-Serif" font-style="italic" font-size="32.00" fill="#29235c">varchar</text>
<text text-anchor="start" x="1555.9" y="-463.26" font-family="Helvetica,sans-Serif" font-size="32.00" fill="#29235c"> </text>
<text text-anchor="start" x="1564.79" y="-463.26" font-family="Helvetica,sans-Serif" font-weight="bold" font-size="32.00" fill="#29235c">(!)</text>
<polygon fill="#e7e2dd" stroke="transparent" points="1241.99,-382.06 1241.99,-442.06 1605.99,-442.06 1605.99,-382.06 1241.99,-382.06"/>
<polygon fill="none" stroke="#29235c" points="1241.99,-382.06 1241.99,-442.06 1605.99,-442.06 1605.99,-382.06 1241.99,-382.06"/>
<text text-anchor="start" x="1252.99" y="-402.26" font-family="Helvetica,sans-Serif" font-size="32.00" fill="#29235c">deskripsi &#160;&#160;&#160;</text>
<text text-anchor="start" x="1543.41" y="-403.26" font-family="Helvetica,sans-Serif" font-style="italic" font-size="32.00" fill="#29235c">text</text>
<polygon fill="#e7e2dd" stroke="transparent" points="1241.99,-322.06 1241.99,-382.06 1605.99,-382.06 1605.99,-322.06 1241.99,-322.06"/>
<polygon fill="none" stroke="#29235c" points="1241.99,-322.06 1241.99,-382.06 1605.99,-382.06 1605.99,-322.06 1241.99,-322.06"/>
<text text-anchor="start" x="1252.99" y="-342.26" font-family="Helvetica,sans-Serif" font-size="32.00" fill="#29235c">tanggal_mulai &#160;&#160;&#160;</text>
<text text-anchor="start" x="1532.73" y="-343.26" font-family="Helvetica,sans-Serif" font-style="italic" font-size="32.00" fill="#29235c">date</text>
<polygon fill="#e7e2dd" stroke="transparent" points="1241.99,-262.06 1241.99,-322.06 1605.99,-322.06 1605.99,-262.06 1241.99,-262.06"/>
<polygon fill="none" stroke="#29235c" points="1241.99,-262.06 1241.99,-322.06 1605.99,-322.06 1605.99,-262.06 1241.99,-262.06"/>
<text text-anchor="start" x="1252.99" y="-282.26" font-family="Helvetica,sans-Serif" font-size="32.00" fill="#29235c">tanggal_selesai &#160;&#160;&#160;</text>
<text text-anchor="start" x="1532.73" y="-283.26" font-family="Helvetica,sans-Serif" font-style="italic" font-size="32.00" fill="#29235c">date</text>
<polygon fill="#e7e2dd" stroke="transparent" points="1241.99,-202.06 1241.99,-262.06 1605.99,-262.06 1605.99,-202.06 1241.99,-202.06"/>
<polygon fill="none" stroke="#29235c" points="1241.99,-202.06 1241.99,-262.06 1605.99,-262.06 1605.99,-202.06 1241.99,-202.06"/>
<text text-anchor="start" x="1252.99" y="-222.26" font-family="Helvetica,sans-Serif" font-size="32.00" fill="#29235c">created_at &#160;&#160;&#160;</text>
<text text-anchor="start" x="1447.43" y="-223.26" font-family="Helvetica,sans-Serif" font-style="italic" font-size="32.00" fill="#29235c">timestamp</text>
<polygon fill="#e7e2dd" stroke="transparent" points="1241.99,-142.06 1241.99,-202.06 1605.99,-202.06 1605.99,-142.06 1241.99,-142.06"/>
<polygon fill="none" stroke="#29235c" points="1241.99,-142.06 1241.99,-202.06 1605.99,-202.06 1605.99,-142.06 1241.99,-142.06"/>
<text text-anchor="start" x="1252.65" y="-162.26" font-family="Helvetica,sans-Serif" font-size="32.00" fill="#29235c">updated_at &#160;&#160;&#160;</text>
<text text-anchor="start" x="1447.71" y="-163.26" font-family="Helvetica,sans-Serif" font-style="italic" font-size="32.00" fill="#29235c">timestamp</text>
<polygon fill="none" stroke="#29235c" stroke-width="2" points="1240.99,-141.06 1240.99,-623.06 1606.99,-623.06 1606.99,-141.06 1240.99,-141.06"/>
</g>
<!-- dokumens -->
<g id="dokumens" class="node">
<title>dokumens</title>
<ellipse fill="none" stroke="black" stroke-width="0" cx="867.56" cy="-412.06" rx="260.43" ry="299.63"/>
<polygon fill="#1d71b8" stroke="transparent" points="685.56,-562.06 685.56,-622.06 1049.56,-622.06 1049.56,-562.06 685.56,-562.06"/>
<polygon fill="none" stroke="#29235c" points="685.56,-562.06 685.56,-622.06 1049.56,-622.06 1049.56,-562.06 685.56,-562.06"/>
<text text-anchor="start" x="731.51" y="-583.26" font-family="Helvetica,sans-Serif" font-weight="bold" font-size="32.00" fill="#ffffff"> &#160;&#160;&#160;&#160;&#160;&#160;dokumens &#160;&#160;&#160;&#160;&#160;&#160;</text>
<polygon fill="#e7e2dd" stroke="transparent" points="685.56,-502.06 685.56,-562.06 1049.56,-562.06 1049.56,-502.06 685.56,-502.06"/>
<polygon fill="none" stroke="#29235c" points="685.56,-502.06 685.56,-562.06 1049.56,-562.06 1049.56,-502.06 685.56,-502.06"/>
<text text-anchor="start" x="696.56" y="-523.26" font-family="Helvetica,sans-Serif" font-weight="bold" font-size="32.00" fill="#29235c">id</text>
<text text-anchor="start" x="721.45" y="-523.26" font-family="Helvetica,sans-Serif" font-size="32.00" fill="#29235c"> &#160;&#160;&#160;</text>
<text text-anchor="start" x="1004.78" y="-523.26" font-family="Helvetica,sans-Serif" font-style="italic" font-size="32.00" fill="#29235c">int</text>
<polygon fill="#e7e2dd" stroke="transparent" points="685.56,-442.06 685.56,-502.06 1049.56,-502.06 1049.56,-442.06 685.56,-442.06"/>
<polygon fill="none" stroke="#29235c" points="685.56,-442.06 685.56,-502.06 1049.56,-502.06 1049.56,-442.06 685.56,-442.06"/>
<text text-anchor="start" x="696.56" y="-462.26" font-family="Helvetica,sans-Serif" font-size="32.00" fill="#29235c">project_id &#160;&#160;&#160;</text>
<text text-anchor="start" x="1004.78" y="-463.26" font-family="Helvetica,sans-Serif" font-style="italic" font-size="32.00" fill="#29235c">int</text>
<polygon fill="#e7e2dd" stroke="transparent" points="685.56,-382.06 685.56,-442.06 1049.56,-442.06 1049.56,-382.06 685.56,-382.06"/>
<polygon fill="none" stroke="#29235c" points="685.56,-382.06 685.56,-442.06 1049.56,-442.06 1049.56,-382.06 685.56,-382.06"/>
<text text-anchor="start" x="696.56" y="-402.26" font-family="Helvetica,sans-Serif" font-size="32.00" fill="#29235c">nama &#160;&#160;&#160;</text>
<text text-anchor="start" x="931.89" y="-403.26" font-family="Helvetica,sans-Serif" font-style="italic" font-size="32.00" fill="#29235c">varchar</text>
<polygon fill="#e7e2dd" stroke="transparent" points="685.56,-322.06 685.56,-382.06 1049.56,-382.06 1049.56,-322.06 685.56,-322.06"/>
<polygon fill="none" stroke="#29235c" points="685.56,-322.06 685.56,-382.06 1049.56,-382.06 1049.56,-322.06 685.56,-322.06"/>
<text text-anchor="start" x="696.56" y="-342.26" font-family="Helvetica,sans-Serif" font-size="32.00" fill="#29235c">kode &#160;&#160;&#160;</text>
<text text-anchor="start" x="931.89" y="-343.26" font-family="Helvetica,sans-Serif" font-style="italic" font-size="32.00" fill="#29235c">varchar</text>
<polygon fill="#e7e2dd" stroke="transparent" points="685.56,-262.06 685.56,-322.06 1049.56,-322.06 1049.56,-262.06 685.56,-262.06"/>
<polygon fill="none" stroke="#29235c" points="685.56,-262.06 685.56,-322.06 1049.56,-322.06 1049.56,-262.06 685.56,-262.06"/>
<text text-anchor="start" x="696.56" y="-282.26" font-family="Helvetica,sans-Serif" font-size="32.00" fill="#29235c">created_at &#160;&#160;&#160;</text>
<text text-anchor="start" x="891" y="-283.26" font-family="Helvetica,sans-Serif" font-style="italic" font-size="32.00" fill="#29235c">timestamp</text>
<polygon fill="#e7e2dd" stroke="transparent" points="685.56,-202.06 685.56,-262.06 1049.56,-262.06 1049.56,-202.06 685.56,-202.06"/>
<polygon fill="none" stroke="#29235c" points="685.56,-202.06 685.56,-262.06 1049.56,-262.06 1049.56,-202.06 685.56,-202.06"/>
<text text-anchor="start" x="696.22" y="-222.26" font-family="Helvetica,sans-Serif" font-size="32.00" fill="#29235c">updated_at &#160;&#160;&#160;</text>
<text text-anchor="start" x="891.28" y="-223.26" font-family="Helvetica,sans-Serif" font-style="italic" font-size="32.00" fill="#29235c">timestamp</text>
<polygon fill="none" stroke="#29235c" stroke-width="2" points="684.56,-201.06 684.56,-623.06 1050.56,-623.06 1050.56,-201.06 684.56,-201.06"/>
</g>
<!-- dokumens&#45;&gt;projects -->
<!-- dokumens&#45;&gt;projects -->
<g id="edge2" class="edge">
<title>dokumens:e&#45;&gt;projects:w</title>
<path fill="none" stroke="#29235c" stroke-width="3" d="M1050.56,-472.06C1135.83,-472.06 1151.12,-527.46 1230.93,-531.79"/>
<polygon fill="#29235c" stroke="#29235c" stroke-width="3" points="1230.9,-535.29 1240.99,-532.06 1231.08,-528.29 1230.9,-535.29"/>
<text text-anchor="middle" x="1232.09" y="-541.66" font-family="Helvetica,sans-Serif" font-size="32.00" fill="#29235c">1</text>
<text text-anchor="middle" x="1041.66" y="-481.66" font-family="Helvetica,sans-Serif" font-size="32.00" fill="#29235c">1</text>
</g>
<!-- scrum_user_story -->
<g id="scrum_user_story" class="node">
<title>scrum_user_story</title>
<ellipse fill="none" stroke="black" stroke-width="0" cx="285.67" cy="-472.06" rx="285.84" ry="257.27"/>
<polygon fill="#1d71b8" stroke="transparent" points="85.67,-592.06 85.67,-652.06 485.67,-652.06 485.67,-592.06 85.67,-592.06"/>
<polygon fill="none" stroke="#29235c" points="85.67,-592.06 85.67,-652.06 485.67,-652.06 485.67,-592.06 85.67,-592.06"/>
<text text-anchor="start" x="96.3" y="-613.26" font-family="Helvetica,sans-Serif" font-weight="bold" font-size="32.00" fill="#ffffff"> &#160;&#160;&#160;&#160;&#160;&#160;scrum_user_story &#160;&#160;&#160;&#160;&#160;&#160;</text>
<polygon fill="#e7e2dd" stroke="transparent" points="85.67,-532.06 85.67,-592.06 485.67,-592.06 485.67,-532.06 85.67,-532.06"/>
<polygon fill="none" stroke="#29235c" points="85.67,-532.06 85.67,-592.06 485.67,-592.06 485.67,-532.06 85.67,-532.06"/>
<text text-anchor="start" x="96.67" y="-553.26" font-family="Helvetica,sans-Serif" font-weight="bold" font-size="32.00" fill="#29235c">id</text>
<text text-anchor="start" x="121.56" y="-553.26" font-family="Helvetica,sans-Serif" font-size="32.00" fill="#29235c"> &#160;&#160;&#160;</text>
<text text-anchor="start" x="440.89" y="-553.26" font-family="Helvetica,sans-Serif" font-style="italic" font-size="32.00" fill="#29235c">int</text>
<polygon fill="#e7e2dd" stroke="transparent" points="85.67,-472.06 85.67,-532.06 485.67,-532.06 485.67,-472.06 85.67,-472.06"/>
<polygon fill="none" stroke="#29235c" points="85.67,-472.06 85.67,-532.06 485.67,-532.06 485.67,-472.06 85.67,-472.06"/>
<text text-anchor="start" x="96.67" y="-492.26" font-family="Helvetica,sans-Serif" font-size="32.00" fill="#29235c">dokumen_id &#160;&#160;&#160;</text>
<text text-anchor="start" x="440.89" y="-493.26" font-family="Helvetica,sans-Serif" font-style="italic" font-size="32.00" fill="#29235c">int</text>
<polygon fill="#e7e2dd" stroke="transparent" points="85.67,-412.06 85.67,-472.06 485.67,-472.06 485.67,-412.06 85.67,-412.06"/>
<polygon fill="none" stroke="#29235c" points="85.67,-412.06 85.67,-472.06 485.67,-472.06 485.67,-412.06 85.67,-412.06"/>
<text text-anchor="start" x="96.67" y="-432.26" font-family="Helvetica,sans-Serif" font-size="32.00" fill="#29235c">project_id &#160;&#160;&#160;</text>
<text text-anchor="start" x="440.89" y="-433.26" font-family="Helvetica,sans-Serif" font-style="italic" font-size="32.00" fill="#29235c">int</text>
<polygon fill="#e7e2dd" stroke="transparent" points="85.67,-352.06 85.67,-412.06 485.67,-412.06 485.67,-352.06 85.67,-352.06"/>
<polygon fill="none" stroke="#29235c" points="85.67,-352.06 85.67,-412.06 485.67,-412.06 485.67,-352.06 85.67,-352.06"/>
<text text-anchor="start" x="96.67" y="-372.26" font-family="Helvetica,sans-Serif" font-size="32.00" fill="#29235c">nama &#160;&#160;&#160;</text>
<text text-anchor="start" x="368" y="-373.26" font-family="Helvetica,sans-Serif" font-style="italic" font-size="32.00" fill="#29235c">varchar</text>
<polygon fill="#e7e2dd" stroke="transparent" points="85.67,-292.06 85.67,-352.06 485.67,-352.06 485.67,-292.06 85.67,-292.06"/>
<polygon fill="none" stroke="#29235c" points="85.67,-292.06 85.67,-352.06 485.67,-352.06 485.67,-292.06 85.67,-292.06"/>
<text text-anchor="start" x="96.67" y="-312.26" font-family="Helvetica,sans-Serif" font-size="32.00" fill="#29235c">kode &#160;&#160;&#160;</text>
<text text-anchor="start" x="368" y="-313.26" font-family="Helvetica,sans-Serif" font-style="italic" font-size="32.00" fill="#29235c">varchar</text>
<polygon fill="none" stroke="#29235c" stroke-width="2" points="84.67,-291.06 84.67,-653.06 486.67,-653.06 486.67,-291.06 84.67,-291.06"/>
</g>
<!-- scrum_user_story&#45;&gt;projects -->
<!-- scrum_user_story&#45;&gt;projects -->
<g id="edge6" class="edge">
<title>scrum_user_story:e&#45;&gt;projects:w</title>
<path fill="none" stroke="#29235c" stroke-width="3" d="M486.67,-442.06C646.6,-442.06 476.66,-195.25 607.34,-103.06 796.34,30.28 944.53,38.1 1127.77,-103.06 1281.24,-221.28 1052.12,-521.26 1230.99,-531.77"/>
<polygon fill="#29235c" stroke="#29235c" stroke-width="3" points="1230.89,-535.27 1240.99,-532.06 1231.09,-528.28 1230.89,-535.27"/>
<text text-anchor="middle" x="1249.88" y="-541.66" font-family="Helvetica,sans-Serif" font-size="32.00" fill="#29235c">1</text>
<text text-anchor="middle" x="480.45" y="-451.66" font-family="Helvetica,sans-Serif" font-size="32.00" fill="#29235c">*</text>
</g>
<!-- scrum_user_story&#45;&gt;dokumens -->
<!-- scrum_user_story&#45;&gt;dokumens -->
<g id="edge4" class="edge">
<title>scrum_user_story:e&#45;&gt;dokumens:w</title>
<path fill="none" stroke="#29235c" stroke-width="3" d="M486.67,-502.06C572.15,-502.06 593.94,-529.76 674.44,-531.92"/>
<polygon fill="#29235c" stroke="#29235c" stroke-width="3" points="674.51,-535.43 684.56,-532.06 674.6,-528.43 674.51,-535.43"/>
<text text-anchor="middle" x="675.66" y="-541.66" font-family="Helvetica,sans-Serif" font-size="32.00" fill="#29235c">1</text>
<text text-anchor="middle" x="480.45" y="-511.66" font-family="Helvetica,sans-Serif" font-size="32.00" fill="#29235c">*</text>
</g>
</g>
</svg>
