<?xml version="1.0" encoding="UTF-8" standalone="no"?>
<!DOCTYPE svg PUBLIC "-//W3C//DTD SVG 1.1//EN"
 "http://www.w3.org/Graphics/SVG/1.1/DTD/svg11.dtd">
<!-- Generated by graphviz version 2.47.0 (20210316.0004)
 -->
<!-- Title: dbml Pages: 1 -->
<svg width="1096pt" height="569pt"
 viewBox="0.00 0.00 1096.17 569.07" xmlns="http://www.w3.org/2000/svg" xmlns:xlink="http://www.w3.org/1999/xlink">
<g id="graph0" class="graph" transform="scale(1 1) rotate(0) translate(4 565.07)">
<title>dbml</title>
<!-- sop -->
<g id="sop" class="node">
<title>sop</title>
<ellipse fill="none" stroke="black" stroke-width="0" cx="827.96" cy="-257.39" rx="260.43" ry="257.27"/>
<polygon fill="#1d71b8" stroke="transparent" points="645.96,-377.39 645.96,-437.39 1009.96,-437.39 1009.96,-377.39 645.96,-377.39"/>
<polygon fill="none" stroke="#29235c" points="645.96,-377.39 645.96,-437.39 1009.96,-437.39 1009.96,-377.39 645.96,-377.39"/>
<text text-anchor="start" x="739.92" y="-398.59" font-family="Helvetica,sans-Serif" font-weight="bold" font-size="32.00" fill="#ffffff"> &#160;&#160;&#160;&#160;&#160;&#160;sop &#160;&#160;&#160;&#160;&#160;&#160;</text>
<polygon fill="#e7e2dd" stroke="transparent" points="645.96,-317.39 645.96,-377.39 1009.96,-377.39 1009.96,-317.39 645.96,-317.39"/>
<polygon fill="none" stroke="#29235c" points="645.96,-317.39 645.96,-377.39 1009.96,-377.39 1009.96,-317.39 645.96,-317.39"/>
<text text-anchor="start" x="656.96" y="-338.59" font-family="Helvetica,sans-Serif" font-weight="bold" font-size="32.00" fill="#29235c">id</text>
<text text-anchor="start" x="681.85" y="-338.59" font-family="Helvetica,sans-Serif" font-size="32.00" fill="#29235c"> &#160;&#160;&#160;</text>
<text text-anchor="start" x="965.18" y="-338.59" font-family="Helvetica,sans-Serif" font-style="italic" font-size="32.00" fill="#29235c">int</text>
<polygon fill="#e7e2dd" stroke="transparent" points="645.96,-257.39 645.96,-317.39 1009.96,-317.39 1009.96,-257.39 645.96,-257.39"/>
<polygon fill="none" stroke="#29235c" points="645.96,-257.39 645.96,-317.39 1009.96,-317.39 1009.96,-257.39 645.96,-257.39"/>
<text text-anchor="start" x="656.96" y="-277.59" font-family="Helvetica,sans-Serif" font-size="32.00" fill="#29235c">title &#160;&#160;&#160;</text>
<text text-anchor="start" x="853.2" y="-278.59" font-family="Helvetica,sans-Serif" font-style="italic" font-size="32.00" fill="#29235c">varchar</text>
<text text-anchor="start" x="959.87" y="-278.59" font-family="Helvetica,sans-Serif" font-size="32.00" fill="#29235c"> </text>
<text text-anchor="start" x="968.76" y="-278.59" font-family="Helvetica,sans-Serif" font-weight="bold" font-size="32.00" fill="#29235c">(!)</text>
<polygon fill="#e7e2dd" stroke="transparent" points="645.96,-197.39 645.96,-257.39 1009.96,-257.39 1009.96,-197.39 645.96,-197.39"/>
<polygon fill="none" stroke="#29235c" points="645.96,-197.39 645.96,-257.39 1009.96,-257.39 1009.96,-197.39 645.96,-197.39"/>
<text text-anchor="start" x="656.96" y="-217.59" font-family="Helvetica,sans-Serif" font-size="32.00" fill="#29235c">content &#160;&#160;&#160;</text>
<text text-anchor="start" x="922.49" y="-218.59" font-family="Helvetica,sans-Serif" font-style="italic" font-size="32.00" fill="#29235c">jsonb</text>
<polygon fill="#e7e2dd" stroke="transparent" points="645.96,-137.39 645.96,-197.39 1009.96,-197.39 1009.96,-137.39 645.96,-137.39"/>
<polygon fill="none" stroke="#29235c" points="645.96,-137.39 645.96,-197.39 1009.96,-197.39 1009.96,-137.39 645.96,-137.39"/>
<text text-anchor="start" x="656.96" y="-157.59" font-family="Helvetica,sans-Serif" font-size="32.00" fill="#29235c">created_at &#160;&#160;&#160;</text>
<text text-anchor="start" x="851.4" y="-158.59" font-family="Helvetica,sans-Serif" font-style="italic" font-size="32.00" fill="#29235c">timestamp</text>
<polygon fill="#e7e2dd" stroke="transparent" points="645.96,-77.39 645.96,-137.39 1009.96,-137.39 1009.96,-77.39 645.96,-77.39"/>
<polygon fill="none" stroke="#29235c" points="645.96,-77.39 645.96,-137.39 1009.96,-137.39 1009.96,-77.39 645.96,-77.39"/>
<text text-anchor="start" x="656.63" y="-97.59" font-family="Helvetica,sans-Serif" font-size="32.00" fill="#29235c">updated_at &#160;&#160;&#160;</text>
<text text-anchor="start" x="851.68" y="-98.59" font-family="Helvetica,sans-Serif" font-style="italic" font-size="32.00" fill="#29235c">timestamp</text>
<polygon fill="none" stroke="#29235c" stroke-width="2" points="644.96,-76.39 644.96,-438.39 1010.96,-438.39 1010.96,-76.39 644.96,-76.39"/>
</g>
<!-- sop_documents -->
<g id="sop_documents" class="node">
<title>sop_documents</title>
<ellipse fill="none" stroke="black" stroke-width="0" cx="265.87" cy="-473.39" rx="265.74" ry="87.86"/>
<polygon fill="#1d71b8" stroke="transparent" points="79.87,-473.39 79.87,-533.39 451.87,-533.39 451.87,-473.39 79.87,-473.39"/>
<polygon fill="none" stroke="#29235c" points="79.87,-473.39 79.87,-533.39 451.87,-533.39 451.87,-473.39 79.87,-473.39"/>
<text text-anchor="start" x="90.69" y="-494.59" font-family="Helvetica,sans-Serif" font-weight="bold" font-size="32.00" fill="#ffffff"> &#160;&#160;&#160;&#160;&#160;&#160;sop_documents &#160;&#160;&#160;&#160;&#160;&#160;</text>
<polygon fill="#e7e2dd" stroke="transparent" points="79.87,-413.39 79.87,-473.39 451.87,-473.39 451.87,-413.39 79.87,-413.39"/>
<polygon fill="none" stroke="#29235c" points="79.87,-413.39 79.87,-473.39 451.87,-473.39 451.87,-413.39 79.87,-413.39"/>
<text text-anchor="start" x="90.87" y="-433.59" font-family="Helvetica,sans-Serif" font-size="32.00" fill="#29235c">sop_id &#160;&#160;&#160;</text>
<text text-anchor="start" x="407.09" y="-434.59" font-family="Helvetica,sans-Serif" font-style="italic" font-size="32.00" fill="#29235c">int</text>
<polygon fill="none" stroke="#29235c" stroke-width="2" points="78.87,-412.39 78.87,-534.39 452.87,-534.39 452.87,-412.39 78.87,-412.39"/>
</g>
<!-- sop_documents&#45;&gt;sop -->
<!-- sop_documents&#45;&gt;sop -->
<g id="edge2" class="edge">
<title>sop_documents:e&#45;&gt;sop:w</title>
<path fill="none" stroke="#29235c" stroke-width="3" d="M452.87,-443.39C544.77,-443.39 549.3,-354.38 634.71,-347.77"/>
<polygon fill="#29235c" stroke="#29235c" stroke-width="3" points="635.1,-351.26 644.96,-347.39 634.83,-344.27 635.1,-351.26"/>
<text text-anchor="middle" x="653.85" y="-347.39" font-family="Helvetica,sans-Serif" font-size="32.00" fill="#29235c">1</text>
<text text-anchor="middle" x="446.65" y="-452.99" font-family="Helvetica,sans-Serif" font-size="32.00" fill="#29235c">*</text>
</g>
<!-- sop_positions -->
<g id="sop_positions" class="node">
<title>sop_positions</title>
<ellipse fill="none" stroke="black" stroke-width="0" cx="265.87" cy="-280.39" rx="244.82" ry="87.86"/>
<polygon fill="#1d71b8" stroke="transparent" points="94.87,-280.39 94.87,-340.39 436.87,-340.39 436.87,-280.39 94.87,-280.39"/>
<polygon fill="none" stroke="#29235c" points="94.87,-280.39 94.87,-340.39 436.87,-340.39 436.87,-280.39 94.87,-280.39"/>
<text text-anchor="start" x="105.81" y="-301.59" font-family="Helvetica,sans-Serif" font-weight="bold" font-size="32.00" fill="#ffffff"> &#160;&#160;&#160;&#160;&#160;&#160;sop_positions &#160;&#160;&#160;&#160;&#160;&#160;</text>
<polygon fill="#e7e2dd" stroke="transparent" points="94.87,-220.39 94.87,-280.39 436.87,-280.39 436.87,-220.39 94.87,-220.39"/>
<polygon fill="none" stroke="#29235c" points="94.87,-220.39 94.87,-280.39 436.87,-280.39 436.87,-220.39 94.87,-220.39"/>
<text text-anchor="start" x="105.87" y="-240.59" font-family="Helvetica,sans-Serif" font-size="32.00" fill="#29235c">sop_id &#160;&#160;&#160;</text>
<text text-anchor="start" x="392.09" y="-241.59" font-family="Helvetica,sans-Serif" font-style="italic" font-size="32.00" fill="#29235c">int</text>
<polygon fill="none" stroke="#29235c" stroke-width="2" points="93.87,-219.39 93.87,-341.39 437.87,-341.39 437.87,-219.39 93.87,-219.39"/>
</g>
<!-- sop_positions&#45;&gt;sop -->
<!-- sop_positions&#45;&gt;sop -->
<g id="edge4" class="edge">
<title>sop_positions:e&#45;&gt;sop:w</title>
<path fill="none" stroke="#29235c" stroke-width="3" d="M437.87,-250.39C536.03,-250.39 542.95,-340.87 634.87,-347.05"/>
<polygon fill="#29235c" stroke="#29235c" stroke-width="3" points="634.85,-350.56 644.96,-347.39 635.08,-343.56 634.85,-350.56"/>
<text text-anchor="middle" x="636.07" y="-318.59" font-family="Helvetica,sans-Serif" font-size="32.00" fill="#29235c">1</text>
<text text-anchor="middle" x="431.65" y="-221.59" font-family="Helvetica,sans-Serif" font-size="32.00" fill="#29235c">*</text>
</g>
</g>
</svg>
