<?xml version="1.0" encoding="UTF-8" standalone="no"?>
<!DOCTYPE svg PUBLIC "-//W3C//DTD SVG 1.1//EN"
 "http://www.w3.org/Graphics/SVG/1.1/DTD/svg11.dtd">
<!-- Generated by graphviz version 2.47.0 (20210316.0004)
 -->
<!-- Title: dbml Pages: 1 -->
<svg width="1096pt" height="714pt"
 viewBox="0.00 0.00 1096.17 713.92" xmlns="http://www.w3.org/2000/svg" xmlns:xlink="http://www.w3.org/1999/xlink">
<g id="graph0" class="graph" transform="scale(1 1) rotate(0) translate(4 709.92)">
<title>dbml</title>
<!-- sop -->
<g id="sop" class="node">
<title>sop</title>
<ellipse fill="none" stroke="black" stroke-width="0" cx="827.96" cy="-342.24" rx="260.43" ry="342.48"/>
<polygon fill="#1d71b8" stroke="transparent" points="645.96,-522.24 645.96,-582.24 1009.96,-582.24 1009.96,-522.24 645.96,-522.24"/>
<polygon fill="none" stroke="#29235c" points="645.96,-522.24 645.96,-582.24 1009.96,-582.24 1009.96,-522.24 645.96,-522.24"/>
<text text-anchor="start" x="739.92" y="-543.44" font-family="Helvetica,sans-Serif" font-weight="bold" font-size="32.00" fill="#ffffff"> &#160;&#160;&#160;&#160;&#160;&#160;sop &#160;&#160;&#160;&#160;&#160;&#160;</text>
<polygon fill="#e7e2dd" stroke="transparent" points="645.96,-462.24 645.96,-522.24 1009.96,-522.24 1009.96,-462.24 645.96,-462.24"/>
<polygon fill="none" stroke="#29235c" points="645.96,-462.24 645.96,-522.24 1009.96,-522.24 1009.96,-462.24 645.96,-462.24"/>
<text text-anchor="start" x="656.96" y="-483.44" font-family="Helvetica,sans-Serif" font-weight="bold" font-size="32.00" fill="#29235c">id</text>
<text text-anchor="start" x="681.85" y="-483.44" font-family="Helvetica,sans-Serif" font-size="32.00" fill="#29235c"> &#160;&#160;&#160;</text>
<text text-anchor="start" x="965.18" y="-483.44" font-family="Helvetica,sans-Serif" font-style="italic" font-size="32.00" fill="#29235c">int</text>
<polygon fill="#e7e2dd" stroke="transparent" points="645.96,-402.24 645.96,-462.24 1009.96,-462.24 1009.96,-402.24 645.96,-402.24"/>
<polygon fill="none" stroke="#29235c" points="645.96,-402.24 645.96,-462.24 1009.96,-462.24 1009.96,-402.24 645.96,-402.24"/>
<text text-anchor="start" x="656.96" y="-422.44" font-family="Helvetica,sans-Serif" font-size="32.00" fill="#29235c">title &#160;&#160;&#160;</text>
<text text-anchor="start" x="853.2" y="-423.44" font-family="Helvetica,sans-Serif" font-style="italic" font-size="32.00" fill="#29235c">varchar</text>
<text text-anchor="start" x="959.87" y="-423.44" font-family="Helvetica,sans-Serif" font-size="32.00" fill="#29235c"> </text>
<text text-anchor="start" x="968.76" y="-423.44" font-family="Helvetica,sans-Serif" font-weight="bold" font-size="32.00" fill="#29235c">(!)</text>
<polygon fill="#e7e2dd" stroke="transparent" points="645.96,-342.24 645.96,-402.24 1009.96,-402.24 1009.96,-342.24 645.96,-342.24"/>
<polygon fill="none" stroke="#29235c" points="645.96,-342.24 645.96,-402.24 1009.96,-402.24 1009.96,-342.24 645.96,-342.24"/>
<text text-anchor="start" x="656.96" y="-362.44" font-family="Helvetica,sans-Serif" font-size="32.00" fill="#29235c">code &#160;&#160;&#160;</text>
<text text-anchor="start" x="892.29" y="-363.44" font-family="Helvetica,sans-Serif" font-style="italic" font-size="32.00" fill="#29235c">varchar</text>
<polygon fill="#e7e2dd" stroke="transparent" points="645.96,-282.24 645.96,-342.24 1009.96,-342.24 1009.96,-282.24 645.96,-282.24"/>
<polygon fill="none" stroke="#29235c" points="645.96,-282.24 645.96,-342.24 1009.96,-342.24 1009.96,-282.24 645.96,-282.24"/>
<text text-anchor="start" x="656.96" y="-302.44" font-family="Helvetica,sans-Serif" font-size="32.00" fill="#29235c">position_ids &#160;&#160;&#160;</text>
<text text-anchor="start" x="947.39" y="-303.44" font-family="Helvetica,sans-Serif" font-style="italic" font-size="32.00" fill="#29235c">int[]</text>
<polygon fill="#e7e2dd" stroke="transparent" points="645.96,-222.24 645.96,-282.24 1009.96,-282.24 1009.96,-222.24 645.96,-222.24"/>
<polygon fill="none" stroke="#29235c" points="645.96,-222.24 645.96,-282.24 1009.96,-282.24 1009.96,-222.24 645.96,-222.24"/>
<text text-anchor="start" x="656.96" y="-242.44" font-family="Helvetica,sans-Serif" font-size="32.00" fill="#29235c">content &#160;&#160;&#160;</text>
<text text-anchor="start" x="922.49" y="-243.44" font-family="Helvetica,sans-Serif" font-style="italic" font-size="32.00" fill="#29235c">jsonb</text>
<polygon fill="#e7e2dd" stroke="transparent" points="645.96,-162.24 645.96,-222.24 1009.96,-222.24 1009.96,-162.24 645.96,-162.24"/>
<polygon fill="none" stroke="#29235c" points="645.96,-162.24 645.96,-222.24 1009.96,-222.24 1009.96,-162.24 645.96,-162.24"/>
<text text-anchor="start" x="656.96" y="-182.44" font-family="Helvetica,sans-Serif" font-size="32.00" fill="#29235c">created_at &#160;&#160;&#160;</text>
<text text-anchor="start" x="851.4" y="-183.44" font-family="Helvetica,sans-Serif" font-style="italic" font-size="32.00" fill="#29235c">timestamp</text>
<polygon fill="#e7e2dd" stroke="transparent" points="645.96,-102.24 645.96,-162.24 1009.96,-162.24 1009.96,-102.24 645.96,-102.24"/>
<polygon fill="none" stroke="#29235c" points="645.96,-102.24 645.96,-162.24 1009.96,-162.24 1009.96,-102.24 645.96,-102.24"/>
<text text-anchor="start" x="656.63" y="-122.44" font-family="Helvetica,sans-Serif" font-size="32.00" fill="#29235c">updated_at &#160;&#160;&#160;</text>
<text text-anchor="start" x="851.68" y="-123.44" font-family="Helvetica,sans-Serif" font-style="italic" font-size="32.00" fill="#29235c">timestamp</text>
<polygon fill="none" stroke="#29235c" stroke-width="2" points="644.96,-101.24 644.96,-583.24 1010.96,-583.24 1010.96,-101.24 644.96,-101.24"/>
</g>
<!-- sop_documents -->
<g id="sop_documents" class="node">
<title>sop_documents</title>
<ellipse fill="none" stroke="black" stroke-width="0" cx="265.87" cy="-618.24" rx="265.74" ry="87.86"/>
<polygon fill="#1d71b8" stroke="transparent" points="79.87,-618.24 79.87,-678.24 451.87,-678.24 451.87,-618.24 79.87,-618.24"/>
<polygon fill="none" stroke="#29235c" points="79.87,-618.24 79.87,-678.24 451.87,-678.24 451.87,-618.24 79.87,-618.24"/>
<text text-anchor="start" x="90.69" y="-639.44" font-family="Helvetica,sans-Serif" font-weight="bold" font-size="32.00" fill="#ffffff"> &#160;&#160;&#160;&#160;&#160;&#160;sop_documents &#160;&#160;&#160;&#160;&#160;&#160;</text>
<polygon fill="#e7e2dd" stroke="transparent" points="79.87,-558.24 79.87,-618.24 451.87,-618.24 451.87,-558.24 79.87,-558.24"/>
<polygon fill="none" stroke="#29235c" points="79.87,-558.24 79.87,-618.24 451.87,-618.24 451.87,-558.24 79.87,-558.24"/>
<text text-anchor="start" x="90.87" y="-578.44" font-family="Helvetica,sans-Serif" font-size="32.00" fill="#29235c">sop_id &#160;&#160;&#160;</text>
<text text-anchor="start" x="407.09" y="-579.44" font-family="Helvetica,sans-Serif" font-style="italic" font-size="32.00" fill="#29235c">int</text>
<polygon fill="none" stroke="#29235c" stroke-width="2" points="78.87,-557.24 78.87,-679.24 452.87,-679.24 452.87,-557.24 78.87,-557.24"/>
</g>
<!-- sop_documents&#45;&gt;sop -->
<!-- sop_documents&#45;&gt;sop -->
<g id="edge2" class="edge">
<title>sop_documents:e&#45;&gt;sop:w</title>
<path fill="none" stroke="#29235c" stroke-width="3" d="M452.87,-588.24C544.77,-588.24 549.3,-499.23 634.71,-492.63"/>
<polygon fill="#29235c" stroke="#29235c" stroke-width="3" points="635.1,-496.11 644.96,-492.24 634.83,-489.12 635.1,-496.11"/>
<text text-anchor="middle" x="636.07" y="-501.84" font-family="Helvetica,sans-Serif" font-size="32.00" fill="#29235c">1</text>
<text text-anchor="middle" x="446.65" y="-597.84" font-family="Helvetica,sans-Serif" font-size="32.00" fill="#29235c">*</text>
</g>
<!-- sop_positions -->
<g id="sop_positions" class="node">
<title>sop_positions</title>
<ellipse fill="none" stroke="black" stroke-width="0" cx="265.87" cy="-425.24" rx="244.82" ry="87.86"/>
<polygon fill="#1d71b8" stroke="transparent" points="94.87,-425.24 94.87,-485.24 436.87,-485.24 436.87,-425.24 94.87,-425.24"/>
<polygon fill="none" stroke="#29235c" points="94.87,-425.24 94.87,-485.24 436.87,-485.24 436.87,-425.24 94.87,-425.24"/>
<text text-anchor="start" x="105.81" y="-446.44" font-family="Helvetica,sans-Serif" font-weight="bold" font-size="32.00" fill="#ffffff"> &#160;&#160;&#160;&#160;&#160;&#160;sop_positions &#160;&#160;&#160;&#160;&#160;&#160;</text>
<polygon fill="#e7e2dd" stroke="transparent" points="94.87,-365.24 94.87,-425.24 436.87,-425.24 436.87,-365.24 94.87,-365.24"/>
<polygon fill="none" stroke="#29235c" points="94.87,-365.24 94.87,-425.24 436.87,-425.24 436.87,-365.24 94.87,-365.24"/>
<text text-anchor="start" x="105.87" y="-385.44" font-family="Helvetica,sans-Serif" font-size="32.00" fill="#29235c">sop_id &#160;&#160;&#160;</text>
<text text-anchor="start" x="392.09" y="-386.44" font-family="Helvetica,sans-Serif" font-style="italic" font-size="32.00" fill="#29235c">int</text>
<polygon fill="none" stroke="#29235c" stroke-width="2" points="93.87,-364.24 93.87,-486.24 437.87,-486.24 437.87,-364.24 93.87,-364.24"/>
</g>
<!-- sop_positions&#45;&gt;sop -->
<!-- sop_positions&#45;&gt;sop -->
<g id="edge4" class="edge">
<title>sop_positions:e&#45;&gt;sop:w</title>
<path fill="none" stroke="#29235c" stroke-width="3" d="M437.87,-395.24C536.03,-395.24 542.95,-485.72 634.87,-491.91"/>
<polygon fill="#29235c" stroke="#29235c" stroke-width="3" points="634.85,-495.41 644.96,-492.24 635.08,-488.41 634.85,-495.41"/>
<text text-anchor="middle" x="653.85" y="-501.84" font-family="Helvetica,sans-Serif" font-size="32.00" fill="#29235c">1</text>
<text text-anchor="middle" x="431.65" y="-366.44" font-family="Helvetica,sans-Serif" font-size="32.00" fill="#29235c">*</text>
</g>
</g>
</svg>
