<?xml version="1.0" encoding="UTF-8" standalone="no"?>
<!DOCTYPE svg PUBLIC "-//W3C//DTD SVG 1.1//EN"
 "http://www.w3.org/Graphics/SVG/1.1/DTD/svg11.dtd">
<!-- Generated by graphviz version 2.47.0 (20210316.0004)
 -->
<!-- Title: dbml Pages: 1 -->
<svg width="2277pt" height="1140pt"
 viewBox="0.00 0.00 2276.92 1140.20" xmlns="http://www.w3.org/2000/svg" xmlns:xlink="http://www.w3.org/1999/xlink">
<g id="graph0" class="graph" transform="scale(1 1) rotate(0) translate(4 1136.2)">
<title>dbml</title>
<!-- departments -->
<g id="departments" class="node">
<title>departments</title>
<ellipse fill="none" stroke="black" stroke-width="0" cx="2008.7" cy="-287.39" rx="260.43" ry="214.92"/>
<polygon fill="#1d71b8" stroke="transparent" points="1826.7,-377.39 1826.7,-437.39 2190.7,-437.39 2190.7,-377.39 1826.7,-377.39"/>
<polygon fill="none" stroke="#29235c" points="1826.7,-377.39 1826.7,-437.39 2190.7,-437.39 2190.7,-377.39 1826.7,-377.39"/>
<text text-anchor="start" x="1857.54" y="-398.59" font-family="Helvetica,sans-Serif" font-weight="bold" font-size="32.00" fill="#ffffff"> &#160;&#160;&#160;&#160;&#160;&#160;departments &#160;&#160;&#160;&#160;&#160;&#160;</text>
<polygon fill="#e7e2dd" stroke="transparent" points="1826.7,-317.39 1826.7,-377.39 2190.7,-377.39 2190.7,-317.39 1826.7,-317.39"/>
<polygon fill="none" stroke="#29235c" points="1826.7,-317.39 1826.7,-377.39 2190.7,-377.39 2190.7,-317.39 1826.7,-317.39"/>
<text text-anchor="start" x="1837.7" y="-338.59" font-family="Helvetica,sans-Serif" font-weight="bold" font-size="32.00" fill="#29235c">id</text>
<text text-anchor="start" x="1862.59" y="-338.59" font-family="Helvetica,sans-Serif" font-size="32.00" fill="#29235c"> &#160;&#160;&#160;</text>
<text text-anchor="start" x="2145.92" y="-338.59" font-family="Helvetica,sans-Serif" font-style="italic" font-size="32.00" fill="#29235c">int</text>
<polygon fill="#e7e2dd" stroke="transparent" points="1826.7,-257.39 1826.7,-317.39 2190.7,-317.39 2190.7,-257.39 1826.7,-257.39"/>
<polygon fill="none" stroke="#29235c" points="1826.7,-257.39 1826.7,-317.39 2190.7,-317.39 2190.7,-257.39 1826.7,-257.39"/>
<text text-anchor="start" x="1837.7" y="-277.59" font-family="Helvetica,sans-Serif" font-size="32.00" fill="#29235c">name &#160;&#160;&#160;</text>
<text text-anchor="start" x="2033.94" y="-278.59" font-family="Helvetica,sans-Serif" font-style="italic" font-size="32.00" fill="#29235c">varchar</text>
<text text-anchor="start" x="2140.61" y="-278.59" font-family="Helvetica,sans-Serif" font-size="32.00" fill="#29235c"> </text>
<text text-anchor="start" x="2149.5" y="-278.59" font-family="Helvetica,sans-Serif" font-weight="bold" font-size="32.00" fill="#29235c">(!)</text>
<polygon fill="#e7e2dd" stroke="transparent" points="1826.7,-197.39 1826.7,-257.39 2190.7,-257.39 2190.7,-197.39 1826.7,-197.39"/>
<polygon fill="none" stroke="#29235c" points="1826.7,-197.39 1826.7,-257.39 2190.7,-257.39 2190.7,-197.39 1826.7,-197.39"/>
<text text-anchor="start" x="1837.7" y="-217.59" font-family="Helvetica,sans-Serif" font-size="32.00" fill="#29235c">created_at &#160;&#160;&#160;</text>
<text text-anchor="start" x="2032.14" y="-218.59" font-family="Helvetica,sans-Serif" font-style="italic" font-size="32.00" fill="#29235c">timestamp</text>
<polygon fill="#e7e2dd" stroke="transparent" points="1826.7,-137.39 1826.7,-197.39 2190.7,-197.39 2190.7,-137.39 1826.7,-137.39"/>
<polygon fill="none" stroke="#29235c" points="1826.7,-137.39 1826.7,-197.39 2190.7,-197.39 2190.7,-137.39 1826.7,-137.39"/>
<text text-anchor="start" x="1837.37" y="-157.59" font-family="Helvetica,sans-Serif" font-size="32.00" fill="#29235c">updated_at &#160;&#160;&#160;</text>
<text text-anchor="start" x="2032.42" y="-158.59" font-family="Helvetica,sans-Serif" font-style="italic" font-size="32.00" fill="#29235c">timestamp</text>
<polygon fill="none" stroke="#29235c" stroke-width="2" points="1825.7,-136.39 1825.7,-438.39 2191.7,-438.39 2191.7,-136.39 1825.7,-136.39"/>
</g>
<!-- positions -->
<g id="positions" class="node">
<title>positions</title>
<ellipse fill="none" stroke="black" stroke-width="0" cx="1452.27" cy="-257.39" rx="260.43" ry="257.27"/>
<polygon fill="#1d71b8" stroke="transparent" points="1270.27,-377.39 1270.27,-437.39 1634.27,-437.39 1634.27,-377.39 1270.27,-377.39"/>
<polygon fill="none" stroke="#29235c" points="1270.27,-377.39 1270.27,-437.39 1634.27,-437.39 1634.27,-377.39 1270.27,-377.39"/>
<text text-anchor="start" x="1326.9" y="-398.59" font-family="Helvetica,sans-Serif" font-weight="bold" font-size="32.00" fill="#ffffff"> &#160;&#160;&#160;&#160;&#160;&#160;positions &#160;&#160;&#160;&#160;&#160;&#160;</text>
<polygon fill="#e7e2dd" stroke="transparent" points="1270.27,-317.39 1270.27,-377.39 1634.27,-377.39 1634.27,-317.39 1270.27,-317.39"/>
<polygon fill="none" stroke="#29235c" points="1270.27,-317.39 1270.27,-377.39 1634.27,-377.39 1634.27,-317.39 1270.27,-317.39"/>
<text text-anchor="start" x="1281.27" y="-338.59" font-family="Helvetica,sans-Serif" font-weight="bold" font-size="32.00" fill="#29235c">id</text>
<text text-anchor="start" x="1306.16" y="-338.59" font-family="Helvetica,sans-Serif" font-size="32.00" fill="#29235c"> &#160;&#160;&#160;</text>
<text text-anchor="start" x="1589.49" y="-338.59" font-family="Helvetica,sans-Serif" font-style="italic" font-size="32.00" fill="#29235c">int</text>
<polygon fill="#e7e2dd" stroke="transparent" points="1270.27,-257.39 1270.27,-317.39 1634.27,-317.39 1634.27,-257.39 1270.27,-257.39"/>
<polygon fill="none" stroke="#29235c" points="1270.27,-257.39 1270.27,-317.39 1634.27,-317.39 1634.27,-257.39 1270.27,-257.39"/>
<text text-anchor="start" x="1281.27" y="-277.59" font-family="Helvetica,sans-Serif" font-size="32.00" fill="#29235c">name &#160;&#160;&#160;</text>
<text text-anchor="start" x="1477.51" y="-278.59" font-family="Helvetica,sans-Serif" font-style="italic" font-size="32.00" fill="#29235c">varchar</text>
<text text-anchor="start" x="1584.18" y="-278.59" font-family="Helvetica,sans-Serif" font-size="32.00" fill="#29235c"> </text>
<text text-anchor="start" x="1593.07" y="-278.59" font-family="Helvetica,sans-Serif" font-weight="bold" font-size="32.00" fill="#29235c">(!)</text>
<polygon fill="#e7e2dd" stroke="transparent" points="1270.27,-197.39 1270.27,-257.39 1634.27,-257.39 1634.27,-197.39 1270.27,-197.39"/>
<polygon fill="none" stroke="#29235c" points="1270.27,-197.39 1270.27,-257.39 1634.27,-257.39 1634.27,-197.39 1270.27,-197.39"/>
<text text-anchor="start" x="1281.27" y="-217.59" font-family="Helvetica,sans-Serif" font-size="32.00" fill="#29235c">department_id &#160;&#160;&#160;</text>
<text text-anchor="start" x="1589.49" y="-218.59" font-family="Helvetica,sans-Serif" font-style="italic" font-size="32.00" fill="#29235c">int</text>
<polygon fill="#e7e2dd" stroke="transparent" points="1270.27,-137.39 1270.27,-197.39 1634.27,-197.39 1634.27,-137.39 1270.27,-137.39"/>
<polygon fill="none" stroke="#29235c" points="1270.27,-137.39 1270.27,-197.39 1634.27,-197.39 1634.27,-137.39 1270.27,-137.39"/>
<text text-anchor="start" x="1281.27" y="-157.59" font-family="Helvetica,sans-Serif" font-size="32.00" fill="#29235c">created_at &#160;&#160;&#160;</text>
<text text-anchor="start" x="1475.71" y="-158.59" font-family="Helvetica,sans-Serif" font-style="italic" font-size="32.00" fill="#29235c">timestamp</text>
<polygon fill="#e7e2dd" stroke="transparent" points="1270.27,-77.39 1270.27,-137.39 1634.27,-137.39 1634.27,-77.39 1270.27,-77.39"/>
<polygon fill="none" stroke="#29235c" points="1270.27,-77.39 1270.27,-137.39 1634.27,-137.39 1634.27,-77.39 1270.27,-77.39"/>
<text text-anchor="start" x="1280.94" y="-97.59" font-family="Helvetica,sans-Serif" font-size="32.00" fill="#29235c">updated_at &#160;&#160;&#160;</text>
<text text-anchor="start" x="1475.99" y="-98.59" font-family="Helvetica,sans-Serif" font-style="italic" font-size="32.00" fill="#29235c">timestamp</text>
<polygon fill="none" stroke="#29235c" stroke-width="2" points="1269.27,-76.39 1269.27,-438.39 1635.27,-438.39 1635.27,-76.39 1269.27,-76.39"/>
</g>
<!-- positions&#45;&gt;departments -->
<!-- positions&#45;&gt;departments -->
<g id="edge2" class="edge">
<title>positions:e&#45;&gt;departments:w</title>
<path fill="none" stroke="#29235c" stroke-width="3" d="M1635.27,-227.39C1731.79,-227.39 1726.21,-339.1 1815.55,-346.95"/>
<polygon fill="#29235c" stroke="#29235c" stroke-width="3" points="1815.56,-350.46 1825.7,-347.39 1815.86,-343.46 1815.56,-350.46"/>
<text text-anchor="middle" x="1816.81" y="-318.59" font-family="Helvetica,sans-Serif" font-size="32.00" fill="#29235c">1</text>
<text text-anchor="middle" x="1641.49" y="-198.59" font-family="Helvetica,sans-Serif" font-size="32.00" fill="#29235c">*</text>
</g>
<!-- sops -->
<g id="sops" class="node">
<title>sops</title>
<ellipse fill="none" stroke="black" stroke-width="0" cx="1452.27" cy="-832.39" rx="260.43" ry="299.63"/>
<polygon fill="#1d71b8" stroke="transparent" points="1270.27,-982.39 1270.27,-1042.39 1634.27,-1042.39 1634.27,-982.39 1270.27,-982.39"/>
<polygon fill="none" stroke="#29235c" points="1270.27,-982.39 1270.27,-1042.39 1634.27,-1042.39 1634.27,-982.39 1270.27,-982.39"/>
<text text-anchor="start" x="1356.23" y="-1003.59" font-family="Helvetica,sans-Serif" font-weight="bold" font-size="32.00" fill="#ffffff"> &#160;&#160;&#160;&#160;&#160;&#160;sops &#160;&#160;&#160;&#160;&#160;&#160;</text>
<polygon fill="#e7e2dd" stroke="transparent" points="1270.27,-922.39 1270.27,-982.39 1634.27,-982.39 1634.27,-922.39 1270.27,-922.39"/>
<polygon fill="none" stroke="#29235c" points="1270.27,-922.39 1270.27,-982.39 1634.27,-982.39 1634.27,-922.39 1270.27,-922.39"/>
<text text-anchor="start" x="1281.27" y="-943.59" font-family="Helvetica,sans-Serif" font-weight="bold" font-size="32.00" fill="#29235c">id</text>
<text text-anchor="start" x="1306.16" y="-943.59" font-family="Helvetica,sans-Serif" font-size="32.00" fill="#29235c"> &#160;&#160;&#160;</text>
<text text-anchor="start" x="1589.49" y="-943.59" font-family="Helvetica,sans-Serif" font-style="italic" font-size="32.00" fill="#29235c">int</text>
<polygon fill="#e7e2dd" stroke="transparent" points="1270.27,-862.39 1270.27,-922.39 1634.27,-922.39 1634.27,-862.39 1270.27,-862.39"/>
<polygon fill="none" stroke="#29235c" points="1270.27,-862.39 1270.27,-922.39 1634.27,-922.39 1634.27,-862.39 1270.27,-862.39"/>
<text text-anchor="start" x="1281.27" y="-882.59" font-family="Helvetica,sans-Serif" font-size="32.00" fill="#29235c">title &#160;&#160;&#160;</text>
<text text-anchor="start" x="1477.51" y="-883.59" font-family="Helvetica,sans-Serif" font-style="italic" font-size="32.00" fill="#29235c">varchar</text>
<text text-anchor="start" x="1584.18" y="-883.59" font-family="Helvetica,sans-Serif" font-size="32.00" fill="#29235c"> </text>
<text text-anchor="start" x="1593.07" y="-883.59" font-family="Helvetica,sans-Serif" font-weight="bold" font-size="32.00" fill="#29235c">(!)</text>
<polygon fill="#e7e2dd" stroke="transparent" points="1270.27,-802.39 1270.27,-862.39 1634.27,-862.39 1634.27,-802.39 1270.27,-802.39"/>
<polygon fill="none" stroke="#29235c" points="1270.27,-802.39 1270.27,-862.39 1634.27,-862.39 1634.27,-802.39 1270.27,-802.39"/>
<text text-anchor="start" x="1281.27" y="-822.59" font-family="Helvetica,sans-Serif" font-size="32.00" fill="#29235c">code &#160;&#160;&#160;</text>
<text text-anchor="start" x="1516.6" y="-823.59" font-family="Helvetica,sans-Serif" font-style="italic" font-size="32.00" fill="#29235c">varchar</text>
<polygon fill="#e7e2dd" stroke="transparent" points="1270.27,-742.39 1270.27,-802.39 1634.27,-802.39 1634.27,-742.39 1270.27,-742.39"/>
<polygon fill="none" stroke="#29235c" points="1270.27,-742.39 1270.27,-802.39 1634.27,-802.39 1634.27,-742.39 1270.27,-742.39"/>
<text text-anchor="start" x="1281.27" y="-762.59" font-family="Helvetica,sans-Serif" font-size="32.00" fill="#29235c">content &#160;&#160;&#160;</text>
<text text-anchor="start" x="1546.81" y="-763.59" font-family="Helvetica,sans-Serif" font-style="italic" font-size="32.00" fill="#29235c">jsonb</text>
<polygon fill="#e7e2dd" stroke="transparent" points="1270.27,-682.39 1270.27,-742.39 1634.27,-742.39 1634.27,-682.39 1270.27,-682.39"/>
<polygon fill="none" stroke="#29235c" points="1270.27,-682.39 1270.27,-742.39 1634.27,-742.39 1634.27,-682.39 1270.27,-682.39"/>
<text text-anchor="start" x="1281.27" y="-702.59" font-family="Helvetica,sans-Serif" font-size="32.00" fill="#29235c">created_at &#160;&#160;&#160;</text>
<text text-anchor="start" x="1475.71" y="-703.59" font-family="Helvetica,sans-Serif" font-style="italic" font-size="32.00" fill="#29235c">timestamp</text>
<polygon fill="#e7e2dd" stroke="transparent" points="1270.27,-622.39 1270.27,-682.39 1634.27,-682.39 1634.27,-622.39 1270.27,-622.39"/>
<polygon fill="none" stroke="#29235c" points="1270.27,-622.39 1270.27,-682.39 1634.27,-682.39 1634.27,-622.39 1270.27,-622.39"/>
<text text-anchor="start" x="1280.94" y="-642.59" font-family="Helvetica,sans-Serif" font-size="32.00" fill="#29235c">updated_at &#160;&#160;&#160;</text>
<text text-anchor="start" x="1475.99" y="-643.59" font-family="Helvetica,sans-Serif" font-style="italic" font-size="32.00" fill="#29235c">timestamp</text>
<polygon fill="none" stroke="#29235c" stroke-width="2" points="1269.27,-621.39 1269.27,-1043.39 1635.27,-1043.39 1635.27,-621.39 1269.27,-621.39"/>
</g>
<!-- sop_jobs -->
<g id="sop_jobs" class="node">
<title>sop_jobs</title>
<ellipse fill="none" stroke="black" stroke-width="0" cx="895.84" cy="-559.39" rx="260.43" ry="469.54"/>
<polygon fill="#1d71b8" stroke="transparent" points="713.84,-829.39 713.84,-889.39 1077.84,-889.39 1077.84,-829.39 713.84,-829.39"/>
<polygon fill="none" stroke="#29235c" points="713.84,-829.39 713.84,-889.39 1077.84,-889.39 1077.84,-829.39 713.84,-829.39"/>
<text text-anchor="start" x="769.57" y="-850.59" font-family="Helvetica,sans-Serif" font-weight="bold" font-size="32.00" fill="#ffffff"> &#160;&#160;&#160;&#160;&#160;&#160;sop_jobs &#160;&#160;&#160;&#160;&#160;&#160;</text>
<polygon fill="#e7e2dd" stroke="transparent" points="713.84,-769.39 713.84,-829.39 1077.84,-829.39 1077.84,-769.39 713.84,-769.39"/>
<polygon fill="none" stroke="#29235c" points="713.84,-769.39 713.84,-829.39 1077.84,-829.39 1077.84,-769.39 713.84,-769.39"/>
<text text-anchor="start" x="724.84" y="-790.59" font-family="Helvetica,sans-Serif" font-weight="bold" font-size="32.00" fill="#29235c">id</text>
<text text-anchor="start" x="749.73" y="-790.59" font-family="Helvetica,sans-Serif" font-size="32.00" fill="#29235c"> &#160;&#160;&#160;</text>
<text text-anchor="start" x="1033.06" y="-790.59" font-family="Helvetica,sans-Serif" font-style="italic" font-size="32.00" fill="#29235c">int</text>
<polygon fill="#e7e2dd" stroke="transparent" points="713.84,-709.39 713.84,-769.39 1077.84,-769.39 1077.84,-709.39 713.84,-709.39"/>
<polygon fill="none" stroke="#29235c" points="713.84,-709.39 713.84,-769.39 1077.84,-769.39 1077.84,-709.39 713.84,-709.39"/>
<text text-anchor="start" x="724.84" y="-729.59" font-family="Helvetica,sans-Serif" font-size="32.00" fill="#29235c">name &#160;&#160;&#160;</text>
<text text-anchor="start" x="921.08" y="-730.59" font-family="Helvetica,sans-Serif" font-style="italic" font-size="32.00" fill="#29235c">varchar</text>
<text text-anchor="start" x="1027.75" y="-730.59" font-family="Helvetica,sans-Serif" font-size="32.00" fill="#29235c"> </text>
<text text-anchor="start" x="1036.64" y="-730.59" font-family="Helvetica,sans-Serif" font-weight="bold" font-size="32.00" fill="#29235c">(!)</text>
<polygon fill="#e7e2dd" stroke="transparent" points="713.84,-649.39 713.84,-709.39 1077.84,-709.39 1077.84,-649.39 713.84,-649.39"/>
<polygon fill="none" stroke="#29235c" points="713.84,-649.39 713.84,-709.39 1077.84,-709.39 1077.84,-649.39 713.84,-649.39"/>
<text text-anchor="start" x="724.84" y="-669.59" font-family="Helvetica,sans-Serif" font-size="32.00" fill="#29235c">type &#160;&#160;&#160;</text>
<text text-anchor="start" x="945.9" y="-670.59" font-family="Helvetica,sans-Serif" font-style="italic" font-size="32.00" fill="#29235c">job_type</text>
<polygon fill="#e7e2dd" stroke="transparent" points="713.84,-589.39 713.84,-649.39 1077.84,-649.39 1077.84,-589.39 713.84,-589.39"/>
<polygon fill="none" stroke="#29235c" points="713.84,-589.39 713.84,-649.39 1077.84,-649.39 1077.84,-589.39 713.84,-589.39"/>
<text text-anchor="start" x="724.84" y="-609.59" font-family="Helvetica,sans-Serif" font-size="32.00" fill="#29235c">description &#160;&#160;&#160;</text>
<text text-anchor="start" x="990.37" y="-610.59" font-family="Helvetica,sans-Serif" font-style="italic" font-size="32.00" fill="#29235c">jsonb</text>
<polygon fill="#e7e2dd" stroke="transparent" points="713.84,-529.39 713.84,-589.39 1077.84,-589.39 1077.84,-529.39 713.84,-529.39"/>
<polygon fill="none" stroke="#29235c" points="713.84,-529.39 713.84,-589.39 1077.84,-589.39 1077.84,-529.39 713.84,-529.39"/>
<text text-anchor="start" x="724.84" y="-549.59" font-family="Helvetica,sans-Serif" font-size="32.00" fill="#29235c">sop_id &#160;&#160;&#160;</text>
<text text-anchor="start" x="993.97" y="-550.59" font-family="Helvetica,sans-Serif" font-style="italic" font-size="32.00" fill="#29235c">int</text>
<text text-anchor="start" x="1027.75" y="-550.59" font-family="Helvetica,sans-Serif" font-size="32.00" fill="#29235c"> </text>
<text text-anchor="start" x="1036.64" y="-550.59" font-family="Helvetica,sans-Serif" font-weight="bold" font-size="32.00" fill="#29235c">(!)</text>
<polygon fill="#e7e2dd" stroke="transparent" points="713.84,-469.39 713.84,-529.39 1077.84,-529.39 1077.84,-469.39 713.84,-469.39"/>
<polygon fill="none" stroke="#29235c" points="713.84,-469.39 713.84,-529.39 1077.84,-529.39 1077.84,-469.39 713.84,-469.39"/>
<text text-anchor="start" x="724.84" y="-489.59" font-family="Helvetica,sans-Serif" font-size="32.00" fill="#29235c">position_id &#160;&#160;&#160;</text>
<text text-anchor="start" x="993.97" y="-490.59" font-family="Helvetica,sans-Serif" font-style="italic" font-size="32.00" fill="#29235c">int</text>
<text text-anchor="start" x="1027.75" y="-490.59" font-family="Helvetica,sans-Serif" font-size="32.00" fill="#29235c"> </text>
<text text-anchor="start" x="1036.64" y="-490.59" font-family="Helvetica,sans-Serif" font-weight="bold" font-size="32.00" fill="#29235c">(!)</text>
<polygon fill="#e7e2dd" stroke="transparent" points="713.84,-409.39 713.84,-469.39 1077.84,-469.39 1077.84,-409.39 713.84,-409.39"/>
<polygon fill="none" stroke="#29235c" points="713.84,-409.39 713.84,-469.39 1077.84,-469.39 1077.84,-409.39 713.84,-409.39"/>
<text text-anchor="start" x="724.84" y="-429.59" font-family="Helvetica,sans-Serif" font-size="32.00" fill="#29235c">reference_id &#160;&#160;&#160;</text>
<text text-anchor="start" x="1033.06" y="-430.59" font-family="Helvetica,sans-Serif" font-style="italic" font-size="32.00" fill="#29235c">int</text>
<polygon fill="#e7e2dd" stroke="transparent" points="713.84,-349.39 713.84,-409.39 1077.84,-409.39 1077.84,-349.39 713.84,-349.39"/>
<polygon fill="none" stroke="#29235c" points="713.84,-349.39 713.84,-409.39 1077.84,-409.39 1077.84,-349.39 713.84,-349.39"/>
<text text-anchor="start" x="724.84" y="-369.59" font-family="Helvetica,sans-Serif" font-size="32.00" fill="#29235c">index &#160;&#160;&#160;</text>
<text text-anchor="start" x="1033.06" y="-370.59" font-family="Helvetica,sans-Serif" font-style="italic" font-size="32.00" fill="#29235c">int</text>
<polygon fill="#e7e2dd" stroke="transparent" points="713.84,-289.39 713.84,-349.39 1077.84,-349.39 1077.84,-289.39 713.84,-289.39"/>
<polygon fill="none" stroke="#29235c" points="713.84,-289.39 713.84,-349.39 1077.84,-349.39 1077.84,-289.39 713.84,-289.39"/>
<text text-anchor="start" x="724.84" y="-309.59" font-family="Helvetica,sans-Serif" font-size="32.00" fill="#29235c">created_at &#160;&#160;&#160;</text>
<text text-anchor="start" x="919.28" y="-310.59" font-family="Helvetica,sans-Serif" font-style="italic" font-size="32.00" fill="#29235c">timestamp</text>
<polygon fill="#e7e2dd" stroke="transparent" points="713.84,-229.39 713.84,-289.39 1077.84,-289.39 1077.84,-229.39 713.84,-229.39"/>
<polygon fill="none" stroke="#29235c" points="713.84,-229.39 713.84,-289.39 1077.84,-289.39 1077.84,-229.39 713.84,-229.39"/>
<text text-anchor="start" x="724.51" y="-249.59" font-family="Helvetica,sans-Serif" font-size="32.00" fill="#29235c">updated_at &#160;&#160;&#160;</text>
<text text-anchor="start" x="919.56" y="-250.59" font-family="Helvetica,sans-Serif" font-style="italic" font-size="32.00" fill="#29235c">timestamp</text>
<polygon fill="none" stroke="#29235c" stroke-width="2" points="712.84,-228.39 712.84,-890.39 1078.84,-890.39 1078.84,-228.39 712.84,-228.39"/>
</g>
<!-- sop_jobs&#45;&gt;positions -->
<!-- sop_jobs&#45;&gt;positions -->
<g id="edge6" class="edge">
<title>sop_jobs:e&#45;&gt;positions:w</title>
<path fill="none" stroke="#29235c" stroke-width="3" d="M1078.84,-499.39C1183.64,-499.39 1162.53,-357.03 1259.21,-347.85"/>
<polygon fill="#29235c" stroke="#29235c" stroke-width="3" points="1259.44,-351.34 1269.27,-347.39 1259.12,-344.35 1259.44,-351.34"/>
<text text-anchor="middle" x="1260.38" y="-318.59" font-family="Helvetica,sans-Serif" font-size="32.00" fill="#29235c">1</text>
<text text-anchor="middle" x="1072.62" y="-470.59" font-family="Helvetica,sans-Serif" font-size="32.00" fill="#29235c">*</text>
</g>
<!-- sop_jobs&#45;&gt;sops -->
<!-- sop_jobs&#45;&gt;sops -->
<g id="edge4" class="edge">
<title>sop_jobs:e&#45;&gt;sops:w</title>
<path fill="none" stroke="#29235c" stroke-width="3" d="M1078.84,-559.39C1269.43,-559.39 1082.2,-938.31 1259.13,-952.01"/>
<polygon fill="#29235c" stroke="#29235c" stroke-width="3" points="1259.15,-955.51 1269.27,-952.39 1259.41,-948.51 1259.15,-955.51"/>
<text text-anchor="middle" x="1260.38" y="-961.99" font-family="Helvetica,sans-Serif" font-size="32.00" fill="#29235c">1</text>
<text text-anchor="middle" x="1072.62" y="-530.59" font-family="Helvetica,sans-Serif" font-size="32.00" fill="#29235c">*</text>
</g>
<!-- sop_job_flowcharts -->
<g id="sop_job_flowcharts" class="node">
<title>sop_job_flowcharts</title>
<ellipse fill="none" stroke="black" stroke-width="0" cx="299.81" cy="-829.39" rx="299.63" ry="87.86"/>
<polygon fill="#1d71b8" stroke="transparent" points="89.81,-829.39 89.81,-889.39 509.81,-889.39 509.81,-829.39 89.81,-829.39"/>
<polygon fill="none" stroke="#29235c" points="89.81,-829.39 89.81,-889.39 509.81,-889.39 509.81,-829.39 89.81,-829.39"/>
<text text-anchor="start" x="100.64" y="-850.59" font-family="Helvetica,sans-Serif" font-weight="bold" font-size="32.00" fill="#ffffff"> &#160;&#160;&#160;&#160;&#160;&#160;sop_job_flowcharts &#160;&#160;&#160;&#160;&#160;&#160;</text>
<polygon fill="#e7e2dd" stroke="transparent" points="89.81,-769.39 89.81,-829.39 509.81,-829.39 509.81,-769.39 89.81,-769.39"/>
<polygon fill="none" stroke="#29235c" points="89.81,-769.39 89.81,-829.39 509.81,-829.39 509.81,-769.39 89.81,-769.39"/>
<text text-anchor="start" x="100.81" y="-789.59" font-family="Helvetica,sans-Serif" font-size="32.00" fill="#29235c">sop_job_id &#160;&#160;&#160;</text>
<text text-anchor="start" x="425.94" y="-790.59" font-family="Helvetica,sans-Serif" font-style="italic" font-size="32.00" fill="#29235c">int</text>
<text text-anchor="start" x="459.72" y="-790.59" font-family="Helvetica,sans-Serif" font-size="32.00" fill="#29235c"> </text>
<text text-anchor="start" x="468.61" y="-790.59" font-family="Helvetica,sans-Serif" font-weight="bold" font-size="32.00" fill="#29235c">(!)</text>
<polygon fill="none" stroke="#29235c" stroke-width="2" points="88.81,-768.39 88.81,-890.39 510.81,-890.39 510.81,-768.39 88.81,-768.39"/>
</g>
<!-- sop_job_flowcharts&#45;&gt;sop_jobs -->
<!-- sop_job_flowcharts&#45;&gt;sop_jobs -->
<g id="edge8" class="edge">
<title>sop_job_flowcharts:e&#45;&gt;sop_jobs:w</title>
<path fill="none" stroke="#29235c" stroke-width="3" d="M510.81,-799.39C597.1,-799.39 621.19,-799.39 702.62,-799.39"/>
<polygon fill="#29235c" stroke="#29235c" stroke-width="3" points="702.84,-802.89 712.84,-799.39 702.84,-795.89 702.84,-802.89"/>
<text text-anchor="middle" x="703.95" y="-808.99" font-family="Helvetica,sans-Serif" font-size="32.00" fill="#29235c">1</text>
<text text-anchor="middle" x="504.59" y="-808.99" font-family="Helvetica,sans-Serif" font-size="32.00" fill="#29235c">*</text>
</g>
</g>
</svg>
