<?xml version="1.0" encoding="UTF-8" standalone="no"?>
<!DOCTYPE svg PUBLIC "-//W3C//DTD SVG 1.1//EN"
 "http://www.w3.org/Graphics/SVG/1.1/DTD/svg11.dtd">
<!-- Generated by graphviz version 2.47.0 (20210316.0004)
 -->
<!-- Title: dbml Pages: 1 -->
<svg width="1610pt" height="1056pt"
 viewBox="0.00 0.00 1610.18 1055.77" xmlns="http://www.w3.org/2000/svg" xmlns:xlink="http://www.w3.org/1999/xlink">
<g id="graph0" class="graph" transform="scale(1 1) rotate(0) translate(4 1051.77)">
<title>dbml</title>
<!-- departments -->
<g id="departments" class="node">
<title>departments</title>
<ellipse fill="none" stroke="black" stroke-width="0" cx="1341.96" cy="-287.39" rx="260.43" ry="214.92"/>
<polygon fill="#1d71b8" stroke="transparent" points="1159.96,-377.39 1159.96,-437.39 1523.96,-437.39 1523.96,-377.39 1159.96,-377.39"/>
<polygon fill="none" stroke="#29235c" points="1159.96,-377.39 1159.96,-437.39 1523.96,-437.39 1523.96,-377.39 1159.96,-377.39"/>
<text text-anchor="start" x="1190.8" y="-398.59" font-family="Helvetica,sans-Serif" font-weight="bold" font-size="32.00" fill="#ffffff"> &#160;&#160;&#160;&#160;&#160;&#160;departments &#160;&#160;&#160;&#160;&#160;&#160;</text>
<polygon fill="#e7e2dd" stroke="transparent" points="1159.96,-317.39 1159.96,-377.39 1523.96,-377.39 1523.96,-317.39 1159.96,-317.39"/>
<polygon fill="none" stroke="#29235c" points="1159.96,-317.39 1159.96,-377.39 1523.96,-377.39 1523.96,-317.39 1159.96,-317.39"/>
<text text-anchor="start" x="1170.96" y="-338.59" font-family="Helvetica,sans-Serif" font-weight="bold" font-size="32.00" fill="#29235c">id</text>
<text text-anchor="start" x="1195.85" y="-338.59" font-family="Helvetica,sans-Serif" font-size="32.00" fill="#29235c"> &#160;&#160;&#160;</text>
<text text-anchor="start" x="1479.18" y="-338.59" font-family="Helvetica,sans-Serif" font-style="italic" font-size="32.00" fill="#29235c">int</text>
<polygon fill="#e7e2dd" stroke="transparent" points="1159.96,-257.39 1159.96,-317.39 1523.96,-317.39 1523.96,-257.39 1159.96,-257.39"/>
<polygon fill="none" stroke="#29235c" points="1159.96,-257.39 1159.96,-317.39 1523.96,-317.39 1523.96,-257.39 1159.96,-257.39"/>
<text text-anchor="start" x="1170.96" y="-277.59" font-family="Helvetica,sans-Serif" font-size="32.00" fill="#29235c">name &#160;&#160;&#160;</text>
<text text-anchor="start" x="1367.2" y="-278.59" font-family="Helvetica,sans-Serif" font-style="italic" font-size="32.00" fill="#29235c">varchar</text>
<text text-anchor="start" x="1473.87" y="-278.59" font-family="Helvetica,sans-Serif" font-size="32.00" fill="#29235c"> </text>
<text text-anchor="start" x="1482.77" y="-278.59" font-family="Helvetica,sans-Serif" font-weight="bold" font-size="32.00" fill="#29235c">(!)</text>
<polygon fill="#e7e2dd" stroke="transparent" points="1159.96,-197.39 1159.96,-257.39 1523.96,-257.39 1523.96,-197.39 1159.96,-197.39"/>
<polygon fill="none" stroke="#29235c" points="1159.96,-197.39 1159.96,-257.39 1523.96,-257.39 1523.96,-197.39 1159.96,-197.39"/>
<text text-anchor="start" x="1170.96" y="-217.59" font-family="Helvetica,sans-Serif" font-size="32.00" fill="#29235c">created_at &#160;&#160;&#160;</text>
<text text-anchor="start" x="1365.41" y="-218.59" font-family="Helvetica,sans-Serif" font-style="italic" font-size="32.00" fill="#29235c">timestamp</text>
<polygon fill="#e7e2dd" stroke="transparent" points="1159.96,-137.39 1159.96,-197.39 1523.96,-197.39 1523.96,-137.39 1159.96,-137.39"/>
<polygon fill="none" stroke="#29235c" points="1159.96,-137.39 1159.96,-197.39 1523.96,-197.39 1523.96,-137.39 1159.96,-137.39"/>
<text text-anchor="start" x="1170.63" y="-157.59" font-family="Helvetica,sans-Serif" font-size="32.00" fill="#29235c">updated_at &#160;&#160;&#160;</text>
<text text-anchor="start" x="1365.68" y="-158.59" font-family="Helvetica,sans-Serif" font-style="italic" font-size="32.00" fill="#29235c">timestamp</text>
<polygon fill="none" stroke="#29235c" stroke-width="2" points="1158.96,-136.39 1158.96,-438.39 1524.96,-438.39 1524.96,-136.39 1158.96,-136.39"/>
</g>
<!-- positions -->
<g id="positions" class="node">
<title>positions</title>
<ellipse fill="none" stroke="black" stroke-width="0" cx="785.53" cy="-257.39" rx="260.43" ry="257.27"/>
<polygon fill="#1d71b8" stroke="transparent" points="603.53,-377.39 603.53,-437.39 967.53,-437.39 967.53,-377.39 603.53,-377.39"/>
<polygon fill="none" stroke="#29235c" points="603.53,-377.39 603.53,-437.39 967.53,-437.39 967.53,-377.39 603.53,-377.39"/>
<text text-anchor="start" x="660.16" y="-398.59" font-family="Helvetica,sans-Serif" font-weight="bold" font-size="32.00" fill="#ffffff"> &#160;&#160;&#160;&#160;&#160;&#160;positions &#160;&#160;&#160;&#160;&#160;&#160;</text>
<polygon fill="#e7e2dd" stroke="transparent" points="603.53,-317.39 603.53,-377.39 967.53,-377.39 967.53,-317.39 603.53,-317.39"/>
<polygon fill="none" stroke="#29235c" points="603.53,-317.39 603.53,-377.39 967.53,-377.39 967.53,-317.39 603.53,-317.39"/>
<text text-anchor="start" x="614.53" y="-338.59" font-family="Helvetica,sans-Serif" font-weight="bold" font-size="32.00" fill="#29235c">id</text>
<text text-anchor="start" x="639.42" y="-338.59" font-family="Helvetica,sans-Serif" font-size="32.00" fill="#29235c"> &#160;&#160;&#160;</text>
<text text-anchor="start" x="922.75" y="-338.59" font-family="Helvetica,sans-Serif" font-style="italic" font-size="32.00" fill="#29235c">int</text>
<polygon fill="#e7e2dd" stroke="transparent" points="603.53,-257.39 603.53,-317.39 967.53,-317.39 967.53,-257.39 603.53,-257.39"/>
<polygon fill="none" stroke="#29235c" points="603.53,-257.39 603.53,-317.39 967.53,-317.39 967.53,-257.39 603.53,-257.39"/>
<text text-anchor="start" x="614.53" y="-277.59" font-family="Helvetica,sans-Serif" font-size="32.00" fill="#29235c">name &#160;&#160;&#160;</text>
<text text-anchor="start" x="810.77" y="-278.59" font-family="Helvetica,sans-Serif" font-style="italic" font-size="32.00" fill="#29235c">varchar</text>
<text text-anchor="start" x="917.44" y="-278.59" font-family="Helvetica,sans-Serif" font-size="32.00" fill="#29235c"> </text>
<text text-anchor="start" x="926.33" y="-278.59" font-family="Helvetica,sans-Serif" font-weight="bold" font-size="32.00" fill="#29235c">(!)</text>
<polygon fill="#e7e2dd" stroke="transparent" points="603.53,-197.39 603.53,-257.39 967.53,-257.39 967.53,-197.39 603.53,-197.39"/>
<polygon fill="none" stroke="#29235c" points="603.53,-197.39 603.53,-257.39 967.53,-257.39 967.53,-197.39 603.53,-197.39"/>
<text text-anchor="start" x="614.53" y="-217.59" font-family="Helvetica,sans-Serif" font-size="32.00" fill="#29235c">department_id &#160;&#160;&#160;</text>
<text text-anchor="start" x="922.75" y="-218.59" font-family="Helvetica,sans-Serif" font-style="italic" font-size="32.00" fill="#29235c">int</text>
<polygon fill="#e7e2dd" stroke="transparent" points="603.53,-137.39 603.53,-197.39 967.53,-197.39 967.53,-137.39 603.53,-137.39"/>
<polygon fill="none" stroke="#29235c" points="603.53,-137.39 603.53,-197.39 967.53,-197.39 967.53,-137.39 603.53,-137.39"/>
<text text-anchor="start" x="614.53" y="-157.59" font-family="Helvetica,sans-Serif" font-size="32.00" fill="#29235c">created_at &#160;&#160;&#160;</text>
<text text-anchor="start" x="808.97" y="-158.59" font-family="Helvetica,sans-Serif" font-style="italic" font-size="32.00" fill="#29235c">timestamp</text>
<polygon fill="#e7e2dd" stroke="transparent" points="603.53,-77.39 603.53,-137.39 967.53,-137.39 967.53,-77.39 603.53,-77.39"/>
<polygon fill="none" stroke="#29235c" points="603.53,-77.39 603.53,-137.39 967.53,-137.39 967.53,-77.39 603.53,-77.39"/>
<text text-anchor="start" x="614.2" y="-97.59" font-family="Helvetica,sans-Serif" font-size="32.00" fill="#29235c">updated_at &#160;&#160;&#160;</text>
<text text-anchor="start" x="809.25" y="-98.59" font-family="Helvetica,sans-Serif" font-style="italic" font-size="32.00" fill="#29235c">timestamp</text>
<polygon fill="none" stroke="#29235c" stroke-width="2" points="602.53,-76.39 602.53,-438.39 968.53,-438.39 968.53,-76.39 602.53,-76.39"/>
</g>
<!-- positions&#45;&gt;departments -->
<!-- positions&#45;&gt;departments -->
<g id="edge2" class="edge">
<title>positions:e&#45;&gt;departments:w</title>
<path fill="none" stroke="#29235c" stroke-width="3" d="M968.53,-227.39C1065.05,-227.39 1059.47,-339.1 1148.81,-346.95"/>
<polygon fill="#29235c" stroke="#29235c" stroke-width="3" points="1148.82,-350.46 1158.96,-347.39 1149.12,-343.46 1148.82,-350.46"/>
<text text-anchor="middle" x="1167.86" y="-347.39" font-family="Helvetica,sans-Serif" font-size="32.00" fill="#29235c">1</text>
<text text-anchor="middle" x="974.76" y="-198.59" font-family="Helvetica,sans-Serif" font-size="32.00" fill="#29235c">*</text>
</g>
<!-- sop -->
<g id="sop" class="node">
<title>sop</title>
<ellipse fill="none" stroke="black" stroke-width="0" cx="785.53" cy="-790.39" rx="260.43" ry="257.27"/>
<polygon fill="#1d71b8" stroke="transparent" points="603.53,-910.39 603.53,-970.39 967.53,-970.39 967.53,-910.39 603.53,-910.39"/>
<polygon fill="none" stroke="#29235c" points="603.53,-910.39 603.53,-970.39 967.53,-970.39 967.53,-910.39 603.53,-910.39"/>
<text text-anchor="start" x="697.49" y="-931.59" font-family="Helvetica,sans-Serif" font-weight="bold" font-size="32.00" fill="#ffffff"> &#160;&#160;&#160;&#160;&#160;&#160;sop &#160;&#160;&#160;&#160;&#160;&#160;</text>
<polygon fill="#e7e2dd" stroke="transparent" points="603.53,-850.39 603.53,-910.39 967.53,-910.39 967.53,-850.39 603.53,-850.39"/>
<polygon fill="none" stroke="#29235c" points="603.53,-850.39 603.53,-910.39 967.53,-910.39 967.53,-850.39 603.53,-850.39"/>
<text text-anchor="start" x="614.53" y="-871.59" font-family="Helvetica,sans-Serif" font-weight="bold" font-size="32.00" fill="#29235c">id</text>
<text text-anchor="start" x="639.42" y="-871.59" font-family="Helvetica,sans-Serif" font-size="32.00" fill="#29235c"> &#160;&#160;&#160;</text>
<text text-anchor="start" x="922.75" y="-871.59" font-family="Helvetica,sans-Serif" font-style="italic" font-size="32.00" fill="#29235c">int</text>
<polygon fill="#e7e2dd" stroke="transparent" points="603.53,-790.39 603.53,-850.39 967.53,-850.39 967.53,-790.39 603.53,-790.39"/>
<polygon fill="none" stroke="#29235c" points="603.53,-790.39 603.53,-850.39 967.53,-850.39 967.53,-790.39 603.53,-790.39"/>
<text text-anchor="start" x="614.53" y="-810.59" font-family="Helvetica,sans-Serif" font-size="32.00" fill="#29235c">title &#160;&#160;&#160;</text>
<text text-anchor="start" x="810.77" y="-811.59" font-family="Helvetica,sans-Serif" font-style="italic" font-size="32.00" fill="#29235c">varchar</text>
<text text-anchor="start" x="917.44" y="-811.59" font-family="Helvetica,sans-Serif" font-size="32.00" fill="#29235c"> </text>
<text text-anchor="start" x="926.33" y="-811.59" font-family="Helvetica,sans-Serif" font-weight="bold" font-size="32.00" fill="#29235c">(!)</text>
<polygon fill="#e7e2dd" stroke="transparent" points="603.53,-730.39 603.53,-790.39 967.53,-790.39 967.53,-730.39 603.53,-730.39"/>
<polygon fill="none" stroke="#29235c" points="603.53,-730.39 603.53,-790.39 967.53,-790.39 967.53,-730.39 603.53,-730.39"/>
<text text-anchor="start" x="614.53" y="-750.59" font-family="Helvetica,sans-Serif" font-size="32.00" fill="#29235c">content &#160;&#160;&#160;</text>
<text text-anchor="start" x="880.07" y="-751.59" font-family="Helvetica,sans-Serif" font-style="italic" font-size="32.00" fill="#29235c">jsonb</text>
<polygon fill="#e7e2dd" stroke="transparent" points="603.53,-670.39 603.53,-730.39 967.53,-730.39 967.53,-670.39 603.53,-670.39"/>
<polygon fill="none" stroke="#29235c" points="603.53,-670.39 603.53,-730.39 967.53,-730.39 967.53,-670.39 603.53,-670.39"/>
<text text-anchor="start" x="614.53" y="-690.59" font-family="Helvetica,sans-Serif" font-size="32.00" fill="#29235c">created_at &#160;&#160;&#160;</text>
<text text-anchor="start" x="808.97" y="-691.59" font-family="Helvetica,sans-Serif" font-style="italic" font-size="32.00" fill="#29235c">timestamp</text>
<polygon fill="#e7e2dd" stroke="transparent" points="603.53,-610.39 603.53,-670.39 967.53,-670.39 967.53,-610.39 603.53,-610.39"/>
<polygon fill="none" stroke="#29235c" points="603.53,-610.39 603.53,-670.39 967.53,-670.39 967.53,-610.39 603.53,-610.39"/>
<text text-anchor="start" x="614.2" y="-630.59" font-family="Helvetica,sans-Serif" font-size="32.00" fill="#29235c">updated_at &#160;&#160;&#160;</text>
<text text-anchor="start" x="809.25" y="-631.59" font-family="Helvetica,sans-Serif" font-style="italic" font-size="32.00" fill="#29235c">timestamp</text>
<polygon fill="none" stroke="#29235c" stroke-width="2" points="602.53,-609.39 602.53,-971.39 968.53,-971.39 968.53,-609.39 602.53,-609.39"/>
</g>
<!-- sop_positions -->
<g id="sop_positions" class="node">
<title>sop_positions</title>
<ellipse fill="none" stroke="black" stroke-width="0" cx="244.66" cy="-643.39" rx="244.82" ry="172.57"/>
<polygon fill="#1d71b8" stroke="transparent" points="73.66,-703.39 73.66,-763.39 415.66,-763.39 415.66,-703.39 73.66,-703.39"/>
<polygon fill="none" stroke="#29235c" points="73.66,-703.39 73.66,-763.39 415.66,-763.39 415.66,-703.39 73.66,-703.39"/>
<text text-anchor="start" x="84.6" y="-724.59" font-family="Helvetica,sans-Serif" font-weight="bold" font-size="32.00" fill="#ffffff"> &#160;&#160;&#160;&#160;&#160;&#160;sop_positions &#160;&#160;&#160;&#160;&#160;&#160;</text>
<polygon fill="#e7e2dd" stroke="transparent" points="73.66,-643.39 73.66,-703.39 415.66,-703.39 415.66,-643.39 73.66,-643.39"/>
<polygon fill="none" stroke="#29235c" points="73.66,-643.39 73.66,-703.39 415.66,-703.39 415.66,-643.39 73.66,-643.39"/>
<text text-anchor="start" x="84.66" y="-664.59" font-family="Helvetica,sans-Serif" font-weight="bold" font-size="32.00" fill="#29235c">id</text>
<text text-anchor="start" x="109.55" y="-664.59" font-family="Helvetica,sans-Serif" font-size="32.00" fill="#29235c"> &#160;&#160;&#160;</text>
<text text-anchor="start" x="370.88" y="-664.59" font-family="Helvetica,sans-Serif" font-style="italic" font-size="32.00" fill="#29235c">int</text>
<polygon fill="#e7e2dd" stroke="transparent" points="73.66,-583.39 73.66,-643.39 415.66,-643.39 415.66,-583.39 73.66,-583.39"/>
<polygon fill="none" stroke="#29235c" points="73.66,-583.39 73.66,-643.39 415.66,-643.39 415.66,-583.39 73.66,-583.39"/>
<text text-anchor="start" x="84.66" y="-603.59" font-family="Helvetica,sans-Serif" font-size="32.00" fill="#29235c">sop_id &#160;&#160;&#160;</text>
<text text-anchor="start" x="370.88" y="-604.59" font-family="Helvetica,sans-Serif" font-style="italic" font-size="32.00" fill="#29235c">int</text>
<polygon fill="#e7e2dd" stroke="transparent" points="73.66,-523.39 73.66,-583.39 415.66,-583.39 415.66,-523.39 73.66,-523.39"/>
<polygon fill="none" stroke="#29235c" points="73.66,-523.39 73.66,-583.39 415.66,-583.39 415.66,-523.39 73.66,-523.39"/>
<text text-anchor="start" x="84.66" y="-543.59" font-family="Helvetica,sans-Serif" font-size="32.00" fill="#29235c">position_id &#160;&#160;&#160;</text>
<text text-anchor="start" x="370.88" y="-544.59" font-family="Helvetica,sans-Serif" font-style="italic" font-size="32.00" fill="#29235c">int</text>
<polygon fill="none" stroke="#29235c" stroke-width="2" points="72.66,-522.39 72.66,-764.39 416.66,-764.39 416.66,-522.39 72.66,-522.39"/>
</g>
<!-- sop_positions&#45;&gt;positions -->
<!-- sop_positions&#45;&gt;positions -->
<g id="edge6" class="edge">
<title>sop_positions:e&#45;&gt;positions:w</title>
<path fill="none" stroke="#29235c" stroke-width="3" d="M416.66,-553.39C536.48,-553.39 482.51,-358.89 592.49,-347.87"/>
<polygon fill="#29235c" stroke="#29235c" stroke-width="3" points="592.71,-351.37 602.53,-347.39 592.38,-344.37 592.71,-351.37"/>
<text text-anchor="middle" x="611.43" y="-347.39" font-family="Helvetica,sans-Serif" font-size="32.00" fill="#29235c">1</text>
<text text-anchor="middle" x="410.44" y="-524.59" font-family="Helvetica,sans-Serif" font-size="32.00" fill="#29235c">*</text>
</g>
<!-- sop_positions&#45;&gt;sop -->
<!-- sop_positions&#45;&gt;sop -->
<g id="edge4" class="edge">
<title>sop_positions:e&#45;&gt;sop:w</title>
<path fill="none" stroke="#29235c" stroke-width="3" d="M416.66,-613.39C557.72,-613.39 462.84,-867.51 592.38,-879.92"/>
<polygon fill="#29235c" stroke="#29235c" stroke-width="3" points="592.38,-883.42 602.53,-880.39 592.71,-876.43 592.38,-883.42"/>
<text text-anchor="middle" x="593.64" y="-889.99" font-family="Helvetica,sans-Serif" font-size="32.00" fill="#29235c">1</text>
<text text-anchor="middle" x="410.44" y="-584.59" font-family="Helvetica,sans-Serif" font-size="32.00" fill="#29235c">*</text>
</g>
</g>
</svg>
