<?xml version="1.0" encoding="UTF-8" standalone="no"?>
<!DOCTYPE svg PUBLIC "-//W3C//DTD SVG 1.1//EN"
 "http://www.w3.org/Graphics/SVG/1.1/DTD/svg11.dtd">
<!-- Generated by graphviz version 2.47.0 (20210316.0004)
 -->
<!-- Title: dbml Pages: 1 -->
<svg width="2277pt" height="1328pt"
 viewBox="0.00 0.00 2276.92 1327.92" xmlns="http://www.w3.org/2000/svg" xmlns:xlink="http://www.w3.org/1999/xlink">
<g id="graph0" class="graph" transform="scale(1 1) rotate(0) translate(4 1323.92)">
<title>dbml</title>
<!-- flowcharts -->
<g id="flowcharts" class="node">
<title>flowcharts</title>
<ellipse fill="none" stroke="black" stroke-width="0" cx="895.84" cy="-130.11" rx="207.78" ry="130.22"/>
<polygon fill="#1d71b8" stroke="transparent" points="750.84,-160.11 750.84,-220.11 1040.84,-220.11 1040.84,-160.11 750.84,-160.11"/>
<polygon fill="none" stroke="#29235c" points="750.84,-160.11 750.84,-220.11 1040.84,-220.11 1040.84,-160.11 750.84,-160.11"/>
<text text-anchor="start" x="761.59" y="-181.31" font-family="Helvetica,sans-Serif" font-weight="bold" font-size="32.00" fill="#ffffff"> &#160;&#160;&#160;&#160;&#160;&#160;flowcharts &#160;&#160;&#160;&#160;&#160;&#160;</text>
<polygon fill="#e7e2dd" stroke="transparent" points="750.84,-100.11 750.84,-160.11 1040.84,-160.11 1040.84,-100.11 750.84,-100.11"/>
<polygon fill="none" stroke="#29235c" points="750.84,-100.11 750.84,-160.11 1040.84,-160.11 1040.84,-100.11 750.84,-100.11"/>
<text text-anchor="start" x="761.84" y="-121.31" font-family="Helvetica,sans-Serif" font-weight="bold" font-size="32.00" fill="#29235c">id</text>
<text text-anchor="start" x="786.73" y="-121.31" font-family="Helvetica,sans-Serif" font-size="32.00" fill="#29235c"> &#160;&#160;&#160;</text>
<text text-anchor="start" x="996.06" y="-121.31" font-family="Helvetica,sans-Serif" font-style="italic" font-size="32.00" fill="#29235c">int</text>
<polygon fill="#e7e2dd" stroke="transparent" points="750.84,-40.11 750.84,-100.11 1040.84,-100.11 1040.84,-40.11 750.84,-40.11"/>
<polygon fill="none" stroke="#29235c" points="750.84,-40.11 750.84,-100.11 1040.84,-100.11 1040.84,-40.11 750.84,-40.11"/>
<text text-anchor="start" x="761.84" y="-60.31" font-family="Helvetica,sans-Serif" font-size="32.00" fill="#29235c">name &#160;&#160;&#160;</text>
<text text-anchor="start" x="884.08" y="-61.31" font-family="Helvetica,sans-Serif" font-style="italic" font-size="32.00" fill="#29235c">varchar</text>
<text text-anchor="start" x="990.75" y="-61.31" font-family="Helvetica,sans-Serif" font-size="32.00" fill="#29235c"> </text>
<text text-anchor="start" x="999.64" y="-61.31" font-family="Helvetica,sans-Serif" font-weight="bold" font-size="32.00" fill="#29235c">(!)</text>
<polygon fill="none" stroke="#29235c" stroke-width="2" points="749.84,-39.11 749.84,-221.11 1041.84,-221.11 1041.84,-39.11 749.84,-39.11"/>
</g>
<!-- departments -->
<g id="departments" class="node">
<title>departments</title>
<ellipse fill="none" stroke="black" stroke-width="0" cx="2008.7" cy="-475.11" rx="260.43" ry="214.92"/>
<polygon fill="#1d71b8" stroke="transparent" points="1826.7,-565.11 1826.7,-625.11 2190.7,-625.11 2190.7,-565.11 1826.7,-565.11"/>
<polygon fill="none" stroke="#29235c" points="1826.7,-565.11 1826.7,-625.11 2190.7,-625.11 2190.7,-565.11 1826.7,-565.11"/>
<text text-anchor="start" x="1857.54" y="-586.31" font-family="Helvetica,sans-Serif" font-weight="bold" font-size="32.00" fill="#ffffff"> &#160;&#160;&#160;&#160;&#160;&#160;departments &#160;&#160;&#160;&#160;&#160;&#160;</text>
<polygon fill="#e7e2dd" stroke="transparent" points="1826.7,-505.11 1826.7,-565.11 2190.7,-565.11 2190.7,-505.11 1826.7,-505.11"/>
<polygon fill="none" stroke="#29235c" points="1826.7,-505.11 1826.7,-565.11 2190.7,-565.11 2190.7,-505.11 1826.7,-505.11"/>
<text text-anchor="start" x="1837.7" y="-526.31" font-family="Helvetica,sans-Serif" font-weight="bold" font-size="32.00" fill="#29235c">id</text>
<text text-anchor="start" x="1862.59" y="-526.31" font-family="Helvetica,sans-Serif" font-size="32.00" fill="#29235c"> &#160;&#160;&#160;</text>
<text text-anchor="start" x="2145.92" y="-526.31" font-family="Helvetica,sans-Serif" font-style="italic" font-size="32.00" fill="#29235c">int</text>
<polygon fill="#e7e2dd" stroke="transparent" points="1826.7,-445.11 1826.7,-505.11 2190.7,-505.11 2190.7,-445.11 1826.7,-445.11"/>
<polygon fill="none" stroke="#29235c" points="1826.7,-445.11 1826.7,-505.11 2190.7,-505.11 2190.7,-445.11 1826.7,-445.11"/>
<text text-anchor="start" x="1837.7" y="-465.31" font-family="Helvetica,sans-Serif" font-size="32.00" fill="#29235c">name &#160;&#160;&#160;</text>
<text text-anchor="start" x="2033.94" y="-466.31" font-family="Helvetica,sans-Serif" font-style="italic" font-size="32.00" fill="#29235c">varchar</text>
<text text-anchor="start" x="2140.61" y="-466.31" font-family="Helvetica,sans-Serif" font-size="32.00" fill="#29235c"> </text>
<text text-anchor="start" x="2149.5" y="-466.31" font-family="Helvetica,sans-Serif" font-weight="bold" font-size="32.00" fill="#29235c">(!)</text>
<polygon fill="#e7e2dd" stroke="transparent" points="1826.7,-385.11 1826.7,-445.11 2190.7,-445.11 2190.7,-385.11 1826.7,-385.11"/>
<polygon fill="none" stroke="#29235c" points="1826.7,-385.11 1826.7,-445.11 2190.7,-445.11 2190.7,-385.11 1826.7,-385.11"/>
<text text-anchor="start" x="1837.7" y="-405.31" font-family="Helvetica,sans-Serif" font-size="32.00" fill="#29235c">created_at &#160;&#160;&#160;</text>
<text text-anchor="start" x="2032.14" y="-406.31" font-family="Helvetica,sans-Serif" font-style="italic" font-size="32.00" fill="#29235c">timestamp</text>
<polygon fill="#e7e2dd" stroke="transparent" points="1826.7,-325.11 1826.7,-385.11 2190.7,-385.11 2190.7,-325.11 1826.7,-325.11"/>
<polygon fill="none" stroke="#29235c" points="1826.7,-325.11 1826.7,-385.11 2190.7,-385.11 2190.7,-325.11 1826.7,-325.11"/>
<text text-anchor="start" x="1837.37" y="-345.31" font-family="Helvetica,sans-Serif" font-size="32.00" fill="#29235c">updated_at &#160;&#160;&#160;</text>
<text text-anchor="start" x="2032.42" y="-346.31" font-family="Helvetica,sans-Serif" font-style="italic" font-size="32.00" fill="#29235c">timestamp</text>
<polygon fill="none" stroke="#29235c" stroke-width="2" points="1825.7,-324.11 1825.7,-626.11 2191.7,-626.11 2191.7,-324.11 1825.7,-324.11"/>
</g>
<!-- positions -->
<g id="positions" class="node">
<title>positions</title>
<ellipse fill="none" stroke="black" stroke-width="0" cx="1452.27" cy="-445.11" rx="260.43" ry="257.27"/>
<polygon fill="#1d71b8" stroke="transparent" points="1270.27,-565.11 1270.27,-625.11 1634.27,-625.11 1634.27,-565.11 1270.27,-565.11"/>
<polygon fill="none" stroke="#29235c" points="1270.27,-565.11 1270.27,-625.11 1634.27,-625.11 1634.27,-565.11 1270.27,-565.11"/>
<text text-anchor="start" x="1326.9" y="-586.31" font-family="Helvetica,sans-Serif" font-weight="bold" font-size="32.00" fill="#ffffff"> &#160;&#160;&#160;&#160;&#160;&#160;positions &#160;&#160;&#160;&#160;&#160;&#160;</text>
<polygon fill="#e7e2dd" stroke="transparent" points="1270.27,-505.11 1270.27,-565.11 1634.27,-565.11 1634.27,-505.11 1270.27,-505.11"/>
<polygon fill="none" stroke="#29235c" points="1270.27,-505.11 1270.27,-565.11 1634.27,-565.11 1634.27,-505.11 1270.27,-505.11"/>
<text text-anchor="start" x="1281.27" y="-526.31" font-family="Helvetica,sans-Serif" font-weight="bold" font-size="32.00" fill="#29235c">id</text>
<text text-anchor="start" x="1306.16" y="-526.31" font-family="Helvetica,sans-Serif" font-size="32.00" fill="#29235c"> &#160;&#160;&#160;</text>
<text text-anchor="start" x="1589.49" y="-526.31" font-family="Helvetica,sans-Serif" font-style="italic" font-size="32.00" fill="#29235c">int</text>
<polygon fill="#e7e2dd" stroke="transparent" points="1270.27,-445.11 1270.27,-505.11 1634.27,-505.11 1634.27,-445.11 1270.27,-445.11"/>
<polygon fill="none" stroke="#29235c" points="1270.27,-445.11 1270.27,-505.11 1634.27,-505.11 1634.27,-445.11 1270.27,-445.11"/>
<text text-anchor="start" x="1281.27" y="-465.31" font-family="Helvetica,sans-Serif" font-size="32.00" fill="#29235c">name &#160;&#160;&#160;</text>
<text text-anchor="start" x="1477.51" y="-466.31" font-family="Helvetica,sans-Serif" font-style="italic" font-size="32.00" fill="#29235c">varchar</text>
<text text-anchor="start" x="1584.18" y="-466.31" font-family="Helvetica,sans-Serif" font-size="32.00" fill="#29235c"> </text>
<text text-anchor="start" x="1593.07" y="-466.31" font-family="Helvetica,sans-Serif" font-weight="bold" font-size="32.00" fill="#29235c">(!)</text>
<polygon fill="#e7e2dd" stroke="transparent" points="1270.27,-385.11 1270.27,-445.11 1634.27,-445.11 1634.27,-385.11 1270.27,-385.11"/>
<polygon fill="none" stroke="#29235c" points="1270.27,-385.11 1270.27,-445.11 1634.27,-445.11 1634.27,-385.11 1270.27,-385.11"/>
<text text-anchor="start" x="1281.27" y="-405.31" font-family="Helvetica,sans-Serif" font-size="32.00" fill="#29235c">department_id &#160;&#160;&#160;</text>
<text text-anchor="start" x="1589.49" y="-406.31" font-family="Helvetica,sans-Serif" font-style="italic" font-size="32.00" fill="#29235c">int</text>
<polygon fill="#e7e2dd" stroke="transparent" points="1270.27,-325.11 1270.27,-385.11 1634.27,-385.11 1634.27,-325.11 1270.27,-325.11"/>
<polygon fill="none" stroke="#29235c" points="1270.27,-325.11 1270.27,-385.11 1634.27,-385.11 1634.27,-325.11 1270.27,-325.11"/>
<text text-anchor="start" x="1281.27" y="-345.31" font-family="Helvetica,sans-Serif" font-size="32.00" fill="#29235c">created_at &#160;&#160;&#160;</text>
<text text-anchor="start" x="1475.71" y="-346.31" font-family="Helvetica,sans-Serif" font-style="italic" font-size="32.00" fill="#29235c">timestamp</text>
<polygon fill="#e7e2dd" stroke="transparent" points="1270.27,-265.11 1270.27,-325.11 1634.27,-325.11 1634.27,-265.11 1270.27,-265.11"/>
<polygon fill="none" stroke="#29235c" points="1270.27,-265.11 1270.27,-325.11 1634.27,-325.11 1634.27,-265.11 1270.27,-265.11"/>
<text text-anchor="start" x="1280.94" y="-285.31" font-family="Helvetica,sans-Serif" font-size="32.00" fill="#29235c">updated_at &#160;&#160;&#160;</text>
<text text-anchor="start" x="1475.99" y="-286.31" font-family="Helvetica,sans-Serif" font-style="italic" font-size="32.00" fill="#29235c">timestamp</text>
<polygon fill="none" stroke="#29235c" stroke-width="2" points="1269.27,-264.11 1269.27,-626.11 1635.27,-626.11 1635.27,-264.11 1269.27,-264.11"/>
</g>
<!-- positions&#45;&gt;departments -->
<!-- positions&#45;&gt;departments -->
<g id="edge2" class="edge">
<title>positions:e&#45;&gt;departments:w</title>
<path fill="none" stroke="#29235c" stroke-width="3" d="M1635.27,-415.11C1731.79,-415.11 1726.21,-526.82 1815.55,-534.67"/>
<polygon fill="#29235c" stroke="#29235c" stroke-width="3" points="1815.56,-538.18 1825.7,-535.11 1815.86,-531.18 1815.56,-538.18"/>
<text text-anchor="middle" x="1816.81" y="-544.71" font-family="Helvetica,sans-Serif" font-size="32.00" fill="#29235c">1</text>
<text text-anchor="middle" x="1641.49" y="-424.71" font-family="Helvetica,sans-Serif" font-size="32.00" fill="#29235c">*</text>
</g>
<!-- sops -->
<g id="sops" class="node">
<title>sops</title>
<ellipse fill="none" stroke="black" stroke-width="0" cx="1452.27" cy="-1020.11" rx="260.43" ry="299.63"/>
<polygon fill="#1d71b8" stroke="transparent" points="1270.27,-1170.11 1270.27,-1230.11 1634.27,-1230.11 1634.27,-1170.11 1270.27,-1170.11"/>
<polygon fill="none" stroke="#29235c" points="1270.27,-1170.11 1270.27,-1230.11 1634.27,-1230.11 1634.27,-1170.11 1270.27,-1170.11"/>
<text text-anchor="start" x="1356.23" y="-1191.31" font-family="Helvetica,sans-Serif" font-weight="bold" font-size="32.00" fill="#ffffff"> &#160;&#160;&#160;&#160;&#160;&#160;sops &#160;&#160;&#160;&#160;&#160;&#160;</text>
<polygon fill="#e7e2dd" stroke="transparent" points="1270.27,-1110.11 1270.27,-1170.11 1634.27,-1170.11 1634.27,-1110.11 1270.27,-1110.11"/>
<polygon fill="none" stroke="#29235c" points="1270.27,-1110.11 1270.27,-1170.11 1634.27,-1170.11 1634.27,-1110.11 1270.27,-1110.11"/>
<text text-anchor="start" x="1281.27" y="-1131.31" font-family="Helvetica,sans-Serif" font-weight="bold" font-size="32.00" fill="#29235c">id</text>
<text text-anchor="start" x="1306.16" y="-1131.31" font-family="Helvetica,sans-Serif" font-size="32.00" fill="#29235c"> &#160;&#160;&#160;</text>
<text text-anchor="start" x="1589.49" y="-1131.31" font-family="Helvetica,sans-Serif" font-style="italic" font-size="32.00" fill="#29235c">int</text>
<polygon fill="#e7e2dd" stroke="transparent" points="1270.27,-1050.11 1270.27,-1110.11 1634.27,-1110.11 1634.27,-1050.11 1270.27,-1050.11"/>
<polygon fill="none" stroke="#29235c" points="1270.27,-1050.11 1270.27,-1110.11 1634.27,-1110.11 1634.27,-1050.11 1270.27,-1050.11"/>
<text text-anchor="start" x="1281.27" y="-1070.31" font-family="Helvetica,sans-Serif" font-size="32.00" fill="#29235c">title &#160;&#160;&#160;</text>
<text text-anchor="start" x="1477.51" y="-1071.31" font-family="Helvetica,sans-Serif" font-style="italic" font-size="32.00" fill="#29235c">varchar</text>
<text text-anchor="start" x="1584.18" y="-1071.31" font-family="Helvetica,sans-Serif" font-size="32.00" fill="#29235c"> </text>
<text text-anchor="start" x="1593.07" y="-1071.31" font-family="Helvetica,sans-Serif" font-weight="bold" font-size="32.00" fill="#29235c">(!)</text>
<polygon fill="#e7e2dd" stroke="transparent" points="1270.27,-990.11 1270.27,-1050.11 1634.27,-1050.11 1634.27,-990.11 1270.27,-990.11"/>
<polygon fill="none" stroke="#29235c" points="1270.27,-990.11 1270.27,-1050.11 1634.27,-1050.11 1634.27,-990.11 1270.27,-990.11"/>
<text text-anchor="start" x="1281.27" y="-1010.31" font-family="Helvetica,sans-Serif" font-size="32.00" fill="#29235c">code &#160;&#160;&#160;</text>
<text text-anchor="start" x="1516.6" y="-1011.31" font-family="Helvetica,sans-Serif" font-style="italic" font-size="32.00" fill="#29235c">varchar</text>
<polygon fill="#e7e2dd" stroke="transparent" points="1270.27,-930.11 1270.27,-990.11 1634.27,-990.11 1634.27,-930.11 1270.27,-930.11"/>
<polygon fill="none" stroke="#29235c" points="1270.27,-930.11 1270.27,-990.11 1634.27,-990.11 1634.27,-930.11 1270.27,-930.11"/>
<text text-anchor="start" x="1281.27" y="-950.31" font-family="Helvetica,sans-Serif" font-size="32.00" fill="#29235c">content &#160;&#160;&#160;</text>
<text text-anchor="start" x="1546.81" y="-951.31" font-family="Helvetica,sans-Serif" font-style="italic" font-size="32.00" fill="#29235c">jsonb</text>
<polygon fill="#e7e2dd" stroke="transparent" points="1270.27,-870.11 1270.27,-930.11 1634.27,-930.11 1634.27,-870.11 1270.27,-870.11"/>
<polygon fill="none" stroke="#29235c" points="1270.27,-870.11 1270.27,-930.11 1634.27,-930.11 1634.27,-870.11 1270.27,-870.11"/>
<text text-anchor="start" x="1281.27" y="-890.31" font-family="Helvetica,sans-Serif" font-size="32.00" fill="#29235c">created_at &#160;&#160;&#160;</text>
<text text-anchor="start" x="1475.71" y="-891.31" font-family="Helvetica,sans-Serif" font-style="italic" font-size="32.00" fill="#29235c">timestamp</text>
<polygon fill="#e7e2dd" stroke="transparent" points="1270.27,-810.11 1270.27,-870.11 1634.27,-870.11 1634.27,-810.11 1270.27,-810.11"/>
<polygon fill="none" stroke="#29235c" points="1270.27,-810.11 1270.27,-870.11 1634.27,-870.11 1634.27,-810.11 1270.27,-810.11"/>
<text text-anchor="start" x="1280.94" y="-830.31" font-family="Helvetica,sans-Serif" font-size="32.00" fill="#29235c">updated_at &#160;&#160;&#160;</text>
<text text-anchor="start" x="1475.99" y="-831.31" font-family="Helvetica,sans-Serif" font-style="italic" font-size="32.00" fill="#29235c">timestamp</text>
<polygon fill="none" stroke="#29235c" stroke-width="2" points="1269.27,-809.11 1269.27,-1231.11 1635.27,-1231.11 1635.27,-809.11 1269.27,-809.11"/>
</g>
<!-- sop_jobs -->
<g id="sop_jobs" class="node">
<title>sop_jobs</title>
<ellipse fill="none" stroke="black" stroke-width="0" cx="895.84" cy="-748.11" rx="260.43" ry="469.54"/>
<polygon fill="#1d71b8" stroke="transparent" points="713.84,-1018.11 713.84,-1078.11 1077.84,-1078.11 1077.84,-1018.11 713.84,-1018.11"/>
<polygon fill="none" stroke="#29235c" points="713.84,-1018.11 713.84,-1078.11 1077.84,-1078.11 1077.84,-1018.11 713.84,-1018.11"/>
<text text-anchor="start" x="769.57" y="-1039.31" font-family="Helvetica,sans-Serif" font-weight="bold" font-size="32.00" fill="#ffffff"> &#160;&#160;&#160;&#160;&#160;&#160;sop_jobs &#160;&#160;&#160;&#160;&#160;&#160;</text>
<polygon fill="#e7e2dd" stroke="transparent" points="713.84,-958.11 713.84,-1018.11 1077.84,-1018.11 1077.84,-958.11 713.84,-958.11"/>
<polygon fill="none" stroke="#29235c" points="713.84,-958.11 713.84,-1018.11 1077.84,-1018.11 1077.84,-958.11 713.84,-958.11"/>
<text text-anchor="start" x="724.84" y="-979.31" font-family="Helvetica,sans-Serif" font-weight="bold" font-size="32.00" fill="#29235c">id</text>
<text text-anchor="start" x="749.73" y="-979.31" font-family="Helvetica,sans-Serif" font-size="32.00" fill="#29235c"> &#160;&#160;&#160;</text>
<text text-anchor="start" x="1033.06" y="-979.31" font-family="Helvetica,sans-Serif" font-style="italic" font-size="32.00" fill="#29235c">int</text>
<polygon fill="#e7e2dd" stroke="transparent" points="713.84,-898.11 713.84,-958.11 1077.84,-958.11 1077.84,-898.11 713.84,-898.11"/>
<polygon fill="none" stroke="#29235c" points="713.84,-898.11 713.84,-958.11 1077.84,-958.11 1077.84,-898.11 713.84,-898.11"/>
<text text-anchor="start" x="724.84" y="-918.31" font-family="Helvetica,sans-Serif" font-size="32.00" fill="#29235c">name &#160;&#160;&#160;</text>
<text text-anchor="start" x="921.08" y="-919.31" font-family="Helvetica,sans-Serif" font-style="italic" font-size="32.00" fill="#29235c">varchar</text>
<text text-anchor="start" x="1027.75" y="-919.31" font-family="Helvetica,sans-Serif" font-size="32.00" fill="#29235c"> </text>
<text text-anchor="start" x="1036.64" y="-919.31" font-family="Helvetica,sans-Serif" font-weight="bold" font-size="32.00" fill="#29235c">(!)</text>
<polygon fill="#e7e2dd" stroke="transparent" points="713.84,-838.11 713.84,-898.11 1077.84,-898.11 1077.84,-838.11 713.84,-838.11"/>
<polygon fill="none" stroke="#29235c" points="713.84,-838.11 713.84,-898.11 1077.84,-898.11 1077.84,-838.11 713.84,-838.11"/>
<text text-anchor="start" x="724.84" y="-858.31" font-family="Helvetica,sans-Serif" font-size="32.00" fill="#29235c">type &#160;&#160;&#160;</text>
<text text-anchor="start" x="945.9" y="-859.31" font-family="Helvetica,sans-Serif" font-style="italic" font-size="32.00" fill="#29235c">job_type</text>
<polygon fill="#e7e2dd" stroke="transparent" points="713.84,-778.11 713.84,-838.11 1077.84,-838.11 1077.84,-778.11 713.84,-778.11"/>
<polygon fill="none" stroke="#29235c" points="713.84,-778.11 713.84,-838.11 1077.84,-838.11 1077.84,-778.11 713.84,-778.11"/>
<text text-anchor="start" x="724.84" y="-798.31" font-family="Helvetica,sans-Serif" font-size="32.00" fill="#29235c">description &#160;&#160;&#160;</text>
<text text-anchor="start" x="990.37" y="-799.31" font-family="Helvetica,sans-Serif" font-style="italic" font-size="32.00" fill="#29235c">jsonb</text>
<polygon fill="#e7e2dd" stroke="transparent" points="713.84,-718.11 713.84,-778.11 1077.84,-778.11 1077.84,-718.11 713.84,-718.11"/>
<polygon fill="none" stroke="#29235c" points="713.84,-718.11 713.84,-778.11 1077.84,-778.11 1077.84,-718.11 713.84,-718.11"/>
<text text-anchor="start" x="724.84" y="-738.31" font-family="Helvetica,sans-Serif" font-size="32.00" fill="#29235c">sop_id &#160;&#160;&#160;</text>
<text text-anchor="start" x="993.97" y="-739.31" font-family="Helvetica,sans-Serif" font-style="italic" font-size="32.00" fill="#29235c">int</text>
<text text-anchor="start" x="1027.75" y="-739.31" font-family="Helvetica,sans-Serif" font-size="32.00" fill="#29235c"> </text>
<text text-anchor="start" x="1036.64" y="-739.31" font-family="Helvetica,sans-Serif" font-weight="bold" font-size="32.00" fill="#29235c">(!)</text>
<polygon fill="#e7e2dd" stroke="transparent" points="713.84,-658.11 713.84,-718.11 1077.84,-718.11 1077.84,-658.11 713.84,-658.11"/>
<polygon fill="none" stroke="#29235c" points="713.84,-658.11 713.84,-718.11 1077.84,-718.11 1077.84,-658.11 713.84,-658.11"/>
<text text-anchor="start" x="724.84" y="-678.31" font-family="Helvetica,sans-Serif" font-size="32.00" fill="#29235c">position_id &#160;&#160;&#160;</text>
<text text-anchor="start" x="993.97" y="-679.31" font-family="Helvetica,sans-Serif" font-style="italic" font-size="32.00" fill="#29235c">int</text>
<text text-anchor="start" x="1027.75" y="-679.31" font-family="Helvetica,sans-Serif" font-size="32.00" fill="#29235c"> </text>
<text text-anchor="start" x="1036.64" y="-679.31" font-family="Helvetica,sans-Serif" font-weight="bold" font-size="32.00" fill="#29235c">(!)</text>
<polygon fill="#e7e2dd" stroke="transparent" points="713.84,-598.11 713.84,-658.11 1077.84,-658.11 1077.84,-598.11 713.84,-598.11"/>
<polygon fill="none" stroke="#29235c" points="713.84,-598.11 713.84,-658.11 1077.84,-658.11 1077.84,-598.11 713.84,-598.11"/>
<text text-anchor="start" x="724.84" y="-618.31" font-family="Helvetica,sans-Serif" font-size="32.00" fill="#29235c">reference_id &#160;&#160;&#160;</text>
<text text-anchor="start" x="1033.06" y="-619.31" font-family="Helvetica,sans-Serif" font-style="italic" font-size="32.00" fill="#29235c">int</text>
<polygon fill="#e7e2dd" stroke="transparent" points="713.84,-538.11 713.84,-598.11 1077.84,-598.11 1077.84,-538.11 713.84,-538.11"/>
<polygon fill="none" stroke="#29235c" points="713.84,-538.11 713.84,-598.11 1077.84,-598.11 1077.84,-538.11 713.84,-538.11"/>
<text text-anchor="start" x="724.84" y="-558.31" font-family="Helvetica,sans-Serif" font-size="32.00" fill="#29235c">index &#160;&#160;&#160;</text>
<text text-anchor="start" x="1033.06" y="-559.31" font-family="Helvetica,sans-Serif" font-style="italic" font-size="32.00" fill="#29235c">int</text>
<polygon fill="#e7e2dd" stroke="transparent" points="713.84,-478.11 713.84,-538.11 1077.84,-538.11 1077.84,-478.11 713.84,-478.11"/>
<polygon fill="none" stroke="#29235c" points="713.84,-478.11 713.84,-538.11 1077.84,-538.11 1077.84,-478.11 713.84,-478.11"/>
<text text-anchor="start" x="724.84" y="-498.31" font-family="Helvetica,sans-Serif" font-size="32.00" fill="#29235c">created_at &#160;&#160;&#160;</text>
<text text-anchor="start" x="919.28" y="-499.31" font-family="Helvetica,sans-Serif" font-style="italic" font-size="32.00" fill="#29235c">timestamp</text>
<polygon fill="#e7e2dd" stroke="transparent" points="713.84,-418.11 713.84,-478.11 1077.84,-478.11 1077.84,-418.11 713.84,-418.11"/>
<polygon fill="none" stroke="#29235c" points="713.84,-418.11 713.84,-478.11 1077.84,-478.11 1077.84,-418.11 713.84,-418.11"/>
<text text-anchor="start" x="724.51" y="-438.31" font-family="Helvetica,sans-Serif" font-size="32.00" fill="#29235c">updated_at &#160;&#160;&#160;</text>
<text text-anchor="start" x="919.56" y="-439.31" font-family="Helvetica,sans-Serif" font-style="italic" font-size="32.00" fill="#29235c">timestamp</text>
<polygon fill="none" stroke="#29235c" stroke-width="2" points="712.84,-417.11 712.84,-1079.11 1078.84,-1079.11 1078.84,-417.11 712.84,-417.11"/>
</g>
<!-- sop_jobs&#45;&gt;positions -->
<!-- sop_jobs&#45;&gt;positions -->
<g id="edge6" class="edge">
<title>sop_jobs:e&#45;&gt;positions:w</title>
<path fill="none" stroke="#29235c" stroke-width="3" d="M1078.84,-688.11C1183.91,-688.11 1162.28,-544.81 1259.19,-535.57"/>
<polygon fill="#29235c" stroke="#29235c" stroke-width="3" points="1259.44,-539.07 1269.27,-535.11 1259.12,-532.07 1259.44,-539.07"/>
<text text-anchor="middle" x="1260.38" y="-544.71" font-family="Helvetica,sans-Serif" font-size="32.00" fill="#29235c">1</text>
<text text-anchor="middle" x="1072.62" y="-697.71" font-family="Helvetica,sans-Serif" font-size="32.00" fill="#29235c">*</text>
</g>
<!-- sop_jobs&#45;&gt;sops -->
<!-- sop_jobs&#45;&gt;sops -->
<g id="edge4" class="edge">
<title>sop_jobs:e&#45;&gt;sops:w</title>
<path fill="none" stroke="#29235c" stroke-width="3" d="M1078.84,-748.11C1269.03,-748.11 1082.57,-1126.07 1259.15,-1139.73"/>
<polygon fill="#29235c" stroke="#29235c" stroke-width="3" points="1259.15,-1143.23 1269.27,-1140.11 1259.41,-1136.24 1259.15,-1143.23"/>
<text text-anchor="middle" x="1260.38" y="-1149.71" font-family="Helvetica,sans-Serif" font-size="32.00" fill="#29235c">1</text>
<text text-anchor="middle" x="1072.62" y="-757.71" font-family="Helvetica,sans-Serif" font-size="32.00" fill="#29235c">*</text>
</g>
<!-- sop_job_flowcharts -->
<g id="sop_job_flowcharts" class="node">
<title>sop_job_flowcharts</title>
<ellipse fill="none" stroke="black" stroke-width="0" cx="299.81" cy="-589.11" rx="299.63" ry="172.57"/>
<polygon fill="#1d71b8" stroke="transparent" points="89.81,-649.11 89.81,-709.11 509.81,-709.11 509.81,-649.11 89.81,-649.11"/>
<polygon fill="none" stroke="#29235c" points="89.81,-649.11 89.81,-709.11 509.81,-709.11 509.81,-649.11 89.81,-649.11"/>
<text text-anchor="start" x="100.64" y="-670.31" font-family="Helvetica,sans-Serif" font-weight="bold" font-size="32.00" fill="#ffffff"> &#160;&#160;&#160;&#160;&#160;&#160;sop_job_flowcharts &#160;&#160;&#160;&#160;&#160;&#160;</text>
<polygon fill="#e7e2dd" stroke="transparent" points="89.81,-589.11 89.81,-649.11 509.81,-649.11 509.81,-589.11 89.81,-589.11"/>
<polygon fill="none" stroke="#29235c" points="89.81,-589.11 89.81,-649.11 509.81,-649.11 509.81,-589.11 89.81,-589.11"/>
<text text-anchor="start" x="100.81" y="-610.31" font-family="Helvetica,sans-Serif" font-weight="bold" font-size="32.00" fill="#29235c">id</text>
<text text-anchor="start" x="125.7" y="-610.31" font-family="Helvetica,sans-Serif" font-size="32.00" fill="#29235c"> &#160;&#160;&#160;</text>
<text text-anchor="start" x="465.03" y="-610.31" font-family="Helvetica,sans-Serif" font-style="italic" font-size="32.00" fill="#29235c">int</text>
<polygon fill="#e7e2dd" stroke="transparent" points="89.81,-529.11 89.81,-589.11 509.81,-589.11 509.81,-529.11 89.81,-529.11"/>
<polygon fill="none" stroke="#29235c" points="89.81,-529.11 89.81,-589.11 509.81,-589.11 509.81,-529.11 89.81,-529.11"/>
<text text-anchor="start" x="100.81" y="-549.31" font-family="Helvetica,sans-Serif" font-size="32.00" fill="#29235c">sop_job_id &#160;&#160;&#160;</text>
<text text-anchor="start" x="425.94" y="-550.31" font-family="Helvetica,sans-Serif" font-style="italic" font-size="32.00" fill="#29235c">int</text>
<text text-anchor="start" x="459.72" y="-550.31" font-family="Helvetica,sans-Serif" font-size="32.00" fill="#29235c"> </text>
<text text-anchor="start" x="468.61" y="-550.31" font-family="Helvetica,sans-Serif" font-weight="bold" font-size="32.00" fill="#29235c">(!)</text>
<polygon fill="#e7e2dd" stroke="transparent" points="89.81,-469.11 89.81,-529.11 509.81,-529.11 509.81,-469.11 89.81,-469.11"/>
<polygon fill="none" stroke="#29235c" points="89.81,-469.11 89.81,-529.11 509.81,-529.11 509.81,-469.11 89.81,-469.11"/>
<text text-anchor="start" x="100.81" y="-489.31" font-family="Helvetica,sans-Serif" font-size="32.00" fill="#29235c">flowchart_id &#160;&#160;&#160;</text>
<text text-anchor="start" x="425.94" y="-490.31" font-family="Helvetica,sans-Serif" font-style="italic" font-size="32.00" fill="#29235c">int</text>
<text text-anchor="start" x="459.72" y="-490.31" font-family="Helvetica,sans-Serif" font-size="32.00" fill="#29235c"> </text>
<text text-anchor="start" x="468.61" y="-490.31" font-family="Helvetica,sans-Serif" font-weight="bold" font-size="32.00" fill="#29235c">(!)</text>
<polygon fill="none" stroke="#29235c" stroke-width="2" points="88.81,-468.11 88.81,-710.11 510.81,-710.11 510.81,-468.11 88.81,-468.11"/>
</g>
<!-- sop_job_flowcharts&#45;&gt;flowcharts -->
<!-- sop_job_flowcharts&#45;&gt;flowcharts -->
<g id="edge10" class="edge">
<title>sop_job_flowcharts:e&#45;&gt;flowcharts:w</title>
<path fill="none" stroke="#29235c" stroke-width="3" d="M510.81,-499.11C627.12,-499.11 570.68,-365.59 635.63,-269.11 678.27,-205.76 670.71,-136.62 739.6,-130.54"/>
<polygon fill="#29235c" stroke="#29235c" stroke-width="3" points="740,-134.03 749.84,-130.11 739.7,-127.03 740,-134.03"/>
<text text-anchor="middle" x="740.95" y="-101.31" font-family="Helvetica,sans-Serif" font-size="32.00" fill="#29235c">1</text>
<text text-anchor="middle" x="504.59" y="-508.71" font-family="Helvetica,sans-Serif" font-size="32.00" fill="#29235c">*</text>
</g>
<!-- sop_job_flowcharts&#45;&gt;sop_jobs -->
<!-- sop_job_flowcharts&#45;&gt;sop_jobs -->
<g id="edge8" class="edge">
<title>sop_job_flowcharts:e&#45;&gt;sop_jobs:w</title>
<path fill="none" stroke="#29235c" stroke-width="3" d="M510.81,-559.11C718.07,-559.11 509.26,-973.98 702.7,-987.76"/>
<polygon fill="#29235c" stroke="#29235c" stroke-width="3" points="702.73,-991.26 712.84,-988.11 702.97,-984.26 702.73,-991.26"/>
<text text-anchor="middle" x="703.95" y="-997.71" font-family="Helvetica,sans-Serif" font-size="32.00" fill="#29235c">1</text>
<text text-anchor="middle" x="504.59" y="-568.71" font-family="Helvetica,sans-Serif" font-size="32.00" fill="#29235c">*</text>
</g>
</g>
</svg>
