<?xml version="1.0" encoding="UTF-8" standalone="no"?>
<!DOCTYPE svg PUBLIC "-//W3C//DTD SVG 1.1//EN"
 "http://www.w3.org/Graphics/SVG/1.1/DTD/svg11.dtd">
<!-- Generated by graphviz version 2.47.0 (20210316.0004)
 -->
<!-- Title: dbml Pages: 1 -->
<svg width="1096pt" height="1056pt"
 viewBox="0.00 0.00 1096.17 1055.77" xmlns="http://www.w3.org/2000/svg" xmlns:xlink="http://www.w3.org/1999/xlink">
<g id="graph0" class="graph" transform="scale(1 1) rotate(0) translate(4 1051.77)">
<title>dbml</title>
<!-- documents -->
<g id="documents" class="node">
<title>documents</title>
<ellipse fill="none" stroke="black" stroke-width="0" cx="827.96" cy="-257.39" rx="260.43" ry="257.27"/>
<polygon fill="#1d71b8" stroke="transparent" points="645.96,-377.39 645.96,-437.39 1009.96,-437.39 1009.96,-377.39 645.96,-377.39"/>
<polygon fill="none" stroke="#29235c" points="645.96,-377.39 645.96,-437.39 1009.96,-437.39 1009.96,-377.39 645.96,-377.39"/>
<text text-anchor="start" x="687.47" y="-398.59" font-family="Helvetica,sans-Serif" font-weight="bold" font-size="32.00" fill="#ffffff"> &#160;&#160;&#160;&#160;&#160;&#160;documents &#160;&#160;&#160;&#160;&#160;&#160;</text>
<polygon fill="#e7e2dd" stroke="transparent" points="645.96,-317.39 645.96,-377.39 1009.96,-377.39 1009.96,-317.39 645.96,-317.39"/>
<polygon fill="none" stroke="#29235c" points="645.96,-317.39 645.96,-377.39 1009.96,-377.39 1009.96,-317.39 645.96,-317.39"/>
<text text-anchor="start" x="656.96" y="-338.59" font-family="Helvetica,sans-Serif" font-weight="bold" font-size="32.00" fill="#29235c">id</text>
<text text-anchor="start" x="681.85" y="-338.59" font-family="Helvetica,sans-Serif" font-size="32.00" fill="#29235c"> &#160;&#160;&#160;</text>
<text text-anchor="start" x="965.18" y="-338.59" font-family="Helvetica,sans-Serif" font-style="italic" font-size="32.00" fill="#29235c">int</text>
<polygon fill="#e7e2dd" stroke="transparent" points="645.96,-257.39 645.96,-317.39 1009.96,-317.39 1009.96,-257.39 645.96,-257.39"/>
<polygon fill="none" stroke="#29235c" points="645.96,-257.39 645.96,-317.39 1009.96,-317.39 1009.96,-257.39 645.96,-257.39"/>
<text text-anchor="start" x="656.96" y="-277.59" font-family="Helvetica,sans-Serif" font-size="32.00" fill="#29235c">title &#160;&#160;&#160;</text>
<text text-anchor="start" x="853.2" y="-278.59" font-family="Helvetica,sans-Serif" font-style="italic" font-size="32.00" fill="#29235c">varchar</text>
<text text-anchor="start" x="959.87" y="-278.59" font-family="Helvetica,sans-Serif" font-size="32.00" fill="#29235c"> </text>
<text text-anchor="start" x="968.76" y="-278.59" font-family="Helvetica,sans-Serif" font-weight="bold" font-size="32.00" fill="#29235c">(!)</text>
<polygon fill="#e7e2dd" stroke="transparent" points="645.96,-197.39 645.96,-257.39 1009.96,-257.39 1009.96,-197.39 645.96,-197.39"/>
<polygon fill="none" stroke="#29235c" points="645.96,-197.39 645.96,-257.39 1009.96,-257.39 1009.96,-197.39 645.96,-197.39"/>
<text text-anchor="start" x="656.96" y="-217.59" font-family="Helvetica,sans-Serif" font-size="32.00" fill="#29235c">content &#160;&#160;&#160;</text>
<text text-anchor="start" x="922.49" y="-218.59" font-family="Helvetica,sans-Serif" font-style="italic" font-size="32.00" fill="#29235c">jsonb</text>
<polygon fill="#e7e2dd" stroke="transparent" points="645.96,-137.39 645.96,-197.39 1009.96,-197.39 1009.96,-137.39 645.96,-137.39"/>
<polygon fill="none" stroke="#29235c" points="645.96,-137.39 645.96,-197.39 1009.96,-197.39 1009.96,-137.39 645.96,-137.39"/>
<text text-anchor="start" x="656.96" y="-157.59" font-family="Helvetica,sans-Serif" font-size="32.00" fill="#29235c">created_at &#160;&#160;&#160;</text>
<text text-anchor="start" x="851.4" y="-158.59" font-family="Helvetica,sans-Serif" font-style="italic" font-size="32.00" fill="#29235c">timestamp</text>
<polygon fill="#e7e2dd" stroke="transparent" points="645.96,-77.39 645.96,-137.39 1009.96,-137.39 1009.96,-77.39 645.96,-77.39"/>
<polygon fill="none" stroke="#29235c" points="645.96,-77.39 645.96,-137.39 1009.96,-137.39 1009.96,-77.39 645.96,-77.39"/>
<text text-anchor="start" x="656.63" y="-97.59" font-family="Helvetica,sans-Serif" font-size="32.00" fill="#29235c">updated_at &#160;&#160;&#160;</text>
<text text-anchor="start" x="851.68" y="-98.59" font-family="Helvetica,sans-Serif" font-style="italic" font-size="32.00" fill="#29235c">timestamp</text>
<polygon fill="none" stroke="#29235c" stroke-width="2" points="644.96,-76.39 644.96,-438.39 1010.96,-438.39 1010.96,-76.39 644.96,-76.39"/>
</g>
<!-- sop -->
<g id="sop" class="node">
<title>sop</title>
<ellipse fill="none" stroke="black" stroke-width="0" cx="827.96" cy="-790.39" rx="260.43" ry="257.27"/>
<polygon fill="#1d71b8" stroke="transparent" points="645.96,-910.39 645.96,-970.39 1009.96,-970.39 1009.96,-910.39 645.96,-910.39"/>
<polygon fill="none" stroke="#29235c" points="645.96,-910.39 645.96,-970.39 1009.96,-970.39 1009.96,-910.39 645.96,-910.39"/>
<text text-anchor="start" x="739.92" y="-931.59" font-family="Helvetica,sans-Serif" font-weight="bold" font-size="32.00" fill="#ffffff"> &#160;&#160;&#160;&#160;&#160;&#160;sop &#160;&#160;&#160;&#160;&#160;&#160;</text>
<polygon fill="#e7e2dd" stroke="transparent" points="645.96,-850.39 645.96,-910.39 1009.96,-910.39 1009.96,-850.39 645.96,-850.39"/>
<polygon fill="none" stroke="#29235c" points="645.96,-850.39 645.96,-910.39 1009.96,-910.39 1009.96,-850.39 645.96,-850.39"/>
<text text-anchor="start" x="656.96" y="-871.59" font-family="Helvetica,sans-Serif" font-weight="bold" font-size="32.00" fill="#29235c">id</text>
<text text-anchor="start" x="681.85" y="-871.59" font-family="Helvetica,sans-Serif" font-size="32.00" fill="#29235c"> &#160;&#160;&#160;</text>
<text text-anchor="start" x="965.18" y="-871.59" font-family="Helvetica,sans-Serif" font-style="italic" font-size="32.00" fill="#29235c">int</text>
<polygon fill="#e7e2dd" stroke="transparent" points="645.96,-790.39 645.96,-850.39 1009.96,-850.39 1009.96,-790.39 645.96,-790.39"/>
<polygon fill="none" stroke="#29235c" points="645.96,-790.39 645.96,-850.39 1009.96,-850.39 1009.96,-790.39 645.96,-790.39"/>
<text text-anchor="start" x="656.96" y="-810.59" font-family="Helvetica,sans-Serif" font-size="32.00" fill="#29235c">title &#160;&#160;&#160;</text>
<text text-anchor="start" x="853.2" y="-811.59" font-family="Helvetica,sans-Serif" font-style="italic" font-size="32.00" fill="#29235c">varchar</text>
<text text-anchor="start" x="959.87" y="-811.59" font-family="Helvetica,sans-Serif" font-size="32.00" fill="#29235c"> </text>
<text text-anchor="start" x="968.76" y="-811.59" font-family="Helvetica,sans-Serif" font-weight="bold" font-size="32.00" fill="#29235c">(!)</text>
<polygon fill="#e7e2dd" stroke="transparent" points="645.96,-730.39 645.96,-790.39 1009.96,-790.39 1009.96,-730.39 645.96,-730.39"/>
<polygon fill="none" stroke="#29235c" points="645.96,-730.39 645.96,-790.39 1009.96,-790.39 1009.96,-730.39 645.96,-730.39"/>
<text text-anchor="start" x="656.96" y="-750.59" font-family="Helvetica,sans-Serif" font-size="32.00" fill="#29235c">content &#160;&#160;&#160;</text>
<text text-anchor="start" x="922.49" y="-751.59" font-family="Helvetica,sans-Serif" font-style="italic" font-size="32.00" fill="#29235c">jsonb</text>
<polygon fill="#e7e2dd" stroke="transparent" points="645.96,-670.39 645.96,-730.39 1009.96,-730.39 1009.96,-670.39 645.96,-670.39"/>
<polygon fill="none" stroke="#29235c" points="645.96,-670.39 645.96,-730.39 1009.96,-730.39 1009.96,-670.39 645.96,-670.39"/>
<text text-anchor="start" x="656.96" y="-690.59" font-family="Helvetica,sans-Serif" font-size="32.00" fill="#29235c">created_at &#160;&#160;&#160;</text>
<text text-anchor="start" x="851.4" y="-691.59" font-family="Helvetica,sans-Serif" font-style="italic" font-size="32.00" fill="#29235c">timestamp</text>
<polygon fill="#e7e2dd" stroke="transparent" points="645.96,-610.39 645.96,-670.39 1009.96,-670.39 1009.96,-610.39 645.96,-610.39"/>
<polygon fill="none" stroke="#29235c" points="645.96,-610.39 645.96,-670.39 1009.96,-670.39 1009.96,-610.39 645.96,-610.39"/>
<text text-anchor="start" x="656.63" y="-630.59" font-family="Helvetica,sans-Serif" font-size="32.00" fill="#29235c">updated_at &#160;&#160;&#160;</text>
<text text-anchor="start" x="851.68" y="-631.59" font-family="Helvetica,sans-Serif" font-style="italic" font-size="32.00" fill="#29235c">timestamp</text>
<polygon fill="none" stroke="#29235c" stroke-width="2" points="644.96,-609.39 644.96,-971.39 1010.96,-971.39 1010.96,-609.39 644.96,-609.39"/>
</g>
<!-- sop_documents -->
<g id="sop_documents" class="node">
<title>sop_documents</title>
<ellipse fill="none" stroke="black" stroke-width="0" cx="265.87" cy="-553.39" rx="265.74" ry="342.48"/>
<polygon fill="#1d71b8" stroke="transparent" points="79.87,-733.39 79.87,-793.39 451.87,-793.39 451.87,-733.39 79.87,-733.39"/>
<polygon fill="none" stroke="#29235c" points="79.87,-733.39 79.87,-793.39 451.87,-793.39 451.87,-733.39 79.87,-733.39"/>
<text text-anchor="start" x="90.69" y="-754.59" font-family="Helvetica,sans-Serif" font-weight="bold" font-size="32.00" fill="#ffffff"> &#160;&#160;&#160;&#160;&#160;&#160;sop_documents &#160;&#160;&#160;&#160;&#160;&#160;</text>
<polygon fill="#e7e2dd" stroke="transparent" points="79.87,-673.39 79.87,-733.39 451.87,-733.39 451.87,-673.39 79.87,-673.39"/>
<polygon fill="none" stroke="#29235c" points="79.87,-673.39 79.87,-733.39 451.87,-733.39 451.87,-673.39 79.87,-673.39"/>
<text text-anchor="start" x="90.87" y="-694.59" font-family="Helvetica,sans-Serif" font-weight="bold" font-size="32.00" fill="#29235c">id</text>
<text text-anchor="start" x="115.76" y="-694.59" font-family="Helvetica,sans-Serif" font-size="32.00" fill="#29235c"> &#160;&#160;&#160;</text>
<text text-anchor="start" x="407.09" y="-694.59" font-family="Helvetica,sans-Serif" font-style="italic" font-size="32.00" fill="#29235c">int</text>
<polygon fill="#e7e2dd" stroke="transparent" points="79.87,-613.39 79.87,-673.39 451.87,-673.39 451.87,-613.39 79.87,-613.39"/>
<polygon fill="none" stroke="#29235c" points="79.87,-613.39 79.87,-673.39 451.87,-673.39 451.87,-613.39 79.87,-613.39"/>
<text text-anchor="start" x="90.87" y="-633.59" font-family="Helvetica,sans-Serif" font-size="32.00" fill="#29235c">title &#160;&#160;&#160;</text>
<text text-anchor="start" x="295.11" y="-634.59" font-family="Helvetica,sans-Serif" font-style="italic" font-size="32.00" fill="#29235c">varchar</text>
<text text-anchor="start" x="401.78" y="-634.59" font-family="Helvetica,sans-Serif" font-size="32.00" fill="#29235c"> </text>
<text text-anchor="start" x="410.67" y="-634.59" font-family="Helvetica,sans-Serif" font-weight="bold" font-size="32.00" fill="#29235c">(!)</text>
<polygon fill="#e7e2dd" stroke="transparent" points="79.87,-553.39 79.87,-613.39 451.87,-613.39 451.87,-553.39 79.87,-553.39"/>
<polygon fill="none" stroke="#29235c" points="79.87,-553.39 79.87,-613.39 451.87,-613.39 451.87,-553.39 79.87,-553.39"/>
<text text-anchor="start" x="90.87" y="-573.59" font-family="Helvetica,sans-Serif" font-size="32.00" fill="#29235c">sop_id &#160;&#160;&#160;</text>
<text text-anchor="start" x="407.09" y="-574.59" font-family="Helvetica,sans-Serif" font-style="italic" font-size="32.00" fill="#29235c">int</text>
<polygon fill="#e7e2dd" stroke="transparent" points="79.87,-493.39 79.87,-553.39 451.87,-553.39 451.87,-493.39 79.87,-493.39"/>
<polygon fill="none" stroke="#29235c" points="79.87,-493.39 79.87,-553.39 451.87,-553.39 451.87,-493.39 79.87,-493.39"/>
<text text-anchor="start" x="90.87" y="-513.59" font-family="Helvetica,sans-Serif" font-size="32.00" fill="#29235c">documents_id &#160;&#160;&#160;</text>
<text text-anchor="start" x="407.09" y="-514.59" font-family="Helvetica,sans-Serif" font-style="italic" font-size="32.00" fill="#29235c">int</text>
<polygon fill="#e7e2dd" stroke="transparent" points="79.87,-433.39 79.87,-493.39 451.87,-493.39 451.87,-433.39 79.87,-433.39"/>
<polygon fill="none" stroke="#29235c" points="79.87,-433.39 79.87,-493.39 451.87,-493.39 451.87,-433.39 79.87,-433.39"/>
<text text-anchor="start" x="90.87" y="-453.59" font-family="Helvetica,sans-Serif" font-size="32.00" fill="#29235c">content &#160;&#160;&#160;</text>
<text text-anchor="start" x="364.4" y="-454.59" font-family="Helvetica,sans-Serif" font-style="italic" font-size="32.00" fill="#29235c">jsonb</text>
<polygon fill="#e7e2dd" stroke="transparent" points="79.87,-373.39 79.87,-433.39 451.87,-433.39 451.87,-373.39 79.87,-373.39"/>
<polygon fill="none" stroke="#29235c" points="79.87,-373.39 79.87,-433.39 451.87,-433.39 451.87,-373.39 79.87,-373.39"/>
<text text-anchor="start" x="90.87" y="-393.59" font-family="Helvetica,sans-Serif" font-size="32.00" fill="#29235c">created_at &#160;&#160;&#160;</text>
<text text-anchor="start" x="293.31" y="-394.59" font-family="Helvetica,sans-Serif" font-style="italic" font-size="32.00" fill="#29235c">timestamp</text>
<polygon fill="#e7e2dd" stroke="transparent" points="79.87,-313.39 79.87,-373.39 451.87,-373.39 451.87,-313.39 79.87,-313.39"/>
<polygon fill="none" stroke="#29235c" points="79.87,-313.39 79.87,-373.39 451.87,-373.39 451.87,-313.39 79.87,-313.39"/>
<text text-anchor="start" x="90.87" y="-333.59" font-family="Helvetica,sans-Serif" font-size="32.00" fill="#29235c">updated_at &#160;&#160;&#160;</text>
<text text-anchor="start" x="293.31" y="-334.59" font-family="Helvetica,sans-Serif" font-style="italic" font-size="32.00" fill="#29235c">timestamp</text>
<polygon fill="none" stroke="#29235c" stroke-width="2" points="78.87,-312.39 78.87,-794.39 452.87,-794.39 452.87,-312.39 78.87,-312.39"/>
</g>
<!-- sop_documents&#45;&gt;documents -->
<!-- sop_documents&#45;&gt;documents -->
<g id="edge4" class="edge">
<title>sop_documents:e&#45;&gt;documents:w</title>
<path fill="none" stroke="#29235c" stroke-width="3" d="M452.87,-523.39C565.16,-523.39 531.42,-357.88 634.86,-347.86"/>
<polygon fill="#29235c" stroke="#29235c" stroke-width="3" points="635.13,-351.35 644.96,-347.39 634.81,-344.36 635.13,-351.35"/>
<text text-anchor="middle" x="636.07" y="-318.59" font-family="Helvetica,sans-Serif" font-size="32.00" fill="#29235c">1</text>
<text text-anchor="middle" x="446.65" y="-494.59" font-family="Helvetica,sans-Serif" font-size="32.00" fill="#29235c">*</text>
</g>
<!-- sop_documents&#45;&gt;sop -->
<!-- sop_documents&#45;&gt;sop -->
<g id="edge2" class="edge">
<title>sop_documents:e&#45;&gt;sop:w</title>
<path fill="none" stroke="#29235c" stroke-width="3" d="M452.87,-583.39C606.54,-583.39 493.11,-867.19 634.78,-879.94"/>
<polygon fill="#29235c" stroke="#29235c" stroke-width="3" points="634.82,-883.45 644.96,-880.39 635.12,-876.46 634.82,-883.45"/>
<text text-anchor="middle" x="636.07" y="-889.99" font-family="Helvetica,sans-Serif" font-size="32.00" fill="#29235c">1</text>
<text text-anchor="middle" x="446.65" y="-554.59" font-family="Helvetica,sans-Serif" font-size="32.00" fill="#29235c">*</text>
</g>
</g>
</svg>
