<?xml version="1.0" encoding="UTF-8" standalone="no"?>
<!DOCTYPE svg PUBLIC "-//W3C//DTD SVG 1.1//EN"
 "http://www.w3.org/Graphics/SVG/1.1/DTD/svg11.dtd">
<!-- Generated by graphviz version 2.47.0 (20210316.0004)
 -->
<!-- Title: dbml Pages: 1 -->
<svg width="1054pt" height="641pt"
 viewBox="0.00 0.00 1053.75 641.49" xmlns="http://www.w3.org/2000/svg" xmlns:xlink="http://www.w3.org/1999/xlink">
<g id="graph0" class="graph" transform="scale(1 1) rotate(0) translate(4 637.49)">
<title>dbml</title>
<!-- sops -->
<g id="sops" class="node">
<title>sops</title>
<ellipse fill="none" stroke="black" stroke-width="0" cx="785.53" cy="-299.81" rx="260.43" ry="299.63"/>
<polygon fill="#1d71b8" stroke="transparent" points="603.53,-449.81 603.53,-509.81 967.53,-509.81 967.53,-449.81 603.53,-449.81"/>
<polygon fill="none" stroke="#29235c" points="603.53,-449.81 603.53,-509.81 967.53,-509.81 967.53,-449.81 603.53,-449.81"/>
<text text-anchor="start" x="689.49" y="-471.01" font-family="Helvetica,sans-Serif" font-weight="bold" font-size="32.00" fill="#ffffff"> &#160;&#160;&#160;&#160;&#160;&#160;sops &#160;&#160;&#160;&#160;&#160;&#160;</text>
<polygon fill="#e7e2dd" stroke="transparent" points="603.53,-389.81 603.53,-449.81 967.53,-449.81 967.53,-389.81 603.53,-389.81"/>
<polygon fill="none" stroke="#29235c" points="603.53,-389.81 603.53,-449.81 967.53,-449.81 967.53,-389.81 603.53,-389.81"/>
<text text-anchor="start" x="614.53" y="-411.01" font-family="Helvetica,sans-Serif" font-weight="bold" font-size="32.00" fill="#29235c">id</text>
<text text-anchor="start" x="639.42" y="-411.01" font-family="Helvetica,sans-Serif" font-size="32.00" fill="#29235c"> &#160;&#160;&#160;</text>
<text text-anchor="start" x="922.75" y="-411.01" font-family="Helvetica,sans-Serif" font-style="italic" font-size="32.00" fill="#29235c">int</text>
<polygon fill="#e7e2dd" stroke="transparent" points="603.53,-329.81 603.53,-389.81 967.53,-389.81 967.53,-329.81 603.53,-329.81"/>
<polygon fill="none" stroke="#29235c" points="603.53,-329.81 603.53,-389.81 967.53,-389.81 967.53,-329.81 603.53,-329.81"/>
<text text-anchor="start" x="614.53" y="-350.01" font-family="Helvetica,sans-Serif" font-size="32.00" fill="#29235c">title &#160;&#160;&#160;</text>
<text text-anchor="start" x="810.77" y="-351.01" font-family="Helvetica,sans-Serif" font-style="italic" font-size="32.00" fill="#29235c">varchar</text>
<text text-anchor="start" x="917.44" y="-351.01" font-family="Helvetica,sans-Serif" font-size="32.00" fill="#29235c"> </text>
<text text-anchor="start" x="926.33" y="-351.01" font-family="Helvetica,sans-Serif" font-weight="bold" font-size="32.00" fill="#29235c">(!)</text>
<polygon fill="#e7e2dd" stroke="transparent" points="603.53,-269.81 603.53,-329.81 967.53,-329.81 967.53,-269.81 603.53,-269.81"/>
<polygon fill="none" stroke="#29235c" points="603.53,-269.81 603.53,-329.81 967.53,-329.81 967.53,-269.81 603.53,-269.81"/>
<text text-anchor="start" x="614.53" y="-290.01" font-family="Helvetica,sans-Serif" font-size="32.00" fill="#29235c">code &#160;&#160;&#160;</text>
<text text-anchor="start" x="849.86" y="-291.01" font-family="Helvetica,sans-Serif" font-style="italic" font-size="32.00" fill="#29235c">varchar</text>
<polygon fill="#e7e2dd" stroke="transparent" points="603.53,-209.81 603.53,-269.81 967.53,-269.81 967.53,-209.81 603.53,-209.81"/>
<polygon fill="none" stroke="#29235c" points="603.53,-209.81 603.53,-269.81 967.53,-269.81 967.53,-209.81 603.53,-209.81"/>
<text text-anchor="start" x="614.53" y="-230.01" font-family="Helvetica,sans-Serif" font-size="32.00" fill="#29235c">content &#160;&#160;&#160;</text>
<text text-anchor="start" x="880.07" y="-231.01" font-family="Helvetica,sans-Serif" font-style="italic" font-size="32.00" fill="#29235c">jsonb</text>
<polygon fill="#e7e2dd" stroke="transparent" points="603.53,-149.81 603.53,-209.81 967.53,-209.81 967.53,-149.81 603.53,-149.81"/>
<polygon fill="none" stroke="#29235c" points="603.53,-149.81 603.53,-209.81 967.53,-209.81 967.53,-149.81 603.53,-149.81"/>
<text text-anchor="start" x="614.53" y="-170.01" font-family="Helvetica,sans-Serif" font-size="32.00" fill="#29235c">created_at &#160;&#160;&#160;</text>
<text text-anchor="start" x="808.97" y="-171.01" font-family="Helvetica,sans-Serif" font-style="italic" font-size="32.00" fill="#29235c">timestamp</text>
<polygon fill="#e7e2dd" stroke="transparent" points="603.53,-89.81 603.53,-149.81 967.53,-149.81 967.53,-89.81 603.53,-89.81"/>
<polygon fill="none" stroke="#29235c" points="603.53,-89.81 603.53,-149.81 967.53,-149.81 967.53,-89.81 603.53,-89.81"/>
<text text-anchor="start" x="614.2" y="-110.01" font-family="Helvetica,sans-Serif" font-size="32.00" fill="#29235c">updated_at &#160;&#160;&#160;</text>
<text text-anchor="start" x="809.25" y="-111.01" font-family="Helvetica,sans-Serif" font-style="italic" font-size="32.00" fill="#29235c">timestamp</text>
<polygon fill="none" stroke="#29235c" stroke-width="2" points="602.53,-88.81 602.53,-510.81 968.53,-510.81 968.53,-88.81 602.53,-88.81"/>
</g>
<!-- sop_positions -->
<g id="sop_positions" class="node">
<title>sop_positions</title>
<ellipse fill="none" stroke="black" stroke-width="0" cx="244.66" cy="-545.81" rx="244.82" ry="87.86"/>
<polygon fill="#1d71b8" stroke="transparent" points="73.66,-545.81 73.66,-605.81 415.66,-605.81 415.66,-545.81 73.66,-545.81"/>
<polygon fill="none" stroke="#29235c" points="73.66,-545.81 73.66,-605.81 415.66,-605.81 415.66,-545.81 73.66,-545.81"/>
<text text-anchor="start" x="84.6" y="-567.01" font-family="Helvetica,sans-Serif" font-weight="bold" font-size="32.00" fill="#ffffff"> &#160;&#160;&#160;&#160;&#160;&#160;sop_positions &#160;&#160;&#160;&#160;&#160;&#160;</text>
<polygon fill="#e7e2dd" stroke="transparent" points="73.66,-485.81 73.66,-545.81 415.66,-545.81 415.66,-485.81 73.66,-485.81"/>
<polygon fill="none" stroke="#29235c" points="73.66,-485.81 73.66,-545.81 415.66,-545.81 415.66,-485.81 73.66,-485.81"/>
<text text-anchor="start" x="84.66" y="-506.01" font-family="Helvetica,sans-Serif" font-size="32.00" fill="#29235c">sop_id &#160;&#160;&#160;</text>
<text text-anchor="start" x="370.88" y="-507.01" font-family="Helvetica,sans-Serif" font-style="italic" font-size="32.00" fill="#29235c">int</text>
<polygon fill="none" stroke="#29235c" stroke-width="2" points="72.66,-484.81 72.66,-606.81 416.66,-606.81 416.66,-484.81 72.66,-484.81"/>
</g>
<!-- sop_positions&#45;&gt;sops -->
<!-- sop_positions&#45;&gt;sops -->
<g id="edge2" class="edge">
<title>sop_positions:e&#45;&gt;sops:w</title>
<path fill="none" stroke="#29235c" stroke-width="3" d="M416.66,-515.81C506.1,-515.81 509.43,-426.99 592.3,-420.22"/>
<polygon fill="#29235c" stroke="#29235c" stroke-width="3" points="592.68,-423.71 602.53,-419.81 592.4,-416.71 592.68,-423.71"/>
<text text-anchor="middle" x="611.43" y="-400.61" font-family="Helvetica,sans-Serif" font-size="32.00" fill="#29235c">1</text>
<text text-anchor="middle" x="410.44" y="-525.41" font-family="Helvetica,sans-Serif" font-size="32.00" fill="#29235c">*</text>
</g>
<!-- jobs -->
<g id="jobs" class="node">
<title>jobs</title>
<ellipse fill="none" stroke="black" stroke-width="0" cx="244.66" cy="-352.81" rx="147.57" ry="87.86"/>
<polygon fill="#1d71b8" stroke="transparent" points="142.66,-352.81 142.66,-412.81 347.66,-412.81 347.66,-352.81 142.66,-352.81"/>
<polygon fill="none" stroke="#29235c" points="142.66,-352.81 142.66,-412.81 347.66,-412.81 347.66,-352.81 142.66,-352.81"/>
<text text-anchor="start" x="153.57" y="-374.01" font-family="Helvetica,sans-Serif" font-weight="bold" font-size="32.00" fill="#ffffff"> &#160;&#160;&#160;&#160;&#160;&#160;jobs &#160;&#160;&#160;&#160;&#160;&#160;</text>
<polygon fill="#e7e2dd" stroke="transparent" points="142.66,-292.81 142.66,-352.81 347.66,-352.81 347.66,-292.81 142.66,-292.81"/>
<polygon fill="none" stroke="#29235c" points="142.66,-292.81 142.66,-352.81 347.66,-352.81 347.66,-292.81 142.66,-292.81"/>
<text text-anchor="start" x="153.66" y="-313.01" font-family="Helvetica,sans-Serif" font-size="32.00" fill="#29235c">sop_id &#160;&#160;&#160;</text>
<text text-anchor="start" x="302.88" y="-314.01" font-family="Helvetica,sans-Serif" font-style="italic" font-size="32.00" fill="#29235c">int</text>
<polygon fill="none" stroke="#29235c" stroke-width="2" points="141.16,-291.81 141.16,-413.81 348.16,-413.81 348.16,-291.81 141.16,-291.81"/>
</g>
<!-- jobs&#45;&gt;sops -->
<!-- jobs&#45;&gt;sops -->
<g id="edge4" class="edge">
<title>jobs:e&#45;&gt;sops:w</title>
<path fill="none" stroke="#29235c" stroke-width="3" d="M348.66,-322.81C466.03,-322.81 480.96,-414.4 592.53,-419.58"/>
<polygon fill="#29235c" stroke="#29235c" stroke-width="3" points="592.46,-423.08 602.53,-419.81 592.62,-416.09 592.46,-423.08"/>
<text text-anchor="middle" x="593.64" y="-391.01" font-family="Helvetica,sans-Serif" font-size="32.00" fill="#29235c">1</text>
<text text-anchor="middle" x="342.44" y="-294.01" font-family="Helvetica,sans-Serif" font-size="32.00" fill="#29235c">*</text>
</g>
</g>
</svg>
