<?xml version="1.0" encoding="UTF-8" standalone="no"?>
<!DOCTYPE svg PUBLIC "-//W3C//DTD SVG 1.1//EN"
 "http://www.w3.org/Graphics/SVG/1.1/DTD/svg11.dtd">
<!-- Generated by graphviz version 2.47.0 (20210316.0004)
 -->
<!-- Title: dbml Pages: 1 -->
<svg width="1054pt" height="738pt"
 viewBox="0.00 0.00 1053.75 738.49" xmlns="http://www.w3.org/2000/svg" xmlns:xlink="http://www.w3.org/1999/xlink">
<g id="graph0" class="graph" transform="scale(1 1) rotate(0) translate(4 734.49)">
<title>dbml</title>
<!-- sops -->
<g id="sops" class="node">
<title>sops</title>
<ellipse fill="none" stroke="black" stroke-width="0" cx="785.53" cy="-299.81" rx="260.43" ry="299.63"/>
<polygon fill="#1d71b8" stroke="transparent" points="603.53,-449.81 603.53,-509.81 967.53,-509.81 967.53,-449.81 603.53,-449.81"/>
<polygon fill="none" stroke="#29235c" points="603.53,-449.81 603.53,-509.81 967.53,-509.81 967.53,-449.81 603.53,-449.81"/>
<text text-anchor="start" x="689.49" y="-471.01" font-family="Helvetica,sans-Serif" font-weight="bold" font-size="32.00" fill="#ffffff"> &#160;&#160;&#160;&#160;&#160;&#160;sops &#160;&#160;&#160;&#160;&#160;&#160;</text>
<polygon fill="#e7e2dd" stroke="transparent" points="603.53,-389.81 603.53,-449.81 967.53,-449.81 967.53,-389.81 603.53,-389.81"/>
<polygon fill="none" stroke="#29235c" points="603.53,-389.81 603.53,-449.81 967.53,-449.81 967.53,-389.81 603.53,-389.81"/>
<text text-anchor="start" x="614.53" y="-411.01" font-family="Helvetica,sans-Serif" font-weight="bold" font-size="32.00" fill="#29235c">id</text>
<text text-anchor="start" x="639.42" y="-411.01" font-family="Helvetica,sans-Serif" font-size="32.00" fill="#29235c"> &#160;&#160;&#160;</text>
<text text-anchor="start" x="922.75" y="-411.01" font-family="Helvetica,sans-Serif" font-style="italic" font-size="32.00" fill="#29235c">int</text>
<polygon fill="#e7e2dd" stroke="transparent" points="603.53,-329.81 603.53,-389.81 967.53,-389.81 967.53,-329.81 603.53,-329.81"/>
<polygon fill="none" stroke="#29235c" points="603.53,-329.81 603.53,-389.81 967.53,-389.81 967.53,-329.81 603.53,-329.81"/>
<text text-anchor="start" x="614.53" y="-350.01" font-family="Helvetica,sans-Serif" font-size="32.00" fill="#29235c">title &#160;&#160;&#160;</text>
<text text-anchor="start" x="810.77" y="-351.01" font-family="Helvetica,sans-Serif" font-style="italic" font-size="32.00" fill="#29235c">varchar</text>
<text text-anchor="start" x="917.44" y="-351.01" font-family="Helvetica,sans-Serif" font-size="32.00" fill="#29235c"> </text>
<text text-anchor="start" x="926.33" y="-351.01" font-family="Helvetica,sans-Serif" font-weight="bold" font-size="32.00" fill="#29235c">(!)</text>
<polygon fill="#e7e2dd" stroke="transparent" points="603.53,-269.81 603.53,-329.81 967.53,-329.81 967.53,-269.81 603.53,-269.81"/>
<polygon fill="none" stroke="#29235c" points="603.53,-269.81 603.53,-329.81 967.53,-329.81 967.53,-269.81 603.53,-269.81"/>
<text text-anchor="start" x="614.53" y="-290.01" font-family="Helvetica,sans-Serif" font-size="32.00" fill="#29235c">code &#160;&#160;&#160;</text>
<text text-anchor="start" x="849.86" y="-291.01" font-family="Helvetica,sans-Serif" font-style="italic" font-size="32.00" fill="#29235c">varchar</text>
<polygon fill="#e7e2dd" stroke="transparent" points="603.53,-209.81 603.53,-269.81 967.53,-269.81 967.53,-209.81 603.53,-209.81"/>
<polygon fill="none" stroke="#29235c" points="603.53,-209.81 603.53,-269.81 967.53,-269.81 967.53,-209.81 603.53,-209.81"/>
<text text-anchor="start" x="614.53" y="-230.01" font-family="Helvetica,sans-Serif" font-size="32.00" fill="#29235c">content &#160;&#160;&#160;</text>
<text text-anchor="start" x="880.07" y="-231.01" font-family="Helvetica,sans-Serif" font-style="italic" font-size="32.00" fill="#29235c">jsonb</text>
<polygon fill="#e7e2dd" stroke="transparent" points="603.53,-149.81 603.53,-209.81 967.53,-209.81 967.53,-149.81 603.53,-149.81"/>
<polygon fill="none" stroke="#29235c" points="603.53,-149.81 603.53,-209.81 967.53,-209.81 967.53,-149.81 603.53,-149.81"/>
<text text-anchor="start" x="614.53" y="-170.01" font-family="Helvetica,sans-Serif" font-size="32.00" fill="#29235c">created_at &#160;&#160;&#160;</text>
<text text-anchor="start" x="808.97" y="-171.01" font-family="Helvetica,sans-Serif" font-style="italic" font-size="32.00" fill="#29235c">timestamp</text>
<polygon fill="#e7e2dd" stroke="transparent" points="603.53,-89.81 603.53,-149.81 967.53,-149.81 967.53,-89.81 603.53,-89.81"/>
<polygon fill="none" stroke="#29235c" points="603.53,-89.81 603.53,-149.81 967.53,-149.81 967.53,-89.81 603.53,-89.81"/>
<text text-anchor="start" x="614.2" y="-110.01" font-family="Helvetica,sans-Serif" font-size="32.00" fill="#29235c">updated_at &#160;&#160;&#160;</text>
<text text-anchor="start" x="809.25" y="-111.01" font-family="Helvetica,sans-Serif" font-style="italic" font-size="32.00" fill="#29235c">timestamp</text>
<polygon fill="none" stroke="#29235c" stroke-width="2" points="602.53,-88.81 602.53,-510.81 968.53,-510.81 968.53,-88.81 602.53,-88.81"/>
</g>
<!-- sop_positions -->
<g id="sop_positions" class="node">
<title>sop_positions</title>
<ellipse fill="none" stroke="black" stroke-width="0" cx="244.66" cy="-642.81" rx="244.82" ry="87.86"/>
<polygon fill="#1d71b8" stroke="transparent" points="73.66,-642.81 73.66,-702.81 415.66,-702.81 415.66,-642.81 73.66,-642.81"/>
<polygon fill="none" stroke="#29235c" points="73.66,-642.81 73.66,-702.81 415.66,-702.81 415.66,-642.81 73.66,-642.81"/>
<text text-anchor="start" x="84.6" y="-664.01" font-family="Helvetica,sans-Serif" font-weight="bold" font-size="32.00" fill="#ffffff"> &#160;&#160;&#160;&#160;&#160;&#160;sop_positions &#160;&#160;&#160;&#160;&#160;&#160;</text>
<polygon fill="#e7e2dd" stroke="transparent" points="73.66,-582.81 73.66,-642.81 415.66,-642.81 415.66,-582.81 73.66,-582.81"/>
<polygon fill="none" stroke="#29235c" points="73.66,-582.81 73.66,-642.81 415.66,-642.81 415.66,-582.81 73.66,-582.81"/>
<text text-anchor="start" x="84.66" y="-603.01" font-family="Helvetica,sans-Serif" font-size="32.00" fill="#29235c">sop_id &#160;&#160;&#160;</text>
<text text-anchor="start" x="370.88" y="-604.01" font-family="Helvetica,sans-Serif" font-style="italic" font-size="32.00" fill="#29235c">int</text>
<polygon fill="none" stroke="#29235c" stroke-width="2" points="72.66,-581.81 72.66,-703.81 416.66,-703.81 416.66,-581.81 72.66,-581.81"/>
</g>
<!-- sop_positions&#45;&gt;sops -->
<!-- sop_positions&#45;&gt;sops -->
<g id="edge2" class="edge">
<title>sop_positions:e&#45;&gt;sops:w</title>
<path fill="none" stroke="#29235c" stroke-width="3" d="M416.66,-612.81C532.26,-612.81 486.36,-430.96 592.5,-420.3"/>
<polygon fill="#29235c" stroke="#29235c" stroke-width="3" points="592.71,-423.79 602.53,-419.81 592.38,-416.8 592.71,-423.79"/>
<text text-anchor="middle" x="593.64" y="-429.41" font-family="Helvetica,sans-Serif" font-size="32.00" fill="#29235c">1</text>
<text text-anchor="middle" x="410.44" y="-622.41" font-family="Helvetica,sans-Serif" font-size="32.00" fill="#29235c">*</text>
</g>
<!-- sop_jobs -->
<g id="sop_jobs" class="node">
<title>sop_jobs</title>
<ellipse fill="none" stroke="black" stroke-width="0" cx="244.66" cy="-449.81" rx="196.65" ry="87.86"/>
<polygon fill="#1d71b8" stroke="transparent" points="107.66,-449.81 107.66,-509.81 381.66,-509.81 381.66,-449.81 107.66,-449.81"/>
<polygon fill="none" stroke="#29235c" points="107.66,-449.81 107.66,-509.81 381.66,-509.81 381.66,-449.81 107.66,-449.81"/>
<text text-anchor="start" x="118.39" y="-471.01" font-family="Helvetica,sans-Serif" font-weight="bold" font-size="32.00" fill="#ffffff"> &#160;&#160;&#160;&#160;&#160;&#160;sop_jobs &#160;&#160;&#160;&#160;&#160;&#160;</text>
<polygon fill="#e7e2dd" stroke="transparent" points="107.66,-389.81 107.66,-449.81 381.66,-449.81 381.66,-389.81 107.66,-389.81"/>
<polygon fill="none" stroke="#29235c" points="107.66,-389.81 107.66,-449.81 381.66,-449.81 381.66,-389.81 107.66,-389.81"/>
<text text-anchor="start" x="118.66" y="-410.01" font-family="Helvetica,sans-Serif" font-size="32.00" fill="#29235c">sop_id &#160;&#160;&#160;</text>
<text text-anchor="start" x="297.79" y="-411.01" font-family="Helvetica,sans-Serif" font-style="italic" font-size="32.00" fill="#29235c">int</text>
<text text-anchor="start" x="331.57" y="-411.01" font-family="Helvetica,sans-Serif" font-size="32.00" fill="#29235c"> </text>
<text text-anchor="start" x="340.46" y="-411.01" font-family="Helvetica,sans-Serif" font-weight="bold" font-size="32.00" fill="#29235c">(!)</text>
<polygon fill="none" stroke="#29235c" stroke-width="2" points="106.66,-388.81 106.66,-510.81 382.66,-510.81 382.66,-388.81 106.66,-388.81"/>
</g>
<!-- sop_jobs&#45;&gt;sops -->
<!-- sop_jobs&#45;&gt;sops -->
<g id="edge4" class="edge">
<title>sop_jobs:e&#45;&gt;sops:w</title>
<path fill="none" stroke="#29235c" stroke-width="3" d="M382.66,-419.81C476.95,-419.81 503,-419.81 592.49,-419.81"/>
<polygon fill="#29235c" stroke="#29235c" stroke-width="3" points="592.53,-423.31 602.53,-419.81 592.53,-416.31 592.53,-423.31"/>
<text text-anchor="middle" x="611.43" y="-429.41" font-family="Helvetica,sans-Serif" font-size="32.00" fill="#29235c">1</text>
<text text-anchor="middle" x="376.44" y="-429.41" font-family="Helvetica,sans-Serif" font-size="32.00" fill="#29235c">*</text>
</g>
<!-- spk_jobs -->
<g id="spk_jobs" class="node">
<title>spk_jobs</title>
<ellipse fill="none" stroke="black" stroke-width="0" cx="244.66" cy="-256.81" rx="195.32" ry="87.86"/>
<polygon fill="#1d71b8" stroke="transparent" points="108.66,-256.81 108.66,-316.81 380.66,-316.81 380.66,-256.81 108.66,-256.81"/>
<polygon fill="none" stroke="#29235c" points="108.66,-256.81 108.66,-316.81 380.66,-316.81 380.66,-256.81 108.66,-256.81"/>
<text text-anchor="start" x="119.28" y="-278.01" font-family="Helvetica,sans-Serif" font-weight="bold" font-size="32.00" fill="#ffffff"> &#160;&#160;&#160;&#160;&#160;&#160;spk_jobs &#160;&#160;&#160;&#160;&#160;&#160;</text>
<polygon fill="#e7e2dd" stroke="transparent" points="108.66,-196.81 108.66,-256.81 380.66,-256.81 380.66,-196.81 108.66,-196.81"/>
<polygon fill="none" stroke="#29235c" points="108.66,-196.81 108.66,-256.81 380.66,-256.81 380.66,-196.81 108.66,-196.81"/>
<text text-anchor="start" x="119.66" y="-217.01" font-family="Helvetica,sans-Serif" font-size="32.00" fill="#29235c">sop_id &#160;&#160;&#160;</text>
<text text-anchor="start" x="335.88" y="-218.01" font-family="Helvetica,sans-Serif" font-style="italic" font-size="32.00" fill="#29235c">int</text>
<polygon fill="none" stroke="#29235c" stroke-width="2" points="107.66,-195.81 107.66,-317.81 381.66,-317.81 381.66,-195.81 107.66,-195.81"/>
</g>
<!-- spk_jobs&#45;&gt;sops -->
<!-- spk_jobs&#45;&gt;sops -->
<g id="edge6" class="edge">
<title>spk_jobs:e&#45;&gt;sops:w</title>
<path fill="none" stroke="#29235c" stroke-width="3" d="M381.66,-226.81C508.46,-226.81 474.22,-409.4 592.21,-419.39"/>
<polygon fill="#29235c" stroke="#29235c" stroke-width="3" points="592.4,-422.9 602.53,-419.81 592.69,-415.9 592.4,-422.9"/>
<text text-anchor="middle" x="593.64" y="-391.01" font-family="Helvetica,sans-Serif" font-size="32.00" fill="#29235c">1</text>
<text text-anchor="middle" x="375.44" y="-198.01" font-family="Helvetica,sans-Serif" font-size="32.00" fill="#29235c">*</text>
</g>
</g>
</svg>
