<?xml version="1.0" encoding="UTF-8" standalone="no"?>
<!DOCTYPE svg PUBLIC "-//W3C//DTD SVG 1.1//EN"
 "http://www.w3.org/Graphics/SVG/1.1/DTD/svg11.dtd">
<!-- Generated by graphviz version 2.47.0 (20210316.0004)
 -->
<!-- Title: dbml Pages: 1 -->
<svg width="1093pt" height="692pt"
 viewBox="0.00 0.00 1093.35 692.48" xmlns="http://www.w3.org/2000/svg" xmlns:xlink="http://www.w3.org/1999/xlink">
<g id="graph0" class="graph" transform="scale(1 1) rotate(0) translate(4 688.48)">
<title>dbml</title>
<!-- spk -->
<g id="spk" class="node">
<title>spk</title>
<ellipse fill="none" stroke="black" stroke-width="0" cx="825.13" cy="-342.24" rx="260.43" ry="342.48"/>
<polygon fill="#1d71b8" stroke="transparent" points="643.13,-522.24 643.13,-582.24 1007.13,-582.24 1007.13,-522.24 643.13,-522.24"/>
<polygon fill="none" stroke="#29235c" points="643.13,-522.24 643.13,-582.24 1007.13,-582.24 1007.13,-522.24 643.13,-522.24"/>
<text text-anchor="start" x="737.99" y="-543.44" font-family="Helvetica,sans-Serif" font-weight="bold" font-size="32.00" fill="#ffffff"> &#160;&#160;&#160;&#160;&#160;&#160;spk &#160;&#160;&#160;&#160;&#160;&#160;</text>
<polygon fill="#e7e2dd" stroke="transparent" points="643.13,-462.24 643.13,-522.24 1007.13,-522.24 1007.13,-462.24 643.13,-462.24"/>
<polygon fill="none" stroke="#29235c" points="643.13,-462.24 643.13,-522.24 1007.13,-522.24 1007.13,-462.24 643.13,-462.24"/>
<text text-anchor="start" x="654.13" y="-483.44" font-family="Helvetica,sans-Serif" font-weight="bold" font-size="32.00" fill="#29235c">id</text>
<text text-anchor="start" x="679.02" y="-483.44" font-family="Helvetica,sans-Serif" font-size="32.00" fill="#29235c"> &#160;&#160;&#160;</text>
<text text-anchor="start" x="962.35" y="-483.44" font-family="Helvetica,sans-Serif" font-style="italic" font-size="32.00" fill="#29235c">int</text>
<polygon fill="#e7e2dd" stroke="transparent" points="643.13,-402.24 643.13,-462.24 1007.13,-462.24 1007.13,-402.24 643.13,-402.24"/>
<polygon fill="none" stroke="#29235c" points="643.13,-402.24 643.13,-462.24 1007.13,-462.24 1007.13,-402.24 643.13,-402.24"/>
<text text-anchor="start" x="654.13" y="-422.44" font-family="Helvetica,sans-Serif" font-size="32.00" fill="#29235c">title &#160;&#160;&#160;</text>
<text text-anchor="start" x="850.37" y="-423.44" font-family="Helvetica,sans-Serif" font-style="italic" font-size="32.00" fill="#29235c">varchar</text>
<text text-anchor="start" x="957.04" y="-423.44" font-family="Helvetica,sans-Serif" font-size="32.00" fill="#29235c"> </text>
<text text-anchor="start" x="965.93" y="-423.44" font-family="Helvetica,sans-Serif" font-weight="bold" font-size="32.00" fill="#29235c">(!)</text>
<polygon fill="#e7e2dd" stroke="transparent" points="643.13,-342.24 643.13,-402.24 1007.13,-402.24 1007.13,-342.24 643.13,-342.24"/>
<polygon fill="none" stroke="#29235c" points="643.13,-342.24 643.13,-402.24 1007.13,-402.24 1007.13,-342.24 643.13,-342.24"/>
<text text-anchor="start" x="654.13" y="-362.44" font-family="Helvetica,sans-Serif" font-size="32.00" fill="#29235c">code &#160;&#160;&#160;</text>
<text text-anchor="start" x="889.46" y="-363.44" font-family="Helvetica,sans-Serif" font-style="italic" font-size="32.00" fill="#29235c">varchar</text>
<polygon fill="#e7e2dd" stroke="transparent" points="643.13,-282.24 643.13,-342.24 1007.13,-342.24 1007.13,-282.24 643.13,-282.24"/>
<polygon fill="none" stroke="#29235c" points="643.13,-282.24 643.13,-342.24 1007.13,-342.24 1007.13,-282.24 643.13,-282.24"/>
<text text-anchor="start" x="654.13" y="-302.44" font-family="Helvetica,sans-Serif" font-size="32.00" fill="#29235c">position_ids &#160;&#160;&#160;</text>
<text text-anchor="start" x="944.56" y="-303.44" font-family="Helvetica,sans-Serif" font-style="italic" font-size="32.00" fill="#29235c">int[]</text>
<polygon fill="#e7e2dd" stroke="transparent" points="643.13,-222.24 643.13,-282.24 1007.13,-282.24 1007.13,-222.24 643.13,-222.24"/>
<polygon fill="none" stroke="#29235c" points="643.13,-222.24 643.13,-282.24 1007.13,-282.24 1007.13,-222.24 643.13,-222.24"/>
<text text-anchor="start" x="654.13" y="-242.44" font-family="Helvetica,sans-Serif" font-size="32.00" fill="#29235c">content &#160;&#160;&#160;</text>
<text text-anchor="start" x="919.66" y="-243.44" font-family="Helvetica,sans-Serif" font-style="italic" font-size="32.00" fill="#29235c">jsonb</text>
<polygon fill="#e7e2dd" stroke="transparent" points="643.13,-162.24 643.13,-222.24 1007.13,-222.24 1007.13,-162.24 643.13,-162.24"/>
<polygon fill="none" stroke="#29235c" points="643.13,-162.24 643.13,-222.24 1007.13,-222.24 1007.13,-162.24 643.13,-162.24"/>
<text text-anchor="start" x="654.13" y="-182.44" font-family="Helvetica,sans-Serif" font-size="32.00" fill="#29235c">created_at &#160;&#160;&#160;</text>
<text text-anchor="start" x="848.57" y="-183.44" font-family="Helvetica,sans-Serif" font-style="italic" font-size="32.00" fill="#29235c">timestamp</text>
<polygon fill="#e7e2dd" stroke="transparent" points="643.13,-102.24 643.13,-162.24 1007.13,-162.24 1007.13,-102.24 643.13,-102.24"/>
<polygon fill="none" stroke="#29235c" points="643.13,-102.24 643.13,-162.24 1007.13,-162.24 1007.13,-102.24 643.13,-102.24"/>
<text text-anchor="start" x="653.8" y="-122.44" font-family="Helvetica,sans-Serif" font-size="32.00" fill="#29235c">updated_at &#160;&#160;&#160;</text>
<text text-anchor="start" x="848.85" y="-123.44" font-family="Helvetica,sans-Serif" font-style="italic" font-size="32.00" fill="#29235c">timestamp</text>
<polygon fill="none" stroke="#29235c" stroke-width="2" points="642.13,-101.24 642.13,-583.24 1008.13,-583.24 1008.13,-101.24 642.13,-101.24"/>
</g>
<!-- spk_documents -->
<g id="spk_documents" class="node">
<title>spk_documents</title>
<ellipse fill="none" stroke="black" stroke-width="0" cx="264.46" cy="-522.24" rx="264.42" ry="87.86"/>
<polygon fill="#1d71b8" stroke="transparent" points="79.46,-522.24 79.46,-582.24 449.46,-582.24 449.46,-522.24 79.46,-522.24"/>
<polygon fill="none" stroke="#29235c" points="79.46,-522.24 79.46,-582.24 449.46,-582.24 449.46,-522.24 79.46,-522.24"/>
<text text-anchor="start" x="90.17" y="-543.44" font-family="Helvetica,sans-Serif" font-weight="bold" font-size="32.00" fill="#ffffff"> &#160;&#160;&#160;&#160;&#160;&#160;spk_documents &#160;&#160;&#160;&#160;&#160;&#160;</text>
<polygon fill="#e7e2dd" stroke="transparent" points="79.46,-462.24 79.46,-522.24 449.46,-522.24 449.46,-462.24 79.46,-462.24"/>
<polygon fill="none" stroke="#29235c" points="79.46,-462.24 79.46,-522.24 449.46,-522.24 449.46,-462.24 79.46,-462.24"/>
<text text-anchor="start" x="90.46" y="-482.44" font-family="Helvetica,sans-Serif" font-size="32.00" fill="#29235c">spk_id &#160;&#160;&#160;</text>
<text text-anchor="start" x="404.68" y="-483.44" font-family="Helvetica,sans-Serif" font-style="italic" font-size="32.00" fill="#29235c">int</text>
<polygon fill="none" stroke="#29235c" stroke-width="2" points="78.46,-461.24 78.46,-583.24 450.46,-583.24 450.46,-461.24 78.46,-461.24"/>
</g>
<!-- spk_documents&#45;&gt;spk -->
<!-- spk_documents&#45;&gt;spk -->
<g id="edge2" class="edge">
<title>spk_documents:e&#45;&gt;spk:w</title>
<path fill="none" stroke="#29235c" stroke-width="3" d="M450.46,-492.24C532.15,-492.24 555.09,-492.24 631.96,-492.24"/>
<polygon fill="#29235c" stroke="#29235c" stroke-width="3" points="632.13,-495.74 642.13,-492.24 632.13,-488.74 632.13,-495.74"/>
<text text-anchor="middle" x="633.24" y="-501.84" font-family="Helvetica,sans-Serif" font-size="32.00" fill="#29235c">1</text>
<text text-anchor="middle" x="456.68" y="-501.84" font-family="Helvetica,sans-Serif" font-size="32.00" fill="#29235c">*</text>
</g>
</g>
</svg>
