<?xml version="1.0" encoding="UTF-8" standalone="no"?>
<!DOCTYPE svg PUBLIC "-//W3C//DTD SVG 1.1//EN"
 "http://www.w3.org/Graphics/SVG/1.1/DTD/svg11.dtd">
<!-- Generated by graphviz version 2.47.0 (20210316.0004)
 -->
<!-- Title: dbml Pages: 1 -->
<svg width="1093pt" height="1226pt"
 viewBox="0.00 0.00 1093.35 1225.63" xmlns="http://www.w3.org/2000/svg" xmlns:xlink="http://www.w3.org/1999/xlink">
<g id="graph0" class="graph" transform="scale(1 1) rotate(0) translate(4 1221.63)">
<title>dbml</title>
<!-- documents -->
<g id="documents" class="node">
<title>documents</title>
<ellipse fill="none" stroke="black" stroke-width="0" cx="825.13" cy="-257.39" rx="260.43" ry="257.27"/>
<polygon fill="#1d71b8" stroke="transparent" points="643.13,-377.39 643.13,-437.39 1007.13,-437.39 1007.13,-377.39 643.13,-377.39"/>
<polygon fill="none" stroke="#29235c" points="643.13,-377.39 643.13,-437.39 1007.13,-437.39 1007.13,-377.39 643.13,-377.39"/>
<text text-anchor="start" x="684.64" y="-398.59" font-family="Helvetica,sans-Serif" font-weight="bold" font-size="32.00" fill="#ffffff"> &#160;&#160;&#160;&#160;&#160;&#160;documents &#160;&#160;&#160;&#160;&#160;&#160;</text>
<polygon fill="#e7e2dd" stroke="transparent" points="643.13,-317.39 643.13,-377.39 1007.13,-377.39 1007.13,-317.39 643.13,-317.39"/>
<polygon fill="none" stroke="#29235c" points="643.13,-317.39 643.13,-377.39 1007.13,-377.39 1007.13,-317.39 643.13,-317.39"/>
<text text-anchor="start" x="654.13" y="-338.59" font-family="Helvetica,sans-Serif" font-weight="bold" font-size="32.00" fill="#29235c">id</text>
<text text-anchor="start" x="679.02" y="-338.59" font-family="Helvetica,sans-Serif" font-size="32.00" fill="#29235c"> &#160;&#160;&#160;</text>
<text text-anchor="start" x="962.35" y="-338.59" font-family="Helvetica,sans-Serif" font-style="italic" font-size="32.00" fill="#29235c">int</text>
<polygon fill="#e7e2dd" stroke="transparent" points="643.13,-257.39 643.13,-317.39 1007.13,-317.39 1007.13,-257.39 643.13,-257.39"/>
<polygon fill="none" stroke="#29235c" points="643.13,-257.39 643.13,-317.39 1007.13,-317.39 1007.13,-257.39 643.13,-257.39"/>
<text text-anchor="start" x="654.13" y="-277.59" font-family="Helvetica,sans-Serif" font-size="32.00" fill="#29235c">title &#160;&#160;&#160;</text>
<text text-anchor="start" x="850.37" y="-278.59" font-family="Helvetica,sans-Serif" font-style="italic" font-size="32.00" fill="#29235c">varchar</text>
<text text-anchor="start" x="957.04" y="-278.59" font-family="Helvetica,sans-Serif" font-size="32.00" fill="#29235c"> </text>
<text text-anchor="start" x="965.93" y="-278.59" font-family="Helvetica,sans-Serif" font-weight="bold" font-size="32.00" fill="#29235c">(!)</text>
<polygon fill="#e7e2dd" stroke="transparent" points="643.13,-197.39 643.13,-257.39 1007.13,-257.39 1007.13,-197.39 643.13,-197.39"/>
<polygon fill="none" stroke="#29235c" points="643.13,-197.39 643.13,-257.39 1007.13,-257.39 1007.13,-197.39 643.13,-197.39"/>
<text text-anchor="start" x="654.13" y="-217.59" font-family="Helvetica,sans-Serif" font-size="32.00" fill="#29235c">content &#160;&#160;&#160;</text>
<text text-anchor="start" x="919.66" y="-218.59" font-family="Helvetica,sans-Serif" font-style="italic" font-size="32.00" fill="#29235c">jsonb</text>
<polygon fill="#e7e2dd" stroke="transparent" points="643.13,-137.39 643.13,-197.39 1007.13,-197.39 1007.13,-137.39 643.13,-137.39"/>
<polygon fill="none" stroke="#29235c" points="643.13,-137.39 643.13,-197.39 1007.13,-197.39 1007.13,-137.39 643.13,-137.39"/>
<text text-anchor="start" x="654.13" y="-157.59" font-family="Helvetica,sans-Serif" font-size="32.00" fill="#29235c">created_at &#160;&#160;&#160;</text>
<text text-anchor="start" x="848.57" y="-158.59" font-family="Helvetica,sans-Serif" font-style="italic" font-size="32.00" fill="#29235c">timestamp</text>
<polygon fill="#e7e2dd" stroke="transparent" points="643.13,-77.39 643.13,-137.39 1007.13,-137.39 1007.13,-77.39 643.13,-77.39"/>
<polygon fill="none" stroke="#29235c" points="643.13,-77.39 643.13,-137.39 1007.13,-137.39 1007.13,-77.39 643.13,-77.39"/>
<text text-anchor="start" x="653.8" y="-97.59" font-family="Helvetica,sans-Serif" font-size="32.00" fill="#29235c">updated_at &#160;&#160;&#160;</text>
<text text-anchor="start" x="848.85" y="-98.59" font-family="Helvetica,sans-Serif" font-style="italic" font-size="32.00" fill="#29235c">timestamp</text>
<polygon fill="none" stroke="#29235c" stroke-width="2" points="642.13,-76.39 642.13,-438.39 1008.13,-438.39 1008.13,-76.39 642.13,-76.39"/>
</g>
<!-- spk -->
<g id="spk" class="node">
<title>spk</title>
<ellipse fill="none" stroke="black" stroke-width="0" cx="825.13" cy="-875.39" rx="260.43" ry="342.48"/>
<polygon fill="#1d71b8" stroke="transparent" points="643.13,-1055.39 643.13,-1115.39 1007.13,-1115.39 1007.13,-1055.39 643.13,-1055.39"/>
<polygon fill="none" stroke="#29235c" points="643.13,-1055.39 643.13,-1115.39 1007.13,-1115.39 1007.13,-1055.39 643.13,-1055.39"/>
<text text-anchor="start" x="737.99" y="-1076.59" font-family="Helvetica,sans-Serif" font-weight="bold" font-size="32.00" fill="#ffffff"> &#160;&#160;&#160;&#160;&#160;&#160;spk &#160;&#160;&#160;&#160;&#160;&#160;</text>
<polygon fill="#e7e2dd" stroke="transparent" points="643.13,-995.39 643.13,-1055.39 1007.13,-1055.39 1007.13,-995.39 643.13,-995.39"/>
<polygon fill="none" stroke="#29235c" points="643.13,-995.39 643.13,-1055.39 1007.13,-1055.39 1007.13,-995.39 643.13,-995.39"/>
<text text-anchor="start" x="654.13" y="-1016.59" font-family="Helvetica,sans-Serif" font-weight="bold" font-size="32.00" fill="#29235c">id</text>
<text text-anchor="start" x="679.02" y="-1016.59" font-family="Helvetica,sans-Serif" font-size="32.00" fill="#29235c"> &#160;&#160;&#160;</text>
<text text-anchor="start" x="962.35" y="-1016.59" font-family="Helvetica,sans-Serif" font-style="italic" font-size="32.00" fill="#29235c">int</text>
<polygon fill="#e7e2dd" stroke="transparent" points="643.13,-935.39 643.13,-995.39 1007.13,-995.39 1007.13,-935.39 643.13,-935.39"/>
<polygon fill="none" stroke="#29235c" points="643.13,-935.39 643.13,-995.39 1007.13,-995.39 1007.13,-935.39 643.13,-935.39"/>
<text text-anchor="start" x="654.13" y="-955.59" font-family="Helvetica,sans-Serif" font-size="32.00" fill="#29235c">title &#160;&#160;&#160;</text>
<text text-anchor="start" x="850.37" y="-956.59" font-family="Helvetica,sans-Serif" font-style="italic" font-size="32.00" fill="#29235c">varchar</text>
<text text-anchor="start" x="957.04" y="-956.59" font-family="Helvetica,sans-Serif" font-size="32.00" fill="#29235c"> </text>
<text text-anchor="start" x="965.93" y="-956.59" font-family="Helvetica,sans-Serif" font-weight="bold" font-size="32.00" fill="#29235c">(!)</text>
<polygon fill="#e7e2dd" stroke="transparent" points="643.13,-875.39 643.13,-935.39 1007.13,-935.39 1007.13,-875.39 643.13,-875.39"/>
<polygon fill="none" stroke="#29235c" points="643.13,-875.39 643.13,-935.39 1007.13,-935.39 1007.13,-875.39 643.13,-875.39"/>
<text text-anchor="start" x="654.13" y="-895.59" font-family="Helvetica,sans-Serif" font-size="32.00" fill="#29235c">code &#160;&#160;&#160;</text>
<text text-anchor="start" x="889.46" y="-896.59" font-family="Helvetica,sans-Serif" font-style="italic" font-size="32.00" fill="#29235c">varchar</text>
<polygon fill="#e7e2dd" stroke="transparent" points="643.13,-815.39 643.13,-875.39 1007.13,-875.39 1007.13,-815.39 643.13,-815.39"/>
<polygon fill="none" stroke="#29235c" points="643.13,-815.39 643.13,-875.39 1007.13,-875.39 1007.13,-815.39 643.13,-815.39"/>
<text text-anchor="start" x="654.13" y="-835.59" font-family="Helvetica,sans-Serif" font-size="32.00" fill="#29235c">position_ids &#160;&#160;&#160;</text>
<text text-anchor="start" x="944.56" y="-836.59" font-family="Helvetica,sans-Serif" font-style="italic" font-size="32.00" fill="#29235c">int[]</text>
<polygon fill="#e7e2dd" stroke="transparent" points="643.13,-755.39 643.13,-815.39 1007.13,-815.39 1007.13,-755.39 643.13,-755.39"/>
<polygon fill="none" stroke="#29235c" points="643.13,-755.39 643.13,-815.39 1007.13,-815.39 1007.13,-755.39 643.13,-755.39"/>
<text text-anchor="start" x="654.13" y="-775.59" font-family="Helvetica,sans-Serif" font-size="32.00" fill="#29235c">content &#160;&#160;&#160;</text>
<text text-anchor="start" x="919.66" y="-776.59" font-family="Helvetica,sans-Serif" font-style="italic" font-size="32.00" fill="#29235c">jsonb</text>
<polygon fill="#e7e2dd" stroke="transparent" points="643.13,-695.39 643.13,-755.39 1007.13,-755.39 1007.13,-695.39 643.13,-695.39"/>
<polygon fill="none" stroke="#29235c" points="643.13,-695.39 643.13,-755.39 1007.13,-755.39 1007.13,-695.39 643.13,-695.39"/>
<text text-anchor="start" x="654.13" y="-715.59" font-family="Helvetica,sans-Serif" font-size="32.00" fill="#29235c">created_at &#160;&#160;&#160;</text>
<text text-anchor="start" x="848.57" y="-716.59" font-family="Helvetica,sans-Serif" font-style="italic" font-size="32.00" fill="#29235c">timestamp</text>
<polygon fill="#e7e2dd" stroke="transparent" points="643.13,-635.39 643.13,-695.39 1007.13,-695.39 1007.13,-635.39 643.13,-635.39"/>
<polygon fill="none" stroke="#29235c" points="643.13,-635.39 643.13,-695.39 1007.13,-695.39 1007.13,-635.39 643.13,-635.39"/>
<text text-anchor="start" x="653.8" y="-655.59" font-family="Helvetica,sans-Serif" font-size="32.00" fill="#29235c">updated_at &#160;&#160;&#160;</text>
<text text-anchor="start" x="848.85" y="-656.59" font-family="Helvetica,sans-Serif" font-style="italic" font-size="32.00" fill="#29235c">timestamp</text>
<polygon fill="none" stroke="#29235c" stroke-width="2" points="642.13,-634.39 642.13,-1116.39 1008.13,-1116.39 1008.13,-634.39 642.13,-634.39"/>
</g>
<!-- spk_documents -->
<g id="spk_documents" class="node">
<title>spk_documents</title>
<ellipse fill="none" stroke="black" stroke-width="0" cx="264.46" cy="-656.39" rx="264.42" ry="299.63"/>
<polygon fill="#1d71b8" stroke="transparent" points="79.46,-806.39 79.46,-866.39 449.46,-866.39 449.46,-806.39 79.46,-806.39"/>
<polygon fill="none" stroke="#29235c" points="79.46,-806.39 79.46,-866.39 449.46,-866.39 449.46,-806.39 79.46,-806.39"/>
<text text-anchor="start" x="90.17" y="-827.59" font-family="Helvetica,sans-Serif" font-weight="bold" font-size="32.00" fill="#ffffff"> &#160;&#160;&#160;&#160;&#160;&#160;spk_documents &#160;&#160;&#160;&#160;&#160;&#160;</text>
<polygon fill="#e7e2dd" stroke="transparent" points="79.46,-746.39 79.46,-806.39 449.46,-806.39 449.46,-746.39 79.46,-746.39"/>
<polygon fill="none" stroke="#29235c" points="79.46,-746.39 79.46,-806.39 449.46,-806.39 449.46,-746.39 79.46,-746.39"/>
<text text-anchor="start" x="90.46" y="-767.59" font-family="Helvetica,sans-Serif" font-weight="bold" font-size="32.00" fill="#29235c">id</text>
<text text-anchor="start" x="115.35" y="-767.59" font-family="Helvetica,sans-Serif" font-size="32.00" fill="#29235c"> &#160;&#160;&#160;</text>
<text text-anchor="start" x="404.68" y="-767.59" font-family="Helvetica,sans-Serif" font-style="italic" font-size="32.00" fill="#29235c">int</text>
<polygon fill="#e7e2dd" stroke="transparent" points="79.46,-686.39 79.46,-746.39 449.46,-746.39 449.46,-686.39 79.46,-686.39"/>
<polygon fill="none" stroke="#29235c" points="79.46,-686.39 79.46,-746.39 449.46,-746.39 449.46,-686.39 79.46,-686.39"/>
<text text-anchor="start" x="90.46" y="-706.59" font-family="Helvetica,sans-Serif" font-size="32.00" fill="#29235c">title &#160;&#160;&#160;</text>
<text text-anchor="start" x="292.69" y="-707.59" font-family="Helvetica,sans-Serif" font-style="italic" font-size="32.00" fill="#29235c">varchar</text>
<text text-anchor="start" x="399.37" y="-707.59" font-family="Helvetica,sans-Serif" font-size="32.00" fill="#29235c"> </text>
<text text-anchor="start" x="408.26" y="-707.59" font-family="Helvetica,sans-Serif" font-weight="bold" font-size="32.00" fill="#29235c">(!)</text>
<polygon fill="#e7e2dd" stroke="transparent" points="79.46,-626.39 79.46,-686.39 449.46,-686.39 449.46,-626.39 79.46,-626.39"/>
<polygon fill="none" stroke="#29235c" points="79.46,-626.39 79.46,-686.39 449.46,-686.39 449.46,-626.39 79.46,-626.39"/>
<text text-anchor="start" x="90.46" y="-646.59" font-family="Helvetica,sans-Serif" font-size="32.00" fill="#29235c">spk_id &#160;&#160;&#160;</text>
<text text-anchor="start" x="404.68" y="-647.59" font-family="Helvetica,sans-Serif" font-style="italic" font-size="32.00" fill="#29235c">int</text>
<polygon fill="#e7e2dd" stroke="transparent" points="79.46,-566.39 79.46,-626.39 449.46,-626.39 449.46,-566.39 79.46,-566.39"/>
<polygon fill="none" stroke="#29235c" points="79.46,-566.39 79.46,-626.39 449.46,-626.39 449.46,-566.39 79.46,-566.39"/>
<text text-anchor="start" x="90.46" y="-586.59" font-family="Helvetica,sans-Serif" font-size="32.00" fill="#29235c">documents_id &#160;&#160;&#160;</text>
<text text-anchor="start" x="404.68" y="-587.59" font-family="Helvetica,sans-Serif" font-style="italic" font-size="32.00" fill="#29235c">int</text>
<polygon fill="#e7e2dd" stroke="transparent" points="79.46,-506.39 79.46,-566.39 449.46,-566.39 449.46,-506.39 79.46,-506.39"/>
<polygon fill="none" stroke="#29235c" points="79.46,-506.39 79.46,-566.39 449.46,-566.39 449.46,-506.39 79.46,-506.39"/>
<text text-anchor="start" x="90.46" y="-526.59" font-family="Helvetica,sans-Serif" font-size="32.00" fill="#29235c">created_at &#160;&#160;&#160;</text>
<text text-anchor="start" x="290.9" y="-527.59" font-family="Helvetica,sans-Serif" font-style="italic" font-size="32.00" fill="#29235c">timestamp</text>
<polygon fill="#e7e2dd" stroke="transparent" points="79.46,-446.39 79.46,-506.39 449.46,-506.39 449.46,-446.39 79.46,-446.39"/>
<polygon fill="none" stroke="#29235c" points="79.46,-446.39 79.46,-506.39 449.46,-506.39 449.46,-446.39 79.46,-446.39"/>
<text text-anchor="start" x="90.46" y="-466.59" font-family="Helvetica,sans-Serif" font-size="32.00" fill="#29235c">updated_at &#160;&#160;&#160;</text>
<text text-anchor="start" x="290.9" y="-467.59" font-family="Helvetica,sans-Serif" font-style="italic" font-size="32.00" fill="#29235c">timestamp</text>
<polygon fill="none" stroke="#29235c" stroke-width="2" points="78.46,-445.39 78.46,-867.39 450.46,-867.39 450.46,-445.39 78.46,-445.39"/>
</g>
<!-- spk_documents&#45;&gt;documents -->
<!-- spk_documents&#45;&gt;documents -->
<g id="edge4" class="edge">
<title>spk_documents:e&#45;&gt;documents:w</title>
<path fill="none" stroke="#29235c" stroke-width="3" d="M450.46,-596.39C586.57,-596.39 506.78,-359.87 631.93,-347.86"/>
<polygon fill="#29235c" stroke="#29235c" stroke-width="3" points="632.3,-351.35 642.13,-347.39 631.98,-344.35 632.3,-351.35"/>
<text text-anchor="middle" x="633.24" y="-318.59" font-family="Helvetica,sans-Serif" font-size="32.00" fill="#29235c">1</text>
<text text-anchor="middle" x="456.68" y="-567.59" font-family="Helvetica,sans-Serif" font-size="32.00" fill="#29235c">*</text>
</g>
<!-- spk_documents&#45;&gt;spk -->
<!-- spk_documents&#45;&gt;spk -->
<g id="edge2" class="edge">
<title>spk_documents:e&#45;&gt;spk:w</title>
<path fill="none" stroke="#29235c" stroke-width="3" d="M450.46,-656.39C631.74,-656.39 463.97,-1011.47 631.96,-1024.99"/>
<polygon fill="#29235c" stroke="#29235c" stroke-width="3" points="632,-1028.49 642.13,-1025.39 632.28,-1021.5 632,-1028.49"/>
<text text-anchor="middle" x="633.24" y="-1034.99" font-family="Helvetica,sans-Serif" font-size="32.00" fill="#29235c">1</text>
<text text-anchor="middle" x="456.68" y="-627.59" font-family="Helvetica,sans-Serif" font-size="32.00" fill="#29235c">*</text>
</g>
</g>
</svg>
