<?xml version="1.0" encoding="UTF-8" standalone="no"?>
<!DOCTYPE svg PUBLIC "-//W3C//DTD SVG 1.1//EN"
 "http://www.w3.org/Graphics/SVG/1.1/DTD/svg11.dtd">
<!-- Generated by graphviz version 2.47.0 (20210316.0004)
 -->
<!-- Title: dbml Pages: 1 -->
<svg width="1607pt" height="1140pt"
 viewBox="0.00 0.00 1607.35 1140.20" xmlns="http://www.w3.org/2000/svg" xmlns:xlink="http://www.w3.org/1999/xlink">
<g id="graph0" class="graph" transform="scale(1 1) rotate(0) translate(4 1136.2)">
<title>dbml</title>
<!-- departments -->
<g id="departments" class="node">
<title>departments</title>
<ellipse fill="none" stroke="black" stroke-width="0" cx="1339.14" cy="-287.39" rx="260.43" ry="214.92"/>
<polygon fill="#1d71b8" stroke="transparent" points="1157.14,-377.39 1157.14,-437.39 1521.14,-437.39 1521.14,-377.39 1157.14,-377.39"/>
<polygon fill="none" stroke="#29235c" points="1157.14,-377.39 1157.14,-437.39 1521.14,-437.39 1521.14,-377.39 1157.14,-377.39"/>
<text text-anchor="start" x="1187.97" y="-398.59" font-family="Helvetica,sans-Serif" font-weight="bold" font-size="32.00" fill="#ffffff"> &#160;&#160;&#160;&#160;&#160;&#160;departments &#160;&#160;&#160;&#160;&#160;&#160;</text>
<polygon fill="#e7e2dd" stroke="transparent" points="1157.14,-317.39 1157.14,-377.39 1521.14,-377.39 1521.14,-317.39 1157.14,-317.39"/>
<polygon fill="none" stroke="#29235c" points="1157.14,-317.39 1157.14,-377.39 1521.14,-377.39 1521.14,-317.39 1157.14,-317.39"/>
<text text-anchor="start" x="1168.14" y="-338.59" font-family="Helvetica,sans-Serif" font-weight="bold" font-size="32.00" fill="#29235c">id</text>
<text text-anchor="start" x="1193.02" y="-338.59" font-family="Helvetica,sans-Serif" font-size="32.00" fill="#29235c"> &#160;&#160;&#160;</text>
<text text-anchor="start" x="1476.35" y="-338.59" font-family="Helvetica,sans-Serif" font-style="italic" font-size="32.00" fill="#29235c">int</text>
<polygon fill="#e7e2dd" stroke="transparent" points="1157.14,-257.39 1157.14,-317.39 1521.14,-317.39 1521.14,-257.39 1157.14,-257.39"/>
<polygon fill="none" stroke="#29235c" points="1157.14,-257.39 1157.14,-317.39 1521.14,-317.39 1521.14,-257.39 1157.14,-257.39"/>
<text text-anchor="start" x="1168.14" y="-277.59" font-family="Helvetica,sans-Serif" font-size="32.00" fill="#29235c">name &#160;&#160;&#160;</text>
<text text-anchor="start" x="1364.37" y="-278.59" font-family="Helvetica,sans-Serif" font-style="italic" font-size="32.00" fill="#29235c">varchar</text>
<text text-anchor="start" x="1471.04" y="-278.59" font-family="Helvetica,sans-Serif" font-size="32.00" fill="#29235c"> </text>
<text text-anchor="start" x="1479.94" y="-278.59" font-family="Helvetica,sans-Serif" font-weight="bold" font-size="32.00" fill="#29235c">(!)</text>
<polygon fill="#e7e2dd" stroke="transparent" points="1157.14,-197.39 1157.14,-257.39 1521.14,-257.39 1521.14,-197.39 1157.14,-197.39"/>
<polygon fill="none" stroke="#29235c" points="1157.14,-197.39 1157.14,-257.39 1521.14,-257.39 1521.14,-197.39 1157.14,-197.39"/>
<text text-anchor="start" x="1168.14" y="-217.59" font-family="Helvetica,sans-Serif" font-size="32.00" fill="#29235c">created_at &#160;&#160;&#160;</text>
<text text-anchor="start" x="1362.58" y="-218.59" font-family="Helvetica,sans-Serif" font-style="italic" font-size="32.00" fill="#29235c">timestamp</text>
<polygon fill="#e7e2dd" stroke="transparent" points="1157.14,-137.39 1157.14,-197.39 1521.14,-197.39 1521.14,-137.39 1157.14,-137.39"/>
<polygon fill="none" stroke="#29235c" points="1157.14,-137.39 1157.14,-197.39 1521.14,-197.39 1521.14,-137.39 1157.14,-137.39"/>
<text text-anchor="start" x="1167.8" y="-157.59" font-family="Helvetica,sans-Serif" font-size="32.00" fill="#29235c">updated_at &#160;&#160;&#160;</text>
<text text-anchor="start" x="1362.86" y="-158.59" font-family="Helvetica,sans-Serif" font-style="italic" font-size="32.00" fill="#29235c">timestamp</text>
<polygon fill="none" stroke="#29235c" stroke-width="2" points="1156.14,-136.39 1156.14,-438.39 1522.14,-438.39 1522.14,-136.39 1156.14,-136.39"/>
</g>
<!-- positions -->
<g id="positions" class="node">
<title>positions</title>
<ellipse fill="none" stroke="black" stroke-width="0" cx="782.7" cy="-257.39" rx="260.43" ry="257.27"/>
<polygon fill="#1d71b8" stroke="transparent" points="600.7,-377.39 600.7,-437.39 964.7,-437.39 964.7,-377.39 600.7,-377.39"/>
<polygon fill="none" stroke="#29235c" points="600.7,-377.39 600.7,-437.39 964.7,-437.39 964.7,-377.39 600.7,-377.39"/>
<text text-anchor="start" x="657.33" y="-398.59" font-family="Helvetica,sans-Serif" font-weight="bold" font-size="32.00" fill="#ffffff"> &#160;&#160;&#160;&#160;&#160;&#160;positions &#160;&#160;&#160;&#160;&#160;&#160;</text>
<polygon fill="#e7e2dd" stroke="transparent" points="600.7,-317.39 600.7,-377.39 964.7,-377.39 964.7,-317.39 600.7,-317.39"/>
<polygon fill="none" stroke="#29235c" points="600.7,-317.39 600.7,-377.39 964.7,-377.39 964.7,-317.39 600.7,-317.39"/>
<text text-anchor="start" x="611.7" y="-338.59" font-family="Helvetica,sans-Serif" font-weight="bold" font-size="32.00" fill="#29235c">id</text>
<text text-anchor="start" x="636.59" y="-338.59" font-family="Helvetica,sans-Serif" font-size="32.00" fill="#29235c"> &#160;&#160;&#160;</text>
<text text-anchor="start" x="919.92" y="-338.59" font-family="Helvetica,sans-Serif" font-style="italic" font-size="32.00" fill="#29235c">int</text>
<polygon fill="#e7e2dd" stroke="transparent" points="600.7,-257.39 600.7,-317.39 964.7,-317.39 964.7,-257.39 600.7,-257.39"/>
<polygon fill="none" stroke="#29235c" points="600.7,-257.39 600.7,-317.39 964.7,-317.39 964.7,-257.39 600.7,-257.39"/>
<text text-anchor="start" x="611.7" y="-277.59" font-family="Helvetica,sans-Serif" font-size="32.00" fill="#29235c">name &#160;&#160;&#160;</text>
<text text-anchor="start" x="807.94" y="-278.59" font-family="Helvetica,sans-Serif" font-style="italic" font-size="32.00" fill="#29235c">varchar</text>
<text text-anchor="start" x="914.61" y="-278.59" font-family="Helvetica,sans-Serif" font-size="32.00" fill="#29235c"> </text>
<text text-anchor="start" x="923.51" y="-278.59" font-family="Helvetica,sans-Serif" font-weight="bold" font-size="32.00" fill="#29235c">(!)</text>
<polygon fill="#e7e2dd" stroke="transparent" points="600.7,-197.39 600.7,-257.39 964.7,-257.39 964.7,-197.39 600.7,-197.39"/>
<polygon fill="none" stroke="#29235c" points="600.7,-197.39 600.7,-257.39 964.7,-257.39 964.7,-197.39 600.7,-197.39"/>
<text text-anchor="start" x="611.7" y="-217.59" font-family="Helvetica,sans-Serif" font-size="32.00" fill="#29235c">department_id &#160;&#160;&#160;</text>
<text text-anchor="start" x="919.92" y="-218.59" font-family="Helvetica,sans-Serif" font-style="italic" font-size="32.00" fill="#29235c">int</text>
<polygon fill="#e7e2dd" stroke="transparent" points="600.7,-137.39 600.7,-197.39 964.7,-197.39 964.7,-137.39 600.7,-137.39"/>
<polygon fill="none" stroke="#29235c" points="600.7,-137.39 600.7,-197.39 964.7,-197.39 964.7,-137.39 600.7,-137.39"/>
<text text-anchor="start" x="611.7" y="-157.59" font-family="Helvetica,sans-Serif" font-size="32.00" fill="#29235c">created_at &#160;&#160;&#160;</text>
<text text-anchor="start" x="806.15" y="-158.59" font-family="Helvetica,sans-Serif" font-style="italic" font-size="32.00" fill="#29235c">timestamp</text>
<polygon fill="#e7e2dd" stroke="transparent" points="600.7,-77.39 600.7,-137.39 964.7,-137.39 964.7,-77.39 600.7,-77.39"/>
<polygon fill="none" stroke="#29235c" points="600.7,-77.39 600.7,-137.39 964.7,-137.39 964.7,-77.39 600.7,-77.39"/>
<text text-anchor="start" x="611.37" y="-97.59" font-family="Helvetica,sans-Serif" font-size="32.00" fill="#29235c">updated_at &#160;&#160;&#160;</text>
<text text-anchor="start" x="806.43" y="-98.59" font-family="Helvetica,sans-Serif" font-style="italic" font-size="32.00" fill="#29235c">timestamp</text>
<polygon fill="none" stroke="#29235c" stroke-width="2" points="599.7,-76.39 599.7,-438.39 965.7,-438.39 965.7,-76.39 599.7,-76.39"/>
</g>
<!-- positions&#45;&gt;departments -->
<!-- positions&#45;&gt;departments -->
<g id="edge2" class="edge">
<title>positions:e&#45;&gt;departments:w</title>
<path fill="none" stroke="#29235c" stroke-width="3" d="M965.7,-227.39C1062.23,-227.39 1056.64,-339.1 1145.98,-346.95"/>
<polygon fill="#29235c" stroke="#29235c" stroke-width="3" points="1145.99,-350.46 1156.14,-347.39 1146.29,-343.46 1145.99,-350.46"/>
<text text-anchor="middle" x="1147.24" y="-318.59" font-family="Helvetica,sans-Serif" font-size="32.00" fill="#29235c">1</text>
<text text-anchor="middle" x="971.93" y="-198.59" font-family="Helvetica,sans-Serif" font-size="32.00" fill="#29235c">*</text>
</g>
<!-- spks -->
<g id="spks" class="node">
<title>spks</title>
<ellipse fill="none" stroke="black" stroke-width="0" cx="782.7" cy="-832.39" rx="260.43" ry="299.63"/>
<polygon fill="#1d71b8" stroke="transparent" points="600.7,-982.39 600.7,-1042.39 964.7,-1042.39 964.7,-982.39 600.7,-982.39"/>
<polygon fill="none" stroke="#29235c" points="600.7,-982.39 600.7,-1042.39 964.7,-1042.39 964.7,-982.39 600.7,-982.39"/>
<text text-anchor="start" x="687.56" y="-1003.59" font-family="Helvetica,sans-Serif" font-weight="bold" font-size="32.00" fill="#ffffff"> &#160;&#160;&#160;&#160;&#160;&#160;spks &#160;&#160;&#160;&#160;&#160;&#160;</text>
<polygon fill="#e7e2dd" stroke="transparent" points="600.7,-922.39 600.7,-982.39 964.7,-982.39 964.7,-922.39 600.7,-922.39"/>
<polygon fill="none" stroke="#29235c" points="600.7,-922.39 600.7,-982.39 964.7,-982.39 964.7,-922.39 600.7,-922.39"/>
<text text-anchor="start" x="611.7" y="-943.59" font-family="Helvetica,sans-Serif" font-weight="bold" font-size="32.00" fill="#29235c">id</text>
<text text-anchor="start" x="636.59" y="-943.59" font-family="Helvetica,sans-Serif" font-size="32.00" fill="#29235c"> &#160;&#160;&#160;</text>
<text text-anchor="start" x="919.92" y="-943.59" font-family="Helvetica,sans-Serif" font-style="italic" font-size="32.00" fill="#29235c">int</text>
<polygon fill="#e7e2dd" stroke="transparent" points="600.7,-862.39 600.7,-922.39 964.7,-922.39 964.7,-862.39 600.7,-862.39"/>
<polygon fill="none" stroke="#29235c" points="600.7,-862.39 600.7,-922.39 964.7,-922.39 964.7,-862.39 600.7,-862.39"/>
<text text-anchor="start" x="611.7" y="-882.59" font-family="Helvetica,sans-Serif" font-size="32.00" fill="#29235c">title &#160;&#160;&#160;</text>
<text text-anchor="start" x="807.94" y="-883.59" font-family="Helvetica,sans-Serif" font-style="italic" font-size="32.00" fill="#29235c">varchar</text>
<text text-anchor="start" x="914.61" y="-883.59" font-family="Helvetica,sans-Serif" font-size="32.00" fill="#29235c"> </text>
<text text-anchor="start" x="923.51" y="-883.59" font-family="Helvetica,sans-Serif" font-weight="bold" font-size="32.00" fill="#29235c">(!)</text>
<polygon fill="#e7e2dd" stroke="transparent" points="600.7,-802.39 600.7,-862.39 964.7,-862.39 964.7,-802.39 600.7,-802.39"/>
<polygon fill="none" stroke="#29235c" points="600.7,-802.39 600.7,-862.39 964.7,-862.39 964.7,-802.39 600.7,-802.39"/>
<text text-anchor="start" x="611.7" y="-822.59" font-family="Helvetica,sans-Serif" font-size="32.00" fill="#29235c">code &#160;&#160;&#160;</text>
<text text-anchor="start" x="847.03" y="-823.59" font-family="Helvetica,sans-Serif" font-style="italic" font-size="32.00" fill="#29235c">varchar</text>
<polygon fill="#e7e2dd" stroke="transparent" points="600.7,-742.39 600.7,-802.39 964.7,-802.39 964.7,-742.39 600.7,-742.39"/>
<polygon fill="none" stroke="#29235c" points="600.7,-742.39 600.7,-802.39 964.7,-802.39 964.7,-742.39 600.7,-742.39"/>
<text text-anchor="start" x="611.7" y="-762.59" font-family="Helvetica,sans-Serif" font-size="32.00" fill="#29235c">content &#160;&#160;&#160;</text>
<text text-anchor="start" x="877.24" y="-763.59" font-family="Helvetica,sans-Serif" font-style="italic" font-size="32.00" fill="#29235c">jsonb</text>
<polygon fill="#e7e2dd" stroke="transparent" points="600.7,-682.39 600.7,-742.39 964.7,-742.39 964.7,-682.39 600.7,-682.39"/>
<polygon fill="none" stroke="#29235c" points="600.7,-682.39 600.7,-742.39 964.7,-742.39 964.7,-682.39 600.7,-682.39"/>
<text text-anchor="start" x="611.7" y="-702.59" font-family="Helvetica,sans-Serif" font-size="32.00" fill="#29235c">created_at &#160;&#160;&#160;</text>
<text text-anchor="start" x="806.15" y="-703.59" font-family="Helvetica,sans-Serif" font-style="italic" font-size="32.00" fill="#29235c">timestamp</text>
<polygon fill="#e7e2dd" stroke="transparent" points="600.7,-622.39 600.7,-682.39 964.7,-682.39 964.7,-622.39 600.7,-622.39"/>
<polygon fill="none" stroke="#29235c" points="600.7,-622.39 600.7,-682.39 964.7,-682.39 964.7,-622.39 600.7,-622.39"/>
<text text-anchor="start" x="611.37" y="-642.59" font-family="Helvetica,sans-Serif" font-size="32.00" fill="#29235c">updated_at &#160;&#160;&#160;</text>
<text text-anchor="start" x="806.43" y="-643.59" font-family="Helvetica,sans-Serif" font-style="italic" font-size="32.00" fill="#29235c">timestamp</text>
<polygon fill="none" stroke="#29235c" stroke-width="2" points="599.7,-621.39 599.7,-1043.39 965.7,-1043.39 965.7,-621.39 599.7,-621.39"/>
</g>
<!-- spk_positions -->
<g id="spk_positions" class="node">
<title>spk_positions</title>
<ellipse fill="none" stroke="black" stroke-width="0" cx="243.24" cy="-679.39" rx="243.49" ry="172.57"/>
<polygon fill="#1d71b8" stroke="transparent" points="73.24,-739.39 73.24,-799.39 413.24,-799.39 413.24,-739.39 73.24,-739.39"/>
<polygon fill="none" stroke="#29235c" points="73.24,-739.39 73.24,-799.39 413.24,-799.39 413.24,-739.39 73.24,-739.39"/>
<text text-anchor="start" x="84.08" y="-760.59" font-family="Helvetica,sans-Serif" font-weight="bold" font-size="32.00" fill="#ffffff"> &#160;&#160;&#160;&#160;&#160;&#160;spk_positions &#160;&#160;&#160;&#160;&#160;&#160;</text>
<polygon fill="#e7e2dd" stroke="transparent" points="73.24,-679.39 73.24,-739.39 413.24,-739.39 413.24,-679.39 73.24,-679.39"/>
<polygon fill="none" stroke="#29235c" points="73.24,-679.39 73.24,-739.39 413.24,-739.39 413.24,-679.39 73.24,-679.39"/>
<text text-anchor="start" x="84.24" y="-700.59" font-family="Helvetica,sans-Serif" font-weight="bold" font-size="32.00" fill="#29235c">id</text>
<text text-anchor="start" x="109.13" y="-700.59" font-family="Helvetica,sans-Serif" font-size="32.00" fill="#29235c"> &#160;&#160;&#160;</text>
<text text-anchor="start" x="368.46" y="-700.59" font-family="Helvetica,sans-Serif" font-style="italic" font-size="32.00" fill="#29235c">int</text>
<polygon fill="#e7e2dd" stroke="transparent" points="73.24,-619.39 73.24,-679.39 413.24,-679.39 413.24,-619.39 73.24,-619.39"/>
<polygon fill="none" stroke="#29235c" points="73.24,-619.39 73.24,-679.39 413.24,-679.39 413.24,-619.39 73.24,-619.39"/>
<text text-anchor="start" x="84.24" y="-639.59" font-family="Helvetica,sans-Serif" font-size="32.00" fill="#29235c">spk_id &#160;&#160;&#160;</text>
<text text-anchor="start" x="368.46" y="-640.59" font-family="Helvetica,sans-Serif" font-style="italic" font-size="32.00" fill="#29235c">int</text>
<polygon fill="#e7e2dd" stroke="transparent" points="73.24,-559.39 73.24,-619.39 413.24,-619.39 413.24,-559.39 73.24,-559.39"/>
<polygon fill="none" stroke="#29235c" points="73.24,-559.39 73.24,-619.39 413.24,-619.39 413.24,-559.39 73.24,-559.39"/>
<text text-anchor="start" x="84.24" y="-579.59" font-family="Helvetica,sans-Serif" font-size="32.00" fill="#29235c">position_id &#160;&#160;&#160;</text>
<text text-anchor="start" x="368.46" y="-580.59" font-family="Helvetica,sans-Serif" font-style="italic" font-size="32.00" fill="#29235c">int</text>
<polygon fill="none" stroke="#29235c" stroke-width="2" points="72.24,-558.39 72.24,-800.39 414.24,-800.39 414.24,-558.39 72.24,-558.39"/>
</g>
<!-- spk_positions&#45;&gt;positions -->
<!-- spk_positions&#45;&gt;positions -->
<g id="edge6" class="edge">
<title>spk_positions:e&#45;&gt;positions:w</title>
<path fill="none" stroke="#29235c" stroke-width="3" d="M414.24,-589.39C546.18,-589.39 468.56,-359.98 589.44,-347.88"/>
<polygon fill="#29235c" stroke="#29235c" stroke-width="3" points="589.89,-351.37 599.7,-347.39 589.55,-344.37 589.89,-351.37"/>
<text text-anchor="middle" x="590.81" y="-318.59" font-family="Helvetica,sans-Serif" font-size="32.00" fill="#29235c">1</text>
<text text-anchor="middle" x="408.02" y="-560.59" font-family="Helvetica,sans-Serif" font-size="32.00" fill="#29235c">*</text>
</g>
<!-- spk_positions&#45;&gt;spks -->
<!-- spk_positions&#45;&gt;spks -->
<g id="edge4" class="edge">
<title>spk_positions:e&#45;&gt;spks:w</title>
<path fill="none" stroke="#29235c" stroke-width="3" d="M414.24,-649.39C568.59,-649.39 447.52,-938.93 589.5,-951.94"/>
<polygon fill="#29235c" stroke="#29235c" stroke-width="3" points="589.56,-955.44 599.7,-952.39 589.87,-948.45 589.56,-955.44"/>
<text text-anchor="middle" x="590.81" y="-961.99" font-family="Helvetica,sans-Serif" font-size="32.00" fill="#29235c">1</text>
<text text-anchor="middle" x="408.02" y="-620.59" font-family="Helvetica,sans-Serif" font-size="32.00" fill="#29235c">*</text>
</g>
</g>
</svg>
