<?xml version="1.0" encoding="UTF-8" standalone="no"?>
<!DOCTYPE svg PUBLIC "-//W3C//DTD SVG 1.1//EN"
 "http://www.w3.org/Graphics/SVG/1.1/DTD/svg11.dtd">
<!-- Generated by graphviz version 2.47.0 (20210316.0004)
 -->
<!-- Title: dbml Pages: 1 -->
<svg width="1093pt" height="1056pt"
 viewBox="0.00 0.00 1093.35 1055.77" xmlns="http://www.w3.org/2000/svg" xmlns:xlink="http://www.w3.org/1999/xlink">
<g id="graph0" class="graph" transform="scale(1 1) rotate(0) translate(4 1051.77)">
<title>dbml</title>
<!-- documents -->
<g id="documents" class="node">
<title>documents</title>
<ellipse fill="none" stroke="black" stroke-width="0" cx="825.13" cy="-257.39" rx="260.43" ry="257.27"/>
<polygon fill="#1d71b8" stroke="transparent" points="643.13,-377.39 643.13,-437.39 1007.13,-437.39 1007.13,-377.39 643.13,-377.39"/>
<polygon fill="none" stroke="#29235c" points="643.13,-377.39 643.13,-437.39 1007.13,-437.39 1007.13,-377.39 643.13,-377.39"/>
<text text-anchor="start" x="684.64" y="-398.59" font-family="Helvetica,sans-Serif" font-weight="bold" font-size="32.00" fill="#ffffff"> &#160;&#160;&#160;&#160;&#160;&#160;documents &#160;&#160;&#160;&#160;&#160;&#160;</text>
<polygon fill="#e7e2dd" stroke="transparent" points="643.13,-317.39 643.13,-377.39 1007.13,-377.39 1007.13,-317.39 643.13,-317.39"/>
<polygon fill="none" stroke="#29235c" points="643.13,-317.39 643.13,-377.39 1007.13,-377.39 1007.13,-317.39 643.13,-317.39"/>
<text text-anchor="start" x="654.13" y="-338.59" font-family="Helvetica,sans-Serif" font-weight="bold" font-size="32.00" fill="#29235c">id</text>
<text text-anchor="start" x="679.02" y="-338.59" font-family="Helvetica,sans-Serif" font-size="32.00" fill="#29235c"> &#160;&#160;&#160;</text>
<text text-anchor="start" x="962.35" y="-338.59" font-family="Helvetica,sans-Serif" font-style="italic" font-size="32.00" fill="#29235c">int</text>
<polygon fill="#e7e2dd" stroke="transparent" points="643.13,-257.39 643.13,-317.39 1007.13,-317.39 1007.13,-257.39 643.13,-257.39"/>
<polygon fill="none" stroke="#29235c" points="643.13,-257.39 643.13,-317.39 1007.13,-317.39 1007.13,-257.39 643.13,-257.39"/>
<text text-anchor="start" x="654.13" y="-277.59" font-family="Helvetica,sans-Serif" font-size="32.00" fill="#29235c">title &#160;&#160;&#160;</text>
<text text-anchor="start" x="850.37" y="-278.59" font-family="Helvetica,sans-Serif" font-style="italic" font-size="32.00" fill="#29235c">varchar</text>
<text text-anchor="start" x="957.04" y="-278.59" font-family="Helvetica,sans-Serif" font-size="32.00" fill="#29235c"> </text>
<text text-anchor="start" x="965.93" y="-278.59" font-family="Helvetica,sans-Serif" font-weight="bold" font-size="32.00" fill="#29235c">(!)</text>
<polygon fill="#e7e2dd" stroke="transparent" points="643.13,-197.39 643.13,-257.39 1007.13,-257.39 1007.13,-197.39 643.13,-197.39"/>
<polygon fill="none" stroke="#29235c" points="643.13,-197.39 643.13,-257.39 1007.13,-257.39 1007.13,-197.39 643.13,-197.39"/>
<text text-anchor="start" x="654.13" y="-217.59" font-family="Helvetica,sans-Serif" font-size="32.00" fill="#29235c">content &#160;&#160;&#160;</text>
<text text-anchor="start" x="919.66" y="-218.59" font-family="Helvetica,sans-Serif" font-style="italic" font-size="32.00" fill="#29235c">jsonb</text>
<polygon fill="#e7e2dd" stroke="transparent" points="643.13,-137.39 643.13,-197.39 1007.13,-197.39 1007.13,-137.39 643.13,-137.39"/>
<polygon fill="none" stroke="#29235c" points="643.13,-137.39 643.13,-197.39 1007.13,-197.39 1007.13,-137.39 643.13,-137.39"/>
<text text-anchor="start" x="654.13" y="-157.59" font-family="Helvetica,sans-Serif" font-size="32.00" fill="#29235c">created_at &#160;&#160;&#160;</text>
<text text-anchor="start" x="848.57" y="-158.59" font-family="Helvetica,sans-Serif" font-style="italic" font-size="32.00" fill="#29235c">timestamp</text>
<polygon fill="#e7e2dd" stroke="transparent" points="643.13,-77.39 643.13,-137.39 1007.13,-137.39 1007.13,-77.39 643.13,-77.39"/>
<polygon fill="none" stroke="#29235c" points="643.13,-77.39 643.13,-137.39 1007.13,-137.39 1007.13,-77.39 643.13,-77.39"/>
<text text-anchor="start" x="653.8" y="-97.59" font-family="Helvetica,sans-Serif" font-size="32.00" fill="#29235c">updated_at &#160;&#160;&#160;</text>
<text text-anchor="start" x="848.85" y="-98.59" font-family="Helvetica,sans-Serif" font-style="italic" font-size="32.00" fill="#29235c">timestamp</text>
<polygon fill="none" stroke="#29235c" stroke-width="2" points="642.13,-76.39 642.13,-438.39 1008.13,-438.39 1008.13,-76.39 642.13,-76.39"/>
</g>
<!-- spk -->
<g id="spk" class="node">
<title>spk</title>
<ellipse fill="none" stroke="black" stroke-width="0" cx="825.13" cy="-790.39" rx="260.43" ry="257.27"/>
<polygon fill="#1d71b8" stroke="transparent" points="643.13,-910.39 643.13,-970.39 1007.13,-970.39 1007.13,-910.39 643.13,-910.39"/>
<polygon fill="none" stroke="#29235c" points="643.13,-910.39 643.13,-970.39 1007.13,-970.39 1007.13,-910.39 643.13,-910.39"/>
<text text-anchor="start" x="737.99" y="-931.59" font-family="Helvetica,sans-Serif" font-weight="bold" font-size="32.00" fill="#ffffff"> &#160;&#160;&#160;&#160;&#160;&#160;spk &#160;&#160;&#160;&#160;&#160;&#160;</text>
<polygon fill="#e7e2dd" stroke="transparent" points="643.13,-850.39 643.13,-910.39 1007.13,-910.39 1007.13,-850.39 643.13,-850.39"/>
<polygon fill="none" stroke="#29235c" points="643.13,-850.39 643.13,-910.39 1007.13,-910.39 1007.13,-850.39 643.13,-850.39"/>
<text text-anchor="start" x="654.13" y="-871.59" font-family="Helvetica,sans-Serif" font-weight="bold" font-size="32.00" fill="#29235c">id</text>
<text text-anchor="start" x="679.02" y="-871.59" font-family="Helvetica,sans-Serif" font-size="32.00" fill="#29235c"> &#160;&#160;&#160;</text>
<text text-anchor="start" x="962.35" y="-871.59" font-family="Helvetica,sans-Serif" font-style="italic" font-size="32.00" fill="#29235c">int</text>
<polygon fill="#e7e2dd" stroke="transparent" points="643.13,-790.39 643.13,-850.39 1007.13,-850.39 1007.13,-790.39 643.13,-790.39"/>
<polygon fill="none" stroke="#29235c" points="643.13,-790.39 643.13,-850.39 1007.13,-850.39 1007.13,-790.39 643.13,-790.39"/>
<text text-anchor="start" x="654.13" y="-810.59" font-family="Helvetica,sans-Serif" font-size="32.00" fill="#29235c">title &#160;&#160;&#160;</text>
<text text-anchor="start" x="850.37" y="-811.59" font-family="Helvetica,sans-Serif" font-style="italic" font-size="32.00" fill="#29235c">varchar</text>
<text text-anchor="start" x="957.04" y="-811.59" font-family="Helvetica,sans-Serif" font-size="32.00" fill="#29235c"> </text>
<text text-anchor="start" x="965.93" y="-811.59" font-family="Helvetica,sans-Serif" font-weight="bold" font-size="32.00" fill="#29235c">(!)</text>
<polygon fill="#e7e2dd" stroke="transparent" points="643.13,-730.39 643.13,-790.39 1007.13,-790.39 1007.13,-730.39 643.13,-730.39"/>
<polygon fill="none" stroke="#29235c" points="643.13,-730.39 643.13,-790.39 1007.13,-790.39 1007.13,-730.39 643.13,-730.39"/>
<text text-anchor="start" x="654.13" y="-750.59" font-family="Helvetica,sans-Serif" font-size="32.00" fill="#29235c">content &#160;&#160;&#160;</text>
<text text-anchor="start" x="919.66" y="-751.59" font-family="Helvetica,sans-Serif" font-style="italic" font-size="32.00" fill="#29235c">jsonb</text>
<polygon fill="#e7e2dd" stroke="transparent" points="643.13,-670.39 643.13,-730.39 1007.13,-730.39 1007.13,-670.39 643.13,-670.39"/>
<polygon fill="none" stroke="#29235c" points="643.13,-670.39 643.13,-730.39 1007.13,-730.39 1007.13,-670.39 643.13,-670.39"/>
<text text-anchor="start" x="654.13" y="-690.59" font-family="Helvetica,sans-Serif" font-size="32.00" fill="#29235c">created_at &#160;&#160;&#160;</text>
<text text-anchor="start" x="848.57" y="-691.59" font-family="Helvetica,sans-Serif" font-style="italic" font-size="32.00" fill="#29235c">timestamp</text>
<polygon fill="#e7e2dd" stroke="transparent" points="643.13,-610.39 643.13,-670.39 1007.13,-670.39 1007.13,-610.39 643.13,-610.39"/>
<polygon fill="none" stroke="#29235c" points="643.13,-610.39 643.13,-670.39 1007.13,-670.39 1007.13,-610.39 643.13,-610.39"/>
<text text-anchor="start" x="653.8" y="-630.59" font-family="Helvetica,sans-Serif" font-size="32.00" fill="#29235c">updated_at &#160;&#160;&#160;</text>
<text text-anchor="start" x="848.85" y="-631.59" font-family="Helvetica,sans-Serif" font-style="italic" font-size="32.00" fill="#29235c">timestamp</text>
<polygon fill="none" stroke="#29235c" stroke-width="2" points="642.13,-609.39 642.13,-971.39 1008.13,-971.39 1008.13,-609.39 642.13,-609.39"/>
</g>
<!-- spk_documents -->
<g id="spk_documents" class="node">
<title>spk_documents</title>
<ellipse fill="none" stroke="black" stroke-width="0" cx="264.46" cy="-583.39" rx="264.42" ry="299.63"/>
<polygon fill="#1d71b8" stroke="transparent" points="79.46,-733.39 79.46,-793.39 449.46,-793.39 449.46,-733.39 79.46,-733.39"/>
<polygon fill="none" stroke="#29235c" points="79.46,-733.39 79.46,-793.39 449.46,-793.39 449.46,-733.39 79.46,-733.39"/>
<text text-anchor="start" x="90.17" y="-754.59" font-family="Helvetica,sans-Serif" font-weight="bold" font-size="32.00" fill="#ffffff"> &#160;&#160;&#160;&#160;&#160;&#160;spk_documents &#160;&#160;&#160;&#160;&#160;&#160;</text>
<polygon fill="#e7e2dd" stroke="transparent" points="79.46,-673.39 79.46,-733.39 449.46,-733.39 449.46,-673.39 79.46,-673.39"/>
<polygon fill="none" stroke="#29235c" points="79.46,-673.39 79.46,-733.39 449.46,-733.39 449.46,-673.39 79.46,-673.39"/>
<text text-anchor="start" x="90.46" y="-694.59" font-family="Helvetica,sans-Serif" font-weight="bold" font-size="32.00" fill="#29235c">id</text>
<text text-anchor="start" x="115.35" y="-694.59" font-family="Helvetica,sans-Serif" font-size="32.00" fill="#29235c"> &#160;&#160;&#160;</text>
<text text-anchor="start" x="404.68" y="-694.59" font-family="Helvetica,sans-Serif" font-style="italic" font-size="32.00" fill="#29235c">int</text>
<polygon fill="#e7e2dd" stroke="transparent" points="79.46,-613.39 79.46,-673.39 449.46,-673.39 449.46,-613.39 79.46,-613.39"/>
<polygon fill="none" stroke="#29235c" points="79.46,-613.39 79.46,-673.39 449.46,-673.39 449.46,-613.39 79.46,-613.39"/>
<text text-anchor="start" x="90.46" y="-633.59" font-family="Helvetica,sans-Serif" font-size="32.00" fill="#29235c">title &#160;&#160;&#160;</text>
<text text-anchor="start" x="292.69" y="-634.59" font-family="Helvetica,sans-Serif" font-style="italic" font-size="32.00" fill="#29235c">varchar</text>
<text text-anchor="start" x="399.37" y="-634.59" font-family="Helvetica,sans-Serif" font-size="32.00" fill="#29235c"> </text>
<text text-anchor="start" x="408.26" y="-634.59" font-family="Helvetica,sans-Serif" font-weight="bold" font-size="32.00" fill="#29235c">(!)</text>
<polygon fill="#e7e2dd" stroke="transparent" points="79.46,-553.39 79.46,-613.39 449.46,-613.39 449.46,-553.39 79.46,-553.39"/>
<polygon fill="none" stroke="#29235c" points="79.46,-553.39 79.46,-613.39 449.46,-613.39 449.46,-553.39 79.46,-553.39"/>
<text text-anchor="start" x="90.46" y="-573.59" font-family="Helvetica,sans-Serif" font-size="32.00" fill="#29235c">spk_id &#160;&#160;&#160;</text>
<text text-anchor="start" x="404.68" y="-574.59" font-family="Helvetica,sans-Serif" font-style="italic" font-size="32.00" fill="#29235c">int</text>
<polygon fill="#e7e2dd" stroke="transparent" points="79.46,-493.39 79.46,-553.39 449.46,-553.39 449.46,-493.39 79.46,-493.39"/>
<polygon fill="none" stroke="#29235c" points="79.46,-493.39 79.46,-553.39 449.46,-553.39 449.46,-493.39 79.46,-493.39"/>
<text text-anchor="start" x="90.46" y="-513.59" font-family="Helvetica,sans-Serif" font-size="32.00" fill="#29235c">documents_id &#160;&#160;&#160;</text>
<text text-anchor="start" x="404.68" y="-514.59" font-family="Helvetica,sans-Serif" font-style="italic" font-size="32.00" fill="#29235c">int</text>
<polygon fill="#e7e2dd" stroke="transparent" points="79.46,-433.39 79.46,-493.39 449.46,-493.39 449.46,-433.39 79.46,-433.39"/>
<polygon fill="none" stroke="#29235c" points="79.46,-433.39 79.46,-493.39 449.46,-493.39 449.46,-433.39 79.46,-433.39"/>
<text text-anchor="start" x="90.46" y="-453.59" font-family="Helvetica,sans-Serif" font-size="32.00" fill="#29235c">created_at &#160;&#160;&#160;</text>
<text text-anchor="start" x="290.9" y="-454.59" font-family="Helvetica,sans-Serif" font-style="italic" font-size="32.00" fill="#29235c">timestamp</text>
<polygon fill="#e7e2dd" stroke="transparent" points="79.46,-373.39 79.46,-433.39 449.46,-433.39 449.46,-373.39 79.46,-373.39"/>
<polygon fill="none" stroke="#29235c" points="79.46,-373.39 79.46,-433.39 449.46,-433.39 449.46,-373.39 79.46,-373.39"/>
<text text-anchor="start" x="90.46" y="-393.59" font-family="Helvetica,sans-Serif" font-size="32.00" fill="#29235c">updated_at &#160;&#160;&#160;</text>
<text text-anchor="start" x="290.9" y="-394.59" font-family="Helvetica,sans-Serif" font-style="italic" font-size="32.00" fill="#29235c">timestamp</text>
<polygon fill="none" stroke="#29235c" stroke-width="2" points="78.46,-372.39 78.46,-794.39 450.46,-794.39 450.46,-372.39 78.46,-372.39"/>
</g>
<!-- spk_documents&#45;&gt;documents -->
<!-- spk_documents&#45;&gt;documents -->
<g id="edge4" class="edge">
<title>spk_documents:e&#45;&gt;documents:w</title>
<path fill="none" stroke="#29235c" stroke-width="3" d="M450.46,-523.39C562.61,-523.39 528.74,-357.88 632.05,-347.86"/>
<polygon fill="#29235c" stroke="#29235c" stroke-width="3" points="632.31,-351.35 642.13,-347.39 631.98,-344.36 632.31,-351.35"/>
<text text-anchor="middle" x="651.03" y="-347.39" font-family="Helvetica,sans-Serif" font-size="32.00" fill="#29235c">1</text>
<text text-anchor="middle" x="456.68" y="-494.59" font-family="Helvetica,sans-Serif" font-size="32.00" fill="#29235c">*</text>
</g>
<!-- spk_documents&#45;&gt;spk -->
<!-- spk_documents&#45;&gt;spk -->
<g id="edge2" class="edge">
<title>spk_documents:e&#45;&gt;spk:w</title>
<path fill="none" stroke="#29235c" stroke-width="3" d="M450.46,-583.39C604.03,-583.39 490.39,-867.19 631.96,-879.94"/>
<polygon fill="#29235c" stroke="#29235c" stroke-width="3" points="631.99,-883.45 642.13,-880.39 632.29,-876.46 631.99,-883.45"/>
<text text-anchor="middle" x="633.24" y="-889.99" font-family="Helvetica,sans-Serif" font-size="32.00" fill="#29235c">1</text>
<text text-anchor="middle" x="456.68" y="-583.39" font-family="Helvetica,sans-Serif" font-size="32.00" fill="#29235c">*</text>
</g>
</g>
</svg>
