<?xml version="1.0" encoding="UTF-8" standalone="no"?>
<!DOCTYPE svg PUBLIC "-//W3C//DTD SVG 1.1//EN"
 "http://www.w3.org/Graphics/SVG/1.1/DTD/svg11.dtd">
<!-- Generated by graphviz version 2.47.0 (20210316.0004)
 -->
<!-- Title: dbml Pages: 1 -->
<svg width="2274pt" height="1758pt"
 viewBox="0.00 0.00 2274.09 1758.20" xmlns="http://www.w3.org/2000/svg" xmlns:xlink="http://www.w3.org/1999/xlink">
<g id="graph0" class="graph" transform="scale(1 1) rotate(0) translate(4 1754.2)">
<title>dbml</title>
<!-- departments -->
<g id="departments" class="node">
<title>departments</title>
<ellipse fill="none" stroke="black" stroke-width="0" cx="2005.87" cy="-287.39" rx="260.43" ry="214.92"/>
<polygon fill="#1d71b8" stroke="transparent" points="1823.87,-377.39 1823.87,-437.39 2187.87,-437.39 2187.87,-377.39 1823.87,-377.39"/>
<polygon fill="none" stroke="#29235c" points="1823.87,-377.39 1823.87,-437.39 2187.87,-437.39 2187.87,-377.39 1823.87,-377.39"/>
<text text-anchor="start" x="1854.71" y="-398.59" font-family="Helvetica,sans-Serif" font-weight="bold" font-size="32.00" fill="#ffffff"> &#160;&#160;&#160;&#160;&#160;&#160;departments &#160;&#160;&#160;&#160;&#160;&#160;</text>
<polygon fill="#e7e2dd" stroke="transparent" points="1823.87,-317.39 1823.87,-377.39 2187.87,-377.39 2187.87,-317.39 1823.87,-317.39"/>
<polygon fill="none" stroke="#29235c" points="1823.87,-317.39 1823.87,-377.39 2187.87,-377.39 2187.87,-317.39 1823.87,-317.39"/>
<text text-anchor="start" x="1834.87" y="-338.59" font-family="Helvetica,sans-Serif" font-weight="bold" font-size="32.00" fill="#29235c">id</text>
<text text-anchor="start" x="1859.76" y="-338.59" font-family="Helvetica,sans-Serif" font-size="32.00" fill="#29235c"> &#160;&#160;&#160;</text>
<text text-anchor="start" x="2143.09" y="-338.59" font-family="Helvetica,sans-Serif" font-style="italic" font-size="32.00" fill="#29235c">int</text>
<polygon fill="#e7e2dd" stroke="transparent" points="1823.87,-257.39 1823.87,-317.39 2187.87,-317.39 2187.87,-257.39 1823.87,-257.39"/>
<polygon fill="none" stroke="#29235c" points="1823.87,-257.39 1823.87,-317.39 2187.87,-317.39 2187.87,-257.39 1823.87,-257.39"/>
<text text-anchor="start" x="1834.87" y="-277.59" font-family="Helvetica,sans-Serif" font-size="32.00" fill="#29235c">name &#160;&#160;&#160;</text>
<text text-anchor="start" x="2031.11" y="-278.59" font-family="Helvetica,sans-Serif" font-style="italic" font-size="32.00" fill="#29235c">varchar</text>
<text text-anchor="start" x="2137.78" y="-278.59" font-family="Helvetica,sans-Serif" font-size="32.00" fill="#29235c"> </text>
<text text-anchor="start" x="2146.68" y="-278.59" font-family="Helvetica,sans-Serif" font-weight="bold" font-size="32.00" fill="#29235c">(!)</text>
<polygon fill="#e7e2dd" stroke="transparent" points="1823.87,-197.39 1823.87,-257.39 2187.87,-257.39 2187.87,-197.39 1823.87,-197.39"/>
<polygon fill="none" stroke="#29235c" points="1823.87,-197.39 1823.87,-257.39 2187.87,-257.39 2187.87,-197.39 1823.87,-197.39"/>
<text text-anchor="start" x="1834.87" y="-217.59" font-family="Helvetica,sans-Serif" font-size="32.00" fill="#29235c">created_at &#160;&#160;&#160;</text>
<text text-anchor="start" x="2029.32" y="-218.59" font-family="Helvetica,sans-Serif" font-style="italic" font-size="32.00" fill="#29235c">timestamp</text>
<polygon fill="#e7e2dd" stroke="transparent" points="1823.87,-137.39 1823.87,-197.39 2187.87,-197.39 2187.87,-137.39 1823.87,-137.39"/>
<polygon fill="none" stroke="#29235c" points="1823.87,-137.39 1823.87,-197.39 2187.87,-197.39 2187.87,-137.39 1823.87,-137.39"/>
<text text-anchor="start" x="1834.54" y="-157.59" font-family="Helvetica,sans-Serif" font-size="32.00" fill="#29235c">updated_at &#160;&#160;&#160;</text>
<text text-anchor="start" x="2029.6" y="-158.59" font-family="Helvetica,sans-Serif" font-style="italic" font-size="32.00" fill="#29235c">timestamp</text>
<polygon fill="none" stroke="#29235c" stroke-width="2" points="1822.87,-136.39 1822.87,-438.39 2188.87,-438.39 2188.87,-136.39 1822.87,-136.39"/>
</g>
<!-- positions -->
<g id="positions" class="node">
<title>positions</title>
<ellipse fill="none" stroke="black" stroke-width="0" cx="1449.44" cy="-257.39" rx="260.43" ry="257.27"/>
<polygon fill="#1d71b8" stroke="transparent" points="1267.44,-377.39 1267.44,-437.39 1631.44,-437.39 1631.44,-377.39 1267.44,-377.39"/>
<polygon fill="none" stroke="#29235c" points="1267.44,-377.39 1267.44,-437.39 1631.44,-437.39 1631.44,-377.39 1267.44,-377.39"/>
<text text-anchor="start" x="1324.07" y="-398.59" font-family="Helvetica,sans-Serif" font-weight="bold" font-size="32.00" fill="#ffffff"> &#160;&#160;&#160;&#160;&#160;&#160;positions &#160;&#160;&#160;&#160;&#160;&#160;</text>
<polygon fill="#e7e2dd" stroke="transparent" points="1267.44,-317.39 1267.44,-377.39 1631.44,-377.39 1631.44,-317.39 1267.44,-317.39"/>
<polygon fill="none" stroke="#29235c" points="1267.44,-317.39 1267.44,-377.39 1631.44,-377.39 1631.44,-317.39 1267.44,-317.39"/>
<text text-anchor="start" x="1278.44" y="-338.59" font-family="Helvetica,sans-Serif" font-weight="bold" font-size="32.00" fill="#29235c">id</text>
<text text-anchor="start" x="1303.33" y="-338.59" font-family="Helvetica,sans-Serif" font-size="32.00" fill="#29235c"> &#160;&#160;&#160;</text>
<text text-anchor="start" x="1586.66" y="-338.59" font-family="Helvetica,sans-Serif" font-style="italic" font-size="32.00" fill="#29235c">int</text>
<polygon fill="#e7e2dd" stroke="transparent" points="1267.44,-257.39 1267.44,-317.39 1631.44,-317.39 1631.44,-257.39 1267.44,-257.39"/>
<polygon fill="none" stroke="#29235c" points="1267.44,-257.39 1267.44,-317.39 1631.44,-317.39 1631.44,-257.39 1267.44,-257.39"/>
<text text-anchor="start" x="1278.44" y="-277.59" font-family="Helvetica,sans-Serif" font-size="32.00" fill="#29235c">name &#160;&#160;&#160;</text>
<text text-anchor="start" x="1474.68" y="-278.59" font-family="Helvetica,sans-Serif" font-style="italic" font-size="32.00" fill="#29235c">varchar</text>
<text text-anchor="start" x="1581.35" y="-278.59" font-family="Helvetica,sans-Serif" font-size="32.00" fill="#29235c"> </text>
<text text-anchor="start" x="1590.25" y="-278.59" font-family="Helvetica,sans-Serif" font-weight="bold" font-size="32.00" fill="#29235c">(!)</text>
<polygon fill="#e7e2dd" stroke="transparent" points="1267.44,-197.39 1267.44,-257.39 1631.44,-257.39 1631.44,-197.39 1267.44,-197.39"/>
<polygon fill="none" stroke="#29235c" points="1267.44,-197.39 1267.44,-257.39 1631.44,-257.39 1631.44,-197.39 1267.44,-197.39"/>
<text text-anchor="start" x="1278.44" y="-217.59" font-family="Helvetica,sans-Serif" font-size="32.00" fill="#29235c">department_id &#160;&#160;&#160;</text>
<text text-anchor="start" x="1586.66" y="-218.59" font-family="Helvetica,sans-Serif" font-style="italic" font-size="32.00" fill="#29235c">int</text>
<polygon fill="#e7e2dd" stroke="transparent" points="1267.44,-137.39 1267.44,-197.39 1631.44,-197.39 1631.44,-137.39 1267.44,-137.39"/>
<polygon fill="none" stroke="#29235c" points="1267.44,-137.39 1267.44,-197.39 1631.44,-197.39 1631.44,-137.39 1267.44,-137.39"/>
<text text-anchor="start" x="1278.44" y="-157.59" font-family="Helvetica,sans-Serif" font-size="32.00" fill="#29235c">created_at &#160;&#160;&#160;</text>
<text text-anchor="start" x="1472.89" y="-158.59" font-family="Helvetica,sans-Serif" font-style="italic" font-size="32.00" fill="#29235c">timestamp</text>
<polygon fill="#e7e2dd" stroke="transparent" points="1267.44,-77.39 1267.44,-137.39 1631.44,-137.39 1631.44,-77.39 1267.44,-77.39"/>
<polygon fill="none" stroke="#29235c" points="1267.44,-77.39 1267.44,-137.39 1631.44,-137.39 1631.44,-77.39 1267.44,-77.39"/>
<text text-anchor="start" x="1278.11" y="-97.59" font-family="Helvetica,sans-Serif" font-size="32.00" fill="#29235c">updated_at &#160;&#160;&#160;</text>
<text text-anchor="start" x="1473.16" y="-98.59" font-family="Helvetica,sans-Serif" font-style="italic" font-size="32.00" fill="#29235c">timestamp</text>
<polygon fill="none" stroke="#29235c" stroke-width="2" points="1266.44,-76.39 1266.44,-438.39 1632.44,-438.39 1632.44,-76.39 1266.44,-76.39"/>
</g>
<!-- positions&#45;&gt;departments -->
<!-- positions&#45;&gt;departments -->
<g id="edge2" class="edge">
<title>positions:e&#45;&gt;departments:w</title>
<path fill="none" stroke="#29235c" stroke-width="3" d="M1632.44,-227.39C1728.97,-227.39 1723.38,-339.1 1812.72,-346.95"/>
<polygon fill="#29235c" stroke="#29235c" stroke-width="3" points="1812.73,-350.46 1822.87,-347.39 1813.03,-343.46 1812.73,-350.46"/>
<text text-anchor="middle" x="1813.98" y="-318.59" font-family="Helvetica,sans-Serif" font-size="32.00" fill="#29235c">1</text>
<text text-anchor="middle" x="1638.67" y="-198.59" font-family="Helvetica,sans-Serif" font-size="32.00" fill="#29235c">*</text>
</g>
<!-- sops -->
<g id="sops" class="node">
<title>sops</title>
<ellipse fill="none" stroke="black" stroke-width="0" cx="1449.44" cy="-832.39" rx="260.43" ry="299.63"/>
<polygon fill="#1d71b8" stroke="transparent" points="1267.44,-982.39 1267.44,-1042.39 1631.44,-1042.39 1631.44,-982.39 1267.44,-982.39"/>
<polygon fill="none" stroke="#29235c" points="1267.44,-982.39 1267.44,-1042.39 1631.44,-1042.39 1631.44,-982.39 1267.44,-982.39"/>
<text text-anchor="start" x="1353.41" y="-1003.59" font-family="Helvetica,sans-Serif" font-weight="bold" font-size="32.00" fill="#ffffff"> &#160;&#160;&#160;&#160;&#160;&#160;sops &#160;&#160;&#160;&#160;&#160;&#160;</text>
<polygon fill="#e7e2dd" stroke="transparent" points="1267.44,-922.39 1267.44,-982.39 1631.44,-982.39 1631.44,-922.39 1267.44,-922.39"/>
<polygon fill="none" stroke="#29235c" points="1267.44,-922.39 1267.44,-982.39 1631.44,-982.39 1631.44,-922.39 1267.44,-922.39"/>
<text text-anchor="start" x="1278.44" y="-943.59" font-family="Helvetica,sans-Serif" font-weight="bold" font-size="32.00" fill="#29235c">id</text>
<text text-anchor="start" x="1303.33" y="-943.59" font-family="Helvetica,sans-Serif" font-size="32.00" fill="#29235c"> &#160;&#160;&#160;</text>
<text text-anchor="start" x="1586.66" y="-943.59" font-family="Helvetica,sans-Serif" font-style="italic" font-size="32.00" fill="#29235c">int</text>
<polygon fill="#e7e2dd" stroke="transparent" points="1267.44,-862.39 1267.44,-922.39 1631.44,-922.39 1631.44,-862.39 1267.44,-862.39"/>
<polygon fill="none" stroke="#29235c" points="1267.44,-862.39 1267.44,-922.39 1631.44,-922.39 1631.44,-862.39 1267.44,-862.39"/>
<text text-anchor="start" x="1278.44" y="-882.59" font-family="Helvetica,sans-Serif" font-size="32.00" fill="#29235c">title &#160;&#160;&#160;</text>
<text text-anchor="start" x="1474.68" y="-883.59" font-family="Helvetica,sans-Serif" font-style="italic" font-size="32.00" fill="#29235c">varchar</text>
<text text-anchor="start" x="1581.35" y="-883.59" font-family="Helvetica,sans-Serif" font-size="32.00" fill="#29235c"> </text>
<text text-anchor="start" x="1590.25" y="-883.59" font-family="Helvetica,sans-Serif" font-weight="bold" font-size="32.00" fill="#29235c">(!)</text>
<polygon fill="#e7e2dd" stroke="transparent" points="1267.44,-802.39 1267.44,-862.39 1631.44,-862.39 1631.44,-802.39 1267.44,-802.39"/>
<polygon fill="none" stroke="#29235c" points="1267.44,-802.39 1267.44,-862.39 1631.44,-862.39 1631.44,-802.39 1267.44,-802.39"/>
<text text-anchor="start" x="1278.44" y="-822.59" font-family="Helvetica,sans-Serif" font-size="32.00" fill="#29235c">code &#160;&#160;&#160;</text>
<text text-anchor="start" x="1513.77" y="-823.59" font-family="Helvetica,sans-Serif" font-style="italic" font-size="32.00" fill="#29235c">varchar</text>
<polygon fill="#e7e2dd" stroke="transparent" points="1267.44,-742.39 1267.44,-802.39 1631.44,-802.39 1631.44,-742.39 1267.44,-742.39"/>
<polygon fill="none" stroke="#29235c" points="1267.44,-742.39 1267.44,-802.39 1631.44,-802.39 1631.44,-742.39 1267.44,-742.39"/>
<text text-anchor="start" x="1278.44" y="-762.59" font-family="Helvetica,sans-Serif" font-size="32.00" fill="#29235c">content &#160;&#160;&#160;</text>
<text text-anchor="start" x="1543.98" y="-763.59" font-family="Helvetica,sans-Serif" font-style="italic" font-size="32.00" fill="#29235c">jsonb</text>
<polygon fill="#e7e2dd" stroke="transparent" points="1267.44,-682.39 1267.44,-742.39 1631.44,-742.39 1631.44,-682.39 1267.44,-682.39"/>
<polygon fill="none" stroke="#29235c" points="1267.44,-682.39 1267.44,-742.39 1631.44,-742.39 1631.44,-682.39 1267.44,-682.39"/>
<text text-anchor="start" x="1278.44" y="-702.59" font-family="Helvetica,sans-Serif" font-size="32.00" fill="#29235c">created_at &#160;&#160;&#160;</text>
<text text-anchor="start" x="1472.89" y="-703.59" font-family="Helvetica,sans-Serif" font-style="italic" font-size="32.00" fill="#29235c">timestamp</text>
<polygon fill="#e7e2dd" stroke="transparent" points="1267.44,-622.39 1267.44,-682.39 1631.44,-682.39 1631.44,-622.39 1267.44,-622.39"/>
<polygon fill="none" stroke="#29235c" points="1267.44,-622.39 1267.44,-682.39 1631.44,-682.39 1631.44,-622.39 1267.44,-622.39"/>
<text text-anchor="start" x="1278.11" y="-642.59" font-family="Helvetica,sans-Serif" font-size="32.00" fill="#29235c">updated_at &#160;&#160;&#160;</text>
<text text-anchor="start" x="1473.16" y="-643.59" font-family="Helvetica,sans-Serif" font-style="italic" font-size="32.00" fill="#29235c">timestamp</text>
<polygon fill="none" stroke="#29235c" stroke-width="2" points="1266.44,-621.39 1266.44,-1043.39 1632.44,-1043.39 1632.44,-621.39 1266.44,-621.39"/>
</g>
<!-- spks -->
<g id="spks" class="node">
<title>spks</title>
<ellipse fill="none" stroke="black" stroke-width="0" cx="1449.44" cy="-1450.39" rx="260.43" ry="299.63"/>
<polygon fill="#1d71b8" stroke="transparent" points="1267.44,-1600.39 1267.44,-1660.39 1631.44,-1660.39 1631.44,-1600.39 1267.44,-1600.39"/>
<polygon fill="none" stroke="#29235c" points="1267.44,-1600.39 1267.44,-1660.39 1631.44,-1660.39 1631.44,-1600.39 1267.44,-1600.39"/>
<text text-anchor="start" x="1354.3" y="-1621.59" font-family="Helvetica,sans-Serif" font-weight="bold" font-size="32.00" fill="#ffffff"> &#160;&#160;&#160;&#160;&#160;&#160;spks &#160;&#160;&#160;&#160;&#160;&#160;</text>
<polygon fill="#e7e2dd" stroke="transparent" points="1267.44,-1540.39 1267.44,-1600.39 1631.44,-1600.39 1631.44,-1540.39 1267.44,-1540.39"/>
<polygon fill="none" stroke="#29235c" points="1267.44,-1540.39 1267.44,-1600.39 1631.44,-1600.39 1631.44,-1540.39 1267.44,-1540.39"/>
<text text-anchor="start" x="1278.44" y="-1561.59" font-family="Helvetica,sans-Serif" font-weight="bold" font-size="32.00" fill="#29235c">id</text>
<text text-anchor="start" x="1303.33" y="-1561.59" font-family="Helvetica,sans-Serif" font-size="32.00" fill="#29235c"> &#160;&#160;&#160;</text>
<text text-anchor="start" x="1586.66" y="-1561.59" font-family="Helvetica,sans-Serif" font-style="italic" font-size="32.00" fill="#29235c">int</text>
<polygon fill="#e7e2dd" stroke="transparent" points="1267.44,-1480.39 1267.44,-1540.39 1631.44,-1540.39 1631.44,-1480.39 1267.44,-1480.39"/>
<polygon fill="none" stroke="#29235c" points="1267.44,-1480.39 1267.44,-1540.39 1631.44,-1540.39 1631.44,-1480.39 1267.44,-1480.39"/>
<text text-anchor="start" x="1278.44" y="-1500.59" font-family="Helvetica,sans-Serif" font-size="32.00" fill="#29235c">title &#160;&#160;&#160;</text>
<text text-anchor="start" x="1474.68" y="-1501.59" font-family="Helvetica,sans-Serif" font-style="italic" font-size="32.00" fill="#29235c">varchar</text>
<text text-anchor="start" x="1581.35" y="-1501.59" font-family="Helvetica,sans-Serif" font-size="32.00" fill="#29235c"> </text>
<text text-anchor="start" x="1590.25" y="-1501.59" font-family="Helvetica,sans-Serif" font-weight="bold" font-size="32.00" fill="#29235c">(!)</text>
<polygon fill="#e7e2dd" stroke="transparent" points="1267.44,-1420.39 1267.44,-1480.39 1631.44,-1480.39 1631.44,-1420.39 1267.44,-1420.39"/>
<polygon fill="none" stroke="#29235c" points="1267.44,-1420.39 1267.44,-1480.39 1631.44,-1480.39 1631.44,-1420.39 1267.44,-1420.39"/>
<text text-anchor="start" x="1278.44" y="-1440.59" font-family="Helvetica,sans-Serif" font-size="32.00" fill="#29235c">code &#160;&#160;&#160;</text>
<text text-anchor="start" x="1513.77" y="-1441.59" font-family="Helvetica,sans-Serif" font-style="italic" font-size="32.00" fill="#29235c">varchar</text>
<polygon fill="#e7e2dd" stroke="transparent" points="1267.44,-1360.39 1267.44,-1420.39 1631.44,-1420.39 1631.44,-1360.39 1267.44,-1360.39"/>
<polygon fill="none" stroke="#29235c" points="1267.44,-1360.39 1267.44,-1420.39 1631.44,-1420.39 1631.44,-1360.39 1267.44,-1360.39"/>
<text text-anchor="start" x="1278.44" y="-1380.59" font-family="Helvetica,sans-Serif" font-size="32.00" fill="#29235c">content &#160;&#160;&#160;</text>
<text text-anchor="start" x="1543.98" y="-1381.59" font-family="Helvetica,sans-Serif" font-style="italic" font-size="32.00" fill="#29235c">jsonb</text>
<polygon fill="#e7e2dd" stroke="transparent" points="1267.44,-1300.39 1267.44,-1360.39 1631.44,-1360.39 1631.44,-1300.39 1267.44,-1300.39"/>
<polygon fill="none" stroke="#29235c" points="1267.44,-1300.39 1267.44,-1360.39 1631.44,-1360.39 1631.44,-1300.39 1267.44,-1300.39"/>
<text text-anchor="start" x="1278.44" y="-1320.59" font-family="Helvetica,sans-Serif" font-size="32.00" fill="#29235c">created_at &#160;&#160;&#160;</text>
<text text-anchor="start" x="1472.89" y="-1321.59" font-family="Helvetica,sans-Serif" font-style="italic" font-size="32.00" fill="#29235c">timestamp</text>
<polygon fill="#e7e2dd" stroke="transparent" points="1267.44,-1240.39 1267.44,-1300.39 1631.44,-1300.39 1631.44,-1240.39 1267.44,-1240.39"/>
<polygon fill="none" stroke="#29235c" points="1267.44,-1240.39 1267.44,-1300.39 1631.44,-1300.39 1631.44,-1240.39 1267.44,-1240.39"/>
<text text-anchor="start" x="1278.11" y="-1260.59" font-family="Helvetica,sans-Serif" font-size="32.00" fill="#29235c">updated_at &#160;&#160;&#160;</text>
<text text-anchor="start" x="1473.16" y="-1261.59" font-family="Helvetica,sans-Serif" font-style="italic" font-size="32.00" fill="#29235c">timestamp</text>
<polygon fill="none" stroke="#29235c" stroke-width="2" points="1266.44,-1239.39 1266.44,-1661.39 1632.44,-1661.39 1632.44,-1239.39 1266.44,-1239.39"/>
</g>
<!-- spk_jobs -->
<g id="spk_jobs" class="node">
<title>spk_jobs</title>
<ellipse fill="none" stroke="black" stroke-width="0" cx="893.01" cy="-742.39" rx="260.43" ry="427.19"/>
<polygon fill="#1d71b8" stroke="transparent" points="711.01,-982.39 711.01,-1042.39 1075.01,-1042.39 1075.01,-982.39 711.01,-982.39"/>
<polygon fill="none" stroke="#29235c" points="711.01,-982.39 711.01,-1042.39 1075.01,-1042.39 1075.01,-982.39 711.01,-982.39"/>
<text text-anchor="start" x="767.64" y="-1003.59" font-family="Helvetica,sans-Serif" font-weight="bold" font-size="32.00" fill="#ffffff"> &#160;&#160;&#160;&#160;&#160;&#160;spk_jobs &#160;&#160;&#160;&#160;&#160;&#160;</text>
<polygon fill="#e7e2dd" stroke="transparent" points="711.01,-922.39 711.01,-982.39 1075.01,-982.39 1075.01,-922.39 711.01,-922.39"/>
<polygon fill="none" stroke="#29235c" points="711.01,-922.39 711.01,-982.39 1075.01,-982.39 1075.01,-922.39 711.01,-922.39"/>
<text text-anchor="start" x="722.01" y="-943.59" font-family="Helvetica,sans-Serif" font-weight="bold" font-size="32.00" fill="#29235c">id</text>
<text text-anchor="start" x="746.9" y="-943.59" font-family="Helvetica,sans-Serif" font-size="32.00" fill="#29235c"> &#160;&#160;&#160;</text>
<text text-anchor="start" x="1030.23" y="-943.59" font-family="Helvetica,sans-Serif" font-style="italic" font-size="32.00" fill="#29235c">int</text>
<polygon fill="#e7e2dd" stroke="transparent" points="711.01,-862.39 711.01,-922.39 1075.01,-922.39 1075.01,-862.39 711.01,-862.39"/>
<polygon fill="none" stroke="#29235c" points="711.01,-862.39 711.01,-922.39 1075.01,-922.39 1075.01,-862.39 711.01,-862.39"/>
<text text-anchor="start" x="722.01" y="-882.59" font-family="Helvetica,sans-Serif" font-size="32.00" fill="#29235c">name &#160;&#160;&#160;</text>
<text text-anchor="start" x="918.25" y="-883.59" font-family="Helvetica,sans-Serif" font-style="italic" font-size="32.00" fill="#29235c">varchar</text>
<text text-anchor="start" x="1024.92" y="-883.59" font-family="Helvetica,sans-Serif" font-size="32.00" fill="#29235c"> </text>
<text text-anchor="start" x="1033.82" y="-883.59" font-family="Helvetica,sans-Serif" font-weight="bold" font-size="32.00" fill="#29235c">(!)</text>
<polygon fill="#e7e2dd" stroke="transparent" points="711.01,-802.39 711.01,-862.39 1075.01,-862.39 1075.01,-802.39 711.01,-802.39"/>
<polygon fill="none" stroke="#29235c" points="711.01,-802.39 711.01,-862.39 1075.01,-862.39 1075.01,-802.39 711.01,-802.39"/>
<text text-anchor="start" x="722.01" y="-822.59" font-family="Helvetica,sans-Serif" font-size="32.00" fill="#29235c">description &#160;&#160;&#160;</text>
<text text-anchor="start" x="987.55" y="-823.59" font-family="Helvetica,sans-Serif" font-style="italic" font-size="32.00" fill="#29235c">jsonb</text>
<polygon fill="#e7e2dd" stroke="transparent" points="711.01,-742.39 711.01,-802.39 1075.01,-802.39 1075.01,-742.39 711.01,-742.39"/>
<polygon fill="none" stroke="#29235c" points="711.01,-742.39 711.01,-802.39 1075.01,-802.39 1075.01,-742.39 711.01,-742.39"/>
<text text-anchor="start" x="722.01" y="-762.59" font-family="Helvetica,sans-Serif" font-size="32.00" fill="#29235c">spk_id &#160;&#160;&#160;</text>
<text text-anchor="start" x="1030.23" y="-763.59" font-family="Helvetica,sans-Serif" font-style="italic" font-size="32.00" fill="#29235c">int</text>
<polygon fill="#e7e2dd" stroke="transparent" points="711.01,-682.39 711.01,-742.39 1075.01,-742.39 1075.01,-682.39 711.01,-682.39"/>
<polygon fill="none" stroke="#29235c" points="711.01,-682.39 711.01,-742.39 1075.01,-742.39 1075.01,-682.39 711.01,-682.39"/>
<text text-anchor="start" x="722.01" y="-702.59" font-family="Helvetica,sans-Serif" font-size="32.00" fill="#29235c">sop_id &#160;&#160;&#160;</text>
<text text-anchor="start" x="1030.23" y="-703.59" font-family="Helvetica,sans-Serif" font-style="italic" font-size="32.00" fill="#29235c">int</text>
<polygon fill="#e7e2dd" stroke="transparent" points="711.01,-622.39 711.01,-682.39 1075.01,-682.39 1075.01,-622.39 711.01,-622.39"/>
<polygon fill="none" stroke="#29235c" points="711.01,-622.39 711.01,-682.39 1075.01,-682.39 1075.01,-622.39 711.01,-622.39"/>
<text text-anchor="start" x="722.01" y="-642.59" font-family="Helvetica,sans-Serif" font-size="32.00" fill="#29235c">position_id &#160;&#160;&#160;</text>
<text text-anchor="start" x="1030.23" y="-643.59" font-family="Helvetica,sans-Serif" font-style="italic" font-size="32.00" fill="#29235c">int</text>
<polygon fill="#e7e2dd" stroke="transparent" points="711.01,-562.39 711.01,-622.39 1075.01,-622.39 1075.01,-562.39 711.01,-562.39"/>
<polygon fill="none" stroke="#29235c" points="711.01,-562.39 711.01,-622.39 1075.01,-622.39 1075.01,-562.39 711.01,-562.39"/>
<text text-anchor="start" x="722.01" y="-582.59" font-family="Helvetica,sans-Serif" font-size="32.00" fill="#29235c">index &#160;&#160;&#160;</text>
<text text-anchor="start" x="1030.23" y="-583.59" font-family="Helvetica,sans-Serif" font-style="italic" font-size="32.00" fill="#29235c">int</text>
<polygon fill="#e7e2dd" stroke="transparent" points="711.01,-502.39 711.01,-562.39 1075.01,-562.39 1075.01,-502.39 711.01,-502.39"/>
<polygon fill="none" stroke="#29235c" points="711.01,-502.39 711.01,-562.39 1075.01,-562.39 1075.01,-502.39 711.01,-502.39"/>
<text text-anchor="start" x="722.01" y="-522.59" font-family="Helvetica,sans-Serif" font-size="32.00" fill="#29235c">created_at &#160;&#160;&#160;</text>
<text text-anchor="start" x="916.46" y="-523.59" font-family="Helvetica,sans-Serif" font-style="italic" font-size="32.00" fill="#29235c">timestamp</text>
<polygon fill="#e7e2dd" stroke="transparent" points="711.01,-442.39 711.01,-502.39 1075.01,-502.39 1075.01,-442.39 711.01,-442.39"/>
<polygon fill="none" stroke="#29235c" points="711.01,-442.39 711.01,-502.39 1075.01,-502.39 1075.01,-442.39 711.01,-442.39"/>
<text text-anchor="start" x="721.68" y="-462.59" font-family="Helvetica,sans-Serif" font-size="32.00" fill="#29235c">updated_at &#160;&#160;&#160;</text>
<text text-anchor="start" x="916.73" y="-463.59" font-family="Helvetica,sans-Serif" font-style="italic" font-size="32.00" fill="#29235c">timestamp</text>
<polygon fill="none" stroke="#29235c" stroke-width="2" points="710.01,-441.39 710.01,-1043.39 1076.01,-1043.39 1076.01,-441.39 710.01,-441.39"/>
</g>
<!-- spk_jobs&#45;&gt;positions -->
<!-- spk_jobs&#45;&gt;positions -->
<g id="edge8" class="edge">
<title>spk_jobs:e&#45;&gt;positions:w</title>
<path fill="none" stroke="#29235c" stroke-width="3" d="M1076.01,-652.39C1232.23,-652.39 1112.29,-360.93 1256.11,-347.84"/>
<polygon fill="#29235c" stroke="#29235c" stroke-width="3" points="1256.61,-351.32 1266.44,-347.39 1256.3,-344.33 1256.61,-351.32"/>
<text text-anchor="middle" x="1257.55" y="-318.59" font-family="Helvetica,sans-Serif" font-size="32.00" fill="#29235c">1</text>
<text text-anchor="middle" x="1069.79" y="-623.59" font-family="Helvetica,sans-Serif" font-size="32.00" fill="#29235c">*</text>
</g>
<!-- spk_jobs&#45;&gt;sops -->
<!-- spk_jobs&#45;&gt;sops -->
<g id="edge6" class="edge">
<title>spk_jobs:e&#45;&gt;sops:w</title>
<path fill="none" stroke="#29235c" stroke-width="3" d="M1076.01,-712.39C1208.59,-712.39 1134.45,-939.9 1256.12,-951.9"/>
<polygon fill="#29235c" stroke="#29235c" stroke-width="3" points="1256.29,-955.41 1266.44,-952.39 1256.62,-948.41 1256.29,-955.41"/>
<text text-anchor="middle" x="1257.55" y="-961.99" font-family="Helvetica,sans-Serif" font-size="32.00" fill="#29235c">1</text>
<text text-anchor="middle" x="1069.79" y="-721.99" font-family="Helvetica,sans-Serif" font-size="32.00" fill="#29235c">*</text>
</g>
<!-- spk_jobs&#45;&gt;spks -->
<!-- spk_jobs&#45;&gt;spks -->
<g id="edge4" class="edge">
<title>spk_jobs:e&#45;&gt;spks:w</title>
<path fill="none" stroke="#29235c" stroke-width="3" d="M1076.01,-772.39C1254.77,-772.39 1090.8,-1539.52 1256.16,-1569.49"/>
<polygon fill="#29235c" stroke="#29235c" stroke-width="3" points="1256.18,-1573 1266.44,-1570.39 1256.79,-1566.03 1256.18,-1573"/>
<text text-anchor="middle" x="1257.55" y="-1579.99" font-family="Helvetica,sans-Serif" font-size="32.00" fill="#29235c">1</text>
<text text-anchor="middle" x="1069.79" y="-781.99" font-family="Helvetica,sans-Serif" font-size="32.00" fill="#29235c">*</text>
</g>
<!-- spk_job_flowcharts -->
<g id="spk_job_flowcharts" class="node">
<title>spk_job_flowcharts</title>
<ellipse fill="none" stroke="black" stroke-width="0" cx="298.4" cy="-982.39" rx="298.3" ry="87.86"/>
<polygon fill="#1d71b8" stroke="transparent" points="89.4,-982.39 89.4,-1042.39 507.4,-1042.39 507.4,-982.39 89.4,-982.39"/>
<polygon fill="none" stroke="#29235c" points="89.4,-982.39 89.4,-1042.39 507.4,-1042.39 507.4,-982.39 89.4,-982.39"/>
<text text-anchor="start" x="100.12" y="-1003.59" font-family="Helvetica,sans-Serif" font-weight="bold" font-size="32.00" fill="#ffffff"> &#160;&#160;&#160;&#160;&#160;&#160;spk_job_flowcharts &#160;&#160;&#160;&#160;&#160;&#160;</text>
<polygon fill="#e7e2dd" stroke="transparent" points="89.4,-922.39 89.4,-982.39 507.4,-982.39 507.4,-922.39 89.4,-922.39"/>
<polygon fill="none" stroke="#29235c" points="89.4,-922.39 89.4,-982.39 507.4,-982.39 507.4,-922.39 89.4,-922.39"/>
<text text-anchor="start" x="100.4" y="-942.59" font-family="Helvetica,sans-Serif" font-size="32.00" fill="#29235c">spk_job_id &#160;&#160;&#160;</text>
<text text-anchor="start" x="423.53" y="-943.59" font-family="Helvetica,sans-Serif" font-style="italic" font-size="32.00" fill="#29235c">int</text>
<text text-anchor="start" x="457.31" y="-943.59" font-family="Helvetica,sans-Serif" font-size="32.00" fill="#29235c"> </text>
<text text-anchor="start" x="466.2" y="-943.59" font-family="Helvetica,sans-Serif" font-weight="bold" font-size="32.00" fill="#29235c">(!)</text>
<polygon fill="none" stroke="#29235c" stroke-width="2" points="88.4,-921.39 88.4,-1043.39 508.4,-1043.39 508.4,-921.39 88.4,-921.39"/>
</g>
<!-- spk_job_flowcharts&#45;&gt;spk_jobs -->
<!-- spk_job_flowcharts&#45;&gt;spk_jobs -->
<g id="edge10" class="edge">
<title>spk_job_flowcharts:e&#45;&gt;spk_jobs:w</title>
<path fill="none" stroke="#29235c" stroke-width="3" d="M508.4,-952.39C594.51,-952.39 618.55,-952.39 699.81,-952.39"/>
<polygon fill="#29235c" stroke="#29235c" stroke-width="3" points="700.01,-955.89 710.01,-952.39 700.01,-948.89 700.01,-955.89"/>
<text text-anchor="middle" x="701.12" y="-961.99" font-family="Helvetica,sans-Serif" font-size="32.00" fill="#29235c">1</text>
<text text-anchor="middle" x="514.62" y="-961.99" font-family="Helvetica,sans-Serif" font-size="32.00" fill="#29235c">*</text>
</g>
</g>
</svg>
