<?xml version="1.0" encoding="UTF-8" standalone="no"?>
<!DOCTYPE svg PUBLIC "-//W3C//DTD SVG 1.1//EN"
 "http://www.w3.org/Graphics/SVG/1.1/DTD/svg11.dtd">
<!-- Generated by graphviz version 2.47.0 (20210316.0004)
 -->
<!-- Title: dbml Pages: 1 -->
<svg width="1641pt" height="1758pt"
 viewBox="0.00 0.00 1641.29 1758.20" xmlns="http://www.w3.org/2000/svg" xmlns:xlink="http://www.w3.org/1999/xlink">
<g id="graph0" class="graph" transform="scale(1 1) rotate(0) translate(4 1754.2)">
<title>dbml</title>
<!-- departments -->
<g id="departments" class="node">
<title>departments</title>
<ellipse fill="none" stroke="black" stroke-width="0" cx="1373.08" cy="-287.39" rx="260.43" ry="214.92"/>
<polygon fill="#1d71b8" stroke="transparent" points="1191.08,-377.39 1191.08,-437.39 1555.08,-437.39 1555.08,-377.39 1191.08,-377.39"/>
<polygon fill="none" stroke="#29235c" points="1191.08,-377.39 1191.08,-437.39 1555.08,-437.39 1555.08,-377.39 1191.08,-377.39"/>
<text text-anchor="start" x="1221.91" y="-398.59" font-family="Helvetica,sans-Serif" font-weight="bold" font-size="32.00" fill="#ffffff"> &#160;&#160;&#160;&#160;&#160;&#160;departments &#160;&#160;&#160;&#160;&#160;&#160;</text>
<polygon fill="#e7e2dd" stroke="transparent" points="1191.08,-317.39 1191.08,-377.39 1555.08,-377.39 1555.08,-317.39 1191.08,-317.39"/>
<polygon fill="none" stroke="#29235c" points="1191.08,-317.39 1191.08,-377.39 1555.08,-377.39 1555.08,-317.39 1191.08,-317.39"/>
<text text-anchor="start" x="1202.08" y="-338.59" font-family="Helvetica,sans-Serif" font-weight="bold" font-size="32.00" fill="#29235c">id</text>
<text text-anchor="start" x="1226.97" y="-338.59" font-family="Helvetica,sans-Serif" font-size="32.00" fill="#29235c"> &#160;&#160;&#160;</text>
<text text-anchor="start" x="1510.29" y="-338.59" font-family="Helvetica,sans-Serif" font-style="italic" font-size="32.00" fill="#29235c">int</text>
<polygon fill="#e7e2dd" stroke="transparent" points="1191.08,-257.39 1191.08,-317.39 1555.08,-317.39 1555.08,-257.39 1191.08,-257.39"/>
<polygon fill="none" stroke="#29235c" points="1191.08,-257.39 1191.08,-317.39 1555.08,-317.39 1555.08,-257.39 1191.08,-257.39"/>
<text text-anchor="start" x="1202.08" y="-277.59" font-family="Helvetica,sans-Serif" font-size="32.00" fill="#29235c">name &#160;&#160;&#160;</text>
<text text-anchor="start" x="1398.31" y="-278.59" font-family="Helvetica,sans-Serif" font-style="italic" font-size="32.00" fill="#29235c">varchar</text>
<text text-anchor="start" x="1504.99" y="-278.59" font-family="Helvetica,sans-Serif" font-size="32.00" fill="#29235c"> </text>
<text text-anchor="start" x="1513.88" y="-278.59" font-family="Helvetica,sans-Serif" font-weight="bold" font-size="32.00" fill="#29235c">(!)</text>
<polygon fill="#e7e2dd" stroke="transparent" points="1191.08,-197.39 1191.08,-257.39 1555.08,-257.39 1555.08,-197.39 1191.08,-197.39"/>
<polygon fill="none" stroke="#29235c" points="1191.08,-197.39 1191.08,-257.39 1555.08,-257.39 1555.08,-197.39 1191.08,-197.39"/>
<text text-anchor="start" x="1202.08" y="-217.59" font-family="Helvetica,sans-Serif" font-size="32.00" fill="#29235c">created_at &#160;&#160;&#160;</text>
<text text-anchor="start" x="1396.52" y="-218.59" font-family="Helvetica,sans-Serif" font-style="italic" font-size="32.00" fill="#29235c">timestamp</text>
<polygon fill="#e7e2dd" stroke="transparent" points="1191.08,-137.39 1191.08,-197.39 1555.08,-197.39 1555.08,-137.39 1191.08,-137.39"/>
<polygon fill="none" stroke="#29235c" points="1191.08,-137.39 1191.08,-197.39 1555.08,-197.39 1555.08,-137.39 1191.08,-137.39"/>
<text text-anchor="start" x="1201.74" y="-157.59" font-family="Helvetica,sans-Serif" font-size="32.00" fill="#29235c">updated_at &#160;&#160;&#160;</text>
<text text-anchor="start" x="1396.8" y="-158.59" font-family="Helvetica,sans-Serif" font-style="italic" font-size="32.00" fill="#29235c">timestamp</text>
<polygon fill="none" stroke="#29235c" stroke-width="2" points="1190.08,-136.39 1190.08,-438.39 1556.08,-438.39 1556.08,-136.39 1190.08,-136.39"/>
</g>
<!-- positions -->
<g id="positions" class="node">
<title>positions</title>
<ellipse fill="none" stroke="black" stroke-width="0" cx="816.65" cy="-257.39" rx="260.43" ry="257.27"/>
<polygon fill="#1d71b8" stroke="transparent" points="634.65,-377.39 634.65,-437.39 998.65,-437.39 998.65,-377.39 634.65,-377.39"/>
<polygon fill="none" stroke="#29235c" points="634.65,-377.39 634.65,-437.39 998.65,-437.39 998.65,-377.39 634.65,-377.39"/>
<text text-anchor="start" x="691.27" y="-398.59" font-family="Helvetica,sans-Serif" font-weight="bold" font-size="32.00" fill="#ffffff"> &#160;&#160;&#160;&#160;&#160;&#160;positions &#160;&#160;&#160;&#160;&#160;&#160;</text>
<polygon fill="#e7e2dd" stroke="transparent" points="634.65,-317.39 634.65,-377.39 998.65,-377.39 998.65,-317.39 634.65,-317.39"/>
<polygon fill="none" stroke="#29235c" points="634.65,-317.39 634.65,-377.39 998.65,-377.39 998.65,-317.39 634.65,-317.39"/>
<text text-anchor="start" x="645.65" y="-338.59" font-family="Helvetica,sans-Serif" font-weight="bold" font-size="32.00" fill="#29235c">id</text>
<text text-anchor="start" x="670.54" y="-338.59" font-family="Helvetica,sans-Serif" font-size="32.00" fill="#29235c"> &#160;&#160;&#160;</text>
<text text-anchor="start" x="953.86" y="-338.59" font-family="Helvetica,sans-Serif" font-style="italic" font-size="32.00" fill="#29235c">int</text>
<polygon fill="#e7e2dd" stroke="transparent" points="634.65,-257.39 634.65,-317.39 998.65,-317.39 998.65,-257.39 634.65,-257.39"/>
<polygon fill="none" stroke="#29235c" points="634.65,-257.39 634.65,-317.39 998.65,-317.39 998.65,-257.39 634.65,-257.39"/>
<text text-anchor="start" x="645.65" y="-277.59" font-family="Helvetica,sans-Serif" font-size="32.00" fill="#29235c">name &#160;&#160;&#160;</text>
<text text-anchor="start" x="841.88" y="-278.59" font-family="Helvetica,sans-Serif" font-style="italic" font-size="32.00" fill="#29235c">varchar</text>
<text text-anchor="start" x="948.55" y="-278.59" font-family="Helvetica,sans-Serif" font-size="32.00" fill="#29235c"> </text>
<text text-anchor="start" x="957.45" y="-278.59" font-family="Helvetica,sans-Serif" font-weight="bold" font-size="32.00" fill="#29235c">(!)</text>
<polygon fill="#e7e2dd" stroke="transparent" points="634.65,-197.39 634.65,-257.39 998.65,-257.39 998.65,-197.39 634.65,-197.39"/>
<polygon fill="none" stroke="#29235c" points="634.65,-197.39 634.65,-257.39 998.65,-257.39 998.65,-197.39 634.65,-197.39"/>
<text text-anchor="start" x="645.65" y="-217.59" font-family="Helvetica,sans-Serif" font-size="32.00" fill="#29235c">department_id &#160;&#160;&#160;</text>
<text text-anchor="start" x="953.86" y="-218.59" font-family="Helvetica,sans-Serif" font-style="italic" font-size="32.00" fill="#29235c">int</text>
<polygon fill="#e7e2dd" stroke="transparent" points="634.65,-137.39 634.65,-197.39 998.65,-197.39 998.65,-137.39 634.65,-137.39"/>
<polygon fill="none" stroke="#29235c" points="634.65,-137.39 634.65,-197.39 998.65,-197.39 998.65,-137.39 634.65,-137.39"/>
<text text-anchor="start" x="645.65" y="-157.59" font-family="Helvetica,sans-Serif" font-size="32.00" fill="#29235c">created_at &#160;&#160;&#160;</text>
<text text-anchor="start" x="840.09" y="-158.59" font-family="Helvetica,sans-Serif" font-style="italic" font-size="32.00" fill="#29235c">timestamp</text>
<polygon fill="#e7e2dd" stroke="transparent" points="634.65,-77.39 634.65,-137.39 998.65,-137.39 998.65,-77.39 634.65,-77.39"/>
<polygon fill="none" stroke="#29235c" points="634.65,-77.39 634.65,-137.39 998.65,-137.39 998.65,-77.39 634.65,-77.39"/>
<text text-anchor="start" x="645.31" y="-97.59" font-family="Helvetica,sans-Serif" font-size="32.00" fill="#29235c">updated_at &#160;&#160;&#160;</text>
<text text-anchor="start" x="840.37" y="-98.59" font-family="Helvetica,sans-Serif" font-style="italic" font-size="32.00" fill="#29235c">timestamp</text>
<polygon fill="none" stroke="#29235c" stroke-width="2" points="633.65,-76.39 633.65,-438.39 999.65,-438.39 999.65,-76.39 633.65,-76.39"/>
</g>
<!-- positions&#45;&gt;departments -->
<!-- positions&#45;&gt;departments -->
<g id="edge2" class="edge">
<title>positions:e&#45;&gt;departments:w</title>
<path fill="none" stroke="#29235c" stroke-width="3" d="M999.65,-227.39C1096.17,-227.39 1090.58,-339.1 1179.92,-346.95"/>
<polygon fill="#29235c" stroke="#29235c" stroke-width="3" points="1179.94,-350.46 1190.08,-347.39 1180.24,-343.46 1179.94,-350.46"/>
<text text-anchor="middle" x="1181.18" y="-318.59" font-family="Helvetica,sans-Serif" font-size="32.00" fill="#29235c">1</text>
<text text-anchor="middle" x="1005.87" y="-198.59" font-family="Helvetica,sans-Serif" font-size="32.00" fill="#29235c">*</text>
</g>
<!-- sops -->
<g id="sops" class="node">
<title>sops</title>
<ellipse fill="none" stroke="black" stroke-width="0" cx="816.65" cy="-832.39" rx="260.43" ry="299.63"/>
<polygon fill="#1d71b8" stroke="transparent" points="634.65,-982.39 634.65,-1042.39 998.65,-1042.39 998.65,-982.39 634.65,-982.39"/>
<polygon fill="none" stroke="#29235c" points="634.65,-982.39 634.65,-1042.39 998.65,-1042.39 998.65,-982.39 634.65,-982.39"/>
<text text-anchor="start" x="720.61" y="-1003.59" font-family="Helvetica,sans-Serif" font-weight="bold" font-size="32.00" fill="#ffffff"> &#160;&#160;&#160;&#160;&#160;&#160;sops &#160;&#160;&#160;&#160;&#160;&#160;</text>
<polygon fill="#e7e2dd" stroke="transparent" points="634.65,-922.39 634.65,-982.39 998.65,-982.39 998.65,-922.39 634.65,-922.39"/>
<polygon fill="none" stroke="#29235c" points="634.65,-922.39 634.65,-982.39 998.65,-982.39 998.65,-922.39 634.65,-922.39"/>
<text text-anchor="start" x="645.65" y="-943.59" font-family="Helvetica,sans-Serif" font-weight="bold" font-size="32.00" fill="#29235c">id</text>
<text text-anchor="start" x="670.54" y="-943.59" font-family="Helvetica,sans-Serif" font-size="32.00" fill="#29235c"> &#160;&#160;&#160;</text>
<text text-anchor="start" x="953.86" y="-943.59" font-family="Helvetica,sans-Serif" font-style="italic" font-size="32.00" fill="#29235c">int</text>
<polygon fill="#e7e2dd" stroke="transparent" points="634.65,-862.39 634.65,-922.39 998.65,-922.39 998.65,-862.39 634.65,-862.39"/>
<polygon fill="none" stroke="#29235c" points="634.65,-862.39 634.65,-922.39 998.65,-922.39 998.65,-862.39 634.65,-862.39"/>
<text text-anchor="start" x="645.65" y="-882.59" font-family="Helvetica,sans-Serif" font-size="32.00" fill="#29235c">title &#160;&#160;&#160;</text>
<text text-anchor="start" x="841.88" y="-883.59" font-family="Helvetica,sans-Serif" font-style="italic" font-size="32.00" fill="#29235c">varchar</text>
<text text-anchor="start" x="948.55" y="-883.59" font-family="Helvetica,sans-Serif" font-size="32.00" fill="#29235c"> </text>
<text text-anchor="start" x="957.45" y="-883.59" font-family="Helvetica,sans-Serif" font-weight="bold" font-size="32.00" fill="#29235c">(!)</text>
<polygon fill="#e7e2dd" stroke="transparent" points="634.65,-802.39 634.65,-862.39 998.65,-862.39 998.65,-802.39 634.65,-802.39"/>
<polygon fill="none" stroke="#29235c" points="634.65,-802.39 634.65,-862.39 998.65,-862.39 998.65,-802.39 634.65,-802.39"/>
<text text-anchor="start" x="645.65" y="-822.59" font-family="Helvetica,sans-Serif" font-size="32.00" fill="#29235c">code &#160;&#160;&#160;</text>
<text text-anchor="start" x="880.97" y="-823.59" font-family="Helvetica,sans-Serif" font-style="italic" font-size="32.00" fill="#29235c">varchar</text>
<polygon fill="#e7e2dd" stroke="transparent" points="634.65,-742.39 634.65,-802.39 998.65,-802.39 998.65,-742.39 634.65,-742.39"/>
<polygon fill="none" stroke="#29235c" points="634.65,-742.39 634.65,-802.39 998.65,-802.39 998.65,-742.39 634.65,-742.39"/>
<text text-anchor="start" x="645.65" y="-762.59" font-family="Helvetica,sans-Serif" font-size="32.00" fill="#29235c">content &#160;&#160;&#160;</text>
<text text-anchor="start" x="911.18" y="-763.59" font-family="Helvetica,sans-Serif" font-style="italic" font-size="32.00" fill="#29235c">jsonb</text>
<polygon fill="#e7e2dd" stroke="transparent" points="634.65,-682.39 634.65,-742.39 998.65,-742.39 998.65,-682.39 634.65,-682.39"/>
<polygon fill="none" stroke="#29235c" points="634.65,-682.39 634.65,-742.39 998.65,-742.39 998.65,-682.39 634.65,-682.39"/>
<text text-anchor="start" x="645.65" y="-702.59" font-family="Helvetica,sans-Serif" font-size="32.00" fill="#29235c">created_at &#160;&#160;&#160;</text>
<text text-anchor="start" x="840.09" y="-703.59" font-family="Helvetica,sans-Serif" font-style="italic" font-size="32.00" fill="#29235c">timestamp</text>
<polygon fill="#e7e2dd" stroke="transparent" points="634.65,-622.39 634.65,-682.39 998.65,-682.39 998.65,-622.39 634.65,-622.39"/>
<polygon fill="none" stroke="#29235c" points="634.65,-622.39 634.65,-682.39 998.65,-682.39 998.65,-622.39 634.65,-622.39"/>
<text text-anchor="start" x="645.31" y="-642.59" font-family="Helvetica,sans-Serif" font-size="32.00" fill="#29235c">updated_at &#160;&#160;&#160;</text>
<text text-anchor="start" x="840.37" y="-643.59" font-family="Helvetica,sans-Serif" font-style="italic" font-size="32.00" fill="#29235c">timestamp</text>
<polygon fill="none" stroke="#29235c" stroke-width="2" points="633.65,-621.39 633.65,-1043.39 999.65,-1043.39 999.65,-621.39 633.65,-621.39"/>
</g>
<!-- spks -->
<g id="spks" class="node">
<title>spks</title>
<ellipse fill="none" stroke="black" stroke-width="0" cx="816.65" cy="-1450.39" rx="260.43" ry="299.63"/>
<polygon fill="#1d71b8" stroke="transparent" points="634.65,-1600.39 634.65,-1660.39 998.65,-1660.39 998.65,-1600.39 634.65,-1600.39"/>
<polygon fill="none" stroke="#29235c" points="634.65,-1600.39 634.65,-1660.39 998.65,-1660.39 998.65,-1600.39 634.65,-1600.39"/>
<text text-anchor="start" x="721.5" y="-1621.59" font-family="Helvetica,sans-Serif" font-weight="bold" font-size="32.00" fill="#ffffff"> &#160;&#160;&#160;&#160;&#160;&#160;spks &#160;&#160;&#160;&#160;&#160;&#160;</text>
<polygon fill="#e7e2dd" stroke="transparent" points="634.65,-1540.39 634.65,-1600.39 998.65,-1600.39 998.65,-1540.39 634.65,-1540.39"/>
<polygon fill="none" stroke="#29235c" points="634.65,-1540.39 634.65,-1600.39 998.65,-1600.39 998.65,-1540.39 634.65,-1540.39"/>
<text text-anchor="start" x="645.65" y="-1561.59" font-family="Helvetica,sans-Serif" font-weight="bold" font-size="32.00" fill="#29235c">id</text>
<text text-anchor="start" x="670.54" y="-1561.59" font-family="Helvetica,sans-Serif" font-size="32.00" fill="#29235c"> &#160;&#160;&#160;</text>
<text text-anchor="start" x="953.86" y="-1561.59" font-family="Helvetica,sans-Serif" font-style="italic" font-size="32.00" fill="#29235c">int</text>
<polygon fill="#e7e2dd" stroke="transparent" points="634.65,-1480.39 634.65,-1540.39 998.65,-1540.39 998.65,-1480.39 634.65,-1480.39"/>
<polygon fill="none" stroke="#29235c" points="634.65,-1480.39 634.65,-1540.39 998.65,-1540.39 998.65,-1480.39 634.65,-1480.39"/>
<text text-anchor="start" x="645.65" y="-1500.59" font-family="Helvetica,sans-Serif" font-size="32.00" fill="#29235c">title &#160;&#160;&#160;</text>
<text text-anchor="start" x="841.88" y="-1501.59" font-family="Helvetica,sans-Serif" font-style="italic" font-size="32.00" fill="#29235c">varchar</text>
<text text-anchor="start" x="948.55" y="-1501.59" font-family="Helvetica,sans-Serif" font-size="32.00" fill="#29235c"> </text>
<text text-anchor="start" x="957.45" y="-1501.59" font-family="Helvetica,sans-Serif" font-weight="bold" font-size="32.00" fill="#29235c">(!)</text>
<polygon fill="#e7e2dd" stroke="transparent" points="634.65,-1420.39 634.65,-1480.39 998.65,-1480.39 998.65,-1420.39 634.65,-1420.39"/>
<polygon fill="none" stroke="#29235c" points="634.65,-1420.39 634.65,-1480.39 998.65,-1480.39 998.65,-1420.39 634.65,-1420.39"/>
<text text-anchor="start" x="645.65" y="-1440.59" font-family="Helvetica,sans-Serif" font-size="32.00" fill="#29235c">code &#160;&#160;&#160;</text>
<text text-anchor="start" x="880.97" y="-1441.59" font-family="Helvetica,sans-Serif" font-style="italic" font-size="32.00" fill="#29235c">varchar</text>
<polygon fill="#e7e2dd" stroke="transparent" points="634.65,-1360.39 634.65,-1420.39 998.65,-1420.39 998.65,-1360.39 634.65,-1360.39"/>
<polygon fill="none" stroke="#29235c" points="634.65,-1360.39 634.65,-1420.39 998.65,-1420.39 998.65,-1360.39 634.65,-1360.39"/>
<text text-anchor="start" x="645.65" y="-1380.59" font-family="Helvetica,sans-Serif" font-size="32.00" fill="#29235c">content &#160;&#160;&#160;</text>
<text text-anchor="start" x="911.18" y="-1381.59" font-family="Helvetica,sans-Serif" font-style="italic" font-size="32.00" fill="#29235c">jsonb</text>
<polygon fill="#e7e2dd" stroke="transparent" points="634.65,-1300.39 634.65,-1360.39 998.65,-1360.39 998.65,-1300.39 634.65,-1300.39"/>
<polygon fill="none" stroke="#29235c" points="634.65,-1300.39 634.65,-1360.39 998.65,-1360.39 998.65,-1300.39 634.65,-1300.39"/>
<text text-anchor="start" x="645.65" y="-1320.59" font-family="Helvetica,sans-Serif" font-size="32.00" fill="#29235c">created_at &#160;&#160;&#160;</text>
<text text-anchor="start" x="840.09" y="-1321.59" font-family="Helvetica,sans-Serif" font-style="italic" font-size="32.00" fill="#29235c">timestamp</text>
<polygon fill="#e7e2dd" stroke="transparent" points="634.65,-1240.39 634.65,-1300.39 998.65,-1300.39 998.65,-1240.39 634.65,-1240.39"/>
<polygon fill="none" stroke="#29235c" points="634.65,-1240.39 634.65,-1300.39 998.65,-1300.39 998.65,-1240.39 634.65,-1240.39"/>
<text text-anchor="start" x="645.31" y="-1260.59" font-family="Helvetica,sans-Serif" font-size="32.00" fill="#29235c">updated_at &#160;&#160;&#160;</text>
<text text-anchor="start" x="840.37" y="-1261.59" font-family="Helvetica,sans-Serif" font-style="italic" font-size="32.00" fill="#29235c">timestamp</text>
<polygon fill="none" stroke="#29235c" stroke-width="2" points="633.65,-1239.39 633.65,-1661.39 999.65,-1661.39 999.65,-1239.39 633.65,-1239.39"/>
</g>
<!-- spk_job -->
<g id="spk_job" class="node">
<title>spk_job</title>
<ellipse fill="none" stroke="black" stroke-width="0" cx="260.22" cy="-742.39" rx="260.43" ry="427.19"/>
<polygon fill="#1d71b8" stroke="transparent" points="78.22,-982.39 78.22,-1042.39 442.22,-1042.39 442.22,-982.39 78.22,-982.39"/>
<polygon fill="none" stroke="#29235c" points="78.22,-982.39 78.22,-1042.39 442.22,-1042.39 442.22,-982.39 78.22,-982.39"/>
<text text-anchor="start" x="142.84" y="-1003.59" font-family="Helvetica,sans-Serif" font-weight="bold" font-size="32.00" fill="#ffffff"> &#160;&#160;&#160;&#160;&#160;&#160;spk_job &#160;&#160;&#160;&#160;&#160;&#160;</text>
<polygon fill="#e7e2dd" stroke="transparent" points="78.22,-922.39 78.22,-982.39 442.22,-982.39 442.22,-922.39 78.22,-922.39"/>
<polygon fill="none" stroke="#29235c" points="78.22,-922.39 78.22,-982.39 442.22,-982.39 442.22,-922.39 78.22,-922.39"/>
<text text-anchor="start" x="89.22" y="-943.59" font-family="Helvetica,sans-Serif" font-weight="bold" font-size="32.00" fill="#29235c">id</text>
<text text-anchor="start" x="114.1" y="-943.59" font-family="Helvetica,sans-Serif" font-size="32.00" fill="#29235c"> &#160;&#160;&#160;</text>
<text text-anchor="start" x="397.43" y="-943.59" font-family="Helvetica,sans-Serif" font-style="italic" font-size="32.00" fill="#29235c">int</text>
<polygon fill="#e7e2dd" stroke="transparent" points="78.22,-862.39 78.22,-922.39 442.22,-922.39 442.22,-862.39 78.22,-862.39"/>
<polygon fill="none" stroke="#29235c" points="78.22,-862.39 78.22,-922.39 442.22,-922.39 442.22,-862.39 78.22,-862.39"/>
<text text-anchor="start" x="89.22" y="-882.59" font-family="Helvetica,sans-Serif" font-size="32.00" fill="#29235c">name &#160;&#160;&#160;</text>
<text text-anchor="start" x="285.45" y="-883.59" font-family="Helvetica,sans-Serif" font-style="italic" font-size="32.00" fill="#29235c">varchar</text>
<text text-anchor="start" x="392.12" y="-883.59" font-family="Helvetica,sans-Serif" font-size="32.00" fill="#29235c"> </text>
<text text-anchor="start" x="401.02" y="-883.59" font-family="Helvetica,sans-Serif" font-weight="bold" font-size="32.00" fill="#29235c">(!)</text>
<polygon fill="#e7e2dd" stroke="transparent" points="78.22,-802.39 78.22,-862.39 442.22,-862.39 442.22,-802.39 78.22,-802.39"/>
<polygon fill="none" stroke="#29235c" points="78.22,-802.39 78.22,-862.39 442.22,-862.39 442.22,-802.39 78.22,-802.39"/>
<text text-anchor="start" x="89.22" y="-822.59" font-family="Helvetica,sans-Serif" font-size="32.00" fill="#29235c">description &#160;&#160;&#160;</text>
<text text-anchor="start" x="354.75" y="-823.59" font-family="Helvetica,sans-Serif" font-style="italic" font-size="32.00" fill="#29235c">jsonb</text>
<polygon fill="#e7e2dd" stroke="transparent" points="78.22,-742.39 78.22,-802.39 442.22,-802.39 442.22,-742.39 78.22,-742.39"/>
<polygon fill="none" stroke="#29235c" points="78.22,-742.39 78.22,-802.39 442.22,-802.39 442.22,-742.39 78.22,-742.39"/>
<text text-anchor="start" x="89.22" y="-762.59" font-family="Helvetica,sans-Serif" font-size="32.00" fill="#29235c">spk_id &#160;&#160;&#160;</text>
<text text-anchor="start" x="397.43" y="-763.59" font-family="Helvetica,sans-Serif" font-style="italic" font-size="32.00" fill="#29235c">int</text>
<polygon fill="#e7e2dd" stroke="transparent" points="78.22,-682.39 78.22,-742.39 442.22,-742.39 442.22,-682.39 78.22,-682.39"/>
<polygon fill="none" stroke="#29235c" points="78.22,-682.39 78.22,-742.39 442.22,-742.39 442.22,-682.39 78.22,-682.39"/>
<text text-anchor="start" x="89.22" y="-702.59" font-family="Helvetica,sans-Serif" font-size="32.00" fill="#29235c">sop_id &#160;&#160;&#160;</text>
<text text-anchor="start" x="397.43" y="-703.59" font-family="Helvetica,sans-Serif" font-style="italic" font-size="32.00" fill="#29235c">int</text>
<polygon fill="#e7e2dd" stroke="transparent" points="78.22,-622.39 78.22,-682.39 442.22,-682.39 442.22,-622.39 78.22,-622.39"/>
<polygon fill="none" stroke="#29235c" points="78.22,-622.39 78.22,-682.39 442.22,-682.39 442.22,-622.39 78.22,-622.39"/>
<text text-anchor="start" x="89.22" y="-642.59" font-family="Helvetica,sans-Serif" font-size="32.00" fill="#29235c">position_id &#160;&#160;&#160;</text>
<text text-anchor="start" x="397.43" y="-643.59" font-family="Helvetica,sans-Serif" font-style="italic" font-size="32.00" fill="#29235c">int</text>
<polygon fill="#e7e2dd" stroke="transparent" points="78.22,-562.39 78.22,-622.39 442.22,-622.39 442.22,-562.39 78.22,-562.39"/>
<polygon fill="none" stroke="#29235c" points="78.22,-562.39 78.22,-622.39 442.22,-622.39 442.22,-562.39 78.22,-562.39"/>
<text text-anchor="start" x="89.22" y="-582.59" font-family="Helvetica,sans-Serif" font-size="32.00" fill="#29235c">index &#160;&#160;&#160;</text>
<text text-anchor="start" x="397.43" y="-583.59" font-family="Helvetica,sans-Serif" font-style="italic" font-size="32.00" fill="#29235c">int</text>
<polygon fill="#e7e2dd" stroke="transparent" points="78.22,-502.39 78.22,-562.39 442.22,-562.39 442.22,-502.39 78.22,-502.39"/>
<polygon fill="none" stroke="#29235c" points="78.22,-502.39 78.22,-562.39 442.22,-562.39 442.22,-502.39 78.22,-502.39"/>
<text text-anchor="start" x="89.22" y="-522.59" font-family="Helvetica,sans-Serif" font-size="32.00" fill="#29235c">created_at &#160;&#160;&#160;</text>
<text text-anchor="start" x="283.66" y="-523.59" font-family="Helvetica,sans-Serif" font-style="italic" font-size="32.00" fill="#29235c">timestamp</text>
<polygon fill="#e7e2dd" stroke="transparent" points="78.22,-442.39 78.22,-502.39 442.22,-502.39 442.22,-442.39 78.22,-442.39"/>
<polygon fill="none" stroke="#29235c" points="78.22,-442.39 78.22,-502.39 442.22,-502.39 442.22,-442.39 78.22,-442.39"/>
<text text-anchor="start" x="88.88" y="-462.59" font-family="Helvetica,sans-Serif" font-size="32.00" fill="#29235c">updated_at &#160;&#160;&#160;</text>
<text text-anchor="start" x="283.94" y="-463.59" font-family="Helvetica,sans-Serif" font-style="italic" font-size="32.00" fill="#29235c">timestamp</text>
<polygon fill="none" stroke="#29235c" stroke-width="2" points="77.22,-441.39 77.22,-1043.39 443.22,-1043.39 443.22,-441.39 77.22,-441.39"/>
</g>
<!-- spk_job&#45;&gt;positions -->
<!-- spk_job&#45;&gt;positions -->
<g id="edge8" class="edge">
<title>spk_job:e&#45;&gt;positions:w</title>
<path fill="none" stroke="#29235c" stroke-width="3" d="M443.22,-652.39C599.43,-652.39 479.5,-360.93 623.31,-347.84"/>
<polygon fill="#29235c" stroke="#29235c" stroke-width="3" points="623.81,-351.32 633.65,-347.39 623.5,-344.33 623.81,-351.32"/>
<text text-anchor="middle" x="624.75" y="-318.59" font-family="Helvetica,sans-Serif" font-size="32.00" fill="#29235c">1</text>
<text text-anchor="middle" x="436.99" y="-623.59" font-family="Helvetica,sans-Serif" font-size="32.00" fill="#29235c">*</text>
</g>
<!-- spk_job&#45;&gt;sops -->
<!-- spk_job&#45;&gt;sops -->
<g id="edge6" class="edge">
<title>spk_job:e&#45;&gt;sops:w</title>
<path fill="none" stroke="#29235c" stroke-width="3" d="M443.22,-712.39C575.79,-712.39 501.65,-939.9 623.32,-951.9"/>
<polygon fill="#29235c" stroke="#29235c" stroke-width="3" points="623.49,-955.41 633.65,-952.39 623.82,-948.41 623.49,-955.41"/>
<text text-anchor="middle" x="624.75" y="-961.99" font-family="Helvetica,sans-Serif" font-size="32.00" fill="#29235c">1</text>
<text text-anchor="middle" x="436.99" y="-683.59" font-family="Helvetica,sans-Serif" font-size="32.00" fill="#29235c">*</text>
</g>
<!-- spk_job&#45;&gt;spks -->
<!-- spk_job&#45;&gt;spks -->
<g id="edge4" class="edge">
<title>spk_job:e&#45;&gt;spks:w</title>
<path fill="none" stroke="#29235c" stroke-width="3" d="M443.22,-772.39C621.97,-772.39 458,-1539.52 623.37,-1569.49"/>
<polygon fill="#29235c" stroke="#29235c" stroke-width="3" points="623.38,-1573 633.65,-1570.39 623.99,-1566.03 623.38,-1573"/>
<text text-anchor="middle" x="624.75" y="-1579.99" font-family="Helvetica,sans-Serif" font-size="32.00" fill="#29235c">1</text>
<text text-anchor="middle" x="436.99" y="-743.59" font-family="Helvetica,sans-Serif" font-size="32.00" fill="#29235c">*</text>
</g>
</g>
</svg>
