<?xml version="1.0" encoding="UTF-8" standalone="no"?>
<!DOCTYPE svg PUBLIC "-//W3C//DTD SVG 1.1//EN"
 "http://www.w3.org/Graphics/SVG/1.1/DTD/svg11.dtd">
<!-- Generated by graphviz version 2.47.0 (20210316.0004)
 -->
<!-- Title: dbml Pages: 1 -->
<svg width="1051pt" height="641pt"
 viewBox="0.00 0.00 1050.92 641.49" xmlns="http://www.w3.org/2000/svg" xmlns:xlink="http://www.w3.org/1999/xlink">
<g id="graph0" class="graph" transform="scale(1 1) rotate(0) translate(4 637.49)">
<title>dbml</title>
<!-- spks -->
<g id="spks" class="node">
<title>spks</title>
<ellipse fill="none" stroke="black" stroke-width="0" cx="782.7" cy="-299.81" rx="260.43" ry="299.63"/>
<polygon fill="#1d71b8" stroke="transparent" points="600.7,-449.81 600.7,-509.81 964.7,-509.81 964.7,-449.81 600.7,-449.81"/>
<polygon fill="none" stroke="#29235c" points="600.7,-449.81 600.7,-509.81 964.7,-509.81 964.7,-449.81 600.7,-449.81"/>
<text text-anchor="start" x="687.56" y="-471.01" font-family="Helvetica,sans-Serif" font-weight="bold" font-size="32.00" fill="#ffffff"> &#160;&#160;&#160;&#160;&#160;&#160;spks &#160;&#160;&#160;&#160;&#160;&#160;</text>
<polygon fill="#e7e2dd" stroke="transparent" points="600.7,-389.81 600.7,-449.81 964.7,-449.81 964.7,-389.81 600.7,-389.81"/>
<polygon fill="none" stroke="#29235c" points="600.7,-389.81 600.7,-449.81 964.7,-449.81 964.7,-389.81 600.7,-389.81"/>
<text text-anchor="start" x="611.7" y="-411.01" font-family="Helvetica,sans-Serif" font-weight="bold" font-size="32.00" fill="#29235c">id</text>
<text text-anchor="start" x="636.59" y="-411.01" font-family="Helvetica,sans-Serif" font-size="32.00" fill="#29235c"> &#160;&#160;&#160;</text>
<text text-anchor="start" x="919.92" y="-411.01" font-family="Helvetica,sans-Serif" font-style="italic" font-size="32.00" fill="#29235c">int</text>
<polygon fill="#e7e2dd" stroke="transparent" points="600.7,-329.81 600.7,-389.81 964.7,-389.81 964.7,-329.81 600.7,-329.81"/>
<polygon fill="none" stroke="#29235c" points="600.7,-329.81 600.7,-389.81 964.7,-389.81 964.7,-329.81 600.7,-329.81"/>
<text text-anchor="start" x="611.7" y="-350.01" font-family="Helvetica,sans-Serif" font-size="32.00" fill="#29235c">title &#160;&#160;&#160;</text>
<text text-anchor="start" x="807.94" y="-351.01" font-family="Helvetica,sans-Serif" font-style="italic" font-size="32.00" fill="#29235c">varchar</text>
<text text-anchor="start" x="914.61" y="-351.01" font-family="Helvetica,sans-Serif" font-size="32.00" fill="#29235c"> </text>
<text text-anchor="start" x="923.51" y="-351.01" font-family="Helvetica,sans-Serif" font-weight="bold" font-size="32.00" fill="#29235c">(!)</text>
<polygon fill="#e7e2dd" stroke="transparent" points="600.7,-269.81 600.7,-329.81 964.7,-329.81 964.7,-269.81 600.7,-269.81"/>
<polygon fill="none" stroke="#29235c" points="600.7,-269.81 600.7,-329.81 964.7,-329.81 964.7,-269.81 600.7,-269.81"/>
<text text-anchor="start" x="611.7" y="-290.01" font-family="Helvetica,sans-Serif" font-size="32.00" fill="#29235c">code &#160;&#160;&#160;</text>
<text text-anchor="start" x="847.03" y="-291.01" font-family="Helvetica,sans-Serif" font-style="italic" font-size="32.00" fill="#29235c">varchar</text>
<polygon fill="#e7e2dd" stroke="transparent" points="600.7,-209.81 600.7,-269.81 964.7,-269.81 964.7,-209.81 600.7,-209.81"/>
<polygon fill="none" stroke="#29235c" points="600.7,-209.81 600.7,-269.81 964.7,-269.81 964.7,-209.81 600.7,-209.81"/>
<text text-anchor="start" x="611.7" y="-230.01" font-family="Helvetica,sans-Serif" font-size="32.00" fill="#29235c">content &#160;&#160;&#160;</text>
<text text-anchor="start" x="877.24" y="-231.01" font-family="Helvetica,sans-Serif" font-style="italic" font-size="32.00" fill="#29235c">jsonb</text>
<polygon fill="#e7e2dd" stroke="transparent" points="600.7,-149.81 600.7,-209.81 964.7,-209.81 964.7,-149.81 600.7,-149.81"/>
<polygon fill="none" stroke="#29235c" points="600.7,-149.81 600.7,-209.81 964.7,-209.81 964.7,-149.81 600.7,-149.81"/>
<text text-anchor="start" x="611.7" y="-170.01" font-family="Helvetica,sans-Serif" font-size="32.00" fill="#29235c">created_at &#160;&#160;&#160;</text>
<text text-anchor="start" x="806.15" y="-171.01" font-family="Helvetica,sans-Serif" font-style="italic" font-size="32.00" fill="#29235c">timestamp</text>
<polygon fill="#e7e2dd" stroke="transparent" points="600.7,-89.81 600.7,-149.81 964.7,-149.81 964.7,-89.81 600.7,-89.81"/>
<polygon fill="none" stroke="#29235c" points="600.7,-89.81 600.7,-149.81 964.7,-149.81 964.7,-89.81 600.7,-89.81"/>
<text text-anchor="start" x="611.37" y="-110.01" font-family="Helvetica,sans-Serif" font-size="32.00" fill="#29235c">updated_at &#160;&#160;&#160;</text>
<text text-anchor="start" x="806.43" y="-111.01" font-family="Helvetica,sans-Serif" font-style="italic" font-size="32.00" fill="#29235c">timestamp</text>
<polygon fill="none" stroke="#29235c" stroke-width="2" points="599.7,-88.81 599.7,-510.81 965.7,-510.81 965.7,-88.81 599.7,-88.81"/>
</g>
<!-- spk_positions -->
<g id="spk_positions" class="node">
<title>spk_positions</title>
<ellipse fill="none" stroke="black" stroke-width="0" cx="243.24" cy="-545.81" rx="243.49" ry="87.86"/>
<polygon fill="#1d71b8" stroke="transparent" points="73.24,-545.81 73.24,-605.81 413.24,-605.81 413.24,-545.81 73.24,-545.81"/>
<polygon fill="none" stroke="#29235c" points="73.24,-545.81 73.24,-605.81 413.24,-605.81 413.24,-545.81 73.24,-545.81"/>
<text text-anchor="start" x="84.08" y="-567.01" font-family="Helvetica,sans-Serif" font-weight="bold" font-size="32.00" fill="#ffffff"> &#160;&#160;&#160;&#160;&#160;&#160;spk_positions &#160;&#160;&#160;&#160;&#160;&#160;</text>
<polygon fill="#e7e2dd" stroke="transparent" points="73.24,-485.81 73.24,-545.81 413.24,-545.81 413.24,-485.81 73.24,-485.81"/>
<polygon fill="none" stroke="#29235c" points="73.24,-485.81 73.24,-545.81 413.24,-545.81 413.24,-485.81 73.24,-485.81"/>
<text text-anchor="start" x="84.24" y="-506.01" font-family="Helvetica,sans-Serif" font-size="32.00" fill="#29235c">spk_id &#160;&#160;&#160;</text>
<text text-anchor="start" x="368.46" y="-507.01" font-family="Helvetica,sans-Serif" font-style="italic" font-size="32.00" fill="#29235c">int</text>
<polygon fill="none" stroke="#29235c" stroke-width="2" points="72.24,-484.81 72.24,-606.81 414.24,-606.81 414.24,-484.81 72.24,-484.81"/>
</g>
<!-- spk_positions&#45;&gt;spks -->
<!-- spk_positions&#45;&gt;spks -->
<g id="edge2" class="edge">
<title>spk_positions:e&#45;&gt;spks:w</title>
<path fill="none" stroke="#29235c" stroke-width="3" d="M414.24,-515.81C503.52,-515.81 506.77,-426.99 589.49,-420.22"/>
<polygon fill="#29235c" stroke="#29235c" stroke-width="3" points="589.85,-423.71 599.7,-419.81 589.57,-416.71 589.85,-423.71"/>
<text text-anchor="middle" x="608.6" y="-400.61" font-family="Helvetica,sans-Serif" font-size="32.00" fill="#29235c">1</text>
<text text-anchor="middle" x="420.47" y="-525.41" font-family="Helvetica,sans-Serif" font-size="32.00" fill="#29235c">*</text>
</g>
<!-- jobs -->
<g id="jobs" class="node">
<title>jobs</title>
<ellipse fill="none" stroke="black" stroke-width="0" cx="243.24" cy="-352.81" rx="147.57" ry="87.86"/>
<polygon fill="#1d71b8" stroke="transparent" points="141.24,-352.81 141.24,-412.81 346.24,-412.81 346.24,-352.81 141.24,-352.81"/>
<polygon fill="none" stroke="#29235c" points="141.24,-352.81 141.24,-412.81 346.24,-412.81 346.24,-352.81 141.24,-352.81"/>
<text text-anchor="start" x="152.16" y="-374.01" font-family="Helvetica,sans-Serif" font-weight="bold" font-size="32.00" fill="#ffffff"> &#160;&#160;&#160;&#160;&#160;&#160;jobs &#160;&#160;&#160;&#160;&#160;&#160;</text>
<polygon fill="#e7e2dd" stroke="transparent" points="141.24,-292.81 141.24,-352.81 346.24,-352.81 346.24,-292.81 141.24,-292.81"/>
<polygon fill="none" stroke="#29235c" points="141.24,-292.81 141.24,-352.81 346.24,-352.81 346.24,-292.81 141.24,-292.81"/>
<text text-anchor="start" x="152.24" y="-313.01" font-family="Helvetica,sans-Serif" font-size="32.00" fill="#29235c">spk_id &#160;&#160;&#160;</text>
<text text-anchor="start" x="301.46" y="-314.01" font-family="Helvetica,sans-Serif" font-style="italic" font-size="32.00" fill="#29235c">int</text>
<polygon fill="none" stroke="#29235c" stroke-width="2" points="139.74,-291.81 139.74,-413.81 346.74,-413.81 346.74,-291.81 139.74,-291.81"/>
</g>
<!-- jobs&#45;&gt;spks -->
<!-- jobs&#45;&gt;spks -->
<g id="edge4" class="edge">
<title>jobs:e&#45;&gt;spks:w</title>
<path fill="none" stroke="#29235c" stroke-width="3" d="M347.24,-322.81C463.92,-322.81 478.7,-414.21 589.41,-419.57"/>
<polygon fill="#29235c" stroke="#29235c" stroke-width="3" points="589.62,-423.07 599.7,-419.81 589.79,-416.08 589.62,-423.07"/>
<text text-anchor="middle" x="590.81" y="-391.01" font-family="Helvetica,sans-Serif" font-size="32.00" fill="#29235c">1</text>
<text text-anchor="middle" x="353.47" y="-294.01" font-family="Helvetica,sans-Serif" font-size="32.00" fill="#29235c">*</text>
</g>
</g>
</svg>
