<?xml version="1.0" encoding="UTF-8" standalone="no"?>
<!DOCTYPE svg PUBLIC "-//W3C//DTD SVG 1.1//EN"
 "http://www.w3.org/Graphics/SVG/1.1/DTD/svg11.dtd">
<!-- Generated by graphviz version 2.47.0 (20210316.0004)
 -->
<!-- Title: dbml Pages: 1 -->
<svg width="2178pt" height="862pt"
 viewBox="0.00 0.00 2177.92 862.18" xmlns="http://www.w3.org/2000/svg" xmlns:xlink="http://www.w3.org/1999/xlink">
<g id="graph0" class="graph" transform="scale(1 1) rotate(0) translate(4 858.18)">
<title>dbml</title>
<!-- projects -->
<g id="projects" class="node">
<title>projects</title>
<ellipse fill="none" stroke="black" stroke-width="0" cx="1909.71" cy="-547.09" rx="260.43" ry="257.27"/>
<polygon fill="#1d71b8" stroke="transparent" points="1727.71,-667.09 1727.71,-727.09 2091.71,-727.09 2091.71,-667.09 1727.71,-667.09"/>
<polygon fill="none" stroke="#29235c" points="1727.71,-667.09 1727.71,-727.09 2091.71,-727.09 2091.71,-667.09 1727.71,-667.09"/>
<text text-anchor="start" x="1791.45" y="-688.29" font-family="Helvetica,sans-Serif" font-weight="bold" font-size="32.00" fill="#ffffff"> &#160;&#160;&#160;&#160;&#160;&#160;projects &#160;&#160;&#160;&#160;&#160;&#160;</text>
<polygon fill="#e7e2dd" stroke="transparent" points="1727.71,-607.09 1727.71,-667.09 2091.71,-667.09 2091.71,-607.09 1727.71,-607.09"/>
<polygon fill="none" stroke="#29235c" points="1727.71,-607.09 1727.71,-667.09 2091.71,-667.09 2091.71,-607.09 1727.71,-607.09"/>
<text text-anchor="start" x="1738.71" y="-628.29" font-family="Helvetica,sans-Serif" font-weight="bold" font-size="32.00" fill="#29235c">id</text>
<text text-anchor="start" x="1763.6" y="-628.29" font-family="Helvetica,sans-Serif" font-size="32.00" fill="#29235c"> &#160;&#160;&#160;</text>
<text text-anchor="start" x="2046.93" y="-628.29" font-family="Helvetica,sans-Serif" font-style="italic" font-size="32.00" fill="#29235c">int</text>
<polygon fill="#e7e2dd" stroke="transparent" points="1727.71,-547.09 1727.71,-607.09 2091.71,-607.09 2091.71,-547.09 1727.71,-547.09"/>
<polygon fill="none" stroke="#29235c" points="1727.71,-547.09 1727.71,-607.09 2091.71,-607.09 2091.71,-547.09 1727.71,-547.09"/>
<text text-anchor="start" x="1738.71" y="-567.29" font-family="Helvetica,sans-Serif" font-size="32.00" fill="#29235c">name &#160;&#160;&#160;</text>
<text text-anchor="start" x="1934.94" y="-568.29" font-family="Helvetica,sans-Serif" font-style="italic" font-size="32.00" fill="#29235c">varchar</text>
<text text-anchor="start" x="2041.62" y="-568.29" font-family="Helvetica,sans-Serif" font-size="32.00" fill="#29235c"> </text>
<text text-anchor="start" x="2050.51" y="-568.29" font-family="Helvetica,sans-Serif" font-weight="bold" font-size="32.00" fill="#29235c">(!)</text>
<polygon fill="#e7e2dd" stroke="transparent" points="1727.71,-487.09 1727.71,-547.09 2091.71,-547.09 2091.71,-487.09 1727.71,-487.09"/>
<polygon fill="none" stroke="#29235c" points="1727.71,-487.09 1727.71,-547.09 2091.71,-547.09 2091.71,-487.09 1727.71,-487.09"/>
<text text-anchor="start" x="1738.71" y="-507.29" font-family="Helvetica,sans-Serif" font-size="32.00" fill="#29235c">code &#160;&#160;&#160;</text>
<text text-anchor="start" x="1974.04" y="-508.29" font-family="Helvetica,sans-Serif" font-style="italic" font-size="32.00" fill="#29235c">varchar</text>
<polygon fill="#e7e2dd" stroke="transparent" points="1727.71,-427.09 1727.71,-487.09 2091.71,-487.09 2091.71,-427.09 1727.71,-427.09"/>
<polygon fill="none" stroke="#29235c" points="1727.71,-427.09 1727.71,-487.09 2091.71,-487.09 2091.71,-427.09 1727.71,-427.09"/>
<text text-anchor="start" x="1738.71" y="-447.29" font-family="Helvetica,sans-Serif" font-size="32.00" fill="#29235c">created_at &#160;&#160;&#160;</text>
<text text-anchor="start" x="1933.15" y="-448.29" font-family="Helvetica,sans-Serif" font-style="italic" font-size="32.00" fill="#29235c">timestamp</text>
<polygon fill="#e7e2dd" stroke="transparent" points="1727.71,-367.09 1727.71,-427.09 2091.71,-427.09 2091.71,-367.09 1727.71,-367.09"/>
<polygon fill="none" stroke="#29235c" points="1727.71,-367.09 1727.71,-427.09 2091.71,-427.09 2091.71,-367.09 1727.71,-367.09"/>
<text text-anchor="start" x="1738.37" y="-387.29" font-family="Helvetica,sans-Serif" font-size="32.00" fill="#29235c">updated_at &#160;&#160;&#160;</text>
<text text-anchor="start" x="1933.43" y="-388.29" font-family="Helvetica,sans-Serif" font-style="italic" font-size="32.00" fill="#29235c">timestamp</text>
<polygon fill="none" stroke="#29235c" stroke-width="2" points="1726.71,-366.09 1726.71,-728.09 2092.71,-728.09 2092.71,-366.09 1726.71,-366.09"/>
</g>
<!-- squads -->
<g id="squads" class="node">
<title>squads</title>
<ellipse fill="none" stroke="black" stroke-width="0" cx="1353.28" cy="-517.09" rx="260.43" ry="299.63"/>
<polygon fill="#1d71b8" stroke="transparent" points="1171.28,-667.09 1171.28,-727.09 1535.28,-727.09 1535.28,-667.09 1171.28,-667.09"/>
<polygon fill="none" stroke="#29235c" points="1171.28,-667.09 1171.28,-727.09 1535.28,-727.09 1535.28,-667.09 1171.28,-667.09"/>
<text text-anchor="start" x="1239.45" y="-688.29" font-family="Helvetica,sans-Serif" font-weight="bold" font-size="32.00" fill="#ffffff"> &#160;&#160;&#160;&#160;&#160;&#160;squads &#160;&#160;&#160;&#160;&#160;&#160;</text>
<polygon fill="#e7e2dd" stroke="transparent" points="1171.28,-607.09 1171.28,-667.09 1535.28,-667.09 1535.28,-607.09 1171.28,-607.09"/>
<polygon fill="none" stroke="#29235c" points="1171.28,-607.09 1171.28,-667.09 1535.28,-667.09 1535.28,-607.09 1171.28,-607.09"/>
<text text-anchor="start" x="1182.28" y="-628.29" font-family="Helvetica,sans-Serif" font-weight="bold" font-size="32.00" fill="#29235c">id</text>
<text text-anchor="start" x="1207.17" y="-628.29" font-family="Helvetica,sans-Serif" font-size="32.00" fill="#29235c"> &#160;&#160;&#160;</text>
<text text-anchor="start" x="1490.5" y="-628.29" font-family="Helvetica,sans-Serif" font-style="italic" font-size="32.00" fill="#29235c">int</text>
<polygon fill="#e7e2dd" stroke="transparent" points="1171.28,-547.09 1171.28,-607.09 1535.28,-607.09 1535.28,-547.09 1171.28,-547.09"/>
<polygon fill="none" stroke="#29235c" points="1171.28,-547.09 1171.28,-607.09 1535.28,-607.09 1535.28,-547.09 1171.28,-547.09"/>
<text text-anchor="start" x="1182.28" y="-567.29" font-family="Helvetica,sans-Serif" font-size="32.00" fill="#29235c">project_id &#160;&#160;&#160;</text>
<text text-anchor="start" x="1490.5" y="-568.29" font-family="Helvetica,sans-Serif" font-style="italic" font-size="32.00" fill="#29235c">int</text>
<polygon fill="#e7e2dd" stroke="transparent" points="1171.28,-487.09 1171.28,-547.09 1535.28,-547.09 1535.28,-487.09 1171.28,-487.09"/>
<polygon fill="none" stroke="#29235c" points="1171.28,-487.09 1171.28,-547.09 1535.28,-547.09 1535.28,-487.09 1171.28,-487.09"/>
<text text-anchor="start" x="1182.28" y="-507.29" font-family="Helvetica,sans-Serif" font-size="32.00" fill="#29235c">name &#160;&#160;&#160;</text>
<text text-anchor="start" x="1417.61" y="-508.29" font-family="Helvetica,sans-Serif" font-style="italic" font-size="32.00" fill="#29235c">varchar</text>
<polygon fill="#e7e2dd" stroke="transparent" points="1171.28,-427.09 1171.28,-487.09 1535.28,-487.09 1535.28,-427.09 1171.28,-427.09"/>
<polygon fill="none" stroke="#29235c" points="1171.28,-427.09 1171.28,-487.09 1535.28,-487.09 1535.28,-427.09 1171.28,-427.09"/>
<text text-anchor="start" x="1182.28" y="-447.29" font-family="Helvetica,sans-Serif" font-size="32.00" fill="#29235c">code &#160;&#160;&#160;</text>
<text text-anchor="start" x="1417.61" y="-448.29" font-family="Helvetica,sans-Serif" font-style="italic" font-size="32.00" fill="#29235c">varchar</text>
<polygon fill="#e7e2dd" stroke="transparent" points="1171.28,-367.09 1171.28,-427.09 1535.28,-427.09 1535.28,-367.09 1171.28,-367.09"/>
<polygon fill="none" stroke="#29235c" points="1171.28,-367.09 1171.28,-427.09 1535.28,-427.09 1535.28,-367.09 1171.28,-367.09"/>
<text text-anchor="start" x="1182.28" y="-387.29" font-family="Helvetica,sans-Serif" font-size="32.00" fill="#29235c">created_at &#160;&#160;&#160;</text>
<text text-anchor="start" x="1376.72" y="-388.29" font-family="Helvetica,sans-Serif" font-style="italic" font-size="32.00" fill="#29235c">timestamp</text>
<polygon fill="#e7e2dd" stroke="transparent" points="1171.28,-307.09 1171.28,-367.09 1535.28,-367.09 1535.28,-307.09 1171.28,-307.09"/>
<polygon fill="none" stroke="#29235c" points="1171.28,-307.09 1171.28,-367.09 1535.28,-367.09 1535.28,-307.09 1171.28,-307.09"/>
<text text-anchor="start" x="1181.94" y="-327.29" font-family="Helvetica,sans-Serif" font-size="32.00" fill="#29235c">updated_at &#160;&#160;&#160;</text>
<text text-anchor="start" x="1377" y="-328.29" font-family="Helvetica,sans-Serif" font-style="italic" font-size="32.00" fill="#29235c">timestamp</text>
<polygon fill="none" stroke="#29235c" stroke-width="2" points="1170.28,-306.09 1170.28,-728.09 1536.28,-728.09 1536.28,-306.09 1170.28,-306.09"/>
</g>
<!-- squads&#45;&gt;projects -->
<!-- squads&#45;&gt;projects -->
<g id="edge2" class="edge">
<title>squads:e&#45;&gt;projects:w</title>
<path fill="none" stroke="#29235c" stroke-width="3" d="M1536.28,-577.09C1621.55,-577.09 1636.84,-632.5 1716.65,-636.82"/>
<polygon fill="#29235c" stroke="#29235c" stroke-width="3" points="1716.62,-640.33 1726.71,-637.09 1716.8,-633.33 1716.62,-640.33"/>
<text text-anchor="middle" x="1717.81" y="-646.69" font-family="Helvetica,sans-Serif" font-size="32.00" fill="#29235c">1</text>
<text text-anchor="middle" x="1542.5" y="-586.69" font-family="Helvetica,sans-Serif" font-size="32.00" fill="#29235c">*</text>
</g>
<!-- sprints -->
<g id="sprints" class="node">
<title>sprints</title>
<ellipse fill="none" stroke="black" stroke-width="0" cx="796.85" cy="-427.09" rx="260.43" ry="427.19"/>
<polygon fill="#1d71b8" stroke="transparent" points="614.85,-667.09 614.85,-727.09 978.85,-727.09 978.85,-667.09 614.85,-667.09"/>
<polygon fill="none" stroke="#29235c" points="614.85,-667.09 614.85,-727.09 978.85,-727.09 978.85,-667.09 614.85,-667.09"/>
<text text-anchor="start" x="687.49" y="-688.29" font-family="Helvetica,sans-Serif" font-weight="bold" font-size="32.00" fill="#ffffff"> &#160;&#160;&#160;&#160;&#160;&#160;sprints &#160;&#160;&#160;&#160;&#160;&#160;</text>
<polygon fill="#e7e2dd" stroke="transparent" points="614.85,-607.09 614.85,-667.09 978.85,-667.09 978.85,-607.09 614.85,-607.09"/>
<polygon fill="none" stroke="#29235c" points="614.85,-607.09 614.85,-667.09 978.85,-667.09 978.85,-607.09 614.85,-607.09"/>
<text text-anchor="start" x="625.85" y="-628.29" font-family="Helvetica,sans-Serif" font-weight="bold" font-size="32.00" fill="#29235c">id</text>
<text text-anchor="start" x="650.74" y="-628.29" font-family="Helvetica,sans-Serif" font-size="32.00" fill="#29235c"> &#160;&#160;&#160;</text>
<text text-anchor="start" x="934.06" y="-628.29" font-family="Helvetica,sans-Serif" font-style="italic" font-size="32.00" fill="#29235c">int</text>
<polygon fill="#e7e2dd" stroke="transparent" points="614.85,-547.09 614.85,-607.09 978.85,-607.09 978.85,-547.09 614.85,-547.09"/>
<polygon fill="none" stroke="#29235c" points="614.85,-547.09 614.85,-607.09 978.85,-607.09 978.85,-547.09 614.85,-547.09"/>
<text text-anchor="start" x="625.85" y="-567.29" font-family="Helvetica,sans-Serif" font-size="32.00" fill="#29235c">name &#160;&#160;&#160;</text>
<text text-anchor="start" x="861.17" y="-568.29" font-family="Helvetica,sans-Serif" font-style="italic" font-size="32.00" fill="#29235c">varchar</text>
<polygon fill="#e7e2dd" stroke="transparent" points="614.85,-487.09 614.85,-547.09 978.85,-547.09 978.85,-487.09 614.85,-487.09"/>
<polygon fill="none" stroke="#29235c" points="614.85,-487.09 614.85,-547.09 978.85,-547.09 978.85,-487.09 614.85,-487.09"/>
<text text-anchor="start" x="625.85" y="-507.29" font-family="Helvetica,sans-Serif" font-size="32.00" fill="#29235c">code &#160;&#160;&#160;</text>
<text text-anchor="start" x="861.17" y="-508.29" font-family="Helvetica,sans-Serif" font-style="italic" font-size="32.00" fill="#29235c">varchar</text>
<polygon fill="#e7e2dd" stroke="transparent" points="614.85,-427.09 614.85,-487.09 978.85,-487.09 978.85,-427.09 614.85,-427.09"/>
<polygon fill="none" stroke="#29235c" points="614.85,-427.09 614.85,-487.09 978.85,-487.09 978.85,-427.09 614.85,-427.09"/>
<text text-anchor="start" x="625.85" y="-447.29" font-family="Helvetica,sans-Serif" font-size="32.00" fill="#29235c">total_estimate &#160;&#160;&#160;</text>
<text text-anchor="start" x="934.06" y="-448.29" font-family="Helvetica,sans-Serif" font-style="italic" font-size="32.00" fill="#29235c">int</text>
<polygon fill="#e7e2dd" stroke="transparent" points="614.85,-367.09 614.85,-427.09 978.85,-427.09 978.85,-367.09 614.85,-367.09"/>
<polygon fill="none" stroke="#29235c" points="614.85,-367.09 614.85,-427.09 978.85,-427.09 978.85,-367.09 614.85,-367.09"/>
<text text-anchor="start" x="625.85" y="-387.29" font-family="Helvetica,sans-Serif" font-size="32.00" fill="#29235c">start_date &#160;&#160;&#160;</text>
<text text-anchor="start" x="845.15" y="-388.29" font-family="Helvetica,sans-Serif" font-style="italic" font-size="32.00" fill="#29235c">datetime</text>
<polygon fill="#e7e2dd" stroke="transparent" points="614.85,-307.09 614.85,-367.09 978.85,-367.09 978.85,-307.09 614.85,-307.09"/>
<polygon fill="none" stroke="#29235c" points="614.85,-307.09 614.85,-367.09 978.85,-367.09 978.85,-307.09 614.85,-307.09"/>
<text text-anchor="start" x="625.85" y="-327.29" font-family="Helvetica,sans-Serif" font-size="32.00" fill="#29235c">end_date &#160;&#160;&#160;</text>
<text text-anchor="start" x="845.15" y="-328.29" font-family="Helvetica,sans-Serif" font-style="italic" font-size="32.00" fill="#29235c">datetime</text>
<polygon fill="#e7e2dd" stroke="transparent" points="614.85,-247.09 614.85,-307.09 978.85,-307.09 978.85,-247.09 614.85,-247.09"/>
<polygon fill="none" stroke="#29235c" points="614.85,-247.09 614.85,-307.09 978.85,-307.09 978.85,-247.09 614.85,-247.09"/>
<text text-anchor="start" x="625.85" y="-267.29" font-family="Helvetica,sans-Serif" font-size="32.00" fill="#29235c">squad_id &#160;&#160;&#160;</text>
<text text-anchor="start" x="934.06" y="-268.29" font-family="Helvetica,sans-Serif" font-style="italic" font-size="32.00" fill="#29235c">int</text>
<polygon fill="#e7e2dd" stroke="transparent" points="614.85,-187.09 614.85,-247.09 978.85,-247.09 978.85,-187.09 614.85,-187.09"/>
<polygon fill="none" stroke="#29235c" points="614.85,-187.09 614.85,-247.09 978.85,-247.09 978.85,-187.09 614.85,-187.09"/>
<text text-anchor="start" x="625.85" y="-207.29" font-family="Helvetica,sans-Serif" font-size="32.00" fill="#29235c">created_at &#160;&#160;&#160;</text>
<text text-anchor="start" x="820.29" y="-208.29" font-family="Helvetica,sans-Serif" font-style="italic" font-size="32.00" fill="#29235c">timestamp</text>
<polygon fill="#e7e2dd" stroke="transparent" points="614.85,-127.09 614.85,-187.09 978.85,-187.09 978.85,-127.09 614.85,-127.09"/>
<polygon fill="none" stroke="#29235c" points="614.85,-127.09 614.85,-187.09 978.85,-187.09 978.85,-127.09 614.85,-127.09"/>
<text text-anchor="start" x="625.51" y="-147.29" font-family="Helvetica,sans-Serif" font-size="32.00" fill="#29235c">updated_at &#160;&#160;&#160;</text>
<text text-anchor="start" x="820.57" y="-148.29" font-family="Helvetica,sans-Serif" font-style="italic" font-size="32.00" fill="#29235c">timestamp</text>
<polygon fill="none" stroke="#29235c" stroke-width="2" points="613.85,-126.09 613.85,-728.09 979.85,-728.09 979.85,-126.09 613.85,-126.09"/>
</g>
<!-- sprints&#45;&gt;squads -->
<!-- sprints&#45;&gt;squads -->
<g id="edge4" class="edge">
<title>sprints:e&#45;&gt;squads:w</title>
<path fill="none" stroke="#29235c" stroke-width="3" d="M979.85,-277.09C1157.32,-277.09 995.84,-623.17 1160.07,-636.69"/>
<polygon fill="#29235c" stroke="#29235c" stroke-width="3" points="1160.15,-640.19 1170.28,-637.09 1160.42,-633.2 1160.15,-640.19"/>
<text text-anchor="middle" x="1161.38" y="-646.69" font-family="Helvetica,sans-Serif" font-size="32.00" fill="#29235c">1</text>
<text text-anchor="middle" x="973.62" y="-248.29" font-family="Helvetica,sans-Serif" font-size="32.00" fill="#29235c">*</text>
</g>
<!-- backlog_items -->
<g id="backlog_items" class="node">
<title>backlog_items</title>
<ellipse fill="none" stroke="black" stroke-width="0" cx="250.32" cy="-667.09" rx="250.13" ry="87.86"/>
<polygon fill="#1d71b8" stroke="transparent" points="75.32,-667.09 75.32,-727.09 425.32,-727.09 425.32,-667.09 75.32,-667.09"/>
<polygon fill="none" stroke="#29235c" points="75.32,-667.09 75.32,-727.09 425.32,-727.09 425.32,-667.09 75.32,-667.09"/>
<text text-anchor="start" x="85.83" y="-688.29" font-family="Helvetica,sans-Serif" font-weight="bold" font-size="32.00" fill="#ffffff"> &#160;&#160;&#160;&#160;&#160;&#160;backlog_items &#160;&#160;&#160;&#160;&#160;&#160;</text>
<polygon fill="#e7e2dd" stroke="transparent" points="75.32,-607.09 75.32,-667.09 425.32,-667.09 425.32,-607.09 75.32,-607.09"/>
<polygon fill="none" stroke="#29235c" points="75.32,-607.09 75.32,-667.09 425.32,-667.09 425.32,-607.09 75.32,-607.09"/>
<text text-anchor="start" x="86.32" y="-627.29" font-family="Helvetica,sans-Serif" font-size="32.00" fill="#29235c">sprint_id &#160;&#160;&#160;</text>
<text text-anchor="start" x="380.53" y="-628.29" font-family="Helvetica,sans-Serif" font-style="italic" font-size="32.00" fill="#29235c">int</text>
<polygon fill="none" stroke="#29235c" stroke-width="2" points="74.32,-606.09 74.32,-728.09 426.32,-728.09 426.32,-606.09 74.32,-606.09"/>
</g>
<!-- backlog_items&#45;&gt;sprints -->
<!-- backlog_items&#45;&gt;sprints -->
<g id="edge6" class="edge">
<title>backlog_items:e&#45;&gt;sprints:w</title>
<path fill="none" stroke="#29235c" stroke-width="3" d="M426.32,-637.09C506.08,-637.09 528.59,-637.09 603.44,-637.09"/>
<polygon fill="#29235c" stroke="#29235c" stroke-width="3" points="603.85,-640.59 613.85,-637.09 603.85,-633.59 603.85,-640.59"/>
<text text-anchor="middle" x="604.95" y="-646.69" font-family="Helvetica,sans-Serif" font-size="32.00" fill="#29235c">1</text>
<text text-anchor="middle" x="432.54" y="-646.69" font-family="Helvetica,sans-Serif" font-size="32.00" fill="#29235c">*</text>
</g>
</g>
</svg>
