<?xml version="1.0" encoding="UTF-8" standalone="no"?>
<!DOCTYPE svg PUBLIC "-//W3C//DTD SVG 1.1//EN"
 "http://www.w3.org/Graphics/SVG/1.1/DTD/svg11.dtd">
<!-- Generated by graphviz version 2.47.0 (20210316.0004)
 -->
<!-- Title: dbml Pages: 1 -->
<svg width="1753pt" height="1480pt"
 viewBox="0.00 0.00 1753.01 1479.91" xmlns="http://www.w3.org/2000/svg" xmlns:xlink="http://www.w3.org/1999/xlink">
<g id="graph0" class="graph" transform="scale(1 1) rotate(0) translate(4 1475.91)">
<title>dbml</title>
<!-- projects -->
<g id="projects" class="node">
<title>projects</title>
<ellipse fill="none" stroke="black" stroke-width="0" cx="1501.06" cy="-257.39" rx="243.9" ry="257.27"/>
<polygon fill="#1d71b8" stroke="transparent" points="1331.06,-377.39 1331.06,-437.39 1672.06,-437.39 1672.06,-377.39 1331.06,-377.39"/>
<polygon fill="none" stroke="#29235c" points="1331.06,-377.39 1331.06,-437.39 1672.06,-437.39 1672.06,-377.39 1331.06,-377.39"/>
<text text-anchor="start" x="1383.31" y="-398.59" font-family="Helvetica,sans-Serif" font-weight="bold" font-size="32.00" fill="#ffffff"> &#160;&#160;&#160;&#160;&#160;&#160;projects &#160;&#160;&#160;&#160;&#160;&#160;</text>
<polygon fill="#e7e2dd" stroke="transparent" points="1331.06,-317.39 1331.06,-377.39 1672.06,-377.39 1672.06,-317.39 1331.06,-317.39"/>
<polygon fill="none" stroke="#29235c" points="1331.06,-317.39 1331.06,-377.39 1672.06,-377.39 1672.06,-317.39 1331.06,-317.39"/>
<text text-anchor="start" x="1342.06" y="-338.59" font-family="Helvetica,sans-Serif" font-weight="bold" font-size="32.00" fill="#29235c">id</text>
<text text-anchor="start" x="1366.95" y="-338.59" font-family="Helvetica,sans-Serif" font-size="32.00" fill="#29235c"> &#160;&#160;&#160;</text>
<text text-anchor="start" x="1627.28" y="-338.59" font-family="Helvetica,sans-Serif" font-style="italic" font-size="32.00" fill="#29235c">int</text>
<polygon fill="#e7e2dd" stroke="transparent" points="1331.06,-257.39 1331.06,-317.39 1672.06,-317.39 1672.06,-257.39 1331.06,-257.39"/>
<polygon fill="none" stroke="#29235c" points="1331.06,-257.39 1331.06,-317.39 1672.06,-317.39 1672.06,-257.39 1331.06,-257.39"/>
<text text-anchor="start" x="1342.06" y="-277.59" font-family="Helvetica,sans-Serif" font-size="32.00" fill="#29235c">nama &#160;&#160;&#160;</text>
<text text-anchor="start" x="1515.3" y="-278.59" font-family="Helvetica,sans-Serif" font-style="italic" font-size="32.00" fill="#29235c">varchar</text>
<text text-anchor="start" x="1621.97" y="-278.59" font-family="Helvetica,sans-Serif" font-size="32.00" fill="#29235c"> </text>
<text text-anchor="start" x="1630.86" y="-278.59" font-family="Helvetica,sans-Serif" font-weight="bold" font-size="32.00" fill="#29235c">(!)</text>
<polygon fill="#e7e2dd" stroke="transparent" points="1331.06,-197.39 1331.06,-257.39 1672.06,-257.39 1672.06,-197.39 1331.06,-197.39"/>
<polygon fill="none" stroke="#29235c" points="1331.06,-197.39 1331.06,-257.39 1672.06,-257.39 1672.06,-197.39 1331.06,-197.39"/>
<text text-anchor="start" x="1342.06" y="-217.59" font-family="Helvetica,sans-Serif" font-size="32.00" fill="#29235c">deskripsi &#160;&#160;&#160;</text>
<text text-anchor="start" x="1609.49" y="-218.59" font-family="Helvetica,sans-Serif" font-style="italic" font-size="32.00" fill="#29235c">text</text>
<polygon fill="#e7e2dd" stroke="transparent" points="1331.06,-137.39 1331.06,-197.39 1672.06,-197.39 1672.06,-137.39 1331.06,-137.39"/>
<polygon fill="none" stroke="#29235c" points="1331.06,-137.39 1331.06,-197.39 1672.06,-197.39 1672.06,-137.39 1331.06,-137.39"/>
<text text-anchor="start" x="1342.06" y="-157.59" font-family="Helvetica,sans-Serif" font-size="32.00" fill="#29235c">tanggal_mulai &#160;&#160;&#160;</text>
<text text-anchor="start" x="1598.8" y="-158.59" font-family="Helvetica,sans-Serif" font-style="italic" font-size="32.00" fill="#29235c">date</text>
<polygon fill="#e7e2dd" stroke="transparent" points="1331.06,-77.39 1331.06,-137.39 1672.06,-137.39 1672.06,-77.39 1331.06,-77.39"/>
<polygon fill="none" stroke="#29235c" points="1331.06,-77.39 1331.06,-137.39 1672.06,-137.39 1672.06,-77.39 1331.06,-77.39"/>
<text text-anchor="start" x="1341.63" y="-97.59" font-family="Helvetica,sans-Serif" font-size="32.00" fill="#29235c">tanggal_selesai &#160;&#160;&#160;</text>
<text text-anchor="start" x="1598.93" y="-98.59" font-family="Helvetica,sans-Serif" font-style="italic" font-size="32.00" fill="#29235c">date</text>
<polygon fill="none" stroke="#29235c" stroke-width="2" points="1329.56,-76.39 1329.56,-438.39 1672.56,-438.39 1672.56,-76.39 1329.56,-76.39"/>
</g>
<!-- squads -->
<g id="squads" class="node">
<title>squads</title>
<ellipse fill="none" stroke="black" stroke-width="0" cx="902.91" cy="-257.39" rx="260.43" ry="257.27"/>
<polygon fill="#1d71b8" stroke="transparent" points="720.91,-377.39 720.91,-437.39 1084.91,-437.39 1084.91,-377.39 720.91,-377.39"/>
<polygon fill="none" stroke="#29235c" points="720.91,-377.39 720.91,-437.39 1084.91,-437.39 1084.91,-377.39 720.91,-377.39"/>
<text text-anchor="start" x="789.09" y="-398.59" font-family="Helvetica,sans-Serif" font-weight="bold" font-size="32.00" fill="#ffffff"> &#160;&#160;&#160;&#160;&#160;&#160;squads &#160;&#160;&#160;&#160;&#160;&#160;</text>
<polygon fill="#e7e2dd" stroke="transparent" points="720.91,-317.39 720.91,-377.39 1084.91,-377.39 1084.91,-317.39 720.91,-317.39"/>
<polygon fill="none" stroke="#29235c" points="720.91,-317.39 720.91,-377.39 1084.91,-377.39 1084.91,-317.39 720.91,-317.39"/>
<text text-anchor="start" x="731.91" y="-338.59" font-family="Helvetica,sans-Serif" font-weight="bold" font-size="32.00" fill="#29235c">id</text>
<text text-anchor="start" x="756.8" y="-338.59" font-family="Helvetica,sans-Serif" font-size="32.00" fill="#29235c"> &#160;&#160;&#160;</text>
<text text-anchor="start" x="1040.13" y="-338.59" font-family="Helvetica,sans-Serif" font-style="italic" font-size="32.00" fill="#29235c">int</text>
<polygon fill="#e7e2dd" stroke="transparent" points="720.91,-257.39 720.91,-317.39 1084.91,-317.39 1084.91,-257.39 720.91,-257.39"/>
<polygon fill="none" stroke="#29235c" points="720.91,-257.39 720.91,-317.39 1084.91,-317.39 1084.91,-257.39 720.91,-257.39"/>
<text text-anchor="start" x="731.91" y="-277.59" font-family="Helvetica,sans-Serif" font-size="32.00" fill="#29235c">nama &#160;&#160;&#160;</text>
<text text-anchor="start" x="928.15" y="-278.59" font-family="Helvetica,sans-Serif" font-style="italic" font-size="32.00" fill="#29235c">varchar</text>
<text text-anchor="start" x="1034.82" y="-278.59" font-family="Helvetica,sans-Serif" font-size="32.00" fill="#29235c"> </text>
<text text-anchor="start" x="1043.71" y="-278.59" font-family="Helvetica,sans-Serif" font-weight="bold" font-size="32.00" fill="#29235c">(!)</text>
<polygon fill="#e7e2dd" stroke="transparent" points="720.91,-197.39 720.91,-257.39 1084.91,-257.39 1084.91,-197.39 720.91,-197.39"/>
<polygon fill="none" stroke="#29235c" points="720.91,-197.39 720.91,-257.39 1084.91,-257.39 1084.91,-197.39 720.91,-197.39"/>
<text text-anchor="start" x="731.91" y="-217.59" font-family="Helvetica,sans-Serif" font-size="32.00" fill="#29235c">project_id &#160;&#160;&#160;</text>
<text text-anchor="start" x="1040.13" y="-218.59" font-family="Helvetica,sans-Serif" font-style="italic" font-size="32.00" fill="#29235c">int</text>
<polygon fill="#e7e2dd" stroke="transparent" points="720.91,-137.39 720.91,-197.39 1084.91,-197.39 1084.91,-137.39 720.91,-137.39"/>
<polygon fill="none" stroke="#29235c" points="720.91,-137.39 720.91,-197.39 1084.91,-197.39 1084.91,-137.39 720.91,-137.39"/>
<text text-anchor="start" x="731.91" y="-157.59" font-family="Helvetica,sans-Serif" font-size="32.00" fill="#29235c">created_at &#160;&#160;&#160;</text>
<text text-anchor="start" x="926.35" y="-158.59" font-family="Helvetica,sans-Serif" font-style="italic" font-size="32.00" fill="#29235c">timestamp</text>
<polygon fill="#e7e2dd" stroke="transparent" points="720.91,-77.39 720.91,-137.39 1084.91,-137.39 1084.91,-77.39 720.91,-77.39"/>
<polygon fill="none" stroke="#29235c" points="720.91,-77.39 720.91,-137.39 1084.91,-137.39 1084.91,-77.39 720.91,-77.39"/>
<text text-anchor="start" x="731.58" y="-97.59" font-family="Helvetica,sans-Serif" font-size="32.00" fill="#29235c">updated_at &#160;&#160;&#160;</text>
<text text-anchor="start" x="926.63" y="-98.59" font-family="Helvetica,sans-Serif" font-style="italic" font-size="32.00" fill="#29235c">timestamp</text>
<polygon fill="none" stroke="#29235c" stroke-width="2" points="719.91,-76.39 719.91,-438.39 1085.91,-438.39 1085.91,-76.39 719.91,-76.39"/>
</g>
<!-- squads&#45;&gt;projects -->
<!-- squads&#45;&gt;projects -->
<g id="edge2" class="edge">
<title>squads:e&#45;&gt;projects:w</title>
<path fill="none" stroke="#29235c" stroke-width="3" d="M1085.91,-227.39C1203.28,-227.39 1208.91,-340.46 1319.74,-347.08"/>
<polygon fill="#29235c" stroke="#29235c" stroke-width="3" points="1319.96,-350.59 1330.06,-347.39 1320.17,-343.6 1319.96,-350.59"/>
<text text-anchor="middle" x="1338.96" y="-318.59" font-family="Helvetica,sans-Serif" font-size="32.00" fill="#29235c">1</text>
<text text-anchor="middle" x="1079.69" y="-198.59" font-family="Helvetica,sans-Serif" font-size="32.00" fill="#29235c">*</text>
</g>
<!-- users -->
<g id="users" class="node">
<title>users</title>
<ellipse fill="none" stroke="black" stroke-width="0" cx="902.91" cy="-1002.39" rx="318.4" ry="469.54"/>
<polygon fill="#1d71b8" stroke="transparent" points="679.91,-1272.39 679.91,-1332.39 1125.91,-1332.39 1125.91,-1272.39 679.91,-1272.39"/>
<polygon fill="none" stroke="#29235c" points="679.91,-1272.39 679.91,-1332.39 1125.91,-1332.39 1125.91,-1272.39 679.91,-1272.39"/>
<text text-anchor="start" x="801.55" y="-1293.59" font-family="Helvetica,sans-Serif" font-weight="bold" font-size="32.00" fill="#ffffff"> &#160;&#160;&#160;&#160;&#160;&#160;users &#160;&#160;&#160;&#160;&#160;&#160;</text>
<polygon fill="#e7e2dd" stroke="transparent" points="679.91,-1212.39 679.91,-1272.39 1125.91,-1272.39 1125.91,-1212.39 679.91,-1212.39"/>
<polygon fill="none" stroke="#29235c" points="679.91,-1212.39 679.91,-1272.39 1125.91,-1272.39 1125.91,-1212.39 679.91,-1212.39"/>
<text text-anchor="start" x="690.91" y="-1233.59" font-family="Helvetica,sans-Serif" font-weight="bold" font-size="32.00" fill="#29235c">id</text>
<text text-anchor="start" x="715.8" y="-1233.59" font-family="Helvetica,sans-Serif" font-size="32.00" fill="#29235c"> &#160;&#160;&#160;</text>
<text text-anchor="start" x="1081.13" y="-1233.59" font-family="Helvetica,sans-Serif" font-style="italic" font-size="32.00" fill="#29235c">int</text>
<polygon fill="#e7e2dd" stroke="transparent" points="679.91,-1152.39 679.91,-1212.39 1125.91,-1212.39 1125.91,-1152.39 679.91,-1152.39"/>
<polygon fill="none" stroke="#29235c" points="679.91,-1152.39 679.91,-1212.39 1125.91,-1212.39 1125.91,-1152.39 679.91,-1152.39"/>
<text text-anchor="start" x="690.91" y="-1172.59" font-family="Helvetica,sans-Serif" font-size="32.00" fill="#29235c">name &#160;&#160;&#160;</text>
<text text-anchor="start" x="969.15" y="-1173.59" font-family="Helvetica,sans-Serif" font-style="italic" font-size="32.00" fill="#29235c">varchar</text>
<text text-anchor="start" x="1075.82" y="-1173.59" font-family="Helvetica,sans-Serif" font-size="32.00" fill="#29235c"> </text>
<text text-anchor="start" x="1084.71" y="-1173.59" font-family="Helvetica,sans-Serif" font-weight="bold" font-size="32.00" fill="#29235c">(!)</text>
<polygon fill="#e7e2dd" stroke="transparent" points="679.91,-1092.39 679.91,-1152.39 1125.91,-1152.39 1125.91,-1092.39 679.91,-1092.39"/>
<polygon fill="none" stroke="#29235c" points="679.91,-1092.39 679.91,-1152.39 1125.91,-1152.39 1125.91,-1092.39 679.91,-1092.39"/>
<text text-anchor="start" x="690.91" y="-1112.59" font-family="Helvetica,sans-Serif" font-size="32.00" fill="#29235c">email &#160;&#160;&#160;</text>
<text text-anchor="start" x="969.15" y="-1113.59" font-family="Helvetica,sans-Serif" font-style="italic" font-size="32.00" fill="#29235c">varchar</text>
<text text-anchor="start" x="1075.82" y="-1113.59" font-family="Helvetica,sans-Serif" font-size="32.00" fill="#29235c"> </text>
<text text-anchor="start" x="1084.71" y="-1113.59" font-family="Helvetica,sans-Serif" font-weight="bold" font-size="32.00" fill="#29235c">(!)</text>
<polygon fill="#e7e2dd" stroke="transparent" points="679.91,-1032.39 679.91,-1092.39 1125.91,-1092.39 1125.91,-1032.39 679.91,-1032.39"/>
<polygon fill="none" stroke="#29235c" points="679.91,-1032.39 679.91,-1092.39 1125.91,-1092.39 1125.91,-1032.39 679.91,-1032.39"/>
<text text-anchor="start" x="690.72" y="-1052.59" font-family="Helvetica,sans-Serif" font-size="32.00" fill="#29235c">email_verified_at &#160;&#160;&#160;</text>
<text text-anchor="start" x="967.63" y="-1053.59" font-family="Helvetica,sans-Serif" font-style="italic" font-size="32.00" fill="#29235c">timestamp</text>
<polygon fill="#e7e2dd" stroke="transparent" points="679.91,-972.39 679.91,-1032.39 1125.91,-1032.39 1125.91,-972.39 679.91,-972.39"/>
<polygon fill="none" stroke="#29235c" points="679.91,-972.39 679.91,-1032.39 1125.91,-1032.39 1125.91,-972.39 679.91,-972.39"/>
<text text-anchor="start" x="690.91" y="-992.59" font-family="Helvetica,sans-Serif" font-size="32.00" fill="#29235c">password &#160;&#160;&#160;</text>
<text text-anchor="start" x="969.15" y="-993.59" font-family="Helvetica,sans-Serif" font-style="italic" font-size="32.00" fill="#29235c">varchar</text>
<text text-anchor="start" x="1075.82" y="-993.59" font-family="Helvetica,sans-Serif" font-size="32.00" fill="#29235c"> </text>
<text text-anchor="start" x="1084.71" y="-993.59" font-family="Helvetica,sans-Serif" font-weight="bold" font-size="32.00" fill="#29235c">(!)</text>
<polygon fill="#e7e2dd" stroke="transparent" points="679.91,-912.39 679.91,-972.39 1125.91,-972.39 1125.91,-912.39 679.91,-912.39"/>
<polygon fill="none" stroke="#29235c" points="679.91,-912.39 679.91,-972.39 1125.91,-972.39 1125.91,-912.39 679.91,-912.39"/>
<text text-anchor="start" x="690.91" y="-932.59" font-family="Helvetica,sans-Serif" font-size="32.00" fill="#29235c">remember_token &#160;&#160;&#160;</text>
<text text-anchor="start" x="1008.24" y="-933.59" font-family="Helvetica,sans-Serif" font-style="italic" font-size="32.00" fill="#29235c">varchar</text>
<polygon fill="#e7e2dd" stroke="transparent" points="679.91,-852.39 679.91,-912.39 1125.91,-912.39 1125.91,-852.39 679.91,-852.39"/>
<polygon fill="none" stroke="#29235c" points="679.91,-852.39 679.91,-912.39 1125.91,-912.39 1125.91,-852.39 679.91,-852.39"/>
<text text-anchor="start" x="690.91" y="-872.59" font-family="Helvetica,sans-Serif" font-size="32.00" fill="#29235c">custom_fields &#160;&#160;&#160;</text>
<text text-anchor="start" x="1056.23" y="-873.59" font-family="Helvetica,sans-Serif" font-style="italic" font-size="32.00" fill="#29235c">json</text>
<polygon fill="#e7e2dd" stroke="transparent" points="679.91,-792.39 679.91,-852.39 1125.91,-852.39 1125.91,-792.39 679.91,-792.39"/>
<polygon fill="none" stroke="#29235c" points="679.91,-792.39 679.91,-852.39 1125.91,-852.39 1125.91,-792.39 679.91,-792.39"/>
<text text-anchor="start" x="690.91" y="-812.59" font-family="Helvetica,sans-Serif" font-size="32.00" fill="#29235c">avatar_url &#160;&#160;&#160;</text>
<text text-anchor="start" x="1008.24" y="-813.59" font-family="Helvetica,sans-Serif" font-style="italic" font-size="32.00" fill="#29235c">varchar</text>
<polygon fill="#e7e2dd" stroke="transparent" points="679.91,-732.39 679.91,-792.39 1125.91,-792.39 1125.91,-732.39 679.91,-732.39"/>
<polygon fill="none" stroke="#29235c" points="679.91,-732.39 679.91,-792.39 1125.91,-792.39 1125.91,-732.39 679.91,-732.39"/>
<text text-anchor="start" x="690.91" y="-752.59" font-family="Helvetica,sans-Serif" font-size="32.00" fill="#29235c">created_at &#160;&#160;&#160;</text>
<text text-anchor="start" x="967.35" y="-753.59" font-family="Helvetica,sans-Serif" font-style="italic" font-size="32.00" fill="#29235c">timestamp</text>
<polygon fill="#e7e2dd" stroke="transparent" points="679.91,-672.39 679.91,-732.39 1125.91,-732.39 1125.91,-672.39 679.91,-672.39"/>
<polygon fill="none" stroke="#29235c" points="679.91,-672.39 679.91,-732.39 1125.91,-732.39 1125.91,-672.39 679.91,-672.39"/>
<text text-anchor="start" x="690.91" y="-692.59" font-family="Helvetica,sans-Serif" font-size="32.00" fill="#29235c">updated_at &#160;&#160;&#160;</text>
<text text-anchor="start" x="967.35" y="-693.59" font-family="Helvetica,sans-Serif" font-style="italic" font-size="32.00" fill="#29235c">timestamp</text>
<polygon fill="none" stroke="#29235c" stroke-width="2" points="678.91,-671.39 678.91,-1333.39 1126.91,-1333.39 1126.91,-671.39 678.91,-671.39"/>
</g>
<!-- squad_members -->
<g id="squad_members" class="node">
<title>squad_members</title>
<ellipse fill="none" stroke="black" stroke-width="0" cx="274.36" cy="-824.39" rx="274.21" ry="172.57"/>
<polygon fill="#1d71b8" stroke="transparent" points="82.36,-884.39 82.36,-944.39 466.36,-944.39 466.36,-884.39 82.36,-884.39"/>
<polygon fill="none" stroke="#29235c" points="82.36,-884.39 82.36,-944.39 466.36,-944.39 466.36,-884.39 82.36,-884.39"/>
<text text-anchor="start" x="92.97" y="-905.59" font-family="Helvetica,sans-Serif" font-weight="bold" font-size="32.00" fill="#ffffff"> &#160;&#160;&#160;&#160;&#160;&#160;squad_members &#160;&#160;&#160;&#160;&#160;&#160;</text>
<polygon fill="#e7e2dd" stroke="transparent" points="82.36,-824.39 82.36,-884.39 466.36,-884.39 466.36,-824.39 82.36,-824.39"/>
<polygon fill="none" stroke="#29235c" points="82.36,-824.39 82.36,-884.39 466.36,-884.39 466.36,-824.39 82.36,-824.39"/>
<text text-anchor="start" x="93.36" y="-845.59" font-family="Helvetica,sans-Serif" font-weight="bold" font-size="32.00" fill="#29235c">id</text>
<text text-anchor="start" x="118.25" y="-845.59" font-family="Helvetica,sans-Serif" font-size="32.00" fill="#29235c"> &#160;&#160;&#160;</text>
<text text-anchor="start" x="421.58" y="-845.59" font-family="Helvetica,sans-Serif" font-style="italic" font-size="32.00" fill="#29235c">int</text>
<polygon fill="#e7e2dd" stroke="transparent" points="82.36,-764.39 82.36,-824.39 466.36,-824.39 466.36,-764.39 82.36,-764.39"/>
<polygon fill="none" stroke="#29235c" points="82.36,-764.39 82.36,-824.39 466.36,-824.39 466.36,-764.39 82.36,-764.39"/>
<text text-anchor="start" x="93.36" y="-784.59" font-family="Helvetica,sans-Serif" font-size="32.00" fill="#29235c">user_id &#160;&#160;&#160;</text>
<text text-anchor="start" x="421.58" y="-785.59" font-family="Helvetica,sans-Serif" font-style="italic" font-size="32.00" fill="#29235c">int</text>
<polygon fill="#e7e2dd" stroke="transparent" points="82.36,-704.39 82.36,-764.39 466.36,-764.39 466.36,-704.39 82.36,-704.39"/>
<polygon fill="none" stroke="#29235c" points="82.36,-704.39 82.36,-764.39 466.36,-764.39 466.36,-704.39 82.36,-704.39"/>
<text text-anchor="start" x="93.36" y="-724.59" font-family="Helvetica,sans-Serif" font-size="32.00" fill="#29235c">squad_id &#160;&#160;&#160;</text>
<text text-anchor="start" x="421.58" y="-725.59" font-family="Helvetica,sans-Serif" font-style="italic" font-size="32.00" fill="#29235c">int</text>
<polygon fill="none" stroke="#29235c" stroke-width="2" points="81.36,-703.39 81.36,-945.39 467.36,-945.39 467.36,-703.39 81.36,-703.39"/>
</g>
<!-- squad_members&#45;&gt;squads -->
<!-- squad_members&#45;&gt;squads -->
<g id="edge6" class="edge">
<title>squad_members:e&#45;&gt;squads:w</title>
<path fill="none" stroke="#29235c" stroke-width="3" d="M467.36,-734.39C574.66,-734.39 525.79,-613.07 584.71,-523.39 636.92,-443.93 622.45,-354.13 709.67,-347.75"/>
<polygon fill="#29235c" stroke="#29235c" stroke-width="3" points="710.04,-351.24 719.91,-347.39 709.8,-344.24 710.04,-351.24"/>
<text text-anchor="middle" x="711.02" y="-318.59" font-family="Helvetica,sans-Serif" font-size="32.00" fill="#29235c">1</text>
<text text-anchor="middle" x="473.58" y="-743.99" font-family="Helvetica,sans-Serif" font-size="32.00" fill="#29235c">*</text>
</g>
<!-- squad_members&#45;&gt;users -->
<!-- squad_members&#45;&gt;users -->
<g id="edge4" class="edge">
<title>squad_members:e&#45;&gt;users:w</title>
<path fill="none" stroke="#29235c" stroke-width="3" d="M467.36,-794.39C684.11,-794.39 465.76,-1228.5 668.92,-1242.06"/>
<polygon fill="#29235c" stroke="#29235c" stroke-width="3" points="668.8,-1245.56 678.91,-1242.39 669.03,-1238.56 668.8,-1245.56"/>
<text text-anchor="middle" x="670.02" y="-1251.99" font-family="Helvetica,sans-Serif" font-size="32.00" fill="#29235c">1</text>
<text text-anchor="middle" x="473.58" y="-803.99" font-family="Helvetica,sans-Serif" font-size="32.00" fill="#29235c">*</text>
</g>
</g>
</svg>
