<?xml version="1.0" encoding="UTF-8" standalone="no"?>
<!DOCTYPE svg PUBLIC "-//W3C//DTD SVG 1.1//EN"
 "http://www.w3.org/Graphics/SVG/1.1/DTD/svg11.dtd">
<!-- Generated by graphviz version 2.47.0 (20210316.0004)
 -->
<!-- Title: dbml Pages: 1 -->
<svg width="2898pt" height="1753pt"
 viewBox="0.00 0.00 2898.40 1752.77" xmlns="http://www.w3.org/2000/svg" xmlns:xlink="http://www.w3.org/1999/xlink">
<g id="graph0" class="graph" transform="scale(1 1) rotate(0) translate(4 1748.77)">
<title>dbml</title>
<!-- roles -->
<g id="roles" class="node">
<title>roles</title>
<ellipse fill="none" stroke="black" stroke-width="0" cx="1517.33" cy="-214.96" rx="260.43" ry="214.92"/>
<polygon fill="#1d71b8" stroke="transparent" points="1335.33,-304.96 1335.33,-364.96 1699.33,-364.96 1699.33,-304.96 1335.33,-304.96"/>
<polygon fill="none" stroke="#29235c" points="1335.33,-304.96 1335.33,-364.96 1699.33,-364.96 1699.33,-304.96 1335.33,-304.96"/>
<text text-anchor="start" x="1420.41" y="-326.16" font-family="Helvetica,sans-Serif" font-weight="bold" font-size="32.00" fill="#ffffff"> &#160;&#160;&#160;&#160;&#160;&#160;roles &#160;&#160;&#160;&#160;&#160;&#160;</text>
<polygon fill="#e7e2dd" stroke="transparent" points="1335.33,-244.96 1335.33,-304.96 1699.33,-304.96 1699.33,-244.96 1335.33,-244.96"/>
<polygon fill="none" stroke="#29235c" points="1335.33,-244.96 1335.33,-304.96 1699.33,-304.96 1699.33,-244.96 1335.33,-244.96"/>
<text text-anchor="start" x="1346.33" y="-266.16" font-family="Helvetica,sans-Serif" font-weight="bold" font-size="32.00" fill="#29235c">id</text>
<text text-anchor="start" x="1371.22" y="-266.16" font-family="Helvetica,sans-Serif" font-size="32.00" fill="#29235c"> &#160;&#160;&#160;</text>
<text text-anchor="start" x="1654.54" y="-266.16" font-family="Helvetica,sans-Serif" font-style="italic" font-size="32.00" fill="#29235c">int</text>
<polygon fill="#e7e2dd" stroke="transparent" points="1335.33,-184.96 1335.33,-244.96 1699.33,-244.96 1699.33,-184.96 1335.33,-184.96"/>
<polygon fill="none" stroke="#29235c" points="1335.33,-184.96 1335.33,-244.96 1699.33,-244.96 1699.33,-184.96 1335.33,-184.96"/>
<text text-anchor="start" x="1346.33" y="-205.16" font-family="Helvetica,sans-Serif" font-size="32.00" fill="#29235c">name &#160;&#160;&#160;</text>
<text text-anchor="start" x="1581.65" y="-206.16" font-family="Helvetica,sans-Serif" font-style="italic" font-size="32.00" fill="#29235c">varchar</text>
<polygon fill="#e7e2dd" stroke="transparent" points="1335.33,-124.96 1335.33,-184.96 1699.33,-184.96 1699.33,-124.96 1335.33,-124.96"/>
<polygon fill="none" stroke="#29235c" points="1335.33,-124.96 1335.33,-184.96 1699.33,-184.96 1699.33,-124.96 1335.33,-124.96"/>
<text text-anchor="start" x="1346.33" y="-145.16" font-family="Helvetica,sans-Serif" font-size="32.00" fill="#29235c">created_at &#160;&#160;&#160;</text>
<text text-anchor="start" x="1540.77" y="-146.16" font-family="Helvetica,sans-Serif" font-style="italic" font-size="32.00" fill="#29235c">timestamp</text>
<polygon fill="#e7e2dd" stroke="transparent" points="1335.33,-64.96 1335.33,-124.96 1699.33,-124.96 1699.33,-64.96 1335.33,-64.96"/>
<polygon fill="none" stroke="#29235c" points="1335.33,-64.96 1335.33,-124.96 1699.33,-124.96 1699.33,-64.96 1335.33,-64.96"/>
<text text-anchor="start" x="1345.99" y="-85.16" font-family="Helvetica,sans-Serif" font-size="32.00" fill="#29235c">updated_at &#160;&#160;&#160;</text>
<text text-anchor="start" x="1541.05" y="-86.16" font-family="Helvetica,sans-Serif" font-style="italic" font-size="32.00" fill="#29235c">timestamp</text>
<polygon fill="none" stroke="#29235c" stroke-width="2" points="1334.33,-63.96 1334.33,-365.96 1700.33,-365.96 1700.33,-63.96 1334.33,-63.96"/>
</g>
<!-- levels -->
<g id="levels" class="node">
<title>levels</title>
<ellipse fill="none" stroke="black" stroke-width="0" cx="2073.76" cy="-359.96" rx="260.43" ry="214.92"/>
<polygon fill="#1d71b8" stroke="transparent" points="1891.76,-449.96 1891.76,-509.96 2255.76,-509.96 2255.76,-449.96 1891.76,-449.96"/>
<polygon fill="none" stroke="#29235c" points="1891.76,-449.96 1891.76,-509.96 2255.76,-509.96 2255.76,-449.96 1891.76,-449.96"/>
<text text-anchor="start" x="1970.62" y="-471.16" font-family="Helvetica,sans-Serif" font-weight="bold" font-size="32.00" fill="#ffffff"> &#160;&#160;&#160;&#160;&#160;&#160;levels &#160;&#160;&#160;&#160;&#160;&#160;</text>
<polygon fill="#e7e2dd" stroke="transparent" points="1891.76,-389.96 1891.76,-449.96 2255.76,-449.96 2255.76,-389.96 1891.76,-389.96"/>
<polygon fill="none" stroke="#29235c" points="1891.76,-389.96 1891.76,-449.96 2255.76,-449.96 2255.76,-389.96 1891.76,-389.96"/>
<text text-anchor="start" x="1902.76" y="-411.16" font-family="Helvetica,sans-Serif" font-weight="bold" font-size="32.00" fill="#29235c">id</text>
<text text-anchor="start" x="1927.65" y="-411.16" font-family="Helvetica,sans-Serif" font-size="32.00" fill="#29235c"> &#160;&#160;&#160;</text>
<text text-anchor="start" x="2210.97" y="-411.16" font-family="Helvetica,sans-Serif" font-style="italic" font-size="32.00" fill="#29235c">int</text>
<polygon fill="#e7e2dd" stroke="transparent" points="1891.76,-329.96 1891.76,-389.96 2255.76,-389.96 2255.76,-329.96 1891.76,-329.96"/>
<polygon fill="none" stroke="#29235c" points="1891.76,-329.96 1891.76,-389.96 2255.76,-389.96 2255.76,-329.96 1891.76,-329.96"/>
<text text-anchor="start" x="1902.76" y="-350.16" font-family="Helvetica,sans-Serif" font-size="32.00" fill="#29235c">name &#160;&#160;&#160;</text>
<text text-anchor="start" x="2098.99" y="-351.16" font-family="Helvetica,sans-Serif" font-style="italic" font-size="32.00" fill="#29235c">varchar</text>
<text text-anchor="start" x="2205.67" y="-351.16" font-family="Helvetica,sans-Serif" font-size="32.00" fill="#29235c"> </text>
<text text-anchor="start" x="2214.56" y="-351.16" font-family="Helvetica,sans-Serif" font-weight="bold" font-size="32.00" fill="#29235c">(!)</text>
<polygon fill="#e7e2dd" stroke="transparent" points="1891.76,-269.96 1891.76,-329.96 2255.76,-329.96 2255.76,-269.96 1891.76,-269.96"/>
<polygon fill="none" stroke="#29235c" points="1891.76,-269.96 1891.76,-329.96 2255.76,-329.96 2255.76,-269.96 1891.76,-269.96"/>
<text text-anchor="start" x="1902.76" y="-290.16" font-family="Helvetica,sans-Serif" font-size="32.00" fill="#29235c">created_at &#160;&#160;&#160;</text>
<text text-anchor="start" x="2097.2" y="-291.16" font-family="Helvetica,sans-Serif" font-style="italic" font-size="32.00" fill="#29235c">timestamp</text>
<polygon fill="#e7e2dd" stroke="transparent" points="1891.76,-209.96 1891.76,-269.96 2255.76,-269.96 2255.76,-209.96 1891.76,-209.96"/>
<polygon fill="none" stroke="#29235c" points="1891.76,-209.96 1891.76,-269.96 2255.76,-269.96 2255.76,-209.96 1891.76,-209.96"/>
<text text-anchor="start" x="1902.42" y="-230.16" font-family="Helvetica,sans-Serif" font-size="32.00" fill="#29235c">updated_at &#160;&#160;&#160;</text>
<text text-anchor="start" x="2097.48" y="-231.16" font-family="Helvetica,sans-Serif" font-style="italic" font-size="32.00" fill="#29235c">timestamp</text>
<polygon fill="none" stroke="#29235c" stroke-width="2" points="1890.76,-208.96 1890.76,-510.96 2256.76,-510.96 2256.76,-208.96 1890.76,-208.96"/>
</g>
<!-- positions -->
<g id="positions" class="node">
<title>positions</title>
<ellipse fill="none" stroke="black" stroke-width="0" cx="2073.76" cy="-849.96" rx="260.43" ry="257.27"/>
<polygon fill="#1d71b8" stroke="transparent" points="1891.76,-969.96 1891.76,-1029.96 2255.76,-1029.96 2255.76,-969.96 1891.76,-969.96"/>
<polygon fill="none" stroke="#29235c" points="1891.76,-969.96 1891.76,-1029.96 2255.76,-1029.96 2255.76,-969.96 1891.76,-969.96"/>
<text text-anchor="start" x="1948.38" y="-991.16" font-family="Helvetica,sans-Serif" font-weight="bold" font-size="32.00" fill="#ffffff"> &#160;&#160;&#160;&#160;&#160;&#160;positions &#160;&#160;&#160;&#160;&#160;&#160;</text>
<polygon fill="#e7e2dd" stroke="transparent" points="1891.76,-909.96 1891.76,-969.96 2255.76,-969.96 2255.76,-909.96 1891.76,-909.96"/>
<polygon fill="none" stroke="#29235c" points="1891.76,-909.96 1891.76,-969.96 2255.76,-969.96 2255.76,-909.96 1891.76,-909.96"/>
<text text-anchor="start" x="1902.76" y="-931.16" font-family="Helvetica,sans-Serif" font-weight="bold" font-size="32.00" fill="#29235c">id</text>
<text text-anchor="start" x="1927.65" y="-931.16" font-family="Helvetica,sans-Serif" font-size="32.00" fill="#29235c"> &#160;&#160;&#160;</text>
<text text-anchor="start" x="2210.97" y="-931.16" font-family="Helvetica,sans-Serif" font-style="italic" font-size="32.00" fill="#29235c">int</text>
<polygon fill="#e7e2dd" stroke="transparent" points="1891.76,-849.96 1891.76,-909.96 2255.76,-909.96 2255.76,-849.96 1891.76,-849.96"/>
<polygon fill="none" stroke="#29235c" points="1891.76,-849.96 1891.76,-909.96 2255.76,-909.96 2255.76,-849.96 1891.76,-849.96"/>
<text text-anchor="start" x="1902.76" y="-870.16" font-family="Helvetica,sans-Serif" font-size="32.00" fill="#29235c">name &#160;&#160;&#160;</text>
<text text-anchor="start" x="2098.99" y="-871.16" font-family="Helvetica,sans-Serif" font-style="italic" font-size="32.00" fill="#29235c">varchar</text>
<text text-anchor="start" x="2205.67" y="-871.16" font-family="Helvetica,sans-Serif" font-size="32.00" fill="#29235c"> </text>
<text text-anchor="start" x="2214.56" y="-871.16" font-family="Helvetica,sans-Serif" font-weight="bold" font-size="32.00" fill="#29235c">(!)</text>
<polygon fill="#e7e2dd" stroke="transparent" points="1891.76,-789.96 1891.76,-849.96 2255.76,-849.96 2255.76,-789.96 1891.76,-789.96"/>
<polygon fill="none" stroke="#29235c" points="1891.76,-789.96 1891.76,-849.96 2255.76,-849.96 2255.76,-789.96 1891.76,-789.96"/>
<text text-anchor="start" x="1902.76" y="-810.16" font-family="Helvetica,sans-Serif" font-size="32.00" fill="#29235c">department_id &#160;&#160;&#160;</text>
<text text-anchor="start" x="2210.97" y="-811.16" font-family="Helvetica,sans-Serif" font-style="italic" font-size="32.00" fill="#29235c">int</text>
<polygon fill="#e7e2dd" stroke="transparent" points="1891.76,-729.96 1891.76,-789.96 2255.76,-789.96 2255.76,-729.96 1891.76,-729.96"/>
<polygon fill="none" stroke="#29235c" points="1891.76,-729.96 1891.76,-789.96 2255.76,-789.96 2255.76,-729.96 1891.76,-729.96"/>
<text text-anchor="start" x="1902.76" y="-750.16" font-family="Helvetica,sans-Serif" font-size="32.00" fill="#29235c">created_at &#160;&#160;&#160;</text>
<text text-anchor="start" x="2097.2" y="-751.16" font-family="Helvetica,sans-Serif" font-style="italic" font-size="32.00" fill="#29235c">timestamp</text>
<polygon fill="#e7e2dd" stroke="transparent" points="1891.76,-669.96 1891.76,-729.96 2255.76,-729.96 2255.76,-669.96 1891.76,-669.96"/>
<polygon fill="none" stroke="#29235c" points="1891.76,-669.96 1891.76,-729.96 2255.76,-729.96 2255.76,-669.96 1891.76,-669.96"/>
<text text-anchor="start" x="1902.42" y="-690.16" font-family="Helvetica,sans-Serif" font-size="32.00" fill="#29235c">updated_at &#160;&#160;&#160;</text>
<text text-anchor="start" x="2097.48" y="-691.16" font-family="Helvetica,sans-Serif" font-style="italic" font-size="32.00" fill="#29235c">timestamp</text>
<polygon fill="none" stroke="#29235c" stroke-width="2" points="1890.76,-668.96 1890.76,-1030.96 2256.76,-1030.96 2256.76,-668.96 1890.76,-668.96"/>
</g>
<!-- departments -->
<g id="departments" class="node">
<title>departments</title>
<ellipse fill="none" stroke="black" stroke-width="0" cx="2630.19" cy="-879.96" rx="260.43" ry="214.92"/>
<polygon fill="#1d71b8" stroke="transparent" points="2448.19,-969.96 2448.19,-1029.96 2812.19,-1029.96 2812.19,-969.96 2448.19,-969.96"/>
<polygon fill="none" stroke="#29235c" points="2448.19,-969.96 2448.19,-1029.96 2812.19,-1029.96 2812.19,-969.96 2448.19,-969.96"/>
<text text-anchor="start" x="2479.03" y="-991.16" font-family="Helvetica,sans-Serif" font-weight="bold" font-size="32.00" fill="#ffffff"> &#160;&#160;&#160;&#160;&#160;&#160;departments &#160;&#160;&#160;&#160;&#160;&#160;</text>
<polygon fill="#e7e2dd" stroke="transparent" points="2448.19,-909.96 2448.19,-969.96 2812.19,-969.96 2812.19,-909.96 2448.19,-909.96"/>
<polygon fill="none" stroke="#29235c" points="2448.19,-909.96 2448.19,-969.96 2812.19,-969.96 2812.19,-909.96 2448.19,-909.96"/>
<text text-anchor="start" x="2459.19" y="-931.16" font-family="Helvetica,sans-Serif" font-weight="bold" font-size="32.00" fill="#29235c">id</text>
<text text-anchor="start" x="2484.08" y="-931.16" font-family="Helvetica,sans-Serif" font-size="32.00" fill="#29235c"> &#160;&#160;&#160;</text>
<text text-anchor="start" x="2767.41" y="-931.16" font-family="Helvetica,sans-Serif" font-style="italic" font-size="32.00" fill="#29235c">int</text>
<polygon fill="#e7e2dd" stroke="transparent" points="2448.19,-849.96 2448.19,-909.96 2812.19,-909.96 2812.19,-849.96 2448.19,-849.96"/>
<polygon fill="none" stroke="#29235c" points="2448.19,-849.96 2448.19,-909.96 2812.19,-909.96 2812.19,-849.96 2448.19,-849.96"/>
<text text-anchor="start" x="2459.19" y="-870.16" font-family="Helvetica,sans-Serif" font-size="32.00" fill="#29235c">name &#160;&#160;&#160;</text>
<text text-anchor="start" x="2655.42" y="-871.16" font-family="Helvetica,sans-Serif" font-style="italic" font-size="32.00" fill="#29235c">varchar</text>
<text text-anchor="start" x="2762.1" y="-871.16" font-family="Helvetica,sans-Serif" font-size="32.00" fill="#29235c"> </text>
<text text-anchor="start" x="2770.99" y="-871.16" font-family="Helvetica,sans-Serif" font-weight="bold" font-size="32.00" fill="#29235c">(!)</text>
<polygon fill="#e7e2dd" stroke="transparent" points="2448.19,-789.96 2448.19,-849.96 2812.19,-849.96 2812.19,-789.96 2448.19,-789.96"/>
<polygon fill="none" stroke="#29235c" points="2448.19,-789.96 2448.19,-849.96 2812.19,-849.96 2812.19,-789.96 2448.19,-789.96"/>
<text text-anchor="start" x="2459.19" y="-810.16" font-family="Helvetica,sans-Serif" font-size="32.00" fill="#29235c">created_at &#160;&#160;&#160;</text>
<text text-anchor="start" x="2653.63" y="-811.16" font-family="Helvetica,sans-Serif" font-style="italic" font-size="32.00" fill="#29235c">timestamp</text>
<polygon fill="#e7e2dd" stroke="transparent" points="2448.19,-729.96 2448.19,-789.96 2812.19,-789.96 2812.19,-729.96 2448.19,-729.96"/>
<polygon fill="none" stroke="#29235c" points="2448.19,-729.96 2448.19,-789.96 2812.19,-789.96 2812.19,-729.96 2448.19,-729.96"/>
<text text-anchor="start" x="2458.85" y="-750.16" font-family="Helvetica,sans-Serif" font-size="32.00" fill="#29235c">updated_at &#160;&#160;&#160;</text>
<text text-anchor="start" x="2653.91" y="-751.16" font-family="Helvetica,sans-Serif" font-style="italic" font-size="32.00" fill="#29235c">timestamp</text>
<polygon fill="none" stroke="#29235c" stroke-width="2" points="2447.19,-728.96 2447.19,-1030.96 2813.19,-1030.96 2813.19,-728.96 2447.19,-728.96"/>
</g>
<!-- positions&#45;&gt;departments -->
<!-- positions&#45;&gt;departments -->
<g id="edge2" class="edge">
<title>positions:e&#45;&gt;departments:w</title>
<path fill="none" stroke="#29235c" stroke-width="3" d="M2256.76,-819.96C2353.28,-819.96 2347.69,-931.67 2437.03,-939.53"/>
<polygon fill="#29235c" stroke="#29235c" stroke-width="3" points="2437.05,-943.03 2447.19,-939.96 2437.35,-936.04 2437.05,-943.03"/>
<text text-anchor="middle" x="2438.29" y="-911.16" font-family="Helvetica,sans-Serif" font-size="32.00" fill="#29235c">1</text>
<text text-anchor="middle" x="2262.98" y="-791.16" font-family="Helvetica,sans-Serif" font-size="32.00" fill="#29235c">*</text>
</g>
<!-- titles -->
<g id="titles" class="node">
<title>titles</title>
<ellipse fill="none" stroke="black" stroke-width="0" cx="1517.33" cy="-789.96" rx="260.43" ry="342.48"/>
<polygon fill="#1d71b8" stroke="transparent" points="1335.33,-969.96 1335.33,-1029.96 1699.33,-1029.96 1699.33,-969.96 1335.33,-969.96"/>
<polygon fill="none" stroke="#29235c" points="1335.33,-969.96 1335.33,-1029.96 1699.33,-1029.96 1699.33,-969.96 1335.33,-969.96"/>
<text text-anchor="start" x="1422.19" y="-991.16" font-family="Helvetica,sans-Serif" font-weight="bold" font-size="32.00" fill="#ffffff"> &#160;&#160;&#160;&#160;&#160;&#160;titles &#160;&#160;&#160;&#160;&#160;&#160;</text>
<polygon fill="#e7e2dd" stroke="transparent" points="1335.33,-909.96 1335.33,-969.96 1699.33,-969.96 1699.33,-909.96 1335.33,-909.96"/>
<polygon fill="none" stroke="#29235c" points="1335.33,-909.96 1335.33,-969.96 1699.33,-969.96 1699.33,-909.96 1335.33,-909.96"/>
<text text-anchor="start" x="1346.33" y="-931.16" font-family="Helvetica,sans-Serif" font-weight="bold" font-size="32.00" fill="#29235c">id</text>
<text text-anchor="start" x="1371.22" y="-931.16" font-family="Helvetica,sans-Serif" font-size="32.00" fill="#29235c"> &#160;&#160;&#160;</text>
<text text-anchor="start" x="1654.54" y="-931.16" font-family="Helvetica,sans-Serif" font-style="italic" font-size="32.00" fill="#29235c">int</text>
<polygon fill="#e7e2dd" stroke="transparent" points="1335.33,-849.96 1335.33,-909.96 1699.33,-909.96 1699.33,-849.96 1335.33,-849.96"/>
<polygon fill="none" stroke="#29235c" points="1335.33,-849.96 1335.33,-909.96 1699.33,-909.96 1699.33,-849.96 1335.33,-849.96"/>
<text text-anchor="start" x="1346.33" y="-870.16" font-family="Helvetica,sans-Serif" font-size="32.00" fill="#29235c">name &#160;&#160;&#160;</text>
<text text-anchor="start" x="1542.56" y="-871.16" font-family="Helvetica,sans-Serif" font-style="italic" font-size="32.00" fill="#29235c">varchar</text>
<text text-anchor="start" x="1649.24" y="-871.16" font-family="Helvetica,sans-Serif" font-size="32.00" fill="#29235c"> </text>
<text text-anchor="start" x="1658.13" y="-871.16" font-family="Helvetica,sans-Serif" font-weight="bold" font-size="32.00" fill="#29235c">(!)</text>
<polygon fill="#e7e2dd" stroke="transparent" points="1335.33,-789.96 1335.33,-849.96 1699.33,-849.96 1699.33,-789.96 1335.33,-789.96"/>
<polygon fill="none" stroke="#29235c" points="1335.33,-789.96 1335.33,-849.96 1699.33,-849.96 1699.33,-789.96 1335.33,-789.96"/>
<text text-anchor="start" x="1346.33" y="-810.16" font-family="Helvetica,sans-Serif" font-size="32.00" fill="#29235c">department_id &#160;&#160;&#160;</text>
<text text-anchor="start" x="1654.54" y="-811.16" font-family="Helvetica,sans-Serif" font-style="italic" font-size="32.00" fill="#29235c">int</text>
<polygon fill="#e7e2dd" stroke="transparent" points="1335.33,-729.96 1335.33,-789.96 1699.33,-789.96 1699.33,-729.96 1335.33,-729.96"/>
<polygon fill="none" stroke="#29235c" points="1335.33,-729.96 1335.33,-789.96 1699.33,-789.96 1699.33,-729.96 1335.33,-729.96"/>
<text text-anchor="start" x="1346.33" y="-750.16" font-family="Helvetica,sans-Serif" font-size="32.00" fill="#29235c">position_id &#160;&#160;&#160;</text>
<text text-anchor="start" x="1654.54" y="-751.16" font-family="Helvetica,sans-Serif" font-style="italic" font-size="32.00" fill="#29235c">int</text>
<polygon fill="#e7e2dd" stroke="transparent" points="1335.33,-669.96 1335.33,-729.96 1699.33,-729.96 1699.33,-669.96 1335.33,-669.96"/>
<polygon fill="none" stroke="#29235c" points="1335.33,-669.96 1335.33,-729.96 1699.33,-729.96 1699.33,-669.96 1335.33,-669.96"/>
<text text-anchor="start" x="1346.33" y="-690.16" font-family="Helvetica,sans-Serif" font-size="32.00" fill="#29235c">level_id &#160;&#160;&#160;</text>
<text text-anchor="start" x="1654.54" y="-691.16" font-family="Helvetica,sans-Serif" font-style="italic" font-size="32.00" fill="#29235c">int</text>
<polygon fill="#e7e2dd" stroke="transparent" points="1335.33,-609.96 1335.33,-669.96 1699.33,-669.96 1699.33,-609.96 1335.33,-609.96"/>
<polygon fill="none" stroke="#29235c" points="1335.33,-609.96 1335.33,-669.96 1699.33,-669.96 1699.33,-609.96 1335.33,-609.96"/>
<text text-anchor="start" x="1346.33" y="-630.16" font-family="Helvetica,sans-Serif" font-size="32.00" fill="#29235c">created_at &#160;&#160;&#160;</text>
<text text-anchor="start" x="1540.77" y="-631.16" font-family="Helvetica,sans-Serif" font-style="italic" font-size="32.00" fill="#29235c">timestamp</text>
<polygon fill="#e7e2dd" stroke="transparent" points="1335.33,-549.96 1335.33,-609.96 1699.33,-609.96 1699.33,-549.96 1335.33,-549.96"/>
<polygon fill="none" stroke="#29235c" points="1335.33,-549.96 1335.33,-609.96 1699.33,-609.96 1699.33,-549.96 1335.33,-549.96"/>
<text text-anchor="start" x="1345.99" y="-570.16" font-family="Helvetica,sans-Serif" font-size="32.00" fill="#29235c">updated_at &#160;&#160;&#160;</text>
<text text-anchor="start" x="1541.05" y="-571.16" font-family="Helvetica,sans-Serif" font-style="italic" font-size="32.00" fill="#29235c">timestamp</text>
<polygon fill="none" stroke="#29235c" stroke-width="2" points="1334.33,-548.96 1334.33,-1030.96 1700.33,-1030.96 1700.33,-548.96 1334.33,-548.96"/>
</g>
<!-- titles&#45;&gt;levels -->
<!-- titles&#45;&gt;levels -->
<g id="edge8" class="edge">
<title>titles:e&#45;&gt;levels:w</title>
<path fill="none" stroke="#29235c" stroke-width="3" d="M1700.33,-699.96C1847.3,-699.96 1745.3,-432.93 1880.6,-420.41"/>
<polygon fill="#29235c" stroke="#29235c" stroke-width="3" points="1880.92,-423.9 1890.76,-419.96 1880.61,-416.91 1880.92,-423.9"/>
<text text-anchor="middle" x="1881.86" y="-391.16" font-family="Helvetica,sans-Serif" font-size="32.00" fill="#29235c">1</text>
<text text-anchor="middle" x="1694.1" y="-671.16" font-family="Helvetica,sans-Serif" font-size="32.00" fill="#29235c">*</text>
</g>
<!-- titles&#45;&gt;positions -->
<!-- titles&#45;&gt;positions -->
<g id="edge6" class="edge">
<title>titles:e&#45;&gt;positions:w</title>
<path fill="none" stroke="#29235c" stroke-width="3" d="M1700.33,-759.96C1813.26,-759.96 1776.72,-929.23 1880.61,-939.48"/>
<polygon fill="#29235c" stroke="#29235c" stroke-width="3" points="1880.6,-942.98 1890.76,-939.96 1880.94,-935.99 1880.6,-942.98"/>
<text text-anchor="middle" x="1881.86" y="-911.16" font-family="Helvetica,sans-Serif" font-size="32.00" fill="#29235c">1</text>
<text text-anchor="middle" x="1694.1" y="-731.16" font-family="Helvetica,sans-Serif" font-size="32.00" fill="#29235c">*</text>
</g>
<!-- titles&#45;&gt;departments -->
<!-- titles&#45;&gt;departments -->
<g id="edge4" class="edge">
<title>titles:e&#45;&gt;departments:w</title>
<path fill="none" stroke="#29235c" stroke-width="3" d="M1700.33,-819.96C1873.1,-819.96 1750.17,-609.55 1777.54,-438.96 1788.28,-372.01 1762.85,-180.99 1813.54,-135.96 1986.48,17.64 2159.39,15.76 2333.97,-135.96 2467.5,-252 2274.57,-913.39 2437.05,-939.19"/>
<polygon fill="#29235c" stroke="#29235c" stroke-width="3" points="2436.95,-942.69 2447.19,-939.96 2437.48,-935.71 2436.95,-942.69"/>
<text text-anchor="middle" x="2456.08" y="-911.16" font-family="Helvetica,sans-Serif" font-size="32.00" fill="#29235c">1</text>
<text text-anchor="middle" x="1694.1" y="-791.16" font-family="Helvetica,sans-Serif" font-size="32.00" fill="#29235c">*</text>
</g>
<!-- users -->
<g id="users" class="node">
<title>users</title>
<ellipse fill="none" stroke="black" stroke-width="0" cx="902.91" cy="-572.96" rx="318.4" ry="554.24"/>
<polygon fill="#1d71b8" stroke="transparent" points="679.91,-902.96 679.91,-962.96 1125.91,-962.96 1125.91,-902.96 679.91,-902.96"/>
<polygon fill="none" stroke="#29235c" points="679.91,-902.96 679.91,-962.96 1125.91,-962.96 1125.91,-902.96 679.91,-902.96"/>
<text text-anchor="start" x="801.55" y="-924.16" font-family="Helvetica,sans-Serif" font-weight="bold" font-size="32.00" fill="#ffffff"> &#160;&#160;&#160;&#160;&#160;&#160;users &#160;&#160;&#160;&#160;&#160;&#160;</text>
<polygon fill="#e7e2dd" stroke="transparent" points="679.91,-842.96 679.91,-902.96 1125.91,-902.96 1125.91,-842.96 679.91,-842.96"/>
<polygon fill="none" stroke="#29235c" points="679.91,-842.96 679.91,-902.96 1125.91,-902.96 1125.91,-842.96 679.91,-842.96"/>
<text text-anchor="start" x="690.91" y="-864.16" font-family="Helvetica,sans-Serif" font-weight="bold" font-size="32.00" fill="#29235c">id</text>
<text text-anchor="start" x="715.8" y="-864.16" font-family="Helvetica,sans-Serif" font-size="32.00" fill="#29235c"> &#160;&#160;&#160;</text>
<text text-anchor="start" x="1081.13" y="-864.16" font-family="Helvetica,sans-Serif" font-style="italic" font-size="32.00" fill="#29235c">int</text>
<polygon fill="#e7e2dd" stroke="transparent" points="679.91,-782.96 679.91,-842.96 1125.91,-842.96 1125.91,-782.96 679.91,-782.96"/>
<polygon fill="none" stroke="#29235c" points="679.91,-782.96 679.91,-842.96 1125.91,-842.96 1125.91,-782.96 679.91,-782.96"/>
<text text-anchor="start" x="690.91" y="-803.16" font-family="Helvetica,sans-Serif" font-size="32.00" fill="#29235c">title_id &#160;&#160;&#160;</text>
<text text-anchor="start" x="1081.13" y="-804.16" font-family="Helvetica,sans-Serif" font-style="italic" font-size="32.00" fill="#29235c">int</text>
<polygon fill="#e7e2dd" stroke="transparent" points="679.91,-722.96 679.91,-782.96 1125.91,-782.96 1125.91,-722.96 679.91,-722.96"/>
<polygon fill="none" stroke="#29235c" points="679.91,-722.96 679.91,-782.96 1125.91,-782.96 1125.91,-722.96 679.91,-722.96"/>
<text text-anchor="start" x="690.91" y="-743.16" font-family="Helvetica,sans-Serif" font-size="32.00" fill="#29235c">role_id &#160;&#160;&#160;</text>
<text text-anchor="start" x="1081.13" y="-744.16" font-family="Helvetica,sans-Serif" font-style="italic" font-size="32.00" fill="#29235c">int</text>
<polygon fill="#e7e2dd" stroke="transparent" points="679.91,-662.96 679.91,-722.96 1125.91,-722.96 1125.91,-662.96 679.91,-662.96"/>
<polygon fill="none" stroke="#29235c" points="679.91,-662.96 679.91,-722.96 1125.91,-722.96 1125.91,-662.96 679.91,-662.96"/>
<text text-anchor="start" x="690.91" y="-683.16" font-family="Helvetica,sans-Serif" font-size="32.00" fill="#29235c">name &#160;&#160;&#160;</text>
<text text-anchor="start" x="969.15" y="-684.16" font-family="Helvetica,sans-Serif" font-style="italic" font-size="32.00" fill="#29235c">varchar</text>
<text text-anchor="start" x="1075.82" y="-684.16" font-family="Helvetica,sans-Serif" font-size="32.00" fill="#29235c"> </text>
<text text-anchor="start" x="1084.71" y="-684.16" font-family="Helvetica,sans-Serif" font-weight="bold" font-size="32.00" fill="#29235c">(!)</text>
<polygon fill="#e7e2dd" stroke="transparent" points="679.91,-602.96 679.91,-662.96 1125.91,-662.96 1125.91,-602.96 679.91,-602.96"/>
<polygon fill="none" stroke="#29235c" points="679.91,-602.96 679.91,-662.96 1125.91,-662.96 1125.91,-602.96 679.91,-602.96"/>
<text text-anchor="start" x="690.91" y="-623.16" font-family="Helvetica,sans-Serif" font-size="32.00" fill="#29235c">email &#160;&#160;&#160;</text>
<text text-anchor="start" x="969.15" y="-624.16" font-family="Helvetica,sans-Serif" font-style="italic" font-size="32.00" fill="#29235c">varchar</text>
<text text-anchor="start" x="1075.82" y="-624.16" font-family="Helvetica,sans-Serif" font-size="32.00" fill="#29235c"> </text>
<text text-anchor="start" x="1084.71" y="-624.16" font-family="Helvetica,sans-Serif" font-weight="bold" font-size="32.00" fill="#29235c">(!)</text>
<polygon fill="#e7e2dd" stroke="transparent" points="679.91,-542.96 679.91,-602.96 1125.91,-602.96 1125.91,-542.96 679.91,-542.96"/>
<polygon fill="none" stroke="#29235c" points="679.91,-542.96 679.91,-602.96 1125.91,-602.96 1125.91,-542.96 679.91,-542.96"/>
<text text-anchor="start" x="690.72" y="-563.16" font-family="Helvetica,sans-Serif" font-size="32.00" fill="#29235c">email_verified_at &#160;&#160;&#160;</text>
<text text-anchor="start" x="967.63" y="-564.16" font-family="Helvetica,sans-Serif" font-style="italic" font-size="32.00" fill="#29235c">timestamp</text>
<polygon fill="#e7e2dd" stroke="transparent" points="679.91,-482.96 679.91,-542.96 1125.91,-542.96 1125.91,-482.96 679.91,-482.96"/>
<polygon fill="none" stroke="#29235c" points="679.91,-482.96 679.91,-542.96 1125.91,-542.96 1125.91,-482.96 679.91,-482.96"/>
<text text-anchor="start" x="690.91" y="-503.16" font-family="Helvetica,sans-Serif" font-size="32.00" fill="#29235c">password &#160;&#160;&#160;</text>
<text text-anchor="start" x="969.15" y="-504.16" font-family="Helvetica,sans-Serif" font-style="italic" font-size="32.00" fill="#29235c">varchar</text>
<text text-anchor="start" x="1075.82" y="-504.16" font-family="Helvetica,sans-Serif" font-size="32.00" fill="#29235c"> </text>
<text text-anchor="start" x="1084.71" y="-504.16" font-family="Helvetica,sans-Serif" font-weight="bold" font-size="32.00" fill="#29235c">(!)</text>
<polygon fill="#e7e2dd" stroke="transparent" points="679.91,-422.96 679.91,-482.96 1125.91,-482.96 1125.91,-422.96 679.91,-422.96"/>
<polygon fill="none" stroke="#29235c" points="679.91,-422.96 679.91,-482.96 1125.91,-482.96 1125.91,-422.96 679.91,-422.96"/>
<text text-anchor="start" x="690.91" y="-443.16" font-family="Helvetica,sans-Serif" font-size="32.00" fill="#29235c">remember_token &#160;&#160;&#160;</text>
<text text-anchor="start" x="1008.24" y="-444.16" font-family="Helvetica,sans-Serif" font-style="italic" font-size="32.00" fill="#29235c">varchar</text>
<polygon fill="#e7e2dd" stroke="transparent" points="679.91,-362.96 679.91,-422.96 1125.91,-422.96 1125.91,-362.96 679.91,-362.96"/>
<polygon fill="none" stroke="#29235c" points="679.91,-362.96 679.91,-422.96 1125.91,-422.96 1125.91,-362.96 679.91,-362.96"/>
<text text-anchor="start" x="690.91" y="-383.16" font-family="Helvetica,sans-Serif" font-size="32.00" fill="#29235c">custom_fields &#160;&#160;&#160;</text>
<text text-anchor="start" x="1056.23" y="-384.16" font-family="Helvetica,sans-Serif" font-style="italic" font-size="32.00" fill="#29235c">json</text>
<polygon fill="#e7e2dd" stroke="transparent" points="679.91,-302.96 679.91,-362.96 1125.91,-362.96 1125.91,-302.96 679.91,-302.96"/>
<polygon fill="none" stroke="#29235c" points="679.91,-302.96 679.91,-362.96 1125.91,-362.96 1125.91,-302.96 679.91,-302.96"/>
<text text-anchor="start" x="690.91" y="-323.16" font-family="Helvetica,sans-Serif" font-size="32.00" fill="#29235c">avatar_url &#160;&#160;&#160;</text>
<text text-anchor="start" x="1008.24" y="-324.16" font-family="Helvetica,sans-Serif" font-style="italic" font-size="32.00" fill="#29235c">varchar</text>
<polygon fill="#e7e2dd" stroke="transparent" points="679.91,-242.96 679.91,-302.96 1125.91,-302.96 1125.91,-242.96 679.91,-242.96"/>
<polygon fill="none" stroke="#29235c" points="679.91,-242.96 679.91,-302.96 1125.91,-302.96 1125.91,-242.96 679.91,-242.96"/>
<text text-anchor="start" x="690.91" y="-263.16" font-family="Helvetica,sans-Serif" font-size="32.00" fill="#29235c">created_at &#160;&#160;&#160;</text>
<text text-anchor="start" x="967.35" y="-264.16" font-family="Helvetica,sans-Serif" font-style="italic" font-size="32.00" fill="#29235c">timestamp</text>
<polygon fill="#e7e2dd" stroke="transparent" points="679.91,-182.96 679.91,-242.96 1125.91,-242.96 1125.91,-182.96 679.91,-182.96"/>
<polygon fill="none" stroke="#29235c" points="679.91,-182.96 679.91,-242.96 1125.91,-242.96 1125.91,-182.96 679.91,-182.96"/>
<text text-anchor="start" x="690.91" y="-203.16" font-family="Helvetica,sans-Serif" font-size="32.00" fill="#29235c">updated_at &#160;&#160;&#160;</text>
<text text-anchor="start" x="967.35" y="-204.16" font-family="Helvetica,sans-Serif" font-style="italic" font-size="32.00" fill="#29235c">timestamp</text>
<polygon fill="none" stroke="#29235c" stroke-width="2" points="678.91,-181.96 678.91,-963.96 1126.91,-963.96 1126.91,-181.96 678.91,-181.96"/>
</g>
<!-- users&#45;&gt;roles -->
<!-- users&#45;&gt;roles -->
<g id="edge12" class="edge">
<title>users:e&#45;&gt;roles:w</title>
<path fill="none" stroke="#29235c" stroke-width="3" d="M1126.91,-752.96C1354.99,-752.96 1110.37,-289.32 1324.14,-275.29"/>
<polygon fill="#29235c" stroke="#29235c" stroke-width="3" points="1324.44,-278.78 1334.33,-274.96 1324.22,-271.78 1324.44,-278.78"/>
<text text-anchor="middle" x="1325.43" y="-246.16" font-family="Helvetica,sans-Serif" font-size="32.00" fill="#29235c">1</text>
<text text-anchor="middle" x="1120.69" y="-724.16" font-family="Helvetica,sans-Serif" font-size="32.00" fill="#29235c">*</text>
</g>
<!-- users&#45;&gt;titles -->
<!-- users&#45;&gt;titles -->
<g id="edge10" class="edge">
<title>users:e&#45;&gt;titles:w</title>
<path fill="none" stroke="#29235c" stroke-width="3" d="M1126.91,-812.96C1231.52,-812.96 1226.68,-931.91 1324.23,-939.57"/>
<polygon fill="#29235c" stroke="#29235c" stroke-width="3" points="1324.2,-943.07 1334.33,-939.96 1324.47,-936.08 1324.2,-943.07"/>
<text text-anchor="middle" x="1325.43" y="-911.16" font-family="Helvetica,sans-Serif" font-size="32.00" fill="#29235c">1</text>
<text text-anchor="middle" x="1118.02" y="-784.16" font-family="Helvetica,sans-Serif" font-size="32.00" fill="#29235c">1</text>
</g>
<!-- projects -->
<g id="projects" class="node">
<title>projects</title>
<ellipse fill="none" stroke="black" stroke-width="0" cx="1517.33" cy="-1474.96" rx="260.43" ry="257.27"/>
<polygon fill="#1d71b8" stroke="transparent" points="1335.33,-1594.96 1335.33,-1654.96 1699.33,-1654.96 1699.33,-1594.96 1335.33,-1594.96"/>
<polygon fill="none" stroke="#29235c" points="1335.33,-1594.96 1335.33,-1654.96 1699.33,-1654.96 1699.33,-1594.96 1335.33,-1594.96"/>
<text text-anchor="start" x="1399.07" y="-1616.16" font-family="Helvetica,sans-Serif" font-weight="bold" font-size="32.00" fill="#ffffff"> &#160;&#160;&#160;&#160;&#160;&#160;projects &#160;&#160;&#160;&#160;&#160;&#160;</text>
<polygon fill="#e7e2dd" stroke="transparent" points="1335.33,-1534.96 1335.33,-1594.96 1699.33,-1594.96 1699.33,-1534.96 1335.33,-1534.96"/>
<polygon fill="none" stroke="#29235c" points="1335.33,-1534.96 1335.33,-1594.96 1699.33,-1594.96 1699.33,-1534.96 1335.33,-1534.96"/>
<text text-anchor="start" x="1346.33" y="-1556.16" font-family="Helvetica,sans-Serif" font-weight="bold" font-size="32.00" fill="#29235c">id</text>
<text text-anchor="start" x="1371.22" y="-1556.16" font-family="Helvetica,sans-Serif" font-size="32.00" fill="#29235c"> &#160;&#160;&#160;</text>
<text text-anchor="start" x="1654.54" y="-1556.16" font-family="Helvetica,sans-Serif" font-style="italic" font-size="32.00" fill="#29235c">int</text>
<polygon fill="#e7e2dd" stroke="transparent" points="1335.33,-1474.96 1335.33,-1534.96 1699.33,-1534.96 1699.33,-1474.96 1335.33,-1474.96"/>
<polygon fill="none" stroke="#29235c" points="1335.33,-1474.96 1335.33,-1534.96 1699.33,-1534.96 1699.33,-1474.96 1335.33,-1474.96"/>
<text text-anchor="start" x="1346.33" y="-1495.16" font-family="Helvetica,sans-Serif" font-size="32.00" fill="#29235c">name &#160;&#160;&#160;</text>
<text text-anchor="start" x="1542.56" y="-1496.16" font-family="Helvetica,sans-Serif" font-style="italic" font-size="32.00" fill="#29235c">varchar</text>
<text text-anchor="start" x="1649.24" y="-1496.16" font-family="Helvetica,sans-Serif" font-size="32.00" fill="#29235c"> </text>
<text text-anchor="start" x="1658.13" y="-1496.16" font-family="Helvetica,sans-Serif" font-weight="bold" font-size="32.00" fill="#29235c">(!)</text>
<polygon fill="#e7e2dd" stroke="transparent" points="1335.33,-1414.96 1335.33,-1474.96 1699.33,-1474.96 1699.33,-1414.96 1335.33,-1414.96"/>
<polygon fill="none" stroke="#29235c" points="1335.33,-1414.96 1335.33,-1474.96 1699.33,-1474.96 1699.33,-1414.96 1335.33,-1414.96"/>
<text text-anchor="start" x="1346.33" y="-1435.16" font-family="Helvetica,sans-Serif" font-size="32.00" fill="#29235c">code &#160;&#160;&#160;</text>
<text text-anchor="start" x="1581.65" y="-1436.16" font-family="Helvetica,sans-Serif" font-style="italic" font-size="32.00" fill="#29235c">varchar</text>
<polygon fill="#e7e2dd" stroke="transparent" points="1335.33,-1354.96 1335.33,-1414.96 1699.33,-1414.96 1699.33,-1354.96 1335.33,-1354.96"/>
<polygon fill="none" stroke="#29235c" points="1335.33,-1354.96 1335.33,-1414.96 1699.33,-1414.96 1699.33,-1354.96 1335.33,-1354.96"/>
<text text-anchor="start" x="1346.33" y="-1375.16" font-family="Helvetica,sans-Serif" font-size="32.00" fill="#29235c">created_at &#160;&#160;&#160;</text>
<text text-anchor="start" x="1540.77" y="-1376.16" font-family="Helvetica,sans-Serif" font-style="italic" font-size="32.00" fill="#29235c">timestamp</text>
<polygon fill="#e7e2dd" stroke="transparent" points="1335.33,-1294.96 1335.33,-1354.96 1699.33,-1354.96 1699.33,-1294.96 1335.33,-1294.96"/>
<polygon fill="none" stroke="#29235c" points="1335.33,-1294.96 1335.33,-1354.96 1699.33,-1354.96 1699.33,-1294.96 1335.33,-1294.96"/>
<text text-anchor="start" x="1345.99" y="-1315.16" font-family="Helvetica,sans-Serif" font-size="32.00" fill="#29235c">updated_at &#160;&#160;&#160;</text>
<text text-anchor="start" x="1541.05" y="-1316.16" font-family="Helvetica,sans-Serif" font-style="italic" font-size="32.00" fill="#29235c">timestamp</text>
<polygon fill="none" stroke="#29235c" stroke-width="2" points="1334.33,-1293.96 1334.33,-1655.96 1700.33,-1655.96 1700.33,-1293.96 1334.33,-1293.96"/>
</g>
<!-- squads -->
<g id="squads" class="node">
<title>squads</title>
<ellipse fill="none" stroke="black" stroke-width="0" cx="902.91" cy="-1444.96" rx="260.43" ry="299.63"/>
<polygon fill="#1d71b8" stroke="transparent" points="720.91,-1594.96 720.91,-1654.96 1084.91,-1654.96 1084.91,-1594.96 720.91,-1594.96"/>
<polygon fill="none" stroke="#29235c" points="720.91,-1594.96 720.91,-1654.96 1084.91,-1654.96 1084.91,-1594.96 720.91,-1594.96"/>
<text text-anchor="start" x="789.09" y="-1616.16" font-family="Helvetica,sans-Serif" font-weight="bold" font-size="32.00" fill="#ffffff"> &#160;&#160;&#160;&#160;&#160;&#160;squads &#160;&#160;&#160;&#160;&#160;&#160;</text>
<polygon fill="#e7e2dd" stroke="transparent" points="720.91,-1534.96 720.91,-1594.96 1084.91,-1594.96 1084.91,-1534.96 720.91,-1534.96"/>
<polygon fill="none" stroke="#29235c" points="720.91,-1534.96 720.91,-1594.96 1084.91,-1594.96 1084.91,-1534.96 720.91,-1534.96"/>
<text text-anchor="start" x="731.91" y="-1556.16" font-family="Helvetica,sans-Serif" font-weight="bold" font-size="32.00" fill="#29235c">id</text>
<text text-anchor="start" x="756.8" y="-1556.16" font-family="Helvetica,sans-Serif" font-size="32.00" fill="#29235c"> &#160;&#160;&#160;</text>
<text text-anchor="start" x="1040.13" y="-1556.16" font-family="Helvetica,sans-Serif" font-style="italic" font-size="32.00" fill="#29235c">int</text>
<polygon fill="#e7e2dd" stroke="transparent" points="720.91,-1474.96 720.91,-1534.96 1084.91,-1534.96 1084.91,-1474.96 720.91,-1474.96"/>
<polygon fill="none" stroke="#29235c" points="720.91,-1474.96 720.91,-1534.96 1084.91,-1534.96 1084.91,-1474.96 720.91,-1474.96"/>
<text text-anchor="start" x="731.91" y="-1495.16" font-family="Helvetica,sans-Serif" font-size="32.00" fill="#29235c">project_id &#160;&#160;&#160;</text>
<text text-anchor="start" x="1040.13" y="-1496.16" font-family="Helvetica,sans-Serif" font-style="italic" font-size="32.00" fill="#29235c">int</text>
<polygon fill="#e7e2dd" stroke="transparent" points="720.91,-1414.96 720.91,-1474.96 1084.91,-1474.96 1084.91,-1414.96 720.91,-1414.96"/>
<polygon fill="none" stroke="#29235c" points="720.91,-1414.96 720.91,-1474.96 1084.91,-1474.96 1084.91,-1414.96 720.91,-1414.96"/>
<text text-anchor="start" x="731.91" y="-1435.16" font-family="Helvetica,sans-Serif" font-size="32.00" fill="#29235c">name &#160;&#160;&#160;</text>
<text text-anchor="start" x="967.24" y="-1436.16" font-family="Helvetica,sans-Serif" font-style="italic" font-size="32.00" fill="#29235c">varchar</text>
<polygon fill="#e7e2dd" stroke="transparent" points="720.91,-1354.96 720.91,-1414.96 1084.91,-1414.96 1084.91,-1354.96 720.91,-1354.96"/>
<polygon fill="none" stroke="#29235c" points="720.91,-1354.96 720.91,-1414.96 1084.91,-1414.96 1084.91,-1354.96 720.91,-1354.96"/>
<text text-anchor="start" x="731.91" y="-1375.16" font-family="Helvetica,sans-Serif" font-size="32.00" fill="#29235c">code &#160;&#160;&#160;</text>
<text text-anchor="start" x="967.24" y="-1376.16" font-family="Helvetica,sans-Serif" font-style="italic" font-size="32.00" fill="#29235c">varchar</text>
<polygon fill="#e7e2dd" stroke="transparent" points="720.91,-1294.96 720.91,-1354.96 1084.91,-1354.96 1084.91,-1294.96 720.91,-1294.96"/>
<polygon fill="none" stroke="#29235c" points="720.91,-1294.96 720.91,-1354.96 1084.91,-1354.96 1084.91,-1294.96 720.91,-1294.96"/>
<text text-anchor="start" x="731.91" y="-1315.16" font-family="Helvetica,sans-Serif" font-size="32.00" fill="#29235c">created_at &#160;&#160;&#160;</text>
<text text-anchor="start" x="926.35" y="-1316.16" font-family="Helvetica,sans-Serif" font-style="italic" font-size="32.00" fill="#29235c">timestamp</text>
<polygon fill="#e7e2dd" stroke="transparent" points="720.91,-1234.96 720.91,-1294.96 1084.91,-1294.96 1084.91,-1234.96 720.91,-1234.96"/>
<polygon fill="none" stroke="#29235c" points="720.91,-1234.96 720.91,-1294.96 1084.91,-1294.96 1084.91,-1234.96 720.91,-1234.96"/>
<text text-anchor="start" x="731.58" y="-1255.16" font-family="Helvetica,sans-Serif" font-size="32.00" fill="#29235c">updated_at &#160;&#160;&#160;</text>
<text text-anchor="start" x="926.63" y="-1256.16" font-family="Helvetica,sans-Serif" font-style="italic" font-size="32.00" fill="#29235c">timestamp</text>
<polygon fill="none" stroke="#29235c" stroke-width="2" points="719.91,-1233.96 719.91,-1655.96 1085.91,-1655.96 1085.91,-1233.96 719.91,-1233.96"/>
</g>
<!-- squads&#45;&gt;projects -->
<!-- squads&#45;&gt;projects -->
<g id="edge14" class="edge">
<title>squads:e&#45;&gt;projects:w</title>
<path fill="none" stroke="#29235c" stroke-width="3" d="M1085.91,-1504.96C1196.06,-1504.96 1219.37,-1561.38 1324.26,-1564.8"/>
<polygon fill="#29235c" stroke="#29235c" stroke-width="3" points="1324.27,-1568.3 1334.33,-1564.96 1324.38,-1561.3 1324.27,-1568.3"/>
<text text-anchor="middle" x="1325.43" y="-1574.56" font-family="Helvetica,sans-Serif" font-size="32.00" fill="#29235c">1</text>
<text text-anchor="middle" x="1079.69" y="-1514.56" font-family="Helvetica,sans-Serif" font-size="32.00" fill="#29235c">*</text>
</g>
<!-- squad_members -->
<g id="squad_members" class="node">
<title>squad_members</title>
<ellipse fill="none" stroke="black" stroke-width="0" cx="274.36" cy="-1188.96" rx="274.21" ry="257.27"/>
<polygon fill="#1d71b8" stroke="transparent" points="82.36,-1308.96 82.36,-1368.96 466.36,-1368.96 466.36,-1308.96 82.36,-1308.96"/>
<polygon fill="none" stroke="#29235c" points="82.36,-1308.96 82.36,-1368.96 466.36,-1368.96 466.36,-1308.96 82.36,-1308.96"/>
<text text-anchor="start" x="92.97" y="-1330.16" font-family="Helvetica,sans-Serif" font-weight="bold" font-size="32.00" fill="#ffffff"> &#160;&#160;&#160;&#160;&#160;&#160;squad_members &#160;&#160;&#160;&#160;&#160;&#160;</text>
<polygon fill="#e7e2dd" stroke="transparent" points="82.36,-1248.96 82.36,-1308.96 466.36,-1308.96 466.36,-1248.96 82.36,-1248.96"/>
<polygon fill="none" stroke="#29235c" points="82.36,-1248.96 82.36,-1308.96 466.36,-1308.96 466.36,-1248.96 82.36,-1248.96"/>
<text text-anchor="start" x="93.36" y="-1270.16" font-family="Helvetica,sans-Serif" font-weight="bold" font-size="32.00" fill="#29235c">id</text>
<text text-anchor="start" x="118.25" y="-1270.16" font-family="Helvetica,sans-Serif" font-size="32.00" fill="#29235c"> &#160;&#160;&#160;</text>
<text text-anchor="start" x="421.58" y="-1270.16" font-family="Helvetica,sans-Serif" font-style="italic" font-size="32.00" fill="#29235c">int</text>
<polygon fill="#e7e2dd" stroke="transparent" points="82.36,-1188.96 82.36,-1248.96 466.36,-1248.96 466.36,-1188.96 82.36,-1188.96"/>
<polygon fill="none" stroke="#29235c" points="82.36,-1188.96 82.36,-1248.96 466.36,-1248.96 466.36,-1188.96 82.36,-1188.96"/>
<text text-anchor="start" x="93.36" y="-1209.16" font-family="Helvetica,sans-Serif" font-size="32.00" fill="#29235c">squad_id &#160;&#160;&#160;</text>
<text text-anchor="start" x="421.58" y="-1210.16" font-family="Helvetica,sans-Serif" font-style="italic" font-size="32.00" fill="#29235c">int</text>
<polygon fill="#e7e2dd" stroke="transparent" points="82.36,-1128.96 82.36,-1188.96 466.36,-1188.96 466.36,-1128.96 82.36,-1128.96"/>
<polygon fill="none" stroke="#29235c" points="82.36,-1128.96 82.36,-1188.96 466.36,-1188.96 466.36,-1128.96 82.36,-1128.96"/>
<text text-anchor="start" x="93.36" y="-1149.16" font-family="Helvetica,sans-Serif" font-size="32.00" fill="#29235c">user_id &#160;&#160;&#160;</text>
<text text-anchor="start" x="421.58" y="-1150.16" font-family="Helvetica,sans-Serif" font-style="italic" font-size="32.00" fill="#29235c">int</text>
<polygon fill="#e7e2dd" stroke="transparent" points="82.36,-1068.96 82.36,-1128.96 466.36,-1128.96 466.36,-1068.96 82.36,-1068.96"/>
<polygon fill="none" stroke="#29235c" points="82.36,-1068.96 82.36,-1128.96 466.36,-1128.96 466.36,-1068.96 82.36,-1068.96"/>
<text text-anchor="start" x="93.36" y="-1089.16" font-family="Helvetica,sans-Serif" font-size="32.00" fill="#29235c">created_at &#160;&#160;&#160;</text>
<text text-anchor="start" x="307.8" y="-1090.16" font-family="Helvetica,sans-Serif" font-style="italic" font-size="32.00" fill="#29235c">timestamp</text>
<polygon fill="#e7e2dd" stroke="transparent" points="82.36,-1008.96 82.36,-1068.96 466.36,-1068.96 466.36,-1008.96 82.36,-1008.96"/>
<polygon fill="none" stroke="#29235c" points="82.36,-1008.96 82.36,-1068.96 466.36,-1068.96 466.36,-1008.96 82.36,-1008.96"/>
<text text-anchor="start" x="93.36" y="-1029.16" font-family="Helvetica,sans-Serif" font-size="32.00" fill="#29235c">updated_at &#160;&#160;&#160;</text>
<text text-anchor="start" x="307.8" y="-1030.16" font-family="Helvetica,sans-Serif" font-style="italic" font-size="32.00" fill="#29235c">timestamp</text>
<polygon fill="none" stroke="#29235c" stroke-width="2" points="81.36,-1007.96 81.36,-1369.96 467.36,-1369.96 467.36,-1007.96 81.36,-1007.96"/>
</g>
<!-- squad_members&#45;&gt;users -->
<!-- squad_members&#45;&gt;users -->
<g id="edge18" class="edge">
<title>squad_members:e&#45;&gt;users:w</title>
<path fill="none" stroke="#29235c" stroke-width="3" d="M467.36,-1158.96C621.91,-1158.96 525.37,-885.66 668.65,-873.39"/>
<polygon fill="#29235c" stroke="#29235c" stroke-width="3" points="669.07,-876.87 678.91,-872.96 668.78,-869.88 669.07,-876.87"/>
<text text-anchor="middle" x="670.02" y="-844.16" font-family="Helvetica,sans-Serif" font-size="32.00" fill="#29235c">1</text>
<text text-anchor="middle" x="461.14" y="-1130.16" font-family="Helvetica,sans-Serif" font-size="32.00" fill="#29235c">*</text>
</g>
<!-- squad_members&#45;&gt;squads -->
<!-- squad_members&#45;&gt;squads -->
<g id="edge16" class="edge">
<title>squad_members:e&#45;&gt;squads:w</title>
<path fill="none" stroke="#29235c" stroke-width="3" d="M467.36,-1218.96C654.3,-1218.96 534.06,-1552.57 709.9,-1564.63"/>
<polygon fill="#29235c" stroke="#29235c" stroke-width="3" points="709.8,-1568.12 719.91,-1564.96 710.04,-1561.13 709.8,-1568.12"/>
<text text-anchor="middle" x="711.02" y="-1574.56" font-family="Helvetica,sans-Serif" font-size="32.00" fill="#29235c">1</text>
<text text-anchor="middle" x="461.14" y="-1190.16" font-family="Helvetica,sans-Serif" font-size="32.00" fill="#29235c">*</text>
</g>
</g>
</svg>
