<?xml version="1.0" encoding="UTF-8" standalone="no"?>
<!DOCTYPE svg PUBLIC "-//W3C//DTD SVG 1.1//EN"
 "http://www.w3.org/Graphics/SVG/1.1/DTD/svg11.dtd">
<!-- Generated by graphviz version 2.47.0 (20210316.0004)
 -->
<!-- Title: dbml Pages: 1 -->
<svg width="1113pt" height="666pt"
 viewBox="0.00 0.00 1113.15 666.07" xmlns="http://www.w3.org/2000/svg" xmlns:xlink="http://www.w3.org/1999/xlink">
<g id="graph0" class="graph" transform="scale(1 1) rotate(0) translate(4 662.07)">
<title>dbml</title>
<!-- squads -->
<g id="squads" class="node">
<title>squads</title>
<ellipse fill="none" stroke="black" stroke-width="0" cx="844.93" cy="-257.39" rx="260.43" ry="257.27"/>
<polygon fill="#1d71b8" stroke="transparent" points="662.93,-377.39 662.93,-437.39 1026.93,-437.39 1026.93,-377.39 662.93,-377.39"/>
<polygon fill="none" stroke="#29235c" points="662.93,-377.39 662.93,-437.39 1026.93,-437.39 1026.93,-377.39 662.93,-377.39"/>
<text text-anchor="start" x="731.1" y="-398.59" font-family="Helvetica,sans-Serif" font-weight="bold" font-size="32.00" fill="#ffffff"> &#160;&#160;&#160;&#160;&#160;&#160;squads &#160;&#160;&#160;&#160;&#160;&#160;</text>
<polygon fill="#e7e2dd" stroke="transparent" points="662.93,-317.39 662.93,-377.39 1026.93,-377.39 1026.93,-317.39 662.93,-317.39"/>
<polygon fill="none" stroke="#29235c" points="662.93,-317.39 662.93,-377.39 1026.93,-377.39 1026.93,-317.39 662.93,-317.39"/>
<text text-anchor="start" x="673.93" y="-338.59" font-family="Helvetica,sans-Serif" font-weight="bold" font-size="32.00" fill="#29235c">id</text>
<text text-anchor="start" x="698.82" y="-338.59" font-family="Helvetica,sans-Serif" font-size="32.00" fill="#29235c"> &#160;&#160;&#160;</text>
<text text-anchor="start" x="982.15" y="-338.59" font-family="Helvetica,sans-Serif" font-style="italic" font-size="32.00" fill="#29235c">int</text>
<polygon fill="#e7e2dd" stroke="transparent" points="662.93,-257.39 662.93,-317.39 1026.93,-317.39 1026.93,-257.39 662.93,-257.39"/>
<polygon fill="none" stroke="#29235c" points="662.93,-257.39 662.93,-317.39 1026.93,-317.39 1026.93,-257.39 662.93,-257.39"/>
<text text-anchor="start" x="673.93" y="-277.59" font-family="Helvetica,sans-Serif" font-size="32.00" fill="#29235c">name &#160;&#160;&#160;</text>
<text text-anchor="start" x="909.26" y="-278.59" font-family="Helvetica,sans-Serif" font-style="italic" font-size="32.00" fill="#29235c">varchar</text>
<polygon fill="#e7e2dd" stroke="transparent" points="662.93,-197.39 662.93,-257.39 1026.93,-257.39 1026.93,-197.39 662.93,-197.39"/>
<polygon fill="none" stroke="#29235c" points="662.93,-197.39 662.93,-257.39 1026.93,-257.39 1026.93,-197.39 662.93,-197.39"/>
<text text-anchor="start" x="673.93" y="-217.59" font-family="Helvetica,sans-Serif" font-size="32.00" fill="#29235c">code &#160;&#160;&#160;</text>
<text text-anchor="start" x="909.26" y="-218.59" font-family="Helvetica,sans-Serif" font-style="italic" font-size="32.00" fill="#29235c">varchar</text>
<polygon fill="#e7e2dd" stroke="transparent" points="662.93,-137.39 662.93,-197.39 1026.93,-197.39 1026.93,-137.39 662.93,-137.39"/>
<polygon fill="none" stroke="#29235c" points="662.93,-137.39 662.93,-197.39 1026.93,-197.39 1026.93,-137.39 662.93,-137.39"/>
<text text-anchor="start" x="673.93" y="-157.59" font-family="Helvetica,sans-Serif" font-size="32.00" fill="#29235c">created_at &#160;&#160;&#160;</text>
<text text-anchor="start" x="868.37" y="-158.59" font-family="Helvetica,sans-Serif" font-style="italic" font-size="32.00" fill="#29235c">timestamp</text>
<polygon fill="#e7e2dd" stroke="transparent" points="662.93,-77.39 662.93,-137.39 1026.93,-137.39 1026.93,-77.39 662.93,-77.39"/>
<polygon fill="none" stroke="#29235c" points="662.93,-77.39 662.93,-137.39 1026.93,-137.39 1026.93,-77.39 662.93,-77.39"/>
<text text-anchor="start" x="673.6" y="-97.59" font-family="Helvetica,sans-Serif" font-size="32.00" fill="#29235c">updated_at &#160;&#160;&#160;</text>
<text text-anchor="start" x="868.65" y="-98.59" font-family="Helvetica,sans-Serif" font-style="italic" font-size="32.00" fill="#29235c">timestamp</text>
<polygon fill="none" stroke="#29235c" stroke-width="2" points="661.93,-76.39 661.93,-438.39 1027.93,-438.39 1027.93,-76.39 661.93,-76.39"/>
</g>
<!-- project_squads -->
<g id="project_squads" class="node">
<title>project_squads</title>
<ellipse fill="none" stroke="black" stroke-width="0" cx="274.36" cy="-570.39" rx="259.52" ry="87.86"/>
<polygon fill="#1d71b8" stroke="transparent" points="93.36,-570.39 93.36,-630.39 456.36,-630.39 456.36,-570.39 93.36,-570.39"/>
<polygon fill="none" stroke="#29235c" points="93.36,-570.39 93.36,-630.39 456.36,-630.39 456.36,-570.39 93.36,-570.39"/>
<text text-anchor="start" x="104.13" y="-591.59" font-family="Helvetica,sans-Serif" font-weight="bold" font-size="32.00" fill="#ffffff"> &#160;&#160;&#160;&#160;&#160;&#160;project_squads &#160;&#160;&#160;&#160;&#160;&#160;</text>
<polygon fill="#e7e2dd" stroke="transparent" points="93.36,-510.39 93.36,-570.39 456.36,-570.39 456.36,-510.39 93.36,-510.39"/>
<polygon fill="none" stroke="#29235c" points="93.36,-510.39 93.36,-570.39 456.36,-570.39 456.36,-510.39 93.36,-510.39"/>
<text text-anchor="start" x="104.36" y="-530.59" font-family="Helvetica,sans-Serif" font-size="32.00" fill="#29235c">squad_id &#160;&#160;&#160;</text>
<text text-anchor="start" x="411.58" y="-531.59" font-family="Helvetica,sans-Serif" font-style="italic" font-size="32.00" fill="#29235c">int</text>
<polygon fill="none" stroke="#29235c" stroke-width="2" points="91.86,-509.39 91.86,-631.39 456.86,-631.39 456.86,-509.39 91.86,-509.39"/>
</g>
<!-- project_squads&#45;&gt;squads -->
<!-- project_squads&#45;&gt;squads -->
<g id="edge2" class="edge">
<title>project_squads:e&#45;&gt;squads:w</title>
<path fill="none" stroke="#29235c" stroke-width="3" d="M457.36,-540.39C507.45,-540.39 511.53,-507.95 548.71,-474.39 602.22,-426.1 587.89,-354.49 651.9,-347.88"/>
<polygon fill="#29235c" stroke="#29235c" stroke-width="3" points="652.11,-351.37 661.93,-347.39 651.77,-344.38 652.11,-351.37"/>
<text text-anchor="middle" x="653.04" y="-356.99" font-family="Helvetica,sans-Serif" font-size="32.00" fill="#29235c">1</text>
<text text-anchor="middle" x="463.58" y="-549.99" font-family="Helvetica,sans-Serif" font-size="32.00" fill="#29235c">*</text>
</g>
<!-- squad_members -->
<g id="squad_members" class="node">
<title>squad_members</title>
<ellipse fill="none" stroke="black" stroke-width="0" cx="274.36" cy="-377.39" rx="274.21" ry="87.86"/>
<polygon fill="#1d71b8" stroke="transparent" points="82.36,-377.39 82.36,-437.39 466.36,-437.39 466.36,-377.39 82.36,-377.39"/>
<polygon fill="none" stroke="#29235c" points="82.36,-377.39 82.36,-437.39 466.36,-437.39 466.36,-377.39 82.36,-377.39"/>
<text text-anchor="start" x="92.97" y="-398.59" font-family="Helvetica,sans-Serif" font-weight="bold" font-size="32.00" fill="#ffffff"> &#160;&#160;&#160;&#160;&#160;&#160;squad_members &#160;&#160;&#160;&#160;&#160;&#160;</text>
<polygon fill="#e7e2dd" stroke="transparent" points="82.36,-317.39 82.36,-377.39 466.36,-377.39 466.36,-317.39 82.36,-317.39"/>
<polygon fill="none" stroke="#29235c" points="82.36,-317.39 82.36,-377.39 466.36,-377.39 466.36,-317.39 82.36,-317.39"/>
<text text-anchor="start" x="93.36" y="-337.59" font-family="Helvetica,sans-Serif" font-size="32.00" fill="#29235c">squad_id &#160;&#160;&#160;</text>
<text text-anchor="start" x="421.58" y="-338.59" font-family="Helvetica,sans-Serif" font-style="italic" font-size="32.00" fill="#29235c">int</text>
<polygon fill="none" stroke="#29235c" stroke-width="2" points="81.36,-316.39 81.36,-438.39 467.36,-438.39 467.36,-316.39 81.36,-316.39"/>
</g>
<!-- squad_members&#45;&gt;squads -->
<!-- squad_members&#45;&gt;squads -->
<g id="edge4" class="edge">
<title>squad_members:e&#45;&gt;squads:w</title>
<path fill="none" stroke="#29235c" stroke-width="3" d="M467.36,-347.39C550.29,-347.39 573.57,-347.39 651.61,-347.39"/>
<polygon fill="#29235c" stroke="#29235c" stroke-width="3" points="651.93,-350.89 661.93,-347.39 651.93,-343.89 651.93,-350.89"/>
<text text-anchor="middle" x="670.82" y="-356.99" font-family="Helvetica,sans-Serif" font-size="32.00" fill="#29235c">1</text>
<text text-anchor="middle" x="473.58" y="-356.99" font-family="Helvetica,sans-Serif" font-size="32.00" fill="#29235c">*</text>
</g>
<!-- sprints -->
<g id="sprints" class="node">
<title>sprints</title>
<ellipse fill="none" stroke="black" stroke-width="0" cx="274.36" cy="-184.39" rx="172.57" ry="87.86"/>
<polygon fill="#1d71b8" stroke="transparent" points="154.36,-184.39 154.36,-244.39 394.36,-244.39 394.36,-184.39 154.36,-184.39"/>
<polygon fill="none" stroke="#29235c" points="154.36,-184.39 154.36,-244.39 394.36,-244.39 394.36,-184.39 154.36,-184.39"/>
<text text-anchor="start" x="165" y="-205.59" font-family="Helvetica,sans-Serif" font-weight="bold" font-size="32.00" fill="#ffffff"> &#160;&#160;&#160;&#160;&#160;&#160;sprints &#160;&#160;&#160;&#160;&#160;&#160;</text>
<polygon fill="#e7e2dd" stroke="transparent" points="154.36,-124.39 154.36,-184.39 394.36,-184.39 394.36,-124.39 154.36,-124.39"/>
<polygon fill="none" stroke="#29235c" points="154.36,-124.39 154.36,-184.39 394.36,-184.39 394.36,-124.39 154.36,-124.39"/>
<text text-anchor="start" x="165.36" y="-144.59" font-family="Helvetica,sans-Serif" font-size="32.00" fill="#29235c">squad_id &#160;&#160;&#160;</text>
<text text-anchor="start" x="349.58" y="-145.59" font-family="Helvetica,sans-Serif" font-style="italic" font-size="32.00" fill="#29235c">int</text>
<polygon fill="none" stroke="#29235c" stroke-width="2" points="153.36,-123.39 153.36,-245.39 395.36,-245.39 395.36,-123.39 153.36,-123.39"/>
</g>
<!-- sprints&#45;&gt;squads -->
<!-- sprints&#45;&gt;squads -->
<g id="edge6" class="edge">
<title>sprints:e&#45;&gt;squads:w</title>
<path fill="none" stroke="#29235c" stroke-width="3" d="M395.36,-154.39C465.21,-154.39 578.08,-330.44 651.8,-346.25"/>
<polygon fill="#29235c" stroke="#29235c" stroke-width="3" points="651.6,-349.75 661.93,-347.39 652.38,-342.8 651.6,-349.75"/>
<text text-anchor="middle" x="653.04" y="-318.59" font-family="Helvetica,sans-Serif" font-size="32.00" fill="#29235c">1</text>
<text text-anchor="middle" x="401.58" y="-125.59" font-family="Helvetica,sans-Serif" font-size="32.00" fill="#29235c">*</text>
</g>
</g>
</svg>
