<?xml version="1.0" encoding="UTF-8" standalone="no"?>
<!DOCTYPE svg PUBLIC "-//W3C//DTD SVG 1.1//EN"
 "http://www.w3.org/Graphics/SVG/1.1/DTD/svg11.dtd">
<!-- Generated by graphviz version 2.47.0 (20210316.0004)
 -->
<!-- Title: dbml Pages: 1 -->
<svg width="1670pt" height="641pt"
 viewBox="0.00 0.00 1669.58 641.49" xmlns="http://www.w3.org/2000/svg" xmlns:xlink="http://www.w3.org/1999/xlink">
<g id="graph0" class="graph" transform="scale(1 1) rotate(0) translate(4 637.49)">
<title>dbml</title>
<!-- projects -->
<g id="projects" class="node">
<title>projects</title>
<ellipse fill="none" stroke="black" stroke-width="0" cx="1401.36" cy="-329.81" rx="260.43" ry="257.27"/>
<polygon fill="#1d71b8" stroke="transparent" points="1219.36,-449.81 1219.36,-509.81 1583.36,-509.81 1583.36,-449.81 1219.36,-449.81"/>
<polygon fill="none" stroke="#29235c" points="1219.36,-449.81 1219.36,-509.81 1583.36,-509.81 1583.36,-449.81 1219.36,-449.81"/>
<text text-anchor="start" x="1283.1" y="-471.01" font-family="Helvetica,sans-Serif" font-weight="bold" font-size="32.00" fill="#ffffff"> &#160;&#160;&#160;&#160;&#160;&#160;projects &#160;&#160;&#160;&#160;&#160;&#160;</text>
<polygon fill="#e7e2dd" stroke="transparent" points="1219.36,-389.81 1219.36,-449.81 1583.36,-449.81 1583.36,-389.81 1219.36,-389.81"/>
<polygon fill="none" stroke="#29235c" points="1219.36,-389.81 1219.36,-449.81 1583.36,-449.81 1583.36,-389.81 1219.36,-389.81"/>
<text text-anchor="start" x="1230.36" y="-411.01" font-family="Helvetica,sans-Serif" font-weight="bold" font-size="32.00" fill="#29235c">id</text>
<text text-anchor="start" x="1255.25" y="-411.01" font-family="Helvetica,sans-Serif" font-size="32.00" fill="#29235c"> &#160;&#160;&#160;</text>
<text text-anchor="start" x="1538.58" y="-411.01" font-family="Helvetica,sans-Serif" font-style="italic" font-size="32.00" fill="#29235c">int</text>
<polygon fill="#e7e2dd" stroke="transparent" points="1219.36,-329.81 1219.36,-389.81 1583.36,-389.81 1583.36,-329.81 1219.36,-329.81"/>
<polygon fill="none" stroke="#29235c" points="1219.36,-329.81 1219.36,-389.81 1583.36,-389.81 1583.36,-329.81 1219.36,-329.81"/>
<text text-anchor="start" x="1230.36" y="-350.01" font-family="Helvetica,sans-Serif" font-size="32.00" fill="#29235c">name &#160;&#160;&#160;</text>
<text text-anchor="start" x="1426.6" y="-351.01" font-family="Helvetica,sans-Serif" font-style="italic" font-size="32.00" fill="#29235c">varchar</text>
<text text-anchor="start" x="1533.27" y="-351.01" font-family="Helvetica,sans-Serif" font-size="32.00" fill="#29235c"> </text>
<text text-anchor="start" x="1542.16" y="-351.01" font-family="Helvetica,sans-Serif" font-weight="bold" font-size="32.00" fill="#29235c">(!)</text>
<polygon fill="#e7e2dd" stroke="transparent" points="1219.36,-269.81 1219.36,-329.81 1583.36,-329.81 1583.36,-269.81 1219.36,-269.81"/>
<polygon fill="none" stroke="#29235c" points="1219.36,-269.81 1219.36,-329.81 1583.36,-329.81 1583.36,-269.81 1219.36,-269.81"/>
<text text-anchor="start" x="1230.36" y="-290.01" font-family="Helvetica,sans-Serif" font-size="32.00" fill="#29235c">code &#160;&#160;&#160;</text>
<text text-anchor="start" x="1465.69" y="-291.01" font-family="Helvetica,sans-Serif" font-style="italic" font-size="32.00" fill="#29235c">varchar</text>
<polygon fill="#e7e2dd" stroke="transparent" points="1219.36,-209.81 1219.36,-269.81 1583.36,-269.81 1583.36,-209.81 1219.36,-209.81"/>
<polygon fill="none" stroke="#29235c" points="1219.36,-209.81 1219.36,-269.81 1583.36,-269.81 1583.36,-209.81 1219.36,-209.81"/>
<text text-anchor="start" x="1230.36" y="-230.01" font-family="Helvetica,sans-Serif" font-size="32.00" fill="#29235c">created_at &#160;&#160;&#160;</text>
<text text-anchor="start" x="1424.8" y="-231.01" font-family="Helvetica,sans-Serif" font-style="italic" font-size="32.00" fill="#29235c">timestamp</text>
<polygon fill="#e7e2dd" stroke="transparent" points="1219.36,-149.81 1219.36,-209.81 1583.36,-209.81 1583.36,-149.81 1219.36,-149.81"/>
<polygon fill="none" stroke="#29235c" points="1219.36,-149.81 1219.36,-209.81 1583.36,-209.81 1583.36,-149.81 1219.36,-149.81"/>
<text text-anchor="start" x="1230.03" y="-170.01" font-family="Helvetica,sans-Serif" font-size="32.00" fill="#29235c">updated_at &#160;&#160;&#160;</text>
<text text-anchor="start" x="1425.08" y="-171.01" font-family="Helvetica,sans-Serif" font-style="italic" font-size="32.00" fill="#29235c">timestamp</text>
<polygon fill="none" stroke="#29235c" stroke-width="2" points="1218.36,-148.81 1218.36,-510.81 1584.36,-510.81 1584.36,-148.81 1218.36,-148.81"/>
</g>
<!-- squads -->
<g id="squads" class="node">
<title>squads</title>
<ellipse fill="none" stroke="black" stroke-width="0" cx="844.93" cy="-299.81" rx="260.43" ry="299.63"/>
<polygon fill="#1d71b8" stroke="transparent" points="662.93,-449.81 662.93,-509.81 1026.93,-509.81 1026.93,-449.81 662.93,-449.81"/>
<polygon fill="none" stroke="#29235c" points="662.93,-449.81 662.93,-509.81 1026.93,-509.81 1026.93,-449.81 662.93,-449.81"/>
<text text-anchor="start" x="731.1" y="-471.01" font-family="Helvetica,sans-Serif" font-weight="bold" font-size="32.00" fill="#ffffff"> &#160;&#160;&#160;&#160;&#160;&#160;squads &#160;&#160;&#160;&#160;&#160;&#160;</text>
<polygon fill="#e7e2dd" stroke="transparent" points="662.93,-389.81 662.93,-449.81 1026.93,-449.81 1026.93,-389.81 662.93,-389.81"/>
<polygon fill="none" stroke="#29235c" points="662.93,-389.81 662.93,-449.81 1026.93,-449.81 1026.93,-389.81 662.93,-389.81"/>
<text text-anchor="start" x="673.93" y="-411.01" font-family="Helvetica,sans-Serif" font-weight="bold" font-size="32.00" fill="#29235c">id</text>
<text text-anchor="start" x="698.82" y="-411.01" font-family="Helvetica,sans-Serif" font-size="32.00" fill="#29235c"> &#160;&#160;&#160;</text>
<text text-anchor="start" x="982.15" y="-411.01" font-family="Helvetica,sans-Serif" font-style="italic" font-size="32.00" fill="#29235c">int</text>
<polygon fill="#e7e2dd" stroke="transparent" points="662.93,-329.81 662.93,-389.81 1026.93,-389.81 1026.93,-329.81 662.93,-329.81"/>
<polygon fill="none" stroke="#29235c" points="662.93,-329.81 662.93,-389.81 1026.93,-389.81 1026.93,-329.81 662.93,-329.81"/>
<text text-anchor="start" x="673.93" y="-350.01" font-family="Helvetica,sans-Serif" font-size="32.00" fill="#29235c">project_id &#160;&#160;&#160;</text>
<text text-anchor="start" x="982.15" y="-351.01" font-family="Helvetica,sans-Serif" font-style="italic" font-size="32.00" fill="#29235c">int</text>
<polygon fill="#e7e2dd" stroke="transparent" points="662.93,-269.81 662.93,-329.81 1026.93,-329.81 1026.93,-269.81 662.93,-269.81"/>
<polygon fill="none" stroke="#29235c" points="662.93,-269.81 662.93,-329.81 1026.93,-329.81 1026.93,-269.81 662.93,-269.81"/>
<text text-anchor="start" x="673.93" y="-290.01" font-family="Helvetica,sans-Serif" font-size="32.00" fill="#29235c">name &#160;&#160;&#160;</text>
<text text-anchor="start" x="909.26" y="-291.01" font-family="Helvetica,sans-Serif" font-style="italic" font-size="32.00" fill="#29235c">varchar</text>
<polygon fill="#e7e2dd" stroke="transparent" points="662.93,-209.81 662.93,-269.81 1026.93,-269.81 1026.93,-209.81 662.93,-209.81"/>
<polygon fill="none" stroke="#29235c" points="662.93,-209.81 662.93,-269.81 1026.93,-269.81 1026.93,-209.81 662.93,-209.81"/>
<text text-anchor="start" x="673.93" y="-230.01" font-family="Helvetica,sans-Serif" font-size="32.00" fill="#29235c">code &#160;&#160;&#160;</text>
<text text-anchor="start" x="909.26" y="-231.01" font-family="Helvetica,sans-Serif" font-style="italic" font-size="32.00" fill="#29235c">varchar</text>
<polygon fill="#e7e2dd" stroke="transparent" points="662.93,-149.81 662.93,-209.81 1026.93,-209.81 1026.93,-149.81 662.93,-149.81"/>
<polygon fill="none" stroke="#29235c" points="662.93,-149.81 662.93,-209.81 1026.93,-209.81 1026.93,-149.81 662.93,-149.81"/>
<text text-anchor="start" x="673.93" y="-170.01" font-family="Helvetica,sans-Serif" font-size="32.00" fill="#29235c">created_at &#160;&#160;&#160;</text>
<text text-anchor="start" x="868.37" y="-171.01" font-family="Helvetica,sans-Serif" font-style="italic" font-size="32.00" fill="#29235c">timestamp</text>
<polygon fill="#e7e2dd" stroke="transparent" points="662.93,-89.81 662.93,-149.81 1026.93,-149.81 1026.93,-89.81 662.93,-89.81"/>
<polygon fill="none" stroke="#29235c" points="662.93,-89.81 662.93,-149.81 1026.93,-149.81 1026.93,-89.81 662.93,-89.81"/>
<text text-anchor="start" x="673.6" y="-110.01" font-family="Helvetica,sans-Serif" font-size="32.00" fill="#29235c">updated_at &#160;&#160;&#160;</text>
<text text-anchor="start" x="868.65" y="-111.01" font-family="Helvetica,sans-Serif" font-style="italic" font-size="32.00" fill="#29235c">timestamp</text>
<polygon fill="none" stroke="#29235c" stroke-width="2" points="661.93,-88.81 661.93,-510.81 1027.93,-510.81 1027.93,-88.81 661.93,-88.81"/>
</g>
<!-- squads&#45;&gt;projects -->
<!-- squads&#45;&gt;projects -->
<g id="edge2" class="edge">
<title>squads:e&#45;&gt;projects:w</title>
<path fill="none" stroke="#29235c" stroke-width="3" d="M1027.93,-359.81C1113.2,-359.81 1128.5,-415.22 1208.3,-419.55"/>
<polygon fill="#29235c" stroke="#29235c" stroke-width="3" points="1208.27,-423.05 1218.36,-419.81 1208.46,-416.05 1208.27,-423.05"/>
<text text-anchor="middle" x="1227.26" y="-400.61" font-family="Helvetica,sans-Serif" font-size="32.00" fill="#29235c">1</text>
<text text-anchor="middle" x="1034.15" y="-331.01" font-family="Helvetica,sans-Serif" font-size="32.00" fill="#29235c">*</text>
</g>
<!-- squad_members -->
<g id="squad_members" class="node">
<title>squad_members</title>
<ellipse fill="none" stroke="black" stroke-width="0" cx="274.36" cy="-545.81" rx="274.21" ry="87.86"/>
<polygon fill="#1d71b8" stroke="transparent" points="82.36,-545.81 82.36,-605.81 466.36,-605.81 466.36,-545.81 82.36,-545.81"/>
<polygon fill="none" stroke="#29235c" points="82.36,-545.81 82.36,-605.81 466.36,-605.81 466.36,-545.81 82.36,-545.81"/>
<text text-anchor="start" x="92.97" y="-567.01" font-family="Helvetica,sans-Serif" font-weight="bold" font-size="32.00" fill="#ffffff"> &#160;&#160;&#160;&#160;&#160;&#160;squad_members &#160;&#160;&#160;&#160;&#160;&#160;</text>
<polygon fill="#e7e2dd" stroke="transparent" points="82.36,-485.81 82.36,-545.81 466.36,-545.81 466.36,-485.81 82.36,-485.81"/>
<polygon fill="none" stroke="#29235c" points="82.36,-485.81 82.36,-545.81 466.36,-545.81 466.36,-485.81 82.36,-485.81"/>
<text text-anchor="start" x="93.36" y="-506.01" font-family="Helvetica,sans-Serif" font-size="32.00" fill="#29235c">squad_id &#160;&#160;&#160;</text>
<text text-anchor="start" x="421.58" y="-507.01" font-family="Helvetica,sans-Serif" font-style="italic" font-size="32.00" fill="#29235c">int</text>
<polygon fill="none" stroke="#29235c" stroke-width="2" points="81.36,-484.81 81.36,-606.81 467.36,-606.81 467.36,-484.81 81.36,-484.81"/>
</g>
<!-- squad_members&#45;&gt;squads -->
<!-- squad_members&#45;&gt;squads -->
<g id="edge4" class="edge">
<title>squad_members:e&#45;&gt;squads:w</title>
<path fill="none" stroke="#29235c" stroke-width="3" d="M467.36,-515.81C560.3,-515.81 565.25,-426.63 651.84,-420.18"/>
<polygon fill="#29235c" stroke="#29235c" stroke-width="3" points="652.06,-423.67 661.93,-419.81 651.81,-416.68 652.06,-423.67"/>
<text text-anchor="middle" x="670.82" y="-400.61" font-family="Helvetica,sans-Serif" font-size="32.00" fill="#29235c">1</text>
<text text-anchor="middle" x="461.14" y="-525.41" font-family="Helvetica,sans-Serif" font-size="32.00" fill="#29235c">*</text>
</g>
<!-- sprints -->
<g id="sprints" class="node">
<title>sprints</title>
<ellipse fill="none" stroke="black" stroke-width="0" cx="274.36" cy="-352.81" rx="172.57" ry="87.86"/>
<polygon fill="#1d71b8" stroke="transparent" points="154.36,-352.81 154.36,-412.81 394.36,-412.81 394.36,-352.81 154.36,-352.81"/>
<polygon fill="none" stroke="#29235c" points="154.36,-352.81 154.36,-412.81 394.36,-412.81 394.36,-352.81 154.36,-352.81"/>
<text text-anchor="start" x="165" y="-374.01" font-family="Helvetica,sans-Serif" font-weight="bold" font-size="32.00" fill="#ffffff"> &#160;&#160;&#160;&#160;&#160;&#160;sprints &#160;&#160;&#160;&#160;&#160;&#160;</text>
<polygon fill="#e7e2dd" stroke="transparent" points="154.36,-292.81 154.36,-352.81 394.36,-352.81 394.36,-292.81 154.36,-292.81"/>
<polygon fill="none" stroke="#29235c" points="154.36,-292.81 154.36,-352.81 394.36,-352.81 394.36,-292.81 154.36,-292.81"/>
<text text-anchor="start" x="165.36" y="-313.01" font-family="Helvetica,sans-Serif" font-size="32.00" fill="#29235c">squad_id &#160;&#160;&#160;</text>
<text text-anchor="start" x="349.58" y="-314.01" font-family="Helvetica,sans-Serif" font-style="italic" font-size="32.00" fill="#29235c">int</text>
<polygon fill="none" stroke="#29235c" stroke-width="2" points="153.36,-291.81 153.36,-413.81 395.36,-413.81 395.36,-291.81 153.36,-291.81"/>
</g>
<!-- sprints&#45;&gt;squads -->
<!-- sprints&#45;&gt;squads -->
<g id="edge6" class="edge">
<title>sprints:e&#45;&gt;squads:w</title>
<path fill="none" stroke="#29235c" stroke-width="3" d="M395.36,-322.81C517.99,-322.81 534.98,-414.58 651.83,-419.6"/>
<polygon fill="#29235c" stroke="#29235c" stroke-width="3" points="651.86,-423.1 661.93,-419.81 652.01,-416.1 651.86,-423.1"/>
<text text-anchor="middle" x="653.04" y="-391.01" font-family="Helvetica,sans-Serif" font-size="32.00" fill="#29235c">1</text>
<text text-anchor="middle" x="389.14" y="-294.01" font-family="Helvetica,sans-Serif" font-size="32.00" fill="#29235c">*</text>
</g>
</g>
</svg>
