<?xml version="1.0" encoding="UTF-8" standalone="no"?>
<!DOCTYPE svg PUBLIC "-//W3C//DTD SVG 1.1//EN"
 "http://www.w3.org/Graphics/SVG/1.1/DTD/svg11.dtd">
<!-- Generated by graphviz version 2.47.0 (20210316.0004)
 -->
<!-- Title: dbml Pages: 1 -->
<svg width="1637pt" height="569pt"
 viewBox="0.00 0.00 1637.05 569.07" xmlns="http://www.w3.org/2000/svg" xmlns:xlink="http://www.w3.org/1999/xlink">
<g id="graph0" class="graph" transform="scale(1 1) rotate(0) translate(4 565.07)">
<title>dbml</title>
<!-- projects -->
<g id="projects" class="node">
<title>projects</title>
<ellipse fill="none" stroke="black" stroke-width="0" cx="1385.1" cy="-257.39" rx="243.9" ry="257.27"/>
<polygon fill="#1d71b8" stroke="transparent" points="1215.1,-377.39 1215.1,-437.39 1556.1,-437.39 1556.1,-377.39 1215.1,-377.39"/>
<polygon fill="none" stroke="#29235c" points="1215.1,-377.39 1215.1,-437.39 1556.1,-437.39 1556.1,-377.39 1215.1,-377.39"/>
<text text-anchor="start" x="1267.34" y="-398.59" font-family="Helvetica,sans-Serif" font-weight="bold" font-size="32.00" fill="#ffffff"> &#160;&#160;&#160;&#160;&#160;&#160;projects &#160;&#160;&#160;&#160;&#160;&#160;</text>
<polygon fill="#e7e2dd" stroke="transparent" points="1215.1,-317.39 1215.1,-377.39 1556.1,-377.39 1556.1,-317.39 1215.1,-317.39"/>
<polygon fill="none" stroke="#29235c" points="1215.1,-317.39 1215.1,-377.39 1556.1,-377.39 1556.1,-317.39 1215.1,-317.39"/>
<text text-anchor="start" x="1226.1" y="-338.59" font-family="Helvetica,sans-Serif" font-weight="bold" font-size="32.00" fill="#29235c">id</text>
<text text-anchor="start" x="1250.99" y="-338.59" font-family="Helvetica,sans-Serif" font-size="32.00" fill="#29235c"> &#160;&#160;&#160;</text>
<text text-anchor="start" x="1511.31" y="-338.59" font-family="Helvetica,sans-Serif" font-style="italic" font-size="32.00" fill="#29235c">int</text>
<polygon fill="#e7e2dd" stroke="transparent" points="1215.1,-257.39 1215.1,-317.39 1556.1,-317.39 1556.1,-257.39 1215.1,-257.39"/>
<polygon fill="none" stroke="#29235c" points="1215.1,-257.39 1215.1,-317.39 1556.1,-317.39 1556.1,-257.39 1215.1,-257.39"/>
<text text-anchor="start" x="1226.1" y="-277.59" font-family="Helvetica,sans-Serif" font-size="32.00" fill="#29235c">nama &#160;&#160;&#160;</text>
<text text-anchor="start" x="1399.33" y="-278.59" font-family="Helvetica,sans-Serif" font-style="italic" font-size="32.00" fill="#29235c">varchar</text>
<text text-anchor="start" x="1506.01" y="-278.59" font-family="Helvetica,sans-Serif" font-size="32.00" fill="#29235c"> </text>
<text text-anchor="start" x="1514.9" y="-278.59" font-family="Helvetica,sans-Serif" font-weight="bold" font-size="32.00" fill="#29235c">(!)</text>
<polygon fill="#e7e2dd" stroke="transparent" points="1215.1,-197.39 1215.1,-257.39 1556.1,-257.39 1556.1,-197.39 1215.1,-197.39"/>
<polygon fill="none" stroke="#29235c" points="1215.1,-197.39 1215.1,-257.39 1556.1,-257.39 1556.1,-197.39 1215.1,-197.39"/>
<text text-anchor="start" x="1226.1" y="-217.59" font-family="Helvetica,sans-Serif" font-size="32.00" fill="#29235c">deskripsi &#160;&#160;&#160;</text>
<text text-anchor="start" x="1493.52" y="-218.59" font-family="Helvetica,sans-Serif" font-style="italic" font-size="32.00" fill="#29235c">text</text>
<polygon fill="#e7e2dd" stroke="transparent" points="1215.1,-137.39 1215.1,-197.39 1556.1,-197.39 1556.1,-137.39 1215.1,-137.39"/>
<polygon fill="none" stroke="#29235c" points="1215.1,-137.39 1215.1,-197.39 1556.1,-197.39 1556.1,-137.39 1215.1,-137.39"/>
<text text-anchor="start" x="1226.1" y="-157.59" font-family="Helvetica,sans-Serif" font-size="32.00" fill="#29235c">tanggal_mulai &#160;&#160;&#160;</text>
<text text-anchor="start" x="1482.84" y="-158.59" font-family="Helvetica,sans-Serif" font-style="italic" font-size="32.00" fill="#29235c">date</text>
<polygon fill="#e7e2dd" stroke="transparent" points="1215.1,-77.39 1215.1,-137.39 1556.1,-137.39 1556.1,-77.39 1215.1,-77.39"/>
<polygon fill="none" stroke="#29235c" points="1215.1,-77.39 1215.1,-137.39 1556.1,-137.39 1556.1,-77.39 1215.1,-77.39"/>
<text text-anchor="start" x="1225.66" y="-97.59" font-family="Helvetica,sans-Serif" font-size="32.00" fill="#29235c">tanggal_selesai &#160;&#160;&#160;</text>
<text text-anchor="start" x="1482.97" y="-98.59" font-family="Helvetica,sans-Serif" font-style="italic" font-size="32.00" fill="#29235c">date</text>
<polygon fill="none" stroke="#29235c" stroke-width="2" points="1213.6,-76.39 1213.6,-438.39 1556.6,-438.39 1556.6,-76.39 1213.6,-76.39"/>
</g>
<!-- squads -->
<g id="squads" class="node">
<title>squads</title>
<ellipse fill="none" stroke="black" stroke-width="0" cx="844.93" cy="-257.39" rx="260.43" ry="257.27"/>
<polygon fill="#1d71b8" stroke="transparent" points="662.93,-377.39 662.93,-437.39 1026.93,-437.39 1026.93,-377.39 662.93,-377.39"/>
<polygon fill="none" stroke="#29235c" points="662.93,-377.39 662.93,-437.39 1026.93,-437.39 1026.93,-377.39 662.93,-377.39"/>
<text text-anchor="start" x="731.1" y="-398.59" font-family="Helvetica,sans-Serif" font-weight="bold" font-size="32.00" fill="#ffffff"> &#160;&#160;&#160;&#160;&#160;&#160;squads &#160;&#160;&#160;&#160;&#160;&#160;</text>
<polygon fill="#e7e2dd" stroke="transparent" points="662.93,-317.39 662.93,-377.39 1026.93,-377.39 1026.93,-317.39 662.93,-317.39"/>
<polygon fill="none" stroke="#29235c" points="662.93,-317.39 662.93,-377.39 1026.93,-377.39 1026.93,-317.39 662.93,-317.39"/>
<text text-anchor="start" x="673.93" y="-338.59" font-family="Helvetica,sans-Serif" font-weight="bold" font-size="32.00" fill="#29235c">id</text>
<text text-anchor="start" x="698.82" y="-338.59" font-family="Helvetica,sans-Serif" font-size="32.00" fill="#29235c"> &#160;&#160;&#160;</text>
<text text-anchor="start" x="982.15" y="-338.59" font-family="Helvetica,sans-Serif" font-style="italic" font-size="32.00" fill="#29235c">int</text>
<polygon fill="#e7e2dd" stroke="transparent" points="662.93,-257.39 662.93,-317.39 1026.93,-317.39 1026.93,-257.39 662.93,-257.39"/>
<polygon fill="none" stroke="#29235c" points="662.93,-257.39 662.93,-317.39 1026.93,-317.39 1026.93,-257.39 662.93,-257.39"/>
<text text-anchor="start" x="673.93" y="-277.59" font-family="Helvetica,sans-Serif" font-size="32.00" fill="#29235c">nama &#160;&#160;&#160;</text>
<text text-anchor="start" x="870.17" y="-278.59" font-family="Helvetica,sans-Serif" font-style="italic" font-size="32.00" fill="#29235c">varchar</text>
<text text-anchor="start" x="976.84" y="-278.59" font-family="Helvetica,sans-Serif" font-size="32.00" fill="#29235c"> </text>
<text text-anchor="start" x="985.73" y="-278.59" font-family="Helvetica,sans-Serif" font-weight="bold" font-size="32.00" fill="#29235c">(!)</text>
<polygon fill="#e7e2dd" stroke="transparent" points="662.93,-197.39 662.93,-257.39 1026.93,-257.39 1026.93,-197.39 662.93,-197.39"/>
<polygon fill="none" stroke="#29235c" points="662.93,-197.39 662.93,-257.39 1026.93,-257.39 1026.93,-197.39 662.93,-197.39"/>
<text text-anchor="start" x="673.93" y="-217.59" font-family="Helvetica,sans-Serif" font-size="32.00" fill="#29235c">project_id &#160;&#160;&#160;</text>
<text text-anchor="start" x="982.15" y="-218.59" font-family="Helvetica,sans-Serif" font-style="italic" font-size="32.00" fill="#29235c">int</text>
<polygon fill="#e7e2dd" stroke="transparent" points="662.93,-137.39 662.93,-197.39 1026.93,-197.39 1026.93,-137.39 662.93,-137.39"/>
<polygon fill="none" stroke="#29235c" points="662.93,-137.39 662.93,-197.39 1026.93,-197.39 1026.93,-137.39 662.93,-137.39"/>
<text text-anchor="start" x="673.93" y="-157.59" font-family="Helvetica,sans-Serif" font-size="32.00" fill="#29235c">created_at &#160;&#160;&#160;</text>
<text text-anchor="start" x="868.37" y="-158.59" font-family="Helvetica,sans-Serif" font-style="italic" font-size="32.00" fill="#29235c">timestamp</text>
<polygon fill="#e7e2dd" stroke="transparent" points="662.93,-77.39 662.93,-137.39 1026.93,-137.39 1026.93,-77.39 662.93,-77.39"/>
<polygon fill="none" stroke="#29235c" points="662.93,-77.39 662.93,-137.39 1026.93,-137.39 1026.93,-77.39 662.93,-77.39"/>
<text text-anchor="start" x="673.6" y="-97.59" font-family="Helvetica,sans-Serif" font-size="32.00" fill="#29235c">updated_at &#160;&#160;&#160;</text>
<text text-anchor="start" x="868.65" y="-98.59" font-family="Helvetica,sans-Serif" font-style="italic" font-size="32.00" fill="#29235c">timestamp</text>
<polygon fill="none" stroke="#29235c" stroke-width="2" points="661.93,-76.39 661.93,-438.39 1027.93,-438.39 1027.93,-76.39 661.93,-76.39"/>
</g>
<!-- squads&#45;&gt;projects -->
<!-- squads&#45;&gt;projects -->
<g id="edge2" class="edge">
<title>squads:e&#45;&gt;projects:w</title>
<path fill="none" stroke="#29235c" stroke-width="3" d="M1027.93,-227.39C1122.81,-227.39 1116.29,-338.87 1203.84,-346.93"/>
<polygon fill="#29235c" stroke="#29235c" stroke-width="3" points="1203.95,-350.44 1214.1,-347.39 1204.26,-343.44 1203.95,-350.44"/>
<text text-anchor="middle" x="1222.99" y="-347.39" font-family="Helvetica,sans-Serif" font-size="32.00" fill="#29235c">1</text>
<text text-anchor="middle" x="1021.71" y="-198.59" font-family="Helvetica,sans-Serif" font-size="32.00" fill="#29235c">*</text>
</g>
<!-- squad_members -->
<g id="squad_members" class="node">
<title>squad_members</title>
<ellipse fill="none" stroke="black" stroke-width="0" cx="274.36" cy="-473.39" rx="274.21" ry="87.86"/>
<polygon fill="#1d71b8" stroke="transparent" points="82.36,-473.39 82.36,-533.39 466.36,-533.39 466.36,-473.39 82.36,-473.39"/>
<polygon fill="none" stroke="#29235c" points="82.36,-473.39 82.36,-533.39 466.36,-533.39 466.36,-473.39 82.36,-473.39"/>
<text text-anchor="start" x="92.97" y="-494.59" font-family="Helvetica,sans-Serif" font-weight="bold" font-size="32.00" fill="#ffffff"> &#160;&#160;&#160;&#160;&#160;&#160;squad_members &#160;&#160;&#160;&#160;&#160;&#160;</text>
<polygon fill="#e7e2dd" stroke="transparent" points="82.36,-413.39 82.36,-473.39 466.36,-473.39 466.36,-413.39 82.36,-413.39"/>
<polygon fill="none" stroke="#29235c" points="82.36,-413.39 82.36,-473.39 466.36,-473.39 466.36,-413.39 82.36,-413.39"/>
<text text-anchor="start" x="93.36" y="-433.59" font-family="Helvetica,sans-Serif" font-size="32.00" fill="#29235c">squad_id &#160;&#160;&#160;</text>
<text text-anchor="start" x="421.58" y="-434.59" font-family="Helvetica,sans-Serif" font-style="italic" font-size="32.00" fill="#29235c">int</text>
<polygon fill="none" stroke="#29235c" stroke-width="2" points="81.36,-412.39 81.36,-534.39 467.36,-534.39 467.36,-412.39 81.36,-412.39"/>
</g>
<!-- squad_members&#45;&gt;squads -->
<!-- squad_members&#45;&gt;squads -->
<g id="edge4" class="edge">
<title>squad_members:e&#45;&gt;squads:w</title>
<path fill="none" stroke="#29235c" stroke-width="3" d="M467.36,-443.39C560.3,-443.39 565.25,-354.2 651.84,-347.75"/>
<polygon fill="#29235c" stroke="#29235c" stroke-width="3" points="652.06,-351.25 661.93,-347.39 651.81,-344.25 652.06,-351.25"/>
<text text-anchor="middle" x="653.04" y="-318.59" font-family="Helvetica,sans-Serif" font-size="32.00" fill="#29235c">1</text>
<text text-anchor="middle" x="473.58" y="-452.99" font-family="Helvetica,sans-Serif" font-size="32.00" fill="#29235c">*</text>
</g>
<!-- scrum_backlogs -->
<g id="scrum_backlogs" class="node">
<title>scrum_backlogs</title>
<ellipse fill="none" stroke="black" stroke-width="0" cx="274.36" cy="-280.39" rx="269.32" ry="87.86"/>
<polygon fill="#1d71b8" stroke="transparent" points="86.36,-280.39 86.36,-340.39 463.36,-340.39 463.36,-280.39 86.36,-280.39"/>
<polygon fill="none" stroke="#29235c" points="86.36,-280.39 86.36,-340.39 463.36,-340.39 463.36,-280.39 86.36,-280.39"/>
<text text-anchor="start" x="97.04" y="-301.59" font-family="Helvetica,sans-Serif" font-weight="bold" font-size="32.00" fill="#ffffff"> &#160;&#160;&#160;&#160;&#160;&#160;scrum_backlogs &#160;&#160;&#160;&#160;&#160;&#160;</text>
<polygon fill="#e7e2dd" stroke="transparent" points="86.36,-220.39 86.36,-280.39 463.36,-280.39 463.36,-220.39 86.36,-220.39"/>
<polygon fill="none" stroke="#29235c" points="86.36,-220.39 86.36,-280.39 463.36,-280.39 463.36,-220.39 86.36,-220.39"/>
<text text-anchor="start" x="97.36" y="-240.59" font-family="Helvetica,sans-Serif" font-size="32.00" fill="#29235c">squad_id &#160;&#160;&#160;</text>
<text text-anchor="start" x="418.58" y="-241.59" font-family="Helvetica,sans-Serif" font-style="italic" font-size="32.00" fill="#29235c">int</text>
<polygon fill="none" stroke="#29235c" stroke-width="2" points="84.86,-219.39 84.86,-341.39 463.86,-341.39 463.86,-219.39 84.86,-219.39"/>
</g>
<!-- scrum_backlogs&#45;&gt;squads -->
<!-- scrum_backlogs&#45;&gt;squads -->
<g id="edge6" class="edge">
<title>scrum_backlogs:e&#45;&gt;squads:w</title>
<path fill="none" stroke="#29235c" stroke-width="3" d="M464.36,-250.39C558.65,-250.39 563.84,-340.5 651.69,-347.02"/>
<polygon fill="#29235c" stroke="#29235c" stroke-width="3" points="651.81,-350.52 661.93,-347.39 652.06,-343.53 651.81,-350.52"/>
<text text-anchor="middle" x="653.04" y="-356.99" font-family="Helvetica,sans-Serif" font-size="32.00" fill="#29235c">1</text>
<text text-anchor="middle" x="470.58" y="-221.59" font-family="Helvetica,sans-Serif" font-size="32.00" fill="#29235c">*</text>
</g>
</g>
</svg>
