<?xml version="1.0" encoding="UTF-8" standalone="no"?>
<!DOCTYPE svg PUBLIC "-//W3C//DTD SVG 1.1//EN"
 "http://www.w3.org/Graphics/SVG/1.1/DTD/svg11.dtd">
<!-- Generated by graphviz version 2.47.0 (20210316.0004)
 -->
<!-- Title: dbml Pages: 1 -->
<svg width="1181pt" height="1140pt"
 viewBox="0.00 0.00 1181.03 1140.20" xmlns="http://www.w3.org/2000/svg" xmlns:xlink="http://www.w3.org/1999/xlink">
<g id="graph0" class="graph" transform="scale(1 1) rotate(0) translate(4 1136.2)">
<title>dbml</title>
<!-- projects -->
<g id="projects" class="node">
<title>projects</title>
<ellipse fill="none" stroke="black" stroke-width="0" cx="912.81" cy="-342.24" rx="260.43" ry="342.48"/>
<polygon fill="#1d71b8" stroke="transparent" points="730.81,-522.24 730.81,-582.24 1094.81,-582.24 1094.81,-522.24 730.81,-522.24"/>
<polygon fill="none" stroke="#29235c" points="730.81,-522.24 730.81,-582.24 1094.81,-582.24 1094.81,-522.24 730.81,-522.24"/>
<text text-anchor="start" x="794.56" y="-543.44" font-family="Helvetica,sans-Serif" font-weight="bold" font-size="32.00" fill="#ffffff"> &#160;&#160;&#160;&#160;&#160;&#160;projects &#160;&#160;&#160;&#160;&#160;&#160;</text>
<polygon fill="#e7e2dd" stroke="transparent" points="730.81,-462.24 730.81,-522.24 1094.81,-522.24 1094.81,-462.24 730.81,-462.24"/>
<polygon fill="none" stroke="#29235c" points="730.81,-462.24 730.81,-522.24 1094.81,-522.24 1094.81,-462.24 730.81,-462.24"/>
<text text-anchor="start" x="741.81" y="-483.44" font-family="Helvetica,sans-Serif" font-weight="bold" font-size="32.00" fill="#29235c">id</text>
<text text-anchor="start" x="766.7" y="-483.44" font-family="Helvetica,sans-Serif" font-size="32.00" fill="#29235c"> &#160;&#160;&#160;</text>
<text text-anchor="start" x="1050.03" y="-483.44" font-family="Helvetica,sans-Serif" font-style="italic" font-size="32.00" fill="#29235c">int</text>
<polygon fill="#e7e2dd" stroke="transparent" points="730.81,-402.24 730.81,-462.24 1094.81,-462.24 1094.81,-402.24 730.81,-402.24"/>
<polygon fill="none" stroke="#29235c" points="730.81,-402.24 730.81,-462.24 1094.81,-462.24 1094.81,-402.24 730.81,-402.24"/>
<text text-anchor="start" x="741.81" y="-422.44" font-family="Helvetica,sans-Serif" font-size="32.00" fill="#29235c">nama &#160;&#160;&#160;</text>
<text text-anchor="start" x="938.05" y="-423.44" font-family="Helvetica,sans-Serif" font-style="italic" font-size="32.00" fill="#29235c">varchar</text>
<text text-anchor="start" x="1044.72" y="-423.44" font-family="Helvetica,sans-Serif" font-size="32.00" fill="#29235c"> </text>
<text text-anchor="start" x="1053.61" y="-423.44" font-family="Helvetica,sans-Serif" font-weight="bold" font-size="32.00" fill="#29235c">(!)</text>
<polygon fill="#e7e2dd" stroke="transparent" points="730.81,-342.24 730.81,-402.24 1094.81,-402.24 1094.81,-342.24 730.81,-342.24"/>
<polygon fill="none" stroke="#29235c" points="730.81,-342.24 730.81,-402.24 1094.81,-402.24 1094.81,-342.24 730.81,-342.24"/>
<text text-anchor="start" x="741.81" y="-362.44" font-family="Helvetica,sans-Serif" font-size="32.00" fill="#29235c">deskripsi &#160;&#160;&#160;</text>
<text text-anchor="start" x="1032.24" y="-363.44" font-family="Helvetica,sans-Serif" font-style="italic" font-size="32.00" fill="#29235c">text</text>
<polygon fill="#e7e2dd" stroke="transparent" points="730.81,-282.24 730.81,-342.24 1094.81,-342.24 1094.81,-282.24 730.81,-282.24"/>
<polygon fill="none" stroke="#29235c" points="730.81,-282.24 730.81,-342.24 1094.81,-342.24 1094.81,-282.24 730.81,-282.24"/>
<text text-anchor="start" x="741.81" y="-302.44" font-family="Helvetica,sans-Serif" font-size="32.00" fill="#29235c">tanggal_mulai &#160;&#160;&#160;</text>
<text text-anchor="start" x="1021.55" y="-303.44" font-family="Helvetica,sans-Serif" font-style="italic" font-size="32.00" fill="#29235c">date</text>
<polygon fill="#e7e2dd" stroke="transparent" points="730.81,-222.24 730.81,-282.24 1094.81,-282.24 1094.81,-222.24 730.81,-222.24"/>
<polygon fill="none" stroke="#29235c" points="730.81,-222.24 730.81,-282.24 1094.81,-282.24 1094.81,-222.24 730.81,-222.24"/>
<text text-anchor="start" x="741.81" y="-242.44" font-family="Helvetica,sans-Serif" font-size="32.00" fill="#29235c">tanggal_selesai &#160;&#160;&#160;</text>
<text text-anchor="start" x="1021.55" y="-243.44" font-family="Helvetica,sans-Serif" font-style="italic" font-size="32.00" fill="#29235c">date</text>
<polygon fill="#e7e2dd" stroke="transparent" points="730.81,-162.24 730.81,-222.24 1094.81,-222.24 1094.81,-162.24 730.81,-162.24"/>
<polygon fill="none" stroke="#29235c" points="730.81,-162.24 730.81,-222.24 1094.81,-222.24 1094.81,-162.24 730.81,-162.24"/>
<text text-anchor="start" x="741.81" y="-182.44" font-family="Helvetica,sans-Serif" font-size="32.00" fill="#29235c">created_at &#160;&#160;&#160;</text>
<text text-anchor="start" x="936.25" y="-183.44" font-family="Helvetica,sans-Serif" font-style="italic" font-size="32.00" fill="#29235c">timestamp</text>
<polygon fill="#e7e2dd" stroke="transparent" points="730.81,-102.24 730.81,-162.24 1094.81,-162.24 1094.81,-102.24 730.81,-102.24"/>
<polygon fill="none" stroke="#29235c" points="730.81,-102.24 730.81,-162.24 1094.81,-162.24 1094.81,-102.24 730.81,-102.24"/>
<text text-anchor="start" x="741.48" y="-122.44" font-family="Helvetica,sans-Serif" font-size="32.00" fill="#29235c">updated_at &#160;&#160;&#160;</text>
<text text-anchor="start" x="936.53" y="-123.44" font-family="Helvetica,sans-Serif" font-style="italic" font-size="32.00" fill="#29235c">timestamp</text>
<polygon fill="none" stroke="#29235c" stroke-width="2" points="729.81,-101.24 729.81,-583.24 1095.81,-583.24 1095.81,-101.24 729.81,-101.24"/>
</g>
<!-- squads -->
<g id="squads" class="node">
<title>squads</title>
<ellipse fill="none" stroke="black" stroke-width="0" cx="912.81" cy="-917.24" rx="260.43" ry="214.92"/>
<polygon fill="#1d71b8" stroke="transparent" points="730.81,-1007.24 730.81,-1067.24 1094.81,-1067.24 1094.81,-1007.24 730.81,-1007.24"/>
<polygon fill="none" stroke="#29235c" points="730.81,-1007.24 730.81,-1067.24 1094.81,-1067.24 1094.81,-1007.24 730.81,-1007.24"/>
<text text-anchor="start" x="798.99" y="-1028.44" font-family="Helvetica,sans-Serif" font-weight="bold" font-size="32.00" fill="#ffffff"> &#160;&#160;&#160;&#160;&#160;&#160;squads &#160;&#160;&#160;&#160;&#160;&#160;</text>
<polygon fill="#e7e2dd" stroke="transparent" points="730.81,-947.24 730.81,-1007.24 1094.81,-1007.24 1094.81,-947.24 730.81,-947.24"/>
<polygon fill="none" stroke="#29235c" points="730.81,-947.24 730.81,-1007.24 1094.81,-1007.24 1094.81,-947.24 730.81,-947.24"/>
<text text-anchor="start" x="741.81" y="-968.44" font-family="Helvetica,sans-Serif" font-weight="bold" font-size="32.00" fill="#29235c">id</text>
<text text-anchor="start" x="766.7" y="-968.44" font-family="Helvetica,sans-Serif" font-size="32.00" fill="#29235c"> &#160;&#160;&#160;</text>
<text text-anchor="start" x="1050.03" y="-968.44" font-family="Helvetica,sans-Serif" font-style="italic" font-size="32.00" fill="#29235c">int</text>
<polygon fill="#e7e2dd" stroke="transparent" points="730.81,-887.24 730.81,-947.24 1094.81,-947.24 1094.81,-887.24 730.81,-887.24"/>
<polygon fill="none" stroke="#29235c" points="730.81,-887.24 730.81,-947.24 1094.81,-947.24 1094.81,-887.24 730.81,-887.24"/>
<text text-anchor="start" x="741.81" y="-907.44" font-family="Helvetica,sans-Serif" font-size="32.00" fill="#29235c">nama &#160;&#160;&#160;</text>
<text text-anchor="start" x="938.05" y="-908.44" font-family="Helvetica,sans-Serif" font-style="italic" font-size="32.00" fill="#29235c">varchar</text>
<text text-anchor="start" x="1044.72" y="-908.44" font-family="Helvetica,sans-Serif" font-size="32.00" fill="#29235c"> </text>
<text text-anchor="start" x="1053.61" y="-908.44" font-family="Helvetica,sans-Serif" font-weight="bold" font-size="32.00" fill="#29235c">(!)</text>
<polygon fill="#e7e2dd" stroke="transparent" points="730.81,-827.24 730.81,-887.24 1094.81,-887.24 1094.81,-827.24 730.81,-827.24"/>
<polygon fill="none" stroke="#29235c" points="730.81,-827.24 730.81,-887.24 1094.81,-887.24 1094.81,-827.24 730.81,-827.24"/>
<text text-anchor="start" x="741.81" y="-847.44" font-family="Helvetica,sans-Serif" font-size="32.00" fill="#29235c">created_at &#160;&#160;&#160;</text>
<text text-anchor="start" x="936.25" y="-848.44" font-family="Helvetica,sans-Serif" font-style="italic" font-size="32.00" fill="#29235c">timestamp</text>
<polygon fill="#e7e2dd" stroke="transparent" points="730.81,-767.24 730.81,-827.24 1094.81,-827.24 1094.81,-767.24 730.81,-767.24"/>
<polygon fill="none" stroke="#29235c" points="730.81,-767.24 730.81,-827.24 1094.81,-827.24 1094.81,-767.24 730.81,-767.24"/>
<text text-anchor="start" x="741.48" y="-787.44" font-family="Helvetica,sans-Serif" font-size="32.00" fill="#29235c">updated_at &#160;&#160;&#160;</text>
<text text-anchor="start" x="936.53" y="-788.44" font-family="Helvetica,sans-Serif" font-style="italic" font-size="32.00" fill="#29235c">timestamp</text>
<polygon fill="none" stroke="#29235c" stroke-width="2" points="729.81,-766.24 729.81,-1068.24 1095.81,-1068.24 1095.81,-766.24 729.81,-766.24"/>
</g>
<!-- squad_has_projects -->
<g id="squad_has_projects" class="node">
<title>squad_has_projects</title>
<ellipse fill="none" stroke="black" stroke-width="0" cx="308.3" cy="-764.24" rx="308.1" ry="172.57"/>
<polygon fill="#1d71b8" stroke="transparent" points="92.3,-824.24 92.3,-884.24 524.3,-884.24 524.3,-824.24 92.3,-824.24"/>
<polygon fill="none" stroke="#29235c" points="92.3,-824.24 92.3,-884.24 524.3,-884.24 524.3,-824.24 92.3,-824.24"/>
<text text-anchor="start" x="102.89" y="-845.44" font-family="Helvetica,sans-Serif" font-weight="bold" font-size="32.00" fill="#ffffff"> &#160;&#160;&#160;&#160;&#160;&#160;squad_has_projects &#160;&#160;&#160;&#160;&#160;&#160;</text>
<polygon fill="#e7e2dd" stroke="transparent" points="92.3,-764.24 92.3,-824.24 524.3,-824.24 524.3,-764.24 92.3,-764.24"/>
<polygon fill="none" stroke="#29235c" points="92.3,-764.24 92.3,-824.24 524.3,-824.24 524.3,-764.24 92.3,-764.24"/>
<text text-anchor="start" x="103.3" y="-785.44" font-family="Helvetica,sans-Serif" font-weight="bold" font-size="32.00" fill="#29235c">id</text>
<text text-anchor="start" x="128.19" y="-785.44" font-family="Helvetica,sans-Serif" font-size="32.00" fill="#29235c"> &#160;&#160;&#160;</text>
<text text-anchor="start" x="479.52" y="-785.44" font-family="Helvetica,sans-Serif" font-style="italic" font-size="32.00" fill="#29235c">int</text>
<polygon fill="#e7e2dd" stroke="transparent" points="92.3,-704.24 92.3,-764.24 524.3,-764.24 524.3,-704.24 92.3,-704.24"/>
<polygon fill="none" stroke="#29235c" points="92.3,-704.24 92.3,-764.24 524.3,-764.24 524.3,-704.24 92.3,-704.24"/>
<text text-anchor="start" x="103.3" y="-724.44" font-family="Helvetica,sans-Serif" font-size="32.00" fill="#29235c">squad_id &#160;&#160;&#160;</text>
<text text-anchor="start" x="479.52" y="-725.44" font-family="Helvetica,sans-Serif" font-style="italic" font-size="32.00" fill="#29235c">int</text>
<polygon fill="#e7e2dd" stroke="transparent" points="92.3,-644.24 92.3,-704.24 524.3,-704.24 524.3,-644.24 92.3,-644.24"/>
<polygon fill="none" stroke="#29235c" points="92.3,-644.24 92.3,-704.24 524.3,-704.24 524.3,-644.24 92.3,-644.24"/>
<text text-anchor="start" x="103.3" y="-664.44" font-family="Helvetica,sans-Serif" font-size="32.00" fill="#29235c">project_id &#160;&#160;&#160;</text>
<text text-anchor="start" x="479.52" y="-665.44" font-family="Helvetica,sans-Serif" font-style="italic" font-size="32.00" fill="#29235c">int</text>
<polygon fill="none" stroke="#29235c" stroke-width="2" points="91.3,-643.24 91.3,-885.24 525.3,-885.24 525.3,-643.24 91.3,-643.24"/>
</g>
<!-- squad_has_projects&#45;&gt;projects -->
<!-- squad_has_projects&#45;&gt;projects -->
<g id="edge4" class="edge">
<title>squad_has_projects:e&#45;&gt;projects:w</title>
<path fill="none" stroke="#29235c" stroke-width="3" d="M525.3,-674.24C643.41,-674.24 610.27,-502.75 719.52,-492.7"/>
<polygon fill="#29235c" stroke="#29235c" stroke-width="3" points="719.98,-496.18 729.81,-492.24 719.67,-489.19 719.98,-496.18"/>
<text text-anchor="middle" x="720.92" y="-463.44" font-family="Helvetica,sans-Serif" font-size="32.00" fill="#29235c">1</text>
<text text-anchor="middle" x="531.52" y="-645.44" font-family="Helvetica,sans-Serif" font-size="32.00" fill="#29235c">*</text>
</g>
<!-- squad_has_projects&#45;&gt;squads -->
<!-- squad_has_projects&#45;&gt;squads -->
<g id="edge2" class="edge">
<title>squad_has_projects:e&#45;&gt;squads:w</title>
<path fill="none" stroke="#29235c" stroke-width="3" d="M525.3,-734.24C662.87,-734.24 592.46,-965.06 719.48,-976.78"/>
<polygon fill="#29235c" stroke="#29235c" stroke-width="3" points="719.67,-980.29 729.81,-977.24 719.98,-973.3 719.67,-980.29"/>
<text text-anchor="middle" x="720.92" y="-986.84" font-family="Helvetica,sans-Serif" font-size="32.00" fill="#29235c">1</text>
<text text-anchor="middle" x="531.52" y="-743.84" font-family="Helvetica,sans-Serif" font-size="32.00" fill="#29235c">*</text>
</g>
</g>
</svg>
