<?xml version="1.0" encoding="UTF-8" standalone="no"?>
<!DOCTYPE svg PUBLIC "-//W3C//DTD SVG 1.1//EN"
 "http://www.w3.org/Graphics/SVG/1.1/DTD/svg11.dtd">
<!-- Generated by graphviz version 2.47.0 (20210316.0004)
 -->
<!-- Title: dbml Pages: 1 -->
<svg width="1229pt" height="1394pt"
 viewBox="0.00 0.00 1229.11 1394.48" xmlns="http://www.w3.org/2000/svg" xmlns:xlink="http://www.w3.org/1999/xlink">
<g id="graph0" class="graph" transform="scale(1 1) rotate(0) translate(4 1390.48)">
<title>dbml</title>
<!-- squads -->
<g id="squads" class="node">
<title>squads</title>
<ellipse fill="none" stroke="black" stroke-width="0" cx="902.91" cy="-214.96" rx="260.43" ry="214.92"/>
<polygon fill="#1d71b8" stroke="transparent" points="720.91,-304.96 720.91,-364.96 1084.91,-364.96 1084.91,-304.96 720.91,-304.96"/>
<polygon fill="none" stroke="#29235c" points="720.91,-304.96 720.91,-364.96 1084.91,-364.96 1084.91,-304.96 720.91,-304.96"/>
<text text-anchor="start" x="789.09" y="-326.16" font-family="Helvetica,sans-Serif" font-weight="bold" font-size="32.00" fill="#ffffff"> &#160;&#160;&#160;&#160;&#160;&#160;squads &#160;&#160;&#160;&#160;&#160;&#160;</text>
<polygon fill="#e7e2dd" stroke="transparent" points="720.91,-244.96 720.91,-304.96 1084.91,-304.96 1084.91,-244.96 720.91,-244.96"/>
<polygon fill="none" stroke="#29235c" points="720.91,-244.96 720.91,-304.96 1084.91,-304.96 1084.91,-244.96 720.91,-244.96"/>
<text text-anchor="start" x="731.91" y="-266.16" font-family="Helvetica,sans-Serif" font-weight="bold" font-size="32.00" fill="#29235c">id</text>
<text text-anchor="start" x="756.8" y="-266.16" font-family="Helvetica,sans-Serif" font-size="32.00" fill="#29235c"> &#160;&#160;&#160;</text>
<text text-anchor="start" x="1040.13" y="-266.16" font-family="Helvetica,sans-Serif" font-style="italic" font-size="32.00" fill="#29235c">int</text>
<polygon fill="#e7e2dd" stroke="transparent" points="720.91,-184.96 720.91,-244.96 1084.91,-244.96 1084.91,-184.96 720.91,-184.96"/>
<polygon fill="none" stroke="#29235c" points="720.91,-184.96 720.91,-244.96 1084.91,-244.96 1084.91,-184.96 720.91,-184.96"/>
<text text-anchor="start" x="731.91" y="-205.16" font-family="Helvetica,sans-Serif" font-size="32.00" fill="#29235c">nama &#160;&#160;&#160;</text>
<text text-anchor="start" x="928.15" y="-206.16" font-family="Helvetica,sans-Serif" font-style="italic" font-size="32.00" fill="#29235c">varchar</text>
<text text-anchor="start" x="1034.82" y="-206.16" font-family="Helvetica,sans-Serif" font-size="32.00" fill="#29235c"> </text>
<text text-anchor="start" x="1043.71" y="-206.16" font-family="Helvetica,sans-Serif" font-weight="bold" font-size="32.00" fill="#29235c">(!)</text>
<polygon fill="#e7e2dd" stroke="transparent" points="720.91,-124.96 720.91,-184.96 1084.91,-184.96 1084.91,-124.96 720.91,-124.96"/>
<polygon fill="none" stroke="#29235c" points="720.91,-124.96 720.91,-184.96 1084.91,-184.96 1084.91,-124.96 720.91,-124.96"/>
<text text-anchor="start" x="731.91" y="-145.16" font-family="Helvetica,sans-Serif" font-size="32.00" fill="#29235c">created_at &#160;&#160;&#160;</text>
<text text-anchor="start" x="926.35" y="-146.16" font-family="Helvetica,sans-Serif" font-style="italic" font-size="32.00" fill="#29235c">timestamp</text>
<polygon fill="#e7e2dd" stroke="transparent" points="720.91,-64.96 720.91,-124.96 1084.91,-124.96 1084.91,-64.96 720.91,-64.96"/>
<polygon fill="none" stroke="#29235c" points="720.91,-64.96 720.91,-124.96 1084.91,-124.96 1084.91,-64.96 720.91,-64.96"/>
<text text-anchor="start" x="731.58" y="-85.16" font-family="Helvetica,sans-Serif" font-size="32.00" fill="#29235c">updated_at &#160;&#160;&#160;</text>
<text text-anchor="start" x="926.63" y="-86.16" font-family="Helvetica,sans-Serif" font-style="italic" font-size="32.00" fill="#29235c">timestamp</text>
<polygon fill="none" stroke="#29235c" stroke-width="2" points="719.91,-63.96 719.91,-365.96 1085.91,-365.96 1085.91,-63.96 719.91,-63.96"/>
</g>
<!-- users -->
<g id="users" class="node">
<title>users</title>
<ellipse fill="none" stroke="black" stroke-width="0" cx="902.91" cy="-916.96" rx="318.4" ry="469.54"/>
<polygon fill="#1d71b8" stroke="transparent" points="679.91,-1186.96 679.91,-1246.96 1125.91,-1246.96 1125.91,-1186.96 679.91,-1186.96"/>
<polygon fill="none" stroke="#29235c" points="679.91,-1186.96 679.91,-1246.96 1125.91,-1246.96 1125.91,-1186.96 679.91,-1186.96"/>
<text text-anchor="start" x="801.55" y="-1208.16" font-family="Helvetica,sans-Serif" font-weight="bold" font-size="32.00" fill="#ffffff"> &#160;&#160;&#160;&#160;&#160;&#160;users &#160;&#160;&#160;&#160;&#160;&#160;</text>
<polygon fill="#e7e2dd" stroke="transparent" points="679.91,-1126.96 679.91,-1186.96 1125.91,-1186.96 1125.91,-1126.96 679.91,-1126.96"/>
<polygon fill="none" stroke="#29235c" points="679.91,-1126.96 679.91,-1186.96 1125.91,-1186.96 1125.91,-1126.96 679.91,-1126.96"/>
<text text-anchor="start" x="690.91" y="-1148.16" font-family="Helvetica,sans-Serif" font-weight="bold" font-size="32.00" fill="#29235c">id</text>
<text text-anchor="start" x="715.8" y="-1148.16" font-family="Helvetica,sans-Serif" font-size="32.00" fill="#29235c"> &#160;&#160;&#160;</text>
<text text-anchor="start" x="1081.13" y="-1148.16" font-family="Helvetica,sans-Serif" font-style="italic" font-size="32.00" fill="#29235c">int</text>
<polygon fill="#e7e2dd" stroke="transparent" points="679.91,-1066.96 679.91,-1126.96 1125.91,-1126.96 1125.91,-1066.96 679.91,-1066.96"/>
<polygon fill="none" stroke="#29235c" points="679.91,-1066.96 679.91,-1126.96 1125.91,-1126.96 1125.91,-1066.96 679.91,-1066.96"/>
<text text-anchor="start" x="690.91" y="-1087.16" font-family="Helvetica,sans-Serif" font-size="32.00" fill="#29235c">name &#160;&#160;&#160;</text>
<text text-anchor="start" x="969.15" y="-1088.16" font-family="Helvetica,sans-Serif" font-style="italic" font-size="32.00" fill="#29235c">varchar</text>
<text text-anchor="start" x="1075.82" y="-1088.16" font-family="Helvetica,sans-Serif" font-size="32.00" fill="#29235c"> </text>
<text text-anchor="start" x="1084.71" y="-1088.16" font-family="Helvetica,sans-Serif" font-weight="bold" font-size="32.00" fill="#29235c">(!)</text>
<polygon fill="#e7e2dd" stroke="transparent" points="679.91,-1006.96 679.91,-1066.96 1125.91,-1066.96 1125.91,-1006.96 679.91,-1006.96"/>
<polygon fill="none" stroke="#29235c" points="679.91,-1006.96 679.91,-1066.96 1125.91,-1066.96 1125.91,-1006.96 679.91,-1006.96"/>
<text text-anchor="start" x="690.91" y="-1027.16" font-family="Helvetica,sans-Serif" font-size="32.00" fill="#29235c">email &#160;&#160;&#160;</text>
<text text-anchor="start" x="969.15" y="-1028.16" font-family="Helvetica,sans-Serif" font-style="italic" font-size="32.00" fill="#29235c">varchar</text>
<text text-anchor="start" x="1075.82" y="-1028.16" font-family="Helvetica,sans-Serif" font-size="32.00" fill="#29235c"> </text>
<text text-anchor="start" x="1084.71" y="-1028.16" font-family="Helvetica,sans-Serif" font-weight="bold" font-size="32.00" fill="#29235c">(!)</text>
<polygon fill="#e7e2dd" stroke="transparent" points="679.91,-946.96 679.91,-1006.96 1125.91,-1006.96 1125.91,-946.96 679.91,-946.96"/>
<polygon fill="none" stroke="#29235c" points="679.91,-946.96 679.91,-1006.96 1125.91,-1006.96 1125.91,-946.96 679.91,-946.96"/>
<text text-anchor="start" x="690.72" y="-967.16" font-family="Helvetica,sans-Serif" font-size="32.00" fill="#29235c">email_verified_at &#160;&#160;&#160;</text>
<text text-anchor="start" x="967.63" y="-968.16" font-family="Helvetica,sans-Serif" font-style="italic" font-size="32.00" fill="#29235c">timestamp</text>
<polygon fill="#e7e2dd" stroke="transparent" points="679.91,-886.96 679.91,-946.96 1125.91,-946.96 1125.91,-886.96 679.91,-886.96"/>
<polygon fill="none" stroke="#29235c" points="679.91,-886.96 679.91,-946.96 1125.91,-946.96 1125.91,-886.96 679.91,-886.96"/>
<text text-anchor="start" x="690.91" y="-907.16" font-family="Helvetica,sans-Serif" font-size="32.00" fill="#29235c">password &#160;&#160;&#160;</text>
<text text-anchor="start" x="969.15" y="-908.16" font-family="Helvetica,sans-Serif" font-style="italic" font-size="32.00" fill="#29235c">varchar</text>
<text text-anchor="start" x="1075.82" y="-908.16" font-family="Helvetica,sans-Serif" font-size="32.00" fill="#29235c"> </text>
<text text-anchor="start" x="1084.71" y="-908.16" font-family="Helvetica,sans-Serif" font-weight="bold" font-size="32.00" fill="#29235c">(!)</text>
<polygon fill="#e7e2dd" stroke="transparent" points="679.91,-826.96 679.91,-886.96 1125.91,-886.96 1125.91,-826.96 679.91,-826.96"/>
<polygon fill="none" stroke="#29235c" points="679.91,-826.96 679.91,-886.96 1125.91,-886.96 1125.91,-826.96 679.91,-826.96"/>
<text text-anchor="start" x="690.91" y="-847.16" font-family="Helvetica,sans-Serif" font-size="32.00" fill="#29235c">remember_token &#160;&#160;&#160;</text>
<text text-anchor="start" x="1008.24" y="-848.16" font-family="Helvetica,sans-Serif" font-style="italic" font-size="32.00" fill="#29235c">varchar</text>
<polygon fill="#e7e2dd" stroke="transparent" points="679.91,-766.96 679.91,-826.96 1125.91,-826.96 1125.91,-766.96 679.91,-766.96"/>
<polygon fill="none" stroke="#29235c" points="679.91,-766.96 679.91,-826.96 1125.91,-826.96 1125.91,-766.96 679.91,-766.96"/>
<text text-anchor="start" x="690.91" y="-787.16" font-family="Helvetica,sans-Serif" font-size="32.00" fill="#29235c">custom_fields &#160;&#160;&#160;</text>
<text text-anchor="start" x="1056.23" y="-788.16" font-family="Helvetica,sans-Serif" font-style="italic" font-size="32.00" fill="#29235c">json</text>
<polygon fill="#e7e2dd" stroke="transparent" points="679.91,-706.96 679.91,-766.96 1125.91,-766.96 1125.91,-706.96 679.91,-706.96"/>
<polygon fill="none" stroke="#29235c" points="679.91,-706.96 679.91,-766.96 1125.91,-766.96 1125.91,-706.96 679.91,-706.96"/>
<text text-anchor="start" x="690.91" y="-727.16" font-family="Helvetica,sans-Serif" font-size="32.00" fill="#29235c">avatar_url &#160;&#160;&#160;</text>
<text text-anchor="start" x="1008.24" y="-728.16" font-family="Helvetica,sans-Serif" font-style="italic" font-size="32.00" fill="#29235c">varchar</text>
<polygon fill="#e7e2dd" stroke="transparent" points="679.91,-646.96 679.91,-706.96 1125.91,-706.96 1125.91,-646.96 679.91,-646.96"/>
<polygon fill="none" stroke="#29235c" points="679.91,-646.96 679.91,-706.96 1125.91,-706.96 1125.91,-646.96 679.91,-646.96"/>
<text text-anchor="start" x="690.91" y="-667.16" font-family="Helvetica,sans-Serif" font-size="32.00" fill="#29235c">created_at &#160;&#160;&#160;</text>
<text text-anchor="start" x="967.35" y="-668.16" font-family="Helvetica,sans-Serif" font-style="italic" font-size="32.00" fill="#29235c">timestamp</text>
<polygon fill="#e7e2dd" stroke="transparent" points="679.91,-586.96 679.91,-646.96 1125.91,-646.96 1125.91,-586.96 679.91,-586.96"/>
<polygon fill="none" stroke="#29235c" points="679.91,-586.96 679.91,-646.96 1125.91,-646.96 1125.91,-586.96 679.91,-586.96"/>
<text text-anchor="start" x="690.91" y="-607.16" font-family="Helvetica,sans-Serif" font-size="32.00" fill="#29235c">updated_at &#160;&#160;&#160;</text>
<text text-anchor="start" x="967.35" y="-608.16" font-family="Helvetica,sans-Serif" font-style="italic" font-size="32.00" fill="#29235c">timestamp</text>
<polygon fill="none" stroke="#29235c" stroke-width="2" points="678.91,-585.96 678.91,-1247.96 1126.91,-1247.96 1126.91,-585.96 678.91,-585.96"/>
</g>
<!-- squad_members -->
<g id="squad_members" class="node">
<title>squad_members</title>
<ellipse fill="none" stroke="black" stroke-width="0" cx="274.36" cy="-745.96" rx="274.21" ry="172.57"/>
<polygon fill="#1d71b8" stroke="transparent" points="82.36,-805.96 82.36,-865.96 466.36,-865.96 466.36,-805.96 82.36,-805.96"/>
<polygon fill="none" stroke="#29235c" points="82.36,-805.96 82.36,-865.96 466.36,-865.96 466.36,-805.96 82.36,-805.96"/>
<text text-anchor="start" x="92.97" y="-827.16" font-family="Helvetica,sans-Serif" font-weight="bold" font-size="32.00" fill="#ffffff"> &#160;&#160;&#160;&#160;&#160;&#160;squad_members &#160;&#160;&#160;&#160;&#160;&#160;</text>
<polygon fill="#e7e2dd" stroke="transparent" points="82.36,-745.96 82.36,-805.96 466.36,-805.96 466.36,-745.96 82.36,-745.96"/>
<polygon fill="none" stroke="#29235c" points="82.36,-745.96 82.36,-805.96 466.36,-805.96 466.36,-745.96 82.36,-745.96"/>
<text text-anchor="start" x="93.36" y="-767.16" font-family="Helvetica,sans-Serif" font-weight="bold" font-size="32.00" fill="#29235c">id</text>
<text text-anchor="start" x="118.25" y="-767.16" font-family="Helvetica,sans-Serif" font-size="32.00" fill="#29235c"> &#160;&#160;&#160;</text>
<text text-anchor="start" x="421.58" y="-767.16" font-family="Helvetica,sans-Serif" font-style="italic" font-size="32.00" fill="#29235c">int</text>
<polygon fill="#e7e2dd" stroke="transparent" points="82.36,-685.96 82.36,-745.96 466.36,-745.96 466.36,-685.96 82.36,-685.96"/>
<polygon fill="none" stroke="#29235c" points="82.36,-685.96 82.36,-745.96 466.36,-745.96 466.36,-685.96 82.36,-685.96"/>
<text text-anchor="start" x="93.36" y="-706.16" font-family="Helvetica,sans-Serif" font-size="32.00" fill="#29235c">user_id &#160;&#160;&#160;</text>
<text text-anchor="start" x="421.58" y="-707.16" font-family="Helvetica,sans-Serif" font-style="italic" font-size="32.00" fill="#29235c">int</text>
<polygon fill="#e7e2dd" stroke="transparent" points="82.36,-625.96 82.36,-685.96 466.36,-685.96 466.36,-625.96 82.36,-625.96"/>
<polygon fill="none" stroke="#29235c" points="82.36,-625.96 82.36,-685.96 466.36,-685.96 466.36,-625.96 82.36,-625.96"/>
<text text-anchor="start" x="93.36" y="-646.16" font-family="Helvetica,sans-Serif" font-size="32.00" fill="#29235c">squad_id &#160;&#160;&#160;</text>
<text text-anchor="start" x="421.58" y="-647.16" font-family="Helvetica,sans-Serif" font-style="italic" font-size="32.00" fill="#29235c">int</text>
<polygon fill="none" stroke="#29235c" stroke-width="2" points="81.36,-624.96 81.36,-866.96 467.36,-866.96 467.36,-624.96 81.36,-624.96"/>
</g>
<!-- squad_members&#45;&gt;squads -->
<!-- squad_members&#45;&gt;squads -->
<g id="edge4" class="edge">
<title>squad_members:e&#45;&gt;squads:w</title>
<path fill="none" stroke="#29235c" stroke-width="3" d="M467.36,-655.96C577.39,-655.96 523.21,-529.2 584.71,-437.96 635.37,-362.81 626.56,-281.26 709.86,-275.31"/>
<polygon fill="#29235c" stroke="#29235c" stroke-width="3" points="710.04,-278.8 719.91,-274.96 709.8,-271.81 710.04,-278.8"/>
<text text-anchor="middle" x="711.02" y="-246.16" font-family="Helvetica,sans-Serif" font-size="32.00" fill="#29235c">1</text>
<text text-anchor="middle" x="473.58" y="-627.16" font-family="Helvetica,sans-Serif" font-size="32.00" fill="#29235c">*</text>
</g>
<!-- squad_members&#45;&gt;users -->
<!-- squad_members&#45;&gt;users -->
<g id="edge2" class="edge">
<title>squad_members:e&#45;&gt;users:w</title>
<path fill="none" stroke="#29235c" stroke-width="3" d="M467.36,-715.96C681.24,-715.96 468.61,-1142.86 668.74,-1156.62"/>
<polygon fill="#29235c" stroke="#29235c" stroke-width="3" points="668.8,-1160.12 678.91,-1156.96 669.04,-1153.13 668.8,-1160.12"/>
<text text-anchor="middle" x="670.02" y="-1166.56" font-family="Helvetica,sans-Serif" font-size="32.00" fill="#29235c">1</text>
<text text-anchor="middle" x="473.58" y="-715.96" font-family="Helvetica,sans-Serif" font-size="32.00" fill="#29235c">*</text>
</g>
</g>
</svg>
