<?xml version="1.0" encoding="UTF-8" standalone="no"?>
<!DOCTYPE svg PUBLIC "-//W3C//DTD SVG 1.1//EN"
 "http://www.w3.org/Graphics/SVG/1.1/DTD/svg11.dtd">
<!-- Generated by graphviz version 2.47.0 (20210316.0004)
 -->
<!-- Title: dbml Pages: 1 -->
<svg width="528pt" height="353pt"
 viewBox="0.00 0.00 528.43 353.07" xmlns="http://www.w3.org/2000/svg" xmlns:xlink="http://www.w3.org/1999/xlink">
<g id="graph0" class="graph" transform="scale(1 1) rotate(0) translate(4 349.07)">
<title>dbml</title>
<!-- squad -->
<g id="squad" class="node">
<title>squad</title>
<ellipse fill="none" stroke="black" stroke-width="0" cx="260.22" cy="-172.53" rx="260.43" ry="172.57"/>
<polygon fill="#1d71b8" stroke="transparent" points="78.22,-232.53 78.22,-292.53 442.22,-292.53 442.22,-232.53 78.22,-232.53"/>
<polygon fill="none" stroke="#29235c" points="78.22,-232.53 78.22,-292.53 442.22,-292.53 442.22,-232.53 78.22,-232.53"/>
<text text-anchor="start" x="154.39" y="-253.73" font-family="Helvetica,sans-Serif" font-weight="bold" font-size="32.00" fill="#ffffff"> &#160;&#160;&#160;&#160;&#160;&#160;squad &#160;&#160;&#160;&#160;&#160;&#160;</text>
<polygon fill="#e7e2dd" stroke="transparent" points="78.22,-172.53 78.22,-232.53 442.22,-232.53 442.22,-172.53 78.22,-172.53"/>
<polygon fill="none" stroke="#29235c" points="78.22,-172.53 78.22,-232.53 442.22,-232.53 442.22,-172.53 78.22,-172.53"/>
<text text-anchor="start" x="89.22" y="-193.73" font-family="Helvetica,sans-Serif" font-weight="bold" font-size="32.00" fill="#29235c">id</text>
<text text-anchor="start" x="114.1" y="-193.73" font-family="Helvetica,sans-Serif" font-size="32.00" fill="#29235c"> &#160;&#160;&#160;</text>
<text text-anchor="start" x="397.43" y="-193.73" font-family="Helvetica,sans-Serif" font-style="italic" font-size="32.00" fill="#29235c">int</text>
<polygon fill="#e7e2dd" stroke="transparent" points="78.22,-112.53 78.22,-172.53 442.22,-172.53 442.22,-112.53 78.22,-112.53"/>
<polygon fill="none" stroke="#29235c" points="78.22,-112.53 78.22,-172.53 442.22,-172.53 442.22,-112.53 78.22,-112.53"/>
<text text-anchor="start" x="89.22" y="-132.73" font-family="Helvetica,sans-Serif" font-size="32.00" fill="#29235c">created_at &#160;&#160;&#160;</text>
<text text-anchor="start" x="283.66" y="-133.73" font-family="Helvetica,sans-Serif" font-style="italic" font-size="32.00" fill="#29235c">timestamp</text>
<polygon fill="#e7e2dd" stroke="transparent" points="78.22,-52.53 78.22,-112.53 442.22,-112.53 442.22,-52.53 78.22,-52.53"/>
<polygon fill="none" stroke="#29235c" points="78.22,-52.53 78.22,-112.53 442.22,-112.53 442.22,-52.53 78.22,-52.53"/>
<text text-anchor="start" x="88.88" y="-72.73" font-family="Helvetica,sans-Serif" font-size="32.00" fill="#29235c">updated_at &#160;&#160;&#160;</text>
<text text-anchor="start" x="283.94" y="-73.73" font-family="Helvetica,sans-Serif" font-style="italic" font-size="32.00" fill="#29235c">timestamp</text>
<polygon fill="none" stroke="#29235c" stroke-width="2" points="77.22,-51.53 77.22,-293.53 443.22,-293.53 443.22,-51.53 77.22,-51.53"/>
</g>
</g>
</svg>
