<?xml version="1.0" encoding="UTF-8" standalone="no"?>
<!DOCTYPE svg PUBLIC "-//W3C//DTD SVG 1.1//EN"
 "http://www.w3.org/Graphics/SVG/1.1/DTD/svg11.dtd">
<!-- Generated by graphviz version 2.47.0 (20210316.0004)
 -->
<!-- Title: dbml Pages: 1 -->
<svg width="2898pt" height="1728pt"
 viewBox="0.00 0.00 2898.40 1728.35" xmlns="http://www.w3.org/2000/svg" xmlns:xlink="http://www.w3.org/1999/xlink">
<g id="graph0" class="graph" transform="scale(1 1) rotate(0) translate(4 1724.35)">
<title>dbml</title>
<!-- levels -->
<g id="levels" class="node">
<title>levels</title>
<ellipse fill="none" stroke="black" stroke-width="0" cx="2073.76" cy="-280.53" rx="260.43" ry="214.92"/>
<polygon fill="#1d71b8" stroke="transparent" points="1891.76,-370.53 1891.76,-430.53 2255.76,-430.53 2255.76,-370.53 1891.76,-370.53"/>
<polygon fill="none" stroke="#29235c" points="1891.76,-370.53 1891.76,-430.53 2255.76,-430.53 2255.76,-370.53 1891.76,-370.53"/>
<text text-anchor="start" x="1970.62" y="-391.73" font-family="Helvetica,sans-Serif" font-weight="bold" font-size="32.00" fill="#ffffff"> &#160;&#160;&#160;&#160;&#160;&#160;levels &#160;&#160;&#160;&#160;&#160;&#160;</text>
<polygon fill="#e7e2dd" stroke="transparent" points="1891.76,-310.53 1891.76,-370.53 2255.76,-370.53 2255.76,-310.53 1891.76,-310.53"/>
<polygon fill="none" stroke="#29235c" points="1891.76,-310.53 1891.76,-370.53 2255.76,-370.53 2255.76,-310.53 1891.76,-310.53"/>
<text text-anchor="start" x="1902.76" y="-331.73" font-family="Helvetica,sans-Serif" font-weight="bold" font-size="32.00" fill="#29235c">id</text>
<text text-anchor="start" x="1927.65" y="-331.73" font-family="Helvetica,sans-Serif" font-size="32.00" fill="#29235c"> &#160;&#160;&#160;</text>
<text text-anchor="start" x="2210.97" y="-331.73" font-family="Helvetica,sans-Serif" font-style="italic" font-size="32.00" fill="#29235c">int</text>
<polygon fill="#e7e2dd" stroke="transparent" points="1891.76,-250.53 1891.76,-310.53 2255.76,-310.53 2255.76,-250.53 1891.76,-250.53"/>
<polygon fill="none" stroke="#29235c" points="1891.76,-250.53 1891.76,-310.53 2255.76,-310.53 2255.76,-250.53 1891.76,-250.53"/>
<text text-anchor="start" x="1902.76" y="-270.73" font-family="Helvetica,sans-Serif" font-size="32.00" fill="#29235c">name &#160;&#160;&#160;</text>
<text text-anchor="start" x="2098.99" y="-271.73" font-family="Helvetica,sans-Serif" font-style="italic" font-size="32.00" fill="#29235c">varchar</text>
<text text-anchor="start" x="2205.67" y="-271.73" font-family="Helvetica,sans-Serif" font-size="32.00" fill="#29235c"> </text>
<text text-anchor="start" x="2214.56" y="-271.73" font-family="Helvetica,sans-Serif" font-weight="bold" font-size="32.00" fill="#29235c">(!)</text>
<polygon fill="#e7e2dd" stroke="transparent" points="1891.76,-190.53 1891.76,-250.53 2255.76,-250.53 2255.76,-190.53 1891.76,-190.53"/>
<polygon fill="none" stroke="#29235c" points="1891.76,-190.53 1891.76,-250.53 2255.76,-250.53 2255.76,-190.53 1891.76,-190.53"/>
<text text-anchor="start" x="1902.76" y="-210.73" font-family="Helvetica,sans-Serif" font-size="32.00" fill="#29235c">created_at &#160;&#160;&#160;</text>
<text text-anchor="start" x="2097.2" y="-211.73" font-family="Helvetica,sans-Serif" font-style="italic" font-size="32.00" fill="#29235c">timestamp</text>
<polygon fill="#e7e2dd" stroke="transparent" points="1891.76,-130.53 1891.76,-190.53 2255.76,-190.53 2255.76,-130.53 1891.76,-130.53"/>
<polygon fill="none" stroke="#29235c" points="1891.76,-130.53 1891.76,-190.53 2255.76,-190.53 2255.76,-130.53 1891.76,-130.53"/>
<text text-anchor="start" x="1902.42" y="-150.73" font-family="Helvetica,sans-Serif" font-size="32.00" fill="#29235c">updated_at &#160;&#160;&#160;</text>
<text text-anchor="start" x="2097.48" y="-151.73" font-family="Helvetica,sans-Serif" font-style="italic" font-size="32.00" fill="#29235c">timestamp</text>
<polygon fill="none" stroke="#29235c" stroke-width="2" points="1890.76,-129.53 1890.76,-431.53 2256.76,-431.53 2256.76,-129.53 1890.76,-129.53"/>
</g>
<!-- positions -->
<g id="positions" class="node">
<title>positions</title>
<ellipse fill="none" stroke="black" stroke-width="0" cx="2073.76" cy="-770.53" rx="260.43" ry="257.27"/>
<polygon fill="#1d71b8" stroke="transparent" points="1891.76,-890.53 1891.76,-950.53 2255.76,-950.53 2255.76,-890.53 1891.76,-890.53"/>
<polygon fill="none" stroke="#29235c" points="1891.76,-890.53 1891.76,-950.53 2255.76,-950.53 2255.76,-890.53 1891.76,-890.53"/>
<text text-anchor="start" x="1948.38" y="-911.73" font-family="Helvetica,sans-Serif" font-weight="bold" font-size="32.00" fill="#ffffff"> &#160;&#160;&#160;&#160;&#160;&#160;positions &#160;&#160;&#160;&#160;&#160;&#160;</text>
<polygon fill="#e7e2dd" stroke="transparent" points="1891.76,-830.53 1891.76,-890.53 2255.76,-890.53 2255.76,-830.53 1891.76,-830.53"/>
<polygon fill="none" stroke="#29235c" points="1891.76,-830.53 1891.76,-890.53 2255.76,-890.53 2255.76,-830.53 1891.76,-830.53"/>
<text text-anchor="start" x="1902.76" y="-851.73" font-family="Helvetica,sans-Serif" font-weight="bold" font-size="32.00" fill="#29235c">id</text>
<text text-anchor="start" x="1927.65" y="-851.73" font-family="Helvetica,sans-Serif" font-size="32.00" fill="#29235c"> &#160;&#160;&#160;</text>
<text text-anchor="start" x="2210.97" y="-851.73" font-family="Helvetica,sans-Serif" font-style="italic" font-size="32.00" fill="#29235c">int</text>
<polygon fill="#e7e2dd" stroke="transparent" points="1891.76,-770.53 1891.76,-830.53 2255.76,-830.53 2255.76,-770.53 1891.76,-770.53"/>
<polygon fill="none" stroke="#29235c" points="1891.76,-770.53 1891.76,-830.53 2255.76,-830.53 2255.76,-770.53 1891.76,-770.53"/>
<text text-anchor="start" x="1902.76" y="-790.73" font-family="Helvetica,sans-Serif" font-size="32.00" fill="#29235c">name &#160;&#160;&#160;</text>
<text text-anchor="start" x="2098.99" y="-791.73" font-family="Helvetica,sans-Serif" font-style="italic" font-size="32.00" fill="#29235c">varchar</text>
<text text-anchor="start" x="2205.67" y="-791.73" font-family="Helvetica,sans-Serif" font-size="32.00" fill="#29235c"> </text>
<text text-anchor="start" x="2214.56" y="-791.73" font-family="Helvetica,sans-Serif" font-weight="bold" font-size="32.00" fill="#29235c">(!)</text>
<polygon fill="#e7e2dd" stroke="transparent" points="1891.76,-710.53 1891.76,-770.53 2255.76,-770.53 2255.76,-710.53 1891.76,-710.53"/>
<polygon fill="none" stroke="#29235c" points="1891.76,-710.53 1891.76,-770.53 2255.76,-770.53 2255.76,-710.53 1891.76,-710.53"/>
<text text-anchor="start" x="1902.76" y="-730.73" font-family="Helvetica,sans-Serif" font-size="32.00" fill="#29235c">department_id &#160;&#160;&#160;</text>
<text text-anchor="start" x="2210.97" y="-731.73" font-family="Helvetica,sans-Serif" font-style="italic" font-size="32.00" fill="#29235c">int</text>
<polygon fill="#e7e2dd" stroke="transparent" points="1891.76,-650.53 1891.76,-710.53 2255.76,-710.53 2255.76,-650.53 1891.76,-650.53"/>
<polygon fill="none" stroke="#29235c" points="1891.76,-650.53 1891.76,-710.53 2255.76,-710.53 2255.76,-650.53 1891.76,-650.53"/>
<text text-anchor="start" x="1902.76" y="-670.73" font-family="Helvetica,sans-Serif" font-size="32.00" fill="#29235c">created_at &#160;&#160;&#160;</text>
<text text-anchor="start" x="2097.2" y="-671.73" font-family="Helvetica,sans-Serif" font-style="italic" font-size="32.00" fill="#29235c">timestamp</text>
<polygon fill="#e7e2dd" stroke="transparent" points="1891.76,-590.53 1891.76,-650.53 2255.76,-650.53 2255.76,-590.53 1891.76,-590.53"/>
<polygon fill="none" stroke="#29235c" points="1891.76,-590.53 1891.76,-650.53 2255.76,-650.53 2255.76,-590.53 1891.76,-590.53"/>
<text text-anchor="start" x="1902.42" y="-610.73" font-family="Helvetica,sans-Serif" font-size="32.00" fill="#29235c">updated_at &#160;&#160;&#160;</text>
<text text-anchor="start" x="2097.48" y="-611.73" font-family="Helvetica,sans-Serif" font-style="italic" font-size="32.00" fill="#29235c">timestamp</text>
<polygon fill="none" stroke="#29235c" stroke-width="2" points="1890.76,-589.53 1890.76,-951.53 2256.76,-951.53 2256.76,-589.53 1890.76,-589.53"/>
</g>
<!-- departments -->
<g id="departments" class="node">
<title>departments</title>
<ellipse fill="none" stroke="black" stroke-width="0" cx="2630.19" cy="-800.53" rx="260.43" ry="214.92"/>
<polygon fill="#1d71b8" stroke="transparent" points="2448.19,-890.53 2448.19,-950.53 2812.19,-950.53 2812.19,-890.53 2448.19,-890.53"/>
<polygon fill="none" stroke="#29235c" points="2448.19,-890.53 2448.19,-950.53 2812.19,-950.53 2812.19,-890.53 2448.19,-890.53"/>
<text text-anchor="start" x="2479.03" y="-911.73" font-family="Helvetica,sans-Serif" font-weight="bold" font-size="32.00" fill="#ffffff"> &#160;&#160;&#160;&#160;&#160;&#160;departments &#160;&#160;&#160;&#160;&#160;&#160;</text>
<polygon fill="#e7e2dd" stroke="transparent" points="2448.19,-830.53 2448.19,-890.53 2812.19,-890.53 2812.19,-830.53 2448.19,-830.53"/>
<polygon fill="none" stroke="#29235c" points="2448.19,-830.53 2448.19,-890.53 2812.19,-890.53 2812.19,-830.53 2448.19,-830.53"/>
<text text-anchor="start" x="2459.19" y="-851.73" font-family="Helvetica,sans-Serif" font-weight="bold" font-size="32.00" fill="#29235c">id</text>
<text text-anchor="start" x="2484.08" y="-851.73" font-family="Helvetica,sans-Serif" font-size="32.00" fill="#29235c"> &#160;&#160;&#160;</text>
<text text-anchor="start" x="2767.41" y="-851.73" font-family="Helvetica,sans-Serif" font-style="italic" font-size="32.00" fill="#29235c">int</text>
<polygon fill="#e7e2dd" stroke="transparent" points="2448.19,-770.53 2448.19,-830.53 2812.19,-830.53 2812.19,-770.53 2448.19,-770.53"/>
<polygon fill="none" stroke="#29235c" points="2448.19,-770.53 2448.19,-830.53 2812.19,-830.53 2812.19,-770.53 2448.19,-770.53"/>
<text text-anchor="start" x="2459.19" y="-790.73" font-family="Helvetica,sans-Serif" font-size="32.00" fill="#29235c">name &#160;&#160;&#160;</text>
<text text-anchor="start" x="2655.42" y="-791.73" font-family="Helvetica,sans-Serif" font-style="italic" font-size="32.00" fill="#29235c">varchar</text>
<text text-anchor="start" x="2762.1" y="-791.73" font-family="Helvetica,sans-Serif" font-size="32.00" fill="#29235c"> </text>
<text text-anchor="start" x="2770.99" y="-791.73" font-family="Helvetica,sans-Serif" font-weight="bold" font-size="32.00" fill="#29235c">(!)</text>
<polygon fill="#e7e2dd" stroke="transparent" points="2448.19,-710.53 2448.19,-770.53 2812.19,-770.53 2812.19,-710.53 2448.19,-710.53"/>
<polygon fill="none" stroke="#29235c" points="2448.19,-710.53 2448.19,-770.53 2812.19,-770.53 2812.19,-710.53 2448.19,-710.53"/>
<text text-anchor="start" x="2459.19" y="-730.73" font-family="Helvetica,sans-Serif" font-size="32.00" fill="#29235c">created_at &#160;&#160;&#160;</text>
<text text-anchor="start" x="2653.63" y="-731.73" font-family="Helvetica,sans-Serif" font-style="italic" font-size="32.00" fill="#29235c">timestamp</text>
<polygon fill="#e7e2dd" stroke="transparent" points="2448.19,-650.53 2448.19,-710.53 2812.19,-710.53 2812.19,-650.53 2448.19,-650.53"/>
<polygon fill="none" stroke="#29235c" points="2448.19,-650.53 2448.19,-710.53 2812.19,-710.53 2812.19,-650.53 2448.19,-650.53"/>
<text text-anchor="start" x="2458.85" y="-670.73" font-family="Helvetica,sans-Serif" font-size="32.00" fill="#29235c">updated_at &#160;&#160;&#160;</text>
<text text-anchor="start" x="2653.91" y="-671.73" font-family="Helvetica,sans-Serif" font-style="italic" font-size="32.00" fill="#29235c">timestamp</text>
<polygon fill="none" stroke="#29235c" stroke-width="2" points="2447.19,-649.53 2447.19,-951.53 2813.19,-951.53 2813.19,-649.53 2447.19,-649.53"/>
</g>
<!-- positions&#45;&gt;departments -->
<!-- positions&#45;&gt;departments -->
<g id="edge2" class="edge">
<title>positions:e&#45;&gt;departments:w</title>
<path fill="none" stroke="#29235c" stroke-width="3" d="M2256.76,-740.53C2353.28,-740.53 2347.69,-852.24 2437.03,-860.1"/>
<polygon fill="#29235c" stroke="#29235c" stroke-width="3" points="2437.05,-863.6 2447.19,-860.53 2437.35,-856.61 2437.05,-863.6"/>
<text text-anchor="middle" x="2438.29" y="-831.73" font-family="Helvetica,sans-Serif" font-size="32.00" fill="#29235c">1</text>
<text text-anchor="middle" x="2262.98" y="-711.73" font-family="Helvetica,sans-Serif" font-size="32.00" fill="#29235c">*</text>
</g>
<!-- titles -->
<g id="titles" class="node">
<title>titles</title>
<ellipse fill="none" stroke="black" stroke-width="0" cx="1517.33" cy="-710.53" rx="260.43" ry="342.48"/>
<polygon fill="#1d71b8" stroke="transparent" points="1335.33,-890.53 1335.33,-950.53 1699.33,-950.53 1699.33,-890.53 1335.33,-890.53"/>
<polygon fill="none" stroke="#29235c" points="1335.33,-890.53 1335.33,-950.53 1699.33,-950.53 1699.33,-890.53 1335.33,-890.53"/>
<text text-anchor="start" x="1422.19" y="-911.73" font-family="Helvetica,sans-Serif" font-weight="bold" font-size="32.00" fill="#ffffff"> &#160;&#160;&#160;&#160;&#160;&#160;titles &#160;&#160;&#160;&#160;&#160;&#160;</text>
<polygon fill="#e7e2dd" stroke="transparent" points="1335.33,-830.53 1335.33,-890.53 1699.33,-890.53 1699.33,-830.53 1335.33,-830.53"/>
<polygon fill="none" stroke="#29235c" points="1335.33,-830.53 1335.33,-890.53 1699.33,-890.53 1699.33,-830.53 1335.33,-830.53"/>
<text text-anchor="start" x="1346.33" y="-851.73" font-family="Helvetica,sans-Serif" font-weight="bold" font-size="32.00" fill="#29235c">id</text>
<text text-anchor="start" x="1371.22" y="-851.73" font-family="Helvetica,sans-Serif" font-size="32.00" fill="#29235c"> &#160;&#160;&#160;</text>
<text text-anchor="start" x="1654.54" y="-851.73" font-family="Helvetica,sans-Serif" font-style="italic" font-size="32.00" fill="#29235c">int</text>
<polygon fill="#e7e2dd" stroke="transparent" points="1335.33,-770.53 1335.33,-830.53 1699.33,-830.53 1699.33,-770.53 1335.33,-770.53"/>
<polygon fill="none" stroke="#29235c" points="1335.33,-770.53 1335.33,-830.53 1699.33,-830.53 1699.33,-770.53 1335.33,-770.53"/>
<text text-anchor="start" x="1346.33" y="-790.73" font-family="Helvetica,sans-Serif" font-size="32.00" fill="#29235c">name &#160;&#160;&#160;</text>
<text text-anchor="start" x="1542.56" y="-791.73" font-family="Helvetica,sans-Serif" font-style="italic" font-size="32.00" fill="#29235c">varchar</text>
<text text-anchor="start" x="1649.24" y="-791.73" font-family="Helvetica,sans-Serif" font-size="32.00" fill="#29235c"> </text>
<text text-anchor="start" x="1658.13" y="-791.73" font-family="Helvetica,sans-Serif" font-weight="bold" font-size="32.00" fill="#29235c">(!)</text>
<polygon fill="#e7e2dd" stroke="transparent" points="1335.33,-710.53 1335.33,-770.53 1699.33,-770.53 1699.33,-710.53 1335.33,-710.53"/>
<polygon fill="none" stroke="#29235c" points="1335.33,-710.53 1335.33,-770.53 1699.33,-770.53 1699.33,-710.53 1335.33,-710.53"/>
<text text-anchor="start" x="1346.33" y="-730.73" font-family="Helvetica,sans-Serif" font-size="32.00" fill="#29235c">department_id &#160;&#160;&#160;</text>
<text text-anchor="start" x="1654.54" y="-731.73" font-family="Helvetica,sans-Serif" font-style="italic" font-size="32.00" fill="#29235c">int</text>
<polygon fill="#e7e2dd" stroke="transparent" points="1335.33,-650.53 1335.33,-710.53 1699.33,-710.53 1699.33,-650.53 1335.33,-650.53"/>
<polygon fill="none" stroke="#29235c" points="1335.33,-650.53 1335.33,-710.53 1699.33,-710.53 1699.33,-650.53 1335.33,-650.53"/>
<text text-anchor="start" x="1346.33" y="-670.73" font-family="Helvetica,sans-Serif" font-size="32.00" fill="#29235c">position_id &#160;&#160;&#160;</text>
<text text-anchor="start" x="1654.54" y="-671.73" font-family="Helvetica,sans-Serif" font-style="italic" font-size="32.00" fill="#29235c">int</text>
<polygon fill="#e7e2dd" stroke="transparent" points="1335.33,-590.53 1335.33,-650.53 1699.33,-650.53 1699.33,-590.53 1335.33,-590.53"/>
<polygon fill="none" stroke="#29235c" points="1335.33,-590.53 1335.33,-650.53 1699.33,-650.53 1699.33,-590.53 1335.33,-590.53"/>
<text text-anchor="start" x="1346.33" y="-610.73" font-family="Helvetica,sans-Serif" font-size="32.00" fill="#29235c">level_id &#160;&#160;&#160;</text>
<text text-anchor="start" x="1654.54" y="-611.73" font-family="Helvetica,sans-Serif" font-style="italic" font-size="32.00" fill="#29235c">int</text>
<polygon fill="#e7e2dd" stroke="transparent" points="1335.33,-530.53 1335.33,-590.53 1699.33,-590.53 1699.33,-530.53 1335.33,-530.53"/>
<polygon fill="none" stroke="#29235c" points="1335.33,-530.53 1335.33,-590.53 1699.33,-590.53 1699.33,-530.53 1335.33,-530.53"/>
<text text-anchor="start" x="1346.33" y="-550.73" font-family="Helvetica,sans-Serif" font-size="32.00" fill="#29235c">created_at &#160;&#160;&#160;</text>
<text text-anchor="start" x="1540.77" y="-551.73" font-family="Helvetica,sans-Serif" font-style="italic" font-size="32.00" fill="#29235c">timestamp</text>
<polygon fill="#e7e2dd" stroke="transparent" points="1335.33,-470.53 1335.33,-530.53 1699.33,-530.53 1699.33,-470.53 1335.33,-470.53"/>
<polygon fill="none" stroke="#29235c" points="1335.33,-470.53 1335.33,-530.53 1699.33,-530.53 1699.33,-470.53 1335.33,-470.53"/>
<text text-anchor="start" x="1345.99" y="-490.73" font-family="Helvetica,sans-Serif" font-size="32.00" fill="#29235c">updated_at &#160;&#160;&#160;</text>
<text text-anchor="start" x="1541.05" y="-491.73" font-family="Helvetica,sans-Serif" font-style="italic" font-size="32.00" fill="#29235c">timestamp</text>
<polygon fill="none" stroke="#29235c" stroke-width="2" points="1334.33,-469.53 1334.33,-951.53 1700.33,-951.53 1700.33,-469.53 1334.33,-469.53"/>
</g>
<!-- titles&#45;&gt;levels -->
<!-- titles&#45;&gt;levels -->
<g id="edge8" class="edge">
<title>titles:e&#45;&gt;levels:w</title>
<path fill="none" stroke="#29235c" stroke-width="3" d="M1700.33,-620.53C1847.3,-620.53 1745.3,-353.5 1880.6,-340.99"/>
<polygon fill="#29235c" stroke="#29235c" stroke-width="3" points="1880.92,-344.48 1890.76,-340.53 1880.61,-337.48 1880.92,-344.48"/>
<text text-anchor="middle" x="1881.86" y="-311.73" font-family="Helvetica,sans-Serif" font-size="32.00" fill="#29235c">1</text>
<text text-anchor="middle" x="1694.1" y="-591.73" font-family="Helvetica,sans-Serif" font-size="32.00" fill="#29235c">*</text>
</g>
<!-- titles&#45;&gt;positions -->
<!-- titles&#45;&gt;positions -->
<g id="edge6" class="edge">
<title>titles:e&#45;&gt;positions:w</title>
<path fill="none" stroke="#29235c" stroke-width="3" d="M1700.33,-680.53C1813.26,-680.53 1776.72,-849.8 1880.61,-860.05"/>
<polygon fill="#29235c" stroke="#29235c" stroke-width="3" points="1880.6,-863.55 1890.76,-860.53 1880.94,-856.56 1880.6,-863.55"/>
<text text-anchor="middle" x="1881.86" y="-831.73" font-family="Helvetica,sans-Serif" font-size="32.00" fill="#29235c">1</text>
<text text-anchor="middle" x="1694.1" y="-651.73" font-family="Helvetica,sans-Serif" font-size="32.00" fill="#29235c">*</text>
</g>
<!-- titles&#45;&gt;departments -->
<!-- titles&#45;&gt;departments -->
<g id="edge4" class="edge">
<title>titles:e&#45;&gt;departments:w</title>
<path fill="none" stroke="#29235c" stroke-width="3" d="M1700.33,-740.53C1854.39,-740.53 1696.04,-156.18 1813.54,-56.53 1901.74,18.27 2246.68,19.33 2333.97,-56.53 2467.5,-172.58 2274.57,-833.97 2437.05,-859.76"/>
<polygon fill="#29235c" stroke="#29235c" stroke-width="3" points="2436.95,-863.26 2447.19,-860.53 2437.48,-856.28 2436.95,-863.26"/>
<text text-anchor="middle" x="2456.08" y="-831.73" font-family="Helvetica,sans-Serif" font-size="32.00" fill="#29235c">1</text>
<text text-anchor="middle" x="1694.1" y="-711.73" font-family="Helvetica,sans-Serif" font-size="32.00" fill="#29235c">*</text>
</g>
<!-- users -->
<g id="users" class="node">
<title>users</title>
<ellipse fill="none" stroke="black" stroke-width="0" cx="902.91" cy="-590.53" rx="318.4" ry="511.89"/>
<polygon fill="#1d71b8" stroke="transparent" points="679.91,-890.53 679.91,-950.53 1125.91,-950.53 1125.91,-890.53 679.91,-890.53"/>
<polygon fill="none" stroke="#29235c" points="679.91,-890.53 679.91,-950.53 1125.91,-950.53 1125.91,-890.53 679.91,-890.53"/>
<text text-anchor="start" x="801.55" y="-911.73" font-family="Helvetica,sans-Serif" font-weight="bold" font-size="32.00" fill="#ffffff"> &#160;&#160;&#160;&#160;&#160;&#160;users &#160;&#160;&#160;&#160;&#160;&#160;</text>
<polygon fill="#e7e2dd" stroke="transparent" points="679.91,-830.53 679.91,-890.53 1125.91,-890.53 1125.91,-830.53 679.91,-830.53"/>
<polygon fill="none" stroke="#29235c" points="679.91,-830.53 679.91,-890.53 1125.91,-890.53 1125.91,-830.53 679.91,-830.53"/>
<text text-anchor="start" x="690.91" y="-851.73" font-family="Helvetica,sans-Serif" font-weight="bold" font-size="32.00" fill="#29235c">id</text>
<text text-anchor="start" x="715.8" y="-851.73" font-family="Helvetica,sans-Serif" font-size="32.00" fill="#29235c"> &#160;&#160;&#160;</text>
<text text-anchor="start" x="1081.13" y="-851.73" font-family="Helvetica,sans-Serif" font-style="italic" font-size="32.00" fill="#29235c">int</text>
<polygon fill="#e7e2dd" stroke="transparent" points="679.91,-770.53 679.91,-830.53 1125.91,-830.53 1125.91,-770.53 679.91,-770.53"/>
<polygon fill="none" stroke="#29235c" points="679.91,-770.53 679.91,-830.53 1125.91,-830.53 1125.91,-770.53 679.91,-770.53"/>
<text text-anchor="start" x="690.91" y="-790.73" font-family="Helvetica,sans-Serif" font-size="32.00" fill="#29235c">title_id &#160;&#160;&#160;</text>
<text text-anchor="start" x="1081.13" y="-791.73" font-family="Helvetica,sans-Serif" font-style="italic" font-size="32.00" fill="#29235c">int</text>
<polygon fill="#e7e2dd" stroke="transparent" points="679.91,-710.53 679.91,-770.53 1125.91,-770.53 1125.91,-710.53 679.91,-710.53"/>
<polygon fill="none" stroke="#29235c" points="679.91,-710.53 679.91,-770.53 1125.91,-770.53 1125.91,-710.53 679.91,-710.53"/>
<text text-anchor="start" x="690.91" y="-730.73" font-family="Helvetica,sans-Serif" font-size="32.00" fill="#29235c">name &#160;&#160;&#160;</text>
<text text-anchor="start" x="969.15" y="-731.73" font-family="Helvetica,sans-Serif" font-style="italic" font-size="32.00" fill="#29235c">varchar</text>
<text text-anchor="start" x="1075.82" y="-731.73" font-family="Helvetica,sans-Serif" font-size="32.00" fill="#29235c"> </text>
<text text-anchor="start" x="1084.71" y="-731.73" font-family="Helvetica,sans-Serif" font-weight="bold" font-size="32.00" fill="#29235c">(!)</text>
<polygon fill="#e7e2dd" stroke="transparent" points="679.91,-650.53 679.91,-710.53 1125.91,-710.53 1125.91,-650.53 679.91,-650.53"/>
<polygon fill="none" stroke="#29235c" points="679.91,-650.53 679.91,-710.53 1125.91,-710.53 1125.91,-650.53 679.91,-650.53"/>
<text text-anchor="start" x="690.91" y="-670.73" font-family="Helvetica,sans-Serif" font-size="32.00" fill="#29235c">email &#160;&#160;&#160;</text>
<text text-anchor="start" x="969.15" y="-671.73" font-family="Helvetica,sans-Serif" font-style="italic" font-size="32.00" fill="#29235c">varchar</text>
<text text-anchor="start" x="1075.82" y="-671.73" font-family="Helvetica,sans-Serif" font-size="32.00" fill="#29235c"> </text>
<text text-anchor="start" x="1084.71" y="-671.73" font-family="Helvetica,sans-Serif" font-weight="bold" font-size="32.00" fill="#29235c">(!)</text>
<polygon fill="#e7e2dd" stroke="transparent" points="679.91,-590.53 679.91,-650.53 1125.91,-650.53 1125.91,-590.53 679.91,-590.53"/>
<polygon fill="none" stroke="#29235c" points="679.91,-590.53 679.91,-650.53 1125.91,-650.53 1125.91,-590.53 679.91,-590.53"/>
<text text-anchor="start" x="690.72" y="-610.73" font-family="Helvetica,sans-Serif" font-size="32.00" fill="#29235c">email_verified_at &#160;&#160;&#160;</text>
<text text-anchor="start" x="967.63" y="-611.73" font-family="Helvetica,sans-Serif" font-style="italic" font-size="32.00" fill="#29235c">timestamp</text>
<polygon fill="#e7e2dd" stroke="transparent" points="679.91,-530.53 679.91,-590.53 1125.91,-590.53 1125.91,-530.53 679.91,-530.53"/>
<polygon fill="none" stroke="#29235c" points="679.91,-530.53 679.91,-590.53 1125.91,-590.53 1125.91,-530.53 679.91,-530.53"/>
<text text-anchor="start" x="690.91" y="-550.73" font-family="Helvetica,sans-Serif" font-size="32.00" fill="#29235c">password &#160;&#160;&#160;</text>
<text text-anchor="start" x="969.15" y="-551.73" font-family="Helvetica,sans-Serif" font-style="italic" font-size="32.00" fill="#29235c">varchar</text>
<text text-anchor="start" x="1075.82" y="-551.73" font-family="Helvetica,sans-Serif" font-size="32.00" fill="#29235c"> </text>
<text text-anchor="start" x="1084.71" y="-551.73" font-family="Helvetica,sans-Serif" font-weight="bold" font-size="32.00" fill="#29235c">(!)</text>
<polygon fill="#e7e2dd" stroke="transparent" points="679.91,-470.53 679.91,-530.53 1125.91,-530.53 1125.91,-470.53 679.91,-470.53"/>
<polygon fill="none" stroke="#29235c" points="679.91,-470.53 679.91,-530.53 1125.91,-530.53 1125.91,-470.53 679.91,-470.53"/>
<text text-anchor="start" x="690.91" y="-490.73" font-family="Helvetica,sans-Serif" font-size="32.00" fill="#29235c">remember_token &#160;&#160;&#160;</text>
<text text-anchor="start" x="1008.24" y="-491.73" font-family="Helvetica,sans-Serif" font-style="italic" font-size="32.00" fill="#29235c">varchar</text>
<polygon fill="#e7e2dd" stroke="transparent" points="679.91,-410.53 679.91,-470.53 1125.91,-470.53 1125.91,-410.53 679.91,-410.53"/>
<polygon fill="none" stroke="#29235c" points="679.91,-410.53 679.91,-470.53 1125.91,-470.53 1125.91,-410.53 679.91,-410.53"/>
<text text-anchor="start" x="690.91" y="-430.73" font-family="Helvetica,sans-Serif" font-size="32.00" fill="#29235c">custom_fields &#160;&#160;&#160;</text>
<text text-anchor="start" x="1056.23" y="-431.73" font-family="Helvetica,sans-Serif" font-style="italic" font-size="32.00" fill="#29235c">json</text>
<polygon fill="#e7e2dd" stroke="transparent" points="679.91,-350.53 679.91,-410.53 1125.91,-410.53 1125.91,-350.53 679.91,-350.53"/>
<polygon fill="none" stroke="#29235c" points="679.91,-350.53 679.91,-410.53 1125.91,-410.53 1125.91,-350.53 679.91,-350.53"/>
<text text-anchor="start" x="690.91" y="-370.73" font-family="Helvetica,sans-Serif" font-size="32.00" fill="#29235c">avatar_url &#160;&#160;&#160;</text>
<text text-anchor="start" x="1008.24" y="-371.73" font-family="Helvetica,sans-Serif" font-style="italic" font-size="32.00" fill="#29235c">varchar</text>
<polygon fill="#e7e2dd" stroke="transparent" points="679.91,-290.53 679.91,-350.53 1125.91,-350.53 1125.91,-290.53 679.91,-290.53"/>
<polygon fill="none" stroke="#29235c" points="679.91,-290.53 679.91,-350.53 1125.91,-350.53 1125.91,-290.53 679.91,-290.53"/>
<text text-anchor="start" x="690.91" y="-310.73" font-family="Helvetica,sans-Serif" font-size="32.00" fill="#29235c">created_at &#160;&#160;&#160;</text>
<text text-anchor="start" x="967.35" y="-311.73" font-family="Helvetica,sans-Serif" font-style="italic" font-size="32.00" fill="#29235c">timestamp</text>
<polygon fill="#e7e2dd" stroke="transparent" points="679.91,-230.53 679.91,-290.53 1125.91,-290.53 1125.91,-230.53 679.91,-230.53"/>
<polygon fill="none" stroke="#29235c" points="679.91,-230.53 679.91,-290.53 1125.91,-290.53 1125.91,-230.53 679.91,-230.53"/>
<text text-anchor="start" x="690.91" y="-250.73" font-family="Helvetica,sans-Serif" font-size="32.00" fill="#29235c">updated_at &#160;&#160;&#160;</text>
<text text-anchor="start" x="967.35" y="-251.73" font-family="Helvetica,sans-Serif" font-style="italic" font-size="32.00" fill="#29235c">timestamp</text>
<polygon fill="none" stroke="#29235c" stroke-width="2" points="678.91,-229.53 678.91,-951.53 1126.91,-951.53 1126.91,-229.53 678.91,-229.53"/>
</g>
<!-- users&#45;&gt;titles -->
<!-- users&#45;&gt;titles -->
<g id="edge10" class="edge">
<title>users:e&#45;&gt;titles:w</title>
<path fill="none" stroke="#29235c" stroke-width="3" d="M1126.91,-800.53C1219.41,-800.53 1237.14,-856.28 1324.23,-860.3"/>
<polygon fill="#29235c" stroke="#29235c" stroke-width="3" points="1324.25,-863.8 1334.33,-860.53 1324.41,-856.81 1324.25,-863.8"/>
<text text-anchor="middle" x="1325.43" y="-831.73" font-family="Helvetica,sans-Serif" font-size="32.00" fill="#29235c">1</text>
<text text-anchor="middle" x="1118.02" y="-771.73" font-family="Helvetica,sans-Serif" font-size="32.00" fill="#29235c">1</text>
</g>
<!-- projects -->
<g id="projects" class="node">
<title>projects</title>
<ellipse fill="none" stroke="black" stroke-width="0" cx="1517.33" cy="-1450.53" rx="260.43" ry="257.27"/>
<polygon fill="#1d71b8" stroke="transparent" points="1335.33,-1570.53 1335.33,-1630.53 1699.33,-1630.53 1699.33,-1570.53 1335.33,-1570.53"/>
<polygon fill="none" stroke="#29235c" points="1335.33,-1570.53 1335.33,-1630.53 1699.33,-1630.53 1699.33,-1570.53 1335.33,-1570.53"/>
<text text-anchor="start" x="1399.07" y="-1591.73" font-family="Helvetica,sans-Serif" font-weight="bold" font-size="32.00" fill="#ffffff"> &#160;&#160;&#160;&#160;&#160;&#160;projects &#160;&#160;&#160;&#160;&#160;&#160;</text>
<polygon fill="#e7e2dd" stroke="transparent" points="1335.33,-1510.53 1335.33,-1570.53 1699.33,-1570.53 1699.33,-1510.53 1335.33,-1510.53"/>
<polygon fill="none" stroke="#29235c" points="1335.33,-1510.53 1335.33,-1570.53 1699.33,-1570.53 1699.33,-1510.53 1335.33,-1510.53"/>
<text text-anchor="start" x="1346.33" y="-1531.73" font-family="Helvetica,sans-Serif" font-weight="bold" font-size="32.00" fill="#29235c">id</text>
<text text-anchor="start" x="1371.22" y="-1531.73" font-family="Helvetica,sans-Serif" font-size="32.00" fill="#29235c"> &#160;&#160;&#160;</text>
<text text-anchor="start" x="1654.54" y="-1531.73" font-family="Helvetica,sans-Serif" font-style="italic" font-size="32.00" fill="#29235c">int</text>
<polygon fill="#e7e2dd" stroke="transparent" points="1335.33,-1450.53 1335.33,-1510.53 1699.33,-1510.53 1699.33,-1450.53 1335.33,-1450.53"/>
<polygon fill="none" stroke="#29235c" points="1335.33,-1450.53 1335.33,-1510.53 1699.33,-1510.53 1699.33,-1450.53 1335.33,-1450.53"/>
<text text-anchor="start" x="1346.33" y="-1470.73" font-family="Helvetica,sans-Serif" font-size="32.00" fill="#29235c">name &#160;&#160;&#160;</text>
<text text-anchor="start" x="1542.56" y="-1471.73" font-family="Helvetica,sans-Serif" font-style="italic" font-size="32.00" fill="#29235c">varchar</text>
<text text-anchor="start" x="1649.24" y="-1471.73" font-family="Helvetica,sans-Serif" font-size="32.00" fill="#29235c"> </text>
<text text-anchor="start" x="1658.13" y="-1471.73" font-family="Helvetica,sans-Serif" font-weight="bold" font-size="32.00" fill="#29235c">(!)</text>
<polygon fill="#e7e2dd" stroke="transparent" points="1335.33,-1390.53 1335.33,-1450.53 1699.33,-1450.53 1699.33,-1390.53 1335.33,-1390.53"/>
<polygon fill="none" stroke="#29235c" points="1335.33,-1390.53 1335.33,-1450.53 1699.33,-1450.53 1699.33,-1390.53 1335.33,-1390.53"/>
<text text-anchor="start" x="1346.33" y="-1410.73" font-family="Helvetica,sans-Serif" font-size="32.00" fill="#29235c">code &#160;&#160;&#160;</text>
<text text-anchor="start" x="1581.65" y="-1411.73" font-family="Helvetica,sans-Serif" font-style="italic" font-size="32.00" fill="#29235c">varchar</text>
<polygon fill="#e7e2dd" stroke="transparent" points="1335.33,-1330.53 1335.33,-1390.53 1699.33,-1390.53 1699.33,-1330.53 1335.33,-1330.53"/>
<polygon fill="none" stroke="#29235c" points="1335.33,-1330.53 1335.33,-1390.53 1699.33,-1390.53 1699.33,-1330.53 1335.33,-1330.53"/>
<text text-anchor="start" x="1346.33" y="-1350.73" font-family="Helvetica,sans-Serif" font-size="32.00" fill="#29235c">created_at &#160;&#160;&#160;</text>
<text text-anchor="start" x="1540.77" y="-1351.73" font-family="Helvetica,sans-Serif" font-style="italic" font-size="32.00" fill="#29235c">timestamp</text>
<polygon fill="#e7e2dd" stroke="transparent" points="1335.33,-1270.53 1335.33,-1330.53 1699.33,-1330.53 1699.33,-1270.53 1335.33,-1270.53"/>
<polygon fill="none" stroke="#29235c" points="1335.33,-1270.53 1335.33,-1330.53 1699.33,-1330.53 1699.33,-1270.53 1335.33,-1270.53"/>
<text text-anchor="start" x="1345.99" y="-1290.73" font-family="Helvetica,sans-Serif" font-size="32.00" fill="#29235c">updated_at &#160;&#160;&#160;</text>
<text text-anchor="start" x="1541.05" y="-1291.73" font-family="Helvetica,sans-Serif" font-style="italic" font-size="32.00" fill="#29235c">timestamp</text>
<polygon fill="none" stroke="#29235c" stroke-width="2" points="1334.33,-1269.53 1334.33,-1631.53 1700.33,-1631.53 1700.33,-1269.53 1334.33,-1269.53"/>
</g>
<!-- squads -->
<g id="squads" class="node">
<title>squads</title>
<ellipse fill="none" stroke="black" stroke-width="0" cx="902.91" cy="-1420.53" rx="260.43" ry="299.63"/>
<polygon fill="#1d71b8" stroke="transparent" points="720.91,-1570.53 720.91,-1630.53 1084.91,-1630.53 1084.91,-1570.53 720.91,-1570.53"/>
<polygon fill="none" stroke="#29235c" points="720.91,-1570.53 720.91,-1630.53 1084.91,-1630.53 1084.91,-1570.53 720.91,-1570.53"/>
<text text-anchor="start" x="789.09" y="-1591.73" font-family="Helvetica,sans-Serif" font-weight="bold" font-size="32.00" fill="#ffffff"> &#160;&#160;&#160;&#160;&#160;&#160;squads &#160;&#160;&#160;&#160;&#160;&#160;</text>
<polygon fill="#e7e2dd" stroke="transparent" points="720.91,-1510.53 720.91,-1570.53 1084.91,-1570.53 1084.91,-1510.53 720.91,-1510.53"/>
<polygon fill="none" stroke="#29235c" points="720.91,-1510.53 720.91,-1570.53 1084.91,-1570.53 1084.91,-1510.53 720.91,-1510.53"/>
<text text-anchor="start" x="731.91" y="-1531.73" font-family="Helvetica,sans-Serif" font-weight="bold" font-size="32.00" fill="#29235c">id</text>
<text text-anchor="start" x="756.8" y="-1531.73" font-family="Helvetica,sans-Serif" font-size="32.00" fill="#29235c"> &#160;&#160;&#160;</text>
<text text-anchor="start" x="1040.13" y="-1531.73" font-family="Helvetica,sans-Serif" font-style="italic" font-size="32.00" fill="#29235c">int</text>
<polygon fill="#e7e2dd" stroke="transparent" points="720.91,-1450.53 720.91,-1510.53 1084.91,-1510.53 1084.91,-1450.53 720.91,-1450.53"/>
<polygon fill="none" stroke="#29235c" points="720.91,-1450.53 720.91,-1510.53 1084.91,-1510.53 1084.91,-1450.53 720.91,-1450.53"/>
<text text-anchor="start" x="731.91" y="-1470.73" font-family="Helvetica,sans-Serif" font-size="32.00" fill="#29235c">project_id &#160;&#160;&#160;</text>
<text text-anchor="start" x="1040.13" y="-1471.73" font-family="Helvetica,sans-Serif" font-style="italic" font-size="32.00" fill="#29235c">int</text>
<polygon fill="#e7e2dd" stroke="transparent" points="720.91,-1390.53 720.91,-1450.53 1084.91,-1450.53 1084.91,-1390.53 720.91,-1390.53"/>
<polygon fill="none" stroke="#29235c" points="720.91,-1390.53 720.91,-1450.53 1084.91,-1450.53 1084.91,-1390.53 720.91,-1390.53"/>
<text text-anchor="start" x="731.91" y="-1410.73" font-family="Helvetica,sans-Serif" font-size="32.00" fill="#29235c">name &#160;&#160;&#160;</text>
<text text-anchor="start" x="967.24" y="-1411.73" font-family="Helvetica,sans-Serif" font-style="italic" font-size="32.00" fill="#29235c">varchar</text>
<polygon fill="#e7e2dd" stroke="transparent" points="720.91,-1330.53 720.91,-1390.53 1084.91,-1390.53 1084.91,-1330.53 720.91,-1330.53"/>
<polygon fill="none" stroke="#29235c" points="720.91,-1330.53 720.91,-1390.53 1084.91,-1390.53 1084.91,-1330.53 720.91,-1330.53"/>
<text text-anchor="start" x="731.91" y="-1350.73" font-family="Helvetica,sans-Serif" font-size="32.00" fill="#29235c">code &#160;&#160;&#160;</text>
<text text-anchor="start" x="967.24" y="-1351.73" font-family="Helvetica,sans-Serif" font-style="italic" font-size="32.00" fill="#29235c">varchar</text>
<polygon fill="#e7e2dd" stroke="transparent" points="720.91,-1270.53 720.91,-1330.53 1084.91,-1330.53 1084.91,-1270.53 720.91,-1270.53"/>
<polygon fill="none" stroke="#29235c" points="720.91,-1270.53 720.91,-1330.53 1084.91,-1330.53 1084.91,-1270.53 720.91,-1270.53"/>
<text text-anchor="start" x="731.91" y="-1290.73" font-family="Helvetica,sans-Serif" font-size="32.00" fill="#29235c">created_at &#160;&#160;&#160;</text>
<text text-anchor="start" x="926.35" y="-1291.73" font-family="Helvetica,sans-Serif" font-style="italic" font-size="32.00" fill="#29235c">timestamp</text>
<polygon fill="#e7e2dd" stroke="transparent" points="720.91,-1210.53 720.91,-1270.53 1084.91,-1270.53 1084.91,-1210.53 720.91,-1210.53"/>
<polygon fill="none" stroke="#29235c" points="720.91,-1210.53 720.91,-1270.53 1084.91,-1270.53 1084.91,-1210.53 720.91,-1210.53"/>
<text text-anchor="start" x="731.58" y="-1230.73" font-family="Helvetica,sans-Serif" font-size="32.00" fill="#29235c">updated_at &#160;&#160;&#160;</text>
<text text-anchor="start" x="926.63" y="-1231.73" font-family="Helvetica,sans-Serif" font-style="italic" font-size="32.00" fill="#29235c">timestamp</text>
<polygon fill="none" stroke="#29235c" stroke-width="2" points="719.91,-1209.53 719.91,-1631.53 1085.91,-1631.53 1085.91,-1209.53 719.91,-1209.53"/>
</g>
<!-- squads&#45;&gt;projects -->
<!-- squads&#45;&gt;projects -->
<g id="edge12" class="edge">
<title>squads:e&#45;&gt;projects:w</title>
<path fill="none" stroke="#29235c" stroke-width="3" d="M1085.91,-1480.53C1196.06,-1480.53 1219.37,-1536.95 1324.26,-1540.37"/>
<polygon fill="#29235c" stroke="#29235c" stroke-width="3" points="1324.27,-1543.87 1334.33,-1540.53 1324.38,-1536.87 1324.27,-1543.87"/>
<text text-anchor="middle" x="1325.43" y="-1550.13" font-family="Helvetica,sans-Serif" font-size="32.00" fill="#29235c">1</text>
<text text-anchor="middle" x="1079.69" y="-1490.13" font-family="Helvetica,sans-Serif" font-size="32.00" fill="#29235c">*</text>
</g>
<!-- squad_members -->
<g id="squad_members" class="node">
<title>squad_members</title>
<ellipse fill="none" stroke="black" stroke-width="0" cx="274.36" cy="-1170.53" rx="274.21" ry="257.27"/>
<polygon fill="#1d71b8" stroke="transparent" points="82.36,-1290.53 82.36,-1350.53 466.36,-1350.53 466.36,-1290.53 82.36,-1290.53"/>
<polygon fill="none" stroke="#29235c" points="82.36,-1290.53 82.36,-1350.53 466.36,-1350.53 466.36,-1290.53 82.36,-1290.53"/>
<text text-anchor="start" x="92.97" y="-1311.73" font-family="Helvetica,sans-Serif" font-weight="bold" font-size="32.00" fill="#ffffff"> &#160;&#160;&#160;&#160;&#160;&#160;squad_members &#160;&#160;&#160;&#160;&#160;&#160;</text>
<polygon fill="#e7e2dd" stroke="transparent" points="82.36,-1230.53 82.36,-1290.53 466.36,-1290.53 466.36,-1230.53 82.36,-1230.53"/>
<polygon fill="none" stroke="#29235c" points="82.36,-1230.53 82.36,-1290.53 466.36,-1290.53 466.36,-1230.53 82.36,-1230.53"/>
<text text-anchor="start" x="93.36" y="-1251.73" font-family="Helvetica,sans-Serif" font-weight="bold" font-size="32.00" fill="#29235c">id</text>
<text text-anchor="start" x="118.25" y="-1251.73" font-family="Helvetica,sans-Serif" font-size="32.00" fill="#29235c"> &#160;&#160;&#160;</text>
<text text-anchor="start" x="421.58" y="-1251.73" font-family="Helvetica,sans-Serif" font-style="italic" font-size="32.00" fill="#29235c">int</text>
<polygon fill="#e7e2dd" stroke="transparent" points="82.36,-1170.53 82.36,-1230.53 466.36,-1230.53 466.36,-1170.53 82.36,-1170.53"/>
<polygon fill="none" stroke="#29235c" points="82.36,-1170.53 82.36,-1230.53 466.36,-1230.53 466.36,-1170.53 82.36,-1170.53"/>
<text text-anchor="start" x="93.36" y="-1190.73" font-family="Helvetica,sans-Serif" font-size="32.00" fill="#29235c">squad_id &#160;&#160;&#160;</text>
<text text-anchor="start" x="421.58" y="-1191.73" font-family="Helvetica,sans-Serif" font-style="italic" font-size="32.00" fill="#29235c">int</text>
<polygon fill="#e7e2dd" stroke="transparent" points="82.36,-1110.53 82.36,-1170.53 466.36,-1170.53 466.36,-1110.53 82.36,-1110.53"/>
<polygon fill="none" stroke="#29235c" points="82.36,-1110.53 82.36,-1170.53 466.36,-1170.53 466.36,-1110.53 82.36,-1110.53"/>
<text text-anchor="start" x="93.36" y="-1130.73" font-family="Helvetica,sans-Serif" font-size="32.00" fill="#29235c">user_id &#160;&#160;&#160;</text>
<text text-anchor="start" x="421.58" y="-1131.73" font-family="Helvetica,sans-Serif" font-style="italic" font-size="32.00" fill="#29235c">int</text>
<polygon fill="#e7e2dd" stroke="transparent" points="82.36,-1050.53 82.36,-1110.53 466.36,-1110.53 466.36,-1050.53 82.36,-1050.53"/>
<polygon fill="none" stroke="#29235c" points="82.36,-1050.53 82.36,-1110.53 466.36,-1110.53 466.36,-1050.53 82.36,-1050.53"/>
<text text-anchor="start" x="93.36" y="-1070.73" font-family="Helvetica,sans-Serif" font-size="32.00" fill="#29235c">created_at &#160;&#160;&#160;</text>
<text text-anchor="start" x="307.8" y="-1071.73" font-family="Helvetica,sans-Serif" font-style="italic" font-size="32.00" fill="#29235c">timestamp</text>
<polygon fill="#e7e2dd" stroke="transparent" points="82.36,-990.53 82.36,-1050.53 466.36,-1050.53 466.36,-990.53 82.36,-990.53"/>
<polygon fill="none" stroke="#29235c" points="82.36,-990.53 82.36,-1050.53 466.36,-1050.53 466.36,-990.53 82.36,-990.53"/>
<text text-anchor="start" x="93.36" y="-1010.73" font-family="Helvetica,sans-Serif" font-size="32.00" fill="#29235c">updated_at &#160;&#160;&#160;</text>
<text text-anchor="start" x="307.8" y="-1011.73" font-family="Helvetica,sans-Serif" font-style="italic" font-size="32.00" fill="#29235c">timestamp</text>
<polygon fill="none" stroke="#29235c" stroke-width="2" points="81.36,-989.53 81.36,-1351.53 467.36,-1351.53 467.36,-989.53 81.36,-989.53"/>
</g>
<!-- squad_members&#45;&gt;users -->
<!-- squad_members&#45;&gt;users -->
<g id="edge16" class="edge">
<title>squad_members:e&#45;&gt;users:w</title>
<path fill="none" stroke="#29235c" stroke-width="3" d="M467.36,-1140.53C619.83,-1140.53 527.32,-872.97 668.79,-860.95"/>
<polygon fill="#29235c" stroke="#29235c" stroke-width="3" points="669.07,-864.44 678.91,-860.53 668.78,-857.45 669.07,-864.44"/>
<text text-anchor="middle" x="670.02" y="-831.73" font-family="Helvetica,sans-Serif" font-size="32.00" fill="#29235c">1</text>
<text text-anchor="middle" x="461.14" y="-1111.73" font-family="Helvetica,sans-Serif" font-size="32.00" fill="#29235c">*</text>
</g>
<!-- squad_members&#45;&gt;squads -->
<!-- squad_members&#45;&gt;squads -->
<g id="edge14" class="edge">
<title>squad_members:e&#45;&gt;squads:w</title>
<path fill="none" stroke="#29235c" stroke-width="3" d="M467.36,-1200.53C652.1,-1200.53 536.17,-1528.03 709.75,-1540.19"/>
<polygon fill="#29235c" stroke="#29235c" stroke-width="3" points="709.8,-1543.69 719.91,-1540.53 710.04,-1536.69 709.8,-1543.69"/>
<text text-anchor="middle" x="711.02" y="-1550.13" font-family="Helvetica,sans-Serif" font-size="32.00" fill="#29235c">1</text>
<text text-anchor="middle" x="461.14" y="-1171.73" font-family="Helvetica,sans-Serif" font-size="32.00" fill="#29235c">*</text>
</g>
</g>
</svg>
