<?xml version="1.0" encoding="UTF-8" standalone="no"?>
<!DOCTYPE svg PUBLIC "-//W3C//DTD SVG 1.1//EN"
 "http://www.w3.org/Graphics/SVG/1.1/DTD/svg11.dtd">
<!-- Generated by graphviz version 2.47.0 (20210316.0004)
 -->
<!-- Title: dbml Pages: 1 -->
<svg width="925pt" height="353pt"
 viewBox="0.00 0.00 925.06 353.07" xmlns="http://www.w3.org/2000/svg" xmlns:xlink="http://www.w3.org/1999/xlink">
<g id="graph0" class="graph" transform="scale(1 1) rotate(0) translate(4 349.07)">
<title>dbml</title>
<!-- statuses -->
<g id="statuses" class="node">
<title>statuses</title>
<ellipse fill="none" stroke="black" stroke-width="0" cx="709.87" cy="-172.53" rx="207.36" ry="172.57"/>
<polygon fill="#1d71b8" stroke="transparent" points="565.87,-232.53 565.87,-292.53 854.87,-292.53 854.87,-232.53 565.87,-232.53"/>
<polygon fill="none" stroke="#29235c" points="565.87,-232.53 565.87,-292.53 854.87,-292.53 854.87,-232.53 565.87,-232.53"/>
<text text-anchor="start" x="588.55" y="-253.73" font-family="Helvetica,sans-Serif" font-weight="bold" font-size="32.00" fill="#ffffff"> &#160;&#160;&#160;&#160;&#160;&#160;statuses &#160;&#160;&#160;&#160;&#160;&#160;</text>
<polygon fill="#e7e2dd" stroke="transparent" points="565.87,-172.53 565.87,-232.53 854.87,-232.53 854.87,-172.53 565.87,-172.53"/>
<polygon fill="none" stroke="#29235c" points="565.87,-172.53 565.87,-232.53 854.87,-232.53 854.87,-172.53 565.87,-172.53"/>
<text text-anchor="start" x="576.87" y="-193.73" font-family="Helvetica,sans-Serif" font-weight="bold" font-size="32.00" fill="#29235c">id</text>
<text text-anchor="start" x="601.76" y="-193.73" font-family="Helvetica,sans-Serif" font-size="32.00" fill="#29235c"> &#160;&#160;&#160;</text>
<text text-anchor="start" x="810.09" y="-193.73" font-family="Helvetica,sans-Serif" font-style="italic" font-size="32.00" fill="#29235c">int</text>
<polygon fill="#e7e2dd" stroke="transparent" points="565.87,-112.53 565.87,-172.53 854.87,-172.53 854.87,-112.53 565.87,-112.53"/>
<polygon fill="none" stroke="#29235c" points="565.87,-112.53 565.87,-172.53 854.87,-172.53 854.87,-112.53 565.87,-112.53"/>
<text text-anchor="start" x="576.87" y="-132.73" font-family="Helvetica,sans-Serif" font-size="32.00" fill="#29235c">nama &#160;&#160;&#160;</text>
<text text-anchor="start" x="737.2" y="-133.73" font-family="Helvetica,sans-Serif" font-style="italic" font-size="32.00" fill="#29235c">varchar</text>
<polygon fill="#e7e2dd" stroke="transparent" points="565.87,-52.53 565.87,-112.53 854.87,-112.53 854.87,-52.53 565.87,-52.53"/>
<polygon fill="none" stroke="#29235c" points="565.87,-52.53 565.87,-112.53 854.87,-112.53 854.87,-52.53 565.87,-52.53"/>
<text text-anchor="start" x="576.48" y="-72.73" font-family="Helvetica,sans-Serif" font-size="32.00" fill="#29235c">deskripsi &#160;&#160;&#160;</text>
<text text-anchor="start" x="737.54" y="-73.73" font-family="Helvetica,sans-Serif" font-style="italic" font-size="32.00" fill="#29235c">varchar</text>
<polygon fill="none" stroke="#29235c" stroke-width="2" points="564.37,-51.53 564.37,-293.53 855.37,-293.53 855.37,-51.53 564.37,-51.53"/>
</g>
<!-- scrum_tasks -->
<g id="scrum_tasks" class="node">
<title>scrum_tasks</title>
<ellipse fill="none" stroke="black" stroke-width="0" cx="233.35" cy="-232.53" rx="233.19" ry="87.86"/>
<polygon fill="#1d71b8" stroke="transparent" points="70.35,-232.53 70.35,-292.53 396.35,-292.53 396.35,-232.53 70.35,-232.53"/>
<polygon fill="none" stroke="#29235c" points="70.35,-232.53 70.35,-292.53 396.35,-292.53 396.35,-232.53 70.35,-232.53"/>
<text text-anchor="start" x="81.31" y="-253.73" font-family="Helvetica,sans-Serif" font-weight="bold" font-size="32.00" fill="#ffffff"> &#160;&#160;&#160;&#160;&#160;&#160;scrum_tasks &#160;&#160;&#160;&#160;&#160;&#160;</text>
<polygon fill="#e7e2dd" stroke="transparent" points="70.35,-172.53 70.35,-232.53 396.35,-232.53 396.35,-172.53 70.35,-172.53"/>
<polygon fill="none" stroke="#29235c" points="70.35,-172.53 70.35,-232.53 396.35,-232.53 396.35,-172.53 70.35,-172.53"/>
<text text-anchor="start" x="81.35" y="-192.73" font-family="Helvetica,sans-Serif" font-size="32.00" fill="#29235c">status_id &#160;&#160;&#160;</text>
<text text-anchor="start" x="351.56" y="-193.73" font-family="Helvetica,sans-Serif" font-style="italic" font-size="32.00" fill="#29235c">int</text>
<polygon fill="none" stroke="#29235c" stroke-width="2" points="69.35,-171.53 69.35,-293.53 397.35,-293.53 397.35,-171.53 69.35,-171.53"/>
</g>
<!-- scrum_tasks&#45;&gt;statuses -->
<!-- scrum_tasks&#45;&gt;statuses -->
<g id="edge2" class="edge">
<title>scrum_tasks:e&#45;&gt;statuses:w</title>
<path fill="none" stroke="#29235c" stroke-width="3" d="M397.35,-202.53C468.31,-202.53 488.55,-202.53 554.76,-202.53"/>
<polygon fill="#29235c" stroke="#29235c" stroke-width="3" points="554.87,-206.03 564.87,-202.53 554.87,-199.03 554.87,-206.03"/>
<text text-anchor="middle" x="555.98" y="-173.73" font-family="Helvetica,sans-Serif" font-size="32.00" fill="#29235c">1</text>
<text text-anchor="middle" x="403.57" y="-173.73" font-family="Helvetica,sans-Serif" font-size="32.00" fill="#29235c">*</text>
</g>
</g>
</svg>
