<?xml version="1.0" encoding="UTF-8" standalone="no"?>
<!DOCTYPE svg PUBLIC "-//W3C//DTD SVG 1.1//EN"
 "http://www.w3.org/Graphics/SVG/1.1/DTD/svg11.dtd">
<!-- Generated by graphviz version 2.47.0 (20210316.0004)
 -->
<!-- Title: dbml Pages: 1 -->
<svg width="2038pt" height="523pt"
 viewBox="0.00 0.00 2037.92 522.77" xmlns="http://www.w3.org/2000/svg" xmlns:xlink="http://www.w3.org/1999/xlink">
<g id="graph0" class="graph" transform="scale(1 1) rotate(0) translate(4 518.77)">
<title>dbml</title>
<!-- departments -->
<g id="departments" class="node">
<title>departments</title>
<ellipse fill="none" stroke="black" stroke-width="0" cx="1769.7" cy="-287.39" rx="260.43" ry="214.92"/>
<polygon fill="#1d71b8" stroke="transparent" points="1587.7,-377.39 1587.7,-437.39 1951.7,-437.39 1951.7,-377.39 1587.7,-377.39"/>
<polygon fill="none" stroke="#29235c" points="1587.7,-377.39 1587.7,-437.39 1951.7,-437.39 1951.7,-377.39 1587.7,-377.39"/>
<text text-anchor="start" x="1618.54" y="-398.59" font-family="Helvetica,sans-Serif" font-weight="bold" font-size="32.00" fill="#ffffff"> &#160;&#160;&#160;&#160;&#160;&#160;departments &#160;&#160;&#160;&#160;&#160;&#160;</text>
<polygon fill="#e7e2dd" stroke="transparent" points="1587.7,-317.39 1587.7,-377.39 1951.7,-377.39 1951.7,-317.39 1587.7,-317.39"/>
<polygon fill="none" stroke="#29235c" points="1587.7,-317.39 1587.7,-377.39 1951.7,-377.39 1951.7,-317.39 1587.7,-317.39"/>
<text text-anchor="start" x="1598.7" y="-338.59" font-family="Helvetica,sans-Serif" font-weight="bold" font-size="32.00" fill="#29235c">id</text>
<text text-anchor="start" x="1623.59" y="-338.59" font-family="Helvetica,sans-Serif" font-size="32.00" fill="#29235c"> &#160;&#160;&#160;</text>
<text text-anchor="start" x="1906.92" y="-338.59" font-family="Helvetica,sans-Serif" font-style="italic" font-size="32.00" fill="#29235c">int</text>
<polygon fill="#e7e2dd" stroke="transparent" points="1587.7,-257.39 1587.7,-317.39 1951.7,-317.39 1951.7,-257.39 1587.7,-257.39"/>
<polygon fill="none" stroke="#29235c" points="1587.7,-257.39 1587.7,-317.39 1951.7,-317.39 1951.7,-257.39 1587.7,-257.39"/>
<text text-anchor="start" x="1598.7" y="-277.59" font-family="Helvetica,sans-Serif" font-size="32.00" fill="#29235c">name &#160;&#160;&#160;</text>
<text text-anchor="start" x="1794.94" y="-278.59" font-family="Helvetica,sans-Serif" font-style="italic" font-size="32.00" fill="#29235c">varchar</text>
<text text-anchor="start" x="1901.61" y="-278.59" font-family="Helvetica,sans-Serif" font-size="32.00" fill="#29235c"> </text>
<text text-anchor="start" x="1910.5" y="-278.59" font-family="Helvetica,sans-Serif" font-weight="bold" font-size="32.00" fill="#29235c">(!)</text>
<polygon fill="#e7e2dd" stroke="transparent" points="1587.7,-197.39 1587.7,-257.39 1951.7,-257.39 1951.7,-197.39 1587.7,-197.39"/>
<polygon fill="none" stroke="#29235c" points="1587.7,-197.39 1587.7,-257.39 1951.7,-257.39 1951.7,-197.39 1587.7,-197.39"/>
<text text-anchor="start" x="1598.7" y="-217.59" font-family="Helvetica,sans-Serif" font-size="32.00" fill="#29235c">created_at &#160;&#160;&#160;</text>
<text text-anchor="start" x="1793.14" y="-218.59" font-family="Helvetica,sans-Serif" font-style="italic" font-size="32.00" fill="#29235c">timestamp</text>
<polygon fill="#e7e2dd" stroke="transparent" points="1587.7,-137.39 1587.7,-197.39 1951.7,-197.39 1951.7,-137.39 1587.7,-137.39"/>
<polygon fill="none" stroke="#29235c" points="1587.7,-137.39 1587.7,-197.39 1951.7,-197.39 1951.7,-137.39 1587.7,-137.39"/>
<text text-anchor="start" x="1598.37" y="-157.59" font-family="Helvetica,sans-Serif" font-size="32.00" fill="#29235c">updated_at &#160;&#160;&#160;</text>
<text text-anchor="start" x="1793.42" y="-158.59" font-family="Helvetica,sans-Serif" font-style="italic" font-size="32.00" fill="#29235c">timestamp</text>
<polygon fill="none" stroke="#29235c" stroke-width="2" points="1586.7,-136.39 1586.7,-438.39 1952.7,-438.39 1952.7,-136.39 1586.7,-136.39"/>
</g>
<!-- positions -->
<g id="positions" class="node">
<title>positions</title>
<ellipse fill="none" stroke="black" stroke-width="0" cx="1213.27" cy="-257.39" rx="260.43" ry="257.27"/>
<polygon fill="#1d71b8" stroke="transparent" points="1031.27,-377.39 1031.27,-437.39 1395.27,-437.39 1395.27,-377.39 1031.27,-377.39"/>
<polygon fill="none" stroke="#29235c" points="1031.27,-377.39 1031.27,-437.39 1395.27,-437.39 1395.27,-377.39 1031.27,-377.39"/>
<text text-anchor="start" x="1087.9" y="-398.59" font-family="Helvetica,sans-Serif" font-weight="bold" font-size="32.00" fill="#ffffff"> &#160;&#160;&#160;&#160;&#160;&#160;positions &#160;&#160;&#160;&#160;&#160;&#160;</text>
<polygon fill="#e7e2dd" stroke="transparent" points="1031.27,-317.39 1031.27,-377.39 1395.27,-377.39 1395.27,-317.39 1031.27,-317.39"/>
<polygon fill="none" stroke="#29235c" points="1031.27,-317.39 1031.27,-377.39 1395.27,-377.39 1395.27,-317.39 1031.27,-317.39"/>
<text text-anchor="start" x="1042.27" y="-338.59" font-family="Helvetica,sans-Serif" font-weight="bold" font-size="32.00" fill="#29235c">id</text>
<text text-anchor="start" x="1067.16" y="-338.59" font-family="Helvetica,sans-Serif" font-size="32.00" fill="#29235c"> &#160;&#160;&#160;</text>
<text text-anchor="start" x="1350.49" y="-338.59" font-family="Helvetica,sans-Serif" font-style="italic" font-size="32.00" fill="#29235c">int</text>
<polygon fill="#e7e2dd" stroke="transparent" points="1031.27,-257.39 1031.27,-317.39 1395.27,-317.39 1395.27,-257.39 1031.27,-257.39"/>
<polygon fill="none" stroke="#29235c" points="1031.27,-257.39 1031.27,-317.39 1395.27,-317.39 1395.27,-257.39 1031.27,-257.39"/>
<text text-anchor="start" x="1042.27" y="-277.59" font-family="Helvetica,sans-Serif" font-size="32.00" fill="#29235c">name &#160;&#160;&#160;</text>
<text text-anchor="start" x="1238.51" y="-278.59" font-family="Helvetica,sans-Serif" font-style="italic" font-size="32.00" fill="#29235c">varchar</text>
<text text-anchor="start" x="1345.18" y="-278.59" font-family="Helvetica,sans-Serif" font-size="32.00" fill="#29235c"> </text>
<text text-anchor="start" x="1354.07" y="-278.59" font-family="Helvetica,sans-Serif" font-weight="bold" font-size="32.00" fill="#29235c">(!)</text>
<polygon fill="#e7e2dd" stroke="transparent" points="1031.27,-197.39 1031.27,-257.39 1395.27,-257.39 1395.27,-197.39 1031.27,-197.39"/>
<polygon fill="none" stroke="#29235c" points="1031.27,-197.39 1031.27,-257.39 1395.27,-257.39 1395.27,-197.39 1031.27,-197.39"/>
<text text-anchor="start" x="1042.27" y="-217.59" font-family="Helvetica,sans-Serif" font-size="32.00" fill="#29235c">department_id &#160;&#160;&#160;</text>
<text text-anchor="start" x="1350.49" y="-218.59" font-family="Helvetica,sans-Serif" font-style="italic" font-size="32.00" fill="#29235c">int</text>
<polygon fill="#e7e2dd" stroke="transparent" points="1031.27,-137.39 1031.27,-197.39 1395.27,-197.39 1395.27,-137.39 1031.27,-137.39"/>
<polygon fill="none" stroke="#29235c" points="1031.27,-137.39 1031.27,-197.39 1395.27,-197.39 1395.27,-137.39 1031.27,-137.39"/>
<text text-anchor="start" x="1042.27" y="-157.59" font-family="Helvetica,sans-Serif" font-size="32.00" fill="#29235c">created_at &#160;&#160;&#160;</text>
<text text-anchor="start" x="1236.71" y="-158.59" font-family="Helvetica,sans-Serif" font-style="italic" font-size="32.00" fill="#29235c">timestamp</text>
<polygon fill="#e7e2dd" stroke="transparent" points="1031.27,-77.39 1031.27,-137.39 1395.27,-137.39 1395.27,-77.39 1031.27,-77.39"/>
<polygon fill="none" stroke="#29235c" points="1031.27,-77.39 1031.27,-137.39 1395.27,-137.39 1395.27,-77.39 1031.27,-77.39"/>
<text text-anchor="start" x="1041.94" y="-97.59" font-family="Helvetica,sans-Serif" font-size="32.00" fill="#29235c">updated_at &#160;&#160;&#160;</text>
<text text-anchor="start" x="1236.99" y="-98.59" font-family="Helvetica,sans-Serif" font-style="italic" font-size="32.00" fill="#29235c">timestamp</text>
<polygon fill="none" stroke="#29235c" stroke-width="2" points="1030.27,-76.39 1030.27,-438.39 1396.27,-438.39 1396.27,-76.39 1030.27,-76.39"/>
</g>
<!-- positions&#45;&gt;departments -->
<!-- positions&#45;&gt;departments -->
<g id="edge2" class="edge">
<title>positions:e&#45;&gt;departments:w</title>
<path fill="none" stroke="#29235c" stroke-width="3" d="M1396.27,-227.39C1492.79,-227.39 1487.21,-339.1 1576.55,-346.95"/>
<polygon fill="#29235c" stroke="#29235c" stroke-width="3" points="1576.56,-350.46 1586.7,-347.39 1576.86,-343.46 1576.56,-350.46"/>
<text text-anchor="middle" x="1577.81" y="-356.99" font-family="Helvetica,sans-Serif" font-size="32.00" fill="#29235c">1</text>
<text text-anchor="middle" x="1402.49" y="-198.59" font-family="Helvetica,sans-Serif" font-size="32.00" fill="#29235c">*</text>
</g>
<!-- statuses -->
<g id="statuses" class="node">
<title>statuses</title>
<ellipse fill="none" stroke="black" stroke-width="0" cx="726.84" cy="-287.39" rx="190.42" ry="214.92"/>
<polygon fill="#1d71b8" stroke="transparent" points="594.84,-377.39 594.84,-437.39 859.84,-437.39 859.84,-377.39 594.84,-377.39"/>
<polygon fill="none" stroke="#29235c" points="594.84,-377.39 594.84,-437.39 859.84,-437.39 859.84,-377.39 594.84,-377.39"/>
<text text-anchor="start" x="605.52" y="-398.59" font-family="Helvetica,sans-Serif" font-weight="bold" font-size="32.00" fill="#ffffff"> &#160;&#160;&#160;&#160;&#160;&#160;statuses &#160;&#160;&#160;&#160;&#160;&#160;</text>
<polygon fill="#e7e2dd" stroke="transparent" points="594.84,-317.39 594.84,-377.39 859.84,-377.39 859.84,-317.39 594.84,-317.39"/>
<polygon fill="none" stroke="#29235c" points="594.84,-317.39 594.84,-377.39 859.84,-377.39 859.84,-317.39 594.84,-317.39"/>
<text text-anchor="start" x="605.84" y="-338.59" font-family="Helvetica,sans-Serif" font-weight="bold" font-size="32.00" fill="#29235c">id</text>
<text text-anchor="start" x="630.73" y="-338.59" font-family="Helvetica,sans-Serif" font-size="32.00" fill="#29235c"> &#160;&#160;&#160;</text>
<text text-anchor="start" x="815.06" y="-338.59" font-family="Helvetica,sans-Serif" font-style="italic" font-size="32.00" fill="#29235c">int</text>
<polygon fill="#e7e2dd" stroke="transparent" points="594.84,-257.39 594.84,-317.39 859.84,-317.39 859.84,-257.39 594.84,-257.39"/>
<polygon fill="none" stroke="#29235c" points="594.84,-257.39 594.84,-317.39 859.84,-317.39 859.84,-257.39 594.84,-257.39"/>
<text text-anchor="start" x="605.84" y="-277.59" font-family="Helvetica,sans-Serif" font-size="32.00" fill="#29235c">name &#160;&#160;&#160;</text>
<text text-anchor="start" x="742.17" y="-278.59" font-family="Helvetica,sans-Serif" font-style="italic" font-size="32.00" fill="#29235c">varchar</text>
<polygon fill="#e7e2dd" stroke="transparent" points="594.84,-197.39 594.84,-257.39 859.84,-257.39 859.84,-197.39 594.84,-197.39"/>
<polygon fill="none" stroke="#29235c" points="594.84,-197.39 594.84,-257.39 859.84,-257.39 859.84,-197.39 594.84,-197.39"/>
<text text-anchor="start" x="605.84" y="-217.59" font-family="Helvetica,sans-Serif" font-size="32.00" fill="#29235c">position_id &#160;&#160;&#160;</text>
<text text-anchor="start" x="815.06" y="-218.59" font-family="Helvetica,sans-Serif" font-style="italic" font-size="32.00" fill="#29235c">int</text>
<polygon fill="#e7e2dd" stroke="transparent" points="594.84,-137.39 594.84,-197.39 859.84,-197.39 859.84,-137.39 594.84,-137.39"/>
<polygon fill="none" stroke="#29235c" points="594.84,-137.39 594.84,-197.39 859.84,-197.39 859.84,-137.39 594.84,-137.39"/>
<text text-anchor="start" x="605.71" y="-157.59" font-family="Helvetica,sans-Serif" font-size="32.00" fill="#29235c">category &#160;&#160;&#160;</text>
<text text-anchor="start" x="763.66" y="-158.59" font-family="Helvetica,sans-Serif" font-style="italic" font-size="32.00" fill="#29235c">status</text>
<polygon fill="none" stroke="#29235c" stroke-width="2" points="593.34,-136.39 593.34,-438.39 860.34,-438.39 860.34,-136.39 593.34,-136.39"/>
</g>
<!-- statuses&#45;&gt;positions -->
<!-- statuses&#45;&gt;positions -->
<g id="edge4" class="edge">
<title>statuses:e&#45;&gt;positions:w</title>
<path fill="none" stroke="#29235c" stroke-width="3" d="M860.84,-227.39C949.51,-227.39 939.01,-338.19 1019.94,-346.85"/>
<polygon fill="#29235c" stroke="#29235c" stroke-width="3" points="1020.1,-350.37 1030.27,-347.39 1020.46,-343.37 1020.1,-350.37"/>
<text text-anchor="middle" x="1021.38" y="-356.99" font-family="Helvetica,sans-Serif" font-size="32.00" fill="#29235c">1</text>
<text text-anchor="middle" x="854.62" y="-198.59" font-family="Helvetica,sans-Serif" font-size="32.00" fill="#29235c">*</text>
</g>
<!-- backlog_items -->
<g id="backlog_items" class="node">
<title>backlog_items</title>
<ellipse fill="none" stroke="black" stroke-width="0" cx="250.32" cy="-377.39" rx="250.13" ry="87.86"/>
<polygon fill="#1d71b8" stroke="transparent" points="75.32,-377.39 75.32,-437.39 425.32,-437.39 425.32,-377.39 75.32,-377.39"/>
<polygon fill="none" stroke="#29235c" points="75.32,-377.39 75.32,-437.39 425.32,-437.39 425.32,-377.39 75.32,-377.39"/>
<text text-anchor="start" x="85.83" y="-398.59" font-family="Helvetica,sans-Serif" font-weight="bold" font-size="32.00" fill="#ffffff"> &#160;&#160;&#160;&#160;&#160;&#160;backlog_items &#160;&#160;&#160;&#160;&#160;&#160;</text>
<polygon fill="#e7e2dd" stroke="transparent" points="75.32,-317.39 75.32,-377.39 425.32,-377.39 425.32,-317.39 75.32,-317.39"/>
<polygon fill="none" stroke="#29235c" points="75.32,-317.39 75.32,-377.39 425.32,-377.39 425.32,-317.39 75.32,-317.39"/>
<text text-anchor="start" x="86.32" y="-337.59" font-family="Helvetica,sans-Serif" font-size="32.00" fill="#29235c">status_id &#160;&#160;&#160;</text>
<text text-anchor="start" x="380.53" y="-338.59" font-family="Helvetica,sans-Serif" font-style="italic" font-size="32.00" fill="#29235c">int</text>
<polygon fill="none" stroke="#29235c" stroke-width="2" points="74.32,-316.39 74.32,-438.39 426.32,-438.39 426.32,-316.39 74.32,-316.39"/>
</g>
<!-- backlog_items&#45;&gt;statuses -->
<!-- backlog_items&#45;&gt;statuses -->
<g id="edge6" class="edge">
<title>backlog_items:e&#45;&gt;statuses:w</title>
<path fill="none" stroke="#29235c" stroke-width="3" d="M426.32,-347.39C497.28,-347.39 517.52,-347.39 583.73,-347.39"/>
<polygon fill="#29235c" stroke="#29235c" stroke-width="3" points="583.84,-350.89 593.84,-347.39 583.84,-343.89 583.84,-350.89"/>
<text text-anchor="middle" x="584.95" y="-356.99" font-family="Helvetica,sans-Serif" font-size="32.00" fill="#29235c">1</text>
<text text-anchor="middle" x="432.54" y="-356.99" font-family="Helvetica,sans-Serif" font-size="32.00" fill="#29235c">*</text>
</g>
</g>
</svg>
