<?xml version="1.0" encoding="UTF-8" standalone="no"?>
<!DOCTYPE svg PUBLIC "-//W3C//DTD SVG 1.1//EN"
 "http://www.w3.org/Graphics/SVG/1.1/DTD/svg11.dtd">
<!-- Generated by graphviz version 2.47.0 (20210316.0004)
 -->
<!-- Title: dbml Pages: 1 -->
<svg width="2193pt" height="800pt"
 viewBox="0.00 0.00 2193.48 800.49" xmlns="http://www.w3.org/2000/svg" xmlns:xlink="http://www.w3.org/1999/xlink">
<g id="graph0" class="graph" transform="scale(1 1) rotate(0) translate(4 796.49)">
<title>dbml</title>
<!-- departments -->
<g id="departments" class="node">
<title>departments</title>
<ellipse fill="none" stroke="black" stroke-width="0" cx="1925.26" cy="-287.39" rx="260.43" ry="214.92"/>
<polygon fill="#1d71b8" stroke="transparent" points="1743.26,-377.39 1743.26,-437.39 2107.26,-437.39 2107.26,-377.39 1743.26,-377.39"/>
<polygon fill="none" stroke="#29235c" points="1743.26,-377.39 1743.26,-437.39 2107.26,-437.39 2107.26,-377.39 1743.26,-377.39"/>
<text text-anchor="start" x="1774.1" y="-398.59" font-family="Helvetica,sans-Serif" font-weight="bold" font-size="32.00" fill="#ffffff"> &#160;&#160;&#160;&#160;&#160;&#160;departments &#160;&#160;&#160;&#160;&#160;&#160;</text>
<polygon fill="#e7e2dd" stroke="transparent" points="1743.26,-317.39 1743.26,-377.39 2107.26,-377.39 2107.26,-317.39 1743.26,-317.39"/>
<polygon fill="none" stroke="#29235c" points="1743.26,-317.39 1743.26,-377.39 2107.26,-377.39 2107.26,-317.39 1743.26,-317.39"/>
<text text-anchor="start" x="1754.26" y="-338.59" font-family="Helvetica,sans-Serif" font-weight="bold" font-size="32.00" fill="#29235c">id</text>
<text text-anchor="start" x="1779.15" y="-338.59" font-family="Helvetica,sans-Serif" font-size="32.00" fill="#29235c"> &#160;&#160;&#160;</text>
<text text-anchor="start" x="2062.48" y="-338.59" font-family="Helvetica,sans-Serif" font-style="italic" font-size="32.00" fill="#29235c">int</text>
<polygon fill="#e7e2dd" stroke="transparent" points="1743.26,-257.39 1743.26,-317.39 2107.26,-317.39 2107.26,-257.39 1743.26,-257.39"/>
<polygon fill="none" stroke="#29235c" points="1743.26,-257.39 1743.26,-317.39 2107.26,-317.39 2107.26,-257.39 1743.26,-257.39"/>
<text text-anchor="start" x="1754.26" y="-277.59" font-family="Helvetica,sans-Serif" font-size="32.00" fill="#29235c">name &#160;&#160;&#160;</text>
<text text-anchor="start" x="1950.5" y="-278.59" font-family="Helvetica,sans-Serif" font-style="italic" font-size="32.00" fill="#29235c">varchar</text>
<text text-anchor="start" x="2057.17" y="-278.59" font-family="Helvetica,sans-Serif" font-size="32.00" fill="#29235c"> </text>
<text text-anchor="start" x="2066.07" y="-278.59" font-family="Helvetica,sans-Serif" font-weight="bold" font-size="32.00" fill="#29235c">(!)</text>
<polygon fill="#e7e2dd" stroke="transparent" points="1743.26,-197.39 1743.26,-257.39 2107.26,-257.39 2107.26,-197.39 1743.26,-197.39"/>
<polygon fill="none" stroke="#29235c" points="1743.26,-197.39 1743.26,-257.39 2107.26,-257.39 2107.26,-197.39 1743.26,-197.39"/>
<text text-anchor="start" x="1754.26" y="-217.59" font-family="Helvetica,sans-Serif" font-size="32.00" fill="#29235c">created_at &#160;&#160;&#160;</text>
<text text-anchor="start" x="1948.71" y="-218.59" font-family="Helvetica,sans-Serif" font-style="italic" font-size="32.00" fill="#29235c">timestamp</text>
<polygon fill="#e7e2dd" stroke="transparent" points="1743.26,-137.39 1743.26,-197.39 2107.26,-197.39 2107.26,-137.39 1743.26,-137.39"/>
<polygon fill="none" stroke="#29235c" points="1743.26,-137.39 1743.26,-197.39 2107.26,-197.39 2107.26,-137.39 1743.26,-137.39"/>
<text text-anchor="start" x="1753.93" y="-157.59" font-family="Helvetica,sans-Serif" font-size="32.00" fill="#29235c">updated_at &#160;&#160;&#160;</text>
<text text-anchor="start" x="1948.99" y="-158.59" font-family="Helvetica,sans-Serif" font-style="italic" font-size="32.00" fill="#29235c">timestamp</text>
<polygon fill="none" stroke="#29235c" stroke-width="2" points="1742.26,-136.39 1742.26,-438.39 2108.26,-438.39 2108.26,-136.39 1742.26,-136.39"/>
</g>
<!-- positions -->
<g id="positions" class="node">
<title>positions</title>
<ellipse fill="none" stroke="black" stroke-width="0" cx="1368.83" cy="-257.39" rx="260.43" ry="257.27"/>
<polygon fill="#1d71b8" stroke="transparent" points="1186.83,-377.39 1186.83,-437.39 1550.83,-437.39 1550.83,-377.39 1186.83,-377.39"/>
<polygon fill="none" stroke="#29235c" points="1186.83,-377.39 1186.83,-437.39 1550.83,-437.39 1550.83,-377.39 1186.83,-377.39"/>
<text text-anchor="start" x="1243.46" y="-398.59" font-family="Helvetica,sans-Serif" font-weight="bold" font-size="32.00" fill="#ffffff"> &#160;&#160;&#160;&#160;&#160;&#160;positions &#160;&#160;&#160;&#160;&#160;&#160;</text>
<polygon fill="#e7e2dd" stroke="transparent" points="1186.83,-317.39 1186.83,-377.39 1550.83,-377.39 1550.83,-317.39 1186.83,-317.39"/>
<polygon fill="none" stroke="#29235c" points="1186.83,-317.39 1186.83,-377.39 1550.83,-377.39 1550.83,-317.39 1186.83,-317.39"/>
<text text-anchor="start" x="1197.83" y="-338.59" font-family="Helvetica,sans-Serif" font-weight="bold" font-size="32.00" fill="#29235c">id</text>
<text text-anchor="start" x="1222.72" y="-338.59" font-family="Helvetica,sans-Serif" font-size="32.00" fill="#29235c"> &#160;&#160;&#160;</text>
<text text-anchor="start" x="1506.05" y="-338.59" font-family="Helvetica,sans-Serif" font-style="italic" font-size="32.00" fill="#29235c">int</text>
<polygon fill="#e7e2dd" stroke="transparent" points="1186.83,-257.39 1186.83,-317.39 1550.83,-317.39 1550.83,-257.39 1186.83,-257.39"/>
<polygon fill="none" stroke="#29235c" points="1186.83,-257.39 1186.83,-317.39 1550.83,-317.39 1550.83,-257.39 1186.83,-257.39"/>
<text text-anchor="start" x="1197.83" y="-277.59" font-family="Helvetica,sans-Serif" font-size="32.00" fill="#29235c">name &#160;&#160;&#160;</text>
<text text-anchor="start" x="1394.07" y="-278.59" font-family="Helvetica,sans-Serif" font-style="italic" font-size="32.00" fill="#29235c">varchar</text>
<text text-anchor="start" x="1500.74" y="-278.59" font-family="Helvetica,sans-Serif" font-size="32.00" fill="#29235c"> </text>
<text text-anchor="start" x="1509.64" y="-278.59" font-family="Helvetica,sans-Serif" font-weight="bold" font-size="32.00" fill="#29235c">(!)</text>
<polygon fill="#e7e2dd" stroke="transparent" points="1186.83,-197.39 1186.83,-257.39 1550.83,-257.39 1550.83,-197.39 1186.83,-197.39"/>
<polygon fill="none" stroke="#29235c" points="1186.83,-197.39 1186.83,-257.39 1550.83,-257.39 1550.83,-197.39 1186.83,-197.39"/>
<text text-anchor="start" x="1197.83" y="-217.59" font-family="Helvetica,sans-Serif" font-size="32.00" fill="#29235c">department_id &#160;&#160;&#160;</text>
<text text-anchor="start" x="1506.05" y="-218.59" font-family="Helvetica,sans-Serif" font-style="italic" font-size="32.00" fill="#29235c">int</text>
<polygon fill="#e7e2dd" stroke="transparent" points="1186.83,-137.39 1186.83,-197.39 1550.83,-197.39 1550.83,-137.39 1186.83,-137.39"/>
<polygon fill="none" stroke="#29235c" points="1186.83,-137.39 1186.83,-197.39 1550.83,-197.39 1550.83,-137.39 1186.83,-137.39"/>
<text text-anchor="start" x="1197.83" y="-157.59" font-family="Helvetica,sans-Serif" font-size="32.00" fill="#29235c">created_at &#160;&#160;&#160;</text>
<text text-anchor="start" x="1392.28" y="-158.59" font-family="Helvetica,sans-Serif" font-style="italic" font-size="32.00" fill="#29235c">timestamp</text>
<polygon fill="#e7e2dd" stroke="transparent" points="1186.83,-77.39 1186.83,-137.39 1550.83,-137.39 1550.83,-77.39 1186.83,-77.39"/>
<polygon fill="none" stroke="#29235c" points="1186.83,-77.39 1186.83,-137.39 1550.83,-137.39 1550.83,-77.39 1186.83,-77.39"/>
<text text-anchor="start" x="1197.5" y="-97.59" font-family="Helvetica,sans-Serif" font-size="32.00" fill="#29235c">updated_at &#160;&#160;&#160;</text>
<text text-anchor="start" x="1392.55" y="-98.59" font-family="Helvetica,sans-Serif" font-style="italic" font-size="32.00" fill="#29235c">timestamp</text>
<polygon fill="none" stroke="#29235c" stroke-width="2" points="1185.83,-76.39 1185.83,-438.39 1551.83,-438.39 1551.83,-76.39 1185.83,-76.39"/>
</g>
<!-- positions&#45;&gt;departments -->
<!-- positions&#45;&gt;departments -->
<g id="edge2" class="edge">
<title>positions:e&#45;&gt;departments:w</title>
<path fill="none" stroke="#29235c" stroke-width="3" d="M1551.83,-227.39C1648.36,-227.39 1642.77,-339.1 1732.11,-346.95"/>
<polygon fill="#29235c" stroke="#29235c" stroke-width="3" points="1732.12,-350.46 1742.26,-347.39 1732.42,-343.46 1732.12,-350.46"/>
<text text-anchor="middle" x="1733.37" y="-318.59" font-family="Helvetica,sans-Serif" font-size="32.00" fill="#29235c">1</text>
<text text-anchor="middle" x="1558.06" y="-227.39" font-family="Helvetica,sans-Serif" font-size="32.00" fill="#29235c">*</text>
</g>
<!-- statuses -->
<g id="statuses" class="node">
<title>statuses</title>
<ellipse fill="none" stroke="black" stroke-width="0" cx="1368.83" cy="-662.39" rx="190.42" ry="130.22"/>
<polygon fill="#1d71b8" stroke="transparent" points="1236.83,-692.39 1236.83,-752.39 1501.83,-752.39 1501.83,-692.39 1236.83,-692.39"/>
<polygon fill="none" stroke="#29235c" points="1236.83,-692.39 1236.83,-752.39 1501.83,-752.39 1501.83,-692.39 1236.83,-692.39"/>
<text text-anchor="start" x="1247.51" y="-713.59" font-family="Helvetica,sans-Serif" font-weight="bold" font-size="32.00" fill="#ffffff"> &#160;&#160;&#160;&#160;&#160;&#160;statuses &#160;&#160;&#160;&#160;&#160;&#160;</text>
<polygon fill="#e7e2dd" stroke="transparent" points="1236.83,-632.39 1236.83,-692.39 1501.83,-692.39 1501.83,-632.39 1236.83,-632.39"/>
<polygon fill="none" stroke="#29235c" points="1236.83,-632.39 1236.83,-692.39 1501.83,-692.39 1501.83,-632.39 1236.83,-632.39"/>
<text text-anchor="start" x="1247.83" y="-653.59" font-family="Helvetica,sans-Serif" font-weight="bold" font-size="32.00" fill="#29235c">id</text>
<text text-anchor="start" x="1272.72" y="-653.59" font-family="Helvetica,sans-Serif" font-size="32.00" fill="#29235c"> &#160;&#160;&#160;</text>
<text text-anchor="start" x="1457.05" y="-653.59" font-family="Helvetica,sans-Serif" font-style="italic" font-size="32.00" fill="#29235c">int</text>
<polygon fill="#e7e2dd" stroke="transparent" points="1236.83,-572.39 1236.83,-632.39 1501.83,-632.39 1501.83,-572.39 1236.83,-572.39"/>
<polygon fill="none" stroke="#29235c" points="1236.83,-572.39 1236.83,-632.39 1501.83,-632.39 1501.83,-572.39 1236.83,-572.39"/>
<text text-anchor="start" x="1247.7" y="-592.59" font-family="Helvetica,sans-Serif" font-size="32.00" fill="#29235c">category &#160;&#160;&#160;</text>
<text text-anchor="start" x="1405.65" y="-593.59" font-family="Helvetica,sans-Serif" font-style="italic" font-size="32.00" fill="#29235c">status</text>
<polygon fill="none" stroke="#29235c" stroke-width="2" points="1235.33,-571.39 1235.33,-753.39 1502.33,-753.39 1502.33,-571.39 1235.33,-571.39"/>
</g>
<!-- status_positions -->
<g id="status_positions" class="node">
<title>status_positions</title>
<ellipse fill="none" stroke="black" stroke-width="0" cx="804.63" cy="-474.39" rx="267.99" ry="299.63"/>
<polygon fill="#1d71b8" stroke="transparent" points="617.63,-624.39 617.63,-684.39 992.63,-684.39 992.63,-624.39 617.63,-624.39"/>
<polygon fill="none" stroke="#29235c" points="617.63,-624.39 617.63,-684.39 992.63,-684.39 992.63,-624.39 617.63,-624.39"/>
<text text-anchor="start" x="628.17" y="-645.59" font-family="Helvetica,sans-Serif" font-weight="bold" font-size="32.00" fill="#ffffff"> &#160;&#160;&#160;&#160;&#160;&#160;status_positions &#160;&#160;&#160;&#160;&#160;&#160;</text>
<polygon fill="#e7e2dd" stroke="transparent" points="617.63,-564.39 617.63,-624.39 992.63,-624.39 992.63,-564.39 617.63,-564.39"/>
<polygon fill="none" stroke="#29235c" points="617.63,-564.39 617.63,-624.39 992.63,-624.39 992.63,-564.39 617.63,-564.39"/>
<text text-anchor="start" x="628.63" y="-585.59" font-family="Helvetica,sans-Serif" font-weight="bold" font-size="32.00" fill="#29235c">id</text>
<text text-anchor="start" x="653.51" y="-585.59" font-family="Helvetica,sans-Serif" font-size="32.00" fill="#29235c"> &#160;&#160;&#160;</text>
<text text-anchor="start" x="947.84" y="-585.59" font-family="Helvetica,sans-Serif" font-style="italic" font-size="32.00" fill="#29235c">int</text>
<polygon fill="#e7e2dd" stroke="transparent" points="617.63,-504.39 617.63,-564.39 992.63,-564.39 992.63,-504.39 617.63,-504.39"/>
<polygon fill="none" stroke="#29235c" points="617.63,-504.39 617.63,-564.39 992.63,-564.39 992.63,-504.39 617.63,-504.39"/>
<text text-anchor="start" x="628.63" y="-524.59" font-family="Helvetica,sans-Serif" font-size="32.00" fill="#29235c">name &#160;&#160;&#160;</text>
<text text-anchor="start" x="874.95" y="-525.59" font-family="Helvetica,sans-Serif" font-style="italic" font-size="32.00" fill="#29235c">varchar</text>
<polygon fill="#e7e2dd" stroke="transparent" points="617.63,-444.39 617.63,-504.39 992.63,-504.39 992.63,-444.39 617.63,-444.39"/>
<polygon fill="none" stroke="#29235c" points="617.63,-444.39 617.63,-504.39 992.63,-504.39 992.63,-444.39 617.63,-444.39"/>
<text text-anchor="start" x="628.63" y="-464.59" font-family="Helvetica,sans-Serif" font-size="32.00" fill="#29235c">status_id &#160;&#160;&#160;</text>
<text text-anchor="start" x="947.84" y="-465.59" font-family="Helvetica,sans-Serif" font-style="italic" font-size="32.00" fill="#29235c">int</text>
<polygon fill="#e7e2dd" stroke="transparent" points="617.63,-384.39 617.63,-444.39 992.63,-444.39 992.63,-384.39 617.63,-384.39"/>
<polygon fill="none" stroke="#29235c" points="617.63,-384.39 617.63,-444.39 992.63,-444.39 992.63,-384.39 617.63,-384.39"/>
<text text-anchor="start" x="628.63" y="-404.59" font-family="Helvetica,sans-Serif" font-size="32.00" fill="#29235c">position_id &#160;&#160;&#160;</text>
<text text-anchor="start" x="947.84" y="-405.59" font-family="Helvetica,sans-Serif" font-style="italic" font-size="32.00" fill="#29235c">int</text>
<polygon fill="#e7e2dd" stroke="transparent" points="617.63,-324.39 617.63,-384.39 992.63,-384.39 992.63,-324.39 617.63,-324.39"/>
<polygon fill="none" stroke="#29235c" points="617.63,-324.39 617.63,-384.39 992.63,-384.39 992.63,-324.39 617.63,-324.39"/>
<text text-anchor="start" x="628.63" y="-344.59" font-family="Helvetica,sans-Serif" font-size="32.00" fill="#29235c">created_at &#160;&#160;&#160;</text>
<text text-anchor="start" x="834.07" y="-345.59" font-family="Helvetica,sans-Serif" font-style="italic" font-size="32.00" fill="#29235c">timestamp</text>
<polygon fill="#e7e2dd" stroke="transparent" points="617.63,-264.39 617.63,-324.39 992.63,-324.39 992.63,-264.39 617.63,-264.39"/>
<polygon fill="none" stroke="#29235c" points="617.63,-264.39 617.63,-324.39 992.63,-324.39 992.63,-264.39 617.63,-264.39"/>
<text text-anchor="start" x="628.63" y="-284.59" font-family="Helvetica,sans-Serif" font-size="32.00" fill="#29235c">updated_at &#160;&#160;&#160;</text>
<text text-anchor="start" x="834.07" y="-285.59" font-family="Helvetica,sans-Serif" font-style="italic" font-size="32.00" fill="#29235c">timestamp</text>
<polygon fill="none" stroke="#29235c" stroke-width="2" points="616.13,-263.39 616.13,-685.39 993.13,-685.39 993.13,-263.39 616.13,-263.39"/>
</g>
<!-- status_positions&#45;&gt;positions -->
<!-- status_positions&#45;&gt;positions -->
<g id="edge6" class="edge">
<title>status_positions:e&#45;&gt;positions:w</title>
<path fill="none" stroke="#29235c" stroke-width="3" d="M993.63,-414.39C1080.56,-414.39 1094.36,-352.52 1175.59,-347.69"/>
<polygon fill="#29235c" stroke="#29235c" stroke-width="3" points="1175.94,-351.18 1185.83,-347.39 1175.74,-344.18 1175.94,-351.18"/>
<text text-anchor="middle" x="1176.94" y="-318.59" font-family="Helvetica,sans-Serif" font-size="32.00" fill="#29235c">1</text>
<text text-anchor="middle" x="999.85" y="-385.59" font-family="Helvetica,sans-Serif" font-size="32.00" fill="#29235c">*</text>
</g>
<!-- status_positions&#45;&gt;statuses -->
<!-- status_positions&#45;&gt;statuses -->
<g id="edge4" class="edge">
<title>status_positions:e&#45;&gt;statuses:w</title>
<path fill="none" stroke="#29235c" stroke-width="3" d="M993.63,-474.39C1126.44,-474.39 1101,-652.96 1225.77,-662.03"/>
<polygon fill="#29235c" stroke="#29235c" stroke-width="3" points="1225.72,-665.53 1235.83,-662.39 1225.96,-658.53 1225.72,-665.53"/>
<text text-anchor="middle" x="1226.94" y="-671.99" font-family="Helvetica,sans-Serif" font-size="32.00" fill="#29235c">1</text>
<text text-anchor="middle" x="999.85" y="-474.39" font-family="Helvetica,sans-Serif" font-size="32.00" fill="#29235c">*</text>
</g>
<!-- backlog_items -->
<g id="backlog_items" class="node">
<title>backlog_items</title>
<ellipse fill="none" stroke="black" stroke-width="0" cx="250.32" cy="-624.39" rx="250.13" ry="87.86"/>
<polygon fill="#1d71b8" stroke="transparent" points="75.32,-624.39 75.32,-684.39 425.32,-684.39 425.32,-624.39 75.32,-624.39"/>
<polygon fill="none" stroke="#29235c" points="75.32,-624.39 75.32,-684.39 425.32,-684.39 425.32,-624.39 75.32,-624.39"/>
<text text-anchor="start" x="85.83" y="-645.59" font-family="Helvetica,sans-Serif" font-weight="bold" font-size="32.00" fill="#ffffff"> &#160;&#160;&#160;&#160;&#160;&#160;backlog_items &#160;&#160;&#160;&#160;&#160;&#160;</text>
<polygon fill="#e7e2dd" stroke="transparent" points="75.32,-564.39 75.32,-624.39 425.32,-624.39 425.32,-564.39 75.32,-564.39"/>
<polygon fill="none" stroke="#29235c" points="75.32,-564.39 75.32,-624.39 425.32,-624.39 425.32,-564.39 75.32,-564.39"/>
<text text-anchor="start" x="86.32" y="-584.59" font-family="Helvetica,sans-Serif" font-size="32.00" fill="#29235c">status_position_id &#160;&#160;&#160;</text>
<text text-anchor="start" x="380.53" y="-585.59" font-family="Helvetica,sans-Serif" font-style="italic" font-size="32.00" fill="#29235c">int</text>
<polygon fill="none" stroke="#29235c" stroke-width="2" points="74.32,-563.39 74.32,-685.39 426.32,-685.39 426.32,-563.39 74.32,-563.39"/>
</g>
<!-- backlog_items&#45;&gt;status_positions -->
<!-- backlog_items&#45;&gt;status_positions -->
<g id="edge8" class="edge">
<title>backlog_items:e&#45;&gt;status_positions:w</title>
<path fill="none" stroke="#29235c" stroke-width="3" d="M426.32,-594.39C507.43,-594.39 530.2,-594.39 606.53,-594.39"/>
<polygon fill="#29235c" stroke="#29235c" stroke-width="3" points="606.63,-597.89 616.63,-594.39 606.63,-590.89 606.63,-597.89"/>
<text text-anchor="middle" x="625.52" y="-603.99" font-family="Helvetica,sans-Serif" font-size="32.00" fill="#29235c">1</text>
<text text-anchor="middle" x="420.09" y="-603.99" font-family="Helvetica,sans-Serif" font-size="32.00" fill="#29235c">*</text>
</g>
</g>
</svg>
