<?xml version="1.0" encoding="UTF-8" standalone="no"?>
<!DOCTYPE svg PUBLIC "-//W3C//DTD SVG 1.1//EN"
 "http://www.w3.org/Graphics/SVG/1.1/DTD/svg11.dtd">
<!-- Generated by graphviz version 2.47.0 (20210316.0004)
 -->
<!-- Title: dbml Pages: 1 -->
<svg width="2178pt" height="608pt"
 viewBox="0.00 0.00 2177.92 607.63" xmlns="http://www.w3.org/2000/svg" xmlns:xlink="http://www.w3.org/1999/xlink">
<g id="graph0" class="graph" transform="scale(1 1) rotate(0) translate(4 603.63)">
<title>dbml</title>
<!-- departments -->
<g id="departments" class="node">
<title>departments</title>
<ellipse fill="none" stroke="black" stroke-width="0" cx="1909.71" cy="-359.81" rx="260.43" ry="214.92"/>
<polygon fill="#1d71b8" stroke="transparent" points="1727.71,-449.81 1727.71,-509.81 2091.71,-509.81 2091.71,-449.81 1727.71,-449.81"/>
<polygon fill="none" stroke="#29235c" points="1727.71,-449.81 1727.71,-509.81 2091.71,-509.81 2091.71,-449.81 1727.71,-449.81"/>
<text text-anchor="start" x="1758.55" y="-471.01" font-family="Helvetica,sans-Serif" font-weight="bold" font-size="32.00" fill="#ffffff"> &#160;&#160;&#160;&#160;&#160;&#160;departments &#160;&#160;&#160;&#160;&#160;&#160;</text>
<polygon fill="#e7e2dd" stroke="transparent" points="1727.71,-389.81 1727.71,-449.81 2091.71,-449.81 2091.71,-389.81 1727.71,-389.81"/>
<polygon fill="none" stroke="#29235c" points="1727.71,-389.81 1727.71,-449.81 2091.71,-449.81 2091.71,-389.81 1727.71,-389.81"/>
<text text-anchor="start" x="1738.71" y="-411.01" font-family="Helvetica,sans-Serif" font-weight="bold" font-size="32.00" fill="#29235c">id</text>
<text text-anchor="start" x="1763.6" y="-411.01" font-family="Helvetica,sans-Serif" font-size="32.00" fill="#29235c"> &#160;&#160;&#160;</text>
<text text-anchor="start" x="2046.93" y="-411.01" font-family="Helvetica,sans-Serif" font-style="italic" font-size="32.00" fill="#29235c">int</text>
<polygon fill="#e7e2dd" stroke="transparent" points="1727.71,-329.81 1727.71,-389.81 2091.71,-389.81 2091.71,-329.81 1727.71,-329.81"/>
<polygon fill="none" stroke="#29235c" points="1727.71,-329.81 1727.71,-389.81 2091.71,-389.81 2091.71,-329.81 1727.71,-329.81"/>
<text text-anchor="start" x="1738.71" y="-350.01" font-family="Helvetica,sans-Serif" font-size="32.00" fill="#29235c">name &#160;&#160;&#160;</text>
<text text-anchor="start" x="1934.94" y="-351.01" font-family="Helvetica,sans-Serif" font-style="italic" font-size="32.00" fill="#29235c">varchar</text>
<text text-anchor="start" x="2041.62" y="-351.01" font-family="Helvetica,sans-Serif" font-size="32.00" fill="#29235c"> </text>
<text text-anchor="start" x="2050.51" y="-351.01" font-family="Helvetica,sans-Serif" font-weight="bold" font-size="32.00" fill="#29235c">(!)</text>
<polygon fill="#e7e2dd" stroke="transparent" points="1727.71,-269.81 1727.71,-329.81 2091.71,-329.81 2091.71,-269.81 1727.71,-269.81"/>
<polygon fill="none" stroke="#29235c" points="1727.71,-269.81 1727.71,-329.81 2091.71,-329.81 2091.71,-269.81 1727.71,-269.81"/>
<text text-anchor="start" x="1738.71" y="-290.01" font-family="Helvetica,sans-Serif" font-size="32.00" fill="#29235c">created_at &#160;&#160;&#160;</text>
<text text-anchor="start" x="1933.15" y="-291.01" font-family="Helvetica,sans-Serif" font-style="italic" font-size="32.00" fill="#29235c">timestamp</text>
<polygon fill="#e7e2dd" stroke="transparent" points="1727.71,-209.81 1727.71,-269.81 2091.71,-269.81 2091.71,-209.81 1727.71,-209.81"/>
<polygon fill="none" stroke="#29235c" points="1727.71,-209.81 1727.71,-269.81 2091.71,-269.81 2091.71,-209.81 1727.71,-209.81"/>
<text text-anchor="start" x="1738.37" y="-230.01" font-family="Helvetica,sans-Serif" font-size="32.00" fill="#29235c">updated_at &#160;&#160;&#160;</text>
<text text-anchor="start" x="1933.43" y="-231.01" font-family="Helvetica,sans-Serif" font-style="italic" font-size="32.00" fill="#29235c">timestamp</text>
<polygon fill="none" stroke="#29235c" stroke-width="2" points="1726.71,-208.81 1726.71,-510.81 2092.71,-510.81 2092.71,-208.81 1726.71,-208.81"/>
</g>
<!-- positions -->
<g id="positions" class="node">
<title>positions</title>
<ellipse fill="none" stroke="black" stroke-width="0" cx="1353.28" cy="-329.81" rx="260.43" ry="257.27"/>
<polygon fill="#1d71b8" stroke="transparent" points="1171.28,-449.81 1171.28,-509.81 1535.28,-509.81 1535.28,-449.81 1171.28,-449.81"/>
<polygon fill="none" stroke="#29235c" points="1171.28,-449.81 1171.28,-509.81 1535.28,-509.81 1535.28,-449.81 1171.28,-449.81"/>
<text text-anchor="start" x="1227.9" y="-471.01" font-family="Helvetica,sans-Serif" font-weight="bold" font-size="32.00" fill="#ffffff"> &#160;&#160;&#160;&#160;&#160;&#160;positions &#160;&#160;&#160;&#160;&#160;&#160;</text>
<polygon fill="#e7e2dd" stroke="transparent" points="1171.28,-389.81 1171.28,-449.81 1535.28,-449.81 1535.28,-389.81 1171.28,-389.81"/>
<polygon fill="none" stroke="#29235c" points="1171.28,-389.81 1171.28,-449.81 1535.28,-449.81 1535.28,-389.81 1171.28,-389.81"/>
<text text-anchor="start" x="1182.28" y="-411.01" font-family="Helvetica,sans-Serif" font-weight="bold" font-size="32.00" fill="#29235c">id</text>
<text text-anchor="start" x="1207.17" y="-411.01" font-family="Helvetica,sans-Serif" font-size="32.00" fill="#29235c"> &#160;&#160;&#160;</text>
<text text-anchor="start" x="1490.5" y="-411.01" font-family="Helvetica,sans-Serif" font-style="italic" font-size="32.00" fill="#29235c">int</text>
<polygon fill="#e7e2dd" stroke="transparent" points="1171.28,-329.81 1171.28,-389.81 1535.28,-389.81 1535.28,-329.81 1171.28,-329.81"/>
<polygon fill="none" stroke="#29235c" points="1171.28,-329.81 1171.28,-389.81 1535.28,-389.81 1535.28,-329.81 1171.28,-329.81"/>
<text text-anchor="start" x="1182.28" y="-350.01" font-family="Helvetica,sans-Serif" font-size="32.00" fill="#29235c">name &#160;&#160;&#160;</text>
<text text-anchor="start" x="1378.51" y="-351.01" font-family="Helvetica,sans-Serif" font-style="italic" font-size="32.00" fill="#29235c">varchar</text>
<text text-anchor="start" x="1485.19" y="-351.01" font-family="Helvetica,sans-Serif" font-size="32.00" fill="#29235c"> </text>
<text text-anchor="start" x="1494.08" y="-351.01" font-family="Helvetica,sans-Serif" font-weight="bold" font-size="32.00" fill="#29235c">(!)</text>
<polygon fill="#e7e2dd" stroke="transparent" points="1171.28,-269.81 1171.28,-329.81 1535.28,-329.81 1535.28,-269.81 1171.28,-269.81"/>
<polygon fill="none" stroke="#29235c" points="1171.28,-269.81 1171.28,-329.81 1535.28,-329.81 1535.28,-269.81 1171.28,-269.81"/>
<text text-anchor="start" x="1182.28" y="-290.01" font-family="Helvetica,sans-Serif" font-size="32.00" fill="#29235c">department_id &#160;&#160;&#160;</text>
<text text-anchor="start" x="1490.5" y="-291.01" font-family="Helvetica,sans-Serif" font-style="italic" font-size="32.00" fill="#29235c">int</text>
<polygon fill="#e7e2dd" stroke="transparent" points="1171.28,-209.81 1171.28,-269.81 1535.28,-269.81 1535.28,-209.81 1171.28,-209.81"/>
<polygon fill="none" stroke="#29235c" points="1171.28,-209.81 1171.28,-269.81 1535.28,-269.81 1535.28,-209.81 1171.28,-209.81"/>
<text text-anchor="start" x="1182.28" y="-230.01" font-family="Helvetica,sans-Serif" font-size="32.00" fill="#29235c">created_at &#160;&#160;&#160;</text>
<text text-anchor="start" x="1376.72" y="-231.01" font-family="Helvetica,sans-Serif" font-style="italic" font-size="32.00" fill="#29235c">timestamp</text>
<polygon fill="#e7e2dd" stroke="transparent" points="1171.28,-149.81 1171.28,-209.81 1535.28,-209.81 1535.28,-149.81 1171.28,-149.81"/>
<polygon fill="none" stroke="#29235c" points="1171.28,-149.81 1171.28,-209.81 1535.28,-209.81 1535.28,-149.81 1171.28,-149.81"/>
<text text-anchor="start" x="1181.94" y="-170.01" font-family="Helvetica,sans-Serif" font-size="32.00" fill="#29235c">updated_at &#160;&#160;&#160;</text>
<text text-anchor="start" x="1377" y="-171.01" font-family="Helvetica,sans-Serif" font-style="italic" font-size="32.00" fill="#29235c">timestamp</text>
<polygon fill="none" stroke="#29235c" stroke-width="2" points="1170.28,-148.81 1170.28,-510.81 1536.28,-510.81 1536.28,-148.81 1170.28,-148.81"/>
</g>
<!-- positions&#45;&gt;departments -->
<!-- positions&#45;&gt;departments -->
<g id="edge2" class="edge">
<title>positions:e&#45;&gt;departments:w</title>
<path fill="none" stroke="#29235c" stroke-width="3" d="M1536.28,-299.81C1632.8,-299.81 1627.21,-411.52 1716.55,-419.38"/>
<polygon fill="#29235c" stroke="#29235c" stroke-width="3" points="1716.57,-422.88 1726.71,-419.81 1716.87,-415.89 1716.57,-422.88"/>
<text text-anchor="middle" x="1717.81" y="-429.41" font-family="Helvetica,sans-Serif" font-size="32.00" fill="#29235c">1</text>
<text text-anchor="middle" x="1542.5" y="-299.81" font-family="Helvetica,sans-Serif" font-size="32.00" fill="#29235c">*</text>
</g>
<!-- statuses -->
<g id="statuses" class="node">
<title>statuses</title>
<ellipse fill="none" stroke="black" stroke-width="0" cx="796.85" cy="-299.81" rx="260.43" ry="299.63"/>
<polygon fill="#1d71b8" stroke="transparent" points="614.85,-449.81 614.85,-509.81 978.85,-509.81 978.85,-449.81 614.85,-449.81"/>
<polygon fill="none" stroke="#29235c" points="614.85,-449.81 614.85,-509.81 978.85,-509.81 978.85,-449.81 614.85,-449.81"/>
<text text-anchor="start" x="675.02" y="-471.01" font-family="Helvetica,sans-Serif" font-weight="bold" font-size="32.00" fill="#ffffff"> &#160;&#160;&#160;&#160;&#160;&#160;statuses &#160;&#160;&#160;&#160;&#160;&#160;</text>
<polygon fill="#e7e2dd" stroke="transparent" points="614.85,-389.81 614.85,-449.81 978.85,-449.81 978.85,-389.81 614.85,-389.81"/>
<polygon fill="none" stroke="#29235c" points="614.85,-389.81 614.85,-449.81 978.85,-449.81 978.85,-389.81 614.85,-389.81"/>
<text text-anchor="start" x="625.85" y="-411.01" font-family="Helvetica,sans-Serif" font-weight="bold" font-size="32.00" fill="#29235c">id</text>
<text text-anchor="start" x="650.74" y="-411.01" font-family="Helvetica,sans-Serif" font-size="32.00" fill="#29235c"> &#160;&#160;&#160;</text>
<text text-anchor="start" x="934.06" y="-411.01" font-family="Helvetica,sans-Serif" font-style="italic" font-size="32.00" fill="#29235c">int</text>
<polygon fill="#e7e2dd" stroke="transparent" points="614.85,-329.81 614.85,-389.81 978.85,-389.81 978.85,-329.81 614.85,-329.81"/>
<polygon fill="none" stroke="#29235c" points="614.85,-329.81 614.85,-389.81 978.85,-389.81 978.85,-329.81 614.85,-329.81"/>
<text text-anchor="start" x="625.85" y="-350.01" font-family="Helvetica,sans-Serif" font-size="32.00" fill="#29235c">name &#160;&#160;&#160;</text>
<text text-anchor="start" x="861.17" y="-351.01" font-family="Helvetica,sans-Serif" font-style="italic" font-size="32.00" fill="#29235c">varchar</text>
<polygon fill="#e7e2dd" stroke="transparent" points="614.85,-269.81 614.85,-329.81 978.85,-329.81 978.85,-269.81 614.85,-269.81"/>
<polygon fill="none" stroke="#29235c" points="614.85,-269.81 614.85,-329.81 978.85,-329.81 978.85,-269.81 614.85,-269.81"/>
<text text-anchor="start" x="625.85" y="-290.01" font-family="Helvetica,sans-Serif" font-size="32.00" fill="#29235c">position_id &#160;&#160;&#160;</text>
<text text-anchor="start" x="934.06" y="-291.01" font-family="Helvetica,sans-Serif" font-style="italic" font-size="32.00" fill="#29235c">int</text>
<polygon fill="#e7e2dd" stroke="transparent" points="614.85,-209.81 614.85,-269.81 978.85,-269.81 978.85,-209.81 614.85,-209.81"/>
<polygon fill="none" stroke="#29235c" points="614.85,-209.81 614.85,-269.81 978.85,-269.81 978.85,-209.81 614.85,-209.81"/>
<text text-anchor="start" x="625.85" y="-230.01" font-family="Helvetica,sans-Serif" font-size="32.00" fill="#29235c">category &#160;&#160;&#160;</text>
<text text-anchor="start" x="882.48" y="-231.01" font-family="Helvetica,sans-Serif" font-style="italic" font-size="32.00" fill="#29235c">status</text>
<polygon fill="#e7e2dd" stroke="transparent" points="614.85,-149.81 614.85,-209.81 978.85,-209.81 978.85,-149.81 614.85,-149.81"/>
<polygon fill="none" stroke="#29235c" points="614.85,-149.81 614.85,-209.81 978.85,-209.81 978.85,-149.81 614.85,-149.81"/>
<text text-anchor="start" x="625.85" y="-170.01" font-family="Helvetica,sans-Serif" font-size="32.00" fill="#29235c">created_at &#160;&#160;&#160;</text>
<text text-anchor="start" x="820.29" y="-171.01" font-family="Helvetica,sans-Serif" font-style="italic" font-size="32.00" fill="#29235c">timestamp</text>
<polygon fill="#e7e2dd" stroke="transparent" points="614.85,-89.81 614.85,-149.81 978.85,-149.81 978.85,-89.81 614.85,-89.81"/>
<polygon fill="none" stroke="#29235c" points="614.85,-89.81 614.85,-149.81 978.85,-149.81 978.85,-89.81 614.85,-89.81"/>
<text text-anchor="start" x="625.51" y="-110.01" font-family="Helvetica,sans-Serif" font-size="32.00" fill="#29235c">updated_at &#160;&#160;&#160;</text>
<text text-anchor="start" x="820.57" y="-111.01" font-family="Helvetica,sans-Serif" font-style="italic" font-size="32.00" fill="#29235c">timestamp</text>
<polygon fill="none" stroke="#29235c" stroke-width="2" points="613.85,-88.81 613.85,-510.81 979.85,-510.81 979.85,-88.81 613.85,-88.81"/>
</g>
<!-- statuses&#45;&gt;positions -->
<!-- statuses&#45;&gt;positions -->
<g id="edge4" class="edge">
<title>statuses:e&#45;&gt;positions:w</title>
<path fill="none" stroke="#29235c" stroke-width="3" d="M979.85,-299.81C1076.37,-299.81 1070.78,-411.52 1160.12,-419.38"/>
<polygon fill="#29235c" stroke="#29235c" stroke-width="3" points="1160.14,-422.88 1170.28,-419.81 1160.44,-415.89 1160.14,-422.88"/>
<text text-anchor="middle" x="1161.38" y="-429.41" font-family="Helvetica,sans-Serif" font-size="32.00" fill="#29235c">1</text>
<text text-anchor="middle" x="973.62" y="-271.01" font-family="Helvetica,sans-Serif" font-size="32.00" fill="#29235c">*</text>
</g>
<!-- backlog_items -->
<g id="backlog_items" class="node">
<title>backlog_items</title>
<ellipse fill="none" stroke="black" stroke-width="0" cx="250.32" cy="-449.81" rx="250.13" ry="87.86"/>
<polygon fill="#1d71b8" stroke="transparent" points="75.32,-449.81 75.32,-509.81 425.32,-509.81 425.32,-449.81 75.32,-449.81"/>
<polygon fill="none" stroke="#29235c" points="75.32,-449.81 75.32,-509.81 425.32,-509.81 425.32,-449.81 75.32,-449.81"/>
<text text-anchor="start" x="85.83" y="-471.01" font-family="Helvetica,sans-Serif" font-weight="bold" font-size="32.00" fill="#ffffff"> &#160;&#160;&#160;&#160;&#160;&#160;backlog_items &#160;&#160;&#160;&#160;&#160;&#160;</text>
<polygon fill="#e7e2dd" stroke="transparent" points="75.32,-389.81 75.32,-449.81 425.32,-449.81 425.32,-389.81 75.32,-389.81"/>
<polygon fill="none" stroke="#29235c" points="75.32,-389.81 75.32,-449.81 425.32,-449.81 425.32,-389.81 75.32,-389.81"/>
<text text-anchor="start" x="86.32" y="-410.01" font-family="Helvetica,sans-Serif" font-size="32.00" fill="#29235c">status_id &#160;&#160;&#160;</text>
<text text-anchor="start" x="380.53" y="-411.01" font-family="Helvetica,sans-Serif" font-style="italic" font-size="32.00" fill="#29235c">int</text>
<polygon fill="none" stroke="#29235c" stroke-width="2" points="74.32,-388.81 74.32,-510.81 426.32,-510.81 426.32,-388.81 74.32,-388.81"/>
</g>
<!-- backlog_items&#45;&gt;statuses -->
<!-- backlog_items&#45;&gt;statuses -->
<g id="edge6" class="edge">
<title>backlog_items:e&#45;&gt;statuses:w</title>
<path fill="none" stroke="#29235c" stroke-width="3" d="M426.32,-419.81C506.08,-419.81 528.59,-419.81 603.44,-419.81"/>
<polygon fill="#29235c" stroke="#29235c" stroke-width="3" points="603.85,-423.31 613.85,-419.81 603.85,-416.31 603.85,-423.31"/>
<text text-anchor="middle" x="604.95" y="-429.41" font-family="Helvetica,sans-Serif" font-size="32.00" fill="#29235c">1</text>
<text text-anchor="middle" x="432.54" y="-429.41" font-family="Helvetica,sans-Serif" font-size="32.00" fill="#29235c">*</text>
</g>
</g>
</svg>
