<?xml version="1.0" encoding="UTF-8" standalone="no"?>
<!DOCTYPE svg PUBLIC "-//W3C//DTD SVG 1.1//EN"
 "http://www.w3.org/Graphics/SVG/1.1/DTD/svg11.dtd">
<!-- Generated by graphviz version 2.47.0 (20210316.0004)
 -->
<!-- Title: dbml Pages: 1 -->
<svg width="2178pt" height="777pt"
 viewBox="0.00 0.00 2177.92 777.33" xmlns="http://www.w3.org/2000/svg" xmlns:xlink="http://www.w3.org/1999/xlink">
<g id="graph0" class="graph" transform="scale(1 1) rotate(0) translate(4 773.33)">
<title>dbml</title>
<!-- departments -->
<g id="departments" class="node">
<title>departments</title>
<ellipse fill="none" stroke="black" stroke-width="0" cx="1909.71" cy="-504.67" rx="260.43" ry="214.92"/>
<polygon fill="#1d71b8" stroke="transparent" points="1727.71,-594.67 1727.71,-654.67 2091.71,-654.67 2091.71,-594.67 1727.71,-594.67"/>
<polygon fill="none" stroke="#29235c" points="1727.71,-594.67 1727.71,-654.67 2091.71,-654.67 2091.71,-594.67 1727.71,-594.67"/>
<text text-anchor="start" x="1758.55" y="-615.87" font-family="Helvetica,sans-Serif" font-weight="bold" font-size="32.00" fill="#ffffff"> &#160;&#160;&#160;&#160;&#160;&#160;departments &#160;&#160;&#160;&#160;&#160;&#160;</text>
<polygon fill="#e7e2dd" stroke="transparent" points="1727.71,-534.67 1727.71,-594.67 2091.71,-594.67 2091.71,-534.67 1727.71,-534.67"/>
<polygon fill="none" stroke="#29235c" points="1727.71,-534.67 1727.71,-594.67 2091.71,-594.67 2091.71,-534.67 1727.71,-534.67"/>
<text text-anchor="start" x="1738.71" y="-555.87" font-family="Helvetica,sans-Serif" font-weight="bold" font-size="32.00" fill="#29235c">id</text>
<text text-anchor="start" x="1763.6" y="-555.87" font-family="Helvetica,sans-Serif" font-size="32.00" fill="#29235c"> &#160;&#160;&#160;</text>
<text text-anchor="start" x="2046.93" y="-555.87" font-family="Helvetica,sans-Serif" font-style="italic" font-size="32.00" fill="#29235c">int</text>
<polygon fill="#e7e2dd" stroke="transparent" points="1727.71,-474.67 1727.71,-534.67 2091.71,-534.67 2091.71,-474.67 1727.71,-474.67"/>
<polygon fill="none" stroke="#29235c" points="1727.71,-474.67 1727.71,-534.67 2091.71,-534.67 2091.71,-474.67 1727.71,-474.67"/>
<text text-anchor="start" x="1738.71" y="-494.87" font-family="Helvetica,sans-Serif" font-size="32.00" fill="#29235c">name &#160;&#160;&#160;</text>
<text text-anchor="start" x="1934.94" y="-495.87" font-family="Helvetica,sans-Serif" font-style="italic" font-size="32.00" fill="#29235c">varchar</text>
<text text-anchor="start" x="2041.62" y="-495.87" font-family="Helvetica,sans-Serif" font-size="32.00" fill="#29235c"> </text>
<text text-anchor="start" x="2050.51" y="-495.87" font-family="Helvetica,sans-Serif" font-weight="bold" font-size="32.00" fill="#29235c">(!)</text>
<polygon fill="#e7e2dd" stroke="transparent" points="1727.71,-414.67 1727.71,-474.67 2091.71,-474.67 2091.71,-414.67 1727.71,-414.67"/>
<polygon fill="none" stroke="#29235c" points="1727.71,-414.67 1727.71,-474.67 2091.71,-474.67 2091.71,-414.67 1727.71,-414.67"/>
<text text-anchor="start" x="1738.71" y="-434.87" font-family="Helvetica,sans-Serif" font-size="32.00" fill="#29235c">created_at &#160;&#160;&#160;</text>
<text text-anchor="start" x="1933.15" y="-435.87" font-family="Helvetica,sans-Serif" font-style="italic" font-size="32.00" fill="#29235c">timestamp</text>
<polygon fill="#e7e2dd" stroke="transparent" points="1727.71,-354.67 1727.71,-414.67 2091.71,-414.67 2091.71,-354.67 1727.71,-354.67"/>
<polygon fill="none" stroke="#29235c" points="1727.71,-354.67 1727.71,-414.67 2091.71,-414.67 2091.71,-354.67 1727.71,-354.67"/>
<text text-anchor="start" x="1738.37" y="-374.87" font-family="Helvetica,sans-Serif" font-size="32.00" fill="#29235c">updated_at &#160;&#160;&#160;</text>
<text text-anchor="start" x="1933.43" y="-375.87" font-family="Helvetica,sans-Serif" font-style="italic" font-size="32.00" fill="#29235c">timestamp</text>
<polygon fill="none" stroke="#29235c" stroke-width="2" points="1726.71,-353.67 1726.71,-655.67 2092.71,-655.67 2092.71,-353.67 1726.71,-353.67"/>
</g>
<!-- positions -->
<g id="positions" class="node">
<title>positions</title>
<ellipse fill="none" stroke="black" stroke-width="0" cx="1353.28" cy="-474.67" rx="260.43" ry="257.27"/>
<polygon fill="#1d71b8" stroke="transparent" points="1171.28,-594.67 1171.28,-654.67 1535.28,-654.67 1535.28,-594.67 1171.28,-594.67"/>
<polygon fill="none" stroke="#29235c" points="1171.28,-594.67 1171.28,-654.67 1535.28,-654.67 1535.28,-594.67 1171.28,-594.67"/>
<text text-anchor="start" x="1227.9" y="-615.87" font-family="Helvetica,sans-Serif" font-weight="bold" font-size="32.00" fill="#ffffff"> &#160;&#160;&#160;&#160;&#160;&#160;positions &#160;&#160;&#160;&#160;&#160;&#160;</text>
<polygon fill="#e7e2dd" stroke="transparent" points="1171.28,-534.67 1171.28,-594.67 1535.28,-594.67 1535.28,-534.67 1171.28,-534.67"/>
<polygon fill="none" stroke="#29235c" points="1171.28,-534.67 1171.28,-594.67 1535.28,-594.67 1535.28,-534.67 1171.28,-534.67"/>
<text text-anchor="start" x="1182.28" y="-555.87" font-family="Helvetica,sans-Serif" font-weight="bold" font-size="32.00" fill="#29235c">id</text>
<text text-anchor="start" x="1207.17" y="-555.87" font-family="Helvetica,sans-Serif" font-size="32.00" fill="#29235c"> &#160;&#160;&#160;</text>
<text text-anchor="start" x="1490.5" y="-555.87" font-family="Helvetica,sans-Serif" font-style="italic" font-size="32.00" fill="#29235c">int</text>
<polygon fill="#e7e2dd" stroke="transparent" points="1171.28,-474.67 1171.28,-534.67 1535.28,-534.67 1535.28,-474.67 1171.28,-474.67"/>
<polygon fill="none" stroke="#29235c" points="1171.28,-474.67 1171.28,-534.67 1535.28,-534.67 1535.28,-474.67 1171.28,-474.67"/>
<text text-anchor="start" x="1182.28" y="-494.87" font-family="Helvetica,sans-Serif" font-size="32.00" fill="#29235c">name &#160;&#160;&#160;</text>
<text text-anchor="start" x="1378.51" y="-495.87" font-family="Helvetica,sans-Serif" font-style="italic" font-size="32.00" fill="#29235c">varchar</text>
<text text-anchor="start" x="1485.19" y="-495.87" font-family="Helvetica,sans-Serif" font-size="32.00" fill="#29235c"> </text>
<text text-anchor="start" x="1494.08" y="-495.87" font-family="Helvetica,sans-Serif" font-weight="bold" font-size="32.00" fill="#29235c">(!)</text>
<polygon fill="#e7e2dd" stroke="transparent" points="1171.28,-414.67 1171.28,-474.67 1535.28,-474.67 1535.28,-414.67 1171.28,-414.67"/>
<polygon fill="none" stroke="#29235c" points="1171.28,-414.67 1171.28,-474.67 1535.28,-474.67 1535.28,-414.67 1171.28,-414.67"/>
<text text-anchor="start" x="1182.28" y="-434.87" font-family="Helvetica,sans-Serif" font-size="32.00" fill="#29235c">department_id &#160;&#160;&#160;</text>
<text text-anchor="start" x="1490.5" y="-435.87" font-family="Helvetica,sans-Serif" font-style="italic" font-size="32.00" fill="#29235c">int</text>
<polygon fill="#e7e2dd" stroke="transparent" points="1171.28,-354.67 1171.28,-414.67 1535.28,-414.67 1535.28,-354.67 1171.28,-354.67"/>
<polygon fill="none" stroke="#29235c" points="1171.28,-354.67 1171.28,-414.67 1535.28,-414.67 1535.28,-354.67 1171.28,-354.67"/>
<text text-anchor="start" x="1182.28" y="-374.87" font-family="Helvetica,sans-Serif" font-size="32.00" fill="#29235c">created_at &#160;&#160;&#160;</text>
<text text-anchor="start" x="1376.72" y="-375.87" font-family="Helvetica,sans-Serif" font-style="italic" font-size="32.00" fill="#29235c">timestamp</text>
<polygon fill="#e7e2dd" stroke="transparent" points="1171.28,-294.67 1171.28,-354.67 1535.28,-354.67 1535.28,-294.67 1171.28,-294.67"/>
<polygon fill="none" stroke="#29235c" points="1171.28,-294.67 1171.28,-354.67 1535.28,-354.67 1535.28,-294.67 1171.28,-294.67"/>
<text text-anchor="start" x="1181.94" y="-314.87" font-family="Helvetica,sans-Serif" font-size="32.00" fill="#29235c">updated_at &#160;&#160;&#160;</text>
<text text-anchor="start" x="1377" y="-315.87" font-family="Helvetica,sans-Serif" font-style="italic" font-size="32.00" fill="#29235c">timestamp</text>
<polygon fill="none" stroke="#29235c" stroke-width="2" points="1170.28,-293.67 1170.28,-655.67 1536.28,-655.67 1536.28,-293.67 1170.28,-293.67"/>
</g>
<!-- positions&#45;&gt;departments -->
<!-- positions&#45;&gt;departments -->
<g id="edge2" class="edge">
<title>positions:e&#45;&gt;departments:w</title>
<path fill="none" stroke="#29235c" stroke-width="3" d="M1536.28,-444.67C1632.8,-444.67 1627.21,-556.38 1716.55,-564.23"/>
<polygon fill="#29235c" stroke="#29235c" stroke-width="3" points="1716.57,-567.74 1726.71,-564.67 1716.87,-560.74 1716.57,-567.74"/>
<text text-anchor="middle" x="1717.81" y="-574.27" font-family="Helvetica,sans-Serif" font-size="32.00" fill="#29235c">1</text>
<text text-anchor="middle" x="1542.5" y="-454.27" font-family="Helvetica,sans-Serif" font-size="32.00" fill="#29235c">*</text>
</g>
<!-- statuses -->
<g id="statuses" class="node">
<title>statuses</title>
<ellipse fill="none" stroke="black" stroke-width="0" cx="796.85" cy="-384.67" rx="260.43" ry="384.83"/>
<polygon fill="#1d71b8" stroke="transparent" points="614.85,-594.67 614.85,-654.67 978.85,-654.67 978.85,-594.67 614.85,-594.67"/>
<polygon fill="none" stroke="#29235c" points="614.85,-594.67 614.85,-654.67 978.85,-654.67 978.85,-594.67 614.85,-594.67"/>
<text text-anchor="start" x="675.02" y="-615.87" font-family="Helvetica,sans-Serif" font-weight="bold" font-size="32.00" fill="#ffffff"> &#160;&#160;&#160;&#160;&#160;&#160;statuses &#160;&#160;&#160;&#160;&#160;&#160;</text>
<polygon fill="#e7e2dd" stroke="transparent" points="614.85,-534.67 614.85,-594.67 978.85,-594.67 978.85,-534.67 614.85,-534.67"/>
<polygon fill="none" stroke="#29235c" points="614.85,-534.67 614.85,-594.67 978.85,-594.67 978.85,-534.67 614.85,-534.67"/>
<text text-anchor="start" x="625.85" y="-555.87" font-family="Helvetica,sans-Serif" font-weight="bold" font-size="32.00" fill="#29235c">id</text>
<text text-anchor="start" x="650.74" y="-555.87" font-family="Helvetica,sans-Serif" font-size="32.00" fill="#29235c"> &#160;&#160;&#160;</text>
<text text-anchor="start" x="934.06" y="-555.87" font-family="Helvetica,sans-Serif" font-style="italic" font-size="32.00" fill="#29235c">int</text>
<polygon fill="#e7e2dd" stroke="transparent" points="614.85,-474.67 614.85,-534.67 978.85,-534.67 978.85,-474.67 614.85,-474.67"/>
<polygon fill="none" stroke="#29235c" points="614.85,-474.67 614.85,-534.67 978.85,-534.67 978.85,-474.67 614.85,-474.67"/>
<text text-anchor="start" x="625.85" y="-494.87" font-family="Helvetica,sans-Serif" font-size="32.00" fill="#29235c">name &#160;&#160;&#160;</text>
<text text-anchor="start" x="861.17" y="-495.87" font-family="Helvetica,sans-Serif" font-style="italic" font-size="32.00" fill="#29235c">varchar</text>
<polygon fill="#e7e2dd" stroke="transparent" points="614.85,-414.67 614.85,-474.67 978.85,-474.67 978.85,-414.67 614.85,-414.67"/>
<polygon fill="none" stroke="#29235c" points="614.85,-414.67 614.85,-474.67 978.85,-474.67 978.85,-414.67 614.85,-414.67"/>
<text text-anchor="start" x="625.85" y="-434.87" font-family="Helvetica,sans-Serif" font-size="32.00" fill="#29235c">position_id &#160;&#160;&#160;</text>
<text text-anchor="start" x="934.06" y="-435.87" font-family="Helvetica,sans-Serif" font-style="italic" font-size="32.00" fill="#29235c">int</text>
<polygon fill="#e7e2dd" stroke="transparent" points="614.85,-354.67 614.85,-414.67 978.85,-414.67 978.85,-354.67 614.85,-354.67"/>
<polygon fill="none" stroke="#29235c" points="614.85,-354.67 614.85,-414.67 978.85,-414.67 978.85,-354.67 614.85,-354.67"/>
<text text-anchor="start" x="625.85" y="-374.87" font-family="Helvetica,sans-Serif" font-size="32.00" fill="#29235c">index &#160;&#160;&#160;</text>
<text text-anchor="start" x="934.06" y="-375.87" font-family="Helvetica,sans-Serif" font-style="italic" font-size="32.00" fill="#29235c">int</text>
<polygon fill="#e7e2dd" stroke="transparent" points="614.85,-294.67 614.85,-354.67 978.85,-354.67 978.85,-294.67 614.85,-294.67"/>
<polygon fill="none" stroke="#29235c" points="614.85,-294.67 614.85,-354.67 978.85,-354.67 978.85,-294.67 614.85,-294.67"/>
<text text-anchor="start" x="625.85" y="-314.87" font-family="Helvetica,sans-Serif" font-size="32.00" fill="#29235c">color &#160;&#160;&#160;</text>
<text text-anchor="start" x="861.17" y="-315.87" font-family="Helvetica,sans-Serif" font-style="italic" font-size="32.00" fill="#29235c">varchar</text>
<polygon fill="#e7e2dd" stroke="transparent" points="614.85,-234.67 614.85,-294.67 978.85,-294.67 978.85,-234.67 614.85,-234.67"/>
<polygon fill="none" stroke="#29235c" points="614.85,-234.67 614.85,-294.67 978.85,-294.67 978.85,-234.67 614.85,-234.67"/>
<text text-anchor="start" x="625.85" y="-254.87" font-family="Helvetica,sans-Serif" font-size="32.00" fill="#29235c">category &#160;&#160;&#160;</text>
<text text-anchor="start" x="882.48" y="-255.87" font-family="Helvetica,sans-Serif" font-style="italic" font-size="32.00" fill="#29235c">status</text>
<polygon fill="#e7e2dd" stroke="transparent" points="614.85,-174.67 614.85,-234.67 978.85,-234.67 978.85,-174.67 614.85,-174.67"/>
<polygon fill="none" stroke="#29235c" points="614.85,-174.67 614.85,-234.67 978.85,-234.67 978.85,-174.67 614.85,-174.67"/>
<text text-anchor="start" x="625.85" y="-194.87" font-family="Helvetica,sans-Serif" font-size="32.00" fill="#29235c">created_at &#160;&#160;&#160;</text>
<text text-anchor="start" x="820.29" y="-195.87" font-family="Helvetica,sans-Serif" font-style="italic" font-size="32.00" fill="#29235c">timestamp</text>
<polygon fill="#e7e2dd" stroke="transparent" points="614.85,-114.67 614.85,-174.67 978.85,-174.67 978.85,-114.67 614.85,-114.67"/>
<polygon fill="none" stroke="#29235c" points="614.85,-114.67 614.85,-174.67 978.85,-174.67 978.85,-114.67 614.85,-114.67"/>
<text text-anchor="start" x="625.51" y="-134.87" font-family="Helvetica,sans-Serif" font-size="32.00" fill="#29235c">updated_at &#160;&#160;&#160;</text>
<text text-anchor="start" x="820.57" y="-135.87" font-family="Helvetica,sans-Serif" font-style="italic" font-size="32.00" fill="#29235c">timestamp</text>
<polygon fill="none" stroke="#29235c" stroke-width="2" points="613.85,-113.67 613.85,-655.67 979.85,-655.67 979.85,-113.67 613.85,-113.67"/>
</g>
<!-- statuses&#45;&gt;positions -->
<!-- statuses&#45;&gt;positions -->
<g id="edge4" class="edge">
<title>statuses:e&#45;&gt;positions:w</title>
<path fill="none" stroke="#29235c" stroke-width="3" d="M979.85,-444.67C1076.37,-444.67 1070.78,-556.38 1160.12,-564.23"/>
<polygon fill="#29235c" stroke="#29235c" stroke-width="3" points="1160.14,-567.74 1170.28,-564.67 1160.44,-560.74 1160.14,-567.74"/>
<text text-anchor="middle" x="1161.38" y="-574.27" font-family="Helvetica,sans-Serif" font-size="32.00" fill="#29235c">1</text>
<text text-anchor="middle" x="973.62" y="-454.27" font-family="Helvetica,sans-Serif" font-size="32.00" fill="#29235c">*</text>
</g>
<!-- backlog_items -->
<g id="backlog_items" class="node">
<title>backlog_items</title>
<ellipse fill="none" stroke="black" stroke-width="0" cx="250.32" cy="-594.67" rx="250.13" ry="87.86"/>
<polygon fill="#1d71b8" stroke="transparent" points="75.32,-594.67 75.32,-654.67 425.32,-654.67 425.32,-594.67 75.32,-594.67"/>
<polygon fill="none" stroke="#29235c" points="75.32,-594.67 75.32,-654.67 425.32,-654.67 425.32,-594.67 75.32,-594.67"/>
<text text-anchor="start" x="85.83" y="-615.87" font-family="Helvetica,sans-Serif" font-weight="bold" font-size="32.00" fill="#ffffff"> &#160;&#160;&#160;&#160;&#160;&#160;backlog_items &#160;&#160;&#160;&#160;&#160;&#160;</text>
<polygon fill="#e7e2dd" stroke="transparent" points="75.32,-534.67 75.32,-594.67 425.32,-594.67 425.32,-534.67 75.32,-534.67"/>
<polygon fill="none" stroke="#29235c" points="75.32,-534.67 75.32,-594.67 425.32,-594.67 425.32,-534.67 75.32,-534.67"/>
<text text-anchor="start" x="86.32" y="-554.87" font-family="Helvetica,sans-Serif" font-size="32.00" fill="#29235c">status_id &#160;&#160;&#160;</text>
<text text-anchor="start" x="380.53" y="-555.87" font-family="Helvetica,sans-Serif" font-style="italic" font-size="32.00" fill="#29235c">int</text>
<polygon fill="none" stroke="#29235c" stroke-width="2" points="74.32,-533.67 74.32,-655.67 426.32,-655.67 426.32,-533.67 74.32,-533.67"/>
</g>
<!-- backlog_items&#45;&gt;statuses -->
<!-- backlog_items&#45;&gt;statuses -->
<g id="edge6" class="edge">
<title>backlog_items:e&#45;&gt;statuses:w</title>
<path fill="none" stroke="#29235c" stroke-width="3" d="M426.32,-564.67C506.08,-564.67 528.59,-564.67 603.44,-564.67"/>
<polygon fill="#29235c" stroke="#29235c" stroke-width="3" points="603.85,-568.17 613.85,-564.67 603.85,-561.17 603.85,-568.17"/>
<text text-anchor="middle" x="604.95" y="-574.27" font-family="Helvetica,sans-Serif" font-size="32.00" fill="#29235c">1</text>
<text text-anchor="middle" x="432.54" y="-574.27" font-family="Helvetica,sans-Serif" font-size="32.00" fill="#29235c">*</text>
</g>
</g>
</svg>
