<?xml version="1.0" encoding="UTF-8" standalone="no"?>
<!DOCTYPE svg PUBLIC "-//W3C//DTD SVG 1.1//EN"
 "http://www.w3.org/Graphics/SVG/1.1/DTD/svg11.dtd">
<!-- Generated by graphviz version 2.47.0 (20210316.0004)
 -->
<!-- Title: dbml Pages: 1 -->
<svg width="1658pt" height="1843pt"
 viewBox="0.00 0.00 1658.26 1842.92" xmlns="http://www.w3.org/2000/svg" xmlns:xlink="http://www.w3.org/1999/xlink">
<g id="graph0" class="graph" transform="scale(1 1) rotate(0) translate(4 1838.92)">
<title>dbml</title>
<!-- projects -->
<g id="projects" class="node">
<title>projects</title>
<ellipse fill="none" stroke="black" stroke-width="0" cx="1332.06" cy="-257.39" rx="243.9" ry="257.27"/>
<polygon fill="#1d71b8" stroke="transparent" points="1162.06,-377.39 1162.06,-437.39 1503.06,-437.39 1503.06,-377.39 1162.06,-377.39"/>
<polygon fill="none" stroke="#29235c" points="1162.06,-377.39 1162.06,-437.39 1503.06,-437.39 1503.06,-377.39 1162.06,-377.39"/>
<text text-anchor="start" x="1214.31" y="-398.59" font-family="Helvetica,sans-Serif" font-weight="bold" font-size="32.00" fill="#ffffff"> &#160;&#160;&#160;&#160;&#160;&#160;projects &#160;&#160;&#160;&#160;&#160;&#160;</text>
<polygon fill="#e7e2dd" stroke="transparent" points="1162.06,-317.39 1162.06,-377.39 1503.06,-377.39 1503.06,-317.39 1162.06,-317.39"/>
<polygon fill="none" stroke="#29235c" points="1162.06,-317.39 1162.06,-377.39 1503.06,-377.39 1503.06,-317.39 1162.06,-317.39"/>
<text text-anchor="start" x="1173.06" y="-338.59" font-family="Helvetica,sans-Serif" font-weight="bold" font-size="32.00" fill="#29235c">id</text>
<text text-anchor="start" x="1197.95" y="-338.59" font-family="Helvetica,sans-Serif" font-size="32.00" fill="#29235c"> &#160;&#160;&#160;</text>
<text text-anchor="start" x="1458.28" y="-338.59" font-family="Helvetica,sans-Serif" font-style="italic" font-size="32.00" fill="#29235c">int</text>
<polygon fill="#e7e2dd" stroke="transparent" points="1162.06,-257.39 1162.06,-317.39 1503.06,-317.39 1503.06,-257.39 1162.06,-257.39"/>
<polygon fill="none" stroke="#29235c" points="1162.06,-257.39 1162.06,-317.39 1503.06,-317.39 1503.06,-257.39 1162.06,-257.39"/>
<text text-anchor="start" x="1173.06" y="-277.59" font-family="Helvetica,sans-Serif" font-size="32.00" fill="#29235c">nama &#160;&#160;&#160;</text>
<text text-anchor="start" x="1346.3" y="-278.59" font-family="Helvetica,sans-Serif" font-style="italic" font-size="32.00" fill="#29235c">varchar</text>
<text text-anchor="start" x="1452.97" y="-278.59" font-family="Helvetica,sans-Serif" font-size="32.00" fill="#29235c"> </text>
<text text-anchor="start" x="1461.87" y="-278.59" font-family="Helvetica,sans-Serif" font-weight="bold" font-size="32.00" fill="#29235c">(!)</text>
<polygon fill="#e7e2dd" stroke="transparent" points="1162.06,-197.39 1162.06,-257.39 1503.06,-257.39 1503.06,-197.39 1162.06,-197.39"/>
<polygon fill="none" stroke="#29235c" points="1162.06,-197.39 1162.06,-257.39 1503.06,-257.39 1503.06,-197.39 1162.06,-197.39"/>
<text text-anchor="start" x="1173.06" y="-217.59" font-family="Helvetica,sans-Serif" font-size="32.00" fill="#29235c">deskripsi &#160;&#160;&#160;</text>
<text text-anchor="start" x="1440.49" y="-218.59" font-family="Helvetica,sans-Serif" font-style="italic" font-size="32.00" fill="#29235c">text</text>
<polygon fill="#e7e2dd" stroke="transparent" points="1162.06,-137.39 1162.06,-197.39 1503.06,-197.39 1503.06,-137.39 1162.06,-137.39"/>
<polygon fill="none" stroke="#29235c" points="1162.06,-137.39 1162.06,-197.39 1503.06,-197.39 1503.06,-137.39 1162.06,-137.39"/>
<text text-anchor="start" x="1173.06" y="-157.59" font-family="Helvetica,sans-Serif" font-size="32.00" fill="#29235c">tanggal_mulai &#160;&#160;&#160;</text>
<text text-anchor="start" x="1429.81" y="-158.59" font-family="Helvetica,sans-Serif" font-style="italic" font-size="32.00" fill="#29235c">date</text>
<polygon fill="#e7e2dd" stroke="transparent" points="1162.06,-77.39 1162.06,-137.39 1503.06,-137.39 1503.06,-77.39 1162.06,-77.39"/>
<polygon fill="none" stroke="#29235c" points="1162.06,-77.39 1162.06,-137.39 1503.06,-137.39 1503.06,-77.39 1162.06,-77.39"/>
<text text-anchor="start" x="1172.63" y="-97.59" font-family="Helvetica,sans-Serif" font-size="32.00" fill="#29235c">tanggal_selesai &#160;&#160;&#160;</text>
<text text-anchor="start" x="1429.93" y="-98.59" font-family="Helvetica,sans-Serif" font-style="italic" font-size="32.00" fill="#29235c">date</text>
<polygon fill="none" stroke="#29235c" stroke-width="2" points="1160.56,-76.39 1160.56,-438.39 1503.56,-438.39 1503.56,-76.39 1160.56,-76.39"/>
</g>
<!-- users -->
<g id="users" class="node">
<title>users</title>
<ellipse fill="none" stroke="black" stroke-width="0" cx="1332.06" cy="-1002.39" rx="318.4" ry="469.54"/>
<polygon fill="#1d71b8" stroke="transparent" points="1109.06,-1272.39 1109.06,-1332.39 1555.06,-1332.39 1555.06,-1272.39 1109.06,-1272.39"/>
<polygon fill="none" stroke="#29235c" points="1109.06,-1272.39 1109.06,-1332.39 1555.06,-1332.39 1555.06,-1272.39 1109.06,-1272.39"/>
<text text-anchor="start" x="1230.7" y="-1293.59" font-family="Helvetica,sans-Serif" font-weight="bold" font-size="32.00" fill="#ffffff"> &#160;&#160;&#160;&#160;&#160;&#160;users &#160;&#160;&#160;&#160;&#160;&#160;</text>
<polygon fill="#e7e2dd" stroke="transparent" points="1109.06,-1212.39 1109.06,-1272.39 1555.06,-1272.39 1555.06,-1212.39 1109.06,-1212.39"/>
<polygon fill="none" stroke="#29235c" points="1109.06,-1212.39 1109.06,-1272.39 1555.06,-1272.39 1555.06,-1212.39 1109.06,-1212.39"/>
<text text-anchor="start" x="1120.06" y="-1233.59" font-family="Helvetica,sans-Serif" font-weight="bold" font-size="32.00" fill="#29235c">id</text>
<text text-anchor="start" x="1144.95" y="-1233.59" font-family="Helvetica,sans-Serif" font-size="32.00" fill="#29235c"> &#160;&#160;&#160;</text>
<text text-anchor="start" x="1510.28" y="-1233.59" font-family="Helvetica,sans-Serif" font-style="italic" font-size="32.00" fill="#29235c">int</text>
<polygon fill="#e7e2dd" stroke="transparent" points="1109.06,-1152.39 1109.06,-1212.39 1555.06,-1212.39 1555.06,-1152.39 1109.06,-1152.39"/>
<polygon fill="none" stroke="#29235c" points="1109.06,-1152.39 1109.06,-1212.39 1555.06,-1212.39 1555.06,-1152.39 1109.06,-1152.39"/>
<text text-anchor="start" x="1120.06" y="-1172.59" font-family="Helvetica,sans-Serif" font-size="32.00" fill="#29235c">name &#160;&#160;&#160;</text>
<text text-anchor="start" x="1398.3" y="-1173.59" font-family="Helvetica,sans-Serif" font-style="italic" font-size="32.00" fill="#29235c">varchar</text>
<text text-anchor="start" x="1504.97" y="-1173.59" font-family="Helvetica,sans-Serif" font-size="32.00" fill="#29235c"> </text>
<text text-anchor="start" x="1513.87" y="-1173.59" font-family="Helvetica,sans-Serif" font-weight="bold" font-size="32.00" fill="#29235c">(!)</text>
<polygon fill="#e7e2dd" stroke="transparent" points="1109.06,-1092.39 1109.06,-1152.39 1555.06,-1152.39 1555.06,-1092.39 1109.06,-1092.39"/>
<polygon fill="none" stroke="#29235c" points="1109.06,-1092.39 1109.06,-1152.39 1555.06,-1152.39 1555.06,-1092.39 1109.06,-1092.39"/>
<text text-anchor="start" x="1120.06" y="-1112.59" font-family="Helvetica,sans-Serif" font-size="32.00" fill="#29235c">email &#160;&#160;&#160;</text>
<text text-anchor="start" x="1398.3" y="-1113.59" font-family="Helvetica,sans-Serif" font-style="italic" font-size="32.00" fill="#29235c">varchar</text>
<text text-anchor="start" x="1504.97" y="-1113.59" font-family="Helvetica,sans-Serif" font-size="32.00" fill="#29235c"> </text>
<text text-anchor="start" x="1513.87" y="-1113.59" font-family="Helvetica,sans-Serif" font-weight="bold" font-size="32.00" fill="#29235c">(!)</text>
<polygon fill="#e7e2dd" stroke="transparent" points="1109.06,-1032.39 1109.06,-1092.39 1555.06,-1092.39 1555.06,-1032.39 1109.06,-1032.39"/>
<polygon fill="none" stroke="#29235c" points="1109.06,-1032.39 1109.06,-1092.39 1555.06,-1092.39 1555.06,-1032.39 1109.06,-1032.39"/>
<text text-anchor="start" x="1119.88" y="-1052.59" font-family="Helvetica,sans-Serif" font-size="32.00" fill="#29235c">email_verified_at &#160;&#160;&#160;</text>
<text text-anchor="start" x="1396.79" y="-1053.59" font-family="Helvetica,sans-Serif" font-style="italic" font-size="32.00" fill="#29235c">timestamp</text>
<polygon fill="#e7e2dd" stroke="transparent" points="1109.06,-972.39 1109.06,-1032.39 1555.06,-1032.39 1555.06,-972.39 1109.06,-972.39"/>
<polygon fill="none" stroke="#29235c" points="1109.06,-972.39 1109.06,-1032.39 1555.06,-1032.39 1555.06,-972.39 1109.06,-972.39"/>
<text text-anchor="start" x="1120.06" y="-992.59" font-family="Helvetica,sans-Serif" font-size="32.00" fill="#29235c">password &#160;&#160;&#160;</text>
<text text-anchor="start" x="1398.3" y="-993.59" font-family="Helvetica,sans-Serif" font-style="italic" font-size="32.00" fill="#29235c">varchar</text>
<text text-anchor="start" x="1504.97" y="-993.59" font-family="Helvetica,sans-Serif" font-size="32.00" fill="#29235c"> </text>
<text text-anchor="start" x="1513.87" y="-993.59" font-family="Helvetica,sans-Serif" font-weight="bold" font-size="32.00" fill="#29235c">(!)</text>
<polygon fill="#e7e2dd" stroke="transparent" points="1109.06,-912.39 1109.06,-972.39 1555.06,-972.39 1555.06,-912.39 1109.06,-912.39"/>
<polygon fill="none" stroke="#29235c" points="1109.06,-912.39 1109.06,-972.39 1555.06,-972.39 1555.06,-912.39 1109.06,-912.39"/>
<text text-anchor="start" x="1120.06" y="-932.59" font-family="Helvetica,sans-Serif" font-size="32.00" fill="#29235c">remember_token &#160;&#160;&#160;</text>
<text text-anchor="start" x="1437.39" y="-933.59" font-family="Helvetica,sans-Serif" font-style="italic" font-size="32.00" fill="#29235c">varchar</text>
<polygon fill="#e7e2dd" stroke="transparent" points="1109.06,-852.39 1109.06,-912.39 1555.06,-912.39 1555.06,-852.39 1109.06,-852.39"/>
<polygon fill="none" stroke="#29235c" points="1109.06,-852.39 1109.06,-912.39 1555.06,-912.39 1555.06,-852.39 1109.06,-852.39"/>
<text text-anchor="start" x="1120.06" y="-872.59" font-family="Helvetica,sans-Serif" font-size="32.00" fill="#29235c">custom_fields &#160;&#160;&#160;</text>
<text text-anchor="start" x="1485.39" y="-873.59" font-family="Helvetica,sans-Serif" font-style="italic" font-size="32.00" fill="#29235c">json</text>
<polygon fill="#e7e2dd" stroke="transparent" points="1109.06,-792.39 1109.06,-852.39 1555.06,-852.39 1555.06,-792.39 1109.06,-792.39"/>
<polygon fill="none" stroke="#29235c" points="1109.06,-792.39 1109.06,-852.39 1555.06,-852.39 1555.06,-792.39 1109.06,-792.39"/>
<text text-anchor="start" x="1120.06" y="-812.59" font-family="Helvetica,sans-Serif" font-size="32.00" fill="#29235c">avatar_url &#160;&#160;&#160;</text>
<text text-anchor="start" x="1437.39" y="-813.59" font-family="Helvetica,sans-Serif" font-style="italic" font-size="32.00" fill="#29235c">varchar</text>
<polygon fill="#e7e2dd" stroke="transparent" points="1109.06,-732.39 1109.06,-792.39 1555.06,-792.39 1555.06,-732.39 1109.06,-732.39"/>
<polygon fill="none" stroke="#29235c" points="1109.06,-732.39 1109.06,-792.39 1555.06,-792.39 1555.06,-732.39 1109.06,-732.39"/>
<text text-anchor="start" x="1120.06" y="-752.59" font-family="Helvetica,sans-Serif" font-size="32.00" fill="#29235c">created_at &#160;&#160;&#160;</text>
<text text-anchor="start" x="1396.51" y="-753.59" font-family="Helvetica,sans-Serif" font-style="italic" font-size="32.00" fill="#29235c">timestamp</text>
<polygon fill="#e7e2dd" stroke="transparent" points="1109.06,-672.39 1109.06,-732.39 1555.06,-732.39 1555.06,-672.39 1109.06,-672.39"/>
<polygon fill="none" stroke="#29235c" points="1109.06,-672.39 1109.06,-732.39 1555.06,-732.39 1555.06,-672.39 1109.06,-672.39"/>
<text text-anchor="start" x="1120.06" y="-692.59" font-family="Helvetica,sans-Serif" font-size="32.00" fill="#29235c">updated_at &#160;&#160;&#160;</text>
<text text-anchor="start" x="1396.51" y="-693.59" font-family="Helvetica,sans-Serif" font-style="italic" font-size="32.00" fill="#29235c">timestamp</text>
<polygon fill="none" stroke="#29235c" stroke-width="2" points="1108.06,-671.39 1108.06,-1333.39 1556.06,-1333.39 1556.06,-671.39 1108.06,-671.39"/>
</g>
<!-- statuses -->
<g id="statuses" class="node">
<title>statuses</title>
<ellipse fill="none" stroke="black" stroke-width="0" cx="1332.06" cy="-1662.39" rx="207.36" ry="172.57"/>
<polygon fill="#1d71b8" stroke="transparent" points="1188.06,-1722.39 1188.06,-1782.39 1477.06,-1782.39 1477.06,-1722.39 1188.06,-1722.39"/>
<polygon fill="none" stroke="#29235c" points="1188.06,-1722.39 1188.06,-1782.39 1477.06,-1782.39 1477.06,-1722.39 1188.06,-1722.39"/>
<text text-anchor="start" x="1210.74" y="-1743.59" font-family="Helvetica,sans-Serif" font-weight="bold" font-size="32.00" fill="#ffffff"> &#160;&#160;&#160;&#160;&#160;&#160;statuses &#160;&#160;&#160;&#160;&#160;&#160;</text>
<polygon fill="#e7e2dd" stroke="transparent" points="1188.06,-1662.39 1188.06,-1722.39 1477.06,-1722.39 1477.06,-1662.39 1188.06,-1662.39"/>
<polygon fill="none" stroke="#29235c" points="1188.06,-1662.39 1188.06,-1722.39 1477.06,-1722.39 1477.06,-1662.39 1188.06,-1662.39"/>
<text text-anchor="start" x="1199.06" y="-1683.59" font-family="Helvetica,sans-Serif" font-weight="bold" font-size="32.00" fill="#29235c">id</text>
<text text-anchor="start" x="1223.95" y="-1683.59" font-family="Helvetica,sans-Serif" font-size="32.00" fill="#29235c"> &#160;&#160;&#160;</text>
<text text-anchor="start" x="1432.28" y="-1683.59" font-family="Helvetica,sans-Serif" font-style="italic" font-size="32.00" fill="#29235c">int</text>
<polygon fill="#e7e2dd" stroke="transparent" points="1188.06,-1602.39 1188.06,-1662.39 1477.06,-1662.39 1477.06,-1602.39 1188.06,-1602.39"/>
<polygon fill="none" stroke="#29235c" points="1188.06,-1602.39 1188.06,-1662.39 1477.06,-1662.39 1477.06,-1602.39 1188.06,-1602.39"/>
<text text-anchor="start" x="1199.06" y="-1622.59" font-family="Helvetica,sans-Serif" font-size="32.00" fill="#29235c">nama &#160;&#160;&#160;</text>
<text text-anchor="start" x="1359.39" y="-1623.59" font-family="Helvetica,sans-Serif" font-style="italic" font-size="32.00" fill="#29235c">varchar</text>
<polygon fill="#e7e2dd" stroke="transparent" points="1188.06,-1542.39 1188.06,-1602.39 1477.06,-1602.39 1477.06,-1542.39 1188.06,-1542.39"/>
<polygon fill="none" stroke="#29235c" points="1188.06,-1542.39 1188.06,-1602.39 1477.06,-1602.39 1477.06,-1542.39 1188.06,-1542.39"/>
<text text-anchor="start" x="1198.67" y="-1562.59" font-family="Helvetica,sans-Serif" font-size="32.00" fill="#29235c">deskripsi &#160;&#160;&#160;</text>
<text text-anchor="start" x="1359.73" y="-1563.59" font-family="Helvetica,sans-Serif" font-style="italic" font-size="32.00" fill="#29235c">varchar</text>
<polygon fill="none" stroke="#29235c" stroke-width="2" points="1186.56,-1541.39 1186.56,-1783.39 1477.56,-1783.39 1477.56,-1541.39 1186.56,-1541.39"/>
</g>
<!-- tasks -->
<g id="tasks" class="node">
<title>tasks</title>
<ellipse fill="none" stroke="black" stroke-width="0" cx="717.65" cy="-912.39" rx="260.43" ry="596.6"/>
<polygon fill="#1d71b8" stroke="transparent" points="535.65,-1272.39 535.65,-1332.39 899.65,-1332.39 899.65,-1272.39 535.65,-1272.39"/>
<polygon fill="none" stroke="#29235c" points="535.65,-1272.39 535.65,-1332.39 899.65,-1332.39 899.65,-1272.39 535.65,-1272.39"/>
<text text-anchor="start" x="618.06" y="-1293.59" font-family="Helvetica,sans-Serif" font-weight="bold" font-size="32.00" fill="#ffffff"> &#160;&#160;&#160;&#160;&#160;&#160;tasks &#160;&#160;&#160;&#160;&#160;&#160;</text>
<polygon fill="#e7e2dd" stroke="transparent" points="535.65,-1212.39 535.65,-1272.39 899.65,-1272.39 899.65,-1212.39 535.65,-1212.39"/>
<polygon fill="none" stroke="#29235c" points="535.65,-1212.39 535.65,-1272.39 899.65,-1272.39 899.65,-1212.39 535.65,-1212.39"/>
<text text-anchor="start" x="546.65" y="-1233.59" font-family="Helvetica,sans-Serif" font-weight="bold" font-size="32.00" fill="#29235c">id</text>
<text text-anchor="start" x="571.54" y="-1233.59" font-family="Helvetica,sans-Serif" font-size="32.00" fill="#29235c"> &#160;&#160;&#160;</text>
<text text-anchor="start" x="854.87" y="-1233.59" font-family="Helvetica,sans-Serif" font-style="italic" font-size="32.00" fill="#29235c">int</text>
<polygon fill="#e7e2dd" stroke="transparent" points="535.65,-1152.39 535.65,-1212.39 899.65,-1212.39 899.65,-1152.39 535.65,-1152.39"/>
<polygon fill="none" stroke="#29235c" points="535.65,-1152.39 535.65,-1212.39 899.65,-1212.39 899.65,-1152.39 535.65,-1152.39"/>
<text text-anchor="start" x="546.65" y="-1172.59" font-family="Helvetica,sans-Serif" font-size="32.00" fill="#29235c">nama &#160;&#160;&#160;</text>
<text text-anchor="start" x="781.98" y="-1173.59" font-family="Helvetica,sans-Serif" font-style="italic" font-size="32.00" fill="#29235c">varchar</text>
<polygon fill="#e7e2dd" stroke="transparent" points="535.65,-1092.39 535.65,-1152.39 899.65,-1152.39 899.65,-1092.39 535.65,-1092.39"/>
<polygon fill="none" stroke="#29235c" points="535.65,-1092.39 535.65,-1152.39 899.65,-1152.39 899.65,-1092.39 535.65,-1092.39"/>
<text text-anchor="start" x="546.65" y="-1112.59" font-family="Helvetica,sans-Serif" font-size="32.00" fill="#29235c">point &#160;&#160;&#160;</text>
<text text-anchor="start" x="854.87" y="-1113.59" font-family="Helvetica,sans-Serif" font-style="italic" font-size="32.00" fill="#29235c">int</text>
<polygon fill="#e7e2dd" stroke="transparent" points="535.65,-1032.39 535.65,-1092.39 899.65,-1092.39 899.65,-1032.39 535.65,-1032.39"/>
<polygon fill="none" stroke="#29235c" points="535.65,-1032.39 535.65,-1092.39 899.65,-1092.39 899.65,-1032.39 535.65,-1032.39"/>
<text text-anchor="start" x="546.65" y="-1052.59" font-family="Helvetica,sans-Serif" font-size="32.00" fill="#29235c">deskripsi &#160;&#160;&#160;</text>
<text text-anchor="start" x="837.08" y="-1053.59" font-family="Helvetica,sans-Serif" font-style="italic" font-size="32.00" fill="#29235c">text</text>
<polygon fill="#e7e2dd" stroke="transparent" points="535.65,-972.39 535.65,-1032.39 899.65,-1032.39 899.65,-972.39 535.65,-972.39"/>
<polygon fill="none" stroke="#29235c" points="535.65,-972.39 535.65,-1032.39 899.65,-1032.39 899.65,-972.39 535.65,-972.39"/>
<text text-anchor="start" x="546.65" y="-992.59" font-family="Helvetica,sans-Serif" font-size="32.00" fill="#29235c">status_id &#160;&#160;&#160;</text>
<text text-anchor="start" x="854.87" y="-993.59" font-family="Helvetica,sans-Serif" font-style="italic" font-size="32.00" fill="#29235c">int</text>
<polygon fill="#e7e2dd" stroke="transparent" points="535.65,-912.39 535.65,-972.39 899.65,-972.39 899.65,-912.39 535.65,-912.39"/>
<polygon fill="none" stroke="#29235c" points="535.65,-912.39 535.65,-972.39 899.65,-972.39 899.65,-912.39 535.65,-912.39"/>
<text text-anchor="start" x="546.65" y="-932.59" font-family="Helvetica,sans-Serif" font-size="32.00" fill="#29235c">prioritas &#160;&#160;&#160;</text>
<text text-anchor="start" x="774.88" y="-933.59" font-family="Helvetica,sans-Serif" font-style="italic" font-size="32.00" fill="#29235c">prioritas</text>
<polygon fill="#e7e2dd" stroke="transparent" points="535.65,-852.39 535.65,-912.39 899.65,-912.39 899.65,-852.39 535.65,-852.39"/>
<polygon fill="none" stroke="#29235c" points="535.65,-852.39 535.65,-912.39 899.65,-912.39 899.65,-852.39 535.65,-852.39"/>
<text text-anchor="start" x="546.65" y="-872.59" font-family="Helvetica,sans-Serif" font-size="32.00" fill="#29235c">pic &#160;&#160;&#160;</text>
<text text-anchor="start" x="854.87" y="-873.59" font-family="Helvetica,sans-Serif" font-style="italic" font-size="32.00" fill="#29235c">int</text>
<polygon fill="#e7e2dd" stroke="transparent" points="535.65,-792.39 535.65,-852.39 899.65,-852.39 899.65,-792.39 535.65,-792.39"/>
<polygon fill="none" stroke="#29235c" points="535.65,-792.39 535.65,-852.39 899.65,-852.39 899.65,-792.39 535.65,-792.39"/>
<text text-anchor="start" x="546.65" y="-812.59" font-family="Helvetica,sans-Serif" font-size="32.00" fill="#29235c">dibuat_oleh &#160;&#160;&#160;</text>
<text text-anchor="start" x="854.87" y="-813.59" font-family="Helvetica,sans-Serif" font-style="italic" font-size="32.00" fill="#29235c">int</text>
<polygon fill="#e7e2dd" stroke="transparent" points="535.65,-732.39 535.65,-792.39 899.65,-792.39 899.65,-732.39 535.65,-732.39"/>
<polygon fill="none" stroke="#29235c" points="535.65,-732.39 535.65,-792.39 899.65,-792.39 899.65,-732.39 535.65,-732.39"/>
<text text-anchor="start" x="546.65" y="-752.59" font-family="Helvetica,sans-Serif" font-size="32.00" fill="#29235c">project_id &#160;&#160;&#160;</text>
<text text-anchor="start" x="854.87" y="-753.59" font-family="Helvetica,sans-Serif" font-style="italic" font-size="32.00" fill="#29235c">int</text>
<polygon fill="#e7e2dd" stroke="transparent" points="535.65,-672.39 535.65,-732.39 899.65,-732.39 899.65,-672.39 535.65,-672.39"/>
<polygon fill="none" stroke="#29235c" points="535.65,-672.39 535.65,-732.39 899.65,-732.39 899.65,-672.39 535.65,-672.39"/>
<text text-anchor="start" x="546.65" y="-692.59" font-family="Helvetica,sans-Serif" font-size="32.00" fill="#29235c">tanggal_mulai &#160;&#160;&#160;</text>
<text text-anchor="start" x="826.39" y="-693.59" font-family="Helvetica,sans-Serif" font-style="italic" font-size="32.00" fill="#29235c">date</text>
<polygon fill="#e7e2dd" stroke="transparent" points="535.65,-612.39 535.65,-672.39 899.65,-672.39 899.65,-612.39 535.65,-612.39"/>
<polygon fill="none" stroke="#29235c" points="535.65,-612.39 535.65,-672.39 899.65,-672.39 899.65,-612.39 535.65,-612.39"/>
<text text-anchor="start" x="546.65" y="-632.59" font-family="Helvetica,sans-Serif" font-size="32.00" fill="#29235c">tanggal_selesai &#160;&#160;&#160;</text>
<text text-anchor="start" x="826.39" y="-633.59" font-family="Helvetica,sans-Serif" font-style="italic" font-size="32.00" fill="#29235c">date</text>
<polygon fill="#e7e2dd" stroke="transparent" points="535.65,-552.39 535.65,-612.39 899.65,-612.39 899.65,-552.39 535.65,-552.39"/>
<polygon fill="none" stroke="#29235c" points="535.65,-552.39 535.65,-612.39 899.65,-612.39 899.65,-552.39 535.65,-552.39"/>
<text text-anchor="start" x="546.65" y="-572.59" font-family="Helvetica,sans-Serif" font-size="32.00" fill="#29235c">created_at &#160;&#160;&#160;</text>
<text text-anchor="start" x="741.09" y="-573.59" font-family="Helvetica,sans-Serif" font-style="italic" font-size="32.00" fill="#29235c">timestamp</text>
<polygon fill="#e7e2dd" stroke="transparent" points="535.65,-492.39 535.65,-552.39 899.65,-552.39 899.65,-492.39 535.65,-492.39"/>
<polygon fill="none" stroke="#29235c" points="535.65,-492.39 535.65,-552.39 899.65,-552.39 899.65,-492.39 535.65,-492.39"/>
<text text-anchor="start" x="546.32" y="-512.59" font-family="Helvetica,sans-Serif" font-size="32.00" fill="#29235c">updated_at &#160;&#160;&#160;</text>
<text text-anchor="start" x="741.37" y="-513.59" font-family="Helvetica,sans-Serif" font-style="italic" font-size="32.00" fill="#29235c">timestamp</text>
<polygon fill="none" stroke="#29235c" stroke-width="2" points="534.65,-491.39 534.65,-1333.39 900.65,-1333.39 900.65,-491.39 534.65,-491.39"/>
</g>
<!-- tasks&#45;&gt;projects -->
<!-- tasks&#45;&gt;projects -->
<g id="edge8" class="edge">
<title>tasks:e&#45;&gt;projects:w</title>
<path fill="none" stroke="#29235c" stroke-width="3" d="M900.65,-762.39C1018.19,-762.39 950.49,-622.38 1013.87,-523.39 1066.97,-440.44 1059.68,-353.54 1150.99,-347.7"/>
<polygon fill="#29235c" stroke="#29235c" stroke-width="3" points="1151.18,-351.19 1161.06,-347.39 1150.96,-344.2 1151.18,-351.19"/>
<text text-anchor="middle" x="1152.17" y="-318.59" font-family="Helvetica,sans-Serif" font-size="32.00" fill="#29235c">1</text>
<text text-anchor="middle" x="906.87" y="-733.59" font-family="Helvetica,sans-Serif" font-size="32.00" fill="#29235c">*</text>
</g>
<!-- tasks&#45;&gt;users -->
<!-- tasks&#45;&gt;users -->
<g id="edge4" class="edge">
<title>tasks:e&#45;&gt;users:w</title>
<path fill="none" stroke="#29235c" stroke-width="3" d="M900.65,-882.39C1081.79,-882.39 929.45,-1228.81 1097.89,-1242"/>
<polygon fill="#29235c" stroke="#29235c" stroke-width="3" points="1097.94,-1245.5 1108.06,-1242.39 1098.2,-1238.51 1097.94,-1245.5"/>
<text text-anchor="middle" x="1099.17" y="-1251.99" font-family="Helvetica,sans-Serif" font-size="32.00" fill="#29235c">1</text>
<text text-anchor="middle" x="906.87" y="-853.59" font-family="Helvetica,sans-Serif" font-size="32.00" fill="#29235c">*</text>
</g>
<!-- tasks&#45;&gt;users -->
<!-- tasks&#45;&gt;users -->
<g id="edge6" class="edge">
<title>tasks:e&#45;&gt;users:w</title>
<path fill="none" stroke="#29235c" stroke-width="3" d="M900.65,-822.39C1105.38,-822.39 906.7,-1228.56 1098.04,-1242.04"/>
<polygon fill="#29235c" stroke="#29235c" stroke-width="3" points="1097.95,-1245.54 1108.06,-1242.39 1098.19,-1238.55 1097.95,-1245.54"/>
<text text-anchor="middle" x="1099.17" y="-1213.59" font-family="Helvetica,sans-Serif" font-size="32.00" fill="#29235c">1</text>
<text text-anchor="middle" x="906.87" y="-793.59" font-family="Helvetica,sans-Serif" font-size="32.00" fill="#29235c">*</text>
</g>
<!-- tasks&#45;&gt;statuses -->
<!-- tasks&#45;&gt;statuses -->
<g id="edge2" class="edge">
<title>tasks:e&#45;&gt;statuses:w</title>
<path fill="none" stroke="#29235c" stroke-width="3" d="M900.65,-1002.39C1119.41,-1002.39 916.81,-1285.34 1013.87,-1481.39 1066.17,-1587.04 1065.81,-1686.59 1177.05,-1692.14"/>
<polygon fill="#29235c" stroke="#29235c" stroke-width="3" points="1176.98,-1695.64 1187.06,-1692.39 1177.15,-1688.64 1176.98,-1695.64"/>
<text text-anchor="middle" x="1178.17" y="-1701.99" font-family="Helvetica,sans-Serif" font-size="32.00" fill="#29235c">1</text>
<text text-anchor="middle" x="906.87" y="-1011.99" font-family="Helvetica,sans-Serif" font-size="32.00" fill="#29235c">*</text>
</g>
<!-- comments -->
<g id="comments" class="node">
<title>comments</title>
<ellipse fill="none" stroke="black" stroke-width="0" cx="210.72" cy="-1272.39" rx="210.94" ry="87.86"/>
<polygon fill="#1d71b8" stroke="transparent" points="63.72,-1272.39 63.72,-1332.39 357.72,-1332.39 357.72,-1272.39 63.72,-1272.39"/>
<polygon fill="none" stroke="#29235c" points="63.72,-1272.39 63.72,-1332.39 357.72,-1332.39 357.72,-1272.39 63.72,-1272.39"/>
<text text-anchor="start" x="74.69" y="-1293.59" font-family="Helvetica,sans-Serif" font-weight="bold" font-size="32.00" fill="#ffffff"> &#160;&#160;&#160;&#160;&#160;&#160;comments &#160;&#160;&#160;&#160;&#160;&#160;</text>
<polygon fill="#e7e2dd" stroke="transparent" points="63.72,-1212.39 63.72,-1272.39 357.72,-1272.39 357.72,-1212.39 63.72,-1212.39"/>
<polygon fill="none" stroke="#29235c" points="63.72,-1212.39 63.72,-1272.39 357.72,-1272.39 357.72,-1212.39 63.72,-1212.39"/>
<text text-anchor="start" x="74.72" y="-1232.59" font-family="Helvetica,sans-Serif" font-size="32.00" fill="#29235c">task_id &#160;&#160;&#160;</text>
<text text-anchor="start" x="312.94" y="-1233.59" font-family="Helvetica,sans-Serif" font-style="italic" font-size="32.00" fill="#29235c">int</text>
<polygon fill="none" stroke="#29235c" stroke-width="2" points="62.72,-1211.39 62.72,-1333.39 358.72,-1333.39 358.72,-1211.39 62.72,-1211.39"/>
</g>
<!-- comments&#45;&gt;tasks -->
<!-- comments&#45;&gt;tasks -->
<g id="edge10" class="edge">
<title>comments:e&#45;&gt;tasks:w</title>
<path fill="none" stroke="#29235c" stroke-width="3" d="M358.72,-1242.39C433.4,-1242.39 454.58,-1242.39 524.46,-1242.39"/>
<polygon fill="#29235c" stroke="#29235c" stroke-width="3" points="524.65,-1245.89 534.65,-1242.39 524.65,-1238.89 524.65,-1245.89"/>
<text text-anchor="middle" x="525.76" y="-1251.99" font-family="Helvetica,sans-Serif" font-size="32.00" fill="#29235c">1</text>
<text text-anchor="middle" x="352.5" y="-1251.99" font-family="Helvetica,sans-Serif" font-size="32.00" fill="#29235c">*</text>
</g>
</g>
</svg>
