<?xml version="1.0" encoding="UTF-8" standalone="no"?>
<!DOCTYPE svg PUBLIC "-//W3C//DTD SVG 1.1//EN"
 "http://www.w3.org/Graphics/SVG/1.1/DTD/svg11.dtd">
<!-- Generated by graphviz version 2.47.0 (20210316.0004)
 -->
<!-- Title: dbml Pages: 1 -->
<svg width="1641pt" height="1023pt"
 viewBox="0.00 0.00 1641.29 1022.98" xmlns="http://www.w3.org/2000/svg" xmlns:xlink="http://www.w3.org/1999/xlink">
<g id="graph0" class="graph" transform="scale(1 1) rotate(0) translate(4 1018.98)">
<title>dbml</title>
<!-- levels -->
<g id="levels" class="node">
<title>levels</title>
<ellipse fill="none" stroke="black" stroke-width="0" cx="816.65" cy="-280" rx="260.43" ry="214.92"/>
<polygon fill="#1d71b8" stroke="transparent" points="634.65,-370 634.65,-430 998.65,-430 998.65,-370 634.65,-370"/>
<polygon fill="none" stroke="#29235c" points="634.65,-370 634.65,-430 998.65,-430 998.65,-370 634.65,-370"/>
<text text-anchor="start" x="713.51" y="-391.2" font-family="Helvetica,sans-Serif" font-weight="bold" font-size="32.00" fill="#ffffff"> &#160;&#160;&#160;&#160;&#160;&#160;levels &#160;&#160;&#160;&#160;&#160;&#160;</text>
<polygon fill="#e7e2dd" stroke="transparent" points="634.65,-310 634.65,-370 998.65,-370 998.65,-310 634.65,-310"/>
<polygon fill="none" stroke="#29235c" points="634.65,-310 634.65,-370 998.65,-370 998.65,-310 634.65,-310"/>
<text text-anchor="start" x="645.65" y="-331.2" font-family="Helvetica,sans-Serif" font-weight="bold" font-size="32.00" fill="#29235c">id</text>
<text text-anchor="start" x="670.54" y="-331.2" font-family="Helvetica,sans-Serif" font-size="32.00" fill="#29235c"> &#160;&#160;&#160;</text>
<text text-anchor="start" x="953.86" y="-331.2" font-family="Helvetica,sans-Serif" font-style="italic" font-size="32.00" fill="#29235c">int</text>
<polygon fill="#e7e2dd" stroke="transparent" points="634.65,-250 634.65,-310 998.65,-310 998.65,-250 634.65,-250"/>
<polygon fill="none" stroke="#29235c" points="634.65,-250 634.65,-310 998.65,-310 998.65,-250 634.65,-250"/>
<text text-anchor="start" x="645.65" y="-270.2" font-family="Helvetica,sans-Serif" font-size="32.00" fill="#29235c">name &#160;&#160;&#160;</text>
<text text-anchor="start" x="841.88" y="-271.2" font-family="Helvetica,sans-Serif" font-style="italic" font-size="32.00" fill="#29235c">varchar</text>
<text text-anchor="start" x="948.55" y="-271.2" font-family="Helvetica,sans-Serif" font-size="32.00" fill="#29235c"> </text>
<text text-anchor="start" x="957.45" y="-271.2" font-family="Helvetica,sans-Serif" font-weight="bold" font-size="32.00" fill="#29235c">(!)</text>
<polygon fill="#e7e2dd" stroke="transparent" points="634.65,-190 634.65,-250 998.65,-250 998.65,-190 634.65,-190"/>
<polygon fill="none" stroke="#29235c" points="634.65,-190 634.65,-250 998.65,-250 998.65,-190 634.65,-190"/>
<text text-anchor="start" x="645.65" y="-210.2" font-family="Helvetica,sans-Serif" font-size="32.00" fill="#29235c">created_at &#160;&#160;&#160;</text>
<text text-anchor="start" x="840.09" y="-211.2" font-family="Helvetica,sans-Serif" font-style="italic" font-size="32.00" fill="#29235c">timestamp</text>
<polygon fill="#e7e2dd" stroke="transparent" points="634.65,-130 634.65,-190 998.65,-190 998.65,-130 634.65,-130"/>
<polygon fill="none" stroke="#29235c" points="634.65,-130 634.65,-190 998.65,-190 998.65,-130 634.65,-130"/>
<text text-anchor="start" x="645.31" y="-150.2" font-family="Helvetica,sans-Serif" font-size="32.00" fill="#29235c">updated_at &#160;&#160;&#160;</text>
<text text-anchor="start" x="840.37" y="-151.2" font-family="Helvetica,sans-Serif" font-style="italic" font-size="32.00" fill="#29235c">timestamp</text>
<polygon fill="none" stroke="#29235c" stroke-width="2" points="633.65,-129 633.65,-431 999.65,-431 999.65,-129 633.65,-129"/>
</g>
<!-- positions -->
<g id="positions" class="node">
<title>positions</title>
<ellipse fill="none" stroke="black" stroke-width="0" cx="816.65" cy="-728" rx="260.43" ry="214.92"/>
<polygon fill="#1d71b8" stroke="transparent" points="634.65,-818 634.65,-878 998.65,-878 998.65,-818 634.65,-818"/>
<polygon fill="none" stroke="#29235c" points="634.65,-818 634.65,-878 998.65,-878 998.65,-818 634.65,-818"/>
<text text-anchor="start" x="691.27" y="-839.2" font-family="Helvetica,sans-Serif" font-weight="bold" font-size="32.00" fill="#ffffff"> &#160;&#160;&#160;&#160;&#160;&#160;positions &#160;&#160;&#160;&#160;&#160;&#160;</text>
<polygon fill="#e7e2dd" stroke="transparent" points="634.65,-758 634.65,-818 998.65,-818 998.65,-758 634.65,-758"/>
<polygon fill="none" stroke="#29235c" points="634.65,-758 634.65,-818 998.65,-818 998.65,-758 634.65,-758"/>
<text text-anchor="start" x="645.65" y="-779.2" font-family="Helvetica,sans-Serif" font-weight="bold" font-size="32.00" fill="#29235c">id</text>
<text text-anchor="start" x="670.54" y="-779.2" font-family="Helvetica,sans-Serif" font-size="32.00" fill="#29235c"> &#160;&#160;&#160;</text>
<text text-anchor="start" x="953.86" y="-779.2" font-family="Helvetica,sans-Serif" font-style="italic" font-size="32.00" fill="#29235c">int</text>
<polygon fill="#e7e2dd" stroke="transparent" points="634.65,-698 634.65,-758 998.65,-758 998.65,-698 634.65,-698"/>
<polygon fill="none" stroke="#29235c" points="634.65,-698 634.65,-758 998.65,-758 998.65,-698 634.65,-698"/>
<text text-anchor="start" x="645.65" y="-718.2" font-family="Helvetica,sans-Serif" font-size="32.00" fill="#29235c">department_id &#160;&#160;&#160;</text>
<text text-anchor="start" x="953.86" y="-719.2" font-family="Helvetica,sans-Serif" font-style="italic" font-size="32.00" fill="#29235c">int</text>
<polygon fill="#e7e2dd" stroke="transparent" points="634.65,-638 634.65,-698 998.65,-698 998.65,-638 634.65,-638"/>
<polygon fill="none" stroke="#29235c" points="634.65,-638 634.65,-698 998.65,-698 998.65,-638 634.65,-638"/>
<text text-anchor="start" x="645.65" y="-658.2" font-family="Helvetica,sans-Serif" font-size="32.00" fill="#29235c">created_at &#160;&#160;&#160;</text>
<text text-anchor="start" x="840.09" y="-659.2" font-family="Helvetica,sans-Serif" font-style="italic" font-size="32.00" fill="#29235c">timestamp</text>
<polygon fill="#e7e2dd" stroke="transparent" points="634.65,-578 634.65,-638 998.65,-638 998.65,-578 634.65,-578"/>
<polygon fill="none" stroke="#29235c" points="634.65,-578 634.65,-638 998.65,-638 998.65,-578 634.65,-578"/>
<text text-anchor="start" x="645.31" y="-598.2" font-family="Helvetica,sans-Serif" font-size="32.00" fill="#29235c">updated_at &#160;&#160;&#160;</text>
<text text-anchor="start" x="840.37" y="-599.2" font-family="Helvetica,sans-Serif" font-style="italic" font-size="32.00" fill="#29235c">timestamp</text>
<polygon fill="none" stroke="#29235c" stroke-width="2" points="633.65,-577 633.65,-879 999.65,-879 999.65,-577 633.65,-577"/>
</g>
<!-- departments -->
<g id="departments" class="node">
<title>departments</title>
<ellipse fill="none" stroke="black" stroke-width="0" cx="1373.08" cy="-728" rx="260.43" ry="214.92"/>
<polygon fill="#1d71b8" stroke="transparent" points="1191.08,-818 1191.08,-878 1555.08,-878 1555.08,-818 1191.08,-818"/>
<polygon fill="none" stroke="#29235c" points="1191.08,-818 1191.08,-878 1555.08,-878 1555.08,-818 1191.08,-818"/>
<text text-anchor="start" x="1221.91" y="-839.2" font-family="Helvetica,sans-Serif" font-weight="bold" font-size="32.00" fill="#ffffff"> &#160;&#160;&#160;&#160;&#160;&#160;departments &#160;&#160;&#160;&#160;&#160;&#160;</text>
<polygon fill="#e7e2dd" stroke="transparent" points="1191.08,-758 1191.08,-818 1555.08,-818 1555.08,-758 1191.08,-758"/>
<polygon fill="none" stroke="#29235c" points="1191.08,-758 1191.08,-818 1555.08,-818 1555.08,-758 1191.08,-758"/>
<text text-anchor="start" x="1202.08" y="-779.2" font-family="Helvetica,sans-Serif" font-weight="bold" font-size="32.00" fill="#29235c">id</text>
<text text-anchor="start" x="1226.97" y="-779.2" font-family="Helvetica,sans-Serif" font-size="32.00" fill="#29235c"> &#160;&#160;&#160;</text>
<text text-anchor="start" x="1510.29" y="-779.2" font-family="Helvetica,sans-Serif" font-style="italic" font-size="32.00" fill="#29235c">int</text>
<polygon fill="#e7e2dd" stroke="transparent" points="1191.08,-698 1191.08,-758 1555.08,-758 1555.08,-698 1191.08,-698"/>
<polygon fill="none" stroke="#29235c" points="1191.08,-698 1191.08,-758 1555.08,-758 1555.08,-698 1191.08,-698"/>
<text text-anchor="start" x="1202.08" y="-718.2" font-family="Helvetica,sans-Serif" font-size="32.00" fill="#29235c">name &#160;&#160;&#160;</text>
<text text-anchor="start" x="1398.31" y="-719.2" font-family="Helvetica,sans-Serif" font-style="italic" font-size="32.00" fill="#29235c">varchar</text>
<text text-anchor="start" x="1504.99" y="-719.2" font-family="Helvetica,sans-Serif" font-size="32.00" fill="#29235c"> </text>
<text text-anchor="start" x="1513.88" y="-719.2" font-family="Helvetica,sans-Serif" font-weight="bold" font-size="32.00" fill="#29235c">(!)</text>
<polygon fill="#e7e2dd" stroke="transparent" points="1191.08,-638 1191.08,-698 1555.08,-698 1555.08,-638 1191.08,-638"/>
<polygon fill="none" stroke="#29235c" points="1191.08,-638 1191.08,-698 1555.08,-698 1555.08,-638 1191.08,-638"/>
<text text-anchor="start" x="1202.08" y="-658.2" font-family="Helvetica,sans-Serif" font-size="32.00" fill="#29235c">created_at &#160;&#160;&#160;</text>
<text text-anchor="start" x="1396.52" y="-659.2" font-family="Helvetica,sans-Serif" font-style="italic" font-size="32.00" fill="#29235c">timestamp</text>
<polygon fill="#e7e2dd" stroke="transparent" points="1191.08,-578 1191.08,-638 1555.08,-638 1555.08,-578 1191.08,-578"/>
<polygon fill="none" stroke="#29235c" points="1191.08,-578 1191.08,-638 1555.08,-638 1555.08,-578 1191.08,-578"/>
<text text-anchor="start" x="1201.74" y="-598.2" font-family="Helvetica,sans-Serif" font-size="32.00" fill="#29235c">updated_at &#160;&#160;&#160;</text>
<text text-anchor="start" x="1396.8" y="-599.2" font-family="Helvetica,sans-Serif" font-style="italic" font-size="32.00" fill="#29235c">timestamp</text>
<polygon fill="none" stroke="#29235c" stroke-width="2" points="1190.08,-577 1190.08,-879 1556.08,-879 1556.08,-577 1190.08,-577"/>
</g>
<!-- positions&#45;&gt;departments -->
<!-- positions&#45;&gt;departments -->
<g id="edge2" class="edge">
<title>positions:e&#45;&gt;departments:w</title>
<path fill="none" stroke="#29235c" stroke-width="3" d="M999.65,-728C1084.92,-728 1100.21,-783.41 1180.02,-787.74"/>
<polygon fill="#29235c" stroke="#29235c" stroke-width="3" points="1179.99,-791.24 1190.08,-788 1180.17,-784.24 1179.99,-791.24"/>
<text text-anchor="middle" x="1181.18" y="-797.6" font-family="Helvetica,sans-Serif" font-size="32.00" fill="#29235c">1</text>
<text text-anchor="middle" x="1005.87" y="-737.6" font-family="Helvetica,sans-Serif" font-size="32.00" fill="#29235c">*</text>
</g>
<!-- titles -->
<g id="titles" class="node">
<title>titles</title>
<ellipse fill="none" stroke="black" stroke-width="0" cx="260.22" cy="-638" rx="260.43" ry="342.48"/>
<polygon fill="#1d71b8" stroke="transparent" points="78.22,-818 78.22,-878 442.22,-878 442.22,-818 78.22,-818"/>
<polygon fill="none" stroke="#29235c" points="78.22,-818 78.22,-878 442.22,-878 442.22,-818 78.22,-818"/>
<text text-anchor="start" x="165.08" y="-839.2" font-family="Helvetica,sans-Serif" font-weight="bold" font-size="32.00" fill="#ffffff"> &#160;&#160;&#160;&#160;&#160;&#160;titles &#160;&#160;&#160;&#160;&#160;&#160;</text>
<polygon fill="#e7e2dd" stroke="transparent" points="78.22,-758 78.22,-818 442.22,-818 442.22,-758 78.22,-758"/>
<polygon fill="none" stroke="#29235c" points="78.22,-758 78.22,-818 442.22,-818 442.22,-758 78.22,-758"/>
<text text-anchor="start" x="89.22" y="-779.2" font-family="Helvetica,sans-Serif" font-weight="bold" font-size="32.00" fill="#29235c">id</text>
<text text-anchor="start" x="114.1" y="-779.2" font-family="Helvetica,sans-Serif" font-size="32.00" fill="#29235c"> &#160;&#160;&#160;</text>
<text text-anchor="start" x="397.43" y="-779.2" font-family="Helvetica,sans-Serif" font-style="italic" font-size="32.00" fill="#29235c">int</text>
<polygon fill="#e7e2dd" stroke="transparent" points="78.22,-698 78.22,-758 442.22,-758 442.22,-698 78.22,-698"/>
<polygon fill="none" stroke="#29235c" points="78.22,-698 78.22,-758 442.22,-758 442.22,-698 78.22,-698"/>
<text text-anchor="start" x="89.22" y="-718.2" font-family="Helvetica,sans-Serif" font-size="32.00" fill="#29235c">name &#160;&#160;&#160;</text>
<text text-anchor="start" x="285.45" y="-719.2" font-family="Helvetica,sans-Serif" font-style="italic" font-size="32.00" fill="#29235c">varchar</text>
<text text-anchor="start" x="392.12" y="-719.2" font-family="Helvetica,sans-Serif" font-size="32.00" fill="#29235c"> </text>
<text text-anchor="start" x="401.02" y="-719.2" font-family="Helvetica,sans-Serif" font-weight="bold" font-size="32.00" fill="#29235c">(!)</text>
<polygon fill="#e7e2dd" stroke="transparent" points="78.22,-638 78.22,-698 442.22,-698 442.22,-638 78.22,-638"/>
<polygon fill="none" stroke="#29235c" points="78.22,-638 78.22,-698 442.22,-698 442.22,-638 78.22,-638"/>
<text text-anchor="start" x="89.22" y="-658.2" font-family="Helvetica,sans-Serif" font-size="32.00" fill="#29235c">department_id &#160;&#160;&#160;</text>
<text text-anchor="start" x="397.43" y="-659.2" font-family="Helvetica,sans-Serif" font-style="italic" font-size="32.00" fill="#29235c">int</text>
<polygon fill="#e7e2dd" stroke="transparent" points="78.22,-578 78.22,-638 442.22,-638 442.22,-578 78.22,-578"/>
<polygon fill="none" stroke="#29235c" points="78.22,-578 78.22,-638 442.22,-638 442.22,-578 78.22,-578"/>
<text text-anchor="start" x="89.22" y="-598.2" font-family="Helvetica,sans-Serif" font-size="32.00" fill="#29235c">position_id &#160;&#160;&#160;</text>
<text text-anchor="start" x="397.43" y="-599.2" font-family="Helvetica,sans-Serif" font-style="italic" font-size="32.00" fill="#29235c">int</text>
<polygon fill="#e7e2dd" stroke="transparent" points="78.22,-518 78.22,-578 442.22,-578 442.22,-518 78.22,-518"/>
<polygon fill="none" stroke="#29235c" points="78.22,-518 78.22,-578 442.22,-578 442.22,-518 78.22,-518"/>
<text text-anchor="start" x="89.22" y="-538.2" font-family="Helvetica,sans-Serif" font-size="32.00" fill="#29235c">level_id &#160;&#160;&#160;</text>
<text text-anchor="start" x="397.43" y="-539.2" font-family="Helvetica,sans-Serif" font-style="italic" font-size="32.00" fill="#29235c">int</text>
<polygon fill="#e7e2dd" stroke="transparent" points="78.22,-458 78.22,-518 442.22,-518 442.22,-458 78.22,-458"/>
<polygon fill="none" stroke="#29235c" points="78.22,-458 78.22,-518 442.22,-518 442.22,-458 78.22,-458"/>
<text text-anchor="start" x="89.22" y="-478.2" font-family="Helvetica,sans-Serif" font-size="32.00" fill="#29235c">created_at &#160;&#160;&#160;</text>
<text text-anchor="start" x="283.66" y="-479.2" font-family="Helvetica,sans-Serif" font-style="italic" font-size="32.00" fill="#29235c">timestamp</text>
<polygon fill="#e7e2dd" stroke="transparent" points="78.22,-398 78.22,-458 442.22,-458 442.22,-398 78.22,-398"/>
<polygon fill="none" stroke="#29235c" points="78.22,-398 78.22,-458 442.22,-458 442.22,-398 78.22,-398"/>
<text text-anchor="start" x="88.88" y="-418.2" font-family="Helvetica,sans-Serif" font-size="32.00" fill="#29235c">updated_at &#160;&#160;&#160;</text>
<text text-anchor="start" x="283.94" y="-419.2" font-family="Helvetica,sans-Serif" font-style="italic" font-size="32.00" fill="#29235c">timestamp</text>
<polygon fill="none" stroke="#29235c" stroke-width="2" points="77.22,-397 77.22,-879 443.22,-879 443.22,-397 77.22,-397"/>
</g>
<!-- titles&#45;&gt;levels -->
<!-- titles&#45;&gt;levels -->
<g id="edge8" class="edge">
<title>titles:e&#45;&gt;levels:w</title>
<path fill="none" stroke="#29235c" stroke-width="3" d="M443.22,-548C565,-548 511.57,-351.62 623.44,-340.5"/>
<polygon fill="#29235c" stroke="#29235c" stroke-width="3" points="623.83,-343.98 633.65,-340 623.49,-336.99 623.83,-343.98"/>
<text text-anchor="middle" x="624.75" y="-349.6" font-family="Helvetica,sans-Serif" font-size="32.00" fill="#29235c">1</text>
<text text-anchor="middle" x="436.99" y="-557.6" font-family="Helvetica,sans-Serif" font-size="32.00" fill="#29235c">*</text>
</g>
<!-- titles&#45;&gt;positions -->
<!-- titles&#45;&gt;positions -->
<g id="edge6" class="edge">
<title>titles:e&#45;&gt;positions:w</title>
<path fill="none" stroke="#29235c" stroke-width="3" d="M443.22,-608C556.15,-608 519.61,-777.27 623.5,-787.52"/>
<polygon fill="#29235c" stroke="#29235c" stroke-width="3" points="623.49,-791.02 633.65,-788 623.82,-784.03 623.49,-791.02"/>
<text text-anchor="middle" x="624.75" y="-797.6" font-family="Helvetica,sans-Serif" font-size="32.00" fill="#29235c">1</text>
<text text-anchor="middle" x="436.99" y="-617.6" font-family="Helvetica,sans-Serif" font-size="32.00" fill="#29235c">*</text>
</g>
<!-- titles&#45;&gt;departments -->
<!-- titles&#45;&gt;departments -->
<g id="edge4" class="edge">
<title>titles:e&#45;&gt;departments:w</title>
<path fill="none" stroke="#29235c" stroke-width="3" d="M443.22,-668C719.83,-668 343.79,-232.92 556.43,-56 645.34,17.96 989.06,19.26 1076.86,-56 1199.15,-160.83 1032.91,-761.39 1179.93,-787.15"/>
<polygon fill="#29235c" stroke="#29235c" stroke-width="3" points="1179.82,-790.65 1190.08,-788 1180.41,-783.68 1179.82,-790.65"/>
<text text-anchor="middle" x="1198.97" y="-797.6" font-family="Helvetica,sans-Serif" font-size="32.00" fill="#29235c">1</text>
<text text-anchor="middle" x="436.99" y="-677.6" font-family="Helvetica,sans-Serif" font-size="32.00" fill="#29235c">*</text>
</g>
</g>
</svg>
