<?xml version="1.0" encoding="UTF-8" standalone="no"?>
<!DOCTYPE svg PUBLIC "-//W3C//DTD SVG 1.1//EN"
 "http://www.w3.org/Graphics/SVG/1.1/DTD/svg11.dtd">
<!-- Generated by graphviz version 2.47.0 (20210316.0004)
 -->
<!-- Title: dbml Pages: 1 -->
<svg width="1095pt" height="2013pt"
 viewBox="0.00 0.00 1094.76 2012.77" xmlns="http://www.w3.org/2000/svg" xmlns:xlink="http://www.w3.org/1999/xlink">
<g id="graph0" class="graph" transform="scale(1 1) rotate(0) translate(4 2008.77)">
<title>dbml</title>
<!-- projects -->
<g id="projects" class="node">
<title>projects</title>
<ellipse fill="none" stroke="black" stroke-width="0" cx="768.56" cy="-342.24" rx="260.43" ry="342.48"/>
<polygon fill="#1d71b8" stroke="transparent" points="586.56,-522.24 586.56,-582.24 950.56,-582.24 950.56,-522.24 586.56,-522.24"/>
<polygon fill="none" stroke="#29235c" points="586.56,-522.24 586.56,-582.24 950.56,-582.24 950.56,-522.24 586.56,-522.24"/>
<text text-anchor="start" x="650.31" y="-543.44" font-family="Helvetica,sans-Serif" font-weight="bold" font-size="32.00" fill="#ffffff"> &#160;&#160;&#160;&#160;&#160;&#160;projects &#160;&#160;&#160;&#160;&#160;&#160;</text>
<polygon fill="#e7e2dd" stroke="transparent" points="586.56,-462.24 586.56,-522.24 950.56,-522.24 950.56,-462.24 586.56,-462.24"/>
<polygon fill="none" stroke="#29235c" points="586.56,-462.24 586.56,-522.24 950.56,-522.24 950.56,-462.24 586.56,-462.24"/>
<text text-anchor="start" x="597.56" y="-483.44" font-family="Helvetica,sans-Serif" font-weight="bold" font-size="32.00" fill="#29235c">id</text>
<text text-anchor="start" x="622.45" y="-483.44" font-family="Helvetica,sans-Serif" font-size="32.00" fill="#29235c"> &#160;&#160;&#160;</text>
<text text-anchor="start" x="905.78" y="-483.44" font-family="Helvetica,sans-Serif" font-style="italic" font-size="32.00" fill="#29235c">int</text>
<polygon fill="#e7e2dd" stroke="transparent" points="586.56,-402.24 586.56,-462.24 950.56,-462.24 950.56,-402.24 586.56,-402.24"/>
<polygon fill="none" stroke="#29235c" points="586.56,-402.24 586.56,-462.24 950.56,-462.24 950.56,-402.24 586.56,-402.24"/>
<text text-anchor="start" x="597.56" y="-422.44" font-family="Helvetica,sans-Serif" font-size="32.00" fill="#29235c">nama &#160;&#160;&#160;</text>
<text text-anchor="start" x="793.8" y="-423.44" font-family="Helvetica,sans-Serif" font-style="italic" font-size="32.00" fill="#29235c">varchar</text>
<text text-anchor="start" x="900.47" y="-423.44" font-family="Helvetica,sans-Serif" font-size="32.00" fill="#29235c"> </text>
<text text-anchor="start" x="909.36" y="-423.44" font-family="Helvetica,sans-Serif" font-weight="bold" font-size="32.00" fill="#29235c">(!)</text>
<polygon fill="#e7e2dd" stroke="transparent" points="586.56,-342.24 586.56,-402.24 950.56,-402.24 950.56,-342.24 586.56,-342.24"/>
<polygon fill="none" stroke="#29235c" points="586.56,-342.24 586.56,-402.24 950.56,-402.24 950.56,-342.24 586.56,-342.24"/>
<text text-anchor="start" x="597.56" y="-362.44" font-family="Helvetica,sans-Serif" font-size="32.00" fill="#29235c">deskripsi &#160;&#160;&#160;</text>
<text text-anchor="start" x="887.99" y="-363.44" font-family="Helvetica,sans-Serif" font-style="italic" font-size="32.00" fill="#29235c">text</text>
<polygon fill="#e7e2dd" stroke="transparent" points="586.56,-282.24 586.56,-342.24 950.56,-342.24 950.56,-282.24 586.56,-282.24"/>
<polygon fill="none" stroke="#29235c" points="586.56,-282.24 586.56,-342.24 950.56,-342.24 950.56,-282.24 586.56,-282.24"/>
<text text-anchor="start" x="597.56" y="-302.44" font-family="Helvetica,sans-Serif" font-size="32.00" fill="#29235c">tanggal_mulai &#160;&#160;&#160;</text>
<text text-anchor="start" x="877.3" y="-303.44" font-family="Helvetica,sans-Serif" font-style="italic" font-size="32.00" fill="#29235c">date</text>
<polygon fill="#e7e2dd" stroke="transparent" points="586.56,-222.24 586.56,-282.24 950.56,-282.24 950.56,-222.24 586.56,-222.24"/>
<polygon fill="none" stroke="#29235c" points="586.56,-222.24 586.56,-282.24 950.56,-282.24 950.56,-222.24 586.56,-222.24"/>
<text text-anchor="start" x="597.56" y="-242.44" font-family="Helvetica,sans-Serif" font-size="32.00" fill="#29235c">tanggal_selesai &#160;&#160;&#160;</text>
<text text-anchor="start" x="877.3" y="-243.44" font-family="Helvetica,sans-Serif" font-style="italic" font-size="32.00" fill="#29235c">date</text>
<polygon fill="#e7e2dd" stroke="transparent" points="586.56,-162.24 586.56,-222.24 950.56,-222.24 950.56,-162.24 586.56,-162.24"/>
<polygon fill="none" stroke="#29235c" points="586.56,-162.24 586.56,-222.24 950.56,-222.24 950.56,-162.24 586.56,-162.24"/>
<text text-anchor="start" x="597.56" y="-182.44" font-family="Helvetica,sans-Serif" font-size="32.00" fill="#29235c">created_at &#160;&#160;&#160;</text>
<text text-anchor="start" x="792" y="-183.44" font-family="Helvetica,sans-Serif" font-style="italic" font-size="32.00" fill="#29235c">timestamp</text>
<polygon fill="#e7e2dd" stroke="transparent" points="586.56,-102.24 586.56,-162.24 950.56,-162.24 950.56,-102.24 586.56,-102.24"/>
<polygon fill="none" stroke="#29235c" points="586.56,-102.24 586.56,-162.24 950.56,-162.24 950.56,-102.24 586.56,-102.24"/>
<text text-anchor="start" x="597.23" y="-122.44" font-family="Helvetica,sans-Serif" font-size="32.00" fill="#29235c">updated_at &#160;&#160;&#160;</text>
<text text-anchor="start" x="792.28" y="-123.44" font-family="Helvetica,sans-Serif" font-style="italic" font-size="32.00" fill="#29235c">timestamp</text>
<polygon fill="none" stroke="#29235c" stroke-width="2" points="585.56,-101.24 585.56,-583.24 951.56,-583.24 951.56,-101.24 585.56,-101.24"/>
</g>
<!-- users -->
<g id="users" class="node">
<title>users</title>
<ellipse fill="none" stroke="black" stroke-width="0" cx="768.56" cy="-1172.24" rx="318.4" ry="469.54"/>
<polygon fill="#1d71b8" stroke="transparent" points="545.56,-1442.24 545.56,-1502.24 991.56,-1502.24 991.56,-1442.24 545.56,-1442.24"/>
<polygon fill="none" stroke="#29235c" points="545.56,-1442.24 545.56,-1502.24 991.56,-1502.24 991.56,-1442.24 545.56,-1442.24"/>
<text text-anchor="start" x="667.2" y="-1463.44" font-family="Helvetica,sans-Serif" font-weight="bold" font-size="32.00" fill="#ffffff"> &#160;&#160;&#160;&#160;&#160;&#160;users &#160;&#160;&#160;&#160;&#160;&#160;</text>
<polygon fill="#e7e2dd" stroke="transparent" points="545.56,-1382.24 545.56,-1442.24 991.56,-1442.24 991.56,-1382.24 545.56,-1382.24"/>
<polygon fill="none" stroke="#29235c" points="545.56,-1382.24 545.56,-1442.24 991.56,-1442.24 991.56,-1382.24 545.56,-1382.24"/>
<text text-anchor="start" x="556.56" y="-1403.44" font-family="Helvetica,sans-Serif" font-weight="bold" font-size="32.00" fill="#29235c">id</text>
<text text-anchor="start" x="581.45" y="-1403.44" font-family="Helvetica,sans-Serif" font-size="32.00" fill="#29235c"> &#160;&#160;&#160;</text>
<text text-anchor="start" x="946.78" y="-1403.44" font-family="Helvetica,sans-Serif" font-style="italic" font-size="32.00" fill="#29235c">int</text>
<polygon fill="#e7e2dd" stroke="transparent" points="545.56,-1322.24 545.56,-1382.24 991.56,-1382.24 991.56,-1322.24 545.56,-1322.24"/>
<polygon fill="none" stroke="#29235c" points="545.56,-1322.24 545.56,-1382.24 991.56,-1382.24 991.56,-1322.24 545.56,-1322.24"/>
<text text-anchor="start" x="556.56" y="-1342.44" font-family="Helvetica,sans-Serif" font-size="32.00" fill="#29235c">name &#160;&#160;&#160;</text>
<text text-anchor="start" x="834.8" y="-1343.44" font-family="Helvetica,sans-Serif" font-style="italic" font-size="32.00" fill="#29235c">varchar</text>
<text text-anchor="start" x="941.47" y="-1343.44" font-family="Helvetica,sans-Serif" font-size="32.00" fill="#29235c"> </text>
<text text-anchor="start" x="950.36" y="-1343.44" font-family="Helvetica,sans-Serif" font-weight="bold" font-size="32.00" fill="#29235c">(!)</text>
<polygon fill="#e7e2dd" stroke="transparent" points="545.56,-1262.24 545.56,-1322.24 991.56,-1322.24 991.56,-1262.24 545.56,-1262.24"/>
<polygon fill="none" stroke="#29235c" points="545.56,-1262.24 545.56,-1322.24 991.56,-1322.24 991.56,-1262.24 545.56,-1262.24"/>
<text text-anchor="start" x="556.56" y="-1282.44" font-family="Helvetica,sans-Serif" font-size="32.00" fill="#29235c">email &#160;&#160;&#160;</text>
<text text-anchor="start" x="834.8" y="-1283.44" font-family="Helvetica,sans-Serif" font-style="italic" font-size="32.00" fill="#29235c">varchar</text>
<text text-anchor="start" x="941.47" y="-1283.44" font-family="Helvetica,sans-Serif" font-size="32.00" fill="#29235c"> </text>
<text text-anchor="start" x="950.36" y="-1283.44" font-family="Helvetica,sans-Serif" font-weight="bold" font-size="32.00" fill="#29235c">(!)</text>
<polygon fill="#e7e2dd" stroke="transparent" points="545.56,-1202.24 545.56,-1262.24 991.56,-1262.24 991.56,-1202.24 545.56,-1202.24"/>
<polygon fill="none" stroke="#29235c" points="545.56,-1202.24 545.56,-1262.24 991.56,-1262.24 991.56,-1202.24 545.56,-1202.24"/>
<text text-anchor="start" x="556.37" y="-1222.44" font-family="Helvetica,sans-Serif" font-size="32.00" fill="#29235c">email_verified_at &#160;&#160;&#160;</text>
<text text-anchor="start" x="833.28" y="-1223.44" font-family="Helvetica,sans-Serif" font-style="italic" font-size="32.00" fill="#29235c">timestamp</text>
<polygon fill="#e7e2dd" stroke="transparent" points="545.56,-1142.24 545.56,-1202.24 991.56,-1202.24 991.56,-1142.24 545.56,-1142.24"/>
<polygon fill="none" stroke="#29235c" points="545.56,-1142.24 545.56,-1202.24 991.56,-1202.24 991.56,-1142.24 545.56,-1142.24"/>
<text text-anchor="start" x="556.56" y="-1162.44" font-family="Helvetica,sans-Serif" font-size="32.00" fill="#29235c">password &#160;&#160;&#160;</text>
<text text-anchor="start" x="834.8" y="-1163.44" font-family="Helvetica,sans-Serif" font-style="italic" font-size="32.00" fill="#29235c">varchar</text>
<text text-anchor="start" x="941.47" y="-1163.44" font-family="Helvetica,sans-Serif" font-size="32.00" fill="#29235c"> </text>
<text text-anchor="start" x="950.36" y="-1163.44" font-family="Helvetica,sans-Serif" font-weight="bold" font-size="32.00" fill="#29235c">(!)</text>
<polygon fill="#e7e2dd" stroke="transparent" points="545.56,-1082.24 545.56,-1142.24 991.56,-1142.24 991.56,-1082.24 545.56,-1082.24"/>
<polygon fill="none" stroke="#29235c" points="545.56,-1082.24 545.56,-1142.24 991.56,-1142.24 991.56,-1082.24 545.56,-1082.24"/>
<text text-anchor="start" x="556.56" y="-1102.44" font-family="Helvetica,sans-Serif" font-size="32.00" fill="#29235c">remember_token &#160;&#160;&#160;</text>
<text text-anchor="start" x="873.89" y="-1103.44" font-family="Helvetica,sans-Serif" font-style="italic" font-size="32.00" fill="#29235c">varchar</text>
<polygon fill="#e7e2dd" stroke="transparent" points="545.56,-1022.24 545.56,-1082.24 991.56,-1082.24 991.56,-1022.24 545.56,-1022.24"/>
<polygon fill="none" stroke="#29235c" points="545.56,-1022.24 545.56,-1082.24 991.56,-1082.24 991.56,-1022.24 545.56,-1022.24"/>
<text text-anchor="start" x="556.56" y="-1042.44" font-family="Helvetica,sans-Serif" font-size="32.00" fill="#29235c">custom_fields &#160;&#160;&#160;</text>
<text text-anchor="start" x="921.88" y="-1043.44" font-family="Helvetica,sans-Serif" font-style="italic" font-size="32.00" fill="#29235c">json</text>
<polygon fill="#e7e2dd" stroke="transparent" points="545.56,-962.24 545.56,-1022.24 991.56,-1022.24 991.56,-962.24 545.56,-962.24"/>
<polygon fill="none" stroke="#29235c" points="545.56,-962.24 545.56,-1022.24 991.56,-1022.24 991.56,-962.24 545.56,-962.24"/>
<text text-anchor="start" x="556.56" y="-982.44" font-family="Helvetica,sans-Serif" font-size="32.00" fill="#29235c">avatar_url &#160;&#160;&#160;</text>
<text text-anchor="start" x="873.89" y="-983.44" font-family="Helvetica,sans-Serif" font-style="italic" font-size="32.00" fill="#29235c">varchar</text>
<polygon fill="#e7e2dd" stroke="transparent" points="545.56,-902.24 545.56,-962.24 991.56,-962.24 991.56,-902.24 545.56,-902.24"/>
<polygon fill="none" stroke="#29235c" points="545.56,-902.24 545.56,-962.24 991.56,-962.24 991.56,-902.24 545.56,-902.24"/>
<text text-anchor="start" x="556.56" y="-922.44" font-family="Helvetica,sans-Serif" font-size="32.00" fill="#29235c">created_at &#160;&#160;&#160;</text>
<text text-anchor="start" x="833" y="-923.44" font-family="Helvetica,sans-Serif" font-style="italic" font-size="32.00" fill="#29235c">timestamp</text>
<polygon fill="#e7e2dd" stroke="transparent" points="545.56,-842.24 545.56,-902.24 991.56,-902.24 991.56,-842.24 545.56,-842.24"/>
<polygon fill="none" stroke="#29235c" points="545.56,-842.24 545.56,-902.24 991.56,-902.24 991.56,-842.24 545.56,-842.24"/>
<text text-anchor="start" x="556.56" y="-862.44" font-family="Helvetica,sans-Serif" font-size="32.00" fill="#29235c">updated_at &#160;&#160;&#160;</text>
<text text-anchor="start" x="833" y="-863.44" font-family="Helvetica,sans-Serif" font-style="italic" font-size="32.00" fill="#29235c">timestamp</text>
<polygon fill="none" stroke="#29235c" stroke-width="2" points="544.56,-841.24 544.56,-1503.24 992.56,-1503.24 992.56,-841.24 544.56,-841.24"/>
</g>
<!-- statuses -->
<g id="statuses" class="node">
<title>statuses</title>
<ellipse fill="none" stroke="black" stroke-width="0" cx="768.56" cy="-1832.24" rx="207.36" ry="172.57"/>
<polygon fill="#1d71b8" stroke="transparent" points="624.56,-1892.24 624.56,-1952.24 913.56,-1952.24 913.56,-1892.24 624.56,-1892.24"/>
<polygon fill="none" stroke="#29235c" points="624.56,-1892.24 624.56,-1952.24 913.56,-1952.24 913.56,-1892.24 624.56,-1892.24"/>
<text text-anchor="start" x="647.24" y="-1913.44" font-family="Helvetica,sans-Serif" font-weight="bold" font-size="32.00" fill="#ffffff"> &#160;&#160;&#160;&#160;&#160;&#160;statuses &#160;&#160;&#160;&#160;&#160;&#160;</text>
<polygon fill="#e7e2dd" stroke="transparent" points="624.56,-1832.24 624.56,-1892.24 913.56,-1892.24 913.56,-1832.24 624.56,-1832.24"/>
<polygon fill="none" stroke="#29235c" points="624.56,-1832.24 624.56,-1892.24 913.56,-1892.24 913.56,-1832.24 624.56,-1832.24"/>
<text text-anchor="start" x="635.56" y="-1853.44" font-family="Helvetica,sans-Serif" font-weight="bold" font-size="32.00" fill="#29235c">id</text>
<text text-anchor="start" x="660.45" y="-1853.44" font-family="Helvetica,sans-Serif" font-size="32.00" fill="#29235c"> &#160;&#160;&#160;</text>
<text text-anchor="start" x="868.78" y="-1853.44" font-family="Helvetica,sans-Serif" font-style="italic" font-size="32.00" fill="#29235c">int</text>
<polygon fill="#e7e2dd" stroke="transparent" points="624.56,-1772.24 624.56,-1832.24 913.56,-1832.24 913.56,-1772.24 624.56,-1772.24"/>
<polygon fill="none" stroke="#29235c" points="624.56,-1772.24 624.56,-1832.24 913.56,-1832.24 913.56,-1772.24 624.56,-1772.24"/>
<text text-anchor="start" x="635.56" y="-1792.44" font-family="Helvetica,sans-Serif" font-size="32.00" fill="#29235c">nama &#160;&#160;&#160;</text>
<text text-anchor="start" x="795.89" y="-1793.44" font-family="Helvetica,sans-Serif" font-style="italic" font-size="32.00" fill="#29235c">varchar</text>
<polygon fill="#e7e2dd" stroke="transparent" points="624.56,-1712.24 624.56,-1772.24 913.56,-1772.24 913.56,-1712.24 624.56,-1712.24"/>
<polygon fill="none" stroke="#29235c" points="624.56,-1712.24 624.56,-1772.24 913.56,-1772.24 913.56,-1712.24 624.56,-1712.24"/>
<text text-anchor="start" x="635.17" y="-1732.44" font-family="Helvetica,sans-Serif" font-size="32.00" fill="#29235c">deskripsi &#160;&#160;&#160;</text>
<text text-anchor="start" x="796.23" y="-1733.44" font-family="Helvetica,sans-Serif" font-style="italic" font-size="32.00" fill="#29235c">varchar</text>
<polygon fill="none" stroke="#29235c" stroke-width="2" points="623.06,-1711.24 623.06,-1953.24 914.06,-1953.24 914.06,-1711.24 623.06,-1711.24"/>
</g>
<!-- tugas -->
<g id="tugas" class="node">
<title>tugas</title>
<ellipse fill="none" stroke="black" stroke-width="0" cx="207.18" cy="-1202.24" rx="207.36" ry="427.19"/>
<polygon fill="#1d71b8" stroke="transparent" points="63.18,-1442.24 63.18,-1502.24 352.18,-1502.24 352.18,-1442.24 63.18,-1442.24"/>
<polygon fill="none" stroke="#29235c" points="63.18,-1442.24 63.18,-1502.24 352.18,-1502.24 352.18,-1442.24 63.18,-1442.24"/>
<text text-anchor="start" x="106.3" y="-1463.44" font-family="Helvetica,sans-Serif" font-weight="bold" font-size="32.00" fill="#ffffff"> &#160;&#160;&#160;&#160;&#160;&#160;tugas &#160;&#160;&#160;&#160;&#160;&#160;</text>
<polygon fill="#e7e2dd" stroke="transparent" points="63.18,-1382.24 63.18,-1442.24 352.18,-1442.24 352.18,-1382.24 63.18,-1382.24"/>
<polygon fill="none" stroke="#29235c" points="63.18,-1382.24 63.18,-1442.24 352.18,-1442.24 352.18,-1382.24 63.18,-1382.24"/>
<text text-anchor="start" x="74.18" y="-1403.44" font-family="Helvetica,sans-Serif" font-weight="bold" font-size="32.00" fill="#29235c">id</text>
<text text-anchor="start" x="99.07" y="-1403.44" font-family="Helvetica,sans-Serif" font-size="32.00" fill="#29235c"> &#160;&#160;&#160;</text>
<text text-anchor="start" x="307.4" y="-1403.44" font-family="Helvetica,sans-Serif" font-style="italic" font-size="32.00" fill="#29235c">int</text>
<polygon fill="#e7e2dd" stroke="transparent" points="63.18,-1322.24 63.18,-1382.24 352.18,-1382.24 352.18,-1322.24 63.18,-1322.24"/>
<polygon fill="none" stroke="#29235c" points="63.18,-1322.24 63.18,-1382.24 352.18,-1382.24 352.18,-1322.24 63.18,-1322.24"/>
<text text-anchor="start" x="74.18" y="-1342.44" font-family="Helvetica,sans-Serif" font-size="32.00" fill="#29235c">status_id &#160;&#160;&#160;</text>
<text text-anchor="start" x="307.4" y="-1343.44" font-family="Helvetica,sans-Serif" font-style="italic" font-size="32.00" fill="#29235c">int</text>
<polygon fill="#e7e2dd" stroke="transparent" points="63.18,-1262.24 63.18,-1322.24 352.18,-1322.24 352.18,-1262.24 63.18,-1262.24"/>
<polygon fill="none" stroke="#29235c" points="63.18,-1262.24 63.18,-1322.24 352.18,-1322.24 352.18,-1262.24 63.18,-1262.24"/>
<text text-anchor="start" x="74.18" y="-1282.44" font-family="Helvetica,sans-Serif" font-size="32.00" fill="#29235c">user_id &#160;&#160;&#160;</text>
<text text-anchor="start" x="307.4" y="-1283.44" font-family="Helvetica,sans-Serif" font-style="italic" font-size="32.00" fill="#29235c">int</text>
<polygon fill="#e7e2dd" stroke="transparent" points="63.18,-1202.24 63.18,-1262.24 352.18,-1262.24 352.18,-1202.24 63.18,-1202.24"/>
<polygon fill="none" stroke="#29235c" points="63.18,-1202.24 63.18,-1262.24 352.18,-1262.24 352.18,-1202.24 63.18,-1202.24"/>
<text text-anchor="start" x="74.18" y="-1222.44" font-family="Helvetica,sans-Serif" font-size="32.00" fill="#29235c">dibuat_oleh &#160;&#160;&#160;</text>
<text text-anchor="start" x="307.4" y="-1223.44" font-family="Helvetica,sans-Serif" font-style="italic" font-size="32.00" fill="#29235c">int</text>
<polygon fill="#e7e2dd" stroke="transparent" points="63.18,-1142.24 63.18,-1202.24 352.18,-1202.24 352.18,-1142.24 63.18,-1142.24"/>
<polygon fill="none" stroke="#29235c" points="63.18,-1142.24 63.18,-1202.24 352.18,-1202.24 352.18,-1142.24 63.18,-1142.24"/>
<text text-anchor="start" x="74.18" y="-1162.44" font-family="Helvetica,sans-Serif" font-size="32.00" fill="#29235c">project_id &#160;&#160;&#160;</text>
<text text-anchor="start" x="307.4" y="-1163.44" font-family="Helvetica,sans-Serif" font-style="italic" font-size="32.00" fill="#29235c">int</text>
<polygon fill="#e7e2dd" stroke="transparent" points="63.18,-1082.24 63.18,-1142.24 352.18,-1142.24 352.18,-1082.24 63.18,-1082.24"/>
<polygon fill="none" stroke="#29235c" points="63.18,-1082.24 63.18,-1142.24 352.18,-1142.24 352.18,-1082.24 63.18,-1082.24"/>
<text text-anchor="start" x="74.18" y="-1102.44" font-family="Helvetica,sans-Serif" font-size="32.00" fill="#29235c">nama &#160;&#160;&#160;</text>
<text text-anchor="start" x="234.51" y="-1103.44" font-family="Helvetica,sans-Serif" font-style="italic" font-size="32.00" fill="#29235c">varchar</text>
<polygon fill="#e7e2dd" stroke="transparent" points="63.18,-1022.24 63.18,-1082.24 352.18,-1082.24 352.18,-1022.24 63.18,-1022.24"/>
<polygon fill="none" stroke="#29235c" points="63.18,-1022.24 63.18,-1082.24 352.18,-1082.24 352.18,-1022.24 63.18,-1022.24"/>
<text text-anchor="start" x="74.18" y="-1042.44" font-family="Helvetica,sans-Serif" font-size="32.00" fill="#29235c">point &#160;&#160;&#160;</text>
<text text-anchor="start" x="307.4" y="-1043.44" font-family="Helvetica,sans-Serif" font-style="italic" font-size="32.00" fill="#29235c">int</text>
<polygon fill="#e7e2dd" stroke="transparent" points="63.18,-962.24 63.18,-1022.24 352.18,-1022.24 352.18,-962.24 63.18,-962.24"/>
<polygon fill="none" stroke="#29235c" points="63.18,-962.24 63.18,-1022.24 352.18,-1022.24 352.18,-962.24 63.18,-962.24"/>
<text text-anchor="start" x="73.79" y="-982.44" font-family="Helvetica,sans-Serif" font-size="32.00" fill="#29235c">deskripsi &#160;&#160;&#160;</text>
<text text-anchor="start" x="234.85" y="-983.44" font-family="Helvetica,sans-Serif" font-style="italic" font-size="32.00" fill="#29235c">varchar</text>
<polygon fill="#e7e2dd" stroke="transparent" points="63.18,-902.24 63.18,-962.24 352.18,-962.24 352.18,-902.24 63.18,-902.24"/>
<polygon fill="none" stroke="#29235c" points="63.18,-902.24 63.18,-962.24 352.18,-962.24 352.18,-902.24 63.18,-902.24"/>
<text text-anchor="start" x="74.18" y="-922.44" font-family="Helvetica,sans-Serif" font-size="32.00" fill="#29235c">prioritas &#160;&#160;&#160;</text>
<text text-anchor="start" x="227.42" y="-923.44" font-family="Helvetica,sans-Serif" font-style="italic" font-size="32.00" fill="#29235c">prioritas</text>
<polygon fill="none" stroke="#29235c" stroke-width="2" points="61.68,-901.24 61.68,-1503.24 352.68,-1503.24 352.68,-901.24 61.68,-901.24"/>
</g>
<!-- tugas&#45;&gt;projects -->
<!-- tugas&#45;&gt;projects -->
<g id="edge8" class="edge">
<title>tugas:e&#45;&gt;projects:w</title>
<path fill="none" stroke="#29235c" stroke-width="3" d="M353.18,-1172.24C461.8,-1172.24 408.45,-793.44 450.36,-693.24 490.57,-597.12 478.75,-498.79 575.53,-492.55"/>
<polygon fill="#29235c" stroke="#29235c" stroke-width="3" points="575.68,-496.05 585.56,-492.24 575.46,-489.05 575.68,-496.05"/>
<text text-anchor="middle" x="576.67" y="-463.44" font-family="Helvetica,sans-Serif" font-size="32.00" fill="#29235c">1</text>
<text text-anchor="middle" x="359.4" y="-1143.44" font-family="Helvetica,sans-Serif" font-size="32.00" fill="#29235c">*</text>
</g>
<!-- tugas&#45;&gt;users -->
<!-- tugas&#45;&gt;users -->
<g id="edge4" class="edge">
<title>tugas:e&#45;&gt;users:w</title>
<path fill="none" stroke="#29235c" stroke-width="3" d="M353.18,-1292.24C450.05,-1292.24 444.69,-1403.95 534.37,-1411.81"/>
<polygon fill="#29235c" stroke="#29235c" stroke-width="3" points="534.42,-1415.31 544.56,-1412.24 534.72,-1408.32 534.42,-1415.31"/>
<text text-anchor="middle" x="535.67" y="-1421.84" font-family="Helvetica,sans-Serif" font-size="32.00" fill="#29235c">1</text>
<text text-anchor="middle" x="359.4" y="-1301.84" font-family="Helvetica,sans-Serif" font-size="32.00" fill="#29235c">*</text>
</g>
<!-- tugas&#45;&gt;users -->
<!-- tugas&#45;&gt;users -->
<g id="edge6" class="edge">
<title>tugas:e&#45;&gt;users:w</title>
<path fill="none" stroke="#29235c" stroke-width="3" d="M353.18,-1232.24C466.42,-1232.24 430.2,-1401.51 534.39,-1411.75"/>
<polygon fill="#29235c" stroke="#29235c" stroke-width="3" points="534.41,-1415.26 544.56,-1412.24 534.74,-1408.27 534.41,-1415.26"/>
<text text-anchor="middle" x="535.67" y="-1383.44" font-family="Helvetica,sans-Serif" font-size="32.00" fill="#29235c">1</text>
<text text-anchor="middle" x="359.4" y="-1203.44" font-family="Helvetica,sans-Serif" font-size="32.00" fill="#29235c">*</text>
</g>
<!-- tugas&#45;&gt;statuses -->
<!-- tugas&#45;&gt;statuses -->
<g id="edge2" class="edge">
<title>tugas:e&#45;&gt;statuses:w</title>
<path fill="none" stroke="#29235c" stroke-width="3" d="M353.18,-1352.24C492.91,-1352.24 383.28,-1528.67 450.36,-1651.24 506.97,-1754.65 502.55,-1856.32 613.56,-1861.99"/>
<polygon fill="#29235c" stroke="#29235c" stroke-width="3" points="613.48,-1865.49 623.56,-1862.24 613.65,-1858.49 613.48,-1865.49"/>
<text text-anchor="middle" x="614.67" y="-1871.84" font-family="Helvetica,sans-Serif" font-size="32.00" fill="#29235c">1</text>
<text text-anchor="middle" x="359.4" y="-1361.84" font-family="Helvetica,sans-Serif" font-size="32.00" fill="#29235c">*</text>
</g>
</g>
</svg>
