<?xml version="1.0" encoding="UTF-8" standalone="no"?>
<!DOCTYPE svg PUBLIC "-//W3C//DTD SVG 1.1//EN"
 "http://www.w3.org/Graphics/SVG/1.1/DTD/svg11.dtd">
<!-- Generated by graphviz version 2.47.0 (20210316.0004)
 -->
<!-- Title: dbml Pages: 1 -->
<svg width="2314pt" height="1094pt"
 viewBox="0.00 0.00 2313.69 1093.91" xmlns="http://www.w3.org/2000/svg" xmlns:xlink="http://www.w3.org/1999/xlink">
<g id="graph0" class="graph" transform="scale(1 1) rotate(0) translate(4 1089.91)">
<title>dbml</title>
<!-- levels -->
<g id="levels" class="node">
<title>levels</title>
<ellipse fill="none" stroke="black" stroke-width="0" cx="1489.04" cy="-335.97" rx="260.43" ry="214.92"/>
<polygon fill="#1d71b8" stroke="transparent" points="1307.04,-425.97 1307.04,-485.97 1671.04,-485.97 1671.04,-425.97 1307.04,-425.97"/>
<polygon fill="none" stroke="#29235c" points="1307.04,-425.97 1307.04,-485.97 1671.04,-485.97 1671.04,-425.97 1307.04,-425.97"/>
<text text-anchor="start" x="1385.9" y="-447.17" font-family="Helvetica,sans-Serif" font-weight="bold" font-size="32.00" fill="#ffffff"> &#160;&#160;&#160;&#160;&#160;&#160;levels &#160;&#160;&#160;&#160;&#160;&#160;</text>
<polygon fill="#e7e2dd" stroke="transparent" points="1307.04,-365.97 1307.04,-425.97 1671.04,-425.97 1671.04,-365.97 1307.04,-365.97"/>
<polygon fill="none" stroke="#29235c" points="1307.04,-365.97 1307.04,-425.97 1671.04,-425.97 1671.04,-365.97 1307.04,-365.97"/>
<text text-anchor="start" x="1318.04" y="-387.17" font-family="Helvetica,sans-Serif" font-weight="bold" font-size="32.00" fill="#29235c">id</text>
<text text-anchor="start" x="1342.93" y="-387.17" font-family="Helvetica,sans-Serif" font-size="32.00" fill="#29235c"> &#160;&#160;&#160;</text>
<text text-anchor="start" x="1626.26" y="-387.17" font-family="Helvetica,sans-Serif" font-style="italic" font-size="32.00" fill="#29235c">int</text>
<polygon fill="#e7e2dd" stroke="transparent" points="1307.04,-305.97 1307.04,-365.97 1671.04,-365.97 1671.04,-305.97 1307.04,-305.97"/>
<polygon fill="none" stroke="#29235c" points="1307.04,-305.97 1307.04,-365.97 1671.04,-365.97 1671.04,-305.97 1307.04,-305.97"/>
<text text-anchor="start" x="1318.04" y="-326.17" font-family="Helvetica,sans-Serif" font-size="32.00" fill="#29235c">name &#160;&#160;&#160;</text>
<text text-anchor="start" x="1514.28" y="-327.17" font-family="Helvetica,sans-Serif" font-style="italic" font-size="32.00" fill="#29235c">varchar</text>
<text text-anchor="start" x="1620.95" y="-327.17" font-family="Helvetica,sans-Serif" font-size="32.00" fill="#29235c"> </text>
<text text-anchor="start" x="1629.84" y="-327.17" font-family="Helvetica,sans-Serif" font-weight="bold" font-size="32.00" fill="#29235c">(!)</text>
<polygon fill="#e7e2dd" stroke="transparent" points="1307.04,-245.97 1307.04,-305.97 1671.04,-305.97 1671.04,-245.97 1307.04,-245.97"/>
<polygon fill="none" stroke="#29235c" points="1307.04,-245.97 1307.04,-305.97 1671.04,-305.97 1671.04,-245.97 1307.04,-245.97"/>
<text text-anchor="start" x="1318.04" y="-266.17" font-family="Helvetica,sans-Serif" font-size="32.00" fill="#29235c">created_at &#160;&#160;&#160;</text>
<text text-anchor="start" x="1512.48" y="-267.17" font-family="Helvetica,sans-Serif" font-style="italic" font-size="32.00" fill="#29235c">timestamp</text>
<polygon fill="#e7e2dd" stroke="transparent" points="1307.04,-185.97 1307.04,-245.97 1671.04,-245.97 1671.04,-185.97 1307.04,-185.97"/>
<polygon fill="none" stroke="#29235c" points="1307.04,-185.97 1307.04,-245.97 1671.04,-245.97 1671.04,-185.97 1307.04,-185.97"/>
<text text-anchor="start" x="1317.71" y="-206.17" font-family="Helvetica,sans-Serif" font-size="32.00" fill="#29235c">updated_at &#160;&#160;&#160;</text>
<text text-anchor="start" x="1512.76" y="-207.17" font-family="Helvetica,sans-Serif" font-style="italic" font-size="32.00" fill="#29235c">timestamp</text>
<polygon fill="none" stroke="#29235c" stroke-width="2" points="1306.04,-184.97 1306.04,-486.97 1672.04,-486.97 1672.04,-184.97 1306.04,-184.97"/>
</g>
<!-- positions -->
<g id="positions" class="node">
<title>positions</title>
<ellipse fill="none" stroke="black" stroke-width="0" cx="1489.04" cy="-783.97" rx="260.43" ry="214.92"/>
<polygon fill="#1d71b8" stroke="transparent" points="1307.04,-873.97 1307.04,-933.97 1671.04,-933.97 1671.04,-873.97 1307.04,-873.97"/>
<polygon fill="none" stroke="#29235c" points="1307.04,-873.97 1307.04,-933.97 1671.04,-933.97 1671.04,-873.97 1307.04,-873.97"/>
<text text-anchor="start" x="1363.67" y="-895.17" font-family="Helvetica,sans-Serif" font-weight="bold" font-size="32.00" fill="#ffffff"> &#160;&#160;&#160;&#160;&#160;&#160;positions &#160;&#160;&#160;&#160;&#160;&#160;</text>
<polygon fill="#e7e2dd" stroke="transparent" points="1307.04,-813.97 1307.04,-873.97 1671.04,-873.97 1671.04,-813.97 1307.04,-813.97"/>
<polygon fill="none" stroke="#29235c" points="1307.04,-813.97 1307.04,-873.97 1671.04,-873.97 1671.04,-813.97 1307.04,-813.97"/>
<text text-anchor="start" x="1318.04" y="-835.17" font-family="Helvetica,sans-Serif" font-weight="bold" font-size="32.00" fill="#29235c">id</text>
<text text-anchor="start" x="1342.93" y="-835.17" font-family="Helvetica,sans-Serif" font-size="32.00" fill="#29235c"> &#160;&#160;&#160;</text>
<text text-anchor="start" x="1626.26" y="-835.17" font-family="Helvetica,sans-Serif" font-style="italic" font-size="32.00" fill="#29235c">int</text>
<polygon fill="#e7e2dd" stroke="transparent" points="1307.04,-753.97 1307.04,-813.97 1671.04,-813.97 1671.04,-753.97 1307.04,-753.97"/>
<polygon fill="none" stroke="#29235c" points="1307.04,-753.97 1307.04,-813.97 1671.04,-813.97 1671.04,-753.97 1307.04,-753.97"/>
<text text-anchor="start" x="1318.04" y="-774.17" font-family="Helvetica,sans-Serif" font-size="32.00" fill="#29235c">department_id &#160;&#160;&#160;</text>
<text text-anchor="start" x="1626.26" y="-775.17" font-family="Helvetica,sans-Serif" font-style="italic" font-size="32.00" fill="#29235c">int</text>
<polygon fill="#e7e2dd" stroke="transparent" points="1307.04,-693.97 1307.04,-753.97 1671.04,-753.97 1671.04,-693.97 1307.04,-693.97"/>
<polygon fill="none" stroke="#29235c" points="1307.04,-693.97 1307.04,-753.97 1671.04,-753.97 1671.04,-693.97 1307.04,-693.97"/>
<text text-anchor="start" x="1318.04" y="-714.17" font-family="Helvetica,sans-Serif" font-size="32.00" fill="#29235c">created_at &#160;&#160;&#160;</text>
<text text-anchor="start" x="1512.48" y="-715.17" font-family="Helvetica,sans-Serif" font-style="italic" font-size="32.00" fill="#29235c">timestamp</text>
<polygon fill="#e7e2dd" stroke="transparent" points="1307.04,-633.97 1307.04,-693.97 1671.04,-693.97 1671.04,-633.97 1307.04,-633.97"/>
<polygon fill="none" stroke="#29235c" points="1307.04,-633.97 1307.04,-693.97 1671.04,-693.97 1671.04,-633.97 1307.04,-633.97"/>
<text text-anchor="start" x="1317.71" y="-654.17" font-family="Helvetica,sans-Serif" font-size="32.00" fill="#29235c">updated_at &#160;&#160;&#160;</text>
<text text-anchor="start" x="1512.76" y="-655.17" font-family="Helvetica,sans-Serif" font-style="italic" font-size="32.00" fill="#29235c">timestamp</text>
<polygon fill="none" stroke="#29235c" stroke-width="2" points="1306.04,-632.97 1306.04,-934.97 1672.04,-934.97 1672.04,-632.97 1306.04,-632.97"/>
</g>
<!-- departments -->
<g id="departments" class="node">
<title>departments</title>
<ellipse fill="none" stroke="black" stroke-width="0" cx="2045.47" cy="-783.97" rx="260.43" ry="214.92"/>
<polygon fill="#1d71b8" stroke="transparent" points="1863.47,-873.97 1863.47,-933.97 2227.47,-933.97 2227.47,-873.97 1863.47,-873.97"/>
<polygon fill="none" stroke="#29235c" points="1863.47,-873.97 1863.47,-933.97 2227.47,-933.97 2227.47,-873.97 1863.47,-873.97"/>
<text text-anchor="start" x="1894.31" y="-895.17" font-family="Helvetica,sans-Serif" font-weight="bold" font-size="32.00" fill="#ffffff"> &#160;&#160;&#160;&#160;&#160;&#160;departments &#160;&#160;&#160;&#160;&#160;&#160;</text>
<polygon fill="#e7e2dd" stroke="transparent" points="1863.47,-813.97 1863.47,-873.97 2227.47,-873.97 2227.47,-813.97 1863.47,-813.97"/>
<polygon fill="none" stroke="#29235c" points="1863.47,-813.97 1863.47,-873.97 2227.47,-873.97 2227.47,-813.97 1863.47,-813.97"/>
<text text-anchor="start" x="1874.47" y="-835.17" font-family="Helvetica,sans-Serif" font-weight="bold" font-size="32.00" fill="#29235c">id</text>
<text text-anchor="start" x="1899.36" y="-835.17" font-family="Helvetica,sans-Serif" font-size="32.00" fill="#29235c"> &#160;&#160;&#160;</text>
<text text-anchor="start" x="2182.69" y="-835.17" font-family="Helvetica,sans-Serif" font-style="italic" font-size="32.00" fill="#29235c">int</text>
<polygon fill="#e7e2dd" stroke="transparent" points="1863.47,-753.97 1863.47,-813.97 2227.47,-813.97 2227.47,-753.97 1863.47,-753.97"/>
<polygon fill="none" stroke="#29235c" points="1863.47,-753.97 1863.47,-813.97 2227.47,-813.97 2227.47,-753.97 1863.47,-753.97"/>
<text text-anchor="start" x="1874.47" y="-774.17" font-family="Helvetica,sans-Serif" font-size="32.00" fill="#29235c">name &#160;&#160;&#160;</text>
<text text-anchor="start" x="2070.71" y="-775.17" font-family="Helvetica,sans-Serif" font-style="italic" font-size="32.00" fill="#29235c">varchar</text>
<text text-anchor="start" x="2177.38" y="-775.17" font-family="Helvetica,sans-Serif" font-size="32.00" fill="#29235c"> </text>
<text text-anchor="start" x="2186.27" y="-775.17" font-family="Helvetica,sans-Serif" font-weight="bold" font-size="32.00" fill="#29235c">(!)</text>
<polygon fill="#e7e2dd" stroke="transparent" points="1863.47,-693.97 1863.47,-753.97 2227.47,-753.97 2227.47,-693.97 1863.47,-693.97"/>
<polygon fill="none" stroke="#29235c" points="1863.47,-693.97 1863.47,-753.97 2227.47,-753.97 2227.47,-693.97 1863.47,-693.97"/>
<text text-anchor="start" x="1874.47" y="-714.17" font-family="Helvetica,sans-Serif" font-size="32.00" fill="#29235c">created_at &#160;&#160;&#160;</text>
<text text-anchor="start" x="2068.91" y="-715.17" font-family="Helvetica,sans-Serif" font-style="italic" font-size="32.00" fill="#29235c">timestamp</text>
<polygon fill="#e7e2dd" stroke="transparent" points="1863.47,-633.97 1863.47,-693.97 2227.47,-693.97 2227.47,-633.97 1863.47,-633.97"/>
<polygon fill="none" stroke="#29235c" points="1863.47,-633.97 1863.47,-693.97 2227.47,-693.97 2227.47,-633.97 1863.47,-633.97"/>
<text text-anchor="start" x="1874.14" y="-654.17" font-family="Helvetica,sans-Serif" font-size="32.00" fill="#29235c">updated_at &#160;&#160;&#160;</text>
<text text-anchor="start" x="2069.19" y="-655.17" font-family="Helvetica,sans-Serif" font-style="italic" font-size="32.00" fill="#29235c">timestamp</text>
<polygon fill="none" stroke="#29235c" stroke-width="2" points="1862.47,-632.97 1862.47,-934.97 2228.47,-934.97 2228.47,-632.97 1862.47,-632.97"/>
</g>
<!-- positions&#45;&gt;departments -->
<!-- positions&#45;&gt;departments -->
<g id="edge2" class="edge">
<title>positions:e&#45;&gt;departments:w</title>
<path fill="none" stroke="#29235c" stroke-width="3" d="M1672.04,-783.97C1757.31,-783.97 1772.61,-839.37 1852.41,-843.7"/>
<polygon fill="#29235c" stroke="#29235c" stroke-width="3" points="1852.38,-847.2 1862.47,-843.97 1852.57,-840.2 1852.38,-847.2"/>
<text text-anchor="middle" x="1853.58" y="-853.57" font-family="Helvetica,sans-Serif" font-size="32.00" fill="#29235c">1</text>
<text text-anchor="middle" x="1678.26" y="-793.57" font-family="Helvetica,sans-Serif" font-size="32.00" fill="#29235c">*</text>
</g>
<!-- user_titles -->
<g id="user_titles" class="node">
<title>user_titles</title>
<ellipse fill="none" stroke="black" stroke-width="0" cx="932.61" cy="-693.97" rx="260.43" ry="342.48"/>
<polygon fill="#1d71b8" stroke="transparent" points="750.61,-873.97 750.61,-933.97 1114.61,-933.97 1114.61,-873.97 750.61,-873.97"/>
<polygon fill="none" stroke="#29235c" points="750.61,-873.97 750.61,-933.97 1114.61,-933.97 1114.61,-873.97 750.61,-873.97"/>
<text text-anchor="start" x="797.46" y="-895.17" font-family="Helvetica,sans-Serif" font-weight="bold" font-size="32.00" fill="#ffffff"> &#160;&#160;&#160;&#160;&#160;&#160;user_titles &#160;&#160;&#160;&#160;&#160;&#160;</text>
<polygon fill="#e7e2dd" stroke="transparent" points="750.61,-813.97 750.61,-873.97 1114.61,-873.97 1114.61,-813.97 750.61,-813.97"/>
<polygon fill="none" stroke="#29235c" points="750.61,-813.97 750.61,-873.97 1114.61,-873.97 1114.61,-813.97 750.61,-813.97"/>
<text text-anchor="start" x="761.61" y="-835.17" font-family="Helvetica,sans-Serif" font-weight="bold" font-size="32.00" fill="#29235c">id</text>
<text text-anchor="start" x="786.5" y="-835.17" font-family="Helvetica,sans-Serif" font-size="32.00" fill="#29235c"> &#160;&#160;&#160;</text>
<text text-anchor="start" x="1069.83" y="-835.17" font-family="Helvetica,sans-Serif" font-style="italic" font-size="32.00" fill="#29235c">int</text>
<polygon fill="#e7e2dd" stroke="transparent" points="750.61,-753.97 750.61,-813.97 1114.61,-813.97 1114.61,-753.97 750.61,-753.97"/>
<polygon fill="none" stroke="#29235c" points="750.61,-753.97 750.61,-813.97 1114.61,-813.97 1114.61,-753.97 750.61,-753.97"/>
<text text-anchor="start" x="761.61" y="-774.17" font-family="Helvetica,sans-Serif" font-size="32.00" fill="#29235c">name &#160;&#160;&#160;</text>
<text text-anchor="start" x="957.85" y="-775.17" font-family="Helvetica,sans-Serif" font-style="italic" font-size="32.00" fill="#29235c">varchar</text>
<text text-anchor="start" x="1064.52" y="-775.17" font-family="Helvetica,sans-Serif" font-size="32.00" fill="#29235c"> </text>
<text text-anchor="start" x="1073.41" y="-775.17" font-family="Helvetica,sans-Serif" font-weight="bold" font-size="32.00" fill="#29235c">(!)</text>
<polygon fill="#e7e2dd" stroke="transparent" points="750.61,-693.97 750.61,-753.97 1114.61,-753.97 1114.61,-693.97 750.61,-693.97"/>
<polygon fill="none" stroke="#29235c" points="750.61,-693.97 750.61,-753.97 1114.61,-753.97 1114.61,-693.97 750.61,-693.97"/>
<text text-anchor="start" x="761.61" y="-714.17" font-family="Helvetica,sans-Serif" font-size="32.00" fill="#29235c">department_id &#160;&#160;&#160;</text>
<text text-anchor="start" x="1069.83" y="-715.17" font-family="Helvetica,sans-Serif" font-style="italic" font-size="32.00" fill="#29235c">int</text>
<polygon fill="#e7e2dd" stroke="transparent" points="750.61,-633.97 750.61,-693.97 1114.61,-693.97 1114.61,-633.97 750.61,-633.97"/>
<polygon fill="none" stroke="#29235c" points="750.61,-633.97 750.61,-693.97 1114.61,-693.97 1114.61,-633.97 750.61,-633.97"/>
<text text-anchor="start" x="761.61" y="-654.17" font-family="Helvetica,sans-Serif" font-size="32.00" fill="#29235c">position_id &#160;&#160;&#160;</text>
<text text-anchor="start" x="1069.83" y="-655.17" font-family="Helvetica,sans-Serif" font-style="italic" font-size="32.00" fill="#29235c">int</text>
<polygon fill="#e7e2dd" stroke="transparent" points="750.61,-573.97 750.61,-633.97 1114.61,-633.97 1114.61,-573.97 750.61,-573.97"/>
<polygon fill="none" stroke="#29235c" points="750.61,-573.97 750.61,-633.97 1114.61,-633.97 1114.61,-573.97 750.61,-573.97"/>
<text text-anchor="start" x="761.61" y="-594.17" font-family="Helvetica,sans-Serif" font-size="32.00" fill="#29235c">level_id &#160;&#160;&#160;</text>
<text text-anchor="start" x="1069.83" y="-595.17" font-family="Helvetica,sans-Serif" font-style="italic" font-size="32.00" fill="#29235c">int</text>
<polygon fill="#e7e2dd" stroke="transparent" points="750.61,-513.97 750.61,-573.97 1114.61,-573.97 1114.61,-513.97 750.61,-513.97"/>
<polygon fill="none" stroke="#29235c" points="750.61,-513.97 750.61,-573.97 1114.61,-573.97 1114.61,-513.97 750.61,-513.97"/>
<text text-anchor="start" x="761.61" y="-534.17" font-family="Helvetica,sans-Serif" font-size="32.00" fill="#29235c">created_at &#160;&#160;&#160;</text>
<text text-anchor="start" x="956.05" y="-535.17" font-family="Helvetica,sans-Serif" font-style="italic" font-size="32.00" fill="#29235c">timestamp</text>
<polygon fill="#e7e2dd" stroke="transparent" points="750.61,-453.97 750.61,-513.97 1114.61,-513.97 1114.61,-453.97 750.61,-453.97"/>
<polygon fill="none" stroke="#29235c" points="750.61,-453.97 750.61,-513.97 1114.61,-513.97 1114.61,-453.97 750.61,-453.97"/>
<text text-anchor="start" x="761.28" y="-474.17" font-family="Helvetica,sans-Serif" font-size="32.00" fill="#29235c">updated_at &#160;&#160;&#160;</text>
<text text-anchor="start" x="956.33" y="-475.17" font-family="Helvetica,sans-Serif" font-style="italic" font-size="32.00" fill="#29235c">timestamp</text>
<polygon fill="none" stroke="#29235c" stroke-width="2" points="749.61,-452.97 749.61,-934.97 1115.61,-934.97 1115.61,-452.97 749.61,-452.97"/>
</g>
<!-- user_titles&#45;&gt;levels -->
<!-- user_titles&#45;&gt;levels -->
<g id="edge8" class="edge">
<title>user_titles:e&#45;&gt;levels:w</title>
<path fill="none" stroke="#29235c" stroke-width="3" d="M1115.61,-603.97C1237.4,-603.97 1183.97,-407.58 1295.83,-396.46"/>
<polygon fill="#29235c" stroke="#29235c" stroke-width="3" points="1296.22,-399.94 1306.04,-395.97 1295.89,-392.95 1296.22,-399.94"/>
<text text-anchor="middle" x="1297.15" y="-367.17" font-family="Helvetica,sans-Serif" font-size="32.00" fill="#29235c">1</text>
<text text-anchor="middle" x="1109.39" y="-575.17" font-family="Helvetica,sans-Serif" font-size="32.00" fill="#29235c">*</text>
</g>
<!-- user_titles&#45;&gt;positions -->
<!-- user_titles&#45;&gt;positions -->
<g id="edge6" class="edge">
<title>user_titles:e&#45;&gt;positions:w</title>
<path fill="none" stroke="#29235c" stroke-width="3" d="M1115.61,-663.97C1228.55,-663.97 1192.01,-833.23 1295.89,-843.48"/>
<polygon fill="#29235c" stroke="#29235c" stroke-width="3" points="1295.89,-846.99 1306.04,-843.97 1296.22,-839.99 1295.89,-846.99"/>
<text text-anchor="middle" x="1297.15" y="-853.57" font-family="Helvetica,sans-Serif" font-size="32.00" fill="#29235c">1</text>
<text text-anchor="middle" x="1109.39" y="-635.17" font-family="Helvetica,sans-Serif" font-size="32.00" fill="#29235c">*</text>
</g>
<!-- user_titles&#45;&gt;departments -->
<!-- user_titles&#45;&gt;departments -->
<g id="edge4" class="edge">
<title>user_titles:e&#45;&gt;departments:w</title>
<path fill="none" stroke="#29235c" stroke-width="3" d="M1115.61,-723.97C1392.23,-723.97 1016.18,-288.88 1228.83,-111.97 1406.64,35.97 1573.65,38.57 1749.26,-111.97 1871.54,-216.79 1705.31,-817.36 1852.33,-843.11"/>
<polygon fill="#29235c" stroke="#29235c" stroke-width="3" points="1852.21,-846.62 1862.47,-843.97 1852.8,-839.64 1852.21,-846.62"/>
<text text-anchor="middle" x="1871.37" y="-853.57" font-family="Helvetica,sans-Serif" font-size="32.00" fill="#29235c">1</text>
<text text-anchor="middle" x="1109.39" y="-733.57" font-family="Helvetica,sans-Serif" font-size="32.00" fill="#29235c">*</text>
</g>
<!-- users -->
<g id="users" class="node">
<title>users</title>
<ellipse fill="none" stroke="black" stroke-width="0" cx="318.2" cy="-573.97" rx="318.4" ry="511.89"/>
<polygon fill="#1d71b8" stroke="transparent" points="95.2,-873.97 95.2,-933.97 541.2,-933.97 541.2,-873.97 95.2,-873.97"/>
<polygon fill="none" stroke="#29235c" points="95.2,-873.97 95.2,-933.97 541.2,-933.97 541.2,-873.97 95.2,-873.97"/>
<text text-anchor="start" x="216.83" y="-895.17" font-family="Helvetica,sans-Serif" font-weight="bold" font-size="32.00" fill="#ffffff"> &#160;&#160;&#160;&#160;&#160;&#160;users &#160;&#160;&#160;&#160;&#160;&#160;</text>
<polygon fill="#e7e2dd" stroke="transparent" points="95.2,-813.97 95.2,-873.97 541.2,-873.97 541.2,-813.97 95.2,-813.97"/>
<polygon fill="none" stroke="#29235c" points="95.2,-813.97 95.2,-873.97 541.2,-873.97 541.2,-813.97 95.2,-813.97"/>
<text text-anchor="start" x="106.2" y="-835.17" font-family="Helvetica,sans-Serif" font-weight="bold" font-size="32.00" fill="#29235c">id</text>
<text text-anchor="start" x="131.09" y="-835.17" font-family="Helvetica,sans-Serif" font-size="32.00" fill="#29235c"> &#160;&#160;&#160;</text>
<text text-anchor="start" x="496.42" y="-835.17" font-family="Helvetica,sans-Serif" font-style="italic" font-size="32.00" fill="#29235c">int</text>
<polygon fill="#e7e2dd" stroke="transparent" points="95.2,-753.97 95.2,-813.97 541.2,-813.97 541.2,-753.97 95.2,-753.97"/>
<polygon fill="none" stroke="#29235c" points="95.2,-753.97 95.2,-813.97 541.2,-813.97 541.2,-753.97 95.2,-753.97"/>
<text text-anchor="start" x="106.2" y="-774.17" font-family="Helvetica,sans-Serif" font-size="32.00" fill="#29235c">title_id &#160;&#160;&#160;</text>
<text text-anchor="start" x="496.42" y="-775.17" font-family="Helvetica,sans-Serif" font-style="italic" font-size="32.00" fill="#29235c">int</text>
<polygon fill="#e7e2dd" stroke="transparent" points="95.2,-693.97 95.2,-753.97 541.2,-753.97 541.2,-693.97 95.2,-693.97"/>
<polygon fill="none" stroke="#29235c" points="95.2,-693.97 95.2,-753.97 541.2,-753.97 541.2,-693.97 95.2,-693.97"/>
<text text-anchor="start" x="106.2" y="-714.17" font-family="Helvetica,sans-Serif" font-size="32.00" fill="#29235c">name &#160;&#160;&#160;</text>
<text text-anchor="start" x="384.43" y="-715.17" font-family="Helvetica,sans-Serif" font-style="italic" font-size="32.00" fill="#29235c">varchar</text>
<text text-anchor="start" x="491.11" y="-715.17" font-family="Helvetica,sans-Serif" font-size="32.00" fill="#29235c"> </text>
<text text-anchor="start" x="500" y="-715.17" font-family="Helvetica,sans-Serif" font-weight="bold" font-size="32.00" fill="#29235c">(!)</text>
<polygon fill="#e7e2dd" stroke="transparent" points="95.2,-633.97 95.2,-693.97 541.2,-693.97 541.2,-633.97 95.2,-633.97"/>
<polygon fill="none" stroke="#29235c" points="95.2,-633.97 95.2,-693.97 541.2,-693.97 541.2,-633.97 95.2,-633.97"/>
<text text-anchor="start" x="106.2" y="-654.17" font-family="Helvetica,sans-Serif" font-size="32.00" fill="#29235c">email &#160;&#160;&#160;</text>
<text text-anchor="start" x="384.43" y="-655.17" font-family="Helvetica,sans-Serif" font-style="italic" font-size="32.00" fill="#29235c">varchar</text>
<text text-anchor="start" x="491.11" y="-655.17" font-family="Helvetica,sans-Serif" font-size="32.00" fill="#29235c"> </text>
<text text-anchor="start" x="500" y="-655.17" font-family="Helvetica,sans-Serif" font-weight="bold" font-size="32.00" fill="#29235c">(!)</text>
<polygon fill="#e7e2dd" stroke="transparent" points="95.2,-573.97 95.2,-633.97 541.2,-633.97 541.2,-573.97 95.2,-573.97"/>
<polygon fill="none" stroke="#29235c" points="95.2,-573.97 95.2,-633.97 541.2,-633.97 541.2,-573.97 95.2,-573.97"/>
<text text-anchor="start" x="106.01" y="-594.17" font-family="Helvetica,sans-Serif" font-size="32.00" fill="#29235c">email_verified_at &#160;&#160;&#160;</text>
<text text-anchor="start" x="382.92" y="-595.17" font-family="Helvetica,sans-Serif" font-style="italic" font-size="32.00" fill="#29235c">timestamp</text>
<polygon fill="#e7e2dd" stroke="transparent" points="95.2,-513.97 95.2,-573.97 541.2,-573.97 541.2,-513.97 95.2,-513.97"/>
<polygon fill="none" stroke="#29235c" points="95.2,-513.97 95.2,-573.97 541.2,-573.97 541.2,-513.97 95.2,-513.97"/>
<text text-anchor="start" x="106.2" y="-534.17" font-family="Helvetica,sans-Serif" font-size="32.00" fill="#29235c">password &#160;&#160;&#160;</text>
<text text-anchor="start" x="384.43" y="-535.17" font-family="Helvetica,sans-Serif" font-style="italic" font-size="32.00" fill="#29235c">varchar</text>
<text text-anchor="start" x="491.11" y="-535.17" font-family="Helvetica,sans-Serif" font-size="32.00" fill="#29235c"> </text>
<text text-anchor="start" x="500" y="-535.17" font-family="Helvetica,sans-Serif" font-weight="bold" font-size="32.00" fill="#29235c">(!)</text>
<polygon fill="#e7e2dd" stroke="transparent" points="95.2,-453.97 95.2,-513.97 541.2,-513.97 541.2,-453.97 95.2,-453.97"/>
<polygon fill="none" stroke="#29235c" points="95.2,-453.97 95.2,-513.97 541.2,-513.97 541.2,-453.97 95.2,-453.97"/>
<text text-anchor="start" x="106.2" y="-474.17" font-family="Helvetica,sans-Serif" font-size="32.00" fill="#29235c">remember_token &#160;&#160;&#160;</text>
<text text-anchor="start" x="423.53" y="-475.17" font-family="Helvetica,sans-Serif" font-style="italic" font-size="32.00" fill="#29235c">varchar</text>
<polygon fill="#e7e2dd" stroke="transparent" points="95.2,-393.97 95.2,-453.97 541.2,-453.97 541.2,-393.97 95.2,-393.97"/>
<polygon fill="none" stroke="#29235c" points="95.2,-393.97 95.2,-453.97 541.2,-453.97 541.2,-393.97 95.2,-393.97"/>
<text text-anchor="start" x="106.2" y="-414.17" font-family="Helvetica,sans-Serif" font-size="32.00" fill="#29235c">custom_fields &#160;&#160;&#160;</text>
<text text-anchor="start" x="471.52" y="-415.17" font-family="Helvetica,sans-Serif" font-style="italic" font-size="32.00" fill="#29235c">json</text>
<polygon fill="#e7e2dd" stroke="transparent" points="95.2,-333.97 95.2,-393.97 541.2,-393.97 541.2,-333.97 95.2,-333.97"/>
<polygon fill="none" stroke="#29235c" points="95.2,-333.97 95.2,-393.97 541.2,-393.97 541.2,-333.97 95.2,-333.97"/>
<text text-anchor="start" x="106.2" y="-354.17" font-family="Helvetica,sans-Serif" font-size="32.00" fill="#29235c">avatar_url &#160;&#160;&#160;</text>
<text text-anchor="start" x="423.53" y="-355.17" font-family="Helvetica,sans-Serif" font-style="italic" font-size="32.00" fill="#29235c">varchar</text>
<polygon fill="#e7e2dd" stroke="transparent" points="95.2,-273.97 95.2,-333.97 541.2,-333.97 541.2,-273.97 95.2,-273.97"/>
<polygon fill="none" stroke="#29235c" points="95.2,-273.97 95.2,-333.97 541.2,-333.97 541.2,-273.97 95.2,-273.97"/>
<text text-anchor="start" x="106.2" y="-294.17" font-family="Helvetica,sans-Serif" font-size="32.00" fill="#29235c">created_at &#160;&#160;&#160;</text>
<text text-anchor="start" x="382.64" y="-295.17" font-family="Helvetica,sans-Serif" font-style="italic" font-size="32.00" fill="#29235c">timestamp</text>
<polygon fill="#e7e2dd" stroke="transparent" points="95.2,-213.97 95.2,-273.97 541.2,-273.97 541.2,-213.97 95.2,-213.97"/>
<polygon fill="none" stroke="#29235c" points="95.2,-213.97 95.2,-273.97 541.2,-273.97 541.2,-213.97 95.2,-213.97"/>
<text text-anchor="start" x="106.2" y="-234.17" font-family="Helvetica,sans-Serif" font-size="32.00" fill="#29235c">updated_at &#160;&#160;&#160;</text>
<text text-anchor="start" x="382.64" y="-235.17" font-family="Helvetica,sans-Serif" font-style="italic" font-size="32.00" fill="#29235c">timestamp</text>
<polygon fill="none" stroke="#29235c" stroke-width="2" points="94.2,-212.97 94.2,-934.97 542.2,-934.97 542.2,-212.97 94.2,-212.97"/>
</g>
<!-- users&#45;&gt;user_titles -->
<!-- users&#45;&gt;user_titles -->
<g id="edge10" class="edge">
<title>users:e&#45;&gt;user_titles:w</title>
<path fill="none" stroke="#29235c" stroke-width="3" d="M542.2,-783.97C634.69,-783.97 652.42,-839.71 739.52,-843.74"/>
<polygon fill="#29235c" stroke="#29235c" stroke-width="3" points="739.53,-847.24 749.61,-843.97 739.69,-840.24 739.53,-847.24"/>
<text text-anchor="middle" x="740.72" y="-853.57" font-family="Helvetica,sans-Serif" font-size="32.00" fill="#29235c">1</text>
<text text-anchor="middle" x="533.3" y="-793.57" font-family="Helvetica,sans-Serif" font-size="32.00" fill="#29235c">1</text>
</g>
</g>
</svg>
