<?xml version="1.0" encoding="UTF-8" standalone="no"?>
<!DOCTYPE svg PUBLIC "-//W3C//DTD SVG 1.1//EN"
 "http://www.w3.org/Graphics/SVG/1.1/DTD/svg11.dtd">
<!-- Generated by graphviz version 2.47.0 (20210316.0004)
 -->
<!-- Title: dbml Pages: 1 -->
<svg width="1368pt" height="1414pt"
 viewBox="0.00 0.00 1367.70 1414.20" xmlns="http://www.w3.org/2000/svg" xmlns:xlink="http://www.w3.org/1999/xlink">
<g id="graph0" class="graph" transform="scale(1 1) rotate(0) translate(4 1410.2)">
<title>dbml</title>
<!-- users -->
<g id="users" class="node">
<title>users</title>
<ellipse fill="none" stroke="black" stroke-width="0" cx="1041.51" cy="-469.52" rx="318.4" ry="469.54"/>
<polygon fill="#1d71b8" stroke="transparent" points="818.51,-739.52 818.51,-799.52 1264.51,-799.52 1264.51,-739.52 818.51,-739.52"/>
<polygon fill="none" stroke="#29235c" points="818.51,-739.52 818.51,-799.52 1264.51,-799.52 1264.51,-739.52 818.51,-739.52"/>
<text text-anchor="start" x="940.14" y="-760.72" font-family="Helvetica,sans-Serif" font-weight="bold" font-size="32.00" fill="#ffffff"> &#160;&#160;&#160;&#160;&#160;&#160;users &#160;&#160;&#160;&#160;&#160;&#160;</text>
<polygon fill="#e7e2dd" stroke="transparent" points="818.51,-679.52 818.51,-739.52 1264.51,-739.52 1264.51,-679.52 818.51,-679.52"/>
<polygon fill="none" stroke="#29235c" points="818.51,-679.52 818.51,-739.52 1264.51,-739.52 1264.51,-679.52 818.51,-679.52"/>
<text text-anchor="start" x="829.51" y="-700.72" font-family="Helvetica,sans-Serif" font-weight="bold" font-size="32.00" fill="#29235c">id</text>
<text text-anchor="start" x="854.4" y="-700.72" font-family="Helvetica,sans-Serif" font-size="32.00" fill="#29235c"> &#160;&#160;&#160;</text>
<text text-anchor="start" x="1219.72" y="-700.72" font-family="Helvetica,sans-Serif" font-style="italic" font-size="32.00" fill="#29235c">int</text>
<polygon fill="#e7e2dd" stroke="transparent" points="818.51,-619.52 818.51,-679.52 1264.51,-679.52 1264.51,-619.52 818.51,-619.52"/>
<polygon fill="none" stroke="#29235c" points="818.51,-619.52 818.51,-679.52 1264.51,-679.52 1264.51,-619.52 818.51,-619.52"/>
<text text-anchor="start" x="829.51" y="-639.72" font-family="Helvetica,sans-Serif" font-size="32.00" fill="#29235c">name &#160;&#160;&#160;</text>
<text text-anchor="start" x="1107.74" y="-640.72" font-family="Helvetica,sans-Serif" font-style="italic" font-size="32.00" fill="#29235c">varchar</text>
<text text-anchor="start" x="1214.41" y="-640.72" font-family="Helvetica,sans-Serif" font-size="32.00" fill="#29235c"> </text>
<text text-anchor="start" x="1223.31" y="-640.72" font-family="Helvetica,sans-Serif" font-weight="bold" font-size="32.00" fill="#29235c">(!)</text>
<polygon fill="#e7e2dd" stroke="transparent" points="818.51,-559.52 818.51,-619.52 1264.51,-619.52 1264.51,-559.52 818.51,-559.52"/>
<polygon fill="none" stroke="#29235c" points="818.51,-559.52 818.51,-619.52 1264.51,-619.52 1264.51,-559.52 818.51,-559.52"/>
<text text-anchor="start" x="829.51" y="-579.72" font-family="Helvetica,sans-Serif" font-size="32.00" fill="#29235c">email &#160;&#160;&#160;</text>
<text text-anchor="start" x="1107.74" y="-580.72" font-family="Helvetica,sans-Serif" font-style="italic" font-size="32.00" fill="#29235c">varchar</text>
<text text-anchor="start" x="1214.41" y="-580.72" font-family="Helvetica,sans-Serif" font-size="32.00" fill="#29235c"> </text>
<text text-anchor="start" x="1223.31" y="-580.72" font-family="Helvetica,sans-Serif" font-weight="bold" font-size="32.00" fill="#29235c">(!)</text>
<polygon fill="#e7e2dd" stroke="transparent" points="818.51,-499.52 818.51,-559.52 1264.51,-559.52 1264.51,-499.52 818.51,-499.52"/>
<polygon fill="none" stroke="#29235c" points="818.51,-499.52 818.51,-559.52 1264.51,-559.52 1264.51,-499.52 818.51,-499.52"/>
<text text-anchor="start" x="829.32" y="-519.72" font-family="Helvetica,sans-Serif" font-size="32.00" fill="#29235c">email_verified_at &#160;&#160;&#160;</text>
<text text-anchor="start" x="1106.23" y="-520.72" font-family="Helvetica,sans-Serif" font-style="italic" font-size="32.00" fill="#29235c">timestamp</text>
<polygon fill="#e7e2dd" stroke="transparent" points="818.51,-439.52 818.51,-499.52 1264.51,-499.52 1264.51,-439.52 818.51,-439.52"/>
<polygon fill="none" stroke="#29235c" points="818.51,-439.52 818.51,-499.52 1264.51,-499.52 1264.51,-439.52 818.51,-439.52"/>
<text text-anchor="start" x="829.51" y="-459.72" font-family="Helvetica,sans-Serif" font-size="32.00" fill="#29235c">password &#160;&#160;&#160;</text>
<text text-anchor="start" x="1107.74" y="-460.72" font-family="Helvetica,sans-Serif" font-style="italic" font-size="32.00" fill="#29235c">varchar</text>
<text text-anchor="start" x="1214.41" y="-460.72" font-family="Helvetica,sans-Serif" font-size="32.00" fill="#29235c"> </text>
<text text-anchor="start" x="1223.31" y="-460.72" font-family="Helvetica,sans-Serif" font-weight="bold" font-size="32.00" fill="#29235c">(!)</text>
<polygon fill="#e7e2dd" stroke="transparent" points="818.51,-379.52 818.51,-439.52 1264.51,-439.52 1264.51,-379.52 818.51,-379.52"/>
<polygon fill="none" stroke="#29235c" points="818.51,-379.52 818.51,-439.52 1264.51,-439.52 1264.51,-379.52 818.51,-379.52"/>
<text text-anchor="start" x="829.51" y="-399.72" font-family="Helvetica,sans-Serif" font-size="32.00" fill="#29235c">remember_token &#160;&#160;&#160;</text>
<text text-anchor="start" x="1146.83" y="-400.72" font-family="Helvetica,sans-Serif" font-style="italic" font-size="32.00" fill="#29235c">varchar</text>
<polygon fill="#e7e2dd" stroke="transparent" points="818.51,-319.52 818.51,-379.52 1264.51,-379.52 1264.51,-319.52 818.51,-319.52"/>
<polygon fill="none" stroke="#29235c" points="818.51,-319.52 818.51,-379.52 1264.51,-379.52 1264.51,-319.52 818.51,-319.52"/>
<text text-anchor="start" x="829.51" y="-339.72" font-family="Helvetica,sans-Serif" font-size="32.00" fill="#29235c">custom_fields &#160;&#160;&#160;</text>
<text text-anchor="start" x="1194.83" y="-340.72" font-family="Helvetica,sans-Serif" font-style="italic" font-size="32.00" fill="#29235c">json</text>
<polygon fill="#e7e2dd" stroke="transparent" points="818.51,-259.52 818.51,-319.52 1264.51,-319.52 1264.51,-259.52 818.51,-259.52"/>
<polygon fill="none" stroke="#29235c" points="818.51,-259.52 818.51,-319.52 1264.51,-319.52 1264.51,-259.52 818.51,-259.52"/>
<text text-anchor="start" x="829.51" y="-279.72" font-family="Helvetica,sans-Serif" font-size="32.00" fill="#29235c">avatar_url &#160;&#160;&#160;</text>
<text text-anchor="start" x="1146.83" y="-280.72" font-family="Helvetica,sans-Serif" font-style="italic" font-size="32.00" fill="#29235c">varchar</text>
<polygon fill="#e7e2dd" stroke="transparent" points="818.51,-199.52 818.51,-259.52 1264.51,-259.52 1264.51,-199.52 818.51,-199.52"/>
<polygon fill="none" stroke="#29235c" points="818.51,-199.52 818.51,-259.52 1264.51,-259.52 1264.51,-199.52 818.51,-199.52"/>
<text text-anchor="start" x="829.51" y="-219.72" font-family="Helvetica,sans-Serif" font-size="32.00" fill="#29235c">created_at &#160;&#160;&#160;</text>
<text text-anchor="start" x="1105.95" y="-220.72" font-family="Helvetica,sans-Serif" font-style="italic" font-size="32.00" fill="#29235c">timestamp</text>
<polygon fill="#e7e2dd" stroke="transparent" points="818.51,-139.52 818.51,-199.52 1264.51,-199.52 1264.51,-139.52 818.51,-139.52"/>
<polygon fill="none" stroke="#29235c" points="818.51,-139.52 818.51,-199.52 1264.51,-199.52 1264.51,-139.52 818.51,-139.52"/>
<text text-anchor="start" x="829.51" y="-159.72" font-family="Helvetica,sans-Serif" font-size="32.00" fill="#29235c">updated_at &#160;&#160;&#160;</text>
<text text-anchor="start" x="1105.95" y="-160.72" font-family="Helvetica,sans-Serif" font-style="italic" font-size="32.00" fill="#29235c">timestamp</text>
<polygon fill="none" stroke="#29235c" stroke-width="2" points="817.51,-138.52 817.51,-800.52 1265.51,-800.52 1265.51,-138.52 817.51,-138.52"/>
</g>
<!-- squad_members -->
<g id="squad_members" class="node">
<title>squad_members</title>
<ellipse fill="none" stroke="black" stroke-width="0" cx="343.65" cy="-1318.52" rx="274.21" ry="87.86"/>
<polygon fill="#1d71b8" stroke="transparent" points="151.65,-1318.52 151.65,-1378.52 535.65,-1378.52 535.65,-1318.52 151.65,-1318.52"/>
<polygon fill="none" stroke="#29235c" points="151.65,-1318.52 151.65,-1378.52 535.65,-1378.52 535.65,-1318.52 151.65,-1318.52"/>
<text text-anchor="start" x="162.27" y="-1339.72" font-family="Helvetica,sans-Serif" font-weight="bold" font-size="32.00" fill="#ffffff"> &#160;&#160;&#160;&#160;&#160;&#160;squad_members &#160;&#160;&#160;&#160;&#160;&#160;</text>
<polygon fill="#e7e2dd" stroke="transparent" points="151.65,-1258.52 151.65,-1318.52 535.65,-1318.52 535.65,-1258.52 151.65,-1258.52"/>
<polygon fill="none" stroke="#29235c" points="151.65,-1258.52 151.65,-1318.52 535.65,-1318.52 535.65,-1258.52 151.65,-1258.52"/>
<text text-anchor="start" x="162.65" y="-1278.72" font-family="Helvetica,sans-Serif" font-size="32.00" fill="#29235c">user_id &#160;&#160;&#160;</text>
<text text-anchor="start" x="490.87" y="-1279.72" font-family="Helvetica,sans-Serif" font-style="italic" font-size="32.00" fill="#29235c">int</text>
<polygon fill="none" stroke="#29235c" stroke-width="2" points="150.65,-1257.52 150.65,-1379.52 536.65,-1379.52 536.65,-1257.52 150.65,-1257.52"/>
</g>
<!-- squad_members&#45;&gt;users -->
<!-- squad_members&#45;&gt;users -->
<g id="edge2" class="edge">
<title>squad_members:e&#45;&gt;users:w</title>
<path fill="none" stroke="#29235c" stroke-width="3" d="M536.65,-1288.52C609.75,-1288.52 640.04,-1278.28 687.31,-1222.52 837.2,-1045.72 589.72,-719.26 807.48,-709.73"/>
<polygon fill="#29235c" stroke="#29235c" stroke-width="3" points="807.58,-713.23 817.51,-709.52 807.43,-706.23 807.58,-713.23"/>
<text text-anchor="middle" x="808.61" y="-719.12" font-family="Helvetica,sans-Serif" font-size="32.00" fill="#29235c">1</text>
<text text-anchor="middle" x="530.43" y="-1298.12" font-family="Helvetica,sans-Serif" font-size="32.00" fill="#29235c">*</text>
</g>
<!-- attachments -->
<g id="attachments" class="node">
<title>attachments</title>
<ellipse fill="none" stroke="black" stroke-width="0" cx="343.65" cy="-1125.52" rx="229.21" ry="87.86"/>
<polygon fill="#1d71b8" stroke="transparent" points="183.65,-1125.52 183.65,-1185.52 503.65,-1185.52 503.65,-1125.52 183.65,-1125.52"/>
<polygon fill="none" stroke="#29235c" points="183.65,-1125.52 183.65,-1185.52 503.65,-1185.52 503.65,-1125.52 183.65,-1125.52"/>
<text text-anchor="start" x="194.27" y="-1146.72" font-family="Helvetica,sans-Serif" font-weight="bold" font-size="32.00" fill="#ffffff"> &#160;&#160;&#160;&#160;&#160;&#160;attachments &#160;&#160;&#160;&#160;&#160;&#160;</text>
<polygon fill="#e7e2dd" stroke="transparent" points="183.65,-1065.52 183.65,-1125.52 503.65,-1125.52 503.65,-1065.52 183.65,-1065.52"/>
<polygon fill="none" stroke="#29235c" points="183.65,-1065.52 183.65,-1125.52 503.65,-1125.52 503.65,-1065.52 183.65,-1065.52"/>
<text text-anchor="start" x="194.65" y="-1085.72" font-family="Helvetica,sans-Serif" font-size="32.00" fill="#29235c">user_id &#160;&#160;&#160;</text>
<text text-anchor="start" x="458.87" y="-1086.72" font-family="Helvetica,sans-Serif" font-style="italic" font-size="32.00" fill="#29235c">int</text>
<polygon fill="none" stroke="#29235c" stroke-width="2" points="182.65,-1064.52 182.65,-1186.52 504.65,-1186.52 504.65,-1064.52 182.65,-1064.52"/>
</g>
<!-- attachments&#45;&gt;users -->
<!-- attachments&#45;&gt;users -->
<g id="edge4" class="edge">
<title>attachments:e&#45;&gt;users:w</title>
<path fill="none" stroke="#29235c" stroke-width="3" d="M504.65,-1095.52C590.97,-1095.52 625.07,-1089.33 687.31,-1029.52 795.42,-925.62 670.11,-719.47 807.18,-709.87"/>
<polygon fill="#29235c" stroke="#29235c" stroke-width="3" points="807.63,-713.35 817.51,-709.52 807.39,-706.36 807.63,-713.35"/>
<text text-anchor="middle" x="808.61" y="-680.72" font-family="Helvetica,sans-Serif" font-size="32.00" fill="#29235c">1</text>
<text text-anchor="middle" x="498.43" y="-1105.12" font-family="Helvetica,sans-Serif" font-size="32.00" fill="#29235c">*</text>
</g>
<!-- scrum_backlogs -->
<g id="scrum_backlogs" class="node">
<title>scrum_backlogs</title>
<ellipse fill="none" stroke="black" stroke-width="0" cx="343.65" cy="-932.52" rx="269.32" ry="87.86"/>
<polygon fill="#1d71b8" stroke="transparent" points="155.65,-932.52 155.65,-992.52 532.65,-992.52 532.65,-932.52 155.65,-932.52"/>
<polygon fill="none" stroke="#29235c" points="155.65,-932.52 155.65,-992.52 532.65,-992.52 532.65,-932.52 155.65,-932.52"/>
<text text-anchor="start" x="166.33" y="-953.72" font-family="Helvetica,sans-Serif" font-weight="bold" font-size="32.00" fill="#ffffff"> &#160;&#160;&#160;&#160;&#160;&#160;scrum_backlogs &#160;&#160;&#160;&#160;&#160;&#160;</text>
<polygon fill="#e7e2dd" stroke="transparent" points="155.65,-872.52 155.65,-932.52 532.65,-932.52 532.65,-872.52 155.65,-872.52"/>
<polygon fill="none" stroke="#29235c" points="155.65,-872.52 155.65,-932.52 532.65,-932.52 532.65,-872.52 155.65,-872.52"/>
<text text-anchor="start" x="166.65" y="-892.72" font-family="Helvetica,sans-Serif" font-size="32.00" fill="#29235c">pic &#160;&#160;&#160;</text>
<text text-anchor="start" x="487.87" y="-893.72" font-family="Helvetica,sans-Serif" font-style="italic" font-size="32.00" fill="#29235c">int</text>
<polygon fill="none" stroke="#29235c" stroke-width="2" points="154.15,-871.52 154.15,-993.52 533.15,-993.52 533.15,-871.52 154.15,-871.52"/>
</g>
<!-- scrum_backlogs&#45;&gt;users -->
<!-- scrum_backlogs&#45;&gt;users -->
<g id="edge6" class="edge">
<title>scrum_backlogs:e&#45;&gt;users:w</title>
<path fill="none" stroke="#29235c" stroke-width="3" d="M533.65,-902.52C607.98,-902.52 625.52,-877.83 687.31,-836.52 751.49,-793.61 738.1,-716.82 807.19,-710"/>
<polygon fill="#29235c" stroke="#29235c" stroke-width="3" points="807.68,-713.49 817.51,-709.52 807.35,-706.49 807.68,-713.49"/>
<text text-anchor="middle" x="826.4" y="-719.12" font-family="Helvetica,sans-Serif" font-size="32.00" fill="#29235c">1</text>
<text text-anchor="middle" x="527.43" y="-912.12" font-family="Helvetica,sans-Serif" font-size="32.00" fill="#29235c">*</text>
</g>
<!-- scrum_comment_childs -->
<g id="scrum_comment_childs" class="node">
<title>scrum_comment_childs</title>
<ellipse fill="none" stroke="black" stroke-width="0" cx="343.65" cy="-739.52" rx="343.81" ry="87.86"/>
<polygon fill="#1d71b8" stroke="transparent" points="102.65,-739.52 102.65,-799.52 584.65,-799.52 584.65,-739.52 102.65,-739.52"/>
<polygon fill="none" stroke="#29235c" points="102.65,-739.52 102.65,-799.52 584.65,-799.52 584.65,-739.52 102.65,-739.52"/>
<text text-anchor="start" x="113.4" y="-760.72" font-family="Helvetica,sans-Serif" font-weight="bold" font-size="32.00" fill="#ffffff"> &#160;&#160;&#160;&#160;&#160;&#160;scrum_comment_childs &#160;&#160;&#160;&#160;&#160;&#160;</text>
<polygon fill="#e7e2dd" stroke="transparent" points="102.65,-679.52 102.65,-739.52 584.65,-739.52 584.65,-679.52 102.65,-679.52"/>
<polygon fill="none" stroke="#29235c" points="102.65,-679.52 102.65,-739.52 584.65,-739.52 584.65,-679.52 102.65,-679.52"/>
<text text-anchor="start" x="113.65" y="-699.72" font-family="Helvetica,sans-Serif" font-size="32.00" fill="#29235c">user_id &#160;&#160;&#160;</text>
<text text-anchor="start" x="539.87" y="-700.72" font-family="Helvetica,sans-Serif" font-style="italic" font-size="32.00" fill="#29235c">int</text>
<polygon fill="none" stroke="#29235c" stroke-width="2" points="101.65,-678.52 101.65,-800.52 585.65,-800.52 585.65,-678.52 101.65,-678.52"/>
</g>
<!-- scrum_comment_childs&#45;&gt;users -->
<!-- scrum_comment_childs&#45;&gt;users -->
<g id="edge8" class="edge">
<title>scrum_comment_childs:e&#45;&gt;users:w</title>
<path fill="none" stroke="#29235c" stroke-width="3" d="M585.65,-709.52C685.28,-709.52 712.66,-709.52 807.49,-709.52"/>
<polygon fill="#29235c" stroke="#29235c" stroke-width="3" points="807.51,-713.02 817.51,-709.52 807.51,-706.02 807.51,-713.02"/>
<text text-anchor="middle" x="826.4" y="-680.72" font-family="Helvetica,sans-Serif" font-size="32.00" fill="#29235c">1</text>
<text text-anchor="middle" x="579.43" y="-719.12" font-family="Helvetica,sans-Serif" font-size="32.00" fill="#29235c">*</text>
</g>
<!-- scrum_comments -->
<g id="scrum_comments" class="node">
<title>scrum_comments</title>
<ellipse fill="none" stroke="black" stroke-width="0" cx="343.65" cy="-546.52" rx="284.01" ry="87.86"/>
<polygon fill="#1d71b8" stroke="transparent" points="144.65,-546.52 144.65,-606.52 542.65,-606.52 542.65,-546.52 144.65,-546.52"/>
<polygon fill="none" stroke="#29235c" points="144.65,-546.52 144.65,-606.52 542.65,-606.52 542.65,-546.52 144.65,-546.52"/>
<text text-anchor="start" x="155.18" y="-567.72" font-family="Helvetica,sans-Serif" font-weight="bold" font-size="32.00" fill="#ffffff"> &#160;&#160;&#160;&#160;&#160;&#160;scrum_comments &#160;&#160;&#160;&#160;&#160;&#160;</text>
<polygon fill="#e7e2dd" stroke="transparent" points="144.65,-486.52 144.65,-546.52 542.65,-546.52 542.65,-486.52 144.65,-486.52"/>
<polygon fill="none" stroke="#29235c" points="144.65,-486.52 144.65,-546.52 542.65,-546.52 542.65,-486.52 144.65,-486.52"/>
<text text-anchor="start" x="155.65" y="-506.72" font-family="Helvetica,sans-Serif" font-size="32.00" fill="#29235c">user_id &#160;&#160;&#160;</text>
<text text-anchor="start" x="497.87" y="-507.72" font-family="Helvetica,sans-Serif" font-style="italic" font-size="32.00" fill="#29235c">int</text>
<polygon fill="none" stroke="#29235c" stroke-width="2" points="143.65,-485.52 143.65,-607.52 543.65,-607.52 543.65,-485.52 143.65,-485.52"/>
</g>
<!-- scrum_comments&#45;&gt;users -->
<!-- scrum_comments&#45;&gt;users -->
<g id="edge10" class="edge">
<title>scrum_comments:e&#45;&gt;users:w</title>
<path fill="none" stroke="#29235c" stroke-width="3" d="M543.65,-516.52C689.07,-516.52 669.63,-700.58 807.32,-709.21"/>
<polygon fill="#29235c" stroke="#29235c" stroke-width="3" points="807.4,-712.71 817.51,-709.52 807.62,-705.71 807.4,-712.71"/>
<text text-anchor="middle" x="808.61" y="-719.12" font-family="Helvetica,sans-Serif" font-size="32.00" fill="#29235c">1</text>
<text text-anchor="middle" x="537.43" y="-526.12" font-family="Helvetica,sans-Serif" font-size="32.00" fill="#29235c">*</text>
</g>
<!-- scrum_tasks -->
<g id="scrum_tasks" class="node">
<title>scrum_tasks</title>
<ellipse fill="none" stroke="black" stroke-width="0" cx="343.65" cy="-310.52" rx="233.19" ry="130.22"/>
<polygon fill="#1d71b8" stroke="transparent" points="180.65,-340.52 180.65,-400.52 506.65,-400.52 506.65,-340.52 180.65,-340.52"/>
<polygon fill="none" stroke="#29235c" points="180.65,-340.52 180.65,-400.52 506.65,-400.52 506.65,-340.52 180.65,-340.52"/>
<text text-anchor="start" x="191.62" y="-361.72" font-family="Helvetica,sans-Serif" font-weight="bold" font-size="32.00" fill="#ffffff"> &#160;&#160;&#160;&#160;&#160;&#160;scrum_tasks &#160;&#160;&#160;&#160;&#160;&#160;</text>
<polygon fill="#e7e2dd" stroke="transparent" points="180.65,-280.52 180.65,-340.52 506.65,-340.52 506.65,-280.52 180.65,-280.52"/>
<polygon fill="none" stroke="#29235c" points="180.65,-280.52 180.65,-340.52 506.65,-340.52 506.65,-280.52 180.65,-280.52"/>
<text text-anchor="start" x="191.65" y="-300.72" font-family="Helvetica,sans-Serif" font-size="32.00" fill="#29235c">pic &#160;&#160;&#160;</text>
<text text-anchor="start" x="461.87" y="-301.72" font-family="Helvetica,sans-Serif" font-style="italic" font-size="32.00" fill="#29235c">int</text>
<polygon fill="#e7e2dd" stroke="transparent" points="180.65,-220.52 180.65,-280.52 506.65,-280.52 506.65,-220.52 180.65,-220.52"/>
<polygon fill="none" stroke="#29235c" points="180.65,-220.52 180.65,-280.52 506.65,-280.52 506.65,-220.52 180.65,-220.52"/>
<text text-anchor="start" x="191.65" y="-240.72" font-family="Helvetica,sans-Serif" font-size="32.00" fill="#29235c">dibuat_oleh &#160;&#160;&#160;</text>
<text text-anchor="start" x="461.87" y="-241.72" font-family="Helvetica,sans-Serif" font-style="italic" font-size="32.00" fill="#29235c">int</text>
<polygon fill="none" stroke="#29235c" stroke-width="2" points="179.65,-219.52 179.65,-401.52 507.65,-401.52 507.65,-219.52 179.65,-219.52"/>
</g>
<!-- scrum_tasks&#45;&gt;users -->
<!-- scrum_tasks&#45;&gt;users -->
<g id="edge12" class="edge">
<title>scrum_tasks:e&#45;&gt;users:w</title>
<path fill="none" stroke="#29235c" stroke-width="3" d="M507.65,-310.52C608.61,-310.52 623.18,-371.55 687.31,-449.52 767.15,-546.6 692.59,-700.8 807.37,-709.16"/>
<polygon fill="#29235c" stroke="#29235c" stroke-width="3" points="807.39,-712.67 817.51,-709.52 807.63,-705.67 807.39,-712.67"/>
<text text-anchor="middle" x="808.61" y="-680.72" font-family="Helvetica,sans-Serif" font-size="32.00" fill="#29235c">1</text>
<text text-anchor="middle" x="501.43" y="-320.12" font-family="Helvetica,sans-Serif" font-size="32.00" fill="#29235c">*</text>
</g>
<!-- scrum_tasks&#45;&gt;users -->
<!-- scrum_tasks&#45;&gt;users -->
<g id="edge14" class="edge">
<title>scrum_tasks:e&#45;&gt;users:w</title>
<path fill="none" stroke="#29235c" stroke-width="3" d="M507.65,-250.52C626.81,-250.52 620.1,-351.13 687.31,-449.52 758.21,-553.31 692.1,-701.17 807.35,-709.18"/>
<polygon fill="#29235c" stroke="#29235c" stroke-width="3" points="807.39,-712.68 817.51,-709.52 807.63,-705.69 807.39,-712.68"/>
<text text-anchor="middle" x="826.4" y="-719.12" font-family="Helvetica,sans-Serif" font-size="32.00" fill="#29235c">1</text>
<text text-anchor="middle" x="501.43" y="-260.12" font-family="Helvetica,sans-Serif" font-size="32.00" fill="#29235c">*</text>
</g>
</g>
</svg>
