<?xml version="1.0" encoding="UTF-8" standalone="no"?>
<!DOCTYPE svg PUBLIC "-//W3C//DTD SVG 1.1//EN"
 "http://www.w3.org/Graphics/SVG/1.1/DTD/svg11.dtd">
<!-- Generated by graphviz version 2.47.0 (20210316.0004)
 -->
<!-- Title: dbml Pages: 1 -->
<svg width="431pt" height="183pt"
 viewBox="0.00 0.00 430.85 183.36" xmlns="http://www.w3.org/2000/svg" xmlns:xlink="http://www.w3.org/1999/xlink">
<g id="graph0" class="graph" transform="scale(1 1) rotate(0) translate(4 179.36)">
<title>dbml</title>
<!-- user_story -->
<g id="user_story" class="node">
<title>user_story</title>
<ellipse fill="none" stroke="black" stroke-width="0" cx="211.42" cy="-87.68" rx="211.35" ry="87.86"/>
<polygon fill="#1d71b8" stroke="transparent" points="64.42,-87.68 64.42,-147.68 359.42,-147.68 359.42,-87.68 64.42,-87.68"/>
<polygon fill="none" stroke="#29235c" points="64.42,-87.68 64.42,-147.68 359.42,-147.68 359.42,-87.68 64.42,-87.68"/>
<text text-anchor="start" x="75" y="-108.88" font-family="Helvetica,sans-Serif" font-weight="bold" font-size="32.00" fill="#ffffff"> &#160;&#160;&#160;&#160;&#160;&#160;user_story &#160;&#160;&#160;&#160;&#160;&#160;</text>
<polygon fill="#e7e2dd" stroke="transparent" points="64.42,-27.68 64.42,-87.68 359.42,-87.68 359.42,-27.68 64.42,-27.68"/>
<polygon fill="none" stroke="#29235c" points="64.42,-27.68 64.42,-87.68 359.42,-87.68 359.42,-27.68 64.42,-27.68"/>
<text text-anchor="start" x="75.42" y="-48.88" font-family="Helvetica,sans-Serif" font-weight="bold" font-size="32.00" fill="#29235c">id</text>
<text text-anchor="start" x="100.31" y="-48.88" font-family="Helvetica,sans-Serif" font-size="32.00" fill="#29235c"> &#160;&#160;&#160;</text>
<text text-anchor="start" x="314.64" y="-48.88" font-family="Helvetica,sans-Serif" font-style="italic" font-size="32.00" fill="#29235c">int</text>
<polygon fill="none" stroke="#29235c" stroke-width="2" points="62.92,-26.68 62.92,-148.68 359.92,-148.68 359.92,-26.68 62.92,-26.68"/>
</g>
</g>
</svg>
