<?xml version="1.0" encoding="UTF-8" standalone="no"?>
<!DOCTYPE svg PUBLIC "-//W3C//DTD SVG 1.1//EN"
 "http://www.w3.org/Graphics/SVG/1.1/DTD/svg11.dtd">
<!-- Generated by graphviz version 2.47.0 (20210316.0004)
 -->
<!-- Title: dbml Pages: 1 -->
<svg width="1146pt" height="1394pt"
 viewBox="0.00 0.00 1145.67 1394.48" xmlns="http://www.w3.org/2000/svg" xmlns:xlink="http://www.w3.org/1999/xlink">
<g id="graph0" class="graph" transform="scale(1 1) rotate(0) translate(4 1390.48)">
<title>dbml</title>
<!-- projects -->
<g id="projects" class="node">
<title>projects</title>
<ellipse fill="none" stroke="black" stroke-width="0" cx="877.46" cy="-384.67" rx="260.43" ry="384.83"/>
<polygon fill="#1d71b8" stroke="transparent" points="695.46,-594.67 695.46,-654.67 1059.46,-654.67 1059.46,-594.67 695.46,-594.67"/>
<polygon fill="none" stroke="#29235c" points="695.46,-594.67 695.46,-654.67 1059.46,-654.67 1059.46,-594.67 695.46,-594.67"/>
<text text-anchor="start" x="759.2" y="-615.87" font-family="Helvetica,sans-Serif" font-weight="bold" font-size="32.00" fill="#ffffff"> &#160;&#160;&#160;&#160;&#160;&#160;projects &#160;&#160;&#160;&#160;&#160;&#160;</text>
<polygon fill="#e7e2dd" stroke="transparent" points="695.46,-534.67 695.46,-594.67 1059.46,-594.67 1059.46,-534.67 695.46,-534.67"/>
<polygon fill="none" stroke="#29235c" points="695.46,-534.67 695.46,-594.67 1059.46,-594.67 1059.46,-534.67 695.46,-534.67"/>
<text text-anchor="start" x="706.46" y="-555.87" font-family="Helvetica,sans-Serif" font-weight="bold" font-size="32.00" fill="#29235c">id</text>
<text text-anchor="start" x="731.35" y="-555.87" font-family="Helvetica,sans-Serif" font-size="32.00" fill="#29235c"> &#160;&#160;&#160;</text>
<text text-anchor="start" x="1014.67" y="-555.87" font-family="Helvetica,sans-Serif" font-style="italic" font-size="32.00" fill="#29235c">int</text>
<polygon fill="#e7e2dd" stroke="transparent" points="695.46,-474.67 695.46,-534.67 1059.46,-534.67 1059.46,-474.67 695.46,-474.67"/>
<polygon fill="none" stroke="#29235c" points="695.46,-474.67 695.46,-534.67 1059.46,-534.67 1059.46,-474.67 695.46,-474.67"/>
<text text-anchor="start" x="706.46" y="-494.87" font-family="Helvetica,sans-Serif" font-size="32.00" fill="#29235c">name &#160;&#160;&#160;</text>
<text text-anchor="start" x="941.79" y="-495.87" font-family="Helvetica,sans-Serif" font-style="italic" font-size="32.00" fill="#29235c">varchar</text>
<polygon fill="#e7e2dd" stroke="transparent" points="695.46,-414.67 695.46,-474.67 1059.46,-474.67 1059.46,-414.67 695.46,-414.67"/>
<polygon fill="none" stroke="#29235c" points="695.46,-414.67 695.46,-474.67 1059.46,-474.67 1059.46,-414.67 695.46,-414.67"/>
<text text-anchor="start" x="706.46" y="-434.87" font-family="Helvetica,sans-Serif" font-size="32.00" fill="#29235c">description &#160;&#160;&#160;</text>
<text text-anchor="start" x="996.88" y="-435.87" font-family="Helvetica,sans-Serif" font-style="italic" font-size="32.00" fill="#29235c">text</text>
<polygon fill="#e7e2dd" stroke="transparent" points="695.46,-354.67 695.46,-414.67 1059.46,-414.67 1059.46,-354.67 695.46,-354.67"/>
<polygon fill="none" stroke="#29235c" points="695.46,-354.67 695.46,-414.67 1059.46,-414.67 1059.46,-354.67 695.46,-354.67"/>
<text text-anchor="start" x="706.46" y="-374.87" font-family="Helvetica,sans-Serif" font-size="32.00" fill="#29235c">start_date &#160;&#160;&#160;</text>
<text text-anchor="start" x="986.2" y="-375.87" font-family="Helvetica,sans-Serif" font-style="italic" font-size="32.00" fill="#29235c">date</text>
<polygon fill="#e7e2dd" stroke="transparent" points="695.46,-294.67 695.46,-354.67 1059.46,-354.67 1059.46,-294.67 695.46,-294.67"/>
<polygon fill="none" stroke="#29235c" points="695.46,-294.67 695.46,-354.67 1059.46,-354.67 1059.46,-294.67 695.46,-294.67"/>
<text text-anchor="start" x="706.46" y="-314.87" font-family="Helvetica,sans-Serif" font-size="32.00" fill="#29235c">end_date &#160;&#160;&#160;</text>
<text text-anchor="start" x="986.2" y="-315.87" font-family="Helvetica,sans-Serif" font-style="italic" font-size="32.00" fill="#29235c">date</text>
<polygon fill="#e7e2dd" stroke="transparent" points="695.46,-234.67 695.46,-294.67 1059.46,-294.67 1059.46,-234.67 695.46,-234.67"/>
<polygon fill="none" stroke="#29235c" points="695.46,-234.67 695.46,-294.67 1059.46,-294.67 1059.46,-234.67 695.46,-234.67"/>
<text text-anchor="start" x="706.46" y="-254.87" font-family="Helvetica,sans-Serif" font-size="32.00" fill="#29235c">divisi_id &#160;&#160;&#160;</text>
<text text-anchor="start" x="1014.67" y="-255.87" font-family="Helvetica,sans-Serif" font-style="italic" font-size="32.00" fill="#29235c">int</text>
<polygon fill="#e7e2dd" stroke="transparent" points="695.46,-174.67 695.46,-234.67 1059.46,-234.67 1059.46,-174.67 695.46,-174.67"/>
<polygon fill="none" stroke="#29235c" points="695.46,-174.67 695.46,-234.67 1059.46,-234.67 1059.46,-174.67 695.46,-174.67"/>
<text text-anchor="start" x="706.46" y="-194.87" font-family="Helvetica,sans-Serif" font-size="32.00" fill="#29235c">created_at &#160;&#160;&#160;</text>
<text text-anchor="start" x="900.9" y="-195.87" font-family="Helvetica,sans-Serif" font-style="italic" font-size="32.00" fill="#29235c">timestamp</text>
<polygon fill="#e7e2dd" stroke="transparent" points="695.46,-114.67 695.46,-174.67 1059.46,-174.67 1059.46,-114.67 695.46,-114.67"/>
<polygon fill="none" stroke="#29235c" points="695.46,-114.67 695.46,-174.67 1059.46,-174.67 1059.46,-114.67 695.46,-114.67"/>
<text text-anchor="start" x="706.12" y="-134.87" font-family="Helvetica,sans-Serif" font-size="32.00" fill="#29235c">updated_at &#160;&#160;&#160;</text>
<text text-anchor="start" x="901.18" y="-135.87" font-family="Helvetica,sans-Serif" font-style="italic" font-size="32.00" fill="#29235c">timestamp</text>
<polygon fill="none" stroke="#29235c" stroke-width="2" points="694.46,-113.67 694.46,-655.67 1060.46,-655.67 1060.46,-113.67 694.46,-113.67"/>
</g>
<!-- users -->
<g id="users" class="node">
<title>users</title>
<ellipse fill="none" stroke="black" stroke-width="0" cx="877.46" cy="-1086.67" rx="260.43" ry="299.63"/>
<polygon fill="#1d71b8" stroke="transparent" points="695.46,-1236.67 695.46,-1296.67 1059.46,-1296.67 1059.46,-1236.67 695.46,-1236.67"/>
<polygon fill="none" stroke="#29235c" points="695.46,-1236.67 695.46,-1296.67 1059.46,-1296.67 1059.46,-1236.67 695.46,-1236.67"/>
<text text-anchor="start" x="776.09" y="-1257.87" font-family="Helvetica,sans-Serif" font-weight="bold" font-size="32.00" fill="#ffffff"> &#160;&#160;&#160;&#160;&#160;&#160;users &#160;&#160;&#160;&#160;&#160;&#160;</text>
<polygon fill="#e7e2dd" stroke="transparent" points="695.46,-1176.67 695.46,-1236.67 1059.46,-1236.67 1059.46,-1176.67 695.46,-1176.67"/>
<polygon fill="none" stroke="#29235c" points="695.46,-1176.67 695.46,-1236.67 1059.46,-1236.67 1059.46,-1176.67 695.46,-1176.67"/>
<text text-anchor="start" x="706.46" y="-1197.87" font-family="Helvetica,sans-Serif" font-weight="bold" font-size="32.00" fill="#29235c">id</text>
<text text-anchor="start" x="731.35" y="-1197.87" font-family="Helvetica,sans-Serif" font-size="32.00" fill="#29235c"> &#160;&#160;&#160;</text>
<text text-anchor="start" x="1014.67" y="-1197.87" font-family="Helvetica,sans-Serif" font-style="italic" font-size="32.00" fill="#29235c">int</text>
<polygon fill="#e7e2dd" stroke="transparent" points="695.46,-1116.67 695.46,-1176.67 1059.46,-1176.67 1059.46,-1116.67 695.46,-1116.67"/>
<polygon fill="none" stroke="#29235c" points="695.46,-1116.67 695.46,-1176.67 1059.46,-1176.67 1059.46,-1116.67 695.46,-1116.67"/>
<text text-anchor="start" x="706.46" y="-1136.87" font-family="Helvetica,sans-Serif" font-size="32.00" fill="#29235c">username &#160;&#160;&#160;</text>
<text text-anchor="start" x="902.69" y="-1137.87" font-family="Helvetica,sans-Serif" font-style="italic" font-size="32.00" fill="#29235c">varchar</text>
<text text-anchor="start" x="1009.37" y="-1137.87" font-family="Helvetica,sans-Serif" font-size="32.00" fill="#29235c"> </text>
<text text-anchor="start" x="1018.26" y="-1137.87" font-family="Helvetica,sans-Serif" font-weight="bold" font-size="32.00" fill="#29235c">(!)</text>
<polygon fill="#e7e2dd" stroke="transparent" points="695.46,-1056.67 695.46,-1116.67 1059.46,-1116.67 1059.46,-1056.67 695.46,-1056.67"/>
<polygon fill="none" stroke="#29235c" points="695.46,-1056.67 695.46,-1116.67 1059.46,-1116.67 1059.46,-1056.67 695.46,-1056.67"/>
<text text-anchor="start" x="706.46" y="-1076.87" font-family="Helvetica,sans-Serif" font-size="32.00" fill="#29235c">email &#160;&#160;&#160;</text>
<text text-anchor="start" x="902.69" y="-1077.87" font-family="Helvetica,sans-Serif" font-style="italic" font-size="32.00" fill="#29235c">varchar</text>
<text text-anchor="start" x="1009.37" y="-1077.87" font-family="Helvetica,sans-Serif" font-size="32.00" fill="#29235c"> </text>
<text text-anchor="start" x="1018.26" y="-1077.87" font-family="Helvetica,sans-Serif" font-weight="bold" font-size="32.00" fill="#29235c">(!)</text>
<polygon fill="#e7e2dd" stroke="transparent" points="695.46,-996.67 695.46,-1056.67 1059.46,-1056.67 1059.46,-996.67 695.46,-996.67"/>
<polygon fill="none" stroke="#29235c" points="695.46,-996.67 695.46,-1056.67 1059.46,-1056.67 1059.46,-996.67 695.46,-996.67"/>
<text text-anchor="start" x="706.46" y="-1016.87" font-family="Helvetica,sans-Serif" font-size="32.00" fill="#29235c">password &#160;&#160;&#160;</text>
<text text-anchor="start" x="902.69" y="-1017.87" font-family="Helvetica,sans-Serif" font-style="italic" font-size="32.00" fill="#29235c">varchar</text>
<text text-anchor="start" x="1009.37" y="-1017.87" font-family="Helvetica,sans-Serif" font-size="32.00" fill="#29235c"> </text>
<text text-anchor="start" x="1018.26" y="-1017.87" font-family="Helvetica,sans-Serif" font-weight="bold" font-size="32.00" fill="#29235c">(!)</text>
<polygon fill="#e7e2dd" stroke="transparent" points="695.46,-936.67 695.46,-996.67 1059.46,-996.67 1059.46,-936.67 695.46,-936.67"/>
<polygon fill="none" stroke="#29235c" points="695.46,-936.67 695.46,-996.67 1059.46,-996.67 1059.46,-936.67 695.46,-936.67"/>
<text text-anchor="start" x="706.46" y="-956.87" font-family="Helvetica,sans-Serif" font-size="32.00" fill="#29235c">created_at &#160;&#160;&#160;</text>
<text text-anchor="start" x="900.9" y="-957.87" font-family="Helvetica,sans-Serif" font-style="italic" font-size="32.00" fill="#29235c">timestamp</text>
<polygon fill="#e7e2dd" stroke="transparent" points="695.46,-876.67 695.46,-936.67 1059.46,-936.67 1059.46,-876.67 695.46,-876.67"/>
<polygon fill="none" stroke="#29235c" points="695.46,-876.67 695.46,-936.67 1059.46,-936.67 1059.46,-876.67 695.46,-876.67"/>
<text text-anchor="start" x="706.12" y="-896.87" font-family="Helvetica,sans-Serif" font-size="32.00" fill="#29235c">updated_at &#160;&#160;&#160;</text>
<text text-anchor="start" x="901.18" y="-897.87" font-family="Helvetica,sans-Serif" font-style="italic" font-size="32.00" fill="#29235c">timestamp</text>
<polygon fill="none" stroke="#29235c" stroke-width="2" points="694.46,-875.67 694.46,-1297.67 1060.46,-1297.67 1060.46,-875.67 694.46,-875.67"/>
</g>
<!-- user_has_projects -->
<g id="user_has_projects" class="node">
<title>user_has_projects</title>
<ellipse fill="none" stroke="black" stroke-width="0" cx="290.62" cy="-915.67" rx="290.74" ry="172.57"/>
<polygon fill="#1d71b8" stroke="transparent" points="87.62,-975.67 87.62,-1035.67 494.62,-1035.67 494.62,-975.67 87.62,-975.67"/>
<polygon fill="none" stroke="#29235c" points="87.62,-975.67 87.62,-1035.67 494.62,-1035.67 494.62,-975.67 87.62,-975.67"/>
<text text-anchor="start" x="98.17" y="-996.87" font-family="Helvetica,sans-Serif" font-weight="bold" font-size="32.00" fill="#ffffff"> &#160;&#160;&#160;&#160;&#160;&#160;user_has_projects &#160;&#160;&#160;&#160;&#160;&#160;</text>
<polygon fill="#e7e2dd" stroke="transparent" points="87.62,-915.67 87.62,-975.67 494.62,-975.67 494.62,-915.67 87.62,-915.67"/>
<polygon fill="none" stroke="#29235c" points="87.62,-915.67 87.62,-975.67 494.62,-975.67 494.62,-915.67 87.62,-915.67"/>
<text text-anchor="start" x="98.62" y="-936.87" font-family="Helvetica,sans-Serif" font-weight="bold" font-size="32.00" fill="#29235c">id</text>
<text text-anchor="start" x="123.51" y="-936.87" font-family="Helvetica,sans-Serif" font-size="32.00" fill="#29235c"> &#160;&#160;&#160;</text>
<text text-anchor="start" x="449.84" y="-936.87" font-family="Helvetica,sans-Serif" font-style="italic" font-size="32.00" fill="#29235c">int</text>
<polygon fill="#e7e2dd" stroke="transparent" points="87.62,-855.67 87.62,-915.67 494.62,-915.67 494.62,-855.67 87.62,-855.67"/>
<polygon fill="none" stroke="#29235c" points="87.62,-855.67 87.62,-915.67 494.62,-915.67 494.62,-855.67 87.62,-855.67"/>
<text text-anchor="start" x="98.62" y="-875.87" font-family="Helvetica,sans-Serif" font-size="32.00" fill="#29235c">user_id &#160;&#160;&#160;</text>
<text text-anchor="start" x="449.84" y="-876.87" font-family="Helvetica,sans-Serif" font-style="italic" font-size="32.00" fill="#29235c">int</text>
<polygon fill="#e7e2dd" stroke="transparent" points="87.62,-795.67 87.62,-855.67 494.62,-855.67 494.62,-795.67 87.62,-795.67"/>
<polygon fill="none" stroke="#29235c" points="87.62,-795.67 87.62,-855.67 494.62,-855.67 494.62,-795.67 87.62,-795.67"/>
<text text-anchor="start" x="98.62" y="-815.87" font-family="Helvetica,sans-Serif" font-size="32.00" fill="#29235c">project_id &#160;&#160;&#160;</text>
<text text-anchor="start" x="449.84" y="-816.87" font-family="Helvetica,sans-Serif" font-style="italic" font-size="32.00" fill="#29235c">int</text>
<polygon fill="none" stroke="#29235c" stroke-width="2" points="86.12,-794.67 86.12,-1036.67 495.12,-1036.67 495.12,-794.67 86.12,-794.67"/>
</g>
<!-- user_has_projects&#45;&gt;projects -->
<!-- user_has_projects&#45;&gt;projects -->
<g id="edge4" class="edge">
<title>user_has_projects:e&#45;&gt;projects:w</title>
<path fill="none" stroke="#29235c" stroke-width="3" d="M495.62,-825.67C637.89,-825.67 553.02,-577.25 684.2,-565.13"/>
<polygon fill="#29235c" stroke="#29235c" stroke-width="3" points="684.62,-568.61 694.46,-564.67 684.31,-561.62 684.62,-568.61"/>
<text text-anchor="middle" x="685.56" y="-535.87" font-family="Helvetica,sans-Serif" font-size="32.00" fill="#29235c">1</text>
<text text-anchor="middle" x="489.4" y="-835.27" font-family="Helvetica,sans-Serif" font-size="32.00" fill="#29235c">*</text>
</g>
<!-- user_has_projects&#45;&gt;users -->
<!-- user_has_projects&#45;&gt;users -->
<g id="edge2" class="edge">
<title>user_has_projects:e&#45;&gt;users:w</title>
<path fill="none" stroke="#29235c" stroke-width="3" d="M495.62,-885.67C659.83,-885.67 532.38,-1193.02 684.06,-1206.23"/>
<polygon fill="#29235c" stroke="#29235c" stroke-width="3" points="684.32,-1209.74 694.46,-1206.67 684.61,-1202.75 684.32,-1209.74"/>
<text text-anchor="middle" x="685.56" y="-1216.27" font-family="Helvetica,sans-Serif" font-size="32.00" fill="#29235c">1</text>
<text text-anchor="middle" x="489.4" y="-895.27" font-family="Helvetica,sans-Serif" font-size="32.00" fill="#29235c">*</text>
</g>
</g>
</svg>
