<?xml version="1.0" encoding="UTF-8" standalone="no"?>
<!DOCTYPE svg PUBLIC "-//W3C//DTD SVG 1.1//EN"
 "http://www.w3.org/Graphics/SVG/1.1/DTD/svg11.dtd">
<!-- Generated by graphviz version 2.47.0 (20210316.0004)
 -->
<!-- Title: dbml Pages: 1 -->
<svg width="2898pt" height="1379pt"
 viewBox="0.00 0.00 2898.40 1378.73" xmlns="http://www.w3.org/2000/svg" xmlns:xlink="http://www.w3.org/1999/xlink">
<g id="graph0" class="graph" transform="scale(1 1) rotate(0) translate(4 1374.73)">
<title>dbml</title>
<!-- roles -->
<g id="roles" class="node">
<title>roles</title>
<ellipse fill="none" stroke="black" stroke-width="0" cx="1517.33" cy="-402.37" rx="260.43" ry="214.92"/>
<polygon fill="#1d71b8" stroke="transparent" points="1335.33,-492.37 1335.33,-552.37 1699.33,-552.37 1699.33,-492.37 1335.33,-492.37"/>
<polygon fill="none" stroke="#29235c" points="1335.33,-492.37 1335.33,-552.37 1699.33,-552.37 1699.33,-492.37 1335.33,-492.37"/>
<text text-anchor="start" x="1420.41" y="-513.57" font-family="Helvetica,sans-Serif" font-weight="bold" font-size="32.00" fill="#ffffff"> &#160;&#160;&#160;&#160;&#160;&#160;roles &#160;&#160;&#160;&#160;&#160;&#160;</text>
<polygon fill="#e7e2dd" stroke="transparent" points="1335.33,-432.37 1335.33,-492.37 1699.33,-492.37 1699.33,-432.37 1335.33,-432.37"/>
<polygon fill="none" stroke="#29235c" points="1335.33,-432.37 1335.33,-492.37 1699.33,-492.37 1699.33,-432.37 1335.33,-432.37"/>
<text text-anchor="start" x="1346.33" y="-453.57" font-family="Helvetica,sans-Serif" font-weight="bold" font-size="32.00" fill="#29235c">id</text>
<text text-anchor="start" x="1371.22" y="-453.57" font-family="Helvetica,sans-Serif" font-size="32.00" fill="#29235c"> &#160;&#160;&#160;</text>
<text text-anchor="start" x="1654.54" y="-453.57" font-family="Helvetica,sans-Serif" font-style="italic" font-size="32.00" fill="#29235c">int</text>
<polygon fill="#e7e2dd" stroke="transparent" points="1335.33,-372.37 1335.33,-432.37 1699.33,-432.37 1699.33,-372.37 1335.33,-372.37"/>
<polygon fill="none" stroke="#29235c" points="1335.33,-372.37 1335.33,-432.37 1699.33,-432.37 1699.33,-372.37 1335.33,-372.37"/>
<text text-anchor="start" x="1346.33" y="-392.57" font-family="Helvetica,sans-Serif" font-size="32.00" fill="#29235c">name &#160;&#160;&#160;</text>
<text text-anchor="start" x="1581.65" y="-393.57" font-family="Helvetica,sans-Serif" font-style="italic" font-size="32.00" fill="#29235c">varchar</text>
<polygon fill="#e7e2dd" stroke="transparent" points="1335.33,-312.37 1335.33,-372.37 1699.33,-372.37 1699.33,-312.37 1335.33,-312.37"/>
<polygon fill="none" stroke="#29235c" points="1335.33,-312.37 1335.33,-372.37 1699.33,-372.37 1699.33,-312.37 1335.33,-312.37"/>
<text text-anchor="start" x="1346.33" y="-332.57" font-family="Helvetica,sans-Serif" font-size="32.00" fill="#29235c">created_at &#160;&#160;&#160;</text>
<text text-anchor="start" x="1540.77" y="-333.57" font-family="Helvetica,sans-Serif" font-style="italic" font-size="32.00" fill="#29235c">timestamp</text>
<polygon fill="#e7e2dd" stroke="transparent" points="1335.33,-252.37 1335.33,-312.37 1699.33,-312.37 1699.33,-252.37 1335.33,-252.37"/>
<polygon fill="none" stroke="#29235c" points="1335.33,-252.37 1335.33,-312.37 1699.33,-312.37 1699.33,-252.37 1335.33,-252.37"/>
<text text-anchor="start" x="1345.99" y="-272.57" font-family="Helvetica,sans-Serif" font-size="32.00" fill="#29235c">updated_at &#160;&#160;&#160;</text>
<text text-anchor="start" x="1541.05" y="-273.57" font-family="Helvetica,sans-Serif" font-style="italic" font-size="32.00" fill="#29235c">timestamp</text>
<polygon fill="none" stroke="#29235c" stroke-width="2" points="1334.33,-251.37 1334.33,-553.37 1700.33,-553.37 1700.33,-251.37 1334.33,-251.37"/>
</g>
<!-- levels -->
<g id="levels" class="node">
<title>levels</title>
<ellipse fill="none" stroke="black" stroke-width="0" cx="2073.76" cy="-547.37" rx="260.43" ry="214.92"/>
<polygon fill="#1d71b8" stroke="transparent" points="1891.76,-637.37 1891.76,-697.37 2255.76,-697.37 2255.76,-637.37 1891.76,-637.37"/>
<polygon fill="none" stroke="#29235c" points="1891.76,-637.37 1891.76,-697.37 2255.76,-697.37 2255.76,-637.37 1891.76,-637.37"/>
<text text-anchor="start" x="1970.62" y="-658.57" font-family="Helvetica,sans-Serif" font-weight="bold" font-size="32.00" fill="#ffffff"> &#160;&#160;&#160;&#160;&#160;&#160;levels &#160;&#160;&#160;&#160;&#160;&#160;</text>
<polygon fill="#e7e2dd" stroke="transparent" points="1891.76,-577.37 1891.76,-637.37 2255.76,-637.37 2255.76,-577.37 1891.76,-577.37"/>
<polygon fill="none" stroke="#29235c" points="1891.76,-577.37 1891.76,-637.37 2255.76,-637.37 2255.76,-577.37 1891.76,-577.37"/>
<text text-anchor="start" x="1902.76" y="-598.57" font-family="Helvetica,sans-Serif" font-weight="bold" font-size="32.00" fill="#29235c">id</text>
<text text-anchor="start" x="1927.65" y="-598.57" font-family="Helvetica,sans-Serif" font-size="32.00" fill="#29235c"> &#160;&#160;&#160;</text>
<text text-anchor="start" x="2210.97" y="-598.57" font-family="Helvetica,sans-Serif" font-style="italic" font-size="32.00" fill="#29235c">int</text>
<polygon fill="#e7e2dd" stroke="transparent" points="1891.76,-517.37 1891.76,-577.37 2255.76,-577.37 2255.76,-517.37 1891.76,-517.37"/>
<polygon fill="none" stroke="#29235c" points="1891.76,-517.37 1891.76,-577.37 2255.76,-577.37 2255.76,-517.37 1891.76,-517.37"/>
<text text-anchor="start" x="1902.76" y="-537.57" font-family="Helvetica,sans-Serif" font-size="32.00" fill="#29235c">name &#160;&#160;&#160;</text>
<text text-anchor="start" x="2098.99" y="-538.57" font-family="Helvetica,sans-Serif" font-style="italic" font-size="32.00" fill="#29235c">varchar</text>
<text text-anchor="start" x="2205.67" y="-538.57" font-family="Helvetica,sans-Serif" font-size="32.00" fill="#29235c"> </text>
<text text-anchor="start" x="2214.56" y="-538.57" font-family="Helvetica,sans-Serif" font-weight="bold" font-size="32.00" fill="#29235c">(!)</text>
<polygon fill="#e7e2dd" stroke="transparent" points="1891.76,-457.37 1891.76,-517.37 2255.76,-517.37 2255.76,-457.37 1891.76,-457.37"/>
<polygon fill="none" stroke="#29235c" points="1891.76,-457.37 1891.76,-517.37 2255.76,-517.37 2255.76,-457.37 1891.76,-457.37"/>
<text text-anchor="start" x="1902.76" y="-477.57" font-family="Helvetica,sans-Serif" font-size="32.00" fill="#29235c">created_at &#160;&#160;&#160;</text>
<text text-anchor="start" x="2097.2" y="-478.57" font-family="Helvetica,sans-Serif" font-style="italic" font-size="32.00" fill="#29235c">timestamp</text>
<polygon fill="#e7e2dd" stroke="transparent" points="1891.76,-397.37 1891.76,-457.37 2255.76,-457.37 2255.76,-397.37 1891.76,-397.37"/>
<polygon fill="none" stroke="#29235c" points="1891.76,-397.37 1891.76,-457.37 2255.76,-457.37 2255.76,-397.37 1891.76,-397.37"/>
<text text-anchor="start" x="1902.42" y="-417.57" font-family="Helvetica,sans-Serif" font-size="32.00" fill="#29235c">updated_at &#160;&#160;&#160;</text>
<text text-anchor="start" x="2097.48" y="-418.57" font-family="Helvetica,sans-Serif" font-style="italic" font-size="32.00" fill="#29235c">timestamp</text>
<polygon fill="none" stroke="#29235c" stroke-width="2" points="1890.76,-396.37 1890.76,-698.37 2256.76,-698.37 2256.76,-396.37 1890.76,-396.37"/>
</g>
<!-- positions -->
<g id="positions" class="node">
<title>positions</title>
<ellipse fill="none" stroke="black" stroke-width="0" cx="2073.76" cy="-1037.37" rx="260.43" ry="257.27"/>
<polygon fill="#1d71b8" stroke="transparent" points="1891.76,-1157.37 1891.76,-1217.37 2255.76,-1217.37 2255.76,-1157.37 1891.76,-1157.37"/>
<polygon fill="none" stroke="#29235c" points="1891.76,-1157.37 1891.76,-1217.37 2255.76,-1217.37 2255.76,-1157.37 1891.76,-1157.37"/>
<text text-anchor="start" x="1948.38" y="-1178.57" font-family="Helvetica,sans-Serif" font-weight="bold" font-size="32.00" fill="#ffffff"> &#160;&#160;&#160;&#160;&#160;&#160;positions &#160;&#160;&#160;&#160;&#160;&#160;</text>
<polygon fill="#e7e2dd" stroke="transparent" points="1891.76,-1097.37 1891.76,-1157.37 2255.76,-1157.37 2255.76,-1097.37 1891.76,-1097.37"/>
<polygon fill="none" stroke="#29235c" points="1891.76,-1097.37 1891.76,-1157.37 2255.76,-1157.37 2255.76,-1097.37 1891.76,-1097.37"/>
<text text-anchor="start" x="1902.76" y="-1118.57" font-family="Helvetica,sans-Serif" font-weight="bold" font-size="32.00" fill="#29235c">id</text>
<text text-anchor="start" x="1927.65" y="-1118.57" font-family="Helvetica,sans-Serif" font-size="32.00" fill="#29235c"> &#160;&#160;&#160;</text>
<text text-anchor="start" x="2210.97" y="-1118.57" font-family="Helvetica,sans-Serif" font-style="italic" font-size="32.00" fill="#29235c">int</text>
<polygon fill="#e7e2dd" stroke="transparent" points="1891.76,-1037.37 1891.76,-1097.37 2255.76,-1097.37 2255.76,-1037.37 1891.76,-1037.37"/>
<polygon fill="none" stroke="#29235c" points="1891.76,-1037.37 1891.76,-1097.37 2255.76,-1097.37 2255.76,-1037.37 1891.76,-1037.37"/>
<text text-anchor="start" x="1902.76" y="-1057.57" font-family="Helvetica,sans-Serif" font-size="32.00" fill="#29235c">name &#160;&#160;&#160;</text>
<text text-anchor="start" x="2098.99" y="-1058.57" font-family="Helvetica,sans-Serif" font-style="italic" font-size="32.00" fill="#29235c">varchar</text>
<text text-anchor="start" x="2205.67" y="-1058.57" font-family="Helvetica,sans-Serif" font-size="32.00" fill="#29235c"> </text>
<text text-anchor="start" x="2214.56" y="-1058.57" font-family="Helvetica,sans-Serif" font-weight="bold" font-size="32.00" fill="#29235c">(!)</text>
<polygon fill="#e7e2dd" stroke="transparent" points="1891.76,-977.37 1891.76,-1037.37 2255.76,-1037.37 2255.76,-977.37 1891.76,-977.37"/>
<polygon fill="none" stroke="#29235c" points="1891.76,-977.37 1891.76,-1037.37 2255.76,-1037.37 2255.76,-977.37 1891.76,-977.37"/>
<text text-anchor="start" x="1902.76" y="-997.57" font-family="Helvetica,sans-Serif" font-size="32.00" fill="#29235c">department_id &#160;&#160;&#160;</text>
<text text-anchor="start" x="2210.97" y="-998.57" font-family="Helvetica,sans-Serif" font-style="italic" font-size="32.00" fill="#29235c">int</text>
<polygon fill="#e7e2dd" stroke="transparent" points="1891.76,-917.37 1891.76,-977.37 2255.76,-977.37 2255.76,-917.37 1891.76,-917.37"/>
<polygon fill="none" stroke="#29235c" points="1891.76,-917.37 1891.76,-977.37 2255.76,-977.37 2255.76,-917.37 1891.76,-917.37"/>
<text text-anchor="start" x="1902.76" y="-937.57" font-family="Helvetica,sans-Serif" font-size="32.00" fill="#29235c">created_at &#160;&#160;&#160;</text>
<text text-anchor="start" x="2097.2" y="-938.57" font-family="Helvetica,sans-Serif" font-style="italic" font-size="32.00" fill="#29235c">timestamp</text>
<polygon fill="#e7e2dd" stroke="transparent" points="1891.76,-857.37 1891.76,-917.37 2255.76,-917.37 2255.76,-857.37 1891.76,-857.37"/>
<polygon fill="none" stroke="#29235c" points="1891.76,-857.37 1891.76,-917.37 2255.76,-917.37 2255.76,-857.37 1891.76,-857.37"/>
<text text-anchor="start" x="1902.42" y="-877.57" font-family="Helvetica,sans-Serif" font-size="32.00" fill="#29235c">updated_at &#160;&#160;&#160;</text>
<text text-anchor="start" x="2097.48" y="-878.57" font-family="Helvetica,sans-Serif" font-style="italic" font-size="32.00" fill="#29235c">timestamp</text>
<polygon fill="none" stroke="#29235c" stroke-width="2" points="1890.76,-856.37 1890.76,-1218.37 2256.76,-1218.37 2256.76,-856.37 1890.76,-856.37"/>
</g>
<!-- departments -->
<g id="departments" class="node">
<title>departments</title>
<ellipse fill="none" stroke="black" stroke-width="0" cx="2630.19" cy="-1067.37" rx="260.43" ry="214.92"/>
<polygon fill="#1d71b8" stroke="transparent" points="2448.19,-1157.37 2448.19,-1217.37 2812.19,-1217.37 2812.19,-1157.37 2448.19,-1157.37"/>
<polygon fill="none" stroke="#29235c" points="2448.19,-1157.37 2448.19,-1217.37 2812.19,-1217.37 2812.19,-1157.37 2448.19,-1157.37"/>
<text text-anchor="start" x="2479.03" y="-1178.57" font-family="Helvetica,sans-Serif" font-weight="bold" font-size="32.00" fill="#ffffff"> &#160;&#160;&#160;&#160;&#160;&#160;departments &#160;&#160;&#160;&#160;&#160;&#160;</text>
<polygon fill="#e7e2dd" stroke="transparent" points="2448.19,-1097.37 2448.19,-1157.37 2812.19,-1157.37 2812.19,-1097.37 2448.19,-1097.37"/>
<polygon fill="none" stroke="#29235c" points="2448.19,-1097.37 2448.19,-1157.37 2812.19,-1157.37 2812.19,-1097.37 2448.19,-1097.37"/>
<text text-anchor="start" x="2459.19" y="-1118.57" font-family="Helvetica,sans-Serif" font-weight="bold" font-size="32.00" fill="#29235c">id</text>
<text text-anchor="start" x="2484.08" y="-1118.57" font-family="Helvetica,sans-Serif" font-size="32.00" fill="#29235c"> &#160;&#160;&#160;</text>
<text text-anchor="start" x="2767.41" y="-1118.57" font-family="Helvetica,sans-Serif" font-style="italic" font-size="32.00" fill="#29235c">int</text>
<polygon fill="#e7e2dd" stroke="transparent" points="2448.19,-1037.37 2448.19,-1097.37 2812.19,-1097.37 2812.19,-1037.37 2448.19,-1037.37"/>
<polygon fill="none" stroke="#29235c" points="2448.19,-1037.37 2448.19,-1097.37 2812.19,-1097.37 2812.19,-1037.37 2448.19,-1037.37"/>
<text text-anchor="start" x="2459.19" y="-1057.57" font-family="Helvetica,sans-Serif" font-size="32.00" fill="#29235c">name &#160;&#160;&#160;</text>
<text text-anchor="start" x="2655.42" y="-1058.57" font-family="Helvetica,sans-Serif" font-style="italic" font-size="32.00" fill="#29235c">varchar</text>
<text text-anchor="start" x="2762.1" y="-1058.57" font-family="Helvetica,sans-Serif" font-size="32.00" fill="#29235c"> </text>
<text text-anchor="start" x="2770.99" y="-1058.57" font-family="Helvetica,sans-Serif" font-weight="bold" font-size="32.00" fill="#29235c">(!)</text>
<polygon fill="#e7e2dd" stroke="transparent" points="2448.19,-977.37 2448.19,-1037.37 2812.19,-1037.37 2812.19,-977.37 2448.19,-977.37"/>
<polygon fill="none" stroke="#29235c" points="2448.19,-977.37 2448.19,-1037.37 2812.19,-1037.37 2812.19,-977.37 2448.19,-977.37"/>
<text text-anchor="start" x="2459.19" y="-997.57" font-family="Helvetica,sans-Serif" font-size="32.00" fill="#29235c">created_at &#160;&#160;&#160;</text>
<text text-anchor="start" x="2653.63" y="-998.57" font-family="Helvetica,sans-Serif" font-style="italic" font-size="32.00" fill="#29235c">timestamp</text>
<polygon fill="#e7e2dd" stroke="transparent" points="2448.19,-917.37 2448.19,-977.37 2812.19,-977.37 2812.19,-917.37 2448.19,-917.37"/>
<polygon fill="none" stroke="#29235c" points="2448.19,-917.37 2448.19,-977.37 2812.19,-977.37 2812.19,-917.37 2448.19,-917.37"/>
<text text-anchor="start" x="2458.85" y="-937.57" font-family="Helvetica,sans-Serif" font-size="32.00" fill="#29235c">updated_at &#160;&#160;&#160;</text>
<text text-anchor="start" x="2653.91" y="-938.57" font-family="Helvetica,sans-Serif" font-style="italic" font-size="32.00" fill="#29235c">timestamp</text>
<polygon fill="none" stroke="#29235c" stroke-width="2" points="2447.19,-916.37 2447.19,-1218.37 2813.19,-1218.37 2813.19,-916.37 2447.19,-916.37"/>
</g>
<!-- positions&#45;&gt;departments -->
<!-- positions&#45;&gt;departments -->
<g id="edge2" class="edge">
<title>positions:e&#45;&gt;departments:w</title>
<path fill="none" stroke="#29235c" stroke-width="3" d="M2256.76,-1007.37C2353.28,-1007.37 2347.69,-1119.08 2437.03,-1126.94"/>
<polygon fill="#29235c" stroke="#29235c" stroke-width="3" points="2437.05,-1130.44 2447.19,-1127.37 2437.35,-1123.45 2437.05,-1130.44"/>
<text text-anchor="middle" x="2438.29" y="-1136.97" font-family="Helvetica,sans-Serif" font-size="32.00" fill="#29235c">1</text>
<text text-anchor="middle" x="2262.98" y="-1016.97" font-family="Helvetica,sans-Serif" font-size="32.00" fill="#29235c">*</text>
</g>
<!-- titles -->
<g id="titles" class="node">
<title>titles</title>
<ellipse fill="none" stroke="black" stroke-width="0" cx="1517.33" cy="-977.37" rx="260.43" ry="342.48"/>
<polygon fill="#1d71b8" stroke="transparent" points="1335.33,-1157.37 1335.33,-1217.37 1699.33,-1217.37 1699.33,-1157.37 1335.33,-1157.37"/>
<polygon fill="none" stroke="#29235c" points="1335.33,-1157.37 1335.33,-1217.37 1699.33,-1217.37 1699.33,-1157.37 1335.33,-1157.37"/>
<text text-anchor="start" x="1422.19" y="-1178.57" font-family="Helvetica,sans-Serif" font-weight="bold" font-size="32.00" fill="#ffffff"> &#160;&#160;&#160;&#160;&#160;&#160;titles &#160;&#160;&#160;&#160;&#160;&#160;</text>
<polygon fill="#e7e2dd" stroke="transparent" points="1335.33,-1097.37 1335.33,-1157.37 1699.33,-1157.37 1699.33,-1097.37 1335.33,-1097.37"/>
<polygon fill="none" stroke="#29235c" points="1335.33,-1097.37 1335.33,-1157.37 1699.33,-1157.37 1699.33,-1097.37 1335.33,-1097.37"/>
<text text-anchor="start" x="1346.33" y="-1118.57" font-family="Helvetica,sans-Serif" font-weight="bold" font-size="32.00" fill="#29235c">id</text>
<text text-anchor="start" x="1371.22" y="-1118.57" font-family="Helvetica,sans-Serif" font-size="32.00" fill="#29235c"> &#160;&#160;&#160;</text>
<text text-anchor="start" x="1654.54" y="-1118.57" font-family="Helvetica,sans-Serif" font-style="italic" font-size="32.00" fill="#29235c">int</text>
<polygon fill="#e7e2dd" stroke="transparent" points="1335.33,-1037.37 1335.33,-1097.37 1699.33,-1097.37 1699.33,-1037.37 1335.33,-1037.37"/>
<polygon fill="none" stroke="#29235c" points="1335.33,-1037.37 1335.33,-1097.37 1699.33,-1097.37 1699.33,-1037.37 1335.33,-1037.37"/>
<text text-anchor="start" x="1346.33" y="-1057.57" font-family="Helvetica,sans-Serif" font-size="32.00" fill="#29235c">name &#160;&#160;&#160;</text>
<text text-anchor="start" x="1542.56" y="-1058.57" font-family="Helvetica,sans-Serif" font-style="italic" font-size="32.00" fill="#29235c">varchar</text>
<text text-anchor="start" x="1649.24" y="-1058.57" font-family="Helvetica,sans-Serif" font-size="32.00" fill="#29235c"> </text>
<text text-anchor="start" x="1658.13" y="-1058.57" font-family="Helvetica,sans-Serif" font-weight="bold" font-size="32.00" fill="#29235c">(!)</text>
<polygon fill="#e7e2dd" stroke="transparent" points="1335.33,-977.37 1335.33,-1037.37 1699.33,-1037.37 1699.33,-977.37 1335.33,-977.37"/>
<polygon fill="none" stroke="#29235c" points="1335.33,-977.37 1335.33,-1037.37 1699.33,-1037.37 1699.33,-977.37 1335.33,-977.37"/>
<text text-anchor="start" x="1346.33" y="-997.57" font-family="Helvetica,sans-Serif" font-size="32.00" fill="#29235c">department_id &#160;&#160;&#160;</text>
<text text-anchor="start" x="1654.54" y="-998.57" font-family="Helvetica,sans-Serif" font-style="italic" font-size="32.00" fill="#29235c">int</text>
<polygon fill="#e7e2dd" stroke="transparent" points="1335.33,-917.37 1335.33,-977.37 1699.33,-977.37 1699.33,-917.37 1335.33,-917.37"/>
<polygon fill="none" stroke="#29235c" points="1335.33,-917.37 1335.33,-977.37 1699.33,-977.37 1699.33,-917.37 1335.33,-917.37"/>
<text text-anchor="start" x="1346.33" y="-937.57" font-family="Helvetica,sans-Serif" font-size="32.00" fill="#29235c">position_id &#160;&#160;&#160;</text>
<text text-anchor="start" x="1654.54" y="-938.57" font-family="Helvetica,sans-Serif" font-style="italic" font-size="32.00" fill="#29235c">int</text>
<polygon fill="#e7e2dd" stroke="transparent" points="1335.33,-857.37 1335.33,-917.37 1699.33,-917.37 1699.33,-857.37 1335.33,-857.37"/>
<polygon fill="none" stroke="#29235c" points="1335.33,-857.37 1335.33,-917.37 1699.33,-917.37 1699.33,-857.37 1335.33,-857.37"/>
<text text-anchor="start" x="1346.33" y="-877.57" font-family="Helvetica,sans-Serif" font-size="32.00" fill="#29235c">level_id &#160;&#160;&#160;</text>
<text text-anchor="start" x="1654.54" y="-878.57" font-family="Helvetica,sans-Serif" font-style="italic" font-size="32.00" fill="#29235c">int</text>
<polygon fill="#e7e2dd" stroke="transparent" points="1335.33,-797.37 1335.33,-857.37 1699.33,-857.37 1699.33,-797.37 1335.33,-797.37"/>
<polygon fill="none" stroke="#29235c" points="1335.33,-797.37 1335.33,-857.37 1699.33,-857.37 1699.33,-797.37 1335.33,-797.37"/>
<text text-anchor="start" x="1346.33" y="-817.57" font-family="Helvetica,sans-Serif" font-size="32.00" fill="#29235c">created_at &#160;&#160;&#160;</text>
<text text-anchor="start" x="1540.77" y="-818.57" font-family="Helvetica,sans-Serif" font-style="italic" font-size="32.00" fill="#29235c">timestamp</text>
<polygon fill="#e7e2dd" stroke="transparent" points="1335.33,-737.37 1335.33,-797.37 1699.33,-797.37 1699.33,-737.37 1335.33,-737.37"/>
<polygon fill="none" stroke="#29235c" points="1335.33,-737.37 1335.33,-797.37 1699.33,-797.37 1699.33,-737.37 1335.33,-737.37"/>
<text text-anchor="start" x="1345.99" y="-757.57" font-family="Helvetica,sans-Serif" font-size="32.00" fill="#29235c">updated_at &#160;&#160;&#160;</text>
<text text-anchor="start" x="1541.05" y="-758.57" font-family="Helvetica,sans-Serif" font-style="italic" font-size="32.00" fill="#29235c">timestamp</text>
<polygon fill="none" stroke="#29235c" stroke-width="2" points="1334.33,-736.37 1334.33,-1218.37 1700.33,-1218.37 1700.33,-736.37 1334.33,-736.37"/>
</g>
<!-- titles&#45;&gt;levels -->
<!-- titles&#45;&gt;levels -->
<g id="edge8" class="edge">
<title>titles:e&#45;&gt;levels:w</title>
<path fill="none" stroke="#29235c" stroke-width="3" d="M1700.33,-887.37C1847.3,-887.37 1745.3,-620.34 1880.6,-607.83"/>
<polygon fill="#29235c" stroke="#29235c" stroke-width="3" points="1880.92,-611.32 1890.76,-607.37 1880.61,-604.32 1880.92,-611.32"/>
<text text-anchor="middle" x="1881.86" y="-616.97" font-family="Helvetica,sans-Serif" font-size="32.00" fill="#29235c">1</text>
<text text-anchor="middle" x="1694.1" y="-896.97" font-family="Helvetica,sans-Serif" font-size="32.00" fill="#29235c">*</text>
</g>
<!-- titles&#45;&gt;positions -->
<!-- titles&#45;&gt;positions -->
<g id="edge6" class="edge">
<title>titles:e&#45;&gt;positions:w</title>
<path fill="none" stroke="#29235c" stroke-width="3" d="M1700.33,-947.37C1813.26,-947.37 1776.72,-1116.64 1880.61,-1126.89"/>
<polygon fill="#29235c" stroke="#29235c" stroke-width="3" points="1880.6,-1130.39 1890.76,-1127.37 1880.94,-1123.4 1880.6,-1130.39"/>
<text text-anchor="middle" x="1881.86" y="-1136.97" font-family="Helvetica,sans-Serif" font-size="32.00" fill="#29235c">1</text>
<text text-anchor="middle" x="1694.1" y="-956.97" font-family="Helvetica,sans-Serif" font-size="32.00" fill="#29235c">*</text>
</g>
<!-- titles&#45;&gt;departments -->
<!-- titles&#45;&gt;departments -->
<g id="edge4" class="edge">
<title>titles:e&#45;&gt;departments:w</title>
<path fill="none" stroke="#29235c" stroke-width="3" d="M1700.33,-1007.37C1873.1,-1007.37 1750.17,-796.97 1777.54,-626.37 1788.28,-559.42 1762.85,-368.4 1813.54,-323.37 1986.48,-169.77 2159.39,-171.65 2333.97,-323.37 2467.5,-439.41 2274.57,-1100.81 2437.05,-1126.6"/>
<polygon fill="#29235c" stroke="#29235c" stroke-width="3" points="2436.95,-1130.1 2447.19,-1127.37 2437.48,-1123.12 2436.95,-1130.1"/>
<text text-anchor="middle" x="2456.08" y="-1136.97" font-family="Helvetica,sans-Serif" font-size="32.00" fill="#29235c">1</text>
<text text-anchor="middle" x="1694.1" y="-1016.97" font-family="Helvetica,sans-Serif" font-size="32.00" fill="#29235c">*</text>
</g>
<!-- users -->
<g id="users" class="node">
<title>users</title>
<ellipse fill="none" stroke="black" stroke-width="0" cx="902.91" cy="-554.37" rx="318.4" ry="554.24"/>
<polygon fill="#1d71b8" stroke="transparent" points="679.91,-884.37 679.91,-944.37 1125.91,-944.37 1125.91,-884.37 679.91,-884.37"/>
<polygon fill="none" stroke="#29235c" points="679.91,-884.37 679.91,-944.37 1125.91,-944.37 1125.91,-884.37 679.91,-884.37"/>
<text text-anchor="start" x="801.55" y="-905.57" font-family="Helvetica,sans-Serif" font-weight="bold" font-size="32.00" fill="#ffffff"> &#160;&#160;&#160;&#160;&#160;&#160;users &#160;&#160;&#160;&#160;&#160;&#160;</text>
<polygon fill="#e7e2dd" stroke="transparent" points="679.91,-824.37 679.91,-884.37 1125.91,-884.37 1125.91,-824.37 679.91,-824.37"/>
<polygon fill="none" stroke="#29235c" points="679.91,-824.37 679.91,-884.37 1125.91,-884.37 1125.91,-824.37 679.91,-824.37"/>
<text text-anchor="start" x="690.91" y="-845.57" font-family="Helvetica,sans-Serif" font-weight="bold" font-size="32.00" fill="#29235c">id</text>
<text text-anchor="start" x="715.8" y="-845.57" font-family="Helvetica,sans-Serif" font-size="32.00" fill="#29235c"> &#160;&#160;&#160;</text>
<text text-anchor="start" x="1081.13" y="-845.57" font-family="Helvetica,sans-Serif" font-style="italic" font-size="32.00" fill="#29235c">int</text>
<polygon fill="#e7e2dd" stroke="transparent" points="679.91,-764.37 679.91,-824.37 1125.91,-824.37 1125.91,-764.37 679.91,-764.37"/>
<polygon fill="none" stroke="#29235c" points="679.91,-764.37 679.91,-824.37 1125.91,-824.37 1125.91,-764.37 679.91,-764.37"/>
<text text-anchor="start" x="690.91" y="-784.57" font-family="Helvetica,sans-Serif" font-size="32.00" fill="#29235c">title_id &#160;&#160;&#160;</text>
<text text-anchor="start" x="1081.13" y="-785.57" font-family="Helvetica,sans-Serif" font-style="italic" font-size="32.00" fill="#29235c">int</text>
<polygon fill="#e7e2dd" stroke="transparent" points="679.91,-704.37 679.91,-764.37 1125.91,-764.37 1125.91,-704.37 679.91,-704.37"/>
<polygon fill="none" stroke="#29235c" points="679.91,-704.37 679.91,-764.37 1125.91,-764.37 1125.91,-704.37 679.91,-704.37"/>
<text text-anchor="start" x="690.91" y="-724.57" font-family="Helvetica,sans-Serif" font-size="32.00" fill="#29235c">role_id &#160;&#160;&#160;</text>
<text text-anchor="start" x="1081.13" y="-725.57" font-family="Helvetica,sans-Serif" font-style="italic" font-size="32.00" fill="#29235c">int</text>
<polygon fill="#e7e2dd" stroke="transparent" points="679.91,-644.37 679.91,-704.37 1125.91,-704.37 1125.91,-644.37 679.91,-644.37"/>
<polygon fill="none" stroke="#29235c" points="679.91,-644.37 679.91,-704.37 1125.91,-704.37 1125.91,-644.37 679.91,-644.37"/>
<text text-anchor="start" x="690.91" y="-664.57" font-family="Helvetica,sans-Serif" font-size="32.00" fill="#29235c">name &#160;&#160;&#160;</text>
<text text-anchor="start" x="969.15" y="-665.57" font-family="Helvetica,sans-Serif" font-style="italic" font-size="32.00" fill="#29235c">varchar</text>
<text text-anchor="start" x="1075.82" y="-665.57" font-family="Helvetica,sans-Serif" font-size="32.00" fill="#29235c"> </text>
<text text-anchor="start" x="1084.71" y="-665.57" font-family="Helvetica,sans-Serif" font-weight="bold" font-size="32.00" fill="#29235c">(!)</text>
<polygon fill="#e7e2dd" stroke="transparent" points="679.91,-584.37 679.91,-644.37 1125.91,-644.37 1125.91,-584.37 679.91,-584.37"/>
<polygon fill="none" stroke="#29235c" points="679.91,-584.37 679.91,-644.37 1125.91,-644.37 1125.91,-584.37 679.91,-584.37"/>
<text text-anchor="start" x="690.91" y="-604.57" font-family="Helvetica,sans-Serif" font-size="32.00" fill="#29235c">email &#160;&#160;&#160;</text>
<text text-anchor="start" x="969.15" y="-605.57" font-family="Helvetica,sans-Serif" font-style="italic" font-size="32.00" fill="#29235c">varchar</text>
<text text-anchor="start" x="1075.82" y="-605.57" font-family="Helvetica,sans-Serif" font-size="32.00" fill="#29235c"> </text>
<text text-anchor="start" x="1084.71" y="-605.57" font-family="Helvetica,sans-Serif" font-weight="bold" font-size="32.00" fill="#29235c">(!)</text>
<polygon fill="#e7e2dd" stroke="transparent" points="679.91,-524.37 679.91,-584.37 1125.91,-584.37 1125.91,-524.37 679.91,-524.37"/>
<polygon fill="none" stroke="#29235c" points="679.91,-524.37 679.91,-584.37 1125.91,-584.37 1125.91,-524.37 679.91,-524.37"/>
<text text-anchor="start" x="690.72" y="-544.57" font-family="Helvetica,sans-Serif" font-size="32.00" fill="#29235c">email_verified_at &#160;&#160;&#160;</text>
<text text-anchor="start" x="967.63" y="-545.57" font-family="Helvetica,sans-Serif" font-style="italic" font-size="32.00" fill="#29235c">timestamp</text>
<polygon fill="#e7e2dd" stroke="transparent" points="679.91,-464.37 679.91,-524.37 1125.91,-524.37 1125.91,-464.37 679.91,-464.37"/>
<polygon fill="none" stroke="#29235c" points="679.91,-464.37 679.91,-524.37 1125.91,-524.37 1125.91,-464.37 679.91,-464.37"/>
<text text-anchor="start" x="690.91" y="-484.57" font-family="Helvetica,sans-Serif" font-size="32.00" fill="#29235c">password &#160;&#160;&#160;</text>
<text text-anchor="start" x="969.15" y="-485.57" font-family="Helvetica,sans-Serif" font-style="italic" font-size="32.00" fill="#29235c">varchar</text>
<text text-anchor="start" x="1075.82" y="-485.57" font-family="Helvetica,sans-Serif" font-size="32.00" fill="#29235c"> </text>
<text text-anchor="start" x="1084.71" y="-485.57" font-family="Helvetica,sans-Serif" font-weight="bold" font-size="32.00" fill="#29235c">(!)</text>
<polygon fill="#e7e2dd" stroke="transparent" points="679.91,-404.37 679.91,-464.37 1125.91,-464.37 1125.91,-404.37 679.91,-404.37"/>
<polygon fill="none" stroke="#29235c" points="679.91,-404.37 679.91,-464.37 1125.91,-464.37 1125.91,-404.37 679.91,-404.37"/>
<text text-anchor="start" x="690.91" y="-424.57" font-family="Helvetica,sans-Serif" font-size="32.00" fill="#29235c">remember_token &#160;&#160;&#160;</text>
<text text-anchor="start" x="1008.24" y="-425.57" font-family="Helvetica,sans-Serif" font-style="italic" font-size="32.00" fill="#29235c">varchar</text>
<polygon fill="#e7e2dd" stroke="transparent" points="679.91,-344.37 679.91,-404.37 1125.91,-404.37 1125.91,-344.37 679.91,-344.37"/>
<polygon fill="none" stroke="#29235c" points="679.91,-344.37 679.91,-404.37 1125.91,-404.37 1125.91,-344.37 679.91,-344.37"/>
<text text-anchor="start" x="690.91" y="-364.57" font-family="Helvetica,sans-Serif" font-size="32.00" fill="#29235c">custom_fields &#160;&#160;&#160;</text>
<text text-anchor="start" x="1056.23" y="-365.57" font-family="Helvetica,sans-Serif" font-style="italic" font-size="32.00" fill="#29235c">json</text>
<polygon fill="#e7e2dd" stroke="transparent" points="679.91,-284.37 679.91,-344.37 1125.91,-344.37 1125.91,-284.37 679.91,-284.37"/>
<polygon fill="none" stroke="#29235c" points="679.91,-284.37 679.91,-344.37 1125.91,-344.37 1125.91,-284.37 679.91,-284.37"/>
<text text-anchor="start" x="690.91" y="-304.57" font-family="Helvetica,sans-Serif" font-size="32.00" fill="#29235c">avatar_url &#160;&#160;&#160;</text>
<text text-anchor="start" x="1008.24" y="-305.57" font-family="Helvetica,sans-Serif" font-style="italic" font-size="32.00" fill="#29235c">varchar</text>
<polygon fill="#e7e2dd" stroke="transparent" points="679.91,-224.37 679.91,-284.37 1125.91,-284.37 1125.91,-224.37 679.91,-224.37"/>
<polygon fill="none" stroke="#29235c" points="679.91,-224.37 679.91,-284.37 1125.91,-284.37 1125.91,-224.37 679.91,-224.37"/>
<text text-anchor="start" x="690.91" y="-244.57" font-family="Helvetica,sans-Serif" font-size="32.00" fill="#29235c">created_at &#160;&#160;&#160;</text>
<text text-anchor="start" x="967.35" y="-245.57" font-family="Helvetica,sans-Serif" font-style="italic" font-size="32.00" fill="#29235c">timestamp</text>
<polygon fill="#e7e2dd" stroke="transparent" points="679.91,-164.37 679.91,-224.37 1125.91,-224.37 1125.91,-164.37 679.91,-164.37"/>
<polygon fill="none" stroke="#29235c" points="679.91,-164.37 679.91,-224.37 1125.91,-224.37 1125.91,-164.37 679.91,-164.37"/>
<text text-anchor="start" x="690.91" y="-184.57" font-family="Helvetica,sans-Serif" font-size="32.00" fill="#29235c">updated_at &#160;&#160;&#160;</text>
<text text-anchor="start" x="967.35" y="-185.57" font-family="Helvetica,sans-Serif" font-style="italic" font-size="32.00" fill="#29235c">timestamp</text>
<polygon fill="none" stroke="#29235c" stroke-width="2" points="678.91,-163.37 678.91,-945.37 1126.91,-945.37 1126.91,-163.37 678.91,-163.37"/>
</g>
<!-- users&#45;&gt;roles -->
<!-- users&#45;&gt;roles -->
<g id="edge12" class="edge">
<title>users:e&#45;&gt;roles:w</title>
<path fill="none" stroke="#29235c" stroke-width="3" d="M1126.91,-734.37C1275.38,-734.37 1186.69,-474.97 1324.04,-462.81"/>
<polygon fill="#29235c" stroke="#29235c" stroke-width="3" points="1324.49,-466.3 1334.33,-462.37 1324.19,-459.3 1324.49,-466.3"/>
<text text-anchor="middle" x="1325.43" y="-471.97" font-family="Helvetica,sans-Serif" font-size="32.00" fill="#29235c">1</text>
<text text-anchor="middle" x="1120.69" y="-743.97" font-family="Helvetica,sans-Serif" font-size="32.00" fill="#29235c">*</text>
</g>
<!-- users&#45;&gt;titles -->
<!-- users&#45;&gt;titles -->
<g id="edge10" class="edge">
<title>users:e&#45;&gt;titles:w</title>
<path fill="none" stroke="#29235c" stroke-width="3" d="M1126.91,-794.37C1297.7,-794.37 1165.63,-1113.85 1323.99,-1126.96"/>
<polygon fill="#29235c" stroke="#29235c" stroke-width="3" points="1324.19,-1130.47 1334.33,-1127.37 1324.47,-1123.47 1324.19,-1130.47"/>
<text text-anchor="middle" x="1325.43" y="-1136.97" font-family="Helvetica,sans-Serif" font-size="32.00" fill="#29235c">1</text>
<text text-anchor="middle" x="1118.02" y="-803.97" font-family="Helvetica,sans-Serif" font-size="32.00" fill="#29235c">1</text>
</g>
<!-- squad_members -->
<g id="squad_members" class="node">
<title>squad_members</title>
<ellipse fill="none" stroke="black" stroke-width="0" cx="274.36" cy="-1270.37" rx="274.21" ry="87.86"/>
<polygon fill="#1d71b8" stroke="transparent" points="82.36,-1270.37 82.36,-1330.37 466.36,-1330.37 466.36,-1270.37 82.36,-1270.37"/>
<polygon fill="none" stroke="#29235c" points="82.36,-1270.37 82.36,-1330.37 466.36,-1330.37 466.36,-1270.37 82.36,-1270.37"/>
<text text-anchor="start" x="92.97" y="-1291.57" font-family="Helvetica,sans-Serif" font-weight="bold" font-size="32.00" fill="#ffffff"> &#160;&#160;&#160;&#160;&#160;&#160;squad_members &#160;&#160;&#160;&#160;&#160;&#160;</text>
<polygon fill="#e7e2dd" stroke="transparent" points="82.36,-1210.37 82.36,-1270.37 466.36,-1270.37 466.36,-1210.37 82.36,-1210.37"/>
<polygon fill="none" stroke="#29235c" points="82.36,-1210.37 82.36,-1270.37 466.36,-1270.37 466.36,-1210.37 82.36,-1210.37"/>
<text text-anchor="start" x="93.36" y="-1230.57" font-family="Helvetica,sans-Serif" font-size="32.00" fill="#29235c">user_id &#160;&#160;&#160;</text>
<text text-anchor="start" x="421.58" y="-1231.57" font-family="Helvetica,sans-Serif" font-style="italic" font-size="32.00" fill="#29235c">int</text>
<polygon fill="none" stroke="#29235c" stroke-width="2" points="81.36,-1209.37 81.36,-1331.37 467.36,-1331.37 467.36,-1209.37 81.36,-1209.37"/>
</g>
<!-- squad_members&#45;&gt;users -->
<!-- squad_members&#45;&gt;users -->
<g id="edge14" class="edge">
<title>squad_members:e&#45;&gt;users:w</title>
<path fill="none" stroke="#29235c" stroke-width="3" d="M467.36,-1240.37C659.46,-1240.37 489.65,-868.19 668.67,-854.75"/>
<polygon fill="#29235c" stroke="#29235c" stroke-width="3" points="669.05,-858.23 678.91,-854.37 668.79,-851.24 669.05,-858.23"/>
<text text-anchor="middle" x="670.02" y="-863.97" font-family="Helvetica,sans-Serif" font-size="32.00" fill="#29235c">1</text>
<text text-anchor="middle" x="461.14" y="-1249.97" font-family="Helvetica,sans-Serif" font-size="32.00" fill="#29235c">*</text>
</g>
<!-- activity_logs -->
<g id="activity_logs" class="node">
<title>activity_logs</title>
<ellipse fill="none" stroke="black" stroke-width="0" cx="274.36" cy="-1077.37" rx="229.21" ry="87.86"/>
<polygon fill="#1d71b8" stroke="transparent" points="114.36,-1077.37 114.36,-1137.37 434.36,-1137.37 434.36,-1077.37 114.36,-1077.37"/>
<polygon fill="none" stroke="#29235c" points="114.36,-1077.37 114.36,-1137.37 434.36,-1137.37 434.36,-1077.37 114.36,-1077.37"/>
<text text-anchor="start" x="124.99" y="-1098.57" font-family="Helvetica,sans-Serif" font-weight="bold" font-size="32.00" fill="#ffffff"> &#160;&#160;&#160;&#160;&#160;&#160;activity_logs &#160;&#160;&#160;&#160;&#160;&#160;</text>
<polygon fill="#e7e2dd" stroke="transparent" points="114.36,-1017.37 114.36,-1077.37 434.36,-1077.37 434.36,-1017.37 114.36,-1017.37"/>
<polygon fill="none" stroke="#29235c" points="114.36,-1017.37 114.36,-1077.37 434.36,-1077.37 434.36,-1017.37 114.36,-1017.37"/>
<text text-anchor="start" x="125.36" y="-1037.57" font-family="Helvetica,sans-Serif" font-size="32.00" fill="#29235c">user_id &#160;&#160;&#160;</text>
<text text-anchor="start" x="389.58" y="-1038.57" font-family="Helvetica,sans-Serif" font-style="italic" font-size="32.00" fill="#29235c">int</text>
<polygon fill="none" stroke="#29235c" stroke-width="2" points="113.36,-1016.37 113.36,-1138.37 435.36,-1138.37 435.36,-1016.37 113.36,-1016.37"/>
</g>
<!-- activity_logs&#45;&gt;users -->
<!-- activity_logs&#45;&gt;users -->
<g id="edge16" class="edge">
<title>activity_logs:e&#45;&gt;users:w</title>
<path fill="none" stroke="#29235c" stroke-width="3" d="M435.36,-1047.37C493.66,-1047.37 502.31,-1016.66 548.71,-981.37 610.17,-934.64 599.26,-861.33 668.58,-854.83"/>
<polygon fill="#29235c" stroke="#29235c" stroke-width="3" points="669.08,-858.32 678.91,-854.37 668.77,-851.32 669.08,-858.32"/>
<text text-anchor="middle" x="687.81" y="-863.97" font-family="Helvetica,sans-Serif" font-size="32.00" fill="#29235c">1</text>
<text text-anchor="middle" x="429.14" y="-1056.97" font-family="Helvetica,sans-Serif" font-size="32.00" fill="#29235c">*</text>
</g>
<!-- backlog_items -->
<g id="backlog_items" class="node">
<title>backlog_items</title>
<ellipse fill="none" stroke="black" stroke-width="0" cx="274.36" cy="-884.37" rx="250.13" ry="87.86"/>
<polygon fill="#1d71b8" stroke="transparent" points="99.36,-884.37 99.36,-944.37 449.36,-944.37 449.36,-884.37 99.36,-884.37"/>
<polygon fill="none" stroke="#29235c" points="99.36,-884.37 99.36,-944.37 449.36,-944.37 449.36,-884.37 99.36,-884.37"/>
<text text-anchor="start" x="109.87" y="-905.57" font-family="Helvetica,sans-Serif" font-weight="bold" font-size="32.00" fill="#ffffff"> &#160;&#160;&#160;&#160;&#160;&#160;backlog_items &#160;&#160;&#160;&#160;&#160;&#160;</text>
<polygon fill="#e7e2dd" stroke="transparent" points="99.36,-824.37 99.36,-884.37 449.36,-884.37 449.36,-824.37 99.36,-824.37"/>
<polygon fill="none" stroke="#29235c" points="99.36,-824.37 99.36,-884.37 449.36,-884.37 449.36,-824.37 99.36,-824.37"/>
<text text-anchor="start" x="110.36" y="-844.57" font-family="Helvetica,sans-Serif" font-size="32.00" fill="#29235c">assigned_to &#160;&#160;&#160;</text>
<text text-anchor="start" x="404.58" y="-845.57" font-family="Helvetica,sans-Serif" font-style="italic" font-size="32.00" fill="#29235c">int</text>
<polygon fill="none" stroke="#29235c" stroke-width="2" points="98.36,-823.37 98.36,-945.37 450.36,-945.37 450.36,-823.37 98.36,-823.37"/>
</g>
<!-- backlog_items&#45;&gt;users -->
<!-- backlog_items&#45;&gt;users -->
<g id="edge18" class="edge">
<title>backlog_items:e&#45;&gt;users:w</title>
<path fill="none" stroke="#29235c" stroke-width="3" d="M450.36,-854.37C548.47,-854.37 575.51,-854.37 668.76,-854.37"/>
<polygon fill="#29235c" stroke="#29235c" stroke-width="3" points="668.91,-857.87 678.91,-854.37 668.91,-850.87 668.91,-857.87"/>
<text text-anchor="middle" x="670.02" y="-825.57" font-family="Helvetica,sans-Serif" font-size="32.00" fill="#29235c">1</text>
<text text-anchor="middle" x="444.14" y="-863.97" font-family="Helvetica,sans-Serif" font-size="32.00" fill="#29235c">*</text>
</g>
<!-- backlogs -->
<g id="backlogs" class="node">
<title>backlogs</title>
<ellipse fill="none" stroke="black" stroke-width="0" cx="274.36" cy="-648.37" rx="195.32" ry="130.22"/>
<polygon fill="#1d71b8" stroke="transparent" points="138.36,-678.37 138.36,-738.37 410.36,-738.37 410.36,-678.37 138.36,-678.37"/>
<polygon fill="none" stroke="#29235c" points="138.36,-678.37 138.36,-738.37 410.36,-738.37 410.36,-678.37 138.36,-678.37"/>
<text text-anchor="start" x="148.98" y="-699.57" font-family="Helvetica,sans-Serif" font-weight="bold" font-size="32.00" fill="#ffffff"> &#160;&#160;&#160;&#160;&#160;&#160;backlogs &#160;&#160;&#160;&#160;&#160;&#160;</text>
<polygon fill="#e7e2dd" stroke="transparent" points="138.36,-618.37 138.36,-678.37 410.36,-678.37 410.36,-618.37 138.36,-618.37"/>
<polygon fill="none" stroke="#29235c" points="138.36,-618.37 138.36,-678.37 410.36,-678.37 410.36,-618.37 138.36,-618.37"/>
<text text-anchor="start" x="149.36" y="-638.57" font-family="Helvetica,sans-Serif" font-size="32.00" fill="#29235c">pic &#160;&#160;&#160;</text>
<text text-anchor="start" x="365.58" y="-639.57" font-family="Helvetica,sans-Serif" font-style="italic" font-size="32.00" fill="#29235c">int</text>
<polygon fill="#e7e2dd" stroke="transparent" points="138.36,-558.37 138.36,-618.37 410.36,-618.37 410.36,-558.37 138.36,-558.37"/>
<polygon fill="none" stroke="#29235c" points="138.36,-558.37 138.36,-618.37 410.36,-618.37 410.36,-558.37 138.36,-558.37"/>
<text text-anchor="start" x="149.36" y="-578.57" font-family="Helvetica,sans-Serif" font-size="32.00" fill="#29235c">created_by &#160;&#160;&#160;</text>
<text text-anchor="start" x="365.58" y="-579.57" font-family="Helvetica,sans-Serif" font-style="italic" font-size="32.00" fill="#29235c">int</text>
<polygon fill="none" stroke="#29235c" stroke-width="2" points="137.36,-557.37 137.36,-739.37 411.36,-739.37 411.36,-557.37 137.36,-557.37"/>
</g>
<!-- backlogs&#45;&gt;users -->
<!-- backlogs&#45;&gt;users -->
<g id="edge20" class="edge">
<title>backlogs:e&#45;&gt;users:w</title>
<path fill="none" stroke="#29235c" stroke-width="3" d="M411.36,-648.37C557.92,-648.37 530.26,-844.83 668.66,-854.04"/>
<polygon fill="#29235c" stroke="#29235c" stroke-width="3" points="668.8,-857.54 678.91,-854.37 669.03,-850.55 668.8,-857.54"/>
<text text-anchor="middle" x="687.81" y="-825.57" font-family="Helvetica,sans-Serif" font-size="32.00" fill="#29235c">1</text>
<text text-anchor="middle" x="405.14" y="-657.97" font-family="Helvetica,sans-Serif" font-size="32.00" fill="#29235c">*</text>
</g>
<!-- backlogs&#45;&gt;users -->
<!-- backlogs&#45;&gt;users -->
<g id="edge22" class="edge">
<title>backlogs:e&#45;&gt;users:w</title>
<path fill="none" stroke="#29235c" stroke-width="3" d="M411.36,-588.37C575.6,-588.37 513.91,-843.57 668.89,-854.04"/>
<polygon fill="#29235c" stroke="#29235c" stroke-width="3" points="668.8,-857.54 678.91,-854.37 669.03,-850.54 668.8,-857.54"/>
<text text-anchor="middle" x="670.02" y="-863.97" font-family="Helvetica,sans-Serif" font-size="32.00" fill="#29235c">1</text>
<text text-anchor="middle" x="405.14" y="-597.97" font-family="Helvetica,sans-Serif" font-size="32.00" fill="#29235c">*</text>
</g>
</g>
</svg>
