<?xml version="1.0" encoding="UTF-8" standalone="no"?>
<!DOCTYPE svg PUBLIC "-//W3C//DTD SVG 1.1//EN"
 "http://www.w3.org/Graphics/SVG/1.1/DTD/svg11.dtd">
<!-- Generated by graphviz version 2.47.0 (20210316.0004)
 -->
<!-- Title: dbml Pages: 1 -->
<svg width="2000pt" height="1023pt"
 viewBox="0.00 0.00 1999.73 1022.98" xmlns="http://www.w3.org/2000/svg" xmlns:xlink="http://www.w3.org/1999/xlink">
<g id="graph0" class="graph" transform="scale(1 1) rotate(0) translate(4 1018.98)">
<title>dbml</title>
<!-- levels -->
<g id="levels" class="node">
<title>levels</title>
<ellipse fill="none" stroke="black" stroke-width="0" cx="1175.09" cy="-280" rx="260.43" ry="214.92"/>
<polygon fill="#1d71b8" stroke="transparent" points="993.09,-370 993.09,-430 1357.09,-430 1357.09,-370 993.09,-370"/>
<polygon fill="none" stroke="#29235c" points="993.09,-370 993.09,-430 1357.09,-430 1357.09,-370 993.09,-370"/>
<text text-anchor="start" x="1071.95" y="-391.2" font-family="Helvetica,sans-Serif" font-weight="bold" font-size="32.00" fill="#ffffff"> &#160;&#160;&#160;&#160;&#160;&#160;levels &#160;&#160;&#160;&#160;&#160;&#160;</text>
<polygon fill="#e7e2dd" stroke="transparent" points="993.09,-310 993.09,-370 1357.09,-370 1357.09,-310 993.09,-310"/>
<polygon fill="none" stroke="#29235c" points="993.09,-310 993.09,-370 1357.09,-370 1357.09,-310 993.09,-310"/>
<text text-anchor="start" x="1004.09" y="-331.2" font-family="Helvetica,sans-Serif" font-weight="bold" font-size="32.00" fill="#29235c">id</text>
<text text-anchor="start" x="1028.98" y="-331.2" font-family="Helvetica,sans-Serif" font-size="32.00" fill="#29235c"> &#160;&#160;&#160;</text>
<text text-anchor="start" x="1312.3" y="-331.2" font-family="Helvetica,sans-Serif" font-style="italic" font-size="32.00" fill="#29235c">int</text>
<polygon fill="#e7e2dd" stroke="transparent" points="993.09,-250 993.09,-310 1357.09,-310 1357.09,-250 993.09,-250"/>
<polygon fill="none" stroke="#29235c" points="993.09,-250 993.09,-310 1357.09,-310 1357.09,-250 993.09,-250"/>
<text text-anchor="start" x="1004.09" y="-270.2" font-family="Helvetica,sans-Serif" font-size="32.00" fill="#29235c">name &#160;&#160;&#160;</text>
<text text-anchor="start" x="1200.32" y="-271.2" font-family="Helvetica,sans-Serif" font-style="italic" font-size="32.00" fill="#29235c">varchar</text>
<text text-anchor="start" x="1307" y="-271.2" font-family="Helvetica,sans-Serif" font-size="32.00" fill="#29235c"> </text>
<text text-anchor="start" x="1315.89" y="-271.2" font-family="Helvetica,sans-Serif" font-weight="bold" font-size="32.00" fill="#29235c">(!)</text>
<polygon fill="#e7e2dd" stroke="transparent" points="993.09,-190 993.09,-250 1357.09,-250 1357.09,-190 993.09,-190"/>
<polygon fill="none" stroke="#29235c" points="993.09,-190 993.09,-250 1357.09,-250 1357.09,-190 993.09,-190"/>
<text text-anchor="start" x="1004.09" y="-210.2" font-family="Helvetica,sans-Serif" font-size="32.00" fill="#29235c">created_at &#160;&#160;&#160;</text>
<text text-anchor="start" x="1198.53" y="-211.2" font-family="Helvetica,sans-Serif" font-style="italic" font-size="32.00" fill="#29235c">timestamp</text>
<polygon fill="#e7e2dd" stroke="transparent" points="993.09,-130 993.09,-190 1357.09,-190 1357.09,-130 993.09,-130"/>
<polygon fill="none" stroke="#29235c" points="993.09,-130 993.09,-190 1357.09,-190 1357.09,-130 993.09,-130"/>
<text text-anchor="start" x="1003.75" y="-150.2" font-family="Helvetica,sans-Serif" font-size="32.00" fill="#29235c">updated_at &#160;&#160;&#160;</text>
<text text-anchor="start" x="1198.81" y="-151.2" font-family="Helvetica,sans-Serif" font-style="italic" font-size="32.00" fill="#29235c">timestamp</text>
<polygon fill="none" stroke="#29235c" stroke-width="2" points="992.09,-129 992.09,-431 1358.09,-431 1358.09,-129 992.09,-129"/>
</g>
<!-- positions -->
<g id="positions" class="node">
<title>positions</title>
<ellipse fill="none" stroke="black" stroke-width="0" cx="1175.09" cy="-728" rx="260.43" ry="214.92"/>
<polygon fill="#1d71b8" stroke="transparent" points="993.09,-818 993.09,-878 1357.09,-878 1357.09,-818 993.09,-818"/>
<polygon fill="none" stroke="#29235c" points="993.09,-818 993.09,-878 1357.09,-878 1357.09,-818 993.09,-818"/>
<text text-anchor="start" x="1049.71" y="-839.2" font-family="Helvetica,sans-Serif" font-weight="bold" font-size="32.00" fill="#ffffff"> &#160;&#160;&#160;&#160;&#160;&#160;positions &#160;&#160;&#160;&#160;&#160;&#160;</text>
<polygon fill="#e7e2dd" stroke="transparent" points="993.09,-758 993.09,-818 1357.09,-818 1357.09,-758 993.09,-758"/>
<polygon fill="none" stroke="#29235c" points="993.09,-758 993.09,-818 1357.09,-818 1357.09,-758 993.09,-758"/>
<text text-anchor="start" x="1004.09" y="-779.2" font-family="Helvetica,sans-Serif" font-weight="bold" font-size="32.00" fill="#29235c">id</text>
<text text-anchor="start" x="1028.98" y="-779.2" font-family="Helvetica,sans-Serif" font-size="32.00" fill="#29235c"> &#160;&#160;&#160;</text>
<text text-anchor="start" x="1312.3" y="-779.2" font-family="Helvetica,sans-Serif" font-style="italic" font-size="32.00" fill="#29235c">int</text>
<polygon fill="#e7e2dd" stroke="transparent" points="993.09,-698 993.09,-758 1357.09,-758 1357.09,-698 993.09,-698"/>
<polygon fill="none" stroke="#29235c" points="993.09,-698 993.09,-758 1357.09,-758 1357.09,-698 993.09,-698"/>
<text text-anchor="start" x="1004.09" y="-718.2" font-family="Helvetica,sans-Serif" font-size="32.00" fill="#29235c">department_id &#160;&#160;&#160;</text>
<text text-anchor="start" x="1312.3" y="-719.2" font-family="Helvetica,sans-Serif" font-style="italic" font-size="32.00" fill="#29235c">int</text>
<polygon fill="#e7e2dd" stroke="transparent" points="993.09,-638 993.09,-698 1357.09,-698 1357.09,-638 993.09,-638"/>
<polygon fill="none" stroke="#29235c" points="993.09,-638 993.09,-698 1357.09,-698 1357.09,-638 993.09,-638"/>
<text text-anchor="start" x="1004.09" y="-658.2" font-family="Helvetica,sans-Serif" font-size="32.00" fill="#29235c">created_at &#160;&#160;&#160;</text>
<text text-anchor="start" x="1198.53" y="-659.2" font-family="Helvetica,sans-Serif" font-style="italic" font-size="32.00" fill="#29235c">timestamp</text>
<polygon fill="#e7e2dd" stroke="transparent" points="993.09,-578 993.09,-638 1357.09,-638 1357.09,-578 993.09,-578"/>
<polygon fill="none" stroke="#29235c" points="993.09,-578 993.09,-638 1357.09,-638 1357.09,-578 993.09,-578"/>
<text text-anchor="start" x="1003.75" y="-598.2" font-family="Helvetica,sans-Serif" font-size="32.00" fill="#29235c">updated_at &#160;&#160;&#160;</text>
<text text-anchor="start" x="1198.81" y="-599.2" font-family="Helvetica,sans-Serif" font-style="italic" font-size="32.00" fill="#29235c">timestamp</text>
<polygon fill="none" stroke="#29235c" stroke-width="2" points="992.09,-577 992.09,-879 1358.09,-879 1358.09,-577 992.09,-577"/>
</g>
<!-- departments -->
<g id="departments" class="node">
<title>departments</title>
<ellipse fill="none" stroke="black" stroke-width="0" cx="1731.52" cy="-728" rx="260.43" ry="214.92"/>
<polygon fill="#1d71b8" stroke="transparent" points="1549.52,-818 1549.52,-878 1913.52,-878 1913.52,-818 1549.52,-818"/>
<polygon fill="none" stroke="#29235c" points="1549.52,-818 1549.52,-878 1913.52,-878 1913.52,-818 1549.52,-818"/>
<text text-anchor="start" x="1580.36" y="-839.2" font-family="Helvetica,sans-Serif" font-weight="bold" font-size="32.00" fill="#ffffff"> &#160;&#160;&#160;&#160;&#160;&#160;departments &#160;&#160;&#160;&#160;&#160;&#160;</text>
<polygon fill="#e7e2dd" stroke="transparent" points="1549.52,-758 1549.52,-818 1913.52,-818 1913.52,-758 1549.52,-758"/>
<polygon fill="none" stroke="#29235c" points="1549.52,-758 1549.52,-818 1913.52,-818 1913.52,-758 1549.52,-758"/>
<text text-anchor="start" x="1560.52" y="-779.2" font-family="Helvetica,sans-Serif" font-weight="bold" font-size="32.00" fill="#29235c">id</text>
<text text-anchor="start" x="1585.41" y="-779.2" font-family="Helvetica,sans-Serif" font-size="32.00" fill="#29235c"> &#160;&#160;&#160;</text>
<text text-anchor="start" x="1868.73" y="-779.2" font-family="Helvetica,sans-Serif" font-style="italic" font-size="32.00" fill="#29235c">int</text>
<polygon fill="#e7e2dd" stroke="transparent" points="1549.52,-698 1549.52,-758 1913.52,-758 1913.52,-698 1549.52,-698"/>
<polygon fill="none" stroke="#29235c" points="1549.52,-698 1549.52,-758 1913.52,-758 1913.52,-698 1549.52,-698"/>
<text text-anchor="start" x="1560.52" y="-718.2" font-family="Helvetica,sans-Serif" font-size="32.00" fill="#29235c">name &#160;&#160;&#160;</text>
<text text-anchor="start" x="1756.75" y="-719.2" font-family="Helvetica,sans-Serif" font-style="italic" font-size="32.00" fill="#29235c">varchar</text>
<text text-anchor="start" x="1863.43" y="-719.2" font-family="Helvetica,sans-Serif" font-size="32.00" fill="#29235c"> </text>
<text text-anchor="start" x="1872.32" y="-719.2" font-family="Helvetica,sans-Serif" font-weight="bold" font-size="32.00" fill="#29235c">(!)</text>
<polygon fill="#e7e2dd" stroke="transparent" points="1549.52,-638 1549.52,-698 1913.52,-698 1913.52,-638 1549.52,-638"/>
<polygon fill="none" stroke="#29235c" points="1549.52,-638 1549.52,-698 1913.52,-698 1913.52,-638 1549.52,-638"/>
<text text-anchor="start" x="1560.52" y="-658.2" font-family="Helvetica,sans-Serif" font-size="32.00" fill="#29235c">created_at &#160;&#160;&#160;</text>
<text text-anchor="start" x="1754.96" y="-659.2" font-family="Helvetica,sans-Serif" font-style="italic" font-size="32.00" fill="#29235c">timestamp</text>
<polygon fill="#e7e2dd" stroke="transparent" points="1549.52,-578 1549.52,-638 1913.52,-638 1913.52,-578 1549.52,-578"/>
<polygon fill="none" stroke="#29235c" points="1549.52,-578 1549.52,-638 1913.52,-638 1913.52,-578 1549.52,-578"/>
<text text-anchor="start" x="1560.18" y="-598.2" font-family="Helvetica,sans-Serif" font-size="32.00" fill="#29235c">updated_at &#160;&#160;&#160;</text>
<text text-anchor="start" x="1755.24" y="-599.2" font-family="Helvetica,sans-Serif" font-style="italic" font-size="32.00" fill="#29235c">timestamp</text>
<polygon fill="none" stroke="#29235c" stroke-width="2" points="1548.52,-577 1548.52,-879 1914.52,-879 1914.52,-577 1548.52,-577"/>
</g>
<!-- positions&#45;&gt;departments -->
<!-- positions&#45;&gt;departments -->
<g id="edge2" class="edge">
<title>positions:e&#45;&gt;departments:w</title>
<path fill="none" stroke="#29235c" stroke-width="3" d="M1358.09,-728C1443.36,-728 1458.65,-783.41 1538.46,-787.74"/>
<polygon fill="#29235c" stroke="#29235c" stroke-width="3" points="1538.43,-791.24 1548.52,-788 1538.61,-784.24 1538.43,-791.24"/>
<text text-anchor="middle" x="1539.62" y="-797.6" font-family="Helvetica,sans-Serif" font-size="32.00" fill="#29235c">1</text>
<text text-anchor="middle" x="1364.31" y="-737.6" font-family="Helvetica,sans-Serif" font-size="32.00" fill="#29235c">*</text>
</g>
<!-- user_titles -->
<g id="user_titles" class="node">
<title>user_titles</title>
<ellipse fill="none" stroke="black" stroke-width="0" cx="618.66" cy="-638" rx="260.43" ry="342.48"/>
<polygon fill="#1d71b8" stroke="transparent" points="436.66,-818 436.66,-878 800.66,-878 800.66,-818 436.66,-818"/>
<polygon fill="none" stroke="#29235c" points="436.66,-818 436.66,-878 800.66,-878 800.66,-818 436.66,-818"/>
<text text-anchor="start" x="483.51" y="-839.2" font-family="Helvetica,sans-Serif" font-weight="bold" font-size="32.00" fill="#ffffff"> &#160;&#160;&#160;&#160;&#160;&#160;user_titles &#160;&#160;&#160;&#160;&#160;&#160;</text>
<polygon fill="#e7e2dd" stroke="transparent" points="436.66,-758 436.66,-818 800.66,-818 800.66,-758 436.66,-758"/>
<polygon fill="none" stroke="#29235c" points="436.66,-758 436.66,-818 800.66,-818 800.66,-758 436.66,-758"/>
<text text-anchor="start" x="447.66" y="-779.2" font-family="Helvetica,sans-Serif" font-weight="bold" font-size="32.00" fill="#29235c">id</text>
<text text-anchor="start" x="472.55" y="-779.2" font-family="Helvetica,sans-Serif" font-size="32.00" fill="#29235c"> &#160;&#160;&#160;</text>
<text text-anchor="start" x="755.87" y="-779.2" font-family="Helvetica,sans-Serif" font-style="italic" font-size="32.00" fill="#29235c">int</text>
<polygon fill="#e7e2dd" stroke="transparent" points="436.66,-698 436.66,-758 800.66,-758 800.66,-698 436.66,-698"/>
<polygon fill="none" stroke="#29235c" points="436.66,-698 436.66,-758 800.66,-758 800.66,-698 436.66,-698"/>
<text text-anchor="start" x="447.66" y="-718.2" font-family="Helvetica,sans-Serif" font-size="32.00" fill="#29235c">name &#160;&#160;&#160;</text>
<text text-anchor="start" x="643.89" y="-719.2" font-family="Helvetica,sans-Serif" font-style="italic" font-size="32.00" fill="#29235c">varchar</text>
<text text-anchor="start" x="750.56" y="-719.2" font-family="Helvetica,sans-Serif" font-size="32.00" fill="#29235c"> </text>
<text text-anchor="start" x="759.46" y="-719.2" font-family="Helvetica,sans-Serif" font-weight="bold" font-size="32.00" fill="#29235c">(!)</text>
<polygon fill="#e7e2dd" stroke="transparent" points="436.66,-638 436.66,-698 800.66,-698 800.66,-638 436.66,-638"/>
<polygon fill="none" stroke="#29235c" points="436.66,-638 436.66,-698 800.66,-698 800.66,-638 436.66,-638"/>
<text text-anchor="start" x="447.66" y="-658.2" font-family="Helvetica,sans-Serif" font-size="32.00" fill="#29235c">department_id &#160;&#160;&#160;</text>
<text text-anchor="start" x="755.87" y="-659.2" font-family="Helvetica,sans-Serif" font-style="italic" font-size="32.00" fill="#29235c">int</text>
<polygon fill="#e7e2dd" stroke="transparent" points="436.66,-578 436.66,-638 800.66,-638 800.66,-578 436.66,-578"/>
<polygon fill="none" stroke="#29235c" points="436.66,-578 436.66,-638 800.66,-638 800.66,-578 436.66,-578"/>
<text text-anchor="start" x="447.66" y="-598.2" font-family="Helvetica,sans-Serif" font-size="32.00" fill="#29235c">position_id &#160;&#160;&#160;</text>
<text text-anchor="start" x="755.87" y="-599.2" font-family="Helvetica,sans-Serif" font-style="italic" font-size="32.00" fill="#29235c">int</text>
<polygon fill="#e7e2dd" stroke="transparent" points="436.66,-518 436.66,-578 800.66,-578 800.66,-518 436.66,-518"/>
<polygon fill="none" stroke="#29235c" points="436.66,-518 436.66,-578 800.66,-578 800.66,-518 436.66,-518"/>
<text text-anchor="start" x="447.66" y="-538.2" font-family="Helvetica,sans-Serif" font-size="32.00" fill="#29235c">level_id &#160;&#160;&#160;</text>
<text text-anchor="start" x="755.87" y="-539.2" font-family="Helvetica,sans-Serif" font-style="italic" font-size="32.00" fill="#29235c">int</text>
<polygon fill="#e7e2dd" stroke="transparent" points="436.66,-458 436.66,-518 800.66,-518 800.66,-458 436.66,-458"/>
<polygon fill="none" stroke="#29235c" points="436.66,-458 436.66,-518 800.66,-518 800.66,-458 436.66,-458"/>
<text text-anchor="start" x="447.66" y="-478.2" font-family="Helvetica,sans-Serif" font-size="32.00" fill="#29235c">created_at &#160;&#160;&#160;</text>
<text text-anchor="start" x="642.1" y="-479.2" font-family="Helvetica,sans-Serif" font-style="italic" font-size="32.00" fill="#29235c">timestamp</text>
<polygon fill="#e7e2dd" stroke="transparent" points="436.66,-398 436.66,-458 800.66,-458 800.66,-398 436.66,-398"/>
<polygon fill="none" stroke="#29235c" points="436.66,-398 436.66,-458 800.66,-458 800.66,-398 436.66,-398"/>
<text text-anchor="start" x="447.32" y="-418.2" font-family="Helvetica,sans-Serif" font-size="32.00" fill="#29235c">updated_at &#160;&#160;&#160;</text>
<text text-anchor="start" x="642.38" y="-419.2" font-family="Helvetica,sans-Serif" font-style="italic" font-size="32.00" fill="#29235c">timestamp</text>
<polygon fill="none" stroke="#29235c" stroke-width="2" points="435.66,-397 435.66,-879 801.66,-879 801.66,-397 435.66,-397"/>
</g>
<!-- user_titles&#45;&gt;levels -->
<!-- user_titles&#45;&gt;levels -->
<g id="edge8" class="edge">
<title>user_titles:e&#45;&gt;levels:w</title>
<path fill="none" stroke="#29235c" stroke-width="3" d="M801.66,-548C923.44,-548 870.01,-351.62 981.88,-340.5"/>
<polygon fill="#29235c" stroke="#29235c" stroke-width="3" points="982.27,-343.98 992.09,-340 981.93,-336.99 982.27,-343.98"/>
<text text-anchor="middle" x="983.19" y="-311.2" font-family="Helvetica,sans-Serif" font-size="32.00" fill="#29235c">1</text>
<text text-anchor="middle" x="795.43" y="-519.2" font-family="Helvetica,sans-Serif" font-size="32.00" fill="#29235c">*</text>
</g>
<!-- user_titles&#45;&gt;positions -->
<!-- user_titles&#45;&gt;positions -->
<g id="edge6" class="edge">
<title>user_titles:e&#45;&gt;positions:w</title>
<path fill="none" stroke="#29235c" stroke-width="3" d="M801.66,-608C914.59,-608 878.05,-777.27 981.94,-787.52"/>
<polygon fill="#29235c" stroke="#29235c" stroke-width="3" points="981.93,-791.02 992.09,-788 982.27,-784.03 981.93,-791.02"/>
<text text-anchor="middle" x="983.19" y="-797.6" font-family="Helvetica,sans-Serif" font-size="32.00" fill="#29235c">1</text>
<text text-anchor="middle" x="795.43" y="-579.2" font-family="Helvetica,sans-Serif" font-size="32.00" fill="#29235c">*</text>
</g>
<!-- user_titles&#45;&gt;departments -->
<!-- user_titles&#45;&gt;departments -->
<g id="edge4" class="edge">
<title>user_titles:e&#45;&gt;departments:w</title>
<path fill="none" stroke="#29235c" stroke-width="3" d="M801.66,-668C1078.27,-668 702.23,-232.92 914.87,-56 1003.78,17.96 1347.5,19.26 1435.3,-56 1557.59,-160.83 1391.36,-761.39 1538.37,-787.15"/>
<polygon fill="#29235c" stroke="#29235c" stroke-width="3" points="1538.26,-790.65 1548.52,-788 1538.85,-783.68 1538.26,-790.65"/>
<text text-anchor="middle" x="1557.41" y="-797.6" font-family="Helvetica,sans-Serif" font-size="32.00" fill="#29235c">1</text>
<text text-anchor="middle" x="795.43" y="-677.6" font-family="Helvetica,sans-Serif" font-size="32.00" fill="#29235c">*</text>
</g>
<!-- users -->
<g id="users" class="node">
<title>users</title>
<ellipse fill="none" stroke="black" stroke-width="0" cx="161.22" cy="-818" rx="161.44" ry="87.86"/>
<polygon fill="#1d71b8" stroke="transparent" points="49.22,-818 49.22,-878 273.22,-878 273.22,-818 49.22,-818"/>
<polygon fill="none" stroke="#29235c" points="49.22,-818 49.22,-878 273.22,-878 273.22,-818 49.22,-818"/>
<text text-anchor="start" x="59.86" y="-839.2" font-family="Helvetica,sans-Serif" font-weight="bold" font-size="32.00" fill="#ffffff"> &#160;&#160;&#160;&#160;&#160;&#160;users &#160;&#160;&#160;&#160;&#160;&#160;</text>
<polygon fill="#e7e2dd" stroke="transparent" points="49.22,-758 49.22,-818 273.22,-818 273.22,-758 49.22,-758"/>
<polygon fill="none" stroke="#29235c" points="49.22,-758 49.22,-818 273.22,-818 273.22,-758 49.22,-758"/>
<text text-anchor="start" x="60.22" y="-778.2" font-family="Helvetica,sans-Serif" font-size="32.00" fill="#29235c">title_id &#160;&#160;&#160;</text>
<text text-anchor="start" x="228.44" y="-779.2" font-family="Helvetica,sans-Serif" font-style="italic" font-size="32.00" fill="#29235c">int</text>
<polygon fill="none" stroke="#29235c" stroke-width="2" points="48.22,-757 48.22,-879 274.22,-879 274.22,-757 48.22,-757"/>
</g>
<!-- users&#45;&gt;user_titles -->
<!-- users&#45;&gt;user_titles -->
<g id="edge10" class="edge">
<title>users:e&#45;&gt;user_titles:w</title>
<path fill="none" stroke="#29235c" stroke-width="3" d="M274.22,-788C342.47,-788 362.03,-788 425.52,-788"/>
<polygon fill="#29235c" stroke="#29235c" stroke-width="3" points="425.66,-791.5 435.66,-788 425.66,-784.5 425.66,-791.5"/>
<text text-anchor="middle" x="426.76" y="-797.6" font-family="Helvetica,sans-Serif" font-size="32.00" fill="#29235c">1</text>
<text text-anchor="middle" x="265.33" y="-797.6" font-family="Helvetica,sans-Serif" font-size="32.00" fill="#29235c">1</text>
</g>
</g>
</svg>
