<?xml version="1.0" encoding="UTF-8" standalone="no"?>
<!DOCTYPE svg PUBLIC "-//W3C//DTD SVG 1.1//EN"
 "http://www.w3.org/Graphics/SVG/1.1/DTD/svg11.dtd">
<!-- Generated by graphviz version 2.47.0 (20210316.0004)
 -->
<!-- Title: dbml Pages: 1 -->
<svg width="1146pt" height="641pt"
 viewBox="0.00 0.00 1145.67 641.49" xmlns="http://www.w3.org/2000/svg" xmlns:xlink="http://www.w3.org/1999/xlink">
<g id="graph0" class="graph" transform="scale(1 1) rotate(0) translate(4 637.49)">
<title>dbml</title>
<!-- users -->
<g id="users" class="node">
<title>users</title>
<ellipse fill="none" stroke="black" stroke-width="0" cx="877.46" cy="-299.81" rx="260.43" ry="299.63"/>
<polygon fill="#1d71b8" stroke="transparent" points="695.46,-449.81 695.46,-509.81 1059.46,-509.81 1059.46,-449.81 695.46,-449.81"/>
<polygon fill="none" stroke="#29235c" points="695.46,-449.81 695.46,-509.81 1059.46,-509.81 1059.46,-449.81 695.46,-449.81"/>
<text text-anchor="start" x="776.09" y="-471.01" font-family="Helvetica,sans-Serif" font-weight="bold" font-size="32.00" fill="#ffffff"> &#160;&#160;&#160;&#160;&#160;&#160;users &#160;&#160;&#160;&#160;&#160;&#160;</text>
<polygon fill="#e7e2dd" stroke="transparent" points="695.46,-389.81 695.46,-449.81 1059.46,-449.81 1059.46,-389.81 695.46,-389.81"/>
<polygon fill="none" stroke="#29235c" points="695.46,-389.81 695.46,-449.81 1059.46,-449.81 1059.46,-389.81 695.46,-389.81"/>
<text text-anchor="start" x="706.46" y="-411.01" font-family="Helvetica,sans-Serif" font-weight="bold" font-size="32.00" fill="#29235c">id</text>
<text text-anchor="start" x="731.35" y="-411.01" font-family="Helvetica,sans-Serif" font-size="32.00" fill="#29235c"> &#160;&#160;&#160;</text>
<text text-anchor="start" x="1014.67" y="-411.01" font-family="Helvetica,sans-Serif" font-style="italic" font-size="32.00" fill="#29235c">int</text>
<polygon fill="#e7e2dd" stroke="transparent" points="695.46,-329.81 695.46,-389.81 1059.46,-389.81 1059.46,-329.81 695.46,-329.81"/>
<polygon fill="none" stroke="#29235c" points="695.46,-329.81 695.46,-389.81 1059.46,-389.81 1059.46,-329.81 695.46,-329.81"/>
<text text-anchor="start" x="706.46" y="-350.01" font-family="Helvetica,sans-Serif" font-size="32.00" fill="#29235c">username &#160;&#160;&#160;</text>
<text text-anchor="start" x="902.69" y="-351.01" font-family="Helvetica,sans-Serif" font-style="italic" font-size="32.00" fill="#29235c">varchar</text>
<text text-anchor="start" x="1009.37" y="-351.01" font-family="Helvetica,sans-Serif" font-size="32.00" fill="#29235c"> </text>
<text text-anchor="start" x="1018.26" y="-351.01" font-family="Helvetica,sans-Serif" font-weight="bold" font-size="32.00" fill="#29235c">(!)</text>
<polygon fill="#e7e2dd" stroke="transparent" points="695.46,-269.81 695.46,-329.81 1059.46,-329.81 1059.46,-269.81 695.46,-269.81"/>
<polygon fill="none" stroke="#29235c" points="695.46,-269.81 695.46,-329.81 1059.46,-329.81 1059.46,-269.81 695.46,-269.81"/>
<text text-anchor="start" x="706.46" y="-290.01" font-family="Helvetica,sans-Serif" font-size="32.00" fill="#29235c">email &#160;&#160;&#160;</text>
<text text-anchor="start" x="902.69" y="-291.01" font-family="Helvetica,sans-Serif" font-style="italic" font-size="32.00" fill="#29235c">varchar</text>
<text text-anchor="start" x="1009.37" y="-291.01" font-family="Helvetica,sans-Serif" font-size="32.00" fill="#29235c"> </text>
<text text-anchor="start" x="1018.26" y="-291.01" font-family="Helvetica,sans-Serif" font-weight="bold" font-size="32.00" fill="#29235c">(!)</text>
<polygon fill="#e7e2dd" stroke="transparent" points="695.46,-209.81 695.46,-269.81 1059.46,-269.81 1059.46,-209.81 695.46,-209.81"/>
<polygon fill="none" stroke="#29235c" points="695.46,-209.81 695.46,-269.81 1059.46,-269.81 1059.46,-209.81 695.46,-209.81"/>
<text text-anchor="start" x="706.46" y="-230.01" font-family="Helvetica,sans-Serif" font-size="32.00" fill="#29235c">password &#160;&#160;&#160;</text>
<text text-anchor="start" x="902.69" y="-231.01" font-family="Helvetica,sans-Serif" font-style="italic" font-size="32.00" fill="#29235c">varchar</text>
<text text-anchor="start" x="1009.37" y="-231.01" font-family="Helvetica,sans-Serif" font-size="32.00" fill="#29235c"> </text>
<text text-anchor="start" x="1018.26" y="-231.01" font-family="Helvetica,sans-Serif" font-weight="bold" font-size="32.00" fill="#29235c">(!)</text>
<polygon fill="#e7e2dd" stroke="transparent" points="695.46,-149.81 695.46,-209.81 1059.46,-209.81 1059.46,-149.81 695.46,-149.81"/>
<polygon fill="none" stroke="#29235c" points="695.46,-149.81 695.46,-209.81 1059.46,-209.81 1059.46,-149.81 695.46,-149.81"/>
<text text-anchor="start" x="706.46" y="-170.01" font-family="Helvetica,sans-Serif" font-size="32.00" fill="#29235c">created_at &#160;&#160;&#160;</text>
<text text-anchor="start" x="900.9" y="-171.01" font-family="Helvetica,sans-Serif" font-style="italic" font-size="32.00" fill="#29235c">timestamp</text>
<polygon fill="#e7e2dd" stroke="transparent" points="695.46,-89.81 695.46,-149.81 1059.46,-149.81 1059.46,-89.81 695.46,-89.81"/>
<polygon fill="none" stroke="#29235c" points="695.46,-89.81 695.46,-149.81 1059.46,-149.81 1059.46,-89.81 695.46,-89.81"/>
<text text-anchor="start" x="706.12" y="-110.01" font-family="Helvetica,sans-Serif" font-size="32.00" fill="#29235c">updated_at &#160;&#160;&#160;</text>
<text text-anchor="start" x="901.18" y="-111.01" font-family="Helvetica,sans-Serif" font-style="italic" font-size="32.00" fill="#29235c">timestamp</text>
<polygon fill="none" stroke="#29235c" stroke-width="2" points="694.46,-88.81 694.46,-510.81 1060.46,-510.81 1060.46,-88.81 694.46,-88.81"/>
</g>
<!-- user_has_projects -->
<g id="user_has_projects" class="node">
<title>user_has_projects</title>
<ellipse fill="none" stroke="black" stroke-width="0" cx="290.62" cy="-545.81" rx="290.74" ry="87.86"/>
<polygon fill="#1d71b8" stroke="transparent" points="87.62,-545.81 87.62,-605.81 494.62,-605.81 494.62,-545.81 87.62,-545.81"/>
<polygon fill="none" stroke="#29235c" points="87.62,-545.81 87.62,-605.81 494.62,-605.81 494.62,-545.81 87.62,-545.81"/>
<text text-anchor="start" x="98.17" y="-567.01" font-family="Helvetica,sans-Serif" font-weight="bold" font-size="32.00" fill="#ffffff"> &#160;&#160;&#160;&#160;&#160;&#160;user_has_projects &#160;&#160;&#160;&#160;&#160;&#160;</text>
<polygon fill="#e7e2dd" stroke="transparent" points="87.62,-485.81 87.62,-545.81 494.62,-545.81 494.62,-485.81 87.62,-485.81"/>
<polygon fill="none" stroke="#29235c" points="87.62,-485.81 87.62,-545.81 494.62,-545.81 494.62,-485.81 87.62,-485.81"/>
<text text-anchor="start" x="98.62" y="-506.01" font-family="Helvetica,sans-Serif" font-size="32.00" fill="#29235c">user_id &#160;&#160;&#160;</text>
<text text-anchor="start" x="449.84" y="-507.01" font-family="Helvetica,sans-Serif" font-style="italic" font-size="32.00" fill="#29235c">int</text>
<polygon fill="none" stroke="#29235c" stroke-width="2" points="86.12,-484.81 86.12,-606.81 495.12,-606.81 495.12,-484.81 86.12,-484.81"/>
</g>
<!-- user_has_projects&#45;&gt;users -->
<!-- user_has_projects&#45;&gt;users -->
<g id="edge2" class="edge">
<title>user_has_projects:e&#45;&gt;users:w</title>
<path fill="none" stroke="#29235c" stroke-width="3" d="M495.62,-515.81C590.3,-515.81 596.03,-426.44 684.45,-420.16"/>
<polygon fill="#29235c" stroke="#29235c" stroke-width="3" points="684.58,-423.66 694.46,-419.81 684.34,-416.66 684.58,-423.66"/>
<text text-anchor="middle" x="703.35" y="-400.61" font-family="Helvetica,sans-Serif" font-size="32.00" fill="#29235c">1</text>
<text text-anchor="middle" x="489.4" y="-525.41" font-family="Helvetica,sans-Serif" font-size="32.00" fill="#29235c">*</text>
</g>
<!-- user_has_roles -->
<g id="user_has_roles" class="node">
<title>user_has_roles</title>
<ellipse fill="none" stroke="black" stroke-width="0" cx="290.62" cy="-352.81" rx="260.84" ry="87.86"/>
<polygon fill="#1d71b8" stroke="transparent" points="108.62,-352.81 108.62,-412.81 473.62,-412.81 473.62,-352.81 108.62,-352.81"/>
<polygon fill="none" stroke="#29235c" points="108.62,-352.81 108.62,-412.81 473.62,-412.81 473.62,-352.81 108.62,-352.81"/>
<text text-anchor="start" x="119.51" y="-374.01" font-family="Helvetica,sans-Serif" font-weight="bold" font-size="32.00" fill="#ffffff"> &#160;&#160;&#160;&#160;&#160;&#160;user_has_roles &#160;&#160;&#160;&#160;&#160;&#160;</text>
<polygon fill="#e7e2dd" stroke="transparent" points="108.62,-292.81 108.62,-352.81 473.62,-352.81 473.62,-292.81 108.62,-292.81"/>
<polygon fill="none" stroke="#29235c" points="108.62,-292.81 108.62,-352.81 473.62,-352.81 473.62,-292.81 108.62,-292.81"/>
<text text-anchor="start" x="119.62" y="-313.01" font-family="Helvetica,sans-Serif" font-size="32.00" fill="#29235c">user_id &#160;&#160;&#160;</text>
<text text-anchor="start" x="428.84" y="-314.01" font-family="Helvetica,sans-Serif" font-style="italic" font-size="32.00" fill="#29235c">int</text>
<polygon fill="none" stroke="#29235c" stroke-width="2" points="107.12,-291.81 107.12,-413.81 474.12,-413.81 474.12,-291.81 107.12,-291.81"/>
</g>
<!-- user_has_roles&#45;&gt;users -->
<!-- user_has_roles&#45;&gt;users -->
<g id="edge4" class="edge">
<title>user_has_roles:e&#45;&gt;users:w</title>
<path fill="none" stroke="#29235c" stroke-width="3" d="M474.62,-322.81C577.97,-322.81 587.16,-413.66 684.44,-419.52"/>
<polygon fill="#29235c" stroke="#29235c" stroke-width="3" points="684.36,-423.02 694.46,-419.81 684.56,-416.02 684.36,-423.02"/>
<text text-anchor="middle" x="685.56" y="-391.01" font-family="Helvetica,sans-Serif" font-size="32.00" fill="#29235c">1</text>
<text text-anchor="middle" x="468.4" y="-294.01" font-family="Helvetica,sans-Serif" font-size="32.00" fill="#29235c">*</text>
</g>
</g>
</svg>
