<?xml version="1.0" encoding="UTF-8" standalone="no"?>
<!DOCTYPE svg PUBLIC "-//W3C//DTD SVG 1.1//EN"
 "http://www.w3.org/Graphics/SVG/1.1/DTD/svg11.dtd">
<!-- Generated by graphviz version 2.47.0 (20210316.0004)
 -->
<!-- Title: dbml Pages: 1 -->
<svg width="1086pt" height="1056pt"
 viewBox="0.00 0.00 1086.28 1055.77" xmlns="http://www.w3.org/2000/svg" xmlns:xlink="http://www.w3.org/1999/xlink">
<g id="graph0" class="graph" transform="scale(1 1) rotate(0) translate(4 1051.77)">
<title>dbml</title>
<!-- roles -->
<g id="roles" class="node">
<title>roles</title>
<ellipse fill="none" stroke="black" stroke-width="0" cx="818.06" cy="-214.96" rx="260.43" ry="214.92"/>
<polygon fill="#1d71b8" stroke="transparent" points="636.06,-304.96 636.06,-364.96 1000.06,-364.96 1000.06,-304.96 636.06,-304.96"/>
<polygon fill="none" stroke="#29235c" points="636.06,-304.96 636.06,-364.96 1000.06,-364.96 1000.06,-304.96 636.06,-304.96"/>
<text text-anchor="start" x="721.14" y="-326.16" font-family="Helvetica,sans-Serif" font-weight="bold" font-size="32.00" fill="#ffffff"> &#160;&#160;&#160;&#160;&#160;&#160;roles &#160;&#160;&#160;&#160;&#160;&#160;</text>
<polygon fill="#e7e2dd" stroke="transparent" points="636.06,-244.96 636.06,-304.96 1000.06,-304.96 1000.06,-244.96 636.06,-244.96"/>
<polygon fill="none" stroke="#29235c" points="636.06,-244.96 636.06,-304.96 1000.06,-304.96 1000.06,-244.96 636.06,-244.96"/>
<text text-anchor="start" x="647.06" y="-266.16" font-family="Helvetica,sans-Serif" font-weight="bold" font-size="32.00" fill="#29235c">id</text>
<text text-anchor="start" x="671.95" y="-266.16" font-family="Helvetica,sans-Serif" font-size="32.00" fill="#29235c"> &#160;&#160;&#160;</text>
<text text-anchor="start" x="955.28" y="-266.16" font-family="Helvetica,sans-Serif" font-style="italic" font-size="32.00" fill="#29235c">int</text>
<polygon fill="#e7e2dd" stroke="transparent" points="636.06,-184.96 636.06,-244.96 1000.06,-244.96 1000.06,-184.96 636.06,-184.96"/>
<polygon fill="none" stroke="#29235c" points="636.06,-184.96 636.06,-244.96 1000.06,-244.96 1000.06,-184.96 636.06,-184.96"/>
<text text-anchor="start" x="647.06" y="-205.16" font-family="Helvetica,sans-Serif" font-size="32.00" fill="#29235c">name &#160;&#160;&#160;</text>
<text text-anchor="start" x="843.3" y="-206.16" font-family="Helvetica,sans-Serif" font-style="italic" font-size="32.00" fill="#29235c">varchar</text>
<text text-anchor="start" x="949.97" y="-206.16" font-family="Helvetica,sans-Serif" font-size="32.00" fill="#29235c"> </text>
<text text-anchor="start" x="958.86" y="-206.16" font-family="Helvetica,sans-Serif" font-weight="bold" font-size="32.00" fill="#29235c">(!)</text>
<polygon fill="#e7e2dd" stroke="transparent" points="636.06,-124.96 636.06,-184.96 1000.06,-184.96 1000.06,-124.96 636.06,-124.96"/>
<polygon fill="none" stroke="#29235c" points="636.06,-124.96 636.06,-184.96 1000.06,-184.96 1000.06,-124.96 636.06,-124.96"/>
<text text-anchor="start" x="647.06" y="-145.16" font-family="Helvetica,sans-Serif" font-size="32.00" fill="#29235c">created_at &#160;&#160;&#160;</text>
<text text-anchor="start" x="841.5" y="-146.16" font-family="Helvetica,sans-Serif" font-style="italic" font-size="32.00" fill="#29235c">timestamp</text>
<polygon fill="#e7e2dd" stroke="transparent" points="636.06,-64.96 636.06,-124.96 1000.06,-124.96 1000.06,-64.96 636.06,-64.96"/>
<polygon fill="none" stroke="#29235c" points="636.06,-64.96 636.06,-124.96 1000.06,-124.96 1000.06,-64.96 636.06,-64.96"/>
<text text-anchor="start" x="646.73" y="-85.16" font-family="Helvetica,sans-Serif" font-size="32.00" fill="#29235c">updated_at &#160;&#160;&#160;</text>
<text text-anchor="start" x="841.78" y="-86.16" font-family="Helvetica,sans-Serif" font-style="italic" font-size="32.00" fill="#29235c">timestamp</text>
<polygon fill="none" stroke="#29235c" stroke-width="2" points="635.06,-63.96 635.06,-365.96 1001.06,-365.96 1001.06,-63.96 635.06,-63.96"/>
</g>
<!-- users -->
<g id="users" class="node">
<title>users</title>
<ellipse fill="none" stroke="black" stroke-width="0" cx="818.06" cy="-747.96" rx="260.43" ry="299.63"/>
<polygon fill="#1d71b8" stroke="transparent" points="636.06,-897.96 636.06,-957.96 1000.06,-957.96 1000.06,-897.96 636.06,-897.96"/>
<polygon fill="none" stroke="#29235c" points="636.06,-897.96 636.06,-957.96 1000.06,-957.96 1000.06,-897.96 636.06,-897.96"/>
<text text-anchor="start" x="716.7" y="-919.16" font-family="Helvetica,sans-Serif" font-weight="bold" font-size="32.00" fill="#ffffff"> &#160;&#160;&#160;&#160;&#160;&#160;users &#160;&#160;&#160;&#160;&#160;&#160;</text>
<polygon fill="#e7e2dd" stroke="transparent" points="636.06,-837.96 636.06,-897.96 1000.06,-897.96 1000.06,-837.96 636.06,-837.96"/>
<polygon fill="none" stroke="#29235c" points="636.06,-837.96 636.06,-897.96 1000.06,-897.96 1000.06,-837.96 636.06,-837.96"/>
<text text-anchor="start" x="647.06" y="-859.16" font-family="Helvetica,sans-Serif" font-weight="bold" font-size="32.00" fill="#29235c">id</text>
<text text-anchor="start" x="671.95" y="-859.16" font-family="Helvetica,sans-Serif" font-size="32.00" fill="#29235c"> &#160;&#160;&#160;</text>
<text text-anchor="start" x="955.28" y="-859.16" font-family="Helvetica,sans-Serif" font-style="italic" font-size="32.00" fill="#29235c">int</text>
<polygon fill="#e7e2dd" stroke="transparent" points="636.06,-777.96 636.06,-837.96 1000.06,-837.96 1000.06,-777.96 636.06,-777.96"/>
<polygon fill="none" stroke="#29235c" points="636.06,-777.96 636.06,-837.96 1000.06,-837.96 1000.06,-777.96 636.06,-777.96"/>
<text text-anchor="start" x="647.06" y="-798.16" font-family="Helvetica,sans-Serif" font-size="32.00" fill="#29235c">username &#160;&#160;&#160;</text>
<text text-anchor="start" x="843.3" y="-799.16" font-family="Helvetica,sans-Serif" font-style="italic" font-size="32.00" fill="#29235c">varchar</text>
<text text-anchor="start" x="949.97" y="-799.16" font-family="Helvetica,sans-Serif" font-size="32.00" fill="#29235c"> </text>
<text text-anchor="start" x="958.86" y="-799.16" font-family="Helvetica,sans-Serif" font-weight="bold" font-size="32.00" fill="#29235c">(!)</text>
<polygon fill="#e7e2dd" stroke="transparent" points="636.06,-717.96 636.06,-777.96 1000.06,-777.96 1000.06,-717.96 636.06,-717.96"/>
<polygon fill="none" stroke="#29235c" points="636.06,-717.96 636.06,-777.96 1000.06,-777.96 1000.06,-717.96 636.06,-717.96"/>
<text text-anchor="start" x="647.06" y="-738.16" font-family="Helvetica,sans-Serif" font-size="32.00" fill="#29235c">email &#160;&#160;&#160;</text>
<text text-anchor="start" x="843.3" y="-739.16" font-family="Helvetica,sans-Serif" font-style="italic" font-size="32.00" fill="#29235c">varchar</text>
<text text-anchor="start" x="949.97" y="-739.16" font-family="Helvetica,sans-Serif" font-size="32.00" fill="#29235c"> </text>
<text text-anchor="start" x="958.86" y="-739.16" font-family="Helvetica,sans-Serif" font-weight="bold" font-size="32.00" fill="#29235c">(!)</text>
<polygon fill="#e7e2dd" stroke="transparent" points="636.06,-657.96 636.06,-717.96 1000.06,-717.96 1000.06,-657.96 636.06,-657.96"/>
<polygon fill="none" stroke="#29235c" points="636.06,-657.96 636.06,-717.96 1000.06,-717.96 1000.06,-657.96 636.06,-657.96"/>
<text text-anchor="start" x="647.06" y="-678.16" font-family="Helvetica,sans-Serif" font-size="32.00" fill="#29235c">password &#160;&#160;&#160;</text>
<text text-anchor="start" x="843.3" y="-679.16" font-family="Helvetica,sans-Serif" font-style="italic" font-size="32.00" fill="#29235c">varchar</text>
<text text-anchor="start" x="949.97" y="-679.16" font-family="Helvetica,sans-Serif" font-size="32.00" fill="#29235c"> </text>
<text text-anchor="start" x="958.86" y="-679.16" font-family="Helvetica,sans-Serif" font-weight="bold" font-size="32.00" fill="#29235c">(!)</text>
<polygon fill="#e7e2dd" stroke="transparent" points="636.06,-597.96 636.06,-657.96 1000.06,-657.96 1000.06,-597.96 636.06,-597.96"/>
<polygon fill="none" stroke="#29235c" points="636.06,-597.96 636.06,-657.96 1000.06,-657.96 1000.06,-597.96 636.06,-597.96"/>
<text text-anchor="start" x="647.06" y="-618.16" font-family="Helvetica,sans-Serif" font-size="32.00" fill="#29235c">created_at &#160;&#160;&#160;</text>
<text text-anchor="start" x="841.5" y="-619.16" font-family="Helvetica,sans-Serif" font-style="italic" font-size="32.00" fill="#29235c">timestamp</text>
<polygon fill="#e7e2dd" stroke="transparent" points="636.06,-537.96 636.06,-597.96 1000.06,-597.96 1000.06,-537.96 636.06,-537.96"/>
<polygon fill="none" stroke="#29235c" points="636.06,-537.96 636.06,-597.96 1000.06,-597.96 1000.06,-537.96 636.06,-537.96"/>
<text text-anchor="start" x="646.73" y="-558.16" font-family="Helvetica,sans-Serif" font-size="32.00" fill="#29235c">updated_at &#160;&#160;&#160;</text>
<text text-anchor="start" x="841.78" y="-559.16" font-family="Helvetica,sans-Serif" font-style="italic" font-size="32.00" fill="#29235c">timestamp</text>
<polygon fill="none" stroke="#29235c" stroke-width="2" points="635.06,-536.96 635.06,-958.96 1001.06,-958.96 1001.06,-536.96 635.06,-536.96"/>
</g>
<!-- user_has_roles -->
<g id="user_has_roles" class="node">
<title>user_has_roles</title>
<ellipse fill="none" stroke="black" stroke-width="0" cx="260.92" cy="-600.96" rx="260.84" ry="172.57"/>
<polygon fill="#1d71b8" stroke="transparent" points="78.92,-660.96 78.92,-720.96 443.92,-720.96 443.92,-660.96 78.92,-660.96"/>
<polygon fill="none" stroke="#29235c" points="78.92,-660.96 78.92,-720.96 443.92,-720.96 443.92,-660.96 78.92,-660.96"/>
<text text-anchor="start" x="89.81" y="-682.16" font-family="Helvetica,sans-Serif" font-weight="bold" font-size="32.00" fill="#ffffff"> &#160;&#160;&#160;&#160;&#160;&#160;user_has_roles &#160;&#160;&#160;&#160;&#160;&#160;</text>
<polygon fill="#e7e2dd" stroke="transparent" points="78.92,-600.96 78.92,-660.96 443.92,-660.96 443.92,-600.96 78.92,-600.96"/>
<polygon fill="none" stroke="#29235c" points="78.92,-600.96 78.92,-660.96 443.92,-660.96 443.92,-600.96 78.92,-600.96"/>
<text text-anchor="start" x="89.92" y="-622.16" font-family="Helvetica,sans-Serif" font-weight="bold" font-size="32.00" fill="#29235c">id</text>
<text text-anchor="start" x="114.81" y="-622.16" font-family="Helvetica,sans-Serif" font-size="32.00" fill="#29235c"> &#160;&#160;&#160;</text>
<text text-anchor="start" x="399.14" y="-622.16" font-family="Helvetica,sans-Serif" font-style="italic" font-size="32.00" fill="#29235c">int</text>
<polygon fill="#e7e2dd" stroke="transparent" points="78.92,-540.96 78.92,-600.96 443.92,-600.96 443.92,-540.96 78.92,-540.96"/>
<polygon fill="none" stroke="#29235c" points="78.92,-540.96 78.92,-600.96 443.92,-600.96 443.92,-540.96 78.92,-540.96"/>
<text text-anchor="start" x="89.92" y="-561.16" font-family="Helvetica,sans-Serif" font-size="32.00" fill="#29235c">user_id &#160;&#160;&#160;</text>
<text text-anchor="start" x="399.14" y="-562.16" font-family="Helvetica,sans-Serif" font-style="italic" font-size="32.00" fill="#29235c">int</text>
<polygon fill="#e7e2dd" stroke="transparent" points="78.92,-480.96 78.92,-540.96 443.92,-540.96 443.92,-480.96 78.92,-480.96"/>
<polygon fill="none" stroke="#29235c" points="78.92,-480.96 78.92,-540.96 443.92,-540.96 443.92,-480.96 78.92,-480.96"/>
<text text-anchor="start" x="89.92" y="-501.16" font-family="Helvetica,sans-Serif" font-size="32.00" fill="#29235c">role_id &#160;&#160;&#160;</text>
<text text-anchor="start" x="399.14" y="-502.16" font-family="Helvetica,sans-Serif" font-style="italic" font-size="32.00" fill="#29235c">int</text>
<polygon fill="none" stroke="#29235c" stroke-width="2" points="77.42,-479.96 77.42,-721.96 444.42,-721.96 444.42,-479.96 77.42,-479.96"/>
</g>
<!-- user_has_roles&#45;&gt;roles -->
<!-- user_has_roles&#45;&gt;roles -->
<g id="edge4" class="edge">
<title>user_has_roles:e&#45;&gt;roles:w</title>
<path fill="none" stroke="#29235c" stroke-width="3" d="M444.92,-510.96C576.07,-510.96 504.4,-287.24 624.84,-275.44"/>
<polygon fill="#29235c" stroke="#29235c" stroke-width="3" points="625.24,-278.93 635.06,-274.96 624.91,-271.94 625.24,-278.93"/>
<text text-anchor="middle" x="643.95" y="-274.96" font-family="Helvetica,sans-Serif" font-size="32.00" fill="#29235c">1</text>
<text text-anchor="middle" x="438.7" y="-482.16" font-family="Helvetica,sans-Serif" font-size="32.00" fill="#29235c">*</text>
</g>
<!-- user_has_roles&#45;&gt;users -->
<!-- user_has_roles&#45;&gt;users -->
<g id="edge2" class="edge">
<title>user_has_roles:e&#45;&gt;users:w</title>
<path fill="none" stroke="#29235c" stroke-width="3" d="M444.92,-570.96C598.13,-570.96 483.73,-854.77 624.92,-867.52"/>
<polygon fill="#29235c" stroke="#29235c" stroke-width="3" points="624.92,-871.02 635.06,-867.96 625.22,-864.03 624.92,-871.02"/>
<text text-anchor="middle" x="626.17" y="-877.56" font-family="Helvetica,sans-Serif" font-size="32.00" fill="#29235c">1</text>
<text text-anchor="middle" x="438.7" y="-580.56" font-family="Helvetica,sans-Serif" font-size="32.00" fill="#29235c">*</text>
</g>
</g>
</svg>
