<?xml version="1.0" encoding="UTF-8" standalone="no"?>
<!DOCTYPE svg PUBLIC "-//W3C//DTD SVG 1.1//EN"
 "http://www.w3.org/Graphics/SVG/1.1/DTD/svg11.dtd">
<!-- Generated by graphviz version 2.47.0 (20210316.0004)
 -->
<!-- Title: dbml Pages: 1 -->
<svg width="2000pt" height="1078pt"
 viewBox="0.00 0.00 1999.73 1078.21" xmlns="http://www.w3.org/2000/svg" xmlns:xlink="http://www.w3.org/1999/xlink">
<g id="graph0" class="graph" transform="scale(1 1) rotate(0) translate(4 1074.21)">
<title>dbml</title>
<!-- levels -->
<g id="levels" class="node">
<title>levels</title>
<ellipse fill="none" stroke="black" stroke-width="0" cx="1175.09" cy="-280.53" rx="260.43" ry="214.92"/>
<polygon fill="#1d71b8" stroke="transparent" points="993.09,-370.53 993.09,-430.53 1357.09,-430.53 1357.09,-370.53 993.09,-370.53"/>
<polygon fill="none" stroke="#29235c" points="993.09,-370.53 993.09,-430.53 1357.09,-430.53 1357.09,-370.53 993.09,-370.53"/>
<text text-anchor="start" x="1071.95" y="-391.73" font-family="Helvetica,sans-Serif" font-weight="bold" font-size="32.00" fill="#ffffff"> &#160;&#160;&#160;&#160;&#160;&#160;levels &#160;&#160;&#160;&#160;&#160;&#160;</text>
<polygon fill="#e7e2dd" stroke="transparent" points="993.09,-310.53 993.09,-370.53 1357.09,-370.53 1357.09,-310.53 993.09,-310.53"/>
<polygon fill="none" stroke="#29235c" points="993.09,-310.53 993.09,-370.53 1357.09,-370.53 1357.09,-310.53 993.09,-310.53"/>
<text text-anchor="start" x="1004.09" y="-331.73" font-family="Helvetica,sans-Serif" font-weight="bold" font-size="32.00" fill="#29235c">id</text>
<text text-anchor="start" x="1028.98" y="-331.73" font-family="Helvetica,sans-Serif" font-size="32.00" fill="#29235c"> &#160;&#160;&#160;</text>
<text text-anchor="start" x="1312.3" y="-331.73" font-family="Helvetica,sans-Serif" font-style="italic" font-size="32.00" fill="#29235c">int</text>
<polygon fill="#e7e2dd" stroke="transparent" points="993.09,-250.53 993.09,-310.53 1357.09,-310.53 1357.09,-250.53 993.09,-250.53"/>
<polygon fill="none" stroke="#29235c" points="993.09,-250.53 993.09,-310.53 1357.09,-310.53 1357.09,-250.53 993.09,-250.53"/>
<text text-anchor="start" x="1004.09" y="-270.73" font-family="Helvetica,sans-Serif" font-size="32.00" fill="#29235c">name &#160;&#160;&#160;</text>
<text text-anchor="start" x="1200.32" y="-271.73" font-family="Helvetica,sans-Serif" font-style="italic" font-size="32.00" fill="#29235c">varchar</text>
<text text-anchor="start" x="1307" y="-271.73" font-family="Helvetica,sans-Serif" font-size="32.00" fill="#29235c"> </text>
<text text-anchor="start" x="1315.89" y="-271.73" font-family="Helvetica,sans-Serif" font-weight="bold" font-size="32.00" fill="#29235c">(!)</text>
<polygon fill="#e7e2dd" stroke="transparent" points="993.09,-190.53 993.09,-250.53 1357.09,-250.53 1357.09,-190.53 993.09,-190.53"/>
<polygon fill="none" stroke="#29235c" points="993.09,-190.53 993.09,-250.53 1357.09,-250.53 1357.09,-190.53 993.09,-190.53"/>
<text text-anchor="start" x="1004.09" y="-210.73" font-family="Helvetica,sans-Serif" font-size="32.00" fill="#29235c">created_at &#160;&#160;&#160;</text>
<text text-anchor="start" x="1198.53" y="-211.73" font-family="Helvetica,sans-Serif" font-style="italic" font-size="32.00" fill="#29235c">timestamp</text>
<polygon fill="#e7e2dd" stroke="transparent" points="993.09,-130.53 993.09,-190.53 1357.09,-190.53 1357.09,-130.53 993.09,-130.53"/>
<polygon fill="none" stroke="#29235c" points="993.09,-130.53 993.09,-190.53 1357.09,-190.53 1357.09,-130.53 993.09,-130.53"/>
<text text-anchor="start" x="1003.75" y="-150.73" font-family="Helvetica,sans-Serif" font-size="32.00" fill="#29235c">updated_at &#160;&#160;&#160;</text>
<text text-anchor="start" x="1198.81" y="-151.73" font-family="Helvetica,sans-Serif" font-style="italic" font-size="32.00" fill="#29235c">timestamp</text>
<polygon fill="none" stroke="#29235c" stroke-width="2" points="992.09,-129.53 992.09,-431.53 1358.09,-431.53 1358.09,-129.53 992.09,-129.53"/>
</g>
<!-- positions -->
<g id="positions" class="node">
<title>positions</title>
<ellipse fill="none" stroke="black" stroke-width="0" cx="1175.09" cy="-770.53" rx="260.43" ry="257.27"/>
<polygon fill="#1d71b8" stroke="transparent" points="993.09,-890.53 993.09,-950.53 1357.09,-950.53 1357.09,-890.53 993.09,-890.53"/>
<polygon fill="none" stroke="#29235c" points="993.09,-890.53 993.09,-950.53 1357.09,-950.53 1357.09,-890.53 993.09,-890.53"/>
<text text-anchor="start" x="1049.71" y="-911.73" font-family="Helvetica,sans-Serif" font-weight="bold" font-size="32.00" fill="#ffffff"> &#160;&#160;&#160;&#160;&#160;&#160;positions &#160;&#160;&#160;&#160;&#160;&#160;</text>
<polygon fill="#e7e2dd" stroke="transparent" points="993.09,-830.53 993.09,-890.53 1357.09,-890.53 1357.09,-830.53 993.09,-830.53"/>
<polygon fill="none" stroke="#29235c" points="993.09,-830.53 993.09,-890.53 1357.09,-890.53 1357.09,-830.53 993.09,-830.53"/>
<text text-anchor="start" x="1004.09" y="-851.73" font-family="Helvetica,sans-Serif" font-weight="bold" font-size="32.00" fill="#29235c">id</text>
<text text-anchor="start" x="1028.98" y="-851.73" font-family="Helvetica,sans-Serif" font-size="32.00" fill="#29235c"> &#160;&#160;&#160;</text>
<text text-anchor="start" x="1312.3" y="-851.73" font-family="Helvetica,sans-Serif" font-style="italic" font-size="32.00" fill="#29235c">int</text>
<polygon fill="#e7e2dd" stroke="transparent" points="993.09,-770.53 993.09,-830.53 1357.09,-830.53 1357.09,-770.53 993.09,-770.53"/>
<polygon fill="none" stroke="#29235c" points="993.09,-770.53 993.09,-830.53 1357.09,-830.53 1357.09,-770.53 993.09,-770.53"/>
<text text-anchor="start" x="1004.09" y="-790.73" font-family="Helvetica,sans-Serif" font-size="32.00" fill="#29235c">name &#160;&#160;&#160;</text>
<text text-anchor="start" x="1200.32" y="-791.73" font-family="Helvetica,sans-Serif" font-style="italic" font-size="32.00" fill="#29235c">varchar</text>
<text text-anchor="start" x="1307" y="-791.73" font-family="Helvetica,sans-Serif" font-size="32.00" fill="#29235c"> </text>
<text text-anchor="start" x="1315.89" y="-791.73" font-family="Helvetica,sans-Serif" font-weight="bold" font-size="32.00" fill="#29235c">(!)</text>
<polygon fill="#e7e2dd" stroke="transparent" points="993.09,-710.53 993.09,-770.53 1357.09,-770.53 1357.09,-710.53 993.09,-710.53"/>
<polygon fill="none" stroke="#29235c" points="993.09,-710.53 993.09,-770.53 1357.09,-770.53 1357.09,-710.53 993.09,-710.53"/>
<text text-anchor="start" x="1004.09" y="-730.73" font-family="Helvetica,sans-Serif" font-size="32.00" fill="#29235c">department_id &#160;&#160;&#160;</text>
<text text-anchor="start" x="1312.3" y="-731.73" font-family="Helvetica,sans-Serif" font-style="italic" font-size="32.00" fill="#29235c">int</text>
<polygon fill="#e7e2dd" stroke="transparent" points="993.09,-650.53 993.09,-710.53 1357.09,-710.53 1357.09,-650.53 993.09,-650.53"/>
<polygon fill="none" stroke="#29235c" points="993.09,-650.53 993.09,-710.53 1357.09,-710.53 1357.09,-650.53 993.09,-650.53"/>
<text text-anchor="start" x="1004.09" y="-670.73" font-family="Helvetica,sans-Serif" font-size="32.00" fill="#29235c">created_at &#160;&#160;&#160;</text>
<text text-anchor="start" x="1198.53" y="-671.73" font-family="Helvetica,sans-Serif" font-style="italic" font-size="32.00" fill="#29235c">timestamp</text>
<polygon fill="#e7e2dd" stroke="transparent" points="993.09,-590.53 993.09,-650.53 1357.09,-650.53 1357.09,-590.53 993.09,-590.53"/>
<polygon fill="none" stroke="#29235c" points="993.09,-590.53 993.09,-650.53 1357.09,-650.53 1357.09,-590.53 993.09,-590.53"/>
<text text-anchor="start" x="1003.75" y="-610.73" font-family="Helvetica,sans-Serif" font-size="32.00" fill="#29235c">updated_at &#160;&#160;&#160;</text>
<text text-anchor="start" x="1198.81" y="-611.73" font-family="Helvetica,sans-Serif" font-style="italic" font-size="32.00" fill="#29235c">timestamp</text>
<polygon fill="none" stroke="#29235c" stroke-width="2" points="992.09,-589.53 992.09,-951.53 1358.09,-951.53 1358.09,-589.53 992.09,-589.53"/>
</g>
<!-- departments -->
<g id="departments" class="node">
<title>departments</title>
<ellipse fill="none" stroke="black" stroke-width="0" cx="1731.52" cy="-800.53" rx="260.43" ry="214.92"/>
<polygon fill="#1d71b8" stroke="transparent" points="1549.52,-890.53 1549.52,-950.53 1913.52,-950.53 1913.52,-890.53 1549.52,-890.53"/>
<polygon fill="none" stroke="#29235c" points="1549.52,-890.53 1549.52,-950.53 1913.52,-950.53 1913.52,-890.53 1549.52,-890.53"/>
<text text-anchor="start" x="1580.36" y="-911.73" font-family="Helvetica,sans-Serif" font-weight="bold" font-size="32.00" fill="#ffffff"> &#160;&#160;&#160;&#160;&#160;&#160;departments &#160;&#160;&#160;&#160;&#160;&#160;</text>
<polygon fill="#e7e2dd" stroke="transparent" points="1549.52,-830.53 1549.52,-890.53 1913.52,-890.53 1913.52,-830.53 1549.52,-830.53"/>
<polygon fill="none" stroke="#29235c" points="1549.52,-830.53 1549.52,-890.53 1913.52,-890.53 1913.52,-830.53 1549.52,-830.53"/>
<text text-anchor="start" x="1560.52" y="-851.73" font-family="Helvetica,sans-Serif" font-weight="bold" font-size="32.00" fill="#29235c">id</text>
<text text-anchor="start" x="1585.41" y="-851.73" font-family="Helvetica,sans-Serif" font-size="32.00" fill="#29235c"> &#160;&#160;&#160;</text>
<text text-anchor="start" x="1868.73" y="-851.73" font-family="Helvetica,sans-Serif" font-style="italic" font-size="32.00" fill="#29235c">int</text>
<polygon fill="#e7e2dd" stroke="transparent" points="1549.52,-770.53 1549.52,-830.53 1913.52,-830.53 1913.52,-770.53 1549.52,-770.53"/>
<polygon fill="none" stroke="#29235c" points="1549.52,-770.53 1549.52,-830.53 1913.52,-830.53 1913.52,-770.53 1549.52,-770.53"/>
<text text-anchor="start" x="1560.52" y="-790.73" font-family="Helvetica,sans-Serif" font-size="32.00" fill="#29235c">name &#160;&#160;&#160;</text>
<text text-anchor="start" x="1756.75" y="-791.73" font-family="Helvetica,sans-Serif" font-style="italic" font-size="32.00" fill="#29235c">varchar</text>
<text text-anchor="start" x="1863.43" y="-791.73" font-family="Helvetica,sans-Serif" font-size="32.00" fill="#29235c"> </text>
<text text-anchor="start" x="1872.32" y="-791.73" font-family="Helvetica,sans-Serif" font-weight="bold" font-size="32.00" fill="#29235c">(!)</text>
<polygon fill="#e7e2dd" stroke="transparent" points="1549.52,-710.53 1549.52,-770.53 1913.52,-770.53 1913.52,-710.53 1549.52,-710.53"/>
<polygon fill="none" stroke="#29235c" points="1549.52,-710.53 1549.52,-770.53 1913.52,-770.53 1913.52,-710.53 1549.52,-710.53"/>
<text text-anchor="start" x="1560.52" y="-730.73" font-family="Helvetica,sans-Serif" font-size="32.00" fill="#29235c">created_at &#160;&#160;&#160;</text>
<text text-anchor="start" x="1754.96" y="-731.73" font-family="Helvetica,sans-Serif" font-style="italic" font-size="32.00" fill="#29235c">timestamp</text>
<polygon fill="#e7e2dd" stroke="transparent" points="1549.52,-650.53 1549.52,-710.53 1913.52,-710.53 1913.52,-650.53 1549.52,-650.53"/>
<polygon fill="none" stroke="#29235c" points="1549.52,-650.53 1549.52,-710.53 1913.52,-710.53 1913.52,-650.53 1549.52,-650.53"/>
<text text-anchor="start" x="1560.18" y="-670.73" font-family="Helvetica,sans-Serif" font-size="32.00" fill="#29235c">updated_at &#160;&#160;&#160;</text>
<text text-anchor="start" x="1755.24" y="-671.73" font-family="Helvetica,sans-Serif" font-style="italic" font-size="32.00" fill="#29235c">timestamp</text>
<polygon fill="none" stroke="#29235c" stroke-width="2" points="1548.52,-649.53 1548.52,-951.53 1914.52,-951.53 1914.52,-649.53 1548.52,-649.53"/>
</g>
<!-- positions&#45;&gt;departments -->
<!-- positions&#45;&gt;departments -->
<g id="edge2" class="edge">
<title>positions:e&#45;&gt;departments:w</title>
<path fill="none" stroke="#29235c" stroke-width="3" d="M1358.09,-740.53C1454.61,-740.53 1449.02,-852.24 1538.36,-860.1"/>
<polygon fill="#29235c" stroke="#29235c" stroke-width="3" points="1538.38,-863.6 1548.52,-860.53 1538.68,-856.61 1538.38,-863.6"/>
<text text-anchor="middle" x="1539.62" y="-870.13" font-family="Helvetica,sans-Serif" font-size="32.00" fill="#29235c">1</text>
<text text-anchor="middle" x="1364.31" y="-750.13" font-family="Helvetica,sans-Serif" font-size="32.00" fill="#29235c">*</text>
</g>
<!-- user_titles -->
<g id="user_titles" class="node">
<title>user_titles</title>
<ellipse fill="none" stroke="black" stroke-width="0" cx="618.66" cy="-710.53" rx="260.43" ry="342.48"/>
<polygon fill="#1d71b8" stroke="transparent" points="436.66,-890.53 436.66,-950.53 800.66,-950.53 800.66,-890.53 436.66,-890.53"/>
<polygon fill="none" stroke="#29235c" points="436.66,-890.53 436.66,-950.53 800.66,-950.53 800.66,-890.53 436.66,-890.53"/>
<text text-anchor="start" x="483.51" y="-911.73" font-family="Helvetica,sans-Serif" font-weight="bold" font-size="32.00" fill="#ffffff"> &#160;&#160;&#160;&#160;&#160;&#160;user_titles &#160;&#160;&#160;&#160;&#160;&#160;</text>
<polygon fill="#e7e2dd" stroke="transparent" points="436.66,-830.53 436.66,-890.53 800.66,-890.53 800.66,-830.53 436.66,-830.53"/>
<polygon fill="none" stroke="#29235c" points="436.66,-830.53 436.66,-890.53 800.66,-890.53 800.66,-830.53 436.66,-830.53"/>
<text text-anchor="start" x="447.66" y="-851.73" font-family="Helvetica,sans-Serif" font-weight="bold" font-size="32.00" fill="#29235c">id</text>
<text text-anchor="start" x="472.55" y="-851.73" font-family="Helvetica,sans-Serif" font-size="32.00" fill="#29235c"> &#160;&#160;&#160;</text>
<text text-anchor="start" x="755.87" y="-851.73" font-family="Helvetica,sans-Serif" font-style="italic" font-size="32.00" fill="#29235c">int</text>
<polygon fill="#e7e2dd" stroke="transparent" points="436.66,-770.53 436.66,-830.53 800.66,-830.53 800.66,-770.53 436.66,-770.53"/>
<polygon fill="none" stroke="#29235c" points="436.66,-770.53 436.66,-830.53 800.66,-830.53 800.66,-770.53 436.66,-770.53"/>
<text text-anchor="start" x="447.66" y="-790.73" font-family="Helvetica,sans-Serif" font-size="32.00" fill="#29235c">name &#160;&#160;&#160;</text>
<text text-anchor="start" x="643.89" y="-791.73" font-family="Helvetica,sans-Serif" font-style="italic" font-size="32.00" fill="#29235c">varchar</text>
<text text-anchor="start" x="750.56" y="-791.73" font-family="Helvetica,sans-Serif" font-size="32.00" fill="#29235c"> </text>
<text text-anchor="start" x="759.46" y="-791.73" font-family="Helvetica,sans-Serif" font-weight="bold" font-size="32.00" fill="#29235c">(!)</text>
<polygon fill="#e7e2dd" stroke="transparent" points="436.66,-710.53 436.66,-770.53 800.66,-770.53 800.66,-710.53 436.66,-710.53"/>
<polygon fill="none" stroke="#29235c" points="436.66,-710.53 436.66,-770.53 800.66,-770.53 800.66,-710.53 436.66,-710.53"/>
<text text-anchor="start" x="447.66" y="-730.73" font-family="Helvetica,sans-Serif" font-size="32.00" fill="#29235c">department_id &#160;&#160;&#160;</text>
<text text-anchor="start" x="755.87" y="-731.73" font-family="Helvetica,sans-Serif" font-style="italic" font-size="32.00" fill="#29235c">int</text>
<polygon fill="#e7e2dd" stroke="transparent" points="436.66,-650.53 436.66,-710.53 800.66,-710.53 800.66,-650.53 436.66,-650.53"/>
<polygon fill="none" stroke="#29235c" points="436.66,-650.53 436.66,-710.53 800.66,-710.53 800.66,-650.53 436.66,-650.53"/>
<text text-anchor="start" x="447.66" y="-670.73" font-family="Helvetica,sans-Serif" font-size="32.00" fill="#29235c">position_id &#160;&#160;&#160;</text>
<text text-anchor="start" x="755.87" y="-671.73" font-family="Helvetica,sans-Serif" font-style="italic" font-size="32.00" fill="#29235c">int</text>
<polygon fill="#e7e2dd" stroke="transparent" points="436.66,-590.53 436.66,-650.53 800.66,-650.53 800.66,-590.53 436.66,-590.53"/>
<polygon fill="none" stroke="#29235c" points="436.66,-590.53 436.66,-650.53 800.66,-650.53 800.66,-590.53 436.66,-590.53"/>
<text text-anchor="start" x="447.66" y="-610.73" font-family="Helvetica,sans-Serif" font-size="32.00" fill="#29235c">level_id &#160;&#160;&#160;</text>
<text text-anchor="start" x="755.87" y="-611.73" font-family="Helvetica,sans-Serif" font-style="italic" font-size="32.00" fill="#29235c">int</text>
<polygon fill="#e7e2dd" stroke="transparent" points="436.66,-530.53 436.66,-590.53 800.66,-590.53 800.66,-530.53 436.66,-530.53"/>
<polygon fill="none" stroke="#29235c" points="436.66,-530.53 436.66,-590.53 800.66,-590.53 800.66,-530.53 436.66,-530.53"/>
<text text-anchor="start" x="447.66" y="-550.73" font-family="Helvetica,sans-Serif" font-size="32.00" fill="#29235c">created_at &#160;&#160;&#160;</text>
<text text-anchor="start" x="642.1" y="-551.73" font-family="Helvetica,sans-Serif" font-style="italic" font-size="32.00" fill="#29235c">timestamp</text>
<polygon fill="#e7e2dd" stroke="transparent" points="436.66,-470.53 436.66,-530.53 800.66,-530.53 800.66,-470.53 436.66,-470.53"/>
<polygon fill="none" stroke="#29235c" points="436.66,-470.53 436.66,-530.53 800.66,-530.53 800.66,-470.53 436.66,-470.53"/>
<text text-anchor="start" x="447.32" y="-490.73" font-family="Helvetica,sans-Serif" font-size="32.00" fill="#29235c">updated_at &#160;&#160;&#160;</text>
<text text-anchor="start" x="642.38" y="-491.73" font-family="Helvetica,sans-Serif" font-style="italic" font-size="32.00" fill="#29235c">timestamp</text>
<polygon fill="none" stroke="#29235c" stroke-width="2" points="435.66,-469.53 435.66,-951.53 801.66,-951.53 801.66,-469.53 435.66,-469.53"/>
</g>
<!-- user_titles&#45;&gt;levels -->
<!-- user_titles&#45;&gt;levels -->
<g id="edge8" class="edge">
<title>user_titles:e&#45;&gt;levels:w</title>
<path fill="none" stroke="#29235c" stroke-width="3" d="M801.66,-620.53C948.63,-620.53 846.63,-353.5 981.93,-340.99"/>
<polygon fill="#29235c" stroke="#29235c" stroke-width="3" points="982.25,-344.48 992.09,-340.53 981.94,-337.48 982.25,-344.48"/>
<text text-anchor="middle" x="983.19" y="-311.73" font-family="Helvetica,sans-Serif" font-size="32.00" fill="#29235c">1</text>
<text text-anchor="middle" x="795.43" y="-591.73" font-family="Helvetica,sans-Serif" font-size="32.00" fill="#29235c">*</text>
</g>
<!-- user_titles&#45;&gt;positions -->
<!-- user_titles&#45;&gt;positions -->
<g id="edge6" class="edge">
<title>user_titles:e&#45;&gt;positions:w</title>
<path fill="none" stroke="#29235c" stroke-width="3" d="M801.66,-680.53C914.59,-680.53 878.05,-849.8 981.94,-860.05"/>
<polygon fill="#29235c" stroke="#29235c" stroke-width="3" points="981.93,-863.55 992.09,-860.53 982.27,-856.56 981.93,-863.55"/>
<text text-anchor="middle" x="983.19" y="-870.13" font-family="Helvetica,sans-Serif" font-size="32.00" fill="#29235c">1</text>
<text text-anchor="middle" x="795.43" y="-651.73" font-family="Helvetica,sans-Serif" font-size="32.00" fill="#29235c">*</text>
</g>
<!-- user_titles&#45;&gt;departments -->
<!-- user_titles&#45;&gt;departments -->
<g id="edge4" class="edge">
<title>user_titles:e&#45;&gt;departments:w</title>
<path fill="none" stroke="#29235c" stroke-width="3" d="M801.66,-740.53C955.72,-740.53 797.37,-156.18 914.87,-56.53 1003.07,18.27 1348.01,19.33 1435.3,-56.53 1568.83,-172.58 1375.9,-833.97 1538.38,-859.76"/>
<polygon fill="#29235c" stroke="#29235c" stroke-width="3" points="1538.28,-863.26 1548.52,-860.53 1538.81,-856.28 1538.28,-863.26"/>
<text text-anchor="middle" x="1557.41" y="-870.13" font-family="Helvetica,sans-Serif" font-size="32.00" fill="#29235c">1</text>
<text text-anchor="middle" x="795.43" y="-750.13" font-family="Helvetica,sans-Serif" font-size="32.00" fill="#29235c">*</text>
</g>
<!-- users -->
<g id="users" class="node">
<title>users</title>
<ellipse fill="none" stroke="black" stroke-width="0" cx="161.22" cy="-890.53" rx="161.44" ry="87.86"/>
<polygon fill="#1d71b8" stroke="transparent" points="49.22,-890.53 49.22,-950.53 273.22,-950.53 273.22,-890.53 49.22,-890.53"/>
<polygon fill="none" stroke="#29235c" points="49.22,-890.53 49.22,-950.53 273.22,-950.53 273.22,-890.53 49.22,-890.53"/>
<text text-anchor="start" x="59.86" y="-911.73" font-family="Helvetica,sans-Serif" font-weight="bold" font-size="32.00" fill="#ffffff"> &#160;&#160;&#160;&#160;&#160;&#160;users &#160;&#160;&#160;&#160;&#160;&#160;</text>
<polygon fill="#e7e2dd" stroke="transparent" points="49.22,-830.53 49.22,-890.53 273.22,-890.53 273.22,-830.53 49.22,-830.53"/>
<polygon fill="none" stroke="#29235c" points="49.22,-830.53 49.22,-890.53 273.22,-890.53 273.22,-830.53 49.22,-830.53"/>
<text text-anchor="start" x="60.22" y="-850.73" font-family="Helvetica,sans-Serif" font-size="32.00" fill="#29235c">title_id &#160;&#160;&#160;</text>
<text text-anchor="start" x="228.44" y="-851.73" font-family="Helvetica,sans-Serif" font-style="italic" font-size="32.00" fill="#29235c">int</text>
<polygon fill="none" stroke="#29235c" stroke-width="2" points="48.22,-829.53 48.22,-951.53 274.22,-951.53 274.22,-829.53 48.22,-829.53"/>
</g>
<!-- users&#45;&gt;user_titles -->
<!-- users&#45;&gt;user_titles -->
<g id="edge10" class="edge">
<title>users:e&#45;&gt;user_titles:w</title>
<path fill="none" stroke="#29235c" stroke-width="3" d="M274.22,-860.53C342.47,-860.53 362.03,-860.53 425.52,-860.53"/>
<polygon fill="#29235c" stroke="#29235c" stroke-width="3" points="425.66,-864.03 435.66,-860.53 425.66,-857.03 425.66,-864.03"/>
<text text-anchor="middle" x="426.76" y="-870.13" font-family="Helvetica,sans-Serif" font-size="32.00" fill="#29235c">1</text>
<text text-anchor="middle" x="265.33" y="-870.13" font-family="Helvetica,sans-Serif" font-size="32.00" fill="#29235c">1</text>
</g>
</g>
</svg>
