<?xml version="1.0" encoding="UTF-8" standalone="no"?>
<!DOCTYPE svg PUBLIC "-//W3C//DTD SVG 1.1//EN"
 "http://www.w3.org/Graphics/SVG/1.1/DTD/svg11.dtd">
<!-- Generated by graphviz version 2.47.0 (20210316.0004)
 -->
<!-- Title: dbml Pages: 1 -->
<svg width="1521pt" height="692pt"
 viewBox="0.00 0.00 1521.08 692.48" xmlns="http://www.w3.org/2000/svg" xmlns:xlink="http://www.w3.org/1999/xlink">
<g id="graph0" class="graph" transform="scale(1 1) rotate(0) translate(4 688.48)">
<title>dbml</title>
<!-- projects -->
<g id="projects" class="node">
<title>projects</title>
<ellipse fill="none" stroke="black" stroke-width="0" cx="1269.13" cy="-372.24" rx="243.9" ry="257.27"/>
<polygon fill="#1d71b8" stroke="transparent" points="1099.13,-492.24 1099.13,-552.24 1440.13,-552.24 1440.13,-492.24 1099.13,-492.24"/>
<polygon fill="none" stroke="#29235c" points="1099.13,-492.24 1099.13,-552.24 1440.13,-552.24 1440.13,-492.24 1099.13,-492.24"/>
<text text-anchor="start" x="1151.38" y="-513.44" font-family="Helvetica,sans-Serif" font-weight="bold" font-size="32.00" fill="#ffffff"> &#160;&#160;&#160;&#160;&#160;&#160;projects &#160;&#160;&#160;&#160;&#160;&#160;</text>
<polygon fill="#e7e2dd" stroke="transparent" points="1099.13,-432.24 1099.13,-492.24 1440.13,-492.24 1440.13,-432.24 1099.13,-432.24"/>
<polygon fill="none" stroke="#29235c" points="1099.13,-432.24 1099.13,-492.24 1440.13,-492.24 1440.13,-432.24 1099.13,-432.24"/>
<text text-anchor="start" x="1110.13" y="-453.44" font-family="Helvetica,sans-Serif" font-weight="bold" font-size="32.00" fill="#29235c">id</text>
<text text-anchor="start" x="1135.02" y="-453.44" font-family="Helvetica,sans-Serif" font-size="32.00" fill="#29235c"> &#160;&#160;&#160;</text>
<text text-anchor="start" x="1395.35" y="-453.44" font-family="Helvetica,sans-Serif" font-style="italic" font-size="32.00" fill="#29235c">int</text>
<polygon fill="#e7e2dd" stroke="transparent" points="1099.13,-372.24 1099.13,-432.24 1440.13,-432.24 1440.13,-372.24 1099.13,-372.24"/>
<polygon fill="none" stroke="#29235c" points="1099.13,-372.24 1099.13,-432.24 1440.13,-432.24 1440.13,-372.24 1099.13,-372.24"/>
<text text-anchor="start" x="1110.13" y="-392.44" font-family="Helvetica,sans-Serif" font-size="32.00" fill="#29235c">nama &#160;&#160;&#160;</text>
<text text-anchor="start" x="1283.37" y="-393.44" font-family="Helvetica,sans-Serif" font-style="italic" font-size="32.00" fill="#29235c">varchar</text>
<text text-anchor="start" x="1390.04" y="-393.44" font-family="Helvetica,sans-Serif" font-size="32.00" fill="#29235c"> </text>
<text text-anchor="start" x="1398.93" y="-393.44" font-family="Helvetica,sans-Serif" font-weight="bold" font-size="32.00" fill="#29235c">(!)</text>
<polygon fill="#e7e2dd" stroke="transparent" points="1099.13,-312.24 1099.13,-372.24 1440.13,-372.24 1440.13,-312.24 1099.13,-312.24"/>
<polygon fill="none" stroke="#29235c" points="1099.13,-312.24 1099.13,-372.24 1440.13,-372.24 1440.13,-312.24 1099.13,-312.24"/>
<text text-anchor="start" x="1110.13" y="-332.44" font-family="Helvetica,sans-Serif" font-size="32.00" fill="#29235c">deskripsi &#160;&#160;&#160;</text>
<text text-anchor="start" x="1377.56" y="-333.44" font-family="Helvetica,sans-Serif" font-style="italic" font-size="32.00" fill="#29235c">text</text>
<polygon fill="#e7e2dd" stroke="transparent" points="1099.13,-252.24 1099.13,-312.24 1440.13,-312.24 1440.13,-252.24 1099.13,-252.24"/>
<polygon fill="none" stroke="#29235c" points="1099.13,-252.24 1099.13,-312.24 1440.13,-312.24 1440.13,-252.24 1099.13,-252.24"/>
<text text-anchor="start" x="1110.13" y="-272.44" font-family="Helvetica,sans-Serif" font-size="32.00" fill="#29235c">tanggal_mulai &#160;&#160;&#160;</text>
<text text-anchor="start" x="1366.87" y="-273.44" font-family="Helvetica,sans-Serif" font-style="italic" font-size="32.00" fill="#29235c">date</text>
<polygon fill="#e7e2dd" stroke="transparent" points="1099.13,-192.24 1099.13,-252.24 1440.13,-252.24 1440.13,-192.24 1099.13,-192.24"/>
<polygon fill="none" stroke="#29235c" points="1099.13,-192.24 1099.13,-252.24 1440.13,-252.24 1440.13,-192.24 1099.13,-192.24"/>
<text text-anchor="start" x="1109.7" y="-212.44" font-family="Helvetica,sans-Serif" font-size="32.00" fill="#29235c">tanggal_selesai &#160;&#160;&#160;</text>
<text text-anchor="start" x="1367" y="-213.44" font-family="Helvetica,sans-Serif" font-style="italic" font-size="32.00" fill="#29235c">date</text>
<polygon fill="none" stroke="#29235c" stroke-width="2" points="1097.63,-191.24 1097.63,-553.24 1440.63,-553.24 1440.63,-191.24 1097.63,-191.24"/>
</g>
<!-- documents -->
<g id="documents" class="node">
<title>documents</title>
<ellipse fill="none" stroke="black" stroke-width="0" cx="772.81" cy="-402.24" rx="216.25" ry="214.92"/>
<polygon fill="#1d71b8" stroke="transparent" points="621.81,-492.24 621.81,-552.24 923.81,-552.24 923.81,-492.24 621.81,-492.24"/>
<polygon fill="none" stroke="#29235c" points="621.81,-492.24 621.81,-552.24 923.81,-552.24 923.81,-492.24 621.81,-492.24"/>
<text text-anchor="start" x="632.31" y="-513.44" font-family="Helvetica,sans-Serif" font-weight="bold" font-size="32.00" fill="#ffffff"> &#160;&#160;&#160;&#160;&#160;&#160;documents &#160;&#160;&#160;&#160;&#160;&#160;</text>
<polygon fill="#e7e2dd" stroke="transparent" points="621.81,-432.24 621.81,-492.24 923.81,-492.24 923.81,-432.24 621.81,-432.24"/>
<polygon fill="none" stroke="#29235c" points="621.81,-432.24 621.81,-492.24 923.81,-492.24 923.81,-432.24 621.81,-432.24"/>
<text text-anchor="start" x="632.81" y="-453.44" font-family="Helvetica,sans-Serif" font-weight="bold" font-size="32.00" fill="#29235c">id</text>
<text text-anchor="start" x="657.69" y="-453.44" font-family="Helvetica,sans-Serif" font-size="32.00" fill="#29235c"> &#160;&#160;&#160;</text>
<text text-anchor="start" x="879.02" y="-453.44" font-family="Helvetica,sans-Serif" font-style="italic" font-size="32.00" fill="#29235c">int</text>
<polygon fill="#e7e2dd" stroke="transparent" points="621.81,-372.24 621.81,-432.24 923.81,-432.24 923.81,-372.24 621.81,-372.24"/>
<polygon fill="none" stroke="#29235c" points="621.81,-372.24 621.81,-432.24 923.81,-432.24 923.81,-372.24 621.81,-372.24"/>
<text text-anchor="start" x="632.81" y="-392.44" font-family="Helvetica,sans-Serif" font-size="32.00" fill="#29235c">project_id &#160;&#160;&#160;</text>
<text text-anchor="start" x="879.02" y="-393.44" font-family="Helvetica,sans-Serif" font-style="italic" font-size="32.00" fill="#29235c">int</text>
<polygon fill="#e7e2dd" stroke="transparent" points="621.81,-312.24 621.81,-372.24 923.81,-372.24 923.81,-312.24 621.81,-312.24"/>
<polygon fill="none" stroke="#29235c" points="621.81,-312.24 621.81,-372.24 923.81,-372.24 923.81,-312.24 621.81,-312.24"/>
<text text-anchor="start" x="632.81" y="-332.44" font-family="Helvetica,sans-Serif" font-size="32.00" fill="#29235c">nama &#160;&#160;&#160;</text>
<text text-anchor="start" x="806.13" y="-333.44" font-family="Helvetica,sans-Serif" font-style="italic" font-size="32.00" fill="#29235c">varchar</text>
<polygon fill="#e7e2dd" stroke="transparent" points="621.81,-252.24 621.81,-312.24 923.81,-312.24 923.81,-252.24 621.81,-252.24"/>
<polygon fill="none" stroke="#29235c" points="621.81,-252.24 621.81,-312.24 923.81,-312.24 923.81,-252.24 621.81,-252.24"/>
<text text-anchor="start" x="632.81" y="-272.44" font-family="Helvetica,sans-Serif" font-size="32.00" fill="#29235c">kode &#160;&#160;&#160;</text>
<text text-anchor="start" x="806.13" y="-273.44" font-family="Helvetica,sans-Serif" font-style="italic" font-size="32.00" fill="#29235c">varchar</text>
<polygon fill="none" stroke="#29235c" stroke-width="2" points="620.81,-251.24 620.81,-553.24 924.81,-553.24 924.81,-251.24 620.81,-251.24"/>
</g>
<!-- documents&#45;&gt;projects -->
<!-- documents&#45;&gt;projects -->
<g id="edge2" class="edge">
<title>documents:e&#45;&gt;projects:w</title>
<path fill="none" stroke="#29235c" stroke-width="3" d="M924.81,-402.24C1002.82,-402.24 1015.6,-457.19 1088.01,-461.92"/>
<polygon fill="#29235c" stroke="#29235c" stroke-width="3" points="1088.03,-465.42 1098.13,-462.24 1088.25,-458.42 1088.03,-465.42"/>
<text text-anchor="middle" x="1107.03" y="-471.84" font-family="Helvetica,sans-Serif" font-size="32.00" fill="#29235c">1</text>
<text text-anchor="middle" x="918.58" y="-411.84" font-family="Helvetica,sans-Serif" font-size="32.00" fill="#29235c">*</text>
</g>
<!-- user_stories -->
<g id="user_stories" class="node">
<title>user_stories</title>
<ellipse fill="none" stroke="black" stroke-width="0" cx="260.22" cy="-342.24" rx="260.43" ry="342.48"/>
<polygon fill="#1d71b8" stroke="transparent" points="78.22,-522.24 78.22,-582.24 442.22,-582.24 442.22,-522.24 78.22,-522.24"/>
<polygon fill="none" stroke="#29235c" points="78.22,-522.24 78.22,-582.24 442.22,-582.24 442.22,-522.24 78.22,-522.24"/>
<text text-anchor="start" x="110.84" y="-543.44" font-family="Helvetica,sans-Serif" font-weight="bold" font-size="32.00" fill="#ffffff"> &#160;&#160;&#160;&#160;&#160;&#160;user_stories &#160;&#160;&#160;&#160;&#160;&#160;</text>
<polygon fill="#e7e2dd" stroke="transparent" points="78.22,-462.24 78.22,-522.24 442.22,-522.24 442.22,-462.24 78.22,-462.24"/>
<polygon fill="none" stroke="#29235c" points="78.22,-462.24 78.22,-522.24 442.22,-522.24 442.22,-462.24 78.22,-462.24"/>
<text text-anchor="start" x="89.22" y="-483.44" font-family="Helvetica,sans-Serif" font-weight="bold" font-size="32.00" fill="#29235c">id</text>
<text text-anchor="start" x="114.1" y="-483.44" font-family="Helvetica,sans-Serif" font-size="32.00" fill="#29235c"> &#160;&#160;&#160;</text>
<text text-anchor="start" x="397.43" y="-483.44" font-family="Helvetica,sans-Serif" font-style="italic" font-size="32.00" fill="#29235c">int</text>
<polygon fill="#e7e2dd" stroke="transparent" points="78.22,-402.24 78.22,-462.24 442.22,-462.24 442.22,-402.24 78.22,-402.24"/>
<polygon fill="none" stroke="#29235c" points="78.22,-402.24 78.22,-462.24 442.22,-462.24 442.22,-402.24 78.22,-402.24"/>
<text text-anchor="start" x="89.22" y="-422.44" font-family="Helvetica,sans-Serif" font-size="32.00" fill="#29235c">dokumen_id &#160;&#160;&#160;</text>
<text text-anchor="start" x="397.43" y="-423.44" font-family="Helvetica,sans-Serif" font-style="italic" font-size="32.00" fill="#29235c">int</text>
<polygon fill="#e7e2dd" stroke="transparent" points="78.22,-342.24 78.22,-402.24 442.22,-402.24 442.22,-342.24 78.22,-342.24"/>
<polygon fill="none" stroke="#29235c" points="78.22,-342.24 78.22,-402.24 442.22,-402.24 442.22,-342.24 78.22,-342.24"/>
<text text-anchor="start" x="89.22" y="-362.44" font-family="Helvetica,sans-Serif" font-size="32.00" fill="#29235c">project_id &#160;&#160;&#160;</text>
<text text-anchor="start" x="397.43" y="-363.44" font-family="Helvetica,sans-Serif" font-style="italic" font-size="32.00" fill="#29235c">int</text>
<polygon fill="#e7e2dd" stroke="transparent" points="78.22,-282.24 78.22,-342.24 442.22,-342.24 442.22,-282.24 78.22,-282.24"/>
<polygon fill="none" stroke="#29235c" points="78.22,-282.24 78.22,-342.24 442.22,-342.24 442.22,-282.24 78.22,-282.24"/>
<text text-anchor="start" x="89.22" y="-302.44" font-family="Helvetica,sans-Serif" font-size="32.00" fill="#29235c">nama &#160;&#160;&#160;</text>
<text text-anchor="start" x="324.54" y="-303.44" font-family="Helvetica,sans-Serif" font-style="italic" font-size="32.00" fill="#29235c">varchar</text>
<polygon fill="#e7e2dd" stroke="transparent" points="78.22,-222.24 78.22,-282.24 442.22,-282.24 442.22,-222.24 78.22,-222.24"/>
<polygon fill="none" stroke="#29235c" points="78.22,-222.24 78.22,-282.24 442.22,-282.24 442.22,-222.24 78.22,-222.24"/>
<text text-anchor="start" x="89.22" y="-242.44" font-family="Helvetica,sans-Serif" font-size="32.00" fill="#29235c">kode &#160;&#160;&#160;</text>
<text text-anchor="start" x="324.54" y="-243.44" font-family="Helvetica,sans-Serif" font-style="italic" font-size="32.00" fill="#29235c">varchar</text>
<polygon fill="#e7e2dd" stroke="transparent" points="78.22,-162.24 78.22,-222.24 442.22,-222.24 442.22,-162.24 78.22,-162.24"/>
<polygon fill="none" stroke="#29235c" points="78.22,-162.24 78.22,-222.24 442.22,-222.24 442.22,-162.24 78.22,-162.24"/>
<text text-anchor="start" x="89.22" y="-182.44" font-family="Helvetica,sans-Serif" font-size="32.00" fill="#29235c">created_at &#160;&#160;&#160;</text>
<text text-anchor="start" x="283.66" y="-183.44" font-family="Helvetica,sans-Serif" font-style="italic" font-size="32.00" fill="#29235c">timestamp</text>
<polygon fill="#e7e2dd" stroke="transparent" points="78.22,-102.24 78.22,-162.24 442.22,-162.24 442.22,-102.24 78.22,-102.24"/>
<polygon fill="none" stroke="#29235c" points="78.22,-102.24 78.22,-162.24 442.22,-162.24 442.22,-102.24 78.22,-102.24"/>
<text text-anchor="start" x="88.88" y="-122.44" font-family="Helvetica,sans-Serif" font-size="32.00" fill="#29235c">updated_at &#160;&#160;&#160;</text>
<text text-anchor="start" x="283.94" y="-123.44" font-family="Helvetica,sans-Serif" font-style="italic" font-size="32.00" fill="#29235c">timestamp</text>
<polygon fill="none" stroke="#29235c" stroke-width="2" points="77.22,-101.24 77.22,-583.24 443.22,-583.24 443.22,-101.24 77.22,-101.24"/>
</g>
<!-- user_stories&#45;&gt;projects -->
<!-- user_stories&#45;&gt;projects -->
<g id="edge6" class="edge">
<title>user_stories:e&#45;&gt;projects:w</title>
<path fill="none" stroke="#29235c" stroke-width="3" d="M443.22,-372.24C543.05,-372.24 469.86,-227.95 556.43,-178.24 723.22,-82.46 830.68,-69.29 989.18,-178.24 1097.65,-252.81 970.03,-451.39 1088,-461.81"/>
<polygon fill="#29235c" stroke="#29235c" stroke-width="3" points="1087.99,-465.32 1098.13,-462.24 1088.29,-458.32 1087.99,-465.32"/>
<text text-anchor="middle" x="1107.03" y="-433.44" font-family="Helvetica,sans-Serif" font-size="32.00" fill="#29235c">1</text>
<text text-anchor="middle" x="449.44" y="-381.84" font-family="Helvetica,sans-Serif" font-size="32.00" fill="#29235c">*</text>
</g>
<!-- user_stories&#45;&gt;documents -->
<!-- user_stories&#45;&gt;documents -->
<g id="edge4" class="edge">
<title>user_stories:e&#45;&gt;documents:w</title>
<path fill="none" stroke="#29235c" stroke-width="3" d="M443.22,-432.24C519.67,-432.24 539.06,-459.6 610.39,-462.06"/>
<polygon fill="#29235c" stroke="#29235c" stroke-width="3" points="610.75,-465.57 620.81,-462.24 610.87,-458.57 610.75,-465.57"/>
<text text-anchor="middle" x="611.91" y="-471.84" font-family="Helvetica,sans-Serif" font-size="32.00" fill="#29235c">1</text>
<text text-anchor="middle" x="449.44" y="-441.84" font-family="Helvetica,sans-Serif" font-size="32.00" fill="#29235c">*</text>
</g>
</g>
</svg>
