<?xml version="1.0" encoding="UTF-8" standalone="no"?>
<!DOCTYPE svg PUBLIC "-//W3C//DTD SVG 1.1//EN"
 "http://www.w3.org/Graphics/SVG/1.1/DTD/svg11.dtd">
<!-- Generated by graphviz version 2.47.0 (20210316.0004)
 -->
<!-- Title: dbml Pages: 1 -->
<svg width="2898pt" height="1276pt"
 viewBox="0.00 0.00 2898.40 1276.21" xmlns="http://www.w3.org/2000/svg" xmlns:xlink="http://www.w3.org/1999/xlink">
<g id="graph0" class="graph" transform="scale(1 1) rotate(0) translate(4 1272.21)">
<title>dbml</title>
<!-- levels -->
<g id="levels" class="node">
<title>levels</title>
<ellipse fill="none" stroke="black" stroke-width="0" cx="2073.76" cy="-280.53" rx="260.43" ry="214.92"/>
<polygon fill="#1d71b8" stroke="transparent" points="1891.76,-370.53 1891.76,-430.53 2255.76,-430.53 2255.76,-370.53 1891.76,-370.53"/>
<polygon fill="none" stroke="#29235c" points="1891.76,-370.53 1891.76,-430.53 2255.76,-430.53 2255.76,-370.53 1891.76,-370.53"/>
<text text-anchor="start" x="1970.62" y="-391.73" font-family="Helvetica,sans-Serif" font-weight="bold" font-size="32.00" fill="#ffffff"> &#160;&#160;&#160;&#160;&#160;&#160;levels &#160;&#160;&#160;&#160;&#160;&#160;</text>
<polygon fill="#e7e2dd" stroke="transparent" points="1891.76,-310.53 1891.76,-370.53 2255.76,-370.53 2255.76,-310.53 1891.76,-310.53"/>
<polygon fill="none" stroke="#29235c" points="1891.76,-310.53 1891.76,-370.53 2255.76,-370.53 2255.76,-310.53 1891.76,-310.53"/>
<text text-anchor="start" x="1902.76" y="-331.73" font-family="Helvetica,sans-Serif" font-weight="bold" font-size="32.00" fill="#29235c">id</text>
<text text-anchor="start" x="1927.65" y="-331.73" font-family="Helvetica,sans-Serif" font-size="32.00" fill="#29235c"> &#160;&#160;&#160;</text>
<text text-anchor="start" x="2210.97" y="-331.73" font-family="Helvetica,sans-Serif" font-style="italic" font-size="32.00" fill="#29235c">int</text>
<polygon fill="#e7e2dd" stroke="transparent" points="1891.76,-250.53 1891.76,-310.53 2255.76,-310.53 2255.76,-250.53 1891.76,-250.53"/>
<polygon fill="none" stroke="#29235c" points="1891.76,-250.53 1891.76,-310.53 2255.76,-310.53 2255.76,-250.53 1891.76,-250.53"/>
<text text-anchor="start" x="1902.76" y="-270.73" font-family="Helvetica,sans-Serif" font-size="32.00" fill="#29235c">name &#160;&#160;&#160;</text>
<text text-anchor="start" x="2098.99" y="-271.73" font-family="Helvetica,sans-Serif" font-style="italic" font-size="32.00" fill="#29235c">varchar</text>
<text text-anchor="start" x="2205.67" y="-271.73" font-family="Helvetica,sans-Serif" font-size="32.00" fill="#29235c"> </text>
<text text-anchor="start" x="2214.56" y="-271.73" font-family="Helvetica,sans-Serif" font-weight="bold" font-size="32.00" fill="#29235c">(!)</text>
<polygon fill="#e7e2dd" stroke="transparent" points="1891.76,-190.53 1891.76,-250.53 2255.76,-250.53 2255.76,-190.53 1891.76,-190.53"/>
<polygon fill="none" stroke="#29235c" points="1891.76,-190.53 1891.76,-250.53 2255.76,-250.53 2255.76,-190.53 1891.76,-190.53"/>
<text text-anchor="start" x="1902.76" y="-210.73" font-family="Helvetica,sans-Serif" font-size="32.00" fill="#29235c">created_at &#160;&#160;&#160;</text>
<text text-anchor="start" x="2097.2" y="-211.73" font-family="Helvetica,sans-Serif" font-style="italic" font-size="32.00" fill="#29235c">timestamp</text>
<polygon fill="#e7e2dd" stroke="transparent" points="1891.76,-130.53 1891.76,-190.53 2255.76,-190.53 2255.76,-130.53 1891.76,-130.53"/>
<polygon fill="none" stroke="#29235c" points="1891.76,-130.53 1891.76,-190.53 2255.76,-190.53 2255.76,-130.53 1891.76,-130.53"/>
<text text-anchor="start" x="1902.42" y="-150.73" font-family="Helvetica,sans-Serif" font-size="32.00" fill="#29235c">updated_at &#160;&#160;&#160;</text>
<text text-anchor="start" x="2097.48" y="-151.73" font-family="Helvetica,sans-Serif" font-style="italic" font-size="32.00" fill="#29235c">timestamp</text>
<polygon fill="none" stroke="#29235c" stroke-width="2" points="1890.76,-129.53 1890.76,-431.53 2256.76,-431.53 2256.76,-129.53 1890.76,-129.53"/>
</g>
<!-- positions -->
<g id="positions" class="node">
<title>positions</title>
<ellipse fill="none" stroke="black" stroke-width="0" cx="2073.76" cy="-770.53" rx="260.43" ry="257.27"/>
<polygon fill="#1d71b8" stroke="transparent" points="1891.76,-890.53 1891.76,-950.53 2255.76,-950.53 2255.76,-890.53 1891.76,-890.53"/>
<polygon fill="none" stroke="#29235c" points="1891.76,-890.53 1891.76,-950.53 2255.76,-950.53 2255.76,-890.53 1891.76,-890.53"/>
<text text-anchor="start" x="1948.38" y="-911.73" font-family="Helvetica,sans-Serif" font-weight="bold" font-size="32.00" fill="#ffffff"> &#160;&#160;&#160;&#160;&#160;&#160;positions &#160;&#160;&#160;&#160;&#160;&#160;</text>
<polygon fill="#e7e2dd" stroke="transparent" points="1891.76,-830.53 1891.76,-890.53 2255.76,-890.53 2255.76,-830.53 1891.76,-830.53"/>
<polygon fill="none" stroke="#29235c" points="1891.76,-830.53 1891.76,-890.53 2255.76,-890.53 2255.76,-830.53 1891.76,-830.53"/>
<text text-anchor="start" x="1902.76" y="-851.73" font-family="Helvetica,sans-Serif" font-weight="bold" font-size="32.00" fill="#29235c">id</text>
<text text-anchor="start" x="1927.65" y="-851.73" font-family="Helvetica,sans-Serif" font-size="32.00" fill="#29235c"> &#160;&#160;&#160;</text>
<text text-anchor="start" x="2210.97" y="-851.73" font-family="Helvetica,sans-Serif" font-style="italic" font-size="32.00" fill="#29235c">int</text>
<polygon fill="#e7e2dd" stroke="transparent" points="1891.76,-770.53 1891.76,-830.53 2255.76,-830.53 2255.76,-770.53 1891.76,-770.53"/>
<polygon fill="none" stroke="#29235c" points="1891.76,-770.53 1891.76,-830.53 2255.76,-830.53 2255.76,-770.53 1891.76,-770.53"/>
<text text-anchor="start" x="1902.76" y="-790.73" font-family="Helvetica,sans-Serif" font-size="32.00" fill="#29235c">name &#160;&#160;&#160;</text>
<text text-anchor="start" x="2098.99" y="-791.73" font-family="Helvetica,sans-Serif" font-style="italic" font-size="32.00" fill="#29235c">varchar</text>
<text text-anchor="start" x="2205.67" y="-791.73" font-family="Helvetica,sans-Serif" font-size="32.00" fill="#29235c"> </text>
<text text-anchor="start" x="2214.56" y="-791.73" font-family="Helvetica,sans-Serif" font-weight="bold" font-size="32.00" fill="#29235c">(!)</text>
<polygon fill="#e7e2dd" stroke="transparent" points="1891.76,-710.53 1891.76,-770.53 2255.76,-770.53 2255.76,-710.53 1891.76,-710.53"/>
<polygon fill="none" stroke="#29235c" points="1891.76,-710.53 1891.76,-770.53 2255.76,-770.53 2255.76,-710.53 1891.76,-710.53"/>
<text text-anchor="start" x="1902.76" y="-730.73" font-family="Helvetica,sans-Serif" font-size="32.00" fill="#29235c">department_id &#160;&#160;&#160;</text>
<text text-anchor="start" x="2210.97" y="-731.73" font-family="Helvetica,sans-Serif" font-style="italic" font-size="32.00" fill="#29235c">int</text>
<polygon fill="#e7e2dd" stroke="transparent" points="1891.76,-650.53 1891.76,-710.53 2255.76,-710.53 2255.76,-650.53 1891.76,-650.53"/>
<polygon fill="none" stroke="#29235c" points="1891.76,-650.53 1891.76,-710.53 2255.76,-710.53 2255.76,-650.53 1891.76,-650.53"/>
<text text-anchor="start" x="1902.76" y="-670.73" font-family="Helvetica,sans-Serif" font-size="32.00" fill="#29235c">created_at &#160;&#160;&#160;</text>
<text text-anchor="start" x="2097.2" y="-671.73" font-family="Helvetica,sans-Serif" font-style="italic" font-size="32.00" fill="#29235c">timestamp</text>
<polygon fill="#e7e2dd" stroke="transparent" points="1891.76,-590.53 1891.76,-650.53 2255.76,-650.53 2255.76,-590.53 1891.76,-590.53"/>
<polygon fill="none" stroke="#29235c" points="1891.76,-590.53 1891.76,-650.53 2255.76,-650.53 2255.76,-590.53 1891.76,-590.53"/>
<text text-anchor="start" x="1902.42" y="-610.73" font-family="Helvetica,sans-Serif" font-size="32.00" fill="#29235c">updated_at &#160;&#160;&#160;</text>
<text text-anchor="start" x="2097.48" y="-611.73" font-family="Helvetica,sans-Serif" font-style="italic" font-size="32.00" fill="#29235c">timestamp</text>
<polygon fill="none" stroke="#29235c" stroke-width="2" points="1890.76,-589.53 1890.76,-951.53 2256.76,-951.53 2256.76,-589.53 1890.76,-589.53"/>
</g>
<!-- departments -->
<g id="departments" class="node">
<title>departments</title>
<ellipse fill="none" stroke="black" stroke-width="0" cx="2630.19" cy="-800.53" rx="260.43" ry="214.92"/>
<polygon fill="#1d71b8" stroke="transparent" points="2448.19,-890.53 2448.19,-950.53 2812.19,-950.53 2812.19,-890.53 2448.19,-890.53"/>
<polygon fill="none" stroke="#29235c" points="2448.19,-890.53 2448.19,-950.53 2812.19,-950.53 2812.19,-890.53 2448.19,-890.53"/>
<text text-anchor="start" x="2479.03" y="-911.73" font-family="Helvetica,sans-Serif" font-weight="bold" font-size="32.00" fill="#ffffff"> &#160;&#160;&#160;&#160;&#160;&#160;departments &#160;&#160;&#160;&#160;&#160;&#160;</text>
<polygon fill="#e7e2dd" stroke="transparent" points="2448.19,-830.53 2448.19,-890.53 2812.19,-890.53 2812.19,-830.53 2448.19,-830.53"/>
<polygon fill="none" stroke="#29235c" points="2448.19,-830.53 2448.19,-890.53 2812.19,-890.53 2812.19,-830.53 2448.19,-830.53"/>
<text text-anchor="start" x="2459.19" y="-851.73" font-family="Helvetica,sans-Serif" font-weight="bold" font-size="32.00" fill="#29235c">id</text>
<text text-anchor="start" x="2484.08" y="-851.73" font-family="Helvetica,sans-Serif" font-size="32.00" fill="#29235c"> &#160;&#160;&#160;</text>
<text text-anchor="start" x="2767.41" y="-851.73" font-family="Helvetica,sans-Serif" font-style="italic" font-size="32.00" fill="#29235c">int</text>
<polygon fill="#e7e2dd" stroke="transparent" points="2448.19,-770.53 2448.19,-830.53 2812.19,-830.53 2812.19,-770.53 2448.19,-770.53"/>
<polygon fill="none" stroke="#29235c" points="2448.19,-770.53 2448.19,-830.53 2812.19,-830.53 2812.19,-770.53 2448.19,-770.53"/>
<text text-anchor="start" x="2459.19" y="-790.73" font-family="Helvetica,sans-Serif" font-size="32.00" fill="#29235c">name &#160;&#160;&#160;</text>
<text text-anchor="start" x="2655.42" y="-791.73" font-family="Helvetica,sans-Serif" font-style="italic" font-size="32.00" fill="#29235c">varchar</text>
<text text-anchor="start" x="2762.1" y="-791.73" font-family="Helvetica,sans-Serif" font-size="32.00" fill="#29235c"> </text>
<text text-anchor="start" x="2770.99" y="-791.73" font-family="Helvetica,sans-Serif" font-weight="bold" font-size="32.00" fill="#29235c">(!)</text>
<polygon fill="#e7e2dd" stroke="transparent" points="2448.19,-710.53 2448.19,-770.53 2812.19,-770.53 2812.19,-710.53 2448.19,-710.53"/>
<polygon fill="none" stroke="#29235c" points="2448.19,-710.53 2448.19,-770.53 2812.19,-770.53 2812.19,-710.53 2448.19,-710.53"/>
<text text-anchor="start" x="2459.19" y="-730.73" font-family="Helvetica,sans-Serif" font-size="32.00" fill="#29235c">created_at &#160;&#160;&#160;</text>
<text text-anchor="start" x="2653.63" y="-731.73" font-family="Helvetica,sans-Serif" font-style="italic" font-size="32.00" fill="#29235c">timestamp</text>
<polygon fill="#e7e2dd" stroke="transparent" points="2448.19,-650.53 2448.19,-710.53 2812.19,-710.53 2812.19,-650.53 2448.19,-650.53"/>
<polygon fill="none" stroke="#29235c" points="2448.19,-650.53 2448.19,-710.53 2812.19,-710.53 2812.19,-650.53 2448.19,-650.53"/>
<text text-anchor="start" x="2458.85" y="-670.73" font-family="Helvetica,sans-Serif" font-size="32.00" fill="#29235c">updated_at &#160;&#160;&#160;</text>
<text text-anchor="start" x="2653.91" y="-671.73" font-family="Helvetica,sans-Serif" font-style="italic" font-size="32.00" fill="#29235c">timestamp</text>
<polygon fill="none" stroke="#29235c" stroke-width="2" points="2447.19,-649.53 2447.19,-951.53 2813.19,-951.53 2813.19,-649.53 2447.19,-649.53"/>
</g>
<!-- positions&#45;&gt;departments -->
<!-- positions&#45;&gt;departments -->
<g id="edge2" class="edge">
<title>positions:e&#45;&gt;departments:w</title>
<path fill="none" stroke="#29235c" stroke-width="3" d="M2256.76,-740.53C2353.28,-740.53 2347.69,-852.24 2437.03,-860.1"/>
<polygon fill="#29235c" stroke="#29235c" stroke-width="3" points="2437.05,-863.6 2447.19,-860.53 2437.35,-856.61 2437.05,-863.6"/>
<text text-anchor="middle" x="2438.29" y="-870.13" font-family="Helvetica,sans-Serif" font-size="32.00" fill="#29235c">1</text>
<text text-anchor="middle" x="2262.98" y="-750.13" font-family="Helvetica,sans-Serif" font-size="32.00" fill="#29235c">*</text>
</g>
<!-- titles -->
<g id="titles" class="node">
<title>titles</title>
<ellipse fill="none" stroke="black" stroke-width="0" cx="1517.33" cy="-710.53" rx="260.43" ry="342.48"/>
<polygon fill="#1d71b8" stroke="transparent" points="1335.33,-890.53 1335.33,-950.53 1699.33,-950.53 1699.33,-890.53 1335.33,-890.53"/>
<polygon fill="none" stroke="#29235c" points="1335.33,-890.53 1335.33,-950.53 1699.33,-950.53 1699.33,-890.53 1335.33,-890.53"/>
<text text-anchor="start" x="1422.19" y="-911.73" font-family="Helvetica,sans-Serif" font-weight="bold" font-size="32.00" fill="#ffffff"> &#160;&#160;&#160;&#160;&#160;&#160;titles &#160;&#160;&#160;&#160;&#160;&#160;</text>
<polygon fill="#e7e2dd" stroke="transparent" points="1335.33,-830.53 1335.33,-890.53 1699.33,-890.53 1699.33,-830.53 1335.33,-830.53"/>
<polygon fill="none" stroke="#29235c" points="1335.33,-830.53 1335.33,-890.53 1699.33,-890.53 1699.33,-830.53 1335.33,-830.53"/>
<text text-anchor="start" x="1346.33" y="-851.73" font-family="Helvetica,sans-Serif" font-weight="bold" font-size="32.00" fill="#29235c">id</text>
<text text-anchor="start" x="1371.22" y="-851.73" font-family="Helvetica,sans-Serif" font-size="32.00" fill="#29235c"> &#160;&#160;&#160;</text>
<text text-anchor="start" x="1654.54" y="-851.73" font-family="Helvetica,sans-Serif" font-style="italic" font-size="32.00" fill="#29235c">int</text>
<polygon fill="#e7e2dd" stroke="transparent" points="1335.33,-770.53 1335.33,-830.53 1699.33,-830.53 1699.33,-770.53 1335.33,-770.53"/>
<polygon fill="none" stroke="#29235c" points="1335.33,-770.53 1335.33,-830.53 1699.33,-830.53 1699.33,-770.53 1335.33,-770.53"/>
<text text-anchor="start" x="1346.33" y="-790.73" font-family="Helvetica,sans-Serif" font-size="32.00" fill="#29235c">name &#160;&#160;&#160;</text>
<text text-anchor="start" x="1542.56" y="-791.73" font-family="Helvetica,sans-Serif" font-style="italic" font-size="32.00" fill="#29235c">varchar</text>
<text text-anchor="start" x="1649.24" y="-791.73" font-family="Helvetica,sans-Serif" font-size="32.00" fill="#29235c"> </text>
<text text-anchor="start" x="1658.13" y="-791.73" font-family="Helvetica,sans-Serif" font-weight="bold" font-size="32.00" fill="#29235c">(!)</text>
<polygon fill="#e7e2dd" stroke="transparent" points="1335.33,-710.53 1335.33,-770.53 1699.33,-770.53 1699.33,-710.53 1335.33,-710.53"/>
<polygon fill="none" stroke="#29235c" points="1335.33,-710.53 1335.33,-770.53 1699.33,-770.53 1699.33,-710.53 1335.33,-710.53"/>
<text text-anchor="start" x="1346.33" y="-730.73" font-family="Helvetica,sans-Serif" font-size="32.00" fill="#29235c">department_id &#160;&#160;&#160;</text>
<text text-anchor="start" x="1654.54" y="-731.73" font-family="Helvetica,sans-Serif" font-style="italic" font-size="32.00" fill="#29235c">int</text>
<polygon fill="#e7e2dd" stroke="transparent" points="1335.33,-650.53 1335.33,-710.53 1699.33,-710.53 1699.33,-650.53 1335.33,-650.53"/>
<polygon fill="none" stroke="#29235c" points="1335.33,-650.53 1335.33,-710.53 1699.33,-710.53 1699.33,-650.53 1335.33,-650.53"/>
<text text-anchor="start" x="1346.33" y="-670.73" font-family="Helvetica,sans-Serif" font-size="32.00" fill="#29235c">position_id &#160;&#160;&#160;</text>
<text text-anchor="start" x="1654.54" y="-671.73" font-family="Helvetica,sans-Serif" font-style="italic" font-size="32.00" fill="#29235c">int</text>
<polygon fill="#e7e2dd" stroke="transparent" points="1335.33,-590.53 1335.33,-650.53 1699.33,-650.53 1699.33,-590.53 1335.33,-590.53"/>
<polygon fill="none" stroke="#29235c" points="1335.33,-590.53 1335.33,-650.53 1699.33,-650.53 1699.33,-590.53 1335.33,-590.53"/>
<text text-anchor="start" x="1346.33" y="-610.73" font-family="Helvetica,sans-Serif" font-size="32.00" fill="#29235c">level_id &#160;&#160;&#160;</text>
<text text-anchor="start" x="1654.54" y="-611.73" font-family="Helvetica,sans-Serif" font-style="italic" font-size="32.00" fill="#29235c">int</text>
<polygon fill="#e7e2dd" stroke="transparent" points="1335.33,-530.53 1335.33,-590.53 1699.33,-590.53 1699.33,-530.53 1335.33,-530.53"/>
<polygon fill="none" stroke="#29235c" points="1335.33,-530.53 1335.33,-590.53 1699.33,-590.53 1699.33,-530.53 1335.33,-530.53"/>
<text text-anchor="start" x="1346.33" y="-550.73" font-family="Helvetica,sans-Serif" font-size="32.00" fill="#29235c">created_at &#160;&#160;&#160;</text>
<text text-anchor="start" x="1540.77" y="-551.73" font-family="Helvetica,sans-Serif" font-style="italic" font-size="32.00" fill="#29235c">timestamp</text>
<polygon fill="#e7e2dd" stroke="transparent" points="1335.33,-470.53 1335.33,-530.53 1699.33,-530.53 1699.33,-470.53 1335.33,-470.53"/>
<polygon fill="none" stroke="#29235c" points="1335.33,-470.53 1335.33,-530.53 1699.33,-530.53 1699.33,-470.53 1335.33,-470.53"/>
<text text-anchor="start" x="1345.99" y="-490.73" font-family="Helvetica,sans-Serif" font-size="32.00" fill="#29235c">updated_at &#160;&#160;&#160;</text>
<text text-anchor="start" x="1541.05" y="-491.73" font-family="Helvetica,sans-Serif" font-style="italic" font-size="32.00" fill="#29235c">timestamp</text>
<polygon fill="none" stroke="#29235c" stroke-width="2" points="1334.33,-469.53 1334.33,-951.53 1700.33,-951.53 1700.33,-469.53 1334.33,-469.53"/>
</g>
<!-- titles&#45;&gt;levels -->
<!-- titles&#45;&gt;levels -->
<g id="edge8" class="edge">
<title>titles:e&#45;&gt;levels:w</title>
<path fill="none" stroke="#29235c" stroke-width="3" d="M1700.33,-620.53C1847.3,-620.53 1745.3,-353.5 1880.6,-340.99"/>
<polygon fill="#29235c" stroke="#29235c" stroke-width="3" points="1880.92,-344.48 1890.76,-340.53 1880.61,-337.48 1880.92,-344.48"/>
<text text-anchor="middle" x="1881.86" y="-311.73" font-family="Helvetica,sans-Serif" font-size="32.00" fill="#29235c">1</text>
<text text-anchor="middle" x="1694.1" y="-630.13" font-family="Helvetica,sans-Serif" font-size="32.00" fill="#29235c">*</text>
</g>
<!-- titles&#45;&gt;positions -->
<!-- titles&#45;&gt;positions -->
<g id="edge6" class="edge">
<title>titles:e&#45;&gt;positions:w</title>
<path fill="none" stroke="#29235c" stroke-width="3" d="M1700.33,-680.53C1813.26,-680.53 1776.72,-849.8 1880.61,-860.05"/>
<polygon fill="#29235c" stroke="#29235c" stroke-width="3" points="1880.6,-863.55 1890.76,-860.53 1880.94,-856.56 1880.6,-863.55"/>
<text text-anchor="middle" x="1881.86" y="-870.13" font-family="Helvetica,sans-Serif" font-size="32.00" fill="#29235c">1</text>
<text text-anchor="middle" x="1694.1" y="-690.13" font-family="Helvetica,sans-Serif" font-size="32.00" fill="#29235c">*</text>
</g>
<!-- titles&#45;&gt;departments -->
<!-- titles&#45;&gt;departments -->
<g id="edge4" class="edge">
<title>titles:e&#45;&gt;departments:w</title>
<path fill="none" stroke="#29235c" stroke-width="3" d="M1700.33,-740.53C1854.39,-740.53 1696.04,-156.18 1813.54,-56.53 1901.74,18.27 2246.68,19.33 2333.97,-56.53 2467.5,-172.58 2274.57,-833.97 2437.05,-859.76"/>
<polygon fill="#29235c" stroke="#29235c" stroke-width="3" points="2436.95,-863.26 2447.19,-860.53 2437.48,-856.28 2436.95,-863.26"/>
<text text-anchor="middle" x="2456.08" y="-870.13" font-family="Helvetica,sans-Serif" font-size="32.00" fill="#29235c">1</text>
<text text-anchor="middle" x="1694.1" y="-750.13" font-family="Helvetica,sans-Serif" font-size="32.00" fill="#29235c">*</text>
</g>
<!-- users -->
<g id="users" class="node">
<title>users</title>
<ellipse fill="none" stroke="black" stroke-width="0" cx="902.91" cy="-590.53" rx="318.4" ry="511.89"/>
<polygon fill="#1d71b8" stroke="transparent" points="679.91,-890.53 679.91,-950.53 1125.91,-950.53 1125.91,-890.53 679.91,-890.53"/>
<polygon fill="none" stroke="#29235c" points="679.91,-890.53 679.91,-950.53 1125.91,-950.53 1125.91,-890.53 679.91,-890.53"/>
<text text-anchor="start" x="801.55" y="-911.73" font-family="Helvetica,sans-Serif" font-weight="bold" font-size="32.00" fill="#ffffff"> &#160;&#160;&#160;&#160;&#160;&#160;users &#160;&#160;&#160;&#160;&#160;&#160;</text>
<polygon fill="#e7e2dd" stroke="transparent" points="679.91,-830.53 679.91,-890.53 1125.91,-890.53 1125.91,-830.53 679.91,-830.53"/>
<polygon fill="none" stroke="#29235c" points="679.91,-830.53 679.91,-890.53 1125.91,-890.53 1125.91,-830.53 679.91,-830.53"/>
<text text-anchor="start" x="690.91" y="-851.73" font-family="Helvetica,sans-Serif" font-weight="bold" font-size="32.00" fill="#29235c">id</text>
<text text-anchor="start" x="715.8" y="-851.73" font-family="Helvetica,sans-Serif" font-size="32.00" fill="#29235c"> &#160;&#160;&#160;</text>
<text text-anchor="start" x="1081.13" y="-851.73" font-family="Helvetica,sans-Serif" font-style="italic" font-size="32.00" fill="#29235c">int</text>
<polygon fill="#e7e2dd" stroke="transparent" points="679.91,-770.53 679.91,-830.53 1125.91,-830.53 1125.91,-770.53 679.91,-770.53"/>
<polygon fill="none" stroke="#29235c" points="679.91,-770.53 679.91,-830.53 1125.91,-830.53 1125.91,-770.53 679.91,-770.53"/>
<text text-anchor="start" x="690.91" y="-790.73" font-family="Helvetica,sans-Serif" font-size="32.00" fill="#29235c">title_id &#160;&#160;&#160;</text>
<text text-anchor="start" x="1081.13" y="-791.73" font-family="Helvetica,sans-Serif" font-style="italic" font-size="32.00" fill="#29235c">int</text>
<polygon fill="#e7e2dd" stroke="transparent" points="679.91,-710.53 679.91,-770.53 1125.91,-770.53 1125.91,-710.53 679.91,-710.53"/>
<polygon fill="none" stroke="#29235c" points="679.91,-710.53 679.91,-770.53 1125.91,-770.53 1125.91,-710.53 679.91,-710.53"/>
<text text-anchor="start" x="690.91" y="-730.73" font-family="Helvetica,sans-Serif" font-size="32.00" fill="#29235c">name &#160;&#160;&#160;</text>
<text text-anchor="start" x="969.15" y="-731.73" font-family="Helvetica,sans-Serif" font-style="italic" font-size="32.00" fill="#29235c">varchar</text>
<text text-anchor="start" x="1075.82" y="-731.73" font-family="Helvetica,sans-Serif" font-size="32.00" fill="#29235c"> </text>
<text text-anchor="start" x="1084.71" y="-731.73" font-family="Helvetica,sans-Serif" font-weight="bold" font-size="32.00" fill="#29235c">(!)</text>
<polygon fill="#e7e2dd" stroke="transparent" points="679.91,-650.53 679.91,-710.53 1125.91,-710.53 1125.91,-650.53 679.91,-650.53"/>
<polygon fill="none" stroke="#29235c" points="679.91,-650.53 679.91,-710.53 1125.91,-710.53 1125.91,-650.53 679.91,-650.53"/>
<text text-anchor="start" x="690.91" y="-670.73" font-family="Helvetica,sans-Serif" font-size="32.00" fill="#29235c">email &#160;&#160;&#160;</text>
<text text-anchor="start" x="969.15" y="-671.73" font-family="Helvetica,sans-Serif" font-style="italic" font-size="32.00" fill="#29235c">varchar</text>
<text text-anchor="start" x="1075.82" y="-671.73" font-family="Helvetica,sans-Serif" font-size="32.00" fill="#29235c"> </text>
<text text-anchor="start" x="1084.71" y="-671.73" font-family="Helvetica,sans-Serif" font-weight="bold" font-size="32.00" fill="#29235c">(!)</text>
<polygon fill="#e7e2dd" stroke="transparent" points="679.91,-590.53 679.91,-650.53 1125.91,-650.53 1125.91,-590.53 679.91,-590.53"/>
<polygon fill="none" stroke="#29235c" points="679.91,-590.53 679.91,-650.53 1125.91,-650.53 1125.91,-590.53 679.91,-590.53"/>
<text text-anchor="start" x="690.72" y="-610.73" font-family="Helvetica,sans-Serif" font-size="32.00" fill="#29235c">email_verified_at &#160;&#160;&#160;</text>
<text text-anchor="start" x="967.63" y="-611.73" font-family="Helvetica,sans-Serif" font-style="italic" font-size="32.00" fill="#29235c">timestamp</text>
<polygon fill="#e7e2dd" stroke="transparent" points="679.91,-530.53 679.91,-590.53 1125.91,-590.53 1125.91,-530.53 679.91,-530.53"/>
<polygon fill="none" stroke="#29235c" points="679.91,-530.53 679.91,-590.53 1125.91,-590.53 1125.91,-530.53 679.91,-530.53"/>
<text text-anchor="start" x="690.91" y="-550.73" font-family="Helvetica,sans-Serif" font-size="32.00" fill="#29235c">password &#160;&#160;&#160;</text>
<text text-anchor="start" x="969.15" y="-551.73" font-family="Helvetica,sans-Serif" font-style="italic" font-size="32.00" fill="#29235c">varchar</text>
<text text-anchor="start" x="1075.82" y="-551.73" font-family="Helvetica,sans-Serif" font-size="32.00" fill="#29235c"> </text>
<text text-anchor="start" x="1084.71" y="-551.73" font-family="Helvetica,sans-Serif" font-weight="bold" font-size="32.00" fill="#29235c">(!)</text>
<polygon fill="#e7e2dd" stroke="transparent" points="679.91,-470.53 679.91,-530.53 1125.91,-530.53 1125.91,-470.53 679.91,-470.53"/>
<polygon fill="none" stroke="#29235c" points="679.91,-470.53 679.91,-530.53 1125.91,-530.53 1125.91,-470.53 679.91,-470.53"/>
<text text-anchor="start" x="690.91" y="-490.73" font-family="Helvetica,sans-Serif" font-size="32.00" fill="#29235c">remember_token &#160;&#160;&#160;</text>
<text text-anchor="start" x="1008.24" y="-491.73" font-family="Helvetica,sans-Serif" font-style="italic" font-size="32.00" fill="#29235c">varchar</text>
<polygon fill="#e7e2dd" stroke="transparent" points="679.91,-410.53 679.91,-470.53 1125.91,-470.53 1125.91,-410.53 679.91,-410.53"/>
<polygon fill="none" stroke="#29235c" points="679.91,-410.53 679.91,-470.53 1125.91,-470.53 1125.91,-410.53 679.91,-410.53"/>
<text text-anchor="start" x="690.91" y="-430.73" font-family="Helvetica,sans-Serif" font-size="32.00" fill="#29235c">custom_fields &#160;&#160;&#160;</text>
<text text-anchor="start" x="1056.23" y="-431.73" font-family="Helvetica,sans-Serif" font-style="italic" font-size="32.00" fill="#29235c">json</text>
<polygon fill="#e7e2dd" stroke="transparent" points="679.91,-350.53 679.91,-410.53 1125.91,-410.53 1125.91,-350.53 679.91,-350.53"/>
<polygon fill="none" stroke="#29235c" points="679.91,-350.53 679.91,-410.53 1125.91,-410.53 1125.91,-350.53 679.91,-350.53"/>
<text text-anchor="start" x="690.91" y="-370.73" font-family="Helvetica,sans-Serif" font-size="32.00" fill="#29235c">avatar_url &#160;&#160;&#160;</text>
<text text-anchor="start" x="1008.24" y="-371.73" font-family="Helvetica,sans-Serif" font-style="italic" font-size="32.00" fill="#29235c">varchar</text>
<polygon fill="#e7e2dd" stroke="transparent" points="679.91,-290.53 679.91,-350.53 1125.91,-350.53 1125.91,-290.53 679.91,-290.53"/>
<polygon fill="none" stroke="#29235c" points="679.91,-290.53 679.91,-350.53 1125.91,-350.53 1125.91,-290.53 679.91,-290.53"/>
<text text-anchor="start" x="690.91" y="-310.73" font-family="Helvetica,sans-Serif" font-size="32.00" fill="#29235c">created_at &#160;&#160;&#160;</text>
<text text-anchor="start" x="967.35" y="-311.73" font-family="Helvetica,sans-Serif" font-style="italic" font-size="32.00" fill="#29235c">timestamp</text>
<polygon fill="#e7e2dd" stroke="transparent" points="679.91,-230.53 679.91,-290.53 1125.91,-290.53 1125.91,-230.53 679.91,-230.53"/>
<polygon fill="none" stroke="#29235c" points="679.91,-230.53 679.91,-290.53 1125.91,-290.53 1125.91,-230.53 679.91,-230.53"/>
<text text-anchor="start" x="690.91" y="-250.73" font-family="Helvetica,sans-Serif" font-size="32.00" fill="#29235c">updated_at &#160;&#160;&#160;</text>
<text text-anchor="start" x="967.35" y="-251.73" font-family="Helvetica,sans-Serif" font-style="italic" font-size="32.00" fill="#29235c">timestamp</text>
<polygon fill="none" stroke="#29235c" stroke-width="2" points="678.91,-229.53 678.91,-951.53 1126.91,-951.53 1126.91,-229.53 678.91,-229.53"/>
</g>
<!-- users&#45;&gt;titles -->
<!-- users&#45;&gt;titles -->
<g id="edge10" class="edge">
<title>users:e&#45;&gt;titles:w</title>
<path fill="none" stroke="#29235c" stroke-width="3" d="M1126.91,-800.53C1219.41,-800.53 1237.14,-856.28 1324.23,-860.3"/>
<polygon fill="#29235c" stroke="#29235c" stroke-width="3" points="1324.25,-863.8 1334.33,-860.53 1324.41,-856.81 1324.25,-863.8"/>
<text text-anchor="middle" x="1325.43" y="-870.13" font-family="Helvetica,sans-Serif" font-size="32.00" fill="#29235c">1</text>
<text text-anchor="middle" x="1118.02" y="-810.13" font-family="Helvetica,sans-Serif" font-size="32.00" fill="#29235c">1</text>
</g>
<!-- backlog_items -->
<g id="backlog_items" class="node">
<title>backlog_items</title>
<ellipse fill="none" stroke="black" stroke-width="0" cx="274.36" cy="-1180.53" rx="250.13" ry="87.86"/>
<polygon fill="#1d71b8" stroke="transparent" points="99.36,-1180.53 99.36,-1240.53 449.36,-1240.53 449.36,-1180.53 99.36,-1180.53"/>
<polygon fill="none" stroke="#29235c" points="99.36,-1180.53 99.36,-1240.53 449.36,-1240.53 449.36,-1180.53 99.36,-1180.53"/>
<text text-anchor="start" x="109.87" y="-1201.73" font-family="Helvetica,sans-Serif" font-weight="bold" font-size="32.00" fill="#ffffff"> &#160;&#160;&#160;&#160;&#160;&#160;backlog_items &#160;&#160;&#160;&#160;&#160;&#160;</text>
<polygon fill="#e7e2dd" stroke="transparent" points="99.36,-1120.53 99.36,-1180.53 449.36,-1180.53 449.36,-1120.53 99.36,-1120.53"/>
<polygon fill="none" stroke="#29235c" points="99.36,-1120.53 99.36,-1180.53 449.36,-1180.53 449.36,-1120.53 99.36,-1120.53"/>
<text text-anchor="start" x="110.36" y="-1140.73" font-family="Helvetica,sans-Serif" font-size="32.00" fill="#29235c">assigned_to &#160;&#160;&#160;</text>
<text text-anchor="start" x="404.58" y="-1141.73" font-family="Helvetica,sans-Serif" font-style="italic" font-size="32.00" fill="#29235c">int</text>
<polygon fill="none" stroke="#29235c" stroke-width="2" points="98.36,-1119.53 98.36,-1241.53 450.36,-1241.53 450.36,-1119.53 98.36,-1119.53"/>
</g>
<!-- backlog_items&#45;&gt;users -->
<!-- backlog_items&#45;&gt;users -->
<g id="edge12" class="edge">
<title>backlog_items:e&#45;&gt;users:w</title>
<path fill="none" stroke="#29235c" stroke-width="3" d="M450.36,-1150.53C503,-1150.53 512.71,-1122.94 548.71,-1084.53 625.01,-1003.15 567.6,-869.23 668.63,-860.94"/>
<polygon fill="#29235c" stroke="#29235c" stroke-width="3" points="669.06,-864.42 678.91,-860.53 668.78,-857.43 669.06,-864.42"/>
<text text-anchor="middle" x="670.02" y="-870.13" font-family="Helvetica,sans-Serif" font-size="32.00" fill="#29235c">1</text>
<text text-anchor="middle" x="444.14" y="-1160.13" font-family="Helvetica,sans-Serif" font-size="32.00" fill="#29235c">*</text>
</g>
<!-- squad_members -->
<g id="squad_members" class="node">
<title>squad_members</title>
<ellipse fill="none" stroke="black" stroke-width="0" cx="274.36" cy="-987.53" rx="274.21" ry="87.86"/>
<polygon fill="#1d71b8" stroke="transparent" points="82.36,-987.53 82.36,-1047.53 466.36,-1047.53 466.36,-987.53 82.36,-987.53"/>
<polygon fill="none" stroke="#29235c" points="82.36,-987.53 82.36,-1047.53 466.36,-1047.53 466.36,-987.53 82.36,-987.53"/>
<text text-anchor="start" x="92.97" y="-1008.73" font-family="Helvetica,sans-Serif" font-weight="bold" font-size="32.00" fill="#ffffff"> &#160;&#160;&#160;&#160;&#160;&#160;squad_members &#160;&#160;&#160;&#160;&#160;&#160;</text>
<polygon fill="#e7e2dd" stroke="transparent" points="82.36,-927.53 82.36,-987.53 466.36,-987.53 466.36,-927.53 82.36,-927.53"/>
<polygon fill="none" stroke="#29235c" points="82.36,-927.53 82.36,-987.53 466.36,-987.53 466.36,-927.53 82.36,-927.53"/>
<text text-anchor="start" x="93.36" y="-947.73" font-family="Helvetica,sans-Serif" font-size="32.00" fill="#29235c">user_id &#160;&#160;&#160;</text>
<text text-anchor="start" x="421.58" y="-948.73" font-family="Helvetica,sans-Serif" font-style="italic" font-size="32.00" fill="#29235c">int</text>
<polygon fill="none" stroke="#29235c" stroke-width="2" points="81.36,-926.53 81.36,-1048.53 467.36,-1048.53 467.36,-926.53 81.36,-926.53"/>
</g>
<!-- squad_members&#45;&gt;users -->
<!-- squad_members&#45;&gt;users -->
<g id="edge14" class="edge">
<title>squad_members:e&#45;&gt;users:w</title>
<path fill="none" stroke="#29235c" stroke-width="3" d="M467.36,-957.53C567.26,-957.53 575.04,-867.05 668.64,-860.86"/>
<polygon fill="#29235c" stroke="#29235c" stroke-width="3" points="669.03,-864.35 678.91,-860.53 668.8,-857.36 669.03,-864.35"/>
<text text-anchor="middle" x="687.81" y="-870.13" font-family="Helvetica,sans-Serif" font-size="32.00" fill="#29235c">1</text>
<text text-anchor="middle" x="461.14" y="-967.13" font-family="Helvetica,sans-Serif" font-size="32.00" fill="#29235c">*</text>
</g>
<!-- roles -->
<g id="roles" class="node">
<title>roles</title>
<ellipse fill="none" stroke="black" stroke-width="0" cx="274.36" cy="-794.53" rx="154.71" ry="87.86"/>
<polygon fill="#1d71b8" stroke="transparent" points="167.36,-794.53 167.36,-854.53 382.36,-854.53 382.36,-794.53 167.36,-794.53"/>
<polygon fill="none" stroke="#29235c" points="167.36,-794.53 167.36,-854.53 382.36,-854.53 382.36,-794.53 167.36,-794.53"/>
<text text-anchor="start" x="177.94" y="-815.73" font-family="Helvetica,sans-Serif" font-weight="bold" font-size="32.00" fill="#ffffff"> &#160;&#160;&#160;&#160;&#160;&#160;roles &#160;&#160;&#160;&#160;&#160;&#160;</text>
<polygon fill="#e7e2dd" stroke="transparent" points="167.36,-734.53 167.36,-794.53 382.36,-794.53 382.36,-734.53 167.36,-734.53"/>
<polygon fill="none" stroke="#29235c" points="167.36,-734.53 167.36,-794.53 382.36,-794.53 382.36,-734.53 167.36,-734.53"/>
<text text-anchor="start" x="178.36" y="-754.73" font-family="Helvetica,sans-Serif" font-size="32.00" fill="#29235c">user_id &#160;&#160;&#160;</text>
<text text-anchor="start" x="337.58" y="-755.73" font-family="Helvetica,sans-Serif" font-style="italic" font-size="32.00" fill="#29235c">int</text>
<polygon fill="none" stroke="#29235c" stroke-width="2" points="165.86,-733.53 165.86,-855.53 382.86,-855.53 382.86,-733.53 165.86,-733.53"/>
</g>
<!-- roles&#45;&gt;users -->
<!-- roles&#45;&gt;users -->
<g id="edge16" class="edge">
<title>roles:e&#45;&gt;users:w</title>
<path fill="none" stroke="#29235c" stroke-width="3" d="M383.36,-764.53C517.96,-764.53 539.74,-855.72 668.62,-860.35"/>
<polygon fill="#29235c" stroke="#29235c" stroke-width="3" points="668.85,-863.85 678.91,-860.53 668.98,-856.86 668.85,-863.85"/>
<text text-anchor="middle" x="670.02" y="-831.73" font-family="Helvetica,sans-Serif" font-size="32.00" fill="#29235c">1</text>
<text text-anchor="middle" x="377.14" y="-774.13" font-family="Helvetica,sans-Serif" font-size="32.00" fill="#29235c">*</text>
</g>
<!-- backlogs -->
<g id="backlogs" class="node">
<title>backlogs</title>
<ellipse fill="none" stroke="black" stroke-width="0" cx="274.36" cy="-601.53" rx="195.32" ry="87.86"/>
<polygon fill="#1d71b8" stroke="transparent" points="138.36,-601.53 138.36,-661.53 410.36,-661.53 410.36,-601.53 138.36,-601.53"/>
<polygon fill="none" stroke="#29235c" points="138.36,-601.53 138.36,-661.53 410.36,-661.53 410.36,-601.53 138.36,-601.53"/>
<text text-anchor="start" x="148.98" y="-622.73" font-family="Helvetica,sans-Serif" font-weight="bold" font-size="32.00" fill="#ffffff"> &#160;&#160;&#160;&#160;&#160;&#160;backlogs &#160;&#160;&#160;&#160;&#160;&#160;</text>
<polygon fill="#e7e2dd" stroke="transparent" points="138.36,-541.53 138.36,-601.53 410.36,-601.53 410.36,-541.53 138.36,-541.53"/>
<polygon fill="none" stroke="#29235c" points="138.36,-541.53 138.36,-601.53 410.36,-601.53 410.36,-541.53 138.36,-541.53"/>
<text text-anchor="start" x="149.36" y="-561.73" font-family="Helvetica,sans-Serif" font-size="32.00" fill="#29235c">pic &#160;&#160;&#160;</text>
<text text-anchor="start" x="365.58" y="-562.73" font-family="Helvetica,sans-Serif" font-style="italic" font-size="32.00" fill="#29235c">int</text>
<polygon fill="none" stroke="#29235c" stroke-width="2" points="137.36,-540.53 137.36,-662.53 411.36,-662.53 411.36,-540.53 137.36,-540.53"/>
</g>
<!-- backlogs&#45;&gt;users -->
<!-- backlogs&#45;&gt;users -->
<g id="edge18" class="edge">
<title>backlogs:e&#45;&gt;users:w</title>
<path fill="none" stroke="#29235c" stroke-width="3" d="M411.36,-571.53C494.2,-571.53 492.17,-636.99 548.71,-697.53 609.53,-762.65 588.07,-853.13 668.58,-860.1"/>
<polygon fill="#29235c" stroke="#29235c" stroke-width="3" points="668.78,-863.62 678.91,-860.53 669.07,-856.62 668.78,-863.62"/>
<text text-anchor="middle" x="687.81" y="-831.73" font-family="Helvetica,sans-Serif" font-size="32.00" fill="#29235c">1</text>
<text text-anchor="middle" x="405.14" y="-581.13" font-family="Helvetica,sans-Serif" font-size="32.00" fill="#29235c">*</text>
</g>
</g>
</svg>
