<?xml version="1.0" encoding="UTF-8" standalone="no"?>
<!DOCTYPE svg PUBLIC "-//W3C//DTD SVG 1.1//EN"
 "http://www.w3.org/Graphics/SVG/1.1/DTD/svg11.dtd">
<!-- Generated by graphviz version 2.47.0 (20210316.0004)
 -->
<!-- Title: dbml Pages: 1 -->
<svg width="644pt" height="1310pt"
 viewBox="0.00 0.00 644.40 1310.05" xmlns="http://www.w3.org/2000/svg" xmlns:xlink="http://www.w3.org/1999/xlink">
<g id="graph0" class="graph" transform="scale(1 1) rotate(0) translate(4 1306.05)">
<title>dbml</title>
<!-- prioritas -->
<g id="prioritas" class="node">
<title>prioritas</title>
<ellipse fill="none" stroke="black" stroke-width="0" cx="318.2" cy="-172.53" rx="186.85" ry="172.57"/>
<polygon fill="#29235c" stroke="transparent" points="188.2,-232.53 188.2,-292.53 448.2,-292.53 448.2,-232.53 188.2,-232.53"/>
<polygon fill="none" stroke="#29235c" points="188.2,-232.53 188.2,-292.53 448.2,-292.53 448.2,-232.53 188.2,-232.53"/>
<text text-anchor="start" x="199.07" y="-253.73" font-family="Helvetica,sans-Serif" font-weight="bold" font-size="32.00" fill="#ffffff"> &#160;&#160;&#160;&#160;&#160;&#160;prioritas &#160;&#160;&#160;&#160;&#160;&#160;</text>
<polygon fill="#e7e2dd" stroke="transparent" points="188.2,-172.53 188.2,-232.53 448.2,-232.53 448.2,-172.53 188.2,-172.53"/>
<polygon fill="none" stroke="#29235c" points="188.2,-172.53 188.2,-232.53 448.2,-232.53 448.2,-172.53 188.2,-172.53"/>
<text text-anchor="start" x="246.18" y="-193.73" font-family="Helvetica,sans-Serif" font-style="italic" font-size="32.00" fill="#1d71b8"> &#160;&#160;&#160;LOW &#160;&#160;&#160;</text>
<polygon fill="#e7e2dd" stroke="transparent" points="188.2,-112.53 188.2,-172.53 448.2,-172.53 448.2,-112.53 188.2,-112.53"/>
<polygon fill="none" stroke="#29235c" points="188.2,-112.53 188.2,-172.53 448.2,-172.53 448.2,-112.53 188.2,-112.53"/>
<text text-anchor="start" x="217.76" y="-133.73" font-family="Helvetica,sans-Serif" font-style="italic" font-size="32.00" fill="#1d71b8"> &#160;&#160;&#160;MEDIUM &#160;&#160;&#160;</text>
<polygon fill="#e7e2dd" stroke="transparent" points="188.2,-52.53 188.2,-112.53 448.2,-112.53 448.2,-52.53 188.2,-52.53"/>
<polygon fill="none" stroke="#29235c" points="188.2,-52.53 188.2,-112.53 448.2,-112.53 448.2,-52.53 188.2,-52.53"/>
<text text-anchor="start" x="242.63" y="-73.73" font-family="Helvetica,sans-Serif" font-style="italic" font-size="32.00" fill="#1d71b8"> &#160;&#160;&#160;HIGH &#160;&#160;&#160;</text>
<polygon fill="none" stroke="#29235c" stroke-width="2" points="187.2,-51.53 187.2,-293.53 449.2,-293.53 449.2,-51.53 187.2,-51.53"/>
</g>
<!-- users -->
<g id="users" class="node">
<title>users</title>
<ellipse fill="none" stroke="black" stroke-width="0" cx="318.2" cy="-832.53" rx="318.4" ry="469.54"/>
<polygon fill="#1d71b8" stroke="transparent" points="95.2,-1102.53 95.2,-1162.53 541.2,-1162.53 541.2,-1102.53 95.2,-1102.53"/>
<polygon fill="none" stroke="#29235c" points="95.2,-1102.53 95.2,-1162.53 541.2,-1162.53 541.2,-1102.53 95.2,-1102.53"/>
<text text-anchor="start" x="216.83" y="-1123.73" font-family="Helvetica,sans-Serif" font-weight="bold" font-size="32.00" fill="#ffffff"> &#160;&#160;&#160;&#160;&#160;&#160;users &#160;&#160;&#160;&#160;&#160;&#160;</text>
<polygon fill="#e7e2dd" stroke="transparent" points="95.2,-1042.53 95.2,-1102.53 541.2,-1102.53 541.2,-1042.53 95.2,-1042.53"/>
<polygon fill="none" stroke="#29235c" points="95.2,-1042.53 95.2,-1102.53 541.2,-1102.53 541.2,-1042.53 95.2,-1042.53"/>
<text text-anchor="start" x="106.2" y="-1063.73" font-family="Helvetica,sans-Serif" font-weight="bold" font-size="32.00" fill="#29235c">id</text>
<text text-anchor="start" x="131.09" y="-1063.73" font-family="Helvetica,sans-Serif" font-size="32.00" fill="#29235c"> &#160;&#160;&#160;</text>
<text text-anchor="start" x="496.42" y="-1063.73" font-family="Helvetica,sans-Serif" font-style="italic" font-size="32.00" fill="#29235c">int</text>
<polygon fill="#e7e2dd" stroke="transparent" points="95.2,-982.53 95.2,-1042.53 541.2,-1042.53 541.2,-982.53 95.2,-982.53"/>
<polygon fill="none" stroke="#29235c" points="95.2,-982.53 95.2,-1042.53 541.2,-1042.53 541.2,-982.53 95.2,-982.53"/>
<text text-anchor="start" x="106.2" y="-1002.73" font-family="Helvetica,sans-Serif" font-size="32.00" fill="#29235c">name &#160;&#160;&#160;</text>
<text text-anchor="start" x="384.43" y="-1003.73" font-family="Helvetica,sans-Serif" font-style="italic" font-size="32.00" fill="#29235c">varchar</text>
<text text-anchor="start" x="491.11" y="-1003.73" font-family="Helvetica,sans-Serif" font-size="32.00" fill="#29235c"> </text>
<text text-anchor="start" x="500" y="-1003.73" font-family="Helvetica,sans-Serif" font-weight="bold" font-size="32.00" fill="#29235c">(!)</text>
<polygon fill="#e7e2dd" stroke="transparent" points="95.2,-922.53 95.2,-982.53 541.2,-982.53 541.2,-922.53 95.2,-922.53"/>
<polygon fill="none" stroke="#29235c" points="95.2,-922.53 95.2,-982.53 541.2,-982.53 541.2,-922.53 95.2,-922.53"/>
<text text-anchor="start" x="106.2" y="-942.73" font-family="Helvetica,sans-Serif" font-size="32.00" fill="#29235c">email &#160;&#160;&#160;</text>
<text text-anchor="start" x="384.43" y="-943.73" font-family="Helvetica,sans-Serif" font-style="italic" font-size="32.00" fill="#29235c">varchar</text>
<text text-anchor="start" x="491.11" y="-943.73" font-family="Helvetica,sans-Serif" font-size="32.00" fill="#29235c"> </text>
<text text-anchor="start" x="500" y="-943.73" font-family="Helvetica,sans-Serif" font-weight="bold" font-size="32.00" fill="#29235c">(!)</text>
<polygon fill="#e7e2dd" stroke="transparent" points="95.2,-862.53 95.2,-922.53 541.2,-922.53 541.2,-862.53 95.2,-862.53"/>
<polygon fill="none" stroke="#29235c" points="95.2,-862.53 95.2,-922.53 541.2,-922.53 541.2,-862.53 95.2,-862.53"/>
<text text-anchor="start" x="106.01" y="-882.73" font-family="Helvetica,sans-Serif" font-size="32.00" fill="#29235c">email_verified_at &#160;&#160;&#160;</text>
<text text-anchor="start" x="382.92" y="-883.73" font-family="Helvetica,sans-Serif" font-style="italic" font-size="32.00" fill="#29235c">timestamp</text>
<polygon fill="#e7e2dd" stroke="transparent" points="95.2,-802.53 95.2,-862.53 541.2,-862.53 541.2,-802.53 95.2,-802.53"/>
<polygon fill="none" stroke="#29235c" points="95.2,-802.53 95.2,-862.53 541.2,-862.53 541.2,-802.53 95.2,-802.53"/>
<text text-anchor="start" x="106.2" y="-822.73" font-family="Helvetica,sans-Serif" font-size="32.00" fill="#29235c">password &#160;&#160;&#160;</text>
<text text-anchor="start" x="384.43" y="-823.73" font-family="Helvetica,sans-Serif" font-style="italic" font-size="32.00" fill="#29235c">varchar</text>
<text text-anchor="start" x="491.11" y="-823.73" font-family="Helvetica,sans-Serif" font-size="32.00" fill="#29235c"> </text>
<text text-anchor="start" x="500" y="-823.73" font-family="Helvetica,sans-Serif" font-weight="bold" font-size="32.00" fill="#29235c">(!)</text>
<polygon fill="#e7e2dd" stroke="transparent" points="95.2,-742.53 95.2,-802.53 541.2,-802.53 541.2,-742.53 95.2,-742.53"/>
<polygon fill="none" stroke="#29235c" points="95.2,-742.53 95.2,-802.53 541.2,-802.53 541.2,-742.53 95.2,-742.53"/>
<text text-anchor="start" x="106.2" y="-762.73" font-family="Helvetica,sans-Serif" font-size="32.00" fill="#29235c">remember_token &#160;&#160;&#160;</text>
<text text-anchor="start" x="423.53" y="-763.73" font-family="Helvetica,sans-Serif" font-style="italic" font-size="32.00" fill="#29235c">varchar</text>
<polygon fill="#e7e2dd" stroke="transparent" points="95.2,-682.53 95.2,-742.53 541.2,-742.53 541.2,-682.53 95.2,-682.53"/>
<polygon fill="none" stroke="#29235c" points="95.2,-682.53 95.2,-742.53 541.2,-742.53 541.2,-682.53 95.2,-682.53"/>
<text text-anchor="start" x="106.2" y="-702.73" font-family="Helvetica,sans-Serif" font-size="32.00" fill="#29235c">custom_fields &#160;&#160;&#160;</text>
<text text-anchor="start" x="471.52" y="-703.73" font-family="Helvetica,sans-Serif" font-style="italic" font-size="32.00" fill="#29235c">json</text>
<polygon fill="#e7e2dd" stroke="transparent" points="95.2,-622.53 95.2,-682.53 541.2,-682.53 541.2,-622.53 95.2,-622.53"/>
<polygon fill="none" stroke="#29235c" points="95.2,-622.53 95.2,-682.53 541.2,-682.53 541.2,-622.53 95.2,-622.53"/>
<text text-anchor="start" x="106.2" y="-642.73" font-family="Helvetica,sans-Serif" font-size="32.00" fill="#29235c">avatar_url &#160;&#160;&#160;</text>
<text text-anchor="start" x="423.53" y="-643.73" font-family="Helvetica,sans-Serif" font-style="italic" font-size="32.00" fill="#29235c">varchar</text>
<polygon fill="#e7e2dd" stroke="transparent" points="95.2,-562.53 95.2,-622.53 541.2,-622.53 541.2,-562.53 95.2,-562.53"/>
<polygon fill="none" stroke="#29235c" points="95.2,-562.53 95.2,-622.53 541.2,-622.53 541.2,-562.53 95.2,-562.53"/>
<text text-anchor="start" x="106.2" y="-582.73" font-family="Helvetica,sans-Serif" font-size="32.00" fill="#29235c">created_at &#160;&#160;&#160;</text>
<text text-anchor="start" x="382.64" y="-583.73" font-family="Helvetica,sans-Serif" font-style="italic" font-size="32.00" fill="#29235c">timestamp</text>
<polygon fill="#e7e2dd" stroke="transparent" points="95.2,-502.53 95.2,-562.53 541.2,-562.53 541.2,-502.53 95.2,-502.53"/>
<polygon fill="none" stroke="#29235c" points="95.2,-502.53 95.2,-562.53 541.2,-562.53 541.2,-502.53 95.2,-502.53"/>
<text text-anchor="start" x="106.2" y="-522.73" font-family="Helvetica,sans-Serif" font-size="32.00" fill="#29235c">updated_at &#160;&#160;&#160;</text>
<text text-anchor="start" x="382.64" y="-523.73" font-family="Helvetica,sans-Serif" font-style="italic" font-size="32.00" fill="#29235c">timestamp</text>
<polygon fill="none" stroke="#29235c" stroke-width="2" points="94.2,-501.53 94.2,-1163.53 542.2,-1163.53 542.2,-501.53 94.2,-501.53"/>
</g>
</g>
</svg>
