<?xml version="1.0" encoding="UTF-8" standalone="no"?>
<!DOCTYPE svg PUBLIC "-//W3C//DTD SVG 1.1//EN"
 "http://www.w3.org/Graphics/SVG/1.1/DTD/svg11.dtd">
<!-- Generated by graphviz version 2.47.0 (20210316.0004)
 -->
<!-- Title: dbml Pages: 1 -->
<svg width="919pt" height="837pt"
 viewBox="0.00 0.00 919.40 837.22" xmlns="http://www.w3.org/2000/svg" xmlns:xlink="http://www.w3.org/1999/xlink">
<g id="graph0" class="graph" transform="scale(1 1) rotate(0) translate(4 833.22)">
<title>dbml</title>
<!-- prd -->
<g id="prd" class="node">
<title>prd</title>
<ellipse fill="none" stroke="black" stroke-width="0" cx="263.04" cy="-87.68" rx="138.69" ry="87.86"/>
<polygon fill="#1d71b8" stroke="transparent" points="167.04,-87.68 167.04,-147.68 359.04,-147.68 359.04,-87.68 167.04,-87.68"/>
<polygon fill="none" stroke="#29235c" points="167.04,-87.68 167.04,-147.68 359.04,-147.68 359.04,-87.68 167.04,-87.68"/>
<text text-anchor="start" x="177.68" y="-108.88" font-family="Helvetica,sans-Serif" font-weight="bold" font-size="32.00" fill="#ffffff"> &#160;&#160;&#160;&#160;&#160;&#160;prd &#160;&#160;&#160;&#160;&#160;&#160;</text>
<polygon fill="#e7e2dd" stroke="transparent" points="167.04,-27.68 167.04,-87.68 359.04,-87.68 359.04,-27.68 167.04,-27.68"/>
<polygon fill="none" stroke="#29235c" points="167.04,-27.68 167.04,-87.68 359.04,-87.68 359.04,-27.68 167.04,-27.68"/>
<text text-anchor="start" x="178.04" y="-48.88" font-family="Helvetica,sans-Serif" font-weight="bold" font-size="32.00" fill="#29235c">id</text>
<text text-anchor="start" x="202.93" y="-48.88" font-family="Helvetica,sans-Serif" font-size="32.00" fill="#29235c"> &#160;&#160;&#160;</text>
<text text-anchor="start" x="296.5" y="-48.88" font-family="Helvetica,sans-Serif" font-style="italic" font-size="32.00" fill="#29235c">INT</text>
<polygon fill="none" stroke="#29235c" stroke-width="2" points="166.04,-26.68 166.04,-148.68 360.04,-148.68 360.04,-26.68 166.04,-26.68"/>
</g>
<!-- squads -->
<g id="squads" class="node">
<title>squads</title>
<ellipse fill="none" stroke="black" stroke-width="0" cx="263.04" cy="-365.68" rx="178.8" ry="172.57"/>
<polygon fill="#1d71b8" stroke="transparent" points="139.04,-425.68 139.04,-485.68 388.04,-485.68 388.04,-425.68 139.04,-425.68"/>
<polygon fill="none" stroke="#29235c" points="139.04,-425.68 139.04,-485.68 388.04,-485.68 388.04,-425.68 139.04,-425.68"/>
<text text-anchor="start" x="149.72" y="-446.88" font-family="Helvetica,sans-Serif" font-weight="bold" font-size="32.00" fill="#ffffff"> &#160;&#160;&#160;&#160;&#160;&#160;squads &#160;&#160;&#160;&#160;&#160;&#160;</text>
<polygon fill="#e7e2dd" stroke="transparent" points="139.04,-365.68 139.04,-425.68 388.04,-425.68 388.04,-365.68 139.04,-365.68"/>
<polygon fill="none" stroke="#29235c" points="139.04,-365.68 139.04,-425.68 388.04,-425.68 388.04,-365.68 139.04,-365.68"/>
<text text-anchor="start" x="150.04" y="-386.88" font-family="Helvetica,sans-Serif" font-weight="bold" font-size="32.00" fill="#29235c">id</text>
<text text-anchor="start" x="174.93" y="-386.88" font-family="Helvetica,sans-Serif" font-size="32.00" fill="#29235c"> &#160;&#160;&#160;</text>
<text text-anchor="start" x="343.26" y="-386.88" font-family="Helvetica,sans-Serif" font-style="italic" font-size="32.00" fill="#29235c">int</text>
<polygon fill="#e7e2dd" stroke="transparent" points="139.04,-305.68 139.04,-365.68 388.04,-365.68 388.04,-305.68 139.04,-305.68"/>
<polygon fill="none" stroke="#29235c" points="139.04,-305.68 139.04,-365.68 388.04,-365.68 388.04,-305.68 139.04,-305.68"/>
<text text-anchor="start" x="150.04" y="-325.88" font-family="Helvetica,sans-Serif" font-size="32.00" fill="#29235c">name &#160;&#160;&#160;</text>
<text text-anchor="start" x="270.37" y="-326.88" font-family="Helvetica,sans-Serif" font-style="italic" font-size="32.00" fill="#29235c">varchar</text>
<polygon fill="#e7e2dd" stroke="transparent" points="139.04,-245.68 139.04,-305.68 388.04,-305.68 388.04,-245.68 139.04,-245.68"/>
<polygon fill="none" stroke="#29235c" points="139.04,-245.68 139.04,-305.68 388.04,-305.68 388.04,-245.68 139.04,-245.68"/>
<text text-anchor="start" x="150.04" y="-265.88" font-family="Helvetica,sans-Serif" font-size="32.00" fill="#29235c">team_id &#160;&#160;&#160;</text>
<text text-anchor="start" x="343.26" y="-266.88" font-family="Helvetica,sans-Serif" font-style="italic" font-size="32.00" fill="#29235c">int</text>
<polygon fill="none" stroke="#29235c" stroke-width="2" points="137.54,-244.68 137.54,-486.68 388.54,-486.68 388.54,-244.68 137.54,-244.68"/>
</g>
<!-- users -->
<g id="users" class="node">
<title>users</title>
<ellipse fill="none" stroke="black" stroke-width="0" cx="736.74" cy="-656.68" rx="174.81" ry="172.57"/>
<polygon fill="#1d71b8" stroke="transparent" points="615.74,-716.68 615.74,-776.68 858.74,-776.68 858.74,-716.68 615.74,-716.68"/>
<polygon fill="none" stroke="#29235c" points="615.74,-716.68 615.74,-776.68 858.74,-776.68 858.74,-716.68 615.74,-716.68"/>
<text text-anchor="start" x="635.88" y="-737.88" font-family="Helvetica,sans-Serif" font-weight="bold" font-size="32.00" fill="#ffffff"> &#160;&#160;&#160;&#160;&#160;&#160;users &#160;&#160;&#160;&#160;&#160;&#160;</text>
<polygon fill="#e7e2dd" stroke="transparent" points="615.74,-656.68 615.74,-716.68 858.74,-716.68 858.74,-656.68 615.74,-656.68"/>
<polygon fill="none" stroke="#29235c" points="615.74,-656.68 615.74,-716.68 858.74,-716.68 858.74,-656.68 615.74,-656.68"/>
<text text-anchor="start" x="626.74" y="-677.88" font-family="Helvetica,sans-Serif" font-weight="bold" font-size="32.00" fill="#29235c">id</text>
<text text-anchor="start" x="651.63" y="-677.88" font-family="Helvetica,sans-Serif" font-size="32.00" fill="#29235c"> &#160;&#160;&#160;</text>
<text text-anchor="start" x="813.96" y="-677.88" font-family="Helvetica,sans-Serif" font-style="italic" font-size="32.00" fill="#29235c">int</text>
<polygon fill="#e7e2dd" stroke="transparent" points="615.74,-596.68 615.74,-656.68 858.74,-656.68 858.74,-596.68 615.74,-596.68"/>
<polygon fill="none" stroke="#29235c" points="615.74,-596.68 615.74,-656.68 858.74,-656.68 858.74,-596.68 615.74,-596.68"/>
<text text-anchor="start" x="626.45" y="-616.88" font-family="Helvetica,sans-Serif" font-size="32.00" fill="#29235c">name &#160;&#160;&#160;</text>
<text text-anchor="start" x="741.41" y="-617.88" font-family="Helvetica,sans-Serif" font-style="italic" font-size="32.00" fill="#29235c">varchar</text>
<polygon fill="#e7e2dd" stroke="transparent" points="615.74,-536.68 615.74,-596.68 858.74,-596.68 858.74,-536.68 615.74,-536.68"/>
<polygon fill="none" stroke="#29235c" points="615.74,-536.68 615.74,-596.68 858.74,-596.68 858.74,-536.68 615.74,-536.68"/>
<text text-anchor="start" x="626.74" y="-556.88" font-family="Helvetica,sans-Serif" font-size="32.00" fill="#29235c">email &#160;&#160;&#160;</text>
<text text-anchor="start" x="741.07" y="-557.88" font-family="Helvetica,sans-Serif" font-style="italic" font-size="32.00" fill="#29235c">varchar</text>
<polygon fill="none" stroke="#29235c" stroke-width="2" points="614.24,-535.68 614.24,-777.68 859.24,-777.68 859.24,-535.68 614.24,-535.68"/>
</g>
<!-- squad_member -->
<g id="squad_member" class="node">
<title>squad_member</title>
<ellipse fill="none" stroke="black" stroke-width="0" cx="263.04" cy="-686.68" rx="263.09" ry="130.22"/>
<polygon fill="#1d71b8" stroke="transparent" points="79.04,-716.68 79.04,-776.68 447.04,-776.68 447.04,-716.68 79.04,-716.68"/>
<polygon fill="none" stroke="#29235c" points="79.04,-716.68 79.04,-776.68 447.04,-776.68 447.04,-716.68 79.04,-716.68"/>
<text text-anchor="start" x="89.66" y="-737.88" font-family="Helvetica,sans-Serif" font-weight="bold" font-size="32.00" fill="#ffffff"> &#160;&#160;&#160;&#160;&#160;&#160;squad_member &#160;&#160;&#160;&#160;&#160;&#160;</text>
<polygon fill="#e7e2dd" stroke="transparent" points="79.04,-656.68 79.04,-716.68 447.04,-716.68 447.04,-656.68 79.04,-656.68"/>
<polygon fill="none" stroke="#29235c" points="79.04,-656.68 79.04,-716.68 447.04,-716.68 447.04,-656.68 79.04,-656.68"/>
<text text-anchor="start" x="90.04" y="-677.88" font-family="Helvetica,sans-Serif" font-weight="bold" font-size="32.00" fill="#29235c">id</text>
<text text-anchor="start" x="114.93" y="-677.88" font-family="Helvetica,sans-Serif" font-size="32.00" fill="#29235c"> &#160;&#160;&#160;</text>
<text text-anchor="start" x="402.26" y="-677.88" font-family="Helvetica,sans-Serif" font-style="italic" font-size="32.00" fill="#29235c">int</text>
<polygon fill="#e7e2dd" stroke="transparent" points="79.04,-596.68 79.04,-656.68 447.04,-656.68 447.04,-596.68 79.04,-596.68"/>
<polygon fill="none" stroke="#29235c" points="79.04,-596.68 79.04,-656.68 447.04,-656.68 447.04,-596.68 79.04,-596.68"/>
<text text-anchor="start" x="90.04" y="-616.88" font-family="Helvetica,sans-Serif" font-size="32.00" fill="#29235c">squad_id &#160;&#160;&#160;</text>
<text text-anchor="start" x="402.26" y="-617.88" font-family="Helvetica,sans-Serif" font-style="italic" font-size="32.00" fill="#29235c">int</text>
<polygon fill="none" stroke="#29235c" stroke-width="2" points="78.04,-595.68 78.04,-777.68 448.04,-777.68 448.04,-595.68 78.04,-595.68"/>
</g>
<!-- squad_member&#45;&gt;users -->
<!-- squad_member&#45;&gt;users -->
<g id="edge2" class="edge">
<title>squad_member:e&#45;&gt;users:w</title>
<path fill="none" stroke="#29235c" stroke-width="3" d="M448.04,-626.68C523.25,-626.68 535.03,-681.41 604.54,-686.33"/>
<polygon fill="#29235c" stroke="#29235c" stroke-width="3" points="604.63,-689.83 614.74,-686.68 604.87,-682.84 604.63,-689.83"/>
<text text-anchor="middle" x="605.85" y="-696.28" font-family="Helvetica,sans-Serif" font-size="32.00" fill="#29235c">1</text>
<text text-anchor="middle" x="441.82" y="-636.28" font-family="Helvetica,sans-Serif" font-size="32.00" fill="#29235c">*</text>
</g>
</g>
</svg>
