<?xml version="1.0" encoding="UTF-8" standalone="no"?>
<!DOCTYPE svg PUBLIC "-//W3C//DTD SVG 1.1//EN"
 "http://www.w3.org/Graphics/SVG/1.1/DTD/svg11.dtd">
<!-- Generated by graphviz version 2.47.0 (20210316.0004)
 -->
<!-- Title: dbml Pages: 1 -->
<svg width="1702pt" height="2688pt"
 viewBox="0.00 0.00 1702.10 2687.92" xmlns="http://www.w3.org/2000/svg" xmlns:xlink="http://www.w3.org/1999/xlink">
<g id="graph0" class="graph" transform="scale(1 1) rotate(0) translate(4 2683.92)">
<title>dbml</title>
<!-- divisi -->
<g id="divisi" class="node">
<title>divisi</title>
<ellipse fill="none" stroke="black" stroke-width="0" cx="1433.89" cy="-2072.39" rx="260.43" ry="257.27"/>
<polygon fill="#1d71b8" stroke="transparent" points="1251.89,-2192.39 1251.89,-2252.39 1615.89,-2252.39 1615.89,-2192.39 1251.89,-2192.39"/>
<polygon fill="none" stroke="#29235c" points="1251.89,-2192.39 1251.89,-2252.39 1615.89,-2252.39 1615.89,-2192.39 1251.89,-2192.39"/>
<text text-anchor="start" x="1336.09" y="-2213.59" font-family="Helvetica,sans-Serif" font-weight="bold" font-size="32.00" fill="#ffffff"> &#160;&#160;&#160;&#160;&#160;&#160;divisi &#160;&#160;&#160;&#160;&#160;&#160;</text>
<polygon fill="#e7e2dd" stroke="transparent" points="1251.89,-2132.39 1251.89,-2192.39 1615.89,-2192.39 1615.89,-2132.39 1251.89,-2132.39"/>
<polygon fill="none" stroke="#29235c" points="1251.89,-2132.39 1251.89,-2192.39 1615.89,-2192.39 1615.89,-2132.39 1251.89,-2132.39"/>
<text text-anchor="start" x="1262.89" y="-2153.59" font-family="Helvetica,sans-Serif" font-weight="bold" font-size="32.00" fill="#29235c">id</text>
<text text-anchor="start" x="1287.78" y="-2153.59" font-family="Helvetica,sans-Serif" font-size="32.00" fill="#29235c"> &#160;&#160;&#160;</text>
<text text-anchor="start" x="1571.11" y="-2153.59" font-family="Helvetica,sans-Serif" font-style="italic" font-size="32.00" fill="#29235c">int</text>
<polygon fill="#e7e2dd" stroke="transparent" points="1251.89,-2072.39 1251.89,-2132.39 1615.89,-2132.39 1615.89,-2072.39 1251.89,-2072.39"/>
<polygon fill="none" stroke="#29235c" points="1251.89,-2072.39 1251.89,-2132.39 1615.89,-2132.39 1615.89,-2072.39 1251.89,-2072.39"/>
<text text-anchor="start" x="1262.89" y="-2092.59" font-family="Helvetica,sans-Serif" font-size="32.00" fill="#29235c">name &#160;&#160;&#160;</text>
<text text-anchor="start" x="1498.22" y="-2093.59" font-family="Helvetica,sans-Serif" font-style="italic" font-size="32.00" fill="#29235c">varchar</text>
<polygon fill="#e7e2dd" stroke="transparent" points="1251.89,-2012.39 1251.89,-2072.39 1615.89,-2072.39 1615.89,-2012.39 1251.89,-2012.39"/>
<polygon fill="none" stroke="#29235c" points="1251.89,-2012.39 1251.89,-2072.39 1615.89,-2072.39 1615.89,-2012.39 1251.89,-2012.39"/>
<text text-anchor="start" x="1262.89" y="-2032.59" font-family="Helvetica,sans-Serif" font-size="32.00" fill="#29235c">code &#160;&#160;&#160;</text>
<text text-anchor="start" x="1498.22" y="-2033.59" font-family="Helvetica,sans-Serif" font-style="italic" font-size="32.00" fill="#29235c">varchar</text>
<polygon fill="#e7e2dd" stroke="transparent" points="1251.89,-1952.39 1251.89,-2012.39 1615.89,-2012.39 1615.89,-1952.39 1251.89,-1952.39"/>
<polygon fill="none" stroke="#29235c" points="1251.89,-1952.39 1251.89,-2012.39 1615.89,-2012.39 1615.89,-1952.39 1251.89,-1952.39"/>
<text text-anchor="start" x="1262.89" y="-1972.59" font-family="Helvetica,sans-Serif" font-size="32.00" fill="#29235c">created_at &#160;&#160;&#160;</text>
<text text-anchor="start" x="1457.33" y="-1973.59" font-family="Helvetica,sans-Serif" font-style="italic" font-size="32.00" fill="#29235c">timestamp</text>
<polygon fill="#e7e2dd" stroke="transparent" points="1251.89,-1892.39 1251.89,-1952.39 1615.89,-1952.39 1615.89,-1892.39 1251.89,-1892.39"/>
<polygon fill="none" stroke="#29235c" points="1251.89,-1892.39 1251.89,-1952.39 1615.89,-1952.39 1615.89,-1892.39 1251.89,-1892.39"/>
<text text-anchor="start" x="1262.55" y="-1912.59" font-family="Helvetica,sans-Serif" font-size="32.00" fill="#29235c">updated_at &#160;&#160;&#160;</text>
<text text-anchor="start" x="1457.61" y="-1913.59" font-family="Helvetica,sans-Serif" font-style="italic" font-size="32.00" fill="#29235c">timestamp</text>
<polygon fill="none" stroke="#29235c" stroke-width="2" points="1250.89,-1891.39 1250.89,-2253.39 1616.89,-2253.39 1616.89,-1891.39 1250.89,-1891.39"/>
</g>
<!-- menus -->
<g id="menus" class="node">
<title>menus</title>
<ellipse fill="none" stroke="black" stroke-width="0" cx="877.46" cy="-257.39" rx="260.43" ry="257.27"/>
<polygon fill="#1d71b8" stroke="transparent" points="695.46,-377.39 695.46,-437.39 1059.46,-437.39 1059.46,-377.39 695.46,-377.39"/>
<polygon fill="none" stroke="#29235c" points="695.46,-377.39 695.46,-437.39 1059.46,-437.39 1059.46,-377.39 695.46,-377.39"/>
<text text-anchor="start" x="767.2" y="-398.59" font-family="Helvetica,sans-Serif" font-weight="bold" font-size="32.00" fill="#ffffff"> &#160;&#160;&#160;&#160;&#160;&#160;menus &#160;&#160;&#160;&#160;&#160;&#160;</text>
<polygon fill="#e7e2dd" stroke="transparent" points="695.46,-317.39 695.46,-377.39 1059.46,-377.39 1059.46,-317.39 695.46,-317.39"/>
<polygon fill="none" stroke="#29235c" points="695.46,-317.39 695.46,-377.39 1059.46,-377.39 1059.46,-317.39 695.46,-317.39"/>
<text text-anchor="start" x="706.46" y="-338.59" font-family="Helvetica,sans-Serif" font-weight="bold" font-size="32.00" fill="#29235c">id</text>
<text text-anchor="start" x="731.35" y="-338.59" font-family="Helvetica,sans-Serif" font-size="32.00" fill="#29235c"> &#160;&#160;&#160;</text>
<text text-anchor="start" x="1014.67" y="-338.59" font-family="Helvetica,sans-Serif" font-style="italic" font-size="32.00" fill="#29235c">int</text>
<polygon fill="#e7e2dd" stroke="transparent" points="695.46,-257.39 695.46,-317.39 1059.46,-317.39 1059.46,-257.39 695.46,-257.39"/>
<polygon fill="none" stroke="#29235c" points="695.46,-257.39 695.46,-317.39 1059.46,-317.39 1059.46,-257.39 695.46,-257.39"/>
<text text-anchor="start" x="706.46" y="-277.59" font-family="Helvetica,sans-Serif" font-size="32.00" fill="#29235c">label &#160;&#160;&#160;</text>
<text text-anchor="start" x="941.79" y="-278.59" font-family="Helvetica,sans-Serif" font-style="italic" font-size="32.00" fill="#29235c">varchar</text>
<polygon fill="#e7e2dd" stroke="transparent" points="695.46,-197.39 695.46,-257.39 1059.46,-257.39 1059.46,-197.39 695.46,-197.39"/>
<polygon fill="none" stroke="#29235c" points="695.46,-197.39 695.46,-257.39 1059.46,-257.39 1059.46,-197.39 695.46,-197.39"/>
<text text-anchor="start" x="706.46" y="-217.59" font-family="Helvetica,sans-Serif" font-size="32.00" fill="#29235c">path &#160;&#160;&#160;</text>
<text text-anchor="start" x="941.79" y="-218.59" font-family="Helvetica,sans-Serif" font-style="italic" font-size="32.00" fill="#29235c">varchar</text>
<polygon fill="#e7e2dd" stroke="transparent" points="695.46,-137.39 695.46,-197.39 1059.46,-197.39 1059.46,-137.39 695.46,-137.39"/>
<polygon fill="none" stroke="#29235c" points="695.46,-137.39 695.46,-197.39 1059.46,-197.39 1059.46,-137.39 695.46,-137.39"/>
<text text-anchor="start" x="706.46" y="-157.59" font-family="Helvetica,sans-Serif" font-size="32.00" fill="#29235c">created_at &#160;&#160;&#160;</text>
<text text-anchor="start" x="900.9" y="-158.59" font-family="Helvetica,sans-Serif" font-style="italic" font-size="32.00" fill="#29235c">timestamp</text>
<polygon fill="#e7e2dd" stroke="transparent" points="695.46,-77.39 695.46,-137.39 1059.46,-137.39 1059.46,-77.39 695.46,-77.39"/>
<polygon fill="none" stroke="#29235c" points="695.46,-77.39 695.46,-137.39 1059.46,-137.39 1059.46,-77.39 695.46,-77.39"/>
<text text-anchor="start" x="706.12" y="-97.59" font-family="Helvetica,sans-Serif" font-size="32.00" fill="#29235c">updated_at &#160;&#160;&#160;</text>
<text text-anchor="start" x="901.18" y="-98.59" font-family="Helvetica,sans-Serif" font-style="italic" font-size="32.00" fill="#29235c">timestamp</text>
<polygon fill="none" stroke="#29235c" stroke-width="2" points="694.46,-76.39 694.46,-438.39 1060.46,-438.39 1060.46,-76.39 694.46,-76.39"/>
</g>
<!-- projects -->
<g id="projects" class="node">
<title>projects</title>
<ellipse fill="none" stroke="black" stroke-width="0" cx="877.46" cy="-1982.39" rx="260.43" ry="384.83"/>
<polygon fill="#1d71b8" stroke="transparent" points="695.46,-2192.39 695.46,-2252.39 1059.46,-2252.39 1059.46,-2192.39 695.46,-2192.39"/>
<polygon fill="none" stroke="#29235c" points="695.46,-2192.39 695.46,-2252.39 1059.46,-2252.39 1059.46,-2192.39 695.46,-2192.39"/>
<text text-anchor="start" x="759.2" y="-2213.59" font-family="Helvetica,sans-Serif" font-weight="bold" font-size="32.00" fill="#ffffff"> &#160;&#160;&#160;&#160;&#160;&#160;projects &#160;&#160;&#160;&#160;&#160;&#160;</text>
<polygon fill="#e7e2dd" stroke="transparent" points="695.46,-2132.39 695.46,-2192.39 1059.46,-2192.39 1059.46,-2132.39 695.46,-2132.39"/>
<polygon fill="none" stroke="#29235c" points="695.46,-2132.39 695.46,-2192.39 1059.46,-2192.39 1059.46,-2132.39 695.46,-2132.39"/>
<text text-anchor="start" x="706.46" y="-2153.59" font-family="Helvetica,sans-Serif" font-weight="bold" font-size="32.00" fill="#29235c">id</text>
<text text-anchor="start" x="731.35" y="-2153.59" font-family="Helvetica,sans-Serif" font-size="32.00" fill="#29235c"> &#160;&#160;&#160;</text>
<text text-anchor="start" x="1014.67" y="-2153.59" font-family="Helvetica,sans-Serif" font-style="italic" font-size="32.00" fill="#29235c">int</text>
<polygon fill="#e7e2dd" stroke="transparent" points="695.46,-2072.39 695.46,-2132.39 1059.46,-2132.39 1059.46,-2072.39 695.46,-2072.39"/>
<polygon fill="none" stroke="#29235c" points="695.46,-2072.39 695.46,-2132.39 1059.46,-2132.39 1059.46,-2072.39 695.46,-2072.39"/>
<text text-anchor="start" x="706.46" y="-2092.59" font-family="Helvetica,sans-Serif" font-size="32.00" fill="#29235c">name &#160;&#160;&#160;</text>
<text text-anchor="start" x="941.79" y="-2093.59" font-family="Helvetica,sans-Serif" font-style="italic" font-size="32.00" fill="#29235c">varchar</text>
<polygon fill="#e7e2dd" stroke="transparent" points="695.46,-2012.39 695.46,-2072.39 1059.46,-2072.39 1059.46,-2012.39 695.46,-2012.39"/>
<polygon fill="none" stroke="#29235c" points="695.46,-2012.39 695.46,-2072.39 1059.46,-2072.39 1059.46,-2012.39 695.46,-2012.39"/>
<text text-anchor="start" x="706.46" y="-2032.59" font-family="Helvetica,sans-Serif" font-size="32.00" fill="#29235c">description &#160;&#160;&#160;</text>
<text text-anchor="start" x="996.88" y="-2033.59" font-family="Helvetica,sans-Serif" font-style="italic" font-size="32.00" fill="#29235c">text</text>
<polygon fill="#e7e2dd" stroke="transparent" points="695.46,-1952.39 695.46,-2012.39 1059.46,-2012.39 1059.46,-1952.39 695.46,-1952.39"/>
<polygon fill="none" stroke="#29235c" points="695.46,-1952.39 695.46,-2012.39 1059.46,-2012.39 1059.46,-1952.39 695.46,-1952.39"/>
<text text-anchor="start" x="706.46" y="-1972.59" font-family="Helvetica,sans-Serif" font-size="32.00" fill="#29235c">start_date &#160;&#160;&#160;</text>
<text text-anchor="start" x="986.2" y="-1973.59" font-family="Helvetica,sans-Serif" font-style="italic" font-size="32.00" fill="#29235c">date</text>
<polygon fill="#e7e2dd" stroke="transparent" points="695.46,-1892.39 695.46,-1952.39 1059.46,-1952.39 1059.46,-1892.39 695.46,-1892.39"/>
<polygon fill="none" stroke="#29235c" points="695.46,-1892.39 695.46,-1952.39 1059.46,-1952.39 1059.46,-1892.39 695.46,-1892.39"/>
<text text-anchor="start" x="706.46" y="-1912.59" font-family="Helvetica,sans-Serif" font-size="32.00" fill="#29235c">end_date &#160;&#160;&#160;</text>
<text text-anchor="start" x="986.2" y="-1913.59" font-family="Helvetica,sans-Serif" font-style="italic" font-size="32.00" fill="#29235c">date</text>
<polygon fill="#e7e2dd" stroke="transparent" points="695.46,-1832.39 695.46,-1892.39 1059.46,-1892.39 1059.46,-1832.39 695.46,-1832.39"/>
<polygon fill="none" stroke="#29235c" points="695.46,-1832.39 695.46,-1892.39 1059.46,-1892.39 1059.46,-1832.39 695.46,-1832.39"/>
<text text-anchor="start" x="706.46" y="-1852.59" font-family="Helvetica,sans-Serif" font-size="32.00" fill="#29235c">divisi_id &#160;&#160;&#160;</text>
<text text-anchor="start" x="1014.67" y="-1853.59" font-family="Helvetica,sans-Serif" font-style="italic" font-size="32.00" fill="#29235c">int</text>
<polygon fill="#e7e2dd" stroke="transparent" points="695.46,-1772.39 695.46,-1832.39 1059.46,-1832.39 1059.46,-1772.39 695.46,-1772.39"/>
<polygon fill="none" stroke="#29235c" points="695.46,-1772.39 695.46,-1832.39 1059.46,-1832.39 1059.46,-1772.39 695.46,-1772.39"/>
<text text-anchor="start" x="706.46" y="-1792.59" font-family="Helvetica,sans-Serif" font-size="32.00" fill="#29235c">created_at &#160;&#160;&#160;</text>
<text text-anchor="start" x="900.9" y="-1793.59" font-family="Helvetica,sans-Serif" font-style="italic" font-size="32.00" fill="#29235c">timestamp</text>
<polygon fill="#e7e2dd" stroke="transparent" points="695.46,-1712.39 695.46,-1772.39 1059.46,-1772.39 1059.46,-1712.39 695.46,-1712.39"/>
<polygon fill="none" stroke="#29235c" points="695.46,-1712.39 695.46,-1772.39 1059.46,-1772.39 1059.46,-1712.39 695.46,-1712.39"/>
<text text-anchor="start" x="706.12" y="-1732.59" font-family="Helvetica,sans-Serif" font-size="32.00" fill="#29235c">updated_at &#160;&#160;&#160;</text>
<text text-anchor="start" x="901.18" y="-1733.59" font-family="Helvetica,sans-Serif" font-style="italic" font-size="32.00" fill="#29235c">timestamp</text>
<polygon fill="none" stroke="#29235c" stroke-width="2" points="694.46,-1711.39 694.46,-2253.39 1060.46,-2253.39 1060.46,-1711.39 694.46,-1711.39"/>
</g>
<!-- projects&#45;&gt;divisi -->
<!-- projects&#45;&gt;divisi -->
<g id="edge2" class="edge">
<title>projects:e&#45;&gt;divisi:w</title>
<path fill="none" stroke="#29235c" stroke-width="3" d="M1060.46,-1862.39C1214.84,-1862.39 1098.45,-2149.06 1240.67,-2161.94"/>
<polygon fill="#29235c" stroke="#29235c" stroke-width="3" points="1240.74,-2165.45 1250.89,-2162.39 1241.05,-2158.45 1240.74,-2165.45"/>
<text text-anchor="middle" x="1241.99" y="-2171.99" font-family="Helvetica,sans-Serif" font-size="32.00" fill="#29235c">1</text>
<text text-anchor="middle" x="1066.68" y="-1871.99" font-family="Helvetica,sans-Serif" font-size="32.00" fill="#29235c">*</text>
</g>
<!-- roles -->
<g id="roles" class="node">
<title>roles</title>
<ellipse fill="none" stroke="black" stroke-width="0" cx="877.46" cy="-747.39" rx="260.43" ry="214.92"/>
<polygon fill="#1d71b8" stroke="transparent" points="695.46,-837.39 695.46,-897.39 1059.46,-897.39 1059.46,-837.39 695.46,-837.39"/>
<polygon fill="none" stroke="#29235c" points="695.46,-837.39 695.46,-897.39 1059.46,-897.39 1059.46,-837.39 695.46,-837.39"/>
<text text-anchor="start" x="780.54" y="-858.59" font-family="Helvetica,sans-Serif" font-weight="bold" font-size="32.00" fill="#ffffff"> &#160;&#160;&#160;&#160;&#160;&#160;roles &#160;&#160;&#160;&#160;&#160;&#160;</text>
<polygon fill="#e7e2dd" stroke="transparent" points="695.46,-777.39 695.46,-837.39 1059.46,-837.39 1059.46,-777.39 695.46,-777.39"/>
<polygon fill="none" stroke="#29235c" points="695.46,-777.39 695.46,-837.39 1059.46,-837.39 1059.46,-777.39 695.46,-777.39"/>
<text text-anchor="start" x="706.46" y="-798.59" font-family="Helvetica,sans-Serif" font-weight="bold" font-size="32.00" fill="#29235c">id</text>
<text text-anchor="start" x="731.35" y="-798.59" font-family="Helvetica,sans-Serif" font-size="32.00" fill="#29235c"> &#160;&#160;&#160;</text>
<text text-anchor="start" x="1014.67" y="-798.59" font-family="Helvetica,sans-Serif" font-style="italic" font-size="32.00" fill="#29235c">int</text>
<polygon fill="#e7e2dd" stroke="transparent" points="695.46,-717.39 695.46,-777.39 1059.46,-777.39 1059.46,-717.39 695.46,-717.39"/>
<polygon fill="none" stroke="#29235c" points="695.46,-717.39 695.46,-777.39 1059.46,-777.39 1059.46,-717.39 695.46,-717.39"/>
<text text-anchor="start" x="706.46" y="-737.59" font-family="Helvetica,sans-Serif" font-size="32.00" fill="#29235c">name &#160;&#160;&#160;</text>
<text text-anchor="start" x="902.69" y="-738.59" font-family="Helvetica,sans-Serif" font-style="italic" font-size="32.00" fill="#29235c">varchar</text>
<text text-anchor="start" x="1009.37" y="-738.59" font-family="Helvetica,sans-Serif" font-size="32.00" fill="#29235c"> </text>
<text text-anchor="start" x="1018.26" y="-738.59" font-family="Helvetica,sans-Serif" font-weight="bold" font-size="32.00" fill="#29235c">(!)</text>
<polygon fill="#e7e2dd" stroke="transparent" points="695.46,-657.39 695.46,-717.39 1059.46,-717.39 1059.46,-657.39 695.46,-657.39"/>
<polygon fill="none" stroke="#29235c" points="695.46,-657.39 695.46,-717.39 1059.46,-717.39 1059.46,-657.39 695.46,-657.39"/>
<text text-anchor="start" x="706.46" y="-677.59" font-family="Helvetica,sans-Serif" font-size="32.00" fill="#29235c">created_at &#160;&#160;&#160;</text>
<text text-anchor="start" x="900.9" y="-678.59" font-family="Helvetica,sans-Serif" font-style="italic" font-size="32.00" fill="#29235c">timestamp</text>
<polygon fill="#e7e2dd" stroke="transparent" points="695.46,-597.39 695.46,-657.39 1059.46,-657.39 1059.46,-597.39 695.46,-597.39"/>
<polygon fill="none" stroke="#29235c" points="695.46,-597.39 695.46,-657.39 1059.46,-657.39 1059.46,-597.39 695.46,-597.39"/>
<text text-anchor="start" x="706.12" y="-617.59" font-family="Helvetica,sans-Serif" font-size="32.00" fill="#29235c">updated_at &#160;&#160;&#160;</text>
<text text-anchor="start" x="901.18" y="-618.59" font-family="Helvetica,sans-Serif" font-style="italic" font-size="32.00" fill="#29235c">timestamp</text>
<polygon fill="none" stroke="#29235c" stroke-width="2" points="694.46,-596.39 694.46,-898.39 1060.46,-898.39 1060.46,-596.39 694.46,-596.39"/>
</g>
<!-- spk -->
<g id="spk" class="node">
<title>spk</title>
<ellipse fill="none" stroke="black" stroke-width="0" cx="290.62" cy="-2144.39" rx="260.43" ry="172.57"/>
<polygon fill="#1d71b8" stroke="transparent" points="108.62,-2204.39 108.62,-2264.39 472.62,-2264.39 472.62,-2204.39 108.62,-2204.39"/>
<polygon fill="none" stroke="#29235c" points="108.62,-2204.39 108.62,-2264.39 472.62,-2264.39 472.62,-2204.39 108.62,-2204.39"/>
<text text-anchor="start" x="203.48" y="-2225.59" font-family="Helvetica,sans-Serif" font-weight="bold" font-size="32.00" fill="#ffffff"> &#160;&#160;&#160;&#160;&#160;&#160;spk &#160;&#160;&#160;&#160;&#160;&#160;</text>
<polygon fill="#e7e2dd" stroke="transparent" points="108.62,-2144.39 108.62,-2204.39 472.62,-2204.39 472.62,-2144.39 108.62,-2144.39"/>
<polygon fill="none" stroke="#29235c" points="108.62,-2144.39 108.62,-2204.39 472.62,-2204.39 472.62,-2144.39 108.62,-2144.39"/>
<text text-anchor="start" x="119.62" y="-2165.59" font-family="Helvetica,sans-Serif" font-weight="bold" font-size="32.00" fill="#29235c">id</text>
<text text-anchor="start" x="144.51" y="-2165.59" font-family="Helvetica,sans-Serif" font-size="32.00" fill="#29235c"> &#160;&#160;&#160;</text>
<text text-anchor="start" x="427.84" y="-2165.59" font-family="Helvetica,sans-Serif" font-style="italic" font-size="32.00" fill="#29235c">int</text>
<polygon fill="#e7e2dd" stroke="transparent" points="108.62,-2084.39 108.62,-2144.39 472.62,-2144.39 472.62,-2084.39 108.62,-2084.39"/>
<polygon fill="none" stroke="#29235c" points="108.62,-2084.39 108.62,-2144.39 472.62,-2144.39 472.62,-2084.39 108.62,-2084.39"/>
<text text-anchor="start" x="119.62" y="-2104.59" font-family="Helvetica,sans-Serif" font-size="32.00" fill="#29235c">created_at &#160;&#160;&#160;</text>
<text text-anchor="start" x="314.06" y="-2105.59" font-family="Helvetica,sans-Serif" font-style="italic" font-size="32.00" fill="#29235c">timestamp</text>
<polygon fill="#e7e2dd" stroke="transparent" points="108.62,-2024.39 108.62,-2084.39 472.62,-2084.39 472.62,-2024.39 108.62,-2024.39"/>
<polygon fill="none" stroke="#29235c" points="108.62,-2024.39 108.62,-2084.39 472.62,-2084.39 472.62,-2024.39 108.62,-2024.39"/>
<text text-anchor="start" x="119.29" y="-2044.59" font-family="Helvetica,sans-Serif" font-size="32.00" fill="#29235c">updated_at &#160;&#160;&#160;</text>
<text text-anchor="start" x="314.34" y="-2045.59" font-family="Helvetica,sans-Serif" font-style="italic" font-size="32.00" fill="#29235c">timestamp</text>
<polygon fill="none" stroke="#29235c" stroke-width="2" points="107.62,-2023.39 107.62,-2265.39 473.62,-2265.39 473.62,-2023.39 107.62,-2023.39"/>
</g>
<!-- squad -->
<g id="squad" class="node">
<title>squad</title>
<ellipse fill="none" stroke="black" stroke-width="0" cx="290.62" cy="-2507.39" rx="260.43" ry="172.57"/>
<polygon fill="#1d71b8" stroke="transparent" points="108.62,-2567.39 108.62,-2627.39 472.62,-2627.39 472.62,-2567.39 108.62,-2567.39"/>
<polygon fill="none" stroke="#29235c" points="108.62,-2567.39 108.62,-2627.39 472.62,-2627.39 472.62,-2567.39 108.62,-2567.39"/>
<text text-anchor="start" x="184.79" y="-2588.59" font-family="Helvetica,sans-Serif" font-weight="bold" font-size="32.00" fill="#ffffff"> &#160;&#160;&#160;&#160;&#160;&#160;squad &#160;&#160;&#160;&#160;&#160;&#160;</text>
<polygon fill="#e7e2dd" stroke="transparent" points="108.62,-2507.39 108.62,-2567.39 472.62,-2567.39 472.62,-2507.39 108.62,-2507.39"/>
<polygon fill="none" stroke="#29235c" points="108.62,-2507.39 108.62,-2567.39 472.62,-2567.39 472.62,-2507.39 108.62,-2507.39"/>
<text text-anchor="start" x="119.62" y="-2528.59" font-family="Helvetica,sans-Serif" font-weight="bold" font-size="32.00" fill="#29235c">id</text>
<text text-anchor="start" x="144.51" y="-2528.59" font-family="Helvetica,sans-Serif" font-size="32.00" fill="#29235c"> &#160;&#160;&#160;</text>
<text text-anchor="start" x="427.84" y="-2528.59" font-family="Helvetica,sans-Serif" font-style="italic" font-size="32.00" fill="#29235c">int</text>
<polygon fill="#e7e2dd" stroke="transparent" points="108.62,-2447.39 108.62,-2507.39 472.62,-2507.39 472.62,-2447.39 108.62,-2447.39"/>
<polygon fill="none" stroke="#29235c" points="108.62,-2447.39 108.62,-2507.39 472.62,-2507.39 472.62,-2447.39 108.62,-2447.39"/>
<text text-anchor="start" x="119.62" y="-2467.59" font-family="Helvetica,sans-Serif" font-size="32.00" fill="#29235c">created_at &#160;&#160;&#160;</text>
<text text-anchor="start" x="314.06" y="-2468.59" font-family="Helvetica,sans-Serif" font-style="italic" font-size="32.00" fill="#29235c">timestamp</text>
<polygon fill="#e7e2dd" stroke="transparent" points="108.62,-2387.39 108.62,-2447.39 472.62,-2447.39 472.62,-2387.39 108.62,-2387.39"/>
<polygon fill="none" stroke="#29235c" points="108.62,-2387.39 108.62,-2447.39 472.62,-2447.39 472.62,-2387.39 108.62,-2387.39"/>
<text text-anchor="start" x="119.29" y="-2407.59" font-family="Helvetica,sans-Serif" font-size="32.00" fill="#29235c">updated_at &#160;&#160;&#160;</text>
<text text-anchor="start" x="314.34" y="-2408.59" font-family="Helvetica,sans-Serif" font-style="italic" font-size="32.00" fill="#29235c">timestamp</text>
<polygon fill="none" stroke="#29235c" stroke-width="2" points="107.62,-2386.39 107.62,-2628.39 473.62,-2628.39 473.62,-2386.39 107.62,-2386.39"/>
</g>
<!-- users -->
<g id="users" class="node">
<title>users</title>
<ellipse fill="none" stroke="black" stroke-width="0" cx="877.46" cy="-1280.39" rx="260.43" ry="299.63"/>
<polygon fill="#1d71b8" stroke="transparent" points="695.46,-1430.39 695.46,-1490.39 1059.46,-1490.39 1059.46,-1430.39 695.46,-1430.39"/>
<polygon fill="none" stroke="#29235c" points="695.46,-1430.39 695.46,-1490.39 1059.46,-1490.39 1059.46,-1430.39 695.46,-1430.39"/>
<text text-anchor="start" x="776.09" y="-1451.59" font-family="Helvetica,sans-Serif" font-weight="bold" font-size="32.00" fill="#ffffff"> &#160;&#160;&#160;&#160;&#160;&#160;users &#160;&#160;&#160;&#160;&#160;&#160;</text>
<polygon fill="#e7e2dd" stroke="transparent" points="695.46,-1370.39 695.46,-1430.39 1059.46,-1430.39 1059.46,-1370.39 695.46,-1370.39"/>
<polygon fill="none" stroke="#29235c" points="695.46,-1370.39 695.46,-1430.39 1059.46,-1430.39 1059.46,-1370.39 695.46,-1370.39"/>
<text text-anchor="start" x="706.46" y="-1391.59" font-family="Helvetica,sans-Serif" font-weight="bold" font-size="32.00" fill="#29235c">id</text>
<text text-anchor="start" x="731.35" y="-1391.59" font-family="Helvetica,sans-Serif" font-size="32.00" fill="#29235c"> &#160;&#160;&#160;</text>
<text text-anchor="start" x="1014.67" y="-1391.59" font-family="Helvetica,sans-Serif" font-style="italic" font-size="32.00" fill="#29235c">int</text>
<polygon fill="#e7e2dd" stroke="transparent" points="695.46,-1310.39 695.46,-1370.39 1059.46,-1370.39 1059.46,-1310.39 695.46,-1310.39"/>
<polygon fill="none" stroke="#29235c" points="695.46,-1310.39 695.46,-1370.39 1059.46,-1370.39 1059.46,-1310.39 695.46,-1310.39"/>
<text text-anchor="start" x="706.46" y="-1330.59" font-family="Helvetica,sans-Serif" font-size="32.00" fill="#29235c">username &#160;&#160;&#160;</text>
<text text-anchor="start" x="902.69" y="-1331.59" font-family="Helvetica,sans-Serif" font-style="italic" font-size="32.00" fill="#29235c">varchar</text>
<text text-anchor="start" x="1009.37" y="-1331.59" font-family="Helvetica,sans-Serif" font-size="32.00" fill="#29235c"> </text>
<text text-anchor="start" x="1018.26" y="-1331.59" font-family="Helvetica,sans-Serif" font-weight="bold" font-size="32.00" fill="#29235c">(!)</text>
<polygon fill="#e7e2dd" stroke="transparent" points="695.46,-1250.39 695.46,-1310.39 1059.46,-1310.39 1059.46,-1250.39 695.46,-1250.39"/>
<polygon fill="none" stroke="#29235c" points="695.46,-1250.39 695.46,-1310.39 1059.46,-1310.39 1059.46,-1250.39 695.46,-1250.39"/>
<text text-anchor="start" x="706.46" y="-1270.59" font-family="Helvetica,sans-Serif" font-size="32.00" fill="#29235c">email &#160;&#160;&#160;</text>
<text text-anchor="start" x="902.69" y="-1271.59" font-family="Helvetica,sans-Serif" font-style="italic" font-size="32.00" fill="#29235c">varchar</text>
<text text-anchor="start" x="1009.37" y="-1271.59" font-family="Helvetica,sans-Serif" font-size="32.00" fill="#29235c"> </text>
<text text-anchor="start" x="1018.26" y="-1271.59" font-family="Helvetica,sans-Serif" font-weight="bold" font-size="32.00" fill="#29235c">(!)</text>
<polygon fill="#e7e2dd" stroke="transparent" points="695.46,-1190.39 695.46,-1250.39 1059.46,-1250.39 1059.46,-1190.39 695.46,-1190.39"/>
<polygon fill="none" stroke="#29235c" points="695.46,-1190.39 695.46,-1250.39 1059.46,-1250.39 1059.46,-1190.39 695.46,-1190.39"/>
<text text-anchor="start" x="706.46" y="-1210.59" font-family="Helvetica,sans-Serif" font-size="32.00" fill="#29235c">password &#160;&#160;&#160;</text>
<text text-anchor="start" x="902.69" y="-1211.59" font-family="Helvetica,sans-Serif" font-style="italic" font-size="32.00" fill="#29235c">varchar</text>
<text text-anchor="start" x="1009.37" y="-1211.59" font-family="Helvetica,sans-Serif" font-size="32.00" fill="#29235c"> </text>
<text text-anchor="start" x="1018.26" y="-1211.59" font-family="Helvetica,sans-Serif" font-weight="bold" font-size="32.00" fill="#29235c">(!)</text>
<polygon fill="#e7e2dd" stroke="transparent" points="695.46,-1130.39 695.46,-1190.39 1059.46,-1190.39 1059.46,-1130.39 695.46,-1130.39"/>
<polygon fill="none" stroke="#29235c" points="695.46,-1130.39 695.46,-1190.39 1059.46,-1190.39 1059.46,-1130.39 695.46,-1130.39"/>
<text text-anchor="start" x="706.46" y="-1150.59" font-family="Helvetica,sans-Serif" font-size="32.00" fill="#29235c">created_at &#160;&#160;&#160;</text>
<text text-anchor="start" x="900.9" y="-1151.59" font-family="Helvetica,sans-Serif" font-style="italic" font-size="32.00" fill="#29235c">timestamp</text>
<polygon fill="#e7e2dd" stroke="transparent" points="695.46,-1070.39 695.46,-1130.39 1059.46,-1130.39 1059.46,-1070.39 695.46,-1070.39"/>
<polygon fill="none" stroke="#29235c" points="695.46,-1070.39 695.46,-1130.39 1059.46,-1130.39 1059.46,-1070.39 695.46,-1070.39"/>
<text text-anchor="start" x="706.12" y="-1090.59" font-family="Helvetica,sans-Serif" font-size="32.00" fill="#29235c">updated_at &#160;&#160;&#160;</text>
<text text-anchor="start" x="901.18" y="-1091.59" font-family="Helvetica,sans-Serif" font-style="italic" font-size="32.00" fill="#29235c">timestamp</text>
<polygon fill="none" stroke="#29235c" stroke-width="2" points="694.46,-1069.39 694.46,-1491.39 1060.46,-1491.39 1060.46,-1069.39 694.46,-1069.39"/>
</g>
<!-- role_has_menus -->
<g id="role_has_menus" class="node">
<title>role_has_menus</title>
<ellipse fill="none" stroke="black" stroke-width="0" cx="290.62" cy="-631.39" rx="273.8" ry="172.57"/>
<polygon fill="#1d71b8" stroke="transparent" points="99.62,-691.39 99.62,-751.39 482.62,-751.39 482.62,-691.39 99.62,-691.39"/>
<polygon fill="none" stroke="#29235c" points="99.62,-691.39 99.62,-751.39 482.62,-751.39 482.62,-691.39 99.62,-691.39"/>
<text text-anchor="start" x="110.62" y="-712.59" font-family="Helvetica,sans-Serif" font-weight="bold" font-size="32.00" fill="#ffffff"> &#160;&#160;&#160;&#160;&#160;&#160;role_has_menus &#160;&#160;&#160;&#160;&#160;&#160;</text>
<polygon fill="#e7e2dd" stroke="transparent" points="99.62,-631.39 99.62,-691.39 482.62,-691.39 482.62,-631.39 99.62,-631.39"/>
<polygon fill="none" stroke="#29235c" points="99.62,-631.39 99.62,-691.39 482.62,-691.39 482.62,-631.39 99.62,-631.39"/>
<text text-anchor="start" x="110.62" y="-652.59" font-family="Helvetica,sans-Serif" font-weight="bold" font-size="32.00" fill="#29235c">id</text>
<text text-anchor="start" x="135.51" y="-652.59" font-family="Helvetica,sans-Serif" font-size="32.00" fill="#29235c"> &#160;&#160;&#160;</text>
<text text-anchor="start" x="437.84" y="-652.59" font-family="Helvetica,sans-Serif" font-style="italic" font-size="32.00" fill="#29235c">int</text>
<polygon fill="#e7e2dd" stroke="transparent" points="99.62,-571.39 99.62,-631.39 482.62,-631.39 482.62,-571.39 99.62,-571.39"/>
<polygon fill="none" stroke="#29235c" points="99.62,-571.39 99.62,-631.39 482.62,-631.39 482.62,-571.39 99.62,-571.39"/>
<text text-anchor="start" x="110.62" y="-591.59" font-family="Helvetica,sans-Serif" font-size="32.00" fill="#29235c">role_id &#160;&#160;&#160;</text>
<text text-anchor="start" x="437.84" y="-592.59" font-family="Helvetica,sans-Serif" font-style="italic" font-size="32.00" fill="#29235c">int</text>
<polygon fill="#e7e2dd" stroke="transparent" points="99.62,-511.39 99.62,-571.39 482.62,-571.39 482.62,-511.39 99.62,-511.39"/>
<polygon fill="none" stroke="#29235c" points="99.62,-511.39 99.62,-571.39 482.62,-571.39 482.62,-511.39 99.62,-511.39"/>
<text text-anchor="start" x="110.62" y="-531.59" font-family="Helvetica,sans-Serif" font-size="32.00" fill="#29235c">menu_id &#160;&#160;&#160;</text>
<text text-anchor="start" x="437.84" y="-532.59" font-family="Helvetica,sans-Serif" font-style="italic" font-size="32.00" fill="#29235c">int</text>
<polygon fill="none" stroke="#29235c" stroke-width="2" points="98.12,-510.39 98.12,-752.39 483.12,-752.39 483.12,-510.39 98.12,-510.39"/>
</g>
<!-- role_has_menus&#45;&gt;menus -->
<!-- role_has_menus&#45;&gt;menus -->
<g id="edge6" class="edge">
<title>role_has_menus:e&#45;&gt;menus:w</title>
<path fill="none" stroke="#29235c" stroke-width="3" d="M483.62,-541.39C607.48,-541.39 569.39,-357.85 684.39,-347.81"/>
<polygon fill="#29235c" stroke="#29235c" stroke-width="3" points="684.61,-351.31 694.46,-347.39 684.32,-344.31 684.61,-351.31"/>
<text text-anchor="middle" x="703.35" y="-347.39" font-family="Helvetica,sans-Serif" font-size="32.00" fill="#29235c">1</text>
<text text-anchor="middle" x="477.4" y="-512.59" font-family="Helvetica,sans-Serif" font-size="32.00" fill="#29235c">*</text>
</g>
<!-- role_has_menus&#45;&gt;roles -->
<!-- role_has_menus&#45;&gt;roles -->
<g id="edge4" class="edge">
<title>role_has_menus:e&#45;&gt;roles:w</title>
<path fill="none" stroke="#29235c" stroke-width="3" d="M483.62,-601.39C611.05,-601.39 566.11,-796.28 684.11,-806.93"/>
<polygon fill="#29235c" stroke="#29235c" stroke-width="3" points="684.31,-810.45 694.46,-807.39 684.62,-803.45 684.31,-810.45"/>
<text text-anchor="middle" x="685.56" y="-816.99" font-family="Helvetica,sans-Serif" font-size="32.00" fill="#29235c">1</text>
<text text-anchor="middle" x="489.84" y="-601.39" font-family="Helvetica,sans-Serif" font-size="32.00" fill="#29235c">*</text>
</g>
<!-- user_has_projects -->
<g id="user_has_projects" class="node">
<title>user_has_projects</title>
<ellipse fill="none" stroke="black" stroke-width="0" cx="290.62" cy="-1781.39" rx="290.74" ry="172.57"/>
<polygon fill="#1d71b8" stroke="transparent" points="87.62,-1841.39 87.62,-1901.39 494.62,-1901.39 494.62,-1841.39 87.62,-1841.39"/>
<polygon fill="none" stroke="#29235c" points="87.62,-1841.39 87.62,-1901.39 494.62,-1901.39 494.62,-1841.39 87.62,-1841.39"/>
<text text-anchor="start" x="98.17" y="-1862.59" font-family="Helvetica,sans-Serif" font-weight="bold" font-size="32.00" fill="#ffffff"> &#160;&#160;&#160;&#160;&#160;&#160;user_has_projects &#160;&#160;&#160;&#160;&#160;&#160;</text>
<polygon fill="#e7e2dd" stroke="transparent" points="87.62,-1781.39 87.62,-1841.39 494.62,-1841.39 494.62,-1781.39 87.62,-1781.39"/>
<polygon fill="none" stroke="#29235c" points="87.62,-1781.39 87.62,-1841.39 494.62,-1841.39 494.62,-1781.39 87.62,-1781.39"/>
<text text-anchor="start" x="98.62" y="-1802.59" font-family="Helvetica,sans-Serif" font-weight="bold" font-size="32.00" fill="#29235c">id</text>
<text text-anchor="start" x="123.51" y="-1802.59" font-family="Helvetica,sans-Serif" font-size="32.00" fill="#29235c"> &#160;&#160;&#160;</text>
<text text-anchor="start" x="449.84" y="-1802.59" font-family="Helvetica,sans-Serif" font-style="italic" font-size="32.00" fill="#29235c">int</text>
<polygon fill="#e7e2dd" stroke="transparent" points="87.62,-1721.39 87.62,-1781.39 494.62,-1781.39 494.62,-1721.39 87.62,-1721.39"/>
<polygon fill="none" stroke="#29235c" points="87.62,-1721.39 87.62,-1781.39 494.62,-1781.39 494.62,-1721.39 87.62,-1721.39"/>
<text text-anchor="start" x="98.62" y="-1741.59" font-family="Helvetica,sans-Serif" font-size="32.00" fill="#29235c">user_id &#160;&#160;&#160;</text>
<text text-anchor="start" x="449.84" y="-1742.59" font-family="Helvetica,sans-Serif" font-style="italic" font-size="32.00" fill="#29235c">int</text>
<polygon fill="#e7e2dd" stroke="transparent" points="87.62,-1661.39 87.62,-1721.39 494.62,-1721.39 494.62,-1661.39 87.62,-1661.39"/>
<polygon fill="none" stroke="#29235c" points="87.62,-1661.39 87.62,-1721.39 494.62,-1721.39 494.62,-1661.39 87.62,-1661.39"/>
<text text-anchor="start" x="98.62" y="-1681.59" font-family="Helvetica,sans-Serif" font-size="32.00" fill="#29235c">project_id &#160;&#160;&#160;</text>
<text text-anchor="start" x="449.84" y="-1682.59" font-family="Helvetica,sans-Serif" font-style="italic" font-size="32.00" fill="#29235c">int</text>
<polygon fill="none" stroke="#29235c" stroke-width="2" points="86.12,-1660.39 86.12,-1902.39 495.12,-1902.39 495.12,-1660.39 86.12,-1660.39"/>
</g>
<!-- user_has_projects&#45;&gt;projects -->
<!-- user_has_projects&#45;&gt;projects -->
<g id="edge10" class="edge">
<title>user_has_projects:e&#45;&gt;projects:w</title>
<path fill="none" stroke="#29235c" stroke-width="3" d="M495.62,-1691.39C719.29,-1691.39 475.1,-2147.78 684.16,-2162.05"/>
<polygon fill="#29235c" stroke="#29235c" stroke-width="3" points="684.35,-2165.55 694.46,-2162.39 684.58,-2158.56 684.35,-2165.55"/>
<text text-anchor="middle" x="685.56" y="-2171.99" font-family="Helvetica,sans-Serif" font-size="32.00" fill="#29235c">1</text>
<text text-anchor="middle" x="489.4" y="-1700.99" font-family="Helvetica,sans-Serif" font-size="32.00" fill="#29235c">*</text>
</g>
<!-- user_has_projects&#45;&gt;users -->
<!-- user_has_projects&#45;&gt;users -->
<g id="edge8" class="edge">
<title>user_has_projects:e&#45;&gt;users:w</title>
<path fill="none" stroke="#29235c" stroke-width="3" d="M495.62,-1751.39C671.41,-1751.39 521.28,-1413.96 684.33,-1400.78"/>
<polygon fill="#29235c" stroke="#29235c" stroke-width="3" points="684.6,-1404.28 694.46,-1400.39 684.33,-1397.28 684.6,-1404.28"/>
<text text-anchor="middle" x="685.56" y="-1409.99" font-family="Helvetica,sans-Serif" font-size="32.00" fill="#29235c">1</text>
<text text-anchor="middle" x="489.4" y="-1760.99" font-family="Helvetica,sans-Serif" font-size="32.00" fill="#29235c">*</text>
</g>
<!-- user_has_roles -->
<g id="user_has_roles" class="node">
<title>user_has_roles</title>
<ellipse fill="none" stroke="black" stroke-width="0" cx="290.62" cy="-1042.39" rx="260.84" ry="172.57"/>
<polygon fill="#1d71b8" stroke="transparent" points="108.62,-1102.39 108.62,-1162.39 473.62,-1162.39 473.62,-1102.39 108.62,-1102.39"/>
<polygon fill="none" stroke="#29235c" points="108.62,-1102.39 108.62,-1162.39 473.62,-1162.39 473.62,-1102.39 108.62,-1102.39"/>
<text text-anchor="start" x="119.51" y="-1123.59" font-family="Helvetica,sans-Serif" font-weight="bold" font-size="32.00" fill="#ffffff"> &#160;&#160;&#160;&#160;&#160;&#160;user_has_roles &#160;&#160;&#160;&#160;&#160;&#160;</text>
<polygon fill="#e7e2dd" stroke="transparent" points="108.62,-1042.39 108.62,-1102.39 473.62,-1102.39 473.62,-1042.39 108.62,-1042.39"/>
<polygon fill="none" stroke="#29235c" points="108.62,-1042.39 108.62,-1102.39 473.62,-1102.39 473.62,-1042.39 108.62,-1042.39"/>
<text text-anchor="start" x="119.62" y="-1063.59" font-family="Helvetica,sans-Serif" font-weight="bold" font-size="32.00" fill="#29235c">id</text>
<text text-anchor="start" x="144.51" y="-1063.59" font-family="Helvetica,sans-Serif" font-size="32.00" fill="#29235c"> &#160;&#160;&#160;</text>
<text text-anchor="start" x="428.84" y="-1063.59" font-family="Helvetica,sans-Serif" font-style="italic" font-size="32.00" fill="#29235c">int</text>
<polygon fill="#e7e2dd" stroke="transparent" points="108.62,-982.39 108.62,-1042.39 473.62,-1042.39 473.62,-982.39 108.62,-982.39"/>
<polygon fill="none" stroke="#29235c" points="108.62,-982.39 108.62,-1042.39 473.62,-1042.39 473.62,-982.39 108.62,-982.39"/>
<text text-anchor="start" x="119.62" y="-1002.59" font-family="Helvetica,sans-Serif" font-size="32.00" fill="#29235c">user_id &#160;&#160;&#160;</text>
<text text-anchor="start" x="428.84" y="-1003.59" font-family="Helvetica,sans-Serif" font-style="italic" font-size="32.00" fill="#29235c">int</text>
<polygon fill="#e7e2dd" stroke="transparent" points="108.62,-922.39 108.62,-982.39 473.62,-982.39 473.62,-922.39 108.62,-922.39"/>
<polygon fill="none" stroke="#29235c" points="108.62,-922.39 108.62,-982.39 473.62,-982.39 473.62,-922.39 108.62,-922.39"/>
<text text-anchor="start" x="119.62" y="-942.59" font-family="Helvetica,sans-Serif" font-size="32.00" fill="#29235c">role_id &#160;&#160;&#160;</text>
<text text-anchor="start" x="428.84" y="-943.59" font-family="Helvetica,sans-Serif" font-style="italic" font-size="32.00" fill="#29235c">int</text>
<polygon fill="none" stroke="#29235c" stroke-width="2" points="107.12,-921.39 107.12,-1163.39 474.12,-1163.39 474.12,-921.39 107.12,-921.39"/>
</g>
<!-- user_has_roles&#45;&gt;roles -->
<!-- user_has_roles&#45;&gt;roles -->
<g id="edge14" class="edge">
<title>user_has_roles:e&#45;&gt;roles:w</title>
<path fill="none" stroke="#29235c" stroke-width="3" d="M474.62,-952.39C588.12,-952.39 578.16,-816.03 684.18,-807.78"/>
<polygon fill="#29235c" stroke="#29235c" stroke-width="3" points="684.6,-811.26 694.46,-807.39 684.33,-804.27 684.6,-811.26"/>
<text text-anchor="middle" x="703.35" y="-816.99" font-family="Helvetica,sans-Serif" font-size="32.00" fill="#29235c">1</text>
<text text-anchor="middle" x="468.4" y="-961.99" font-family="Helvetica,sans-Serif" font-size="32.00" fill="#29235c">*</text>
</g>
<!-- user_has_roles&#45;&gt;users -->
<!-- user_has_roles&#45;&gt;users -->
<g id="edge12" class="edge">
<title>user_has_roles:e&#45;&gt;users:w</title>
<path fill="none" stroke="#29235c" stroke-width="3" d="M474.62,-1012.39C669.34,-1012.39 502.35,-1386.87 684.35,-1400.03"/>
<polygon fill="#29235c" stroke="#29235c" stroke-width="3" points="684.34,-1403.53 694.46,-1400.39 684.59,-1396.54 684.34,-1403.53"/>
<text text-anchor="middle" x="703.35" y="-1409.99" font-family="Helvetica,sans-Serif" font-size="32.00" fill="#29235c">1</text>
<text text-anchor="middle" x="468.4" y="-1021.99" font-family="Helvetica,sans-Serif" font-size="32.00" fill="#29235c">*</text>
</g>
</g>
</svg>
