<?xml version="1.0" encoding="UTF-8" standalone="no"?>
<!DOCTYPE svg PUBLIC "-//W3C//DTD SVG 1.1//EN"
 "http://www.w3.org/Graphics/SVG/1.1/DTD/svg11.dtd">
<!-- Generated by graphviz version 2.47.0 (20210316.0004)
 -->
<!-- Title: dbml Pages: 1 -->
<svg width="2314pt" height="1394pt"
 viewBox="0.00 0.00 2313.69 1394.48" xmlns="http://www.w3.org/2000/svg" xmlns:xlink="http://www.w3.org/1999/xlink">
<g id="graph0" class="graph" transform="scale(1 1) rotate(0) translate(4 1390.48)">
<title>dbml</title>
<!-- prioritas -->
<g id="prioritas" class="node">
<title>prioritas</title>
<ellipse fill="none" stroke="black" stroke-width="0" cx="318.2" cy="-172.53" rx="186.85" ry="172.57"/>
<polygon fill="#29235c" stroke="transparent" points="188.2,-232.53 188.2,-292.53 448.2,-292.53 448.2,-232.53 188.2,-232.53"/>
<polygon fill="none" stroke="#29235c" points="188.2,-232.53 188.2,-292.53 448.2,-292.53 448.2,-232.53 188.2,-232.53"/>
<text text-anchor="start" x="199.07" y="-253.73" font-family="Helvetica,sans-Serif" font-weight="bold" font-size="32.00" fill="#ffffff"> &#160;&#160;&#160;&#160;&#160;&#160;prioritas &#160;&#160;&#160;&#160;&#160;&#160;</text>
<polygon fill="#e7e2dd" stroke="transparent" points="188.2,-172.53 188.2,-232.53 448.2,-232.53 448.2,-172.53 188.2,-172.53"/>
<polygon fill="none" stroke="#29235c" points="188.2,-172.53 188.2,-232.53 448.2,-232.53 448.2,-172.53 188.2,-172.53"/>
<text text-anchor="start" x="246.18" y="-193.73" font-family="Helvetica,sans-Serif" font-style="italic" font-size="32.00" fill="#1d71b8"> &#160;&#160;&#160;LOW &#160;&#160;&#160;</text>
<polygon fill="#e7e2dd" stroke="transparent" points="188.2,-112.53 188.2,-172.53 448.2,-172.53 448.2,-112.53 188.2,-112.53"/>
<polygon fill="none" stroke="#29235c" points="188.2,-112.53 188.2,-172.53 448.2,-172.53 448.2,-112.53 188.2,-112.53"/>
<text text-anchor="start" x="217.76" y="-133.73" font-family="Helvetica,sans-Serif" font-style="italic" font-size="32.00" fill="#1d71b8"> &#160;&#160;&#160;MEDIUM &#160;&#160;&#160;</text>
<polygon fill="#e7e2dd" stroke="transparent" points="188.2,-52.53 188.2,-112.53 448.2,-112.53 448.2,-52.53 188.2,-52.53"/>
<polygon fill="none" stroke="#29235c" points="188.2,-52.53 188.2,-112.53 448.2,-112.53 448.2,-52.53 188.2,-52.53"/>
<text text-anchor="start" x="242.63" y="-73.73" font-family="Helvetica,sans-Serif" font-style="italic" font-size="32.00" fill="#1d71b8"> &#160;&#160;&#160;HIGH &#160;&#160;&#160;</text>
<polygon fill="none" stroke="#29235c" stroke-width="2" points="187.2,-51.53 187.2,-293.53 449.2,-293.53 449.2,-51.53 187.2,-51.53"/>
</g>
<!-- departments -->
<g id="departments" class="node">
<title>departments</title>
<ellipse fill="none" stroke="black" stroke-width="0" cx="2045.47" cy="-1084.53" rx="260.43" ry="214.92"/>
<polygon fill="#1d71b8" stroke="transparent" points="1863.47,-1174.53 1863.47,-1234.53 2227.47,-1234.53 2227.47,-1174.53 1863.47,-1174.53"/>
<polygon fill="none" stroke="#29235c" points="1863.47,-1174.53 1863.47,-1234.53 2227.47,-1234.53 2227.47,-1174.53 1863.47,-1174.53"/>
<text text-anchor="start" x="1894.31" y="-1195.73" font-family="Helvetica,sans-Serif" font-weight="bold" font-size="32.00" fill="#ffffff"> &#160;&#160;&#160;&#160;&#160;&#160;departments &#160;&#160;&#160;&#160;&#160;&#160;</text>
<polygon fill="#e7e2dd" stroke="transparent" points="1863.47,-1114.53 1863.47,-1174.53 2227.47,-1174.53 2227.47,-1114.53 1863.47,-1114.53"/>
<polygon fill="none" stroke="#29235c" points="1863.47,-1114.53 1863.47,-1174.53 2227.47,-1174.53 2227.47,-1114.53 1863.47,-1114.53"/>
<text text-anchor="start" x="1874.47" y="-1135.73" font-family="Helvetica,sans-Serif" font-weight="bold" font-size="32.00" fill="#29235c">id</text>
<text text-anchor="start" x="1899.36" y="-1135.73" font-family="Helvetica,sans-Serif" font-size="32.00" fill="#29235c"> &#160;&#160;&#160;</text>
<text text-anchor="start" x="2182.69" y="-1135.73" font-family="Helvetica,sans-Serif" font-style="italic" font-size="32.00" fill="#29235c">int</text>
<polygon fill="#e7e2dd" stroke="transparent" points="1863.47,-1054.53 1863.47,-1114.53 2227.47,-1114.53 2227.47,-1054.53 1863.47,-1054.53"/>
<polygon fill="none" stroke="#29235c" points="1863.47,-1054.53 1863.47,-1114.53 2227.47,-1114.53 2227.47,-1054.53 1863.47,-1054.53"/>
<text text-anchor="start" x="1874.47" y="-1074.73" font-family="Helvetica,sans-Serif" font-size="32.00" fill="#29235c">name &#160;&#160;&#160;</text>
<text text-anchor="start" x="2070.71" y="-1075.73" font-family="Helvetica,sans-Serif" font-style="italic" font-size="32.00" fill="#29235c">varchar</text>
<text text-anchor="start" x="2177.38" y="-1075.73" font-family="Helvetica,sans-Serif" font-size="32.00" fill="#29235c"> </text>
<text text-anchor="start" x="2186.27" y="-1075.73" font-family="Helvetica,sans-Serif" font-weight="bold" font-size="32.00" fill="#29235c">(!)</text>
<polygon fill="#e7e2dd" stroke="transparent" points="1863.47,-994.53 1863.47,-1054.53 2227.47,-1054.53 2227.47,-994.53 1863.47,-994.53"/>
<polygon fill="none" stroke="#29235c" points="1863.47,-994.53 1863.47,-1054.53 2227.47,-1054.53 2227.47,-994.53 1863.47,-994.53"/>
<text text-anchor="start" x="1874.47" y="-1014.73" font-family="Helvetica,sans-Serif" font-size="32.00" fill="#29235c">created_at &#160;&#160;&#160;</text>
<text text-anchor="start" x="2068.91" y="-1015.73" font-family="Helvetica,sans-Serif" font-style="italic" font-size="32.00" fill="#29235c">timestamp</text>
<polygon fill="#e7e2dd" stroke="transparent" points="1863.47,-934.53 1863.47,-994.53 2227.47,-994.53 2227.47,-934.53 1863.47,-934.53"/>
<polygon fill="none" stroke="#29235c" points="1863.47,-934.53 1863.47,-994.53 2227.47,-994.53 2227.47,-934.53 1863.47,-934.53"/>
<text text-anchor="start" x="1874.14" y="-954.73" font-family="Helvetica,sans-Serif" font-size="32.00" fill="#29235c">updated_at &#160;&#160;&#160;</text>
<text text-anchor="start" x="2069.19" y="-955.73" font-family="Helvetica,sans-Serif" font-style="italic" font-size="32.00" fill="#29235c">timestamp</text>
<polygon fill="none" stroke="#29235c" stroke-width="2" points="1862.47,-933.53 1862.47,-1235.53 2228.47,-1235.53 2228.47,-933.53 1862.47,-933.53"/>
</g>
<!-- levels -->
<g id="levels" class="node">
<title>levels</title>
<ellipse fill="none" stroke="black" stroke-width="0" cx="1489.04" cy="-636.53" rx="260.43" ry="214.92"/>
<polygon fill="#1d71b8" stroke="transparent" points="1307.04,-726.53 1307.04,-786.53 1671.04,-786.53 1671.04,-726.53 1307.04,-726.53"/>
<polygon fill="none" stroke="#29235c" points="1307.04,-726.53 1307.04,-786.53 1671.04,-786.53 1671.04,-726.53 1307.04,-726.53"/>
<text text-anchor="start" x="1385.9" y="-747.73" font-family="Helvetica,sans-Serif" font-weight="bold" font-size="32.00" fill="#ffffff"> &#160;&#160;&#160;&#160;&#160;&#160;levels &#160;&#160;&#160;&#160;&#160;&#160;</text>
<polygon fill="#e7e2dd" stroke="transparent" points="1307.04,-666.53 1307.04,-726.53 1671.04,-726.53 1671.04,-666.53 1307.04,-666.53"/>
<polygon fill="none" stroke="#29235c" points="1307.04,-666.53 1307.04,-726.53 1671.04,-726.53 1671.04,-666.53 1307.04,-666.53"/>
<text text-anchor="start" x="1318.04" y="-687.73" font-family="Helvetica,sans-Serif" font-weight="bold" font-size="32.00" fill="#29235c">id</text>
<text text-anchor="start" x="1342.93" y="-687.73" font-family="Helvetica,sans-Serif" font-size="32.00" fill="#29235c"> &#160;&#160;&#160;</text>
<text text-anchor="start" x="1626.26" y="-687.73" font-family="Helvetica,sans-Serif" font-style="italic" font-size="32.00" fill="#29235c">int</text>
<polygon fill="#e7e2dd" stroke="transparent" points="1307.04,-606.53 1307.04,-666.53 1671.04,-666.53 1671.04,-606.53 1307.04,-606.53"/>
<polygon fill="none" stroke="#29235c" points="1307.04,-606.53 1307.04,-666.53 1671.04,-666.53 1671.04,-606.53 1307.04,-606.53"/>
<text text-anchor="start" x="1318.04" y="-626.73" font-family="Helvetica,sans-Serif" font-size="32.00" fill="#29235c">name &#160;&#160;&#160;</text>
<text text-anchor="start" x="1514.28" y="-627.73" font-family="Helvetica,sans-Serif" font-style="italic" font-size="32.00" fill="#29235c">varchar</text>
<text text-anchor="start" x="1620.95" y="-627.73" font-family="Helvetica,sans-Serif" font-size="32.00" fill="#29235c"> </text>
<text text-anchor="start" x="1629.84" y="-627.73" font-family="Helvetica,sans-Serif" font-weight="bold" font-size="32.00" fill="#29235c">(!)</text>
<polygon fill="#e7e2dd" stroke="transparent" points="1307.04,-546.53 1307.04,-606.53 1671.04,-606.53 1671.04,-546.53 1307.04,-546.53"/>
<polygon fill="none" stroke="#29235c" points="1307.04,-546.53 1307.04,-606.53 1671.04,-606.53 1671.04,-546.53 1307.04,-546.53"/>
<text text-anchor="start" x="1318.04" y="-566.73" font-family="Helvetica,sans-Serif" font-size="32.00" fill="#29235c">created_at &#160;&#160;&#160;</text>
<text text-anchor="start" x="1512.48" y="-567.73" font-family="Helvetica,sans-Serif" font-style="italic" font-size="32.00" fill="#29235c">timestamp</text>
<polygon fill="#e7e2dd" stroke="transparent" points="1307.04,-486.53 1307.04,-546.53 1671.04,-546.53 1671.04,-486.53 1307.04,-486.53"/>
<polygon fill="none" stroke="#29235c" points="1307.04,-486.53 1307.04,-546.53 1671.04,-546.53 1671.04,-486.53 1307.04,-486.53"/>
<text text-anchor="start" x="1317.71" y="-506.73" font-family="Helvetica,sans-Serif" font-size="32.00" fill="#29235c">updated_at &#160;&#160;&#160;</text>
<text text-anchor="start" x="1512.76" y="-507.73" font-family="Helvetica,sans-Serif" font-style="italic" font-size="32.00" fill="#29235c">timestamp</text>
<polygon fill="none" stroke="#29235c" stroke-width="2" points="1306.04,-485.53 1306.04,-787.53 1672.04,-787.53 1672.04,-485.53 1306.04,-485.53"/>
</g>
<!-- positions -->
<g id="positions" class="node">
<title>positions</title>
<ellipse fill="none" stroke="black" stroke-width="0" cx="1489.04" cy="-1084.53" rx="260.43" ry="214.92"/>
<polygon fill="#1d71b8" stroke="transparent" points="1307.04,-1174.53 1307.04,-1234.53 1671.04,-1234.53 1671.04,-1174.53 1307.04,-1174.53"/>
<polygon fill="none" stroke="#29235c" points="1307.04,-1174.53 1307.04,-1234.53 1671.04,-1234.53 1671.04,-1174.53 1307.04,-1174.53"/>
<text text-anchor="start" x="1363.67" y="-1195.73" font-family="Helvetica,sans-Serif" font-weight="bold" font-size="32.00" fill="#ffffff"> &#160;&#160;&#160;&#160;&#160;&#160;positions &#160;&#160;&#160;&#160;&#160;&#160;</text>
<polygon fill="#e7e2dd" stroke="transparent" points="1307.04,-1114.53 1307.04,-1174.53 1671.04,-1174.53 1671.04,-1114.53 1307.04,-1114.53"/>
<polygon fill="none" stroke="#29235c" points="1307.04,-1114.53 1307.04,-1174.53 1671.04,-1174.53 1671.04,-1114.53 1307.04,-1114.53"/>
<text text-anchor="start" x="1318.04" y="-1135.73" font-family="Helvetica,sans-Serif" font-weight="bold" font-size="32.00" fill="#29235c">id</text>
<text text-anchor="start" x="1342.93" y="-1135.73" font-family="Helvetica,sans-Serif" font-size="32.00" fill="#29235c"> &#160;&#160;&#160;</text>
<text text-anchor="start" x="1626.26" y="-1135.73" font-family="Helvetica,sans-Serif" font-style="italic" font-size="32.00" fill="#29235c">int</text>
<polygon fill="#e7e2dd" stroke="transparent" points="1307.04,-1054.53 1307.04,-1114.53 1671.04,-1114.53 1671.04,-1054.53 1307.04,-1054.53"/>
<polygon fill="none" stroke="#29235c" points="1307.04,-1054.53 1307.04,-1114.53 1671.04,-1114.53 1671.04,-1054.53 1307.04,-1054.53"/>
<text text-anchor="start" x="1318.04" y="-1074.73" font-family="Helvetica,sans-Serif" font-size="32.00" fill="#29235c">department_id &#160;&#160;&#160;</text>
<text text-anchor="start" x="1626.26" y="-1075.73" font-family="Helvetica,sans-Serif" font-style="italic" font-size="32.00" fill="#29235c">int</text>
<polygon fill="#e7e2dd" stroke="transparent" points="1307.04,-994.53 1307.04,-1054.53 1671.04,-1054.53 1671.04,-994.53 1307.04,-994.53"/>
<polygon fill="none" stroke="#29235c" points="1307.04,-994.53 1307.04,-1054.53 1671.04,-1054.53 1671.04,-994.53 1307.04,-994.53"/>
<text text-anchor="start" x="1318.04" y="-1014.73" font-family="Helvetica,sans-Serif" font-size="32.00" fill="#29235c">created_at &#160;&#160;&#160;</text>
<text text-anchor="start" x="1512.48" y="-1015.73" font-family="Helvetica,sans-Serif" font-style="italic" font-size="32.00" fill="#29235c">timestamp</text>
<polygon fill="#e7e2dd" stroke="transparent" points="1307.04,-934.53 1307.04,-994.53 1671.04,-994.53 1671.04,-934.53 1307.04,-934.53"/>
<polygon fill="none" stroke="#29235c" points="1307.04,-934.53 1307.04,-994.53 1671.04,-994.53 1671.04,-934.53 1307.04,-934.53"/>
<text text-anchor="start" x="1317.71" y="-954.73" font-family="Helvetica,sans-Serif" font-size="32.00" fill="#29235c">updated_at &#160;&#160;&#160;</text>
<text text-anchor="start" x="1512.76" y="-955.73" font-family="Helvetica,sans-Serif" font-style="italic" font-size="32.00" fill="#29235c">timestamp</text>
<polygon fill="none" stroke="#29235c" stroke-width="2" points="1306.04,-933.53 1306.04,-1235.53 1672.04,-1235.53 1672.04,-933.53 1306.04,-933.53"/>
</g>
<!-- positions&#45;&gt;departments -->
<!-- positions&#45;&gt;departments -->
<g id="edge2" class="edge">
<title>positions:e&#45;&gt;departments:w</title>
<path fill="none" stroke="#29235c" stroke-width="3" d="M1672.04,-1084.53C1757.31,-1084.53 1772.61,-1139.94 1852.41,-1144.27"/>
<polygon fill="#29235c" stroke="#29235c" stroke-width="3" points="1852.38,-1147.77 1862.47,-1144.53 1852.57,-1140.77 1852.38,-1147.77"/>
<text text-anchor="middle" x="1853.58" y="-1154.13" font-family="Helvetica,sans-Serif" font-size="32.00" fill="#29235c">1</text>
<text text-anchor="middle" x="1678.26" y="-1094.13" font-family="Helvetica,sans-Serif" font-size="32.00" fill="#29235c">*</text>
</g>
<!-- user_titles -->
<g id="user_titles" class="node">
<title>user_titles</title>
<ellipse fill="none" stroke="black" stroke-width="0" cx="932.61" cy="-994.53" rx="260.43" ry="342.48"/>
<polygon fill="#1d71b8" stroke="transparent" points="750.61,-1174.53 750.61,-1234.53 1114.61,-1234.53 1114.61,-1174.53 750.61,-1174.53"/>
<polygon fill="none" stroke="#29235c" points="750.61,-1174.53 750.61,-1234.53 1114.61,-1234.53 1114.61,-1174.53 750.61,-1174.53"/>
<text text-anchor="start" x="797.46" y="-1195.73" font-family="Helvetica,sans-Serif" font-weight="bold" font-size="32.00" fill="#ffffff"> &#160;&#160;&#160;&#160;&#160;&#160;user_titles &#160;&#160;&#160;&#160;&#160;&#160;</text>
<polygon fill="#e7e2dd" stroke="transparent" points="750.61,-1114.53 750.61,-1174.53 1114.61,-1174.53 1114.61,-1114.53 750.61,-1114.53"/>
<polygon fill="none" stroke="#29235c" points="750.61,-1114.53 750.61,-1174.53 1114.61,-1174.53 1114.61,-1114.53 750.61,-1114.53"/>
<text text-anchor="start" x="761.61" y="-1135.73" font-family="Helvetica,sans-Serif" font-weight="bold" font-size="32.00" fill="#29235c">id</text>
<text text-anchor="start" x="786.5" y="-1135.73" font-family="Helvetica,sans-Serif" font-size="32.00" fill="#29235c"> &#160;&#160;&#160;</text>
<text text-anchor="start" x="1069.83" y="-1135.73" font-family="Helvetica,sans-Serif" font-style="italic" font-size="32.00" fill="#29235c">int</text>
<polygon fill="#e7e2dd" stroke="transparent" points="750.61,-1054.53 750.61,-1114.53 1114.61,-1114.53 1114.61,-1054.53 750.61,-1054.53"/>
<polygon fill="none" stroke="#29235c" points="750.61,-1054.53 750.61,-1114.53 1114.61,-1114.53 1114.61,-1054.53 750.61,-1054.53"/>
<text text-anchor="start" x="761.61" y="-1074.73" font-family="Helvetica,sans-Serif" font-size="32.00" fill="#29235c">name &#160;&#160;&#160;</text>
<text text-anchor="start" x="957.85" y="-1075.73" font-family="Helvetica,sans-Serif" font-style="italic" font-size="32.00" fill="#29235c">varchar</text>
<text text-anchor="start" x="1064.52" y="-1075.73" font-family="Helvetica,sans-Serif" font-size="32.00" fill="#29235c"> </text>
<text text-anchor="start" x="1073.41" y="-1075.73" font-family="Helvetica,sans-Serif" font-weight="bold" font-size="32.00" fill="#29235c">(!)</text>
<polygon fill="#e7e2dd" stroke="transparent" points="750.61,-994.53 750.61,-1054.53 1114.61,-1054.53 1114.61,-994.53 750.61,-994.53"/>
<polygon fill="none" stroke="#29235c" points="750.61,-994.53 750.61,-1054.53 1114.61,-1054.53 1114.61,-994.53 750.61,-994.53"/>
<text text-anchor="start" x="761.61" y="-1014.73" font-family="Helvetica,sans-Serif" font-size="32.00" fill="#29235c">department_id &#160;&#160;&#160;</text>
<text text-anchor="start" x="1069.83" y="-1015.73" font-family="Helvetica,sans-Serif" font-style="italic" font-size="32.00" fill="#29235c">int</text>
<polygon fill="#e7e2dd" stroke="transparent" points="750.61,-934.53 750.61,-994.53 1114.61,-994.53 1114.61,-934.53 750.61,-934.53"/>
<polygon fill="none" stroke="#29235c" points="750.61,-934.53 750.61,-994.53 1114.61,-994.53 1114.61,-934.53 750.61,-934.53"/>
<text text-anchor="start" x="761.61" y="-954.73" font-family="Helvetica,sans-Serif" font-size="32.00" fill="#29235c">position_id &#160;&#160;&#160;</text>
<text text-anchor="start" x="1069.83" y="-955.73" font-family="Helvetica,sans-Serif" font-style="italic" font-size="32.00" fill="#29235c">int</text>
<polygon fill="#e7e2dd" stroke="transparent" points="750.61,-874.53 750.61,-934.53 1114.61,-934.53 1114.61,-874.53 750.61,-874.53"/>
<polygon fill="none" stroke="#29235c" points="750.61,-874.53 750.61,-934.53 1114.61,-934.53 1114.61,-874.53 750.61,-874.53"/>
<text text-anchor="start" x="761.61" y="-894.73" font-family="Helvetica,sans-Serif" font-size="32.00" fill="#29235c">level_id &#160;&#160;&#160;</text>
<text text-anchor="start" x="1069.83" y="-895.73" font-family="Helvetica,sans-Serif" font-style="italic" font-size="32.00" fill="#29235c">int</text>
<polygon fill="#e7e2dd" stroke="transparent" points="750.61,-814.53 750.61,-874.53 1114.61,-874.53 1114.61,-814.53 750.61,-814.53"/>
<polygon fill="none" stroke="#29235c" points="750.61,-814.53 750.61,-874.53 1114.61,-874.53 1114.61,-814.53 750.61,-814.53"/>
<text text-anchor="start" x="761.61" y="-834.73" font-family="Helvetica,sans-Serif" font-size="32.00" fill="#29235c">created_at &#160;&#160;&#160;</text>
<text text-anchor="start" x="956.05" y="-835.73" font-family="Helvetica,sans-Serif" font-style="italic" font-size="32.00" fill="#29235c">timestamp</text>
<polygon fill="#e7e2dd" stroke="transparent" points="750.61,-754.53 750.61,-814.53 1114.61,-814.53 1114.61,-754.53 750.61,-754.53"/>
<polygon fill="none" stroke="#29235c" points="750.61,-754.53 750.61,-814.53 1114.61,-814.53 1114.61,-754.53 750.61,-754.53"/>
<text text-anchor="start" x="761.28" y="-774.73" font-family="Helvetica,sans-Serif" font-size="32.00" fill="#29235c">updated_at &#160;&#160;&#160;</text>
<text text-anchor="start" x="956.33" y="-775.73" font-family="Helvetica,sans-Serif" font-style="italic" font-size="32.00" fill="#29235c">timestamp</text>
<polygon fill="none" stroke="#29235c" stroke-width="2" points="749.61,-753.53 749.61,-1235.53 1115.61,-1235.53 1115.61,-753.53 749.61,-753.53"/>
</g>
<!-- user_titles&#45;&gt;departments -->
<!-- user_titles&#45;&gt;departments -->
<g id="edge4" class="edge">
<title>user_titles:e&#45;&gt;departments:w</title>
<path fill="none" stroke="#29235c" stroke-width="3" d="M1115.61,-1024.53C1392.23,-1024.53 1016.18,-589.45 1228.83,-412.53 1406.64,-264.6 1573.65,-262 1749.26,-412.53 1871.54,-517.36 1705.31,-1117.92 1852.33,-1143.68"/>
<polygon fill="#29235c" stroke="#29235c" stroke-width="3" points="1852.21,-1147.18 1862.47,-1144.53 1852.8,-1140.21 1852.21,-1147.18"/>
<text text-anchor="middle" x="1871.37" y="-1154.13" font-family="Helvetica,sans-Serif" font-size="32.00" fill="#29235c">1</text>
<text text-anchor="middle" x="1109.39" y="-1034.13" font-family="Helvetica,sans-Serif" font-size="32.00" fill="#29235c">*</text>
</g>
<!-- user_titles&#45;&gt;levels -->
<!-- user_titles&#45;&gt;levels -->
<g id="edge8" class="edge">
<title>user_titles:e&#45;&gt;levels:w</title>
<path fill="none" stroke="#29235c" stroke-width="3" d="M1115.61,-904.53C1237.4,-904.53 1183.97,-708.15 1295.83,-697.03"/>
<polygon fill="#29235c" stroke="#29235c" stroke-width="3" points="1296.22,-700.51 1306.04,-696.53 1295.89,-693.52 1296.22,-700.51"/>
<text text-anchor="middle" x="1297.15" y="-667.73" font-family="Helvetica,sans-Serif" font-size="32.00" fill="#29235c">1</text>
<text text-anchor="middle" x="1109.39" y="-914.13" font-family="Helvetica,sans-Serif" font-size="32.00" fill="#29235c">*</text>
</g>
<!-- user_titles&#45;&gt;positions -->
<!-- user_titles&#45;&gt;positions -->
<g id="edge6" class="edge">
<title>user_titles:e&#45;&gt;positions:w</title>
<path fill="none" stroke="#29235c" stroke-width="3" d="M1115.61,-964.53C1228.55,-964.53 1192.01,-1133.8 1295.89,-1144.05"/>
<polygon fill="#29235c" stroke="#29235c" stroke-width="3" points="1295.89,-1147.55 1306.04,-1144.53 1296.22,-1140.56 1295.89,-1147.55"/>
<text text-anchor="middle" x="1297.15" y="-1154.13" font-family="Helvetica,sans-Serif" font-size="32.00" fill="#29235c">1</text>
<text text-anchor="middle" x="1109.39" y="-974.13" font-family="Helvetica,sans-Serif" font-size="32.00" fill="#29235c">*</text>
</g>
<!-- users -->
<g id="users" class="node">
<title>users</title>
<ellipse fill="none" stroke="black" stroke-width="0" cx="318.2" cy="-874.53" rx="318.4" ry="511.89"/>
<polygon fill="#1d71b8" stroke="transparent" points="95.2,-1174.53 95.2,-1234.53 541.2,-1234.53 541.2,-1174.53 95.2,-1174.53"/>
<polygon fill="none" stroke="#29235c" points="95.2,-1174.53 95.2,-1234.53 541.2,-1234.53 541.2,-1174.53 95.2,-1174.53"/>
<text text-anchor="start" x="216.83" y="-1195.73" font-family="Helvetica,sans-Serif" font-weight="bold" font-size="32.00" fill="#ffffff"> &#160;&#160;&#160;&#160;&#160;&#160;users &#160;&#160;&#160;&#160;&#160;&#160;</text>
<polygon fill="#e7e2dd" stroke="transparent" points="95.2,-1114.53 95.2,-1174.53 541.2,-1174.53 541.2,-1114.53 95.2,-1114.53"/>
<polygon fill="none" stroke="#29235c" points="95.2,-1114.53 95.2,-1174.53 541.2,-1174.53 541.2,-1114.53 95.2,-1114.53"/>
<text text-anchor="start" x="106.2" y="-1135.73" font-family="Helvetica,sans-Serif" font-weight="bold" font-size="32.00" fill="#29235c">id</text>
<text text-anchor="start" x="131.09" y="-1135.73" font-family="Helvetica,sans-Serif" font-size="32.00" fill="#29235c"> &#160;&#160;&#160;</text>
<text text-anchor="start" x="496.42" y="-1135.73" font-family="Helvetica,sans-Serif" font-style="italic" font-size="32.00" fill="#29235c">int</text>
<polygon fill="#e7e2dd" stroke="transparent" points="95.2,-1054.53 95.2,-1114.53 541.2,-1114.53 541.2,-1054.53 95.2,-1054.53"/>
<polygon fill="none" stroke="#29235c" points="95.2,-1054.53 95.2,-1114.53 541.2,-1114.53 541.2,-1054.53 95.2,-1054.53"/>
<text text-anchor="start" x="106.2" y="-1074.73" font-family="Helvetica,sans-Serif" font-size="32.00" fill="#29235c">title_id &#160;&#160;&#160;</text>
<text text-anchor="start" x="496.42" y="-1075.73" font-family="Helvetica,sans-Serif" font-style="italic" font-size="32.00" fill="#29235c">int</text>
<polygon fill="#e7e2dd" stroke="transparent" points="95.2,-994.53 95.2,-1054.53 541.2,-1054.53 541.2,-994.53 95.2,-994.53"/>
<polygon fill="none" stroke="#29235c" points="95.2,-994.53 95.2,-1054.53 541.2,-1054.53 541.2,-994.53 95.2,-994.53"/>
<text text-anchor="start" x="106.2" y="-1014.73" font-family="Helvetica,sans-Serif" font-size="32.00" fill="#29235c">name &#160;&#160;&#160;</text>
<text text-anchor="start" x="384.43" y="-1015.73" font-family="Helvetica,sans-Serif" font-style="italic" font-size="32.00" fill="#29235c">varchar</text>
<text text-anchor="start" x="491.11" y="-1015.73" font-family="Helvetica,sans-Serif" font-size="32.00" fill="#29235c"> </text>
<text text-anchor="start" x="500" y="-1015.73" font-family="Helvetica,sans-Serif" font-weight="bold" font-size="32.00" fill="#29235c">(!)</text>
<polygon fill="#e7e2dd" stroke="transparent" points="95.2,-934.53 95.2,-994.53 541.2,-994.53 541.2,-934.53 95.2,-934.53"/>
<polygon fill="none" stroke="#29235c" points="95.2,-934.53 95.2,-994.53 541.2,-994.53 541.2,-934.53 95.2,-934.53"/>
<text text-anchor="start" x="106.2" y="-954.73" font-family="Helvetica,sans-Serif" font-size="32.00" fill="#29235c">email &#160;&#160;&#160;</text>
<text text-anchor="start" x="384.43" y="-955.73" font-family="Helvetica,sans-Serif" font-style="italic" font-size="32.00" fill="#29235c">varchar</text>
<text text-anchor="start" x="491.11" y="-955.73" font-family="Helvetica,sans-Serif" font-size="32.00" fill="#29235c"> </text>
<text text-anchor="start" x="500" y="-955.73" font-family="Helvetica,sans-Serif" font-weight="bold" font-size="32.00" fill="#29235c">(!)</text>
<polygon fill="#e7e2dd" stroke="transparent" points="95.2,-874.53 95.2,-934.53 541.2,-934.53 541.2,-874.53 95.2,-874.53"/>
<polygon fill="none" stroke="#29235c" points="95.2,-874.53 95.2,-934.53 541.2,-934.53 541.2,-874.53 95.2,-874.53"/>
<text text-anchor="start" x="106.01" y="-894.73" font-family="Helvetica,sans-Serif" font-size="32.00" fill="#29235c">email_verified_at &#160;&#160;&#160;</text>
<text text-anchor="start" x="382.92" y="-895.73" font-family="Helvetica,sans-Serif" font-style="italic" font-size="32.00" fill="#29235c">timestamp</text>
<polygon fill="#e7e2dd" stroke="transparent" points="95.2,-814.53 95.2,-874.53 541.2,-874.53 541.2,-814.53 95.2,-814.53"/>
<polygon fill="none" stroke="#29235c" points="95.2,-814.53 95.2,-874.53 541.2,-874.53 541.2,-814.53 95.2,-814.53"/>
<text text-anchor="start" x="106.2" y="-834.73" font-family="Helvetica,sans-Serif" font-size="32.00" fill="#29235c">password &#160;&#160;&#160;</text>
<text text-anchor="start" x="384.43" y="-835.73" font-family="Helvetica,sans-Serif" font-style="italic" font-size="32.00" fill="#29235c">varchar</text>
<text text-anchor="start" x="491.11" y="-835.73" font-family="Helvetica,sans-Serif" font-size="32.00" fill="#29235c"> </text>
<text text-anchor="start" x="500" y="-835.73" font-family="Helvetica,sans-Serif" font-weight="bold" font-size="32.00" fill="#29235c">(!)</text>
<polygon fill="#e7e2dd" stroke="transparent" points="95.2,-754.53 95.2,-814.53 541.2,-814.53 541.2,-754.53 95.2,-754.53"/>
<polygon fill="none" stroke="#29235c" points="95.2,-754.53 95.2,-814.53 541.2,-814.53 541.2,-754.53 95.2,-754.53"/>
<text text-anchor="start" x="106.2" y="-774.73" font-family="Helvetica,sans-Serif" font-size="32.00" fill="#29235c">remember_token &#160;&#160;&#160;</text>
<text text-anchor="start" x="423.53" y="-775.73" font-family="Helvetica,sans-Serif" font-style="italic" font-size="32.00" fill="#29235c">varchar</text>
<polygon fill="#e7e2dd" stroke="transparent" points="95.2,-694.53 95.2,-754.53 541.2,-754.53 541.2,-694.53 95.2,-694.53"/>
<polygon fill="none" stroke="#29235c" points="95.2,-694.53 95.2,-754.53 541.2,-754.53 541.2,-694.53 95.2,-694.53"/>
<text text-anchor="start" x="106.2" y="-714.73" font-family="Helvetica,sans-Serif" font-size="32.00" fill="#29235c">custom_fields &#160;&#160;&#160;</text>
<text text-anchor="start" x="471.52" y="-715.73" font-family="Helvetica,sans-Serif" font-style="italic" font-size="32.00" fill="#29235c">json</text>
<polygon fill="#e7e2dd" stroke="transparent" points="95.2,-634.53 95.2,-694.53 541.2,-694.53 541.2,-634.53 95.2,-634.53"/>
<polygon fill="none" stroke="#29235c" points="95.2,-634.53 95.2,-694.53 541.2,-694.53 541.2,-634.53 95.2,-634.53"/>
<text text-anchor="start" x="106.2" y="-654.73" font-family="Helvetica,sans-Serif" font-size="32.00" fill="#29235c">avatar_url &#160;&#160;&#160;</text>
<text text-anchor="start" x="423.53" y="-655.73" font-family="Helvetica,sans-Serif" font-style="italic" font-size="32.00" fill="#29235c">varchar</text>
<polygon fill="#e7e2dd" stroke="transparent" points="95.2,-574.53 95.2,-634.53 541.2,-634.53 541.2,-574.53 95.2,-574.53"/>
<polygon fill="none" stroke="#29235c" points="95.2,-574.53 95.2,-634.53 541.2,-634.53 541.2,-574.53 95.2,-574.53"/>
<text text-anchor="start" x="106.2" y="-594.73" font-family="Helvetica,sans-Serif" font-size="32.00" fill="#29235c">created_at &#160;&#160;&#160;</text>
<text text-anchor="start" x="382.64" y="-595.73" font-family="Helvetica,sans-Serif" font-style="italic" font-size="32.00" fill="#29235c">timestamp</text>
<polygon fill="#e7e2dd" stroke="transparent" points="95.2,-514.53 95.2,-574.53 541.2,-574.53 541.2,-514.53 95.2,-514.53"/>
<polygon fill="none" stroke="#29235c" points="95.2,-514.53 95.2,-574.53 541.2,-574.53 541.2,-514.53 95.2,-514.53"/>
<text text-anchor="start" x="106.2" y="-534.73" font-family="Helvetica,sans-Serif" font-size="32.00" fill="#29235c">updated_at &#160;&#160;&#160;</text>
<text text-anchor="start" x="382.64" y="-535.73" font-family="Helvetica,sans-Serif" font-style="italic" font-size="32.00" fill="#29235c">timestamp</text>
<polygon fill="none" stroke="#29235c" stroke-width="2" points="94.2,-513.53 94.2,-1235.53 542.2,-1235.53 542.2,-513.53 94.2,-513.53"/>
</g>
<!-- users&#45;&gt;user_titles -->
<!-- users&#45;&gt;user_titles -->
<g id="edge10" class="edge">
<title>users:e&#45;&gt;user_titles:w</title>
<path fill="none" stroke="#29235c" stroke-width="3" d="M542.2,-1084.53C634.69,-1084.53 652.42,-1140.28 739.52,-1144.3"/>
<polygon fill="#29235c" stroke="#29235c" stroke-width="3" points="739.53,-1147.81 749.61,-1144.53 739.69,-1140.81 739.53,-1147.81"/>
<text text-anchor="middle" x="740.72" y="-1154.13" font-family="Helvetica,sans-Serif" font-size="32.00" fill="#29235c">1</text>
<text text-anchor="middle" x="533.3" y="-1094.13" font-family="Helvetica,sans-Serif" font-size="32.00" fill="#29235c">1</text>
</g>
</g>
</svg>
