<?xml version="1.0" encoding="UTF-8" standalone="no"?>
<!DOCTYPE svg PUBLIC "-//W3C//DTD SVG 1.1//EN"
 "http://www.w3.org/Graphics/SVG/1.1/DTD/svg11.dtd">
<!-- Generated by graphviz version 2.47.0 (20210316.0004)
 -->
<!-- Title: dbml Pages: 1 -->
<svg width="941pt" height="995pt"
 viewBox="0.00 0.00 940.61 995.07" xmlns="http://www.w3.org/2000/svg" xmlns:xlink="http://www.w3.org/1999/xlink">
<g id="graph0" class="graph" transform="scale(1 1) rotate(0) translate(4 991.07)">
<title>dbml</title>
<!-- menus -->
<g id="menus" class="node">
<title>menus</title>
<ellipse fill="none" stroke="black" stroke-width="0" cx="757.96" cy="-814.53" rx="173.9" ry="172.57"/>
<polygon fill="#1d71b8" stroke="transparent" points="636.96,-874.53 636.96,-934.53 878.96,-934.53 878.96,-874.53 636.96,-874.53"/>
<polygon fill="none" stroke="#29235c" points="636.96,-874.53 636.96,-934.53 878.96,-934.53 878.96,-874.53 636.96,-874.53"/>
<text text-anchor="start" x="647.7" y="-895.73" font-family="Helvetica,sans-Serif" font-weight="bold" font-size="32.00" fill="#ffffff"> &#160;&#160;&#160;&#160;&#160;&#160;menus &#160;&#160;&#160;&#160;&#160;&#160;</text>
<polygon fill="#e7e2dd" stroke="transparent" points="636.96,-814.53 636.96,-874.53 878.96,-874.53 878.96,-814.53 636.96,-814.53"/>
<polygon fill="none" stroke="#29235c" points="636.96,-814.53 636.96,-874.53 878.96,-874.53 878.96,-814.53 636.96,-814.53"/>
<text text-anchor="start" x="647.96" y="-835.73" font-family="Helvetica,sans-Serif" font-weight="bold" font-size="32.00" fill="#29235c">id</text>
<text text-anchor="start" x="672.85" y="-835.73" font-family="Helvetica,sans-Serif" font-size="32.00" fill="#29235c"> &#160;&#160;&#160;</text>
<text text-anchor="start" x="834.17" y="-835.73" font-family="Helvetica,sans-Serif" font-style="italic" font-size="32.00" fill="#29235c">int</text>
<polygon fill="#e7e2dd" stroke="transparent" points="636.96,-754.53 636.96,-814.53 878.96,-814.53 878.96,-754.53 636.96,-754.53"/>
<polygon fill="none" stroke="#29235c" points="636.96,-754.53 636.96,-814.53 878.96,-814.53 878.96,-754.53 636.96,-754.53"/>
<text text-anchor="start" x="647.96" y="-774.73" font-family="Helvetica,sans-Serif" font-size="32.00" fill="#29235c">label &#160;&#160;&#160;</text>
<text text-anchor="start" x="761.28" y="-775.73" font-family="Helvetica,sans-Serif" font-style="italic" font-size="32.00" fill="#29235c">varchar</text>
<polygon fill="#e7e2dd" stroke="transparent" points="636.96,-694.53 636.96,-754.53 878.96,-754.53 878.96,-694.53 636.96,-694.53"/>
<polygon fill="none" stroke="#29235c" points="636.96,-694.53 636.96,-754.53 878.96,-754.53 878.96,-694.53 636.96,-694.53"/>
<text text-anchor="start" x="647.96" y="-714.73" font-family="Helvetica,sans-Serif" font-size="32.00" fill="#29235c">path &#160;&#160;&#160;</text>
<text text-anchor="start" x="761.28" y="-715.73" font-family="Helvetica,sans-Serif" font-style="italic" font-size="32.00" fill="#29235c">varchar</text>
<polygon fill="none" stroke="#29235c" stroke-width="2" points="635.96,-693.53 635.96,-935.53 879.96,-935.53 879.96,-693.53 635.96,-693.53"/>
</g>
<!-- roles -->
<g id="roles" class="node">
<title>roles</title>
<ellipse fill="none" stroke="black" stroke-width="0" cx="757.96" cy="-493.53" rx="174.81" ry="130.22"/>
<polygon fill="#1d71b8" stroke="transparent" points="636.96,-523.53 636.96,-583.53 879.96,-583.53 879.96,-523.53 636.96,-523.53"/>
<polygon fill="none" stroke="#29235c" points="636.96,-523.53 636.96,-583.53 879.96,-583.53 879.96,-523.53 636.96,-523.53"/>
<text text-anchor="start" x="661.54" y="-544.73" font-family="Helvetica,sans-Serif" font-weight="bold" font-size="32.00" fill="#ffffff"> &#160;&#160;&#160;&#160;&#160;&#160;roles &#160;&#160;&#160;&#160;&#160;&#160;</text>
<polygon fill="#e7e2dd" stroke="transparent" points="636.96,-463.53 636.96,-523.53 879.96,-523.53 879.96,-463.53 636.96,-463.53"/>
<polygon fill="none" stroke="#29235c" points="636.96,-463.53 636.96,-523.53 879.96,-523.53 879.96,-463.53 636.96,-463.53"/>
<text text-anchor="start" x="647.96" y="-484.73" font-family="Helvetica,sans-Serif" font-weight="bold" font-size="32.00" fill="#29235c">id</text>
<text text-anchor="start" x="672.85" y="-484.73" font-family="Helvetica,sans-Serif" font-size="32.00" fill="#29235c"> &#160;&#160;&#160;</text>
<text text-anchor="start" x="835.17" y="-484.73" font-family="Helvetica,sans-Serif" font-style="italic" font-size="32.00" fill="#29235c">int</text>
<polygon fill="#e7e2dd" stroke="transparent" points="636.96,-403.53 636.96,-463.53 879.96,-463.53 879.96,-403.53 636.96,-403.53"/>
<polygon fill="none" stroke="#29235c" points="636.96,-403.53 636.96,-463.53 879.96,-463.53 879.96,-403.53 636.96,-403.53"/>
<text text-anchor="start" x="647.66" y="-423.73" font-family="Helvetica,sans-Serif" font-size="32.00" fill="#29235c">name &#160;&#160;&#160;</text>
<text text-anchor="start" x="762.62" y="-424.73" font-family="Helvetica,sans-Serif" font-style="italic" font-size="32.00" fill="#29235c">varchar</text>
<polygon fill="none" stroke="#29235c" stroke-width="2" points="635.46,-402.53 635.46,-584.53 880.46,-584.53 880.46,-402.53 635.46,-402.53"/>
</g>
<!-- users -->
<g id="users" class="node">
<title>users</title>
<ellipse fill="none" stroke="black" stroke-width="0" cx="757.96" cy="-172.53" rx="174.81" ry="172.57"/>
<polygon fill="#1d71b8" stroke="transparent" points="636.96,-232.53 636.96,-292.53 879.96,-292.53 879.96,-232.53 636.96,-232.53"/>
<polygon fill="none" stroke="#29235c" points="636.96,-232.53 636.96,-292.53 879.96,-292.53 879.96,-232.53 636.96,-232.53"/>
<text text-anchor="start" x="657.09" y="-253.73" font-family="Helvetica,sans-Serif" font-weight="bold" font-size="32.00" fill="#ffffff"> &#160;&#160;&#160;&#160;&#160;&#160;users &#160;&#160;&#160;&#160;&#160;&#160;</text>
<polygon fill="#e7e2dd" stroke="transparent" points="636.96,-172.53 636.96,-232.53 879.96,-232.53 879.96,-172.53 636.96,-172.53"/>
<polygon fill="none" stroke="#29235c" points="636.96,-172.53 636.96,-232.53 879.96,-232.53 879.96,-172.53 636.96,-172.53"/>
<text text-anchor="start" x="647.96" y="-193.73" font-family="Helvetica,sans-Serif" font-weight="bold" font-size="32.00" fill="#29235c">id</text>
<text text-anchor="start" x="672.85" y="-193.73" font-family="Helvetica,sans-Serif" font-size="32.00" fill="#29235c"> &#160;&#160;&#160;</text>
<text text-anchor="start" x="835.17" y="-193.73" font-family="Helvetica,sans-Serif" font-style="italic" font-size="32.00" fill="#29235c">int</text>
<polygon fill="#e7e2dd" stroke="transparent" points="636.96,-112.53 636.96,-172.53 879.96,-172.53 879.96,-112.53 636.96,-112.53"/>
<polygon fill="none" stroke="#29235c" points="636.96,-112.53 636.96,-172.53 879.96,-172.53 879.96,-112.53 636.96,-112.53"/>
<text text-anchor="start" x="647.66" y="-132.73" font-family="Helvetica,sans-Serif" font-size="32.00" fill="#29235c">name &#160;&#160;&#160;</text>
<text text-anchor="start" x="762.62" y="-133.73" font-family="Helvetica,sans-Serif" font-style="italic" font-size="32.00" fill="#29235c">varchar</text>
<polygon fill="#e7e2dd" stroke="transparent" points="636.96,-52.53 636.96,-112.53 879.96,-112.53 879.96,-52.53 636.96,-52.53"/>
<polygon fill="none" stroke="#29235c" points="636.96,-52.53 636.96,-112.53 879.96,-112.53 879.96,-52.53 636.96,-52.53"/>
<text text-anchor="start" x="647.96" y="-72.73" font-family="Helvetica,sans-Serif" font-size="32.00" fill="#29235c">email &#160;&#160;&#160;</text>
<text text-anchor="start" x="762.28" y="-73.73" font-family="Helvetica,sans-Serif" font-style="italic" font-size="32.00" fill="#29235c">varchar</text>
<polygon fill="none" stroke="#29235c" stroke-width="2" points="635.46,-51.53 635.46,-293.53 880.46,-293.53 880.46,-51.53 635.46,-51.53"/>
</g>
<!-- role_has_menus -->
<g id="role_has_menus" class="node">
<title>role_has_menus</title>
<ellipse fill="none" stroke="black" stroke-width="0" cx="273.65" cy="-759.53" rx="273.8" ry="172.57"/>
<polygon fill="#1d71b8" stroke="transparent" points="82.65,-819.53 82.65,-879.53 465.65,-879.53 465.65,-819.53 82.65,-819.53"/>
<polygon fill="none" stroke="#29235c" points="82.65,-819.53 82.65,-879.53 465.65,-879.53 465.65,-819.53 82.65,-819.53"/>
<text text-anchor="start" x="93.65" y="-840.73" font-family="Helvetica,sans-Serif" font-weight="bold" font-size="32.00" fill="#ffffff"> &#160;&#160;&#160;&#160;&#160;&#160;role_has_menus &#160;&#160;&#160;&#160;&#160;&#160;</text>
<polygon fill="#e7e2dd" stroke="transparent" points="82.65,-759.53 82.65,-819.53 465.65,-819.53 465.65,-759.53 82.65,-759.53"/>
<polygon fill="none" stroke="#29235c" points="82.65,-759.53 82.65,-819.53 465.65,-819.53 465.65,-759.53 82.65,-759.53"/>
<text text-anchor="start" x="93.65" y="-780.73" font-family="Helvetica,sans-Serif" font-weight="bold" font-size="32.00" fill="#29235c">id</text>
<text text-anchor="start" x="118.54" y="-780.73" font-family="Helvetica,sans-Serif" font-size="32.00" fill="#29235c"> &#160;&#160;&#160;</text>
<text text-anchor="start" x="420.87" y="-780.73" font-family="Helvetica,sans-Serif" font-style="italic" font-size="32.00" fill="#29235c">int</text>
<polygon fill="#e7e2dd" stroke="transparent" points="82.65,-699.53 82.65,-759.53 465.65,-759.53 465.65,-699.53 82.65,-699.53"/>
<polygon fill="none" stroke="#29235c" points="82.65,-699.53 82.65,-759.53 465.65,-759.53 465.65,-699.53 82.65,-699.53"/>
<text text-anchor="start" x="93.65" y="-719.73" font-family="Helvetica,sans-Serif" font-size="32.00" fill="#29235c">role_id &#160;&#160;&#160;</text>
<text text-anchor="start" x="420.87" y="-720.73" font-family="Helvetica,sans-Serif" font-style="italic" font-size="32.00" fill="#29235c">int</text>
<polygon fill="#e7e2dd" stroke="transparent" points="82.65,-639.53 82.65,-699.53 465.65,-699.53 465.65,-639.53 82.65,-639.53"/>
<polygon fill="none" stroke="#29235c" points="82.65,-639.53 82.65,-699.53 465.65,-699.53 465.65,-639.53 82.65,-639.53"/>
<text text-anchor="start" x="93.65" y="-659.73" font-family="Helvetica,sans-Serif" font-size="32.00" fill="#29235c">menu_id &#160;&#160;&#160;</text>
<text text-anchor="start" x="420.87" y="-660.73" font-family="Helvetica,sans-Serif" font-style="italic" font-size="32.00" fill="#29235c">int</text>
<polygon fill="none" stroke="#29235c" stroke-width="2" points="81.15,-638.53 81.15,-880.53 466.15,-880.53 466.15,-638.53 81.15,-638.53"/>
</g>
<!-- role_has_menus&#45;&gt;menus -->
<!-- role_has_menus&#45;&gt;menus -->
<g id="edge4" class="edge">
<title>role_has_menus:e&#45;&gt;menus:w</title>
<path fill="none" stroke="#29235c" stroke-width="3" d="M466.65,-669.53C571.38,-669.53 530.61,-833.44 625.97,-844"/>
<polygon fill="#29235c" stroke="#29235c" stroke-width="3" points="625.78,-847.5 635.96,-844.53 626.16,-840.51 625.78,-847.5"/>
<text text-anchor="middle" x="627.06" y="-854.13" font-family="Helvetica,sans-Serif" font-size="32.00" fill="#29235c">1</text>
<text text-anchor="middle" x="472.87" y="-679.13" font-family="Helvetica,sans-Serif" font-size="32.00" fill="#29235c">*</text>
</g>
<!-- role_has_menus&#45;&gt;roles -->
<!-- role_has_menus&#45;&gt;roles -->
<g id="edge2" class="edge">
<title>role_has_menus:e&#45;&gt;roles:w</title>
<path fill="none" stroke="#29235c" stroke-width="3" d="M466.65,-729.53C592.21,-729.53 511.56,-506.26 625.85,-494.05"/>
<polygon fill="#29235c" stroke="#29235c" stroke-width="3" points="626.15,-497.54 635.96,-493.53 625.79,-490.55 626.15,-497.54"/>
<text text-anchor="middle" x="627.06" y="-503.13" font-family="Helvetica,sans-Serif" font-size="32.00" fill="#29235c">1</text>
<text text-anchor="middle" x="472.87" y="-739.13" font-family="Helvetica,sans-Serif" font-size="32.00" fill="#29235c">*</text>
</g>
<!-- user_has_roles -->
<g id="user_has_roles" class="node">
<title>user_has_roles</title>
<ellipse fill="none" stroke="black" stroke-width="0" cx="273.65" cy="-287.53" rx="260.84" ry="172.57"/>
<polygon fill="#1d71b8" stroke="transparent" points="91.65,-347.53 91.65,-407.53 456.65,-407.53 456.65,-347.53 91.65,-347.53"/>
<polygon fill="none" stroke="#29235c" points="91.65,-347.53 91.65,-407.53 456.65,-407.53 456.65,-347.53 91.65,-347.53"/>
<text text-anchor="start" x="102.54" y="-368.73" font-family="Helvetica,sans-Serif" font-weight="bold" font-size="32.00" fill="#ffffff"> &#160;&#160;&#160;&#160;&#160;&#160;user_has_roles &#160;&#160;&#160;&#160;&#160;&#160;</text>
<polygon fill="#e7e2dd" stroke="transparent" points="91.65,-287.53 91.65,-347.53 456.65,-347.53 456.65,-287.53 91.65,-287.53"/>
<polygon fill="none" stroke="#29235c" points="91.65,-287.53 91.65,-347.53 456.65,-347.53 456.65,-287.53 91.65,-287.53"/>
<text text-anchor="start" x="102.65" y="-308.73" font-family="Helvetica,sans-Serif" font-weight="bold" font-size="32.00" fill="#29235c">id</text>
<text text-anchor="start" x="127.54" y="-308.73" font-family="Helvetica,sans-Serif" font-size="32.00" fill="#29235c"> &#160;&#160;&#160;</text>
<text text-anchor="start" x="411.87" y="-308.73" font-family="Helvetica,sans-Serif" font-style="italic" font-size="32.00" fill="#29235c">int</text>
<polygon fill="#e7e2dd" stroke="transparent" points="91.65,-227.53 91.65,-287.53 456.65,-287.53 456.65,-227.53 91.65,-227.53"/>
<polygon fill="none" stroke="#29235c" points="91.65,-227.53 91.65,-287.53 456.65,-287.53 456.65,-227.53 91.65,-227.53"/>
<text text-anchor="start" x="102.65" y="-247.73" font-family="Helvetica,sans-Serif" font-size="32.00" fill="#29235c">user_id &#160;&#160;&#160;</text>
<text text-anchor="start" x="411.87" y="-248.73" font-family="Helvetica,sans-Serif" font-style="italic" font-size="32.00" fill="#29235c">int</text>
<polygon fill="#e7e2dd" stroke="transparent" points="91.65,-167.53 91.65,-227.53 456.65,-227.53 456.65,-167.53 91.65,-167.53"/>
<polygon fill="none" stroke="#29235c" points="91.65,-167.53 91.65,-227.53 456.65,-227.53 456.65,-167.53 91.65,-167.53"/>
<text text-anchor="start" x="102.65" y="-187.73" font-family="Helvetica,sans-Serif" font-size="32.00" fill="#29235c">role_id &#160;&#160;&#160;</text>
<text text-anchor="start" x="411.87" y="-188.73" font-family="Helvetica,sans-Serif" font-style="italic" font-size="32.00" fill="#29235c">int</text>
<polygon fill="none" stroke="#29235c" stroke-width="2" points="90.15,-166.53 90.15,-408.53 457.15,-408.53 457.15,-166.53 90.15,-166.53"/>
</g>
<!-- user_has_roles&#45;&gt;roles -->
<!-- user_has_roles&#45;&gt;roles -->
<g id="edge8" class="edge">
<title>user_has_roles:e&#45;&gt;roles:w</title>
<path fill="none" stroke="#29235c" stroke-width="3" d="M457.65,-197.53C607.63,-197.53 488.26,-479.82 625.62,-493.05"/>
<polygon fill="#29235c" stroke="#29235c" stroke-width="3" points="625.8,-496.57 635.96,-493.53 626.13,-489.57 625.8,-496.57"/>
<text text-anchor="middle" x="644.85" y="-503.13" font-family="Helvetica,sans-Serif" font-size="32.00" fill="#29235c">1</text>
<text text-anchor="middle" x="463.87" y="-207.13" font-family="Helvetica,sans-Serif" font-size="32.00" fill="#29235c">*</text>
</g>
<!-- user_has_roles&#45;&gt;users -->
<!-- user_has_roles&#45;&gt;users -->
<g id="edge6" class="edge">
<title>user_has_roles:e&#45;&gt;users:w</title>
<path fill="none" stroke="#29235c" stroke-width="3" d="M457.65,-257.53C537.02,-257.53 551.83,-207.16 625.64,-202.83"/>
<polygon fill="#29235c" stroke="#29235c" stroke-width="3" points="626.06,-206.32 635.96,-202.53 625.86,-199.32 626.06,-206.32"/>
<text text-anchor="middle" x="627.06" y="-212.13" font-family="Helvetica,sans-Serif" font-size="32.00" fill="#29235c">1</text>
<text text-anchor="middle" x="463.87" y="-267.13" font-family="Helvetica,sans-Serif" font-size="32.00" fill="#29235c">*</text>
</g>
</g>
</svg>
