<?xml version="1.0" encoding="UTF-8" standalone="no"?>
<!DOCTYPE svg PUBLIC "-//W3C//DTD SVG 1.1//EN"
 "http://www.w3.org/Graphics/SVG/1.1/DTD/svg11.dtd">
<!-- Generated by graphviz version 2.47.0 (20210316.0004)
 -->
<!-- Title: dbml Pages: 1 -->
<svg width="919pt" height="353pt"
 viewBox="0.00 0.00 919.40 353.07" xmlns="http://www.w3.org/2000/svg" xmlns:xlink="http://www.w3.org/1999/xlink">
<g id="graph0" class="graph" transform="scale(1 1) rotate(0) translate(4 349.07)">
<title>dbml</title>
<!-- users -->
<g id="users" class="node">
<title>users</title>
<ellipse fill="none" stroke="black" stroke-width="0" cx="736.74" cy="-172.53" rx="174.81" ry="172.57"/>
<polygon fill="#1d71b8" stroke="transparent" points="615.74,-232.53 615.74,-292.53 858.74,-292.53 858.74,-232.53 615.74,-232.53"/>
<polygon fill="none" stroke="#29235c" points="615.74,-232.53 615.74,-292.53 858.74,-292.53 858.74,-232.53 615.74,-232.53"/>
<text text-anchor="start" x="635.88" y="-253.73" font-family="Helvetica,sans-Serif" font-weight="bold" font-size="32.00" fill="#ffffff"> &#160;&#160;&#160;&#160;&#160;&#160;users &#160;&#160;&#160;&#160;&#160;&#160;</text>
<polygon fill="#e7e2dd" stroke="transparent" points="615.74,-172.53 615.74,-232.53 858.74,-232.53 858.74,-172.53 615.74,-172.53"/>
<polygon fill="none" stroke="#29235c" points="615.74,-172.53 615.74,-232.53 858.74,-232.53 858.74,-172.53 615.74,-172.53"/>
<text text-anchor="start" x="626.74" y="-193.73" font-family="Helvetica,sans-Serif" font-weight="bold" font-size="32.00" fill="#29235c">id</text>
<text text-anchor="start" x="651.63" y="-193.73" font-family="Helvetica,sans-Serif" font-size="32.00" fill="#29235c"> &#160;&#160;&#160;</text>
<text text-anchor="start" x="813.96" y="-193.73" font-family="Helvetica,sans-Serif" font-style="italic" font-size="32.00" fill="#29235c">int</text>
<polygon fill="#e7e2dd" stroke="transparent" points="615.74,-112.53 615.74,-172.53 858.74,-172.53 858.74,-112.53 615.74,-112.53"/>
<polygon fill="none" stroke="#29235c" points="615.74,-112.53 615.74,-172.53 858.74,-172.53 858.74,-112.53 615.74,-112.53"/>
<text text-anchor="start" x="626.45" y="-132.73" font-family="Helvetica,sans-Serif" font-size="32.00" fill="#29235c">name &#160;&#160;&#160;</text>
<text text-anchor="start" x="741.41" y="-133.73" font-family="Helvetica,sans-Serif" font-style="italic" font-size="32.00" fill="#29235c">varchar</text>
<polygon fill="#e7e2dd" stroke="transparent" points="615.74,-52.53 615.74,-112.53 858.74,-112.53 858.74,-52.53 615.74,-52.53"/>
<polygon fill="none" stroke="#29235c" points="615.74,-52.53 615.74,-112.53 858.74,-112.53 858.74,-52.53 615.74,-52.53"/>
<text text-anchor="start" x="626.74" y="-72.73" font-family="Helvetica,sans-Serif" font-size="32.00" fill="#29235c">email &#160;&#160;&#160;</text>
<text text-anchor="start" x="741.07" y="-73.73" font-family="Helvetica,sans-Serif" font-style="italic" font-size="32.00" fill="#29235c">varchar</text>
<polygon fill="none" stroke="#29235c" stroke-width="2" points="614.24,-51.53 614.24,-293.53 859.24,-293.53 859.24,-51.53 614.24,-51.53"/>
</g>
<!-- squad_member -->
<g id="squad_member" class="node">
<title>squad_member</title>
<ellipse fill="none" stroke="black" stroke-width="0" cx="263.04" cy="-202.53" rx="263.09" ry="130.22"/>
<polygon fill="#1d71b8" stroke="transparent" points="79.04,-232.53 79.04,-292.53 447.04,-292.53 447.04,-232.53 79.04,-232.53"/>
<polygon fill="none" stroke="#29235c" points="79.04,-232.53 79.04,-292.53 447.04,-292.53 447.04,-232.53 79.04,-232.53"/>
<text text-anchor="start" x="89.66" y="-253.73" font-family="Helvetica,sans-Serif" font-weight="bold" font-size="32.00" fill="#ffffff"> &#160;&#160;&#160;&#160;&#160;&#160;squad_member &#160;&#160;&#160;&#160;&#160;&#160;</text>
<polygon fill="#e7e2dd" stroke="transparent" points="79.04,-172.53 79.04,-232.53 447.04,-232.53 447.04,-172.53 79.04,-172.53"/>
<polygon fill="none" stroke="#29235c" points="79.04,-172.53 79.04,-232.53 447.04,-232.53 447.04,-172.53 79.04,-172.53"/>
<text text-anchor="start" x="90.04" y="-193.73" font-family="Helvetica,sans-Serif" font-weight="bold" font-size="32.00" fill="#29235c">id</text>
<text text-anchor="start" x="114.93" y="-193.73" font-family="Helvetica,sans-Serif" font-size="32.00" fill="#29235c"> &#160;&#160;&#160;</text>
<text text-anchor="start" x="402.26" y="-193.73" font-family="Helvetica,sans-Serif" font-style="italic" font-size="32.00" fill="#29235c">int</text>
<polygon fill="#e7e2dd" stroke="transparent" points="79.04,-112.53 79.04,-172.53 447.04,-172.53 447.04,-112.53 79.04,-112.53"/>
<polygon fill="none" stroke="#29235c" points="79.04,-112.53 79.04,-172.53 447.04,-172.53 447.04,-112.53 79.04,-112.53"/>
<text text-anchor="start" x="90.04" y="-132.73" font-family="Helvetica,sans-Serif" font-size="32.00" fill="#29235c">squad_id &#160;&#160;&#160;</text>
<text text-anchor="start" x="402.26" y="-133.73" font-family="Helvetica,sans-Serif" font-style="italic" font-size="32.00" fill="#29235c">int</text>
<polygon fill="none" stroke="#29235c" stroke-width="2" points="78.04,-111.53 78.04,-293.53 448.04,-293.53 448.04,-111.53 78.04,-111.53"/>
</g>
<!-- squad_member&#45;&gt;users -->
<!-- squad_member&#45;&gt;users -->
<g id="edge2" class="edge">
<title>squad_member:e&#45;&gt;users:w</title>
<path fill="none" stroke="#29235c" stroke-width="3" d="M448.04,-142.53C523.25,-142.53 535.03,-197.26 604.54,-202.18"/>
<polygon fill="#29235c" stroke="#29235c" stroke-width="3" points="604.63,-205.69 614.74,-202.53 604.87,-198.69 604.63,-205.69"/>
<text text-anchor="middle" x="605.85" y="-173.73" font-family="Helvetica,sans-Serif" font-size="32.00" fill="#29235c">1</text>
<text text-anchor="middle" x="441.82" y="-113.73" font-family="Helvetica,sans-Serif" font-size="32.00" fill="#29235c">*</text>
</g>
</g>
</svg>
